<svg version="1.1" xmlns="http://www.w3.org/2000/svg" xmlns:xlink="http://www.w3.org/1999/xlink" width="326.66667" height="105" viewBox="0,0,326.66667,105"><g transform="translate(-76.66666,-127.5)"><g data-paper-data="{&quot;isPaintingLayer&quot;:true}" fill-rule="nonzero" stroke-linejoin="miter" stroke-miterlimit="10" stroke-dasharray="" stroke-dashoffset="0" style="mix-blend-mode: normal"><path d="M76.66666,232.5v-105h326.66667v105z" fill="none" stroke="none" stroke-width="none" stroke-linecap="butt"/><path d="M229.54757,200.46933l-0.54114,2.70565c-4.87019,-0.54111 -21.73722,-1.08225 -27.68974,-1.08225c-8.11698,0 -21.41048,0.54111 -27.9041,1.08225v-2.70565c2.70565,-1.08229 12.75235,-2.16454 15.99914,-3.24679c0.54111,-4.32904 1.08229,-15.15174 1.08229,-28.68009c0,-13.52835 -0.54114,-13.79381 -1.08229,-18.664c-2.70565,-0.54111 -7.93323,7.48398 -10.63887,5.86058l0.89846,-14.14097c4.68943,0.72145 10.18061,-7.47678 10.18061,-7.47678c0,0 10.56213,1.95314 14.71155,1.95314c5.95248,0 7.07556,0.53092 11.94579,-0.01023v3.24683c-2.70565,0.54111 -1.12312,0.55133 -3.82877,1.63362c-0.54114,4.32904 -1.6234,14.06946 -1.6234,27.5978c0,13.52835 0.54111,24.35105 1.6234,28.68009c2.16454,0.54111 14.7025,2.1645 16.86704,3.24679z" fill="#d6a749" stroke="#000000" stroke-width="6.5" stroke-linecap="butt"/><path d="M229.54757,200.46933l-0.54114,2.70565c-4.87019,-0.54111 -21.73722,-1.08225 -27.68974,-1.08225c-8.11698,0 -21.41048,0.54111 -27.9041,1.08225v-2.70565c2.70565,-1.08229 12.75235,-2.16454 15.99914,-3.24679c0.54111,-4.32904 1.08229,-15.15174 1.08229,-28.68009c0,-13.52835 -0.54114,-13.79381 -1.08229,-18.664c-2.70565,-0.54111 -7.93323,7.48398 -10.63887,5.86058l0.89846,-14.14097c4.68943,0.72145 10.18061,-7.47678 10.18061,-7.47678c0,0 10.56213,1.95314 14.71155,1.95314c5.95248,0 7.07556,0.53092 11.94579,-0.01023v3.24683c-2.70565,0.54111 -1.12312,0.55133 -3.82877,1.63362c-0.54114,4.32904 -1.6234,14.06946 -1.6234,27.5978c0,13.52835 0.54111,24.35105 1.6234,28.68009c2.16454,0.54111 14.7025,2.1645 16.86704,3.24679z" fill="#ff3333" stroke="#000000" stroke-width="0" stroke-linecap="butt"/><path d="M295.23274,175.48199c-0.49583,4.8964 -2.23127,9.42092 -5.2063,13.57356c-4.09066,5.8261 -9.66884,9.173 -16.73453,10.04072c-2.47919,0.3099 -4.67947,0.12396 -6.60084,-0.55782c-0.37188,3.09898 -0.5888,6.10501 -0.65079,9.01805c-0.12396,3.28492 0.46485,5.76412 1.76642,7.43757c0.74376,0.9297 1.5185,1.39454 2.32424,1.39454c0.99168,0 2.01434,-0.24792 3.068,-0.74376c-2.60315,7.00371 -6.84876,10.4126 -12.73684,10.22666c-5.33025,-0.18594 -7.90242,-3.47086 -7.71648,-9.85478c0.12396,-3.59483 1.23959,-10.62952 3.34691,-21.1041c2.10731,-10.53655 3.19195,-17.23036 3.25394,-20.08143c0.18594,-1.30157 -0.27891,-1.95236 -1.39454,-1.95236c-0.43386,0 -1.5185,0.68177 -3.25394,2.04533l-2.32424,-2.69612c0.3099,-0.24792 2.35523,-2.1383 6.13599,-5.67115c2.72711,-2.54117 4.55551,-3.84274 5.48521,-3.90472c1.79741,-0.12396 3.22295,0.5888 4.2766,2.1383c1.05365,1.48751 1.58048,3.28492 1.58048,5.39224c0,0.6198 -0.06198,1.2086 -0.18594,1.76642c5.51619,-6.01204 11.0014,-8.98706 16.45562,-8.92508c6.13599,0.12396 9.20399,3.6568 9.20399,10.59854c0,0.68177 -0.03099,1.30157 -0.09297,1.85939zM282.40293,176.78357c0.06198,-2.47919 -0.96068,-3.71878 -3.068,-3.71878c-2.29325,0 -4.61749,1.70444 -6.97272,5.11333c-2.16929,3.03701 -3.34691,5.7951 -3.53285,8.27429c-0.06198,1.11564 0.12396,2.04533 0.55782,2.78909c0.49583,0.68177 1.33256,0.96068 2.51018,0.83673c2.60315,-0.12396 5.08234,-1.95236 7.43757,-5.48521c1.98335,-2.97503 3.00601,-5.57818 3.068,-7.80945zM326.62227,182.1758l1.85939,2.41721c-1.61147,3.09898 -4.5865,6.25995 -8.92508,9.4829c-5.08234,3.78077 -9.85478,5.67115 -14.31732,5.67115c-5.45422,0 -8.21231,-2.35523 -8.27429,-7.06569c-0.06198,-3.34691 0.96068,-11.0324 3.068,-23.05646h-3.99769c-0.74376,0 -1.05365,-0.34089 -0.9297,-1.02267l0.9297,-4.18363c0.06198,-0.43386 0.34089,-0.65079 0.83673,-0.65079h4.09066l1.48751,-9.4829c0.3099,-1.5495 1.92137,-3.12998 4.83442,-4.74145c2.78909,-1.42553 5.02036,-2.1383 6.69381,-2.1383c0.9297,0 1.33256,0.27891 1.2086,0.83673c-0.6198,2.85107 -1.70444,8.02637 -3.25394,15.52592h6.60084c0.68177,0 0.96068,0.3099 0.83673,0.9297l-0.83673,4.18363c0,0.49583 -0.27891,0.74376 -0.83673,0.74376h-6.97272c-1.30157,6.81777 -2.01434,12.30297 -2.1383,16.45562c-0.06198,2.41721 1.5185,3.62581 4.74145,3.62581c2.41721,0 5.08234,-0.96068 7.99539,-2.88206c2.16929,-1.48751 3.93571,-3.03701 5.29927,-4.64848zM363.91377,177.99217c-0.3099,6.01204 -2.54117,11.18734 -6.69381,15.52592c-4.21462,4.40056 -9.42092,6.60084 -15.61889,6.60084c-5.14432,0 -9.08003,-1.67345 -11.80714,-5.02036c-1.92137,-2.47919 -2.97503,-5.57818 -3.16097,-9.29696c-0.37188,-5.64016 1.64247,-10.81546 6.04302,-15.52592c4.71046,-5.2063 10.62952,-7.80945 17.75719,-7.80945c4.5865,0 8.05737,1.5185 10.4126,4.55551c2.23127,2.85107 3.25394,6.50787 3.068,10.97041zM352.75743,177.52732c0.06198,-1.73544 -0.18594,-3.31592 -0.74376,-4.74145c-0.49583,-1.5495 -1.27059,-2.32424 -2.32424,-2.32424c-3.34691,0 -6.10501,1.79741 -8.27429,5.39224c-1.85939,2.97503 -2.85107,6.13599 -2.97503,9.4829c-0.06198,1.61147 0.24792,3.03701 0.9297,4.2766c0.68177,1.42553 1.67345,2.1383 2.97503,2.1383c2.97503,0 5.51619,-1.73544 7.62351,-5.2063c1.73544,-2.85107 2.66513,-5.85709 2.78909,-9.01805zM378.28115,194.07591c-0.37188,1.79741 -1.36356,3.47086 -2.97503,5.02036c-1.98335,1.73544 -4.36957,2.60315 -7.15866,2.60315c-4.02868,0 -5.76412,-1.73544 -5.2063,-5.2063c0.24792,-1.73544 1.48751,-3.43988 3.71878,-5.11333c2.23127,-1.67345 4.5865,-2.51018 7.06569,-2.51018c1.48751,0 2.66513,0.55782 3.53285,1.67345c0.86771,1.11564 1.2086,2.29325 1.02267,3.53285z" fill="#d6a749" stroke="#000000" stroke-width="5.5" stroke-linecap="butt"/><path d="M295.23274,175.48199c-0.49583,4.8964 -2.23127,9.42092 -5.2063,13.57356c-4.09066,5.8261 -9.66884,9.173 -16.73453,10.04072c-2.47919,0.3099 -4.67947,0.12396 -6.60084,-0.55782c-0.37188,3.09898 -0.5888,6.10501 -0.65079,9.01805c-0.12396,3.28492 0.46485,5.76412 1.76642,7.43757c0.74376,0.9297 1.5185,1.39454 2.32424,1.39454c0.99168,0 2.01434,-0.24792 3.068,-0.74376c-2.60315,7.00371 -6.84876,10.4126 -12.73684,10.22666c-5.33025,-0.18594 -7.90242,-3.47086 -7.71648,-9.85478c0.12396,-3.59483 1.23959,-10.62952 3.34691,-21.1041c2.10731,-10.53655 3.19195,-17.23036 3.25394,-20.08143c0.18594,-1.30157 -0.27891,-1.95236 -1.39454,-1.95236c-0.43386,0 -1.5185,0.68177 -3.25394,2.04533l-2.32424,-2.69612c0.3099,-0.24792 2.35523,-2.1383 6.13599,-5.67115c2.72711,-2.54117 4.55551,-3.84274 5.48521,-3.90472c1.79741,-0.12396 3.22295,0.5888 4.2766,2.1383c1.05365,1.48751 1.58048,3.28492 1.58048,5.39224c0,0.6198 -0.06198,1.2086 -0.18594,1.76642c5.51619,-6.01204 11.0014,-8.98706 16.45562,-8.92508c6.13599,0.12396 9.20399,3.6568 9.20399,10.59854c0,0.68177 -0.03099,1.30157 -0.09297,1.85939zM282.40293,176.78357c0.06198,-2.47919 -0.96068,-3.71878 -3.068,-3.71878c-2.29325,0 -4.61749,1.70444 -6.97272,5.11333c-2.16929,3.03701 -3.34691,5.7951 -3.53285,8.27429c-0.06198,1.11564 0.12396,2.04533 0.55782,2.78909c0.49583,0.68177 1.33256,0.96068 2.51018,0.83673c2.60315,-0.12396 5.08234,-1.95236 7.43757,-5.48521c1.98335,-2.97503 3.00601,-5.57818 3.068,-7.80945zM326.62227,182.1758l1.85939,2.41721c-1.61147,3.09898 -4.5865,6.25995 -8.92508,9.4829c-5.08234,3.78077 -9.85478,5.67115 -14.31732,5.67115c-5.45422,0 -8.21231,-2.35523 -8.27429,-7.06569c-0.06198,-3.34691 0.96068,-11.0324 3.068,-23.05646h-3.99769c-0.74376,0 -1.05365,-0.34089 -0.9297,-1.02267l0.9297,-4.18363c0.06198,-0.43386 0.34089,-0.65079 0.83673,-0.65079h4.09066l1.48751,-9.4829c0.3099,-1.5495 1.92137,-3.12998 4.83442,-4.74145c2.78909,-1.42553 5.02036,-2.1383 6.69381,-2.1383c0.9297,0 1.33256,0.27891 1.2086,0.83673c-0.6198,2.85107 -1.70444,8.02637 -3.25394,15.52592h6.60084c0.68177,0 0.96068,0.3099 0.83673,0.9297l-0.83673,4.18363c0,0.49583 -0.27891,0.74376 -0.83673,0.74376h-6.97272c-1.30157,6.81777 -2.01434,12.30297 -2.1383,16.45562c-0.06198,2.41721 1.5185,3.62581 4.74145,3.62581c2.41721,0 5.08234,-0.96068 7.99539,-2.88206c2.16929,-1.48751 3.93571,-3.03701 5.29927,-4.64848zM363.91377,177.99217c-0.3099,6.01204 -2.54117,11.18734 -6.69381,15.52592c-4.21462,4.40056 -9.42092,6.60084 -15.61889,6.60084c-5.14432,0 -9.08003,-1.67345 -11.80714,-5.02036c-1.92137,-2.47919 -2.97503,-5.57818 -3.16097,-9.29696c-0.37188,-5.64016 1.64247,-10.81546 6.04302,-15.52592c4.71046,-5.2063 10.62952,-7.80945 17.75719,-7.80945c4.5865,0 8.05737,1.5185 10.4126,4.55551c2.23127,2.85107 3.25394,6.50787 3.068,10.97041zM352.75743,177.52732c0.06198,-1.73544 -0.18594,-3.31592 -0.74376,-4.74145c-0.49583,-1.5495 -1.27059,-2.32424 -2.32424,-2.32424c-3.34691,0 -6.10501,1.79741 -8.27429,5.39224c-1.85939,2.97503 -2.85107,6.13599 -2.97503,9.4829c-0.06198,1.61147 0.24792,3.03701 0.9297,4.2766c0.68177,1.42553 1.67345,2.1383 2.97503,2.1383c2.97503,0 5.51619,-1.73544 7.62351,-5.2063c1.73544,-2.85107 2.66513,-5.85709 2.78909,-9.01805zM378.28115,194.07591c-0.37188,1.79741 -1.36356,3.47086 -2.97503,5.02036c-1.98335,1.73544 -4.36957,2.60315 -7.15866,2.60315c-4.02868,0 -5.76412,-1.73544 -5.2063,-5.2063c0.24792,-1.73544 1.48751,-3.43988 3.71878,-5.11333c2.23127,-1.67345 4.5865,-2.51018 7.06569,-2.51018c1.48751,0 2.66513,0.55782 3.53285,1.67345c0.86771,1.11564 1.2086,2.29325 1.02267,3.53285z" fill="#ff3333" stroke="#000000" stroke-width="0" stroke-linecap="butt"/><path d="M136.34847,140.5827l-0.84134,21.87887l22.22141,0.02435l-1.11399,11.26677l-21.54139,-0.0056l-0.8426,21.91165h-11.30292l0.84249,-21.90911l-22.1005,-0.23359l1.16531,-10.95459l21.36916,-0.09735l0.84143,-21.88141z" fill="#ff3333" stroke="#000000" stroke-width="6.5" stroke-linecap="round"/><path d="M136.34847,140.5827l-0.84134,21.87887l22.22141,0.02435l-1.11399,11.26677l-21.54139,-0.0056l-0.8426,21.91165h-11.30292l0.84249,-21.90911l-22.1005,-0.23359l1.16531,-10.95459l21.36916,-0.09735l0.84143,-21.88141z" fill="#ff3333" stroke="#000000" stroke-width="0" stroke-linecap="round"/></g></g></svg>