<svg version="1.1" xmlns="http://www.w3.org/2000/svg" xmlns:xlink="http://www.w3.org/1999/xlink" width="447.42689" height="127.4823" viewBox="0,0,447.42689,127.4823"><defs><linearGradient x1="28.78011" y1="202.5787" x2="28.78011" y2="226.85954" gradientUnits="userSpaceOnUse" id="color-1"><stop offset="0" stop-color="#009fcc"/><stop offset="1" stop-color="#d4f2fc" stop-opacity="0.29839"/></linearGradient><linearGradient x1="113.13507" y1="202.5787" x2="113.13507" y2="226.85954" gradientUnits="userSpaceOnUse" id="color-2"><stop offset="0" stop-color="#cc0000"/><stop offset="1" stop-color="#fcd4d4" stop-opacity="0.36353"/></linearGradient><linearGradient x1="308.80657" y1="202.5787" x2="308.80657" y2="226.85954" gradientUnits="userSpaceOnUse" id="color-3"><stop offset="0" stop-color="#d90000"/><stop offset="1" stop-color="#fcd4d4" stop-opacity="0.29839"/></linearGradient><linearGradient x1="141.13756" y1="202.5787" x2="141.13756" y2="226.85954" gradientUnits="userSpaceOnUse" id="color-4"><stop offset="0" stop-color="#c75000"/><stop offset="1" stop-color="#fce6d4" stop-opacity="0.24672"/></linearGradient><linearGradient x1="336.76082" y1="202.5787" x2="336.76082" y2="226.85954" gradientUnits="userSpaceOnUse" id="color-5"><stop offset="0" stop-color="#dc5800"/><stop offset="1" stop-color="#fce6d4" stop-opacity="0.24672"/></linearGradient><linearGradient x1="169.03675" y1="202.5787" x2="169.03675" y2="226.85954" gradientUnits="userSpaceOnUse" id="color-6"><stop offset="0" stop-color="#ccc500"/><stop offset="1" stop-color="#fcf8d4" stop-opacity="0.61479"/></linearGradient><linearGradient x1="364.85298" y1="202.5787" x2="364.85298" y2="226.85954" gradientUnits="userSpaceOnUse" id="color-7"><stop offset="0" stop-color="#e6df00"/><stop offset="1" stop-color="#fcf8d4" stop-opacity="0.61253"/></linearGradient><linearGradient x1="197.25526" y1="202.5787" x2="197.25526" y2="226.85954" gradientUnits="userSpaceOnUse" id="color-8"><stop offset="0" stop-color="#30cc00"/><stop offset="1" stop-color="#dffcd4" stop-opacity="0.40323"/></linearGradient><linearGradient x1="392.83027" y1="202.5787" x2="392.83027" y2="226.85954" gradientUnits="userSpaceOnUse" id="color-9"><stop offset="0" stop-color="#35e400"/><stop offset="1" stop-color="#dffcd4" stop-opacity="0.40323"/></linearGradient><linearGradient x1="225.06825" y1="202.5787" x2="225.06825" y2="226.85954" gradientUnits="userSpaceOnUse" id="color-10"><stop offset="0" stop-color="#009fcc"/><stop offset="1" stop-color="#d4f3fc" stop-opacity="0.33871"/></linearGradient><linearGradient x1="420.83624" y1="202.5787" x2="420.83624" y2="226.85954" gradientUnits="userSpaceOnUse" id="color-11"><stop offset="0" stop-color="#00b4e6"/><stop offset="1" stop-color="#d4f3fc" stop-opacity="0.25479"/></linearGradient><linearGradient x1="56.90874" y1="202.5787" x2="56.90874" y2="226.85954" gradientUnits="userSpaceOnUse" id="color-12"><stop offset="0" stop-color="#d3d3d3"/><stop offset="1" stop-color="#f5f5f5"/></linearGradient><linearGradient x1="253.13266" y1="202.5787" x2="253.13266" y2="226.85954" gradientUnits="userSpaceOnUse" id="color-13"><stop offset="0" stop-color="#d3d3d3"/><stop offset="1" stop-color="#f5f5f5"/></linearGradient><linearGradient x1="448.9489" y1="202.5787" x2="448.9489" y2="226.85954" gradientUnits="userSpaceOnUse" id="color-14"><stop offset="0" stop-color="#d3d3d3"/><stop offset="1" stop-color="#f5f5f5"/></linearGradient><linearGradient x1="85.20362" y1="202.5787" x2="85.20362" y2="226.85954" gradientUnits="userSpaceOnUse" id="color-15"><stop offset="0" stop-color="#7500cc"/><stop offset="1" stop-color="#ebd4fc" stop-opacity="0.39995"/></linearGradient><linearGradient x1="281.06295" y1="202.5787" x2="281.06295" y2="226.85954" gradientUnits="userSpaceOnUse" id="color-16"><stop offset="0" stop-color="#7c00d9"/><stop offset="1" stop-color="#ebd4fc" stop-opacity="0.40323"/></linearGradient><linearGradient x1="28.75373" y1="241.47623" x2="28.75373" y2="246.26954" gradientUnits="userSpaceOnUse" id="color-17"><stop offset="0" stop-color="#00c8ff" stop-opacity="0.10837"/><stop offset="1" stop-color="#00c8ff"/></linearGradient><linearGradient x1="85.1521" y1="241.47623" x2="85.1521" y2="246.26954" gradientUnits="userSpaceOnUse" id="color-18"><stop offset="0" stop-color="#9100ff" stop-opacity="0.1129"/><stop offset="1" stop-color="#9100ff"/></linearGradient><linearGradient x1="280.90958" y1="241.47623" x2="280.90958" y2="246.26954" gradientUnits="userSpaceOnUse" id="color-19"><stop offset="0" stop-color="#9100ff" stop-opacity="0.1129"/><stop offset="1" stop-color="#9100ff"/></linearGradient><linearGradient x1="113.0707" y1="241.47623" x2="113.0707" y2="246.26954" gradientUnits="userSpaceOnUse" id="color-20"><stop offset="0" stop-color="#ff0000" stop-opacity="0.1129"/><stop offset="1" stop-color="#ff0000"/></linearGradient><linearGradient x1="308.82818" y1="241.47623" x2="308.82818" y2="246.26954" gradientUnits="userSpaceOnUse" id="color-21"><stop offset="0" stop-color="#ff0000" stop-opacity="0.1129"/><stop offset="1" stop-color="#ff0000"/></linearGradient><linearGradient x1="141.12959" y1="241.47623" x2="141.12959" y2="246.26954" gradientUnits="userSpaceOnUse" id="color-22"><stop offset="0" stop-color="#ff6600" stop-opacity="0.1129"/><stop offset="1" stop-color="#ff6600"/></linearGradient><linearGradient x1="336.88707" y1="241.47623" x2="336.88707" y2="246.26954" gradientUnits="userSpaceOnUse" id="color-23"><stop offset="0" stop-color="#ff6600" stop-opacity="0.1129"/><stop offset="1" stop-color="#ff6600"/></linearGradient><linearGradient x1="169.18848" y1="241.47623" x2="169.18848" y2="246.26954" gradientUnits="userSpaceOnUse" id="color-24"><stop offset="0" stop-color="#fff800" stop-opacity="0.1129"/><stop offset="1" stop-color="#fff800"/></linearGradient><linearGradient x1="365.01091" y1="241.47623" x2="365.01091" y2="246.26954" gradientUnits="userSpaceOnUse" id="color-25"><stop offset="0" stop-color="#fff800" stop-opacity="0.1129"/><stop offset="1" stop-color="#fff800"/></linearGradient><linearGradient x1="197.24738" y1="241.47623" x2="197.24738" y2="246.26954" gradientUnits="userSpaceOnUse" id="color-26"><stop offset="0" stop-color="#3aff00" stop-opacity="0.1129"/><stop offset="1" stop-color="#3aff00"/></linearGradient><linearGradient x1="392.70544" y1="241.47623" x2="392.70544" y2="246.26954" gradientUnits="userSpaceOnUse" id="color-27"><stop offset="0" stop-color="#3aff00" stop-opacity="0.1129"/><stop offset="1" stop-color="#3aff00"/></linearGradient><linearGradient x1="225.16597" y1="241.47623" x2="225.16597" y2="246.26954" gradientUnits="userSpaceOnUse" id="color-28"><stop offset="0" stop-color="#00c9ff" stop-opacity="0.1129"/><stop offset="1" stop-color="#00c9ff"/></linearGradient><linearGradient x1="421.0536" y1="241.47623" x2="421.0536" y2="246.26954" gradientUnits="userSpaceOnUse" id="color-29"><stop offset="0" stop-color="#00c9ff" stop-opacity="0.1129"/><stop offset="1" stop-color="#00c9ff"/></linearGradient></defs><g transform="translate(-15.21411,-200.14379)"><g data-paper-data="{&quot;isPaintingLayer&quot;:true}" fill-rule="nonzero" stroke-linecap="butt" stroke-linejoin="miter" stroke-miterlimit="10" stroke-dasharray="" stroke-dashoffset="0" style="mix-blend-mode: normal"><path d="M15.71411,204.61886c0,-1.33048 1.2268,-3.40921 2.01202,-3.40921c8.63819,0 19.84667,0 22.13427,0c0.76253,0 1.95389,2.06954 1.95389,3.03245c0,46.68354 0,116.17694 0,119.99751c0,1.27353 -0.90067,2.88648 -1.71066,2.88648c-2.42999,0 -14.15755,0 -22.98558,0c-0.5479,0 -1.40393,-1.53024 -1.40393,-2.50972c0,0 -0.00001,-73.16695 -0.00001,-119.99751z" fill="#00c8ff" stroke="#001026" stroke-width="1"/><path d="M17.01275,204.82557c0,-0.26038 0.43276,-2.24687 1.81426,-2.24687c7.78912,0 17.89588,0 19.95863,0c1.32362,0 1.76184,1.98469 1.76184,2.17314c0,9.13595 0,40.731 0,40.731l-23.53471,0.07373c0,0 -0.00001,-31.56627 -0.00001,-40.731z" fill="url(#color-1)" stroke="#001026" stroke-width="0"/><path d="M100.1365,204.5056c0,-1.26862 1.2268,-3.25069 2.01202,-3.25069c8.63819,0 19.84667,0 22.13427,0c0.76253,0 1.95389,1.97332 1.95389,2.89145c0,44.51286 0,110.77499 0,114.4179c0,1.2143 -0.90067,2.75226 -1.71066,2.75226c-2.42999,0 -14.15755,0 -22.98558,0c-0.5479,0 -1.40393,-1.45912 -1.40393,-2.39302c0,0 -0.00001,-69.76484 -0.00001,-114.4179z" fill="#ff0000" stroke="#001026" stroke-width="1"/><path d="M128.04997,204.40518c0,-1.24748 1.2268,-3.19651 2.01202,-3.19651c8.63819,0 19.84667,0 22.13427,0c0.76253,0 1.95389,1.94043 1.95389,2.84326c0,43.77098 0,108.92874 0,112.51094c0,1.19406 -0.90067,2.70639 -1.71066,2.70639c-2.42999,0 -14.15755,0 -22.98558,0c-0.5479,0 -1.40393,-1.43479 -1.40393,-2.35314c0,0 -0.00001,-68.6021 -0.00001,-112.51094z" fill="#ff6600" stroke="#001026" stroke-width="1"/><path d="M155.96343,204.46499c0,-1.22921 1.2268,-3.14971 2.01202,-3.14971c8.63819,0 19.84667,0 22.13427,0c0.76253,0 1.95389,1.91202 1.95389,2.80163c0,43.13008 0,107.33379 0,110.86354c0,1.17658 -0.90067,2.66677 -1.71066,2.66677c-2.42999,0 -14.15755,0 -22.98558,0c-0.5479,0 -1.40393,-1.41377 -1.40393,-2.31868c0,0 -0.00001,-67.59764 -0.00001,-110.86355z" fill="#fff800" stroke="#001026" stroke-width="1"/><path d="M184.22582,204.30564c0,-1.19912 1.2268,-3.0726 2.01202,-3.0726c8.63819,0 19.84667,0 22.13427,0c0.76253,0 1.95389,1.86521 1.95389,2.73304c0,42.07417 0,104.70604 0,108.14938c0,1.14778 -0.90067,2.60148 -1.71066,2.60148c-2.42999,0 -14.15755,0 -22.98558,0c-0.5479,0 -1.40393,-1.37916 -1.40393,-2.26192c0,0 -0.00001,-65.9427 -0.00001,-108.14938z" fill="#3aff00" stroke="#001026" stroke-width="1"/><path d="M295.7945,203.52971c0,-1.10598 1.2268,-2.83393 2.01202,-2.83393c8.63819,0 19.84667,0 22.13427,0c0.76253,0 1.95389,1.72033 1.95389,2.52075c0,38.80608 0,96.57306 0,99.74894c0,1.05862 -0.90067,2.39941 -1.71066,2.39941c-2.42999,0 -14.15755,0 -22.98558,0c-0.5479,0 -1.40393,-1.27205 -1.40393,-2.08622c0,0 -0.00001,-60.82064 -0.00001,-99.74895z" fill="#ff1919" stroke="#001026" stroke-width="1"/><path d="M323.66886,203.76977c0,-1.08066 1.2268,-2.76908 2.01202,-2.76908c8.63819,0 19.84667,0 22.13427,0c0.76253,0 1.95389,1.68095 1.95389,2.46306c0,37.91794 0,94.36283 0,97.46601c0,1.0344 -0.90067,2.34449 -1.71066,2.34449c-2.42999,0 -14.15755,0 -22.98558,0c-0.5479,0 -1.40393,-1.24293 -1.40393,-2.03847c0,0 -0.00001,-59.42866 -0.00001,-97.46601z" fill="#ff6600" stroke="#001026" stroke-width="1"/><path d="M351.77594,203.77407c0,-1.06031 1.2268,-2.71693 2.01202,-2.71693c8.63819,0 19.84667,0 22.13427,0c0.76253,0 1.95389,1.6493 1.95389,2.41668c0,37.20394 0,92.58597 0,95.63073c0,1.01492 -0.90067,2.30035 -1.71066,2.30035c-2.42999,0 -14.15755,0 -22.98558,0c-0.5479,0 -1.40393,-1.21952 -1.40393,-2.00009c0,0 -0.00001,-58.30962 -0.00001,-95.63074z" data-paper-data="{&quot;origPos&quot;:null}" fill="#fff800" stroke="#001026" stroke-width="1"/><path d="M379.77929,203.81113c0,-1.02924 1.2268,-2.63732 2.01202,-2.63732c8.63819,0 19.84667,0 22.13427,0c0.76253,0 1.95389,1.60097 1.95389,2.34586c0,36.11366 0,89.87268 0,92.82822c0,0.98518 -0.90067,2.23294 -1.71066,2.23294c-2.42999,0 -14.15755,0 -22.98558,0c-0.5479,0 -1.40393,-1.18378 -1.40393,-1.94148c0,0 -0.00001,-56.60082 -0.00001,-92.82822z" fill="#3aff00" stroke="#001026" stroke-width="1"/><path d="M407.77757,203.57102c0,-0.99243 1.2268,-2.543 2.01202,-2.543c8.63819,0 19.84667,0 22.13427,0c0.76253,0 1.95389,1.54372 1.95389,2.26197c0,34.82222 0,86.65879 0,89.50863c0,0.94995 -0.90067,2.15308 -1.71066,2.15308c-2.42999,0 -14.15755,0 -22.98558,0c-0.5479,0 -1.40393,-1.14144 -1.40393,-1.87205c0,0 -0.00001,-54.57674 -0.00001,-89.50863z" fill="#00c9ff" stroke="#001026" stroke-width="1"/><path d="M211.99465,204.08774c0,-1.17913 1.2268,-3.02139 2.01202,-3.02139c8.63819,0 19.84667,0 22.13427,0c0.76253,0 1.95389,1.83412 1.95389,2.68749c0,41.37293 0,102.96094 0,106.34689c0,1.12865 -0.90067,2.55812 -1.71066,2.55812c-2.42999,0 -14.15755,0 -22.98558,0c-0.5479,0 -1.40393,-1.35617 -1.40393,-2.22422c0,0 -0.00001,-64.84366 -0.00001,-106.34689z" fill="#00c9ff" stroke="#001026" stroke-width="1"/><g fill="#cacaca" stroke="#000000" font-family="Sans Serif" font-weight="normal" font-size="40" text-anchor="start"><text transform="translate(218.10997,304.52976) scale(0.24231,0.21418)" font-size="40" xml:space="preserve" fill="#cacaca" fill-rule="nonzero" stroke="#000000" stroke-width="1" stroke-linecap="butt" stroke-linejoin="miter" stroke-miterlimit="10" stroke-dasharray="" stroke-dashoffset="0" font-family="Sans Serif" font-weight="normal" text-anchor="start" style="mix-blend-mode: normal"><tspan x="0" dy="0">Sol</tspan></text><text transform="translate(218.10997,304.8673) scale(0.24231,0.24231)" font-size="40" xml:space="preserve" fill="#cacaca" fill-rule="nonzero" stroke="#000000" stroke-width="4" stroke-linecap="butt" stroke-linejoin="miter" stroke-miterlimit="10" stroke-dasharray="" stroke-dashoffset="0" font-family="Sans Serif" font-weight="normal" text-anchor="start" style="mix-blend-mode: normal"><tspan x="0" dy="0">Sol</tspan></text><text transform="translate(218.10997,304.8673) scale(0.24231,0.24231)" font-size="40" xml:space="preserve" fill="#cacaca" fill-rule="nonzero" stroke="#000000" stroke-width="0" stroke-linecap="butt" stroke-linejoin="miter" stroke-miterlimit="10" stroke-dasharray="" stroke-dashoffset="0" font-family="Sans Serif" font-weight="normal" text-anchor="start" style="mix-blend-mode: normal"><tspan x="0" dy="0">Sol</tspan></text></g><g fill="#cacaca" stroke="#000000" font-family="Sans Serif" font-weight="normal" font-size="40" text-anchor="start"><text transform="translate(413.89289,288.43671) scale(0.24231,0.21418)" font-size="40" xml:space="preserve" fill="#cacaca" fill-rule="nonzero" stroke="#000000" stroke-width="1" stroke-linecap="butt" stroke-linejoin="miter" stroke-miterlimit="10" stroke-dasharray="" stroke-dashoffset="0" font-family="Sans Serif" font-weight="normal" text-anchor="start" style="mix-blend-mode: normal"><tspan x="0" dy="0">Sol</tspan></text><text transform="translate(413.89289,288.77425) scale(0.24231,0.24231)" font-size="40" xml:space="preserve" fill="#cacaca" fill-rule="nonzero" stroke="#000000" stroke-width="4" stroke-linecap="butt" stroke-linejoin="miter" stroke-miterlimit="10" stroke-dasharray="" stroke-dashoffset="0" font-family="Sans Serif" font-weight="normal" text-anchor="start" style="mix-blend-mode: normal"><tspan x="0" dy="0">Sol</tspan></text><text transform="translate(413.89289,288.77425) scale(0.24231,0.24231)" font-size="40" xml:space="preserve" fill="#cacaca" fill-rule="nonzero" stroke="#000000" stroke-width="0" stroke-linecap="butt" stroke-linejoin="miter" stroke-miterlimit="10" stroke-dasharray="" stroke-dashoffset="0" font-family="Sans Serif" font-weight="normal" text-anchor="start" style="mix-blend-mode: normal"><tspan x="0" dy="0">Sol</tspan></text></g><g fill="#cacaca" stroke="#000000" font-family="Sans Serif" font-weight="normal" font-size="40" text-anchor="start"><text transform="translate(106.68312,313.2641) scale(0.24231,0.24231)" font-size="40" xml:space="preserve" fill="#cacaca" fill-rule="nonzero" stroke="#000000" stroke-width="4" stroke-linecap="butt" stroke-linejoin="miter" stroke-miterlimit="10" stroke-dasharray="" stroke-dashoffset="0" font-family="Sans Serif" font-weight="normal" text-anchor="start" style="mix-blend-mode: normal"><tspan x="0" dy="0">Do</tspan></text><text transform="translate(106.68312,313.2641) scale(0.24231,0.24231)" font-size="40" xml:space="preserve" fill="#cacaca" fill-rule="nonzero" stroke="#000000" stroke-width="0" stroke-linecap="butt" stroke-linejoin="miter" stroke-miterlimit="10" stroke-dasharray="" stroke-dashoffset="0" font-family="Sans Serif" font-weight="normal" text-anchor="start" style="mix-blend-mode: normal"><tspan x="0" dy="0">Do</tspan></text></g><g fill="#cacaca" stroke="#000000" font-family="Sans Serif" font-weight="normal" font-size="40" text-anchor="start"><text transform="translate(302.34112,299.32339) scale(0.24231,0.24231)" font-size="40" xml:space="preserve" fill="#cacaca" fill-rule="nonzero" stroke="#000000" stroke-width="4" stroke-linecap="butt" stroke-linejoin="miter" stroke-miterlimit="10" stroke-dasharray="" stroke-dashoffset="0" font-family="Sans Serif" font-weight="normal" text-anchor="start" style="mix-blend-mode: normal"><tspan x="0" dy="0">Do</tspan></text><text transform="translate(302.34112,299.32339) scale(0.24231,0.24231)" font-size="40" xml:space="preserve" fill="#cacaca" fill-rule="nonzero" stroke="#000000" stroke-width="0" stroke-linecap="butt" stroke-linejoin="miter" stroke-miterlimit="10" stroke-dasharray="" stroke-dashoffset="0" font-family="Sans Serif" font-weight="normal" text-anchor="start" style="mix-blend-mode: normal"><tspan x="0" dy="0">Do</tspan></text></g><g fill="#cacaca" stroke="#000000" font-family="Sans Serif" font-weight="normal" font-size="40" text-anchor="start"><text transform="translate(135.26051,311.61439) scale(0.24231,0.24231)" font-size="40" xml:space="preserve" fill="#cacaca" fill-rule="nonzero" stroke="#000000" stroke-width="4" stroke-linecap="butt" stroke-linejoin="miter" stroke-miterlimit="10" stroke-dasharray="" stroke-dashoffset="0" font-family="Sans Serif" font-weight="normal" text-anchor="start" style="mix-blend-mode: normal"><tspan x="0" dy="0">Re</tspan></text><text transform="translate(135.26051,311.61439) scale(0.24231,0.24231)" font-size="40" xml:space="preserve" fill="#cacaca" fill-rule="nonzero" stroke="#000000" stroke-width="0" stroke-linecap="butt" stroke-linejoin="miter" stroke-miterlimit="10" stroke-dasharray="" stroke-dashoffset="0" font-family="Sans Serif" font-weight="normal" text-anchor="start" style="mix-blend-mode: normal"><tspan x="0" dy="0">Re</tspan></text></g><g fill="#cacaca" stroke="#000000" font-family="Sans Serif" font-weight="normal" font-size="40" text-anchor="start"><text transform="translate(330.8794,297.12047) scale(0.24231,0.24231)" font-size="40" xml:space="preserve" fill="#cacaca" fill-rule="nonzero" stroke="#000000" stroke-width="4" stroke-linecap="butt" stroke-linejoin="miter" stroke-miterlimit="10" stroke-dasharray="" stroke-dashoffset="0" font-family="Sans Serif" font-weight="normal" text-anchor="start" style="mix-blend-mode: normal"><tspan x="0" dy="0">Re</tspan></text><text transform="translate(330.8794,297.12047) scale(0.24231,0.24231)" font-size="40" xml:space="preserve" fill="#cacaca" fill-rule="nonzero" stroke="#000000" stroke-width="0" stroke-linecap="butt" stroke-linejoin="miter" stroke-miterlimit="10" stroke-dasharray="" stroke-dashoffset="0" font-family="Sans Serif" font-weight="normal" text-anchor="start" style="mix-blend-mode: normal"><tspan x="0" dy="0">Re</tspan></text></g><g fill="#cacaca" stroke="#000000" font-family="Sans Serif" font-weight="normal" font-size="40" text-anchor="start"><text transform="translate(163.24666,310.07624) scale(0.24231,0.24231)" font-size="40" xml:space="preserve" fill="#cacaca" fill-rule="nonzero" stroke="#000000" stroke-width="4" stroke-linecap="butt" stroke-linejoin="miter" stroke-miterlimit="10" stroke-dasharray="" stroke-dashoffset="0" font-family="Sans Serif" font-weight="normal" text-anchor="start" style="mix-blend-mode: normal"><tspan x="0" dy="0">Mi</tspan></text><text transform="translate(163.24666,310.09859) scale(0.24231,0.24231)" font-size="40" xml:space="preserve" fill="#cacaca" fill-rule="nonzero" stroke="#000000" stroke-width="0" stroke-linecap="butt" stroke-linejoin="miter" stroke-miterlimit="10" stroke-dasharray="" stroke-dashoffset="0" font-family="Sans Serif" font-weight="normal" text-anchor="start" style="mix-blend-mode: normal"><tspan x="0" dy="0">Mi</tspan></text></g><g fill="#cacaca" stroke="#000000" font-family="Sans Serif" font-weight="normal" font-size="40" text-anchor="start"><text transform="translate(359.05917,295.87459) scale(0.24231,0.24231)" font-size="40" xml:space="preserve" fill="#cacaca" fill-rule="nonzero" stroke="#000000" stroke-width="4" stroke-linecap="butt" stroke-linejoin="miter" stroke-miterlimit="10" stroke-dasharray="" stroke-dashoffset="0" font-family="Sans Serif" font-weight="normal" text-anchor="start" style="mix-blend-mode: normal"><tspan x="0" dy="0">Mi</tspan></text><text transform="translate(359.05917,295.89695) scale(0.24231,0.24231)" font-size="40" xml:space="preserve" fill="#cacaca" fill-rule="nonzero" stroke="#000000" stroke-width="0" stroke-linecap="butt" stroke-linejoin="miter" stroke-miterlimit="10" stroke-dasharray="" stroke-dashoffset="0" font-family="Sans Serif" font-weight="normal" text-anchor="start" style="mix-blend-mode: normal"><tspan x="0" dy="0">Mi</tspan></text></g><g fill="#cacaca" stroke="#000000" font-family="Sans Serif" font-weight="normal" font-size="40" text-anchor="start"><text transform="translate(191.93551,307.16226) scale(0.24231,0.24231)" font-size="40" xml:space="preserve" fill="#cacaca" fill-rule="nonzero" stroke="#000000" stroke-width="4" stroke-linecap="butt" stroke-linejoin="miter" stroke-miterlimit="10" stroke-dasharray="" stroke-dashoffset="0" font-family="Sans Serif" font-weight="normal" text-anchor="start" style="mix-blend-mode: normal"><tspan x="0" dy="0">Fa</tspan></text><text transform="translate(191.93551,307.16226) scale(0.24231,0.24231)" font-size="40" xml:space="preserve" fill="#cacaca" fill-rule="nonzero" stroke="#000000" stroke-width="0" stroke-linecap="butt" stroke-linejoin="miter" stroke-miterlimit="10" stroke-dasharray="" stroke-dashoffset="0" font-family="Sans Serif" font-weight="normal" text-anchor="start" style="mix-blend-mode: normal"><tspan x="0" dy="0">Fa</tspan></text></g><g fill="#cacaca" stroke="#000000" font-family="Sans Serif" font-weight="normal" font-size="40" text-anchor="start"><text transform="translate(387.48898,292.96062) scale(0.24231,0.24231)" font-size="40" xml:space="preserve" fill="#cacaca" fill-rule="nonzero" stroke="#000000" stroke-width="4" stroke-linecap="butt" stroke-linejoin="miter" stroke-miterlimit="10" stroke-dasharray="" stroke-dashoffset="0" font-family="Sans Serif" font-weight="normal" text-anchor="start" style="mix-blend-mode: normal"><tspan x="0" dy="0">Fa</tspan></text><text transform="translate(387.48898,292.96062) scale(0.24231,0.24231)" font-size="40" xml:space="preserve" fill="#cacaca" fill-rule="nonzero" stroke="#000000" stroke-width="0" stroke-linecap="butt" stroke-linejoin="miter" stroke-miterlimit="10" stroke-dasharray="" stroke-dashoffset="0" font-family="Sans Serif" font-weight="normal" text-anchor="start" style="mix-blend-mode: normal"><tspan x="0" dy="0">Fa</tspan></text></g><g fill="#cacaca" stroke="#000000" font-family="Sans Serif" font-weight="normal" font-size="40" text-anchor="start"><text transform="translate(22.11283,319.18869) scale(0.24231,0.24231)" font-size="40" xml:space="preserve" fill="#cacaca" fill-rule="nonzero" stroke="#000000" stroke-width="4" stroke-linecap="butt" stroke-linejoin="miter" stroke-miterlimit="10" stroke-dasharray="" stroke-dashoffset="0" font-family="Sans Serif" font-weight="normal" text-anchor="start" style="mix-blend-mode: normal"><tspan x="0" dy="0">Sol</tspan></text><text transform="translate(22.11283,319.18869) scale(0.24231,0.24231)" font-size="40" xml:space="preserve" fill="#cacaca" fill-rule="nonzero" stroke="#000000" stroke-width="0" stroke-linecap="butt" stroke-linejoin="miter" stroke-miterlimit="10" stroke-dasharray="" stroke-dashoffset="0" font-family="Sans Serif" font-weight="normal" text-anchor="start" style="mix-blend-mode: normal"><tspan x="0" dy="0">Sol</tspan></text></g><path d="M101.36771,204.82557c0,-0.26038 0.61794,-2.24687 1.81426,-2.24687c7.78912,0 17.89588,0 19.95863,0c1.17587,0 1.76184,1.98469 1.76184,2.17314c0,9.13595 0,40.731 0,40.731l-23.53471,0.07373c0,0 -0.00001,-31.56627 -0.00001,-40.731z" fill="url(#color-2)" stroke="#001026" stroke-width="0"/><path d="M297.03921,204.82557c0,-0.26038 0.61794,-2.24687 1.81426,-2.24687c7.78912,0 17.89588,0 19.95863,0c1.17586,0 1.76184,1.98469 1.76184,2.17314c0,9.13595 0,40.731 0,40.731l-23.53471,0.07373c0,0 -0.00001,-31.56627 -0.00001,-40.731z" fill="url(#color-3)" stroke="#001026" stroke-width="0"/><path d="M129.3702,204.82557c0,-0.26038 0.61793,-2.24687 1.81426,-2.24687c7.78912,0 17.89588,0 19.95863,0c1.17586,0 1.76184,1.98469 1.76184,2.17314c0,9.13595 0,40.731 0,40.731l-23.53471,0.07373c0,0 -0.00001,-31.56627 -0.00001,-40.731z" fill="url(#color-4)" stroke="#001026" stroke-width="0"/><path d="M324.99346,204.82557c0,-0.26038 0.61793,-2.24687 1.81426,-2.24687c7.78912,0 17.89588,0 19.95863,0c1.17586,0 1.76184,1.98469 1.76184,2.17314c0,9.13595 0,40.731 0,40.731l-23.53471,0.07373c0,0 -0.00001,-31.56627 -0.00001,-40.731z" fill="url(#color-5)" stroke="#001026" stroke-width="0"/><path d="M157.26939,204.82557c0,-0.26038 0.61793,-2.24687 1.81426,-2.24687c7.78912,0 17.89588,0 19.95863,0c1.17586,0 1.76184,1.98469 1.76184,2.17314c0,9.13595 0,40.731 0,40.731l-23.53471,0.07373c0,0 -0.00001,-31.56627 -0.00001,-40.731z" fill="url(#color-6)" stroke="#001026" stroke-width="0"/><path d="M353.08562,204.82557c0,-0.26038 0.61793,-2.24687 1.81426,-2.24687c7.78912,0 17.89588,0 19.95863,0c1.17586,0 1.76184,1.98469 1.76184,2.17314c0,9.13595 0,40.731 0,40.731l-23.53471,0.07373c0,0 -0.00001,-31.56627 -0.00001,-40.731z" fill="url(#color-7)" stroke="#001026" stroke-width="0"/><path d="M185.4879,204.82557c0,-0.26038 0.61793,-2.24687 1.81426,-2.24687c7.78912,0 17.89588,0 19.95863,0c1.17586,0 1.76184,1.98469 1.76184,2.17314c0,9.13595 0,40.731 0,40.731l-23.53471,0.07373c0,0 -0.00001,-31.56627 -0.00001,-40.731z" fill="url(#color-8)" stroke="#001026" stroke-width="0"/><path d="M381.06291,204.82557c0,-0.26038 0.61793,-2.24687 1.81426,-2.24687c7.78912,0 17.89588,0 19.95863,0c1.17587,0 1.76184,1.98469 1.76184,2.17314c0,9.13595 0,40.731 0,40.731l-23.53471,0.07373c0,0 -0.00001,-31.56627 -0.00001,-40.731z" fill="url(#color-9)" stroke="#001026" stroke-width="0"/><path d="M213.30089,204.82557c0,-0.26038 0.61793,-2.24687 1.81426,-2.24687c7.78912,0 17.89588,0 19.95863,0c1.17586,0 1.76184,1.98469 1.76184,2.17314c0,9.13595 0,40.731 0,40.731l-23.53471,0.07373c0,0 -0.00001,-31.56627 -0.00001,-40.731z" fill="url(#color-10)" stroke="#001026" stroke-width="0"/><path d="M409.06888,204.82557c0,-0.26038 0.61793,-2.24687 1.81426,-2.24687c7.78912,0 17.89588,0 19.95863,0c1.17586,0 1.76184,1.98469 1.76184,2.17314c0,9.13595 0,40.731 0,40.731l-23.53471,0.07373c0,0 -0.00001,-31.56627 -0.00001,-40.731z" fill="url(#color-11)" stroke="#001026" stroke-width="0"/><path d="M44.0147,322.24704c0,-2.8881 0,-71.91565 0,-117.94533c0,-1.30773 1.2268,-3.35092 2.01202,-3.35092c8.63819,0 19.84667,0 22.13427,0c0.76253,0 1.95389,2.03415 1.95389,2.98059c0,45.88517 0,114.19012 0,117.94535c0,1.25174 -0.90067,2.83712 -1.71066,2.83712c-2.42999,0 -14.15755,0 -22.98558,0c-0.5479,0 -1.40393,-1.50408 -1.40393,-2.4668z" fill="#ffffff" stroke="#001026" stroke-width="1"/><path d="M240.19382,307.27785c0,-2.53899 0,-63.22255 0,-103.6882c0,-1.14965 1.2268,-2.94586 2.01202,-2.94586c8.63819,0 19.84667,0 22.13427,0c0.76253,0 1.95389,1.78827 1.95389,2.6203c0,40.33861 0,100.38692 0,103.68822c0,1.10043 -0.90067,2.49417 -1.71066,2.49417c-2.42999,0 -14.15755,0 -22.98558,0c-0.5479,0 -1.40393,-1.32227 -1.40393,-2.16861z" fill="#ffffff" stroke="#001026" stroke-width="1"/><g fill="#cacaca" stroke="#000000" font-family="Sans Serif" font-weight="normal" font-size="40" text-anchor="start"><text transform="translate(51.68562,316.52491) scale(0.24231,0.24231)" font-size="40" xml:space="preserve" fill="#cacaca" fill-rule="nonzero" stroke="#000000" stroke-width="4" stroke-linecap="butt" stroke-linejoin="miter" stroke-miterlimit="10" stroke-dasharray="" stroke-dashoffset="0" font-family="Sans Serif" font-weight="normal" text-anchor="start" style="mix-blend-mode: normal"><tspan x="0" dy="0">La</tspan></text><text transform="translate(51.68562,316.52491) scale(0.24231,0.24231)" font-size="40" xml:space="preserve" fill="#cacaca" fill-rule="nonzero" stroke="#000000" stroke-width="0" stroke-linecap="butt" stroke-linejoin="miter" stroke-miterlimit="10" stroke-dasharray="" stroke-dashoffset="0" font-family="Sans Serif" font-weight="normal" text-anchor="start" style="mix-blend-mode: normal"><tspan x="0" dy="0">La</tspan></text></g><path d="M45.14138,204.82557c0,-0.26038 0.43277,-2.24687 1.81426,-2.24687c7.78912,0 17.89588,0 19.95863,0c1.32362,0 1.76184,1.98469 1.76184,2.17314c0,9.13595 0,40.731 0,40.731l-23.53471,0.07373c0,0 -0.00001,-31.56627 -0.00001,-40.731z" fill="url(#color-12)" stroke="#001026" stroke-width="0"/><path d="M241.3653,204.82557c0,-0.26038 0.43276,-2.24687 1.81426,-2.24687c7.78912,0 17.89588,0 19.95863,0c1.32362,0 1.76184,1.98469 1.76184,2.17314c0,9.13595 0,40.731 0,40.731l-23.53471,0.07373c0,0 -0.00001,-31.56627 -0.00001,-40.731z" fill="url(#color-13)" stroke="#001026" stroke-width="0"/><path d="M436.04082,291.0385c0,-2.14228 0,-53.34402 0,-87.48693c0,-0.97002 1.2268,-2.48557 2.01202,-2.48557c8.63819,0 19.84667,0 22.13427,0c0.76253,0 1.95389,1.50885 1.95389,2.21088c0,34.0357 0,84.70147 0,87.48694c0,0.92848 -0.90067,2.10445 -1.71066,2.10445c-2.42999,0 -14.15755,0 -22.98558,0c-0.5479,0 -1.40393,-1.11566 -1.40393,-1.82976z" fill="#ffffff" stroke="#001026" stroke-width="1"/><g fill="#cacaca" stroke="#000000" font-family="Sans Serif" font-weight="normal" font-size="40" text-anchor="start"><text transform="translate(443.71174,286.4521) scale(0.24231,0.24231)" font-size="40" xml:space="preserve" fill="#cacaca" fill-rule="nonzero" stroke="#000000" stroke-width="4" stroke-linecap="butt" stroke-linejoin="miter" stroke-miterlimit="10" stroke-dasharray="" stroke-dashoffset="0" font-family="Sans Serif" font-weight="normal" text-anchor="start" style="mix-blend-mode: normal"><tspan x="0" dy="0">La</tspan></text><text transform="translate(443.71174,286.4521) scale(0.24231,0.24231)" font-size="40" xml:space="preserve" fill="#cacaca" fill-rule="nonzero" stroke="#000000" stroke-width="0" stroke-linecap="butt" stroke-linejoin="miter" stroke-miterlimit="10" stroke-dasharray="" stroke-dashoffset="0" font-family="Sans Serif" font-weight="normal" text-anchor="start" style="mix-blend-mode: normal"><tspan x="0" dy="0">La</tspan></text></g><path d="M437.18154,204.82557c0,-0.26038 0.43276,-2.24687 1.81426,-2.24687c7.78912,0 17.89588,0 19.95863,0c1.32362,0 1.76184,1.98469 1.76184,2.17314c0,9.13595 0,40.731 0,40.731l-23.53471,0.07373c0,0 -0.00001,-31.56627 -0.00001,-40.731z" fill="url(#color-14)" stroke="#001026" stroke-width="0"/><path d="M268.02081,203.55312c0,-1.13049 1.2268,-2.89676 2.01202,-2.89676c8.63819,0 19.84667,0 22.13427,0c0.76253,0 1.95389,1.75847 1.95389,2.57663c0,39.6663 0,98.7138 0,101.96008c0,1.08209 -0.90067,2.4526 -1.71066,2.4526c-2.42999,0 -14.15755,0 -22.98558,0c-0.5479,0 -1.40393,-1.30023 -1.40393,-2.13247c0,0 -0.00001,-62.16886 -0.00001,-101.96008z" fill="#8c00ff" stroke="#001026" stroke-width="1"/><path d="M72.10619,204.01735c0,-1.29512 1.2268,-3.3186 2.01202,-3.3186c8.63819,0 19.84667,0 22.13427,0c0.76253,0 1.95389,2.01454 1.95389,2.95185c0,45.4427 0,113.089 0,116.80801c0,1.23967 -0.90067,2.80975 -1.71066,2.80975c-2.42999,0 -14.15755,0 -22.98558,0c-0.5479,0 -1.40393,-1.48958 -1.40393,-2.44301c0,0 -0.00001,-71.22219 -0.00001,-116.808z" fill="#9100ff" stroke="#001026" stroke-width="1"/><g fill="#cacaca" stroke="#000000" font-family="Sans Serif" font-weight="normal" font-size="40" text-anchor="start"><text transform="translate(81.17279,315.98925) scale(0.24231,0.24231)" font-size="40" xml:space="preserve" fill="#cacaca" fill-rule="nonzero" stroke="#000000" stroke-width="4" stroke-linecap="butt" stroke-linejoin="miter" stroke-miterlimit="10" stroke-dasharray="" stroke-dashoffset="0" font-family="Sans Serif" font-weight="normal" text-anchor="start" style="mix-blend-mode: normal"><tspan x="0" dy="0">Si</tspan></text><text transform="translate(81.17279,315.98925) scale(0.24231,0.24231)" font-size="40" xml:space="preserve" fill="#cacaca" fill-rule="nonzero" stroke="#000000" stroke-width="0" stroke-linecap="butt" stroke-linejoin="miter" stroke-miterlimit="10" stroke-dasharray="" stroke-dashoffset="0" font-family="Sans Serif" font-weight="normal" text-anchor="start" style="mix-blend-mode: normal"><tspan x="0" dy="0">Si</tspan></text></g><path d="M73.43626,204.82557c0,-0.26038 0.52915,-2.24687 1.81426,-2.24687c7.78912,0 17.89588,0 19.95863,0c1.26465,0 1.76184,1.98469 1.76184,2.17314c0,9.13595 0,40.731 0,40.731l-23.53471,0.07373c0,0 -0.00001,-31.56627 -0.00001,-40.731z" fill="url(#color-15)" stroke="#001026" stroke-width="0"/><path d="M269.29559,204.82557c0,-0.26038 0.52915,-2.24687 1.81426,-2.24687c7.78912,0 17.89588,0 19.95863,0c1.26464,0 1.76184,1.98469 1.76184,2.17314c0,9.13595 0,40.731 0,40.731l-23.53471,0.07373c0,0 -0.00001,-31.56627 -0.00001,-40.731z" fill="url(#color-16)" stroke="#001026" stroke-width="0"/><g fill="#cacaca" stroke="#000000" font-family="Sans Serif" font-weight="normal" font-size="40" text-anchor="start"><text transform="translate(277.08741,301.30915) scale(0.24231,0.24231)" font-size="40" xml:space="preserve" fill="#cacaca" fill-rule="nonzero" stroke="#000000" stroke-width="4" stroke-linecap="butt" stroke-linejoin="miter" stroke-miterlimit="10" stroke-dasharray="" stroke-dashoffset="0" font-family="Sans Serif" font-weight="normal" text-anchor="start" style="mix-blend-mode: normal"><tspan x="0" dy="0">Si</tspan></text><text transform="translate(277.08741,301.30915) scale(0.24231,0.24231)" font-size="40" xml:space="preserve" fill="#cacaca" fill-rule="nonzero" stroke="#000000" stroke-width="0" stroke-linecap="butt" stroke-linejoin="miter" stroke-miterlimit="10" stroke-dasharray="" stroke-dashoffset="0" font-family="Sans Serif" font-weight="normal" text-anchor="start" style="mix-blend-mode: normal"><tspan x="0" dy="0">Si</tspan></text></g><g fill="#cacaca" stroke="#000000" font-family="Sans Serif" font-weight="normal" font-size="40" text-anchor="start"><text transform="translate(247.70869,302.85931) scale(0.24231,0.24231)" font-size="40" xml:space="preserve" fill="#cacaca" fill-rule="nonzero" stroke="#000000" stroke-width="4" stroke-linecap="butt" stroke-linejoin="miter" stroke-miterlimit="10" stroke-dasharray="" stroke-dashoffset="0" font-family="Sans Serif" font-weight="normal" text-anchor="start" style="mix-blend-mode: normal"><tspan x="0" dy="0">La</tspan></text><text transform="translate(247.70869,302.85931) scale(0.24231,0.24231)" font-size="40" xml:space="preserve" fill="#cacaca" fill-rule="nonzero" stroke="#000000" stroke-width="0" stroke-linecap="butt" stroke-linejoin="miter" stroke-miterlimit="10" stroke-dasharray="" stroke-dashoffset="0" font-family="Sans Serif" font-weight="normal" text-anchor="start" style="mix-blend-mode: normal"><tspan x="0" dy="0">La</tspan></text></g><path d="M16.64093,246.26954v-4.79331h24.2256v4.79331z" fill="url(#color-17)" stroke="none" stroke-width="0"/><path d="M73.0393,246.26954v-4.79331h24.2256v4.79331z" fill="url(#color-18)" stroke="none" stroke-width="0"/><path d="M268.79678,246.26954v-4.79331h24.2256v4.79331z" fill="url(#color-19)" stroke="none" stroke-width="0"/><path d="M100.9579,246.26954v-4.79331h24.2256v4.79331z" fill="url(#color-20)" stroke="none" stroke-width="0"/><path d="M296.71538,246.26954v-4.79331h24.2256v4.79331z" fill="url(#color-21)" stroke="none" stroke-width="0"/><path d="M129.01679,246.26954v-4.79331h24.2256v4.79331z" fill="url(#color-22)" stroke="none" stroke-width="0"/><path d="M324.77427,246.26954v-4.79331h24.2256v4.79331z" fill="url(#color-23)" stroke="none" stroke-width="0"/><path d="M157.07568,246.26954v-4.79331h24.2256v4.79331z" fill="url(#color-24)" stroke="none" stroke-width="0"/><path d="M352.89811,246.26954v-4.79331h24.2256v4.79331z" fill="url(#color-25)" stroke="none" stroke-width="0"/><path d="M185.13458,246.26954v-4.79331h24.2256v4.79331z" fill="url(#color-26)" stroke="none" stroke-width="0"/><path d="M380.59264,246.26954v-4.79331h24.2256v4.79331z" fill="url(#color-27)" stroke="none" stroke-width="0"/><path d="M213.05317,246.26954v-4.79331h24.2256v4.79331z" fill="url(#color-28)" stroke="none" stroke-width="0"/><path d="M408.9408,246.26954v-4.79331h24.2256v4.79331z" fill="url(#color-29)" stroke="none" stroke-width="0"/></g></g></svg>