<svg version="1.1" xmlns="http://www.w3.org/2000/svg" xmlns:xlink="http://www.w3.org/1999/xlink" width="49.74924" height="49.74924" viewBox="0,0,49.74924,49.74924"><defs><radialGradient cx="225.43417" cy="164.88944" r="24.62462" gradientUnits="userSpaceOnUse" id="color-1"><stop offset="0" stop-color="#e3e3e3"/><stop offset="1" stop-color="#9d9d9d"/></radialGradient></defs><g transform="translate(-215.18041,-155.12538)"><g data-paper-data="{&quot;isPaintingLayer&quot;:true}" fill-rule="nonzero" stroke-linecap="butt" stroke-linejoin="miter" stroke-miterlimit="10" stroke-dasharray="" stroke-dashoffset="0" style="mix-blend-mode: normal"><path d="M264.67966,167.84354v24.31292c0,6.88611 -5.58195,12.46816 -12.46816,12.46816h-24.31292c-6.88611,0 -12.46816,-5.58195 -12.46816,-12.46816v-24.31292c0,-6.88622 5.58205,-12.46816 12.46816,-12.46816h24.31292c6.88622,0 12.46816,5.58195 12.46816,12.46816z" fill="url(#color-1)" stroke="#696969" stroke-width="0.5"/><path d="M238.7592,182.84277c0.04223,-0.02562 0.55367,0.05412 0.64201,0.065c0.47968,0.05908 1.35732,0.08776 1.82841,-0.08941l0.11093,0.95726c0.14251,0.94246 0.9897,2.47092 1.90076,2.85869c-0.03956,0.01292 -0.06722,0.01896 -0.10899,0.02128l-5.66764,0.02407c-0.21036,0.00011 -0.45355,0.02111 -0.65999,-0.00911l0.03506,-0.0449c0.96744,-0.66403 1.6193,-1.70228 1.82431,-2.85561z" fill="#d8d8d8" stroke="#626262" stroke-width="0.5"/><path d="M243.85085,186.675c1.18591,0.00079 1.51829,1.22117 1.47394,2.00615c2.12654,0.06756 1.84425,1.09579 1.92761,2.24554c1.07518,-0.06366 1.3868,1.42607 -0.00166,1.42618l-14.70473,0.00062c-0.86625,-0.02977 -1.00473,-1.41758 0.19647,-1.43405c0.05612,-0.68201 0.19194,-2.13588 1.85709,-2.23354c0.14488,-0.70204 0.38407,-2.053 1.90606,-2.02681c0.09807,0.00245 7.16837,0.01578 7.34522,0.0159z" fill="#ffffff" stroke="none" stroke-width="1"/><path d="M238.94638,182.99779c0.74487,0.03396 1.13775,0.22134 2.09605,0.03574l0.07974,0.91984c-0.73279,0.31991 -1.88731,0.13508 -2.27094,-0.00387z" fill="#424242" stroke="none" stroke-width="1"/><path d="M248.89709,167.75188c2.92023,0.2444 4.26774,0.75241 4.299,3.06615c-0.14422,2.30268 -2.65657,6.34182 -6.68759,7.11832c-0.85822,1.83575 -2.56588,3.81735 -4.44409,4.60882c-1.0622,0.38347 -1.98613,0.78458 -3.90623,0.08845c-1.9201,-0.69613 -3.67318,-2.85959 -4.7168,-4.78261c-4.79759,-0.82261 -6.35943,-5.14812 -6.61142,-6.88376c-0.24002,-1.32852 0.81791,-3.27505 4.51744,-3.20108c0.97009,0.49521 13.86974,1.02756 17.54966,-0.01429zM248.44422,169.751c-0.23786,1.19881 -1.14081,5.97309 -1.14081,5.97309c2.4097,-1.54917 4.0444,-2.97217 3.71385,-5.28485c-0.05645,-0.8828 -1.35473,-0.66819 -2.57304,-0.68824zM229.04986,170.24631c-0.84678,2.98881 3.5155,5.35399 3.63252,5.43014l-1.17206,-5.91939c0,0 -2.22468,-0.34299 -2.46047,0.48925z" fill="#d8d8d8" stroke="#616161" stroke-width="0.5"/></g></g></svg>