<svg version="1.1" xmlns="http://www.w3.org/2000/svg" xmlns:xlink="http://www.w3.org/1999/xlink" width="20.477" height="20.04398" viewBox="0,0,20.477,20.04398"><g transform="translate(-229.76149,-169.97801)"><g data-paper-data="{&quot;isPaintingLayer&quot;:true}" fill-rule="nonzero" stroke-width="0" stroke-linecap="butt" stroke-linejoin="miter" stroke-miterlimit="10" stroke-dasharray="" stroke-dashoffset="0" style="mix-blend-mode: normal"><path d="M229.7615,187.13498c0,-4.27513 0,-12.03718 0,-14.38289c0,-1.32024 1.42539,-2.77407 2.73444,-2.77407c2.3863,0 10.44382,0 14.83333,0c1.74418,0 2.90922,1.45382 2.90922,2.77407c0,2.35591 0,10.17535 0,14.43845c0,1.69774 -1.14673,2.83146 -2.86685,2.83146c-4.34987,0 -12.3665,0 -14.77778,0c-1.34812,0 -2.83237,-1.1585 -2.83237,-2.88701z" fill="#b0b0b0" stroke="#96773c"/><g fill="#3c3c3c" stroke="none"><path d="M235.28865,176.48035v-2.83787h2.83787v2.83787z"/><path d="M235.28865,179.77276v-2.83787h2.83787v2.83787z"/><path d="M235.28865,183.06515v-2.83787h2.83787v2.83787z"/><path d="M235.28865,186.35758v-2.83787h2.83787v2.83787z"/><path d="M238.58106,176.48035v-2.83787h2.83787v2.83787z"/><path d="M238.58106,179.77276v-2.83787h2.83787v2.83787z"/><path d="M238.58106,183.06515v-2.83787h2.83787v2.83787z"/><path d="M238.58106,186.35758v-2.83787h2.83787v2.83787z"/><path d="M241.87348,176.48035v-2.83787h2.83787v2.83787z"/><path d="M241.87348,179.77276v-2.83787h2.83787v2.83787z"/><path d="M241.87348,183.06515v-2.83787h2.83787v2.83787z"/><path d="M241.87348,186.35758v-2.83787h2.83787v2.83787z"/></g></g></g></svg>