<svg version="1.1" xmlns="http://www.w3.org/2000/svg" xmlns:xlink="http://www.w3.org/1999/xlink" width="127.5885" height="17.41842" viewBox="0,0,127.5885,17.41842"><defs><linearGradient x1="240" y1="-335947.73614" x2="240" y2="2115.86267" gradientUnits="userSpaceOnUse" id="color-1"><stop offset="0" stop-color="#ffffff"/><stop offset="1" stop-color="#ffffff" stop-opacity="0"/></linearGradient></defs><g transform="translate(-176.20575,-171.29079)"><g data-paper-data="{&quot;isPaintingLayer&quot;:true}" fill-rule="nonzero" stroke="#000000" stroke-linecap="butt" stroke-linejoin="miter" stroke-miterlimit="10" stroke-dasharray="" stroke-dashoffset="0" style="mix-blend-mode: normal"><path d="M176.20575,188.70921v-17.41842h127.5885v17.41842z" fill="url(#color-1)" stroke-width="0"/><path d="M299.50608,179.17628c0,0.57688 0,1.23998 0,1.58919c0,0.45614 -0.62426,1.1301 -1.78189,1.1301c-14.12027,0 -107.59577,0 -115.47387,0c-1.04324,0 -1.75638,-0.53935 -1.75638,-1.15899c0,-0.58833 0,-1.24903 0,-1.58919c0,-0.43025 0.71314,-1.04295 1.75638,-1.04295c7.8781,0 101.35361,0 115.47387,0c1.15762,0 1.78189,0.49243 1.78189,1.07185z" fill="#ffffff" stroke-width="0.5"/></g></g></svg>