<svg version="1.1" xmlns="http://www.w3.org/2000/svg" xmlns:xlink="http://www.w3.org/1999/xlink" width="24.46" height="58.73108" viewBox="0,0,24.46,58.73108"><g transform="translate(-227.77,-150.63446)"><g data-paper-data="{&quot;isPaintingLayer&quot;:true}" fill-rule="nonzero" stroke-linecap="butt" stroke-linejoin="miter" stroke-miterlimit="10" stroke-dasharray="" stroke-dashoffset="0" style="mix-blend-mode: normal"><path d="M228.35333,180.07359c0,-14.64784 8.96316,-29.39025 8.96316,-29.39025c0,0 2.35172,0.09832 2.97517,0.09832c6.59339,0 11.93834,13.11437 11.93834,29.29193c0,16.17755 -5.34495,29.29195 -11.93834,29.29195c-0.82765,0 -2.41582,-0.01126 -2.41582,-0.01126c0,0 -9.52252,-15.13385 -9.52252,-29.28069" fill="#9c9055" stroke="none" stroke-width="0.03528"/><path d="M227.77,179.92639c0,-16.17755 4.81773,-29.29193 10.76076,-29.29193c5.94303,0 10.76076,13.11437 10.76076,29.29193c0,16.17755 -4.81774,29.29195 -10.76076,29.29195c-5.94303,0 -10.76076,-13.1144 -10.76076,-29.29195" fill="#f6d738" stroke="none" stroke-width="0.03528"/><path d="M229.39825,179.92639c0,-13.72954 4.08879,-24.85968 9.13252,-24.85968c5.04373,0 9.13252,11.13013 9.13252,24.85968c0,13.72957 -4.08879,24.85968 -9.13252,24.85968c-5.04373,0 -9.13252,-11.13011 -9.13252,-24.85968" fill="#f3cc30" stroke="none" stroke-width="0.03528"/><path d="M243.30881,158.70859c2.61234,4.37441 4.35447,12.22716 4.35447,21.18848c0,13.72967 -4.08879,24.85968 -9.13252,24.85968c-3.23247,0 -6.07267,-4.57159 -7.69572,-11.46905c1.39005,2.32757 3.02634,3.67112 4.77802,3.67112c5.04373,0 9.13252,-11.13 9.13252,-24.85968c0,-4.93048 -0.5273,-9.52564 -1.43676,-13.39054" fill="#edbd31" stroke="none" stroke-width="0.03528"/><path d="M230.99802,182.20102c0,3.98279 0.38983,7.71757 1.07122,10.93747c-1.04774,-3.70325 -1.67129,-8.34161 -1.67129,-13.37723c0,-12.11967 3.60932,-21.9446 8.06162,-21.9446c2.98926,0 5.5984,4.42878 6.99046,11.00721c-1.47393,-5.20981 -3.78792,-8.56745 -6.39039,-8.56745c-4.45231,0 -8.06162,9.82493 -8.06162,21.9446" fill="#f7db5e" stroke="none" stroke-width="0.03528"/><path d="M238.86107,181.69893c-0.222,0.15359 -0.42233,0.49225 -0.5668,1.00788c-0.3657,1.30529 -0.23495,3.25032 0.29204,4.34438c0.06854,0.14248 0.14204,0.26633 0.21945,0.36976c-0.29409,0.23392 -1.26376,-1.1343 -1.37646,-3.32515c-0.10594,-2.05947 0.48246,-4.13449 1.23528,-4.87921l-0.23686,-2.9926c-0.21196,0.63963 -0.49645,1.47 -0.87802,2.54385c-0.47472,1.33598 -0.84962,3.0041 -0.77387,4.98971c0.11771,3.08538 1.13198,5.32682 2.26543,5.00639c0.12311,-0.03465 0.24483,-0.09921 0.36371,-0.1929zM239.50518,189.83703c-0.07852,0.06697 -0.1596,0.10926 -0.24165,0.12606c-1.92536,0.42752 -3.27598,-3.23777 -3.27598,-7.42969c0,-4.11433 0.73139,-6.30857 2.15667,-9.89166l-0.18147,-2.29274c-0.07679,-1.05018 -0.12859,-2.26443 -0.08552,-3.585c0.10472,-3.21127 0.68886,-5.69381 1.30468,-5.54493c0.61582,0.14875 1.03015,2.87264 0.92542,6.08386c-0.0881,2.70122 -0.51541,4.88686 -1.06741,6.8811c-0.00844,0.04645 -0.06251,0.31265 -0.3221,1.14215l0.28905,3.65197c0.07997,-0.03287 0.16073,-0.04947 0.24161,-0.04964c1.00119,0 1.82551,2.22771 1.82551,5.1673c0,2.22395 -0.54256,4.40094 -1.24027,5.3291l0.33542,4.23785c0.01608,0.24366 0,0.50431 0,0.76062c0,2.32876 -0.68553,4.2167 -1.54105,4.2167c-0.73529,0 -1.35093,-1.39451 -1.50945,-3.26506c-0.10168,-0.91163 0.02284,-1.898 0.3089,-2.44693c0.28606,-0.54893 0.66919,-0.5367 0.95045,0.03034c0.28125,0.56704 0.39724,1.56109 0.28773,2.46598c-0.10951,0.90489 -0.41982,1.51666 -0.76982,1.51766c-0.01776,0 -0.03538,-0.00162 -0.05286,-0.00462c0.21893,0.50811 0.49734,0.78667 0.78505,0.7855c0.66944,0 1.21213,-1.47731 1.21213,-3.29959c0,-0.22476 -0.00826,-0.44422 -0.06618,-1.18958l-0.26884,-3.39676zM240.23256,186.8343c0.27618,-1.88861 0.20507,-3.41588 -0.32192,-4.50994c-0.21203,-0.44019 -0.4559,-0.67554 -0.69548,-0.71463l0.52317,6.60995c0.07331,-0.09809 0.14441,-0.20802 0.21291,-0.32918c0.11677,-0.26875 0.21657,-0.61332 0.28134,-1.0562zM239.3468,164.01964c-0.80079,0.47862 -1.34026,4.16289 -0.89085,7.76872c0.01475,0.11833 -0.01118,-0.11952 0,0c0.24671,-0.52062 0.52436,-1.10194 0.69777,-1.96848c0.44718,-2.23453 0.62895,-4.27357 0.34834,-5.6281c-0.05199,-0.22122 -0.10379,-0.20287 -0.15527,-0.17214z" fill="#b4832d" stroke="#b6842e" stroke-width="0"/></g></g></svg>