<svg version="1.1" xmlns="http://www.w3.org/2000/svg" xmlns:xlink="http://www.w3.org/1999/xlink" width="20.12002" height="27.57574" viewBox="0,0,20.12002,27.57574"><defs><linearGradient x1="240.03729" y1="178.10954" x2="240.38802" y2="178.10954" gradientUnits="userSpaceOnUse" id="color-1"><stop offset="0" stop-color="#000000"/><stop offset="1" stop-color="#000000"/></linearGradient><linearGradient x1="240.00067" y1="175.5801" x2="240.00067" y2="184.26251" gradientUnits="userSpaceOnUse" id="color-2"><stop offset="0" stop-color="#ffffff"/><stop offset="1" stop-color="#ffffff" stop-opacity="0"/></linearGradient><linearGradient x1="147.81058" y1="176.01533" x2="267.81525" y2="191.12765" gradientUnits="userSpaceOnUse" id="color-3"><stop offset="0" stop-color="#000000"/><stop offset="1" stop-color="#000000"/></linearGradient></defs><g transform="translate(-229.94012,-167.32293)"><g data-paper-data="{&quot;isPaintingLayer&quot;:true}" stroke-linecap="butt" stroke-linejoin="miter" stroke-miterlimit="10" stroke-dasharray="" stroke-dashoffset="0" style="mix-blend-mode: normal"><path d="M229.94012,186.55562c0,-3.52213 0,-6.11861 0,-11.14145c0,-3.45285 3.01208,-4.99253 5.18816,-4.99253c0.70353,0 4.60897,0 4.60897,0l-0.0499,-3.09399l0.86314,-0.00472l0.02022,3.09871c0,0 3.64615,0 3.91162,0c3.05101,0 5.57781,1.76381 5.57781,5.40948c0,4.71499 0,6.56157 0,9.8906c0,4.44247 -6.50233,9.17695 -9.8136,9.17695c-3.39339,0 -10.30641,-4.11749 -10.30641,-8.34305z" fill-opacity="0.00806" fill="#efffff" fill-rule="nonzero" stroke="none" stroke-width="0"/><path d="" fill="url(#color-1)" fill-rule="nonzero" stroke="#000000" stroke-width="0.5"/><path d="" fill-opacity="0.00806" fill="#efffff" fill-rule="nonzero" stroke="none" stroke-width="0"/><path d="M248.95464,183.69768c0.02427,3.21526 -1.67713,6.19673 -4.45766,7.81141c-2.78052,1.61468 -6.21329,1.61468 -8.99382,0c-2.78052,-1.61468 -4.48193,-4.59614 -4.45766,-7.81141c-0.02427,-3.21526 1.67713,-6.19673 4.45766,-7.81141c2.78052,-1.61468 6.21329,-1.61468 8.99382,0c2.78052,1.61468 4.48193,4.59614 4.45766,7.81141z" fill="#7200ff" fill-rule="evenodd" stroke="#000000" stroke-width="1"/><path d="M246.3882,180.44669c0,2.68787 -2.85979,4.86681 -6.38753,4.86681c-3.52774,0 -6.38753,-2.17895 -6.38753,-4.86681c0,-2.68787 2.85979,-4.86681 6.38753,-4.86681c3.52774,0 6.38753,2.17895 6.38753,4.86681z" fill="url(#color-2)" fill-rule="evenodd" stroke="none" stroke-width="1" opacity="0.75"/><path d="M239.97891,174.6563v-4.18445h0.29679v4.18445z" fill="none" fill-rule="nonzero" stroke="#000000" stroke-width="0.5"/><path d="M239.19112,177.72717c0.24741,-0.079 0.53225,-0.1445 0.85451,-0.19648c0.32018,-0.05198 0.61125,-0.07797 0.87322,-0.07797c0.30147,0 0.59254,0.02911 0.87322,0.08732c0.28275,0.05821 0.53537,0.15594 0.75783,0.29315c0.22246,0.1393 0.39918,0.32642 0.53017,0.56135c0.13098,0.23494 0.19648,0.52913 0.19648,0.88257v5.22684h1.74955c0.079,0.14346 0.15697,0.33369 0.2339,0.57071c0.079,0.23494 0.11851,0.48339 0.11851,0.74536c0,0.49898 -0.11123,0.85242 -0.3337,1.06033c-0.22246,0.20999 -0.50418,0.31498 -0.84515,0.31498h-0.92312v2.32027c-0.14346,0.02495 -0.35969,0.06029 -0.64868,0.10603c-0.28692,0.04574 -0.56136,0.06861 -0.82332,0.06861c-0.28899,0 -0.54472,-0.01247 -0.76719,-0.03742c-0.22246,-0.02703 -0.40958,-0.0894 -0.56135,-0.18712c-0.1497,-0.09772 -0.26405,-0.23806 -0.34305,-0.42102c-0.079,-0.18504 -0.11851,-0.43453 -0.11851,-0.74847v-1.10088h-4.93057c-0.30147,-0.15593 -0.56031,-0.38775 -0.77654,-0.69545c-0.21623,-0.30771 -0.32433,-0.68506 -0.32433,-1.13207c0,-0.24741 0.03326,-0.52185 0.09979,-0.82332c0.06445,-0.30147 0.17569,-0.56344 0.3337,-0.7859zM240.1922,184.50397v-3.69247h-0.05925l-2.61342,3.69247z" fill="url(#color-3)" fill-rule="nonzero" stroke="none" stroke-width="1"/></g></g></svg>