<svg version="1.1" xmlns="http://www.w3.org/2000/svg" xmlns:xlink="http://www.w3.org/1999/xlink" width="26.10018" height="112.79973" viewBox="0,0,26.10018,112.79973"><g transform="translate(-226.94991,-124.11176)"><g data-paper-data="{&quot;isPaintingLayer&quot;:true}" fill-rule="nonzero" stroke-linecap="butt" stroke-linejoin="miter" stroke-miterlimit="10" stroke-dasharray="" stroke-dashoffset="0" style="mix-blend-mode: normal"><path d="M226.94991,234.66317c0,-2.63226 0,-65.54514 0,-107.49735c0,-1.19188 1.2268,-3.05406 2.01202,-3.05406c8.63819,0 19.84667,0 22.13427,0c0.76253,0 1.95389,1.85395 1.95389,2.71657c0,41.8205 0,104.07477 0,107.49735c0,1.14087 -0.90067,2.58581 -1.71066,2.58581c-2.42999,0 -14.15755,0 -22.98558,0c-0.5479,0 -1.40393,-1.37084 -1.40393,-2.2483z" data-paper-data="{&quot;origPos&quot;:null}" fill-opacity="0.09892" fill="#ffffff" stroke="#001026" stroke-width="0"/><text transform="translate(229.71722,161.18881) scale(0.24693,0.33949)" font-size="40" xml:space="preserve" fill="#000000" fill-rule="nonzero" stroke="#000000" stroke-width="2" stroke-linecap="butt" stroke-linejoin="miter" stroke-miterlimit="10" stroke-dasharray="" stroke-dashoffset="0" font-family="Sans Serif" font-weight="normal" text-anchor="start" style="mix-blend-mode: normal"><tspan x="0" dy="0">Sol</tspan></text><text transform="translate(244.77236,161.47681) scale(0.30478,0.30478)" font-size="40" xml:space="preserve" fill="#000000" fill-rule="nonzero" stroke="#000000" stroke-width="3" stroke-linecap="butt" stroke-linejoin="miter" stroke-miterlimit="10" stroke-dasharray="" stroke-dashoffset="0" font-family="Handwriting" font-weight="normal" text-anchor="start" style="mix-blend-mode: normal"><tspan x="0" dy="0">b</tspan></text></g></g></svg>