<svg version="1.1" xmlns="http://www.w3.org/2000/svg" xmlns:xlink="http://www.w3.org/1999/xlink" width="80.82952" height="15.58696" viewBox="0,0,80.82952,15.58696"><g transform="translate(-199.58524,-172.20652)"><g data-paper-data="{&quot;isPaintingLayer&quot;:true}" fill-rule="nonzero" stroke="none" stroke-linecap="butt" stroke-linejoin="miter" stroke-miterlimit="10" stroke-dasharray="" stroke-dashoffset="0" style="mix-blend-mode: normal"><path d="M206.05184,175.48151c0,0.35673 0.01982,1.07017 0.05945,2.14034c0.03964,1.07017 0.07927,1.96198 0.11891,2.67542c0.03963,0.75308 0.05945,1.36744 0.05945,1.84307l4.04287,-6.77775c0,0 0.1189,-0.01981 0.35672,-0.05945c0.19818,0 0.436,0 0.71345,0c0.31708,0 0.63418,0 0.95126,0c0.31709,0 0.59454,0.01982 0.83235,0.05945c0,0.03964 0.01982,0.05945 0.05946,0.05945c-0.03964,0.03964 -0.05946,0.07927 -0.05946,0.11891h-0.29727c-0.31709,0 -0.61436,0.03964 -0.89181,0.11891c-0.27746,0.07927 -0.45582,0.25763 -0.53509,0.53509l-2.19979,7.84792c-0.03964,0.15854 0.01981,0.25764 0.17836,0.29727c0.15854,0.03964 0.39636,0.05945 0.71344,0.05945c0.07927,0 0.15854,0 0.23782,0c0.11891,0 0.218,0 0.29727,0c0.03963,0 0.03963,0.01981 0,0.05945c0,0.03963 0,0.07927 0,0.11891h-4.04286c0,-0.03964 0,-0.09909 0,-0.17836h0.23781c0.31708,0 0.59454,-0.03964 0.83236,-0.11891c0.23782,-0.03963 0.37654,-0.17836 0.41618,-0.41618l2.19979,-7.66955l-5.05358,8.32354h-0.11891l-0.29727,-8.38299l-2.02143,7.25337c0,0.11891 0,0.25764 0,0.41618c0,0.19818 0.05945,0.3369 0.17836,0.41618c0.11891,0.11891 0.31709,0.17836 0.59454,0.17836c0.19818,0 0.31709,0 0.35672,0c0,0.03964 0,0.07927 0,0.11891c0,0 -0.01981,0.01981 -0.05945,0.05945h-2.9727c-0.03964,-0.03964 -0.05945,-0.07928 -0.05945,-0.11891c0,-0.03964 0.03964,-0.05945 0.11891,-0.05945c0.27746,0 0.5549,-0.05945 0.83236,-0.17836c0.23782,-0.11891 0.43599,-0.436 0.59453,-0.95126l2.02144,-7.07501c0,-0.11891 0,-0.17836 0,-0.17836c0,-0.23782 -0.09909,-0.37654 -0.29727,-0.41618c-0.19818,-0.07927 -0.45582,-0.11891 -0.7729,-0.11891h-0.23781c0,-0.03964 0,-0.05946 0,-0.05946c0,-0.03964 0.01982,-0.07926 0.05945,-0.1189c0.23782,0 0.69362,0 1.36744,0c0.67381,0 1.1098,0 1.30799,0c0.11891,0 0.17837,0.05945 0.17837,0.17836zM217.88316,178.51366c-0.51527,1.82325 -1.01072,3.62669 -1.48634,5.4103c-0.03964,0.11891 0,0.218 0.11891,0.29727c0.07927,0.03963 0.17836,0.05945 0.29727,0.05945c0.07927,0 0.19819,-0.03964 0.35673,-0.11891c0.19818,-0.11891 0.39635,-0.39636 0.59454,-0.83236c0.19818,-0.39635 0.37654,-0.79271 0.53509,-1.18907h0.23781c-0.436,0.9909 -0.75308,1.64489 -0.95127,1.96198c-0.15854,0.27746 -0.4558,0.41618 -0.8918,0.41618c-0.27746,0 -0.47563,-0.05945 -0.59454,-0.17836c-0.07927,-0.11891 -0.15854,-0.27746 -0.23781,-0.47564c-0.03964,-0.15854 -0.05946,-0.33691 -0.05946,-0.53509c0,-0.19818 0,-0.37654 0,-0.53508c0,-0.11891 0,-0.19819 0,-0.23782c0,0 0,-0.03963 0,-0.1189c-0.07927,0.07927 -0.33691,0.45581 -0.7729,1.12962c-0.436,0.67381 -0.83235,1.01072 -1.18908,1.01072c-0.03964,0 -0.15854,-0.01982 -0.35673,-0.05945c-0.19818,-0.03964 -0.37654,-0.19818 -0.53508,-0.47563c-0.15854,-0.27746 -0.23782,-0.59454 -0.23782,-0.95127c0,-0.11891 0.01983,-0.29727 0.05946,-0.53509c0.03964,-0.27746 0.218,-0.87199 0.53508,-1.78361c0.35673,-0.95126 0.5549,-1.52597 0.59454,-1.72416c0,-0.07927 -0.01982,-0.13874 -0.05945,-0.17837c-0.07927,-0.03963 -0.11891,-0.07927 -0.11891,-0.11891c-0.47563,0.15854 -0.87199,0.53508 -1.18908,1.12962c-0.31709,0.59454 -0.53508,0.95126 -0.65399,1.07017h-0.11891c0.31708,-0.67381 0.63418,-1.24853 0.95127,-1.72416c0.31708,-0.436 0.65399,-0.654 1.01072,-0.654c0.11891,0 0.25763,0.03964 0.41618,0.11891c0.15854,0.03964 0.27745,0.15854 0.35672,0.35673c0.07927,0.19818 0.11891,0.45581 0.11891,0.7729c0,0.27746 -0.19818,0.87198 -0.59454,1.78361c-0.35673,0.91162 -0.53509,1.60525 -0.53509,2.08088c0,0.15854 0.01982,0.31709 0.05946,0.47563c0,0.11891 0.09909,0.17837 0.29727,0.17837c0.23782,0 0.436,-0.11891 0.59454,-0.35673c0.19818,-0.23782 0.39635,-0.51527 0.59454,-0.83236c0.19818,-0.35673 0.41618,-0.7729 0.654,-1.24853c0.23782,-0.47563 0.43599,-0.97108 0.59453,-1.48635c0.19818,-0.5549 0.37654,-1.16926 0.53509,-1.84307c0.03964,0 0.11891,0 0.23782,0c0.07927,0 0.15855,0 0.23782,0c0.07927,0 0.15854,0.01982 0.23781,0.05945c0.15854,0 0.27745,-0.03963 0.35672,-0.1189zM223.70964,179.46495c0.07927,0.11891 0.11891,0.25764 0.11891,0.41618c0,0.35673 -0.09909,0.5549 -0.29727,0.59454c-0.19818,0.03964 -0.31709,0.05946 -0.35672,0.05946c-0.31709,0 -0.51526,-0.13873 -0.59454,-0.41618c-0.07927,-0.15854 0.01981,-0.31709 0.29727,-0.47564c0.31708,-0.15854 0.45581,-0.31709 0.41618,-0.47563c-0.23782,-0.27745 -0.59454,-0.41618 -1.07017,-0.41618c-0.07927,0 -0.13873,0 -0.17836,0c-0.07927,0 -0.19818,0.01981 -0.35672,0.05945c-0.19818,0 -0.41618,0.05945 -0.654,0.17836c-0.19818,0.11891 -0.31708,0.27745 -0.35672,0.47563c-0.03963,0.15854 -0.05946,0.27746 -0.05946,0.35673c0,0.39635 0.37654,0.77289 1.12963,1.12962c0.71345,0.31708 1.12962,0.63417 1.24853,0.95127c0.11891,0.27745 0.17836,0.51526 0.17836,0.71345c0,0.23782 -0.03964,0.47563 -0.11891,0.71344c-0.11891,0.19818 -0.29727,0.41618 -0.53509,0.654c-0.19818,0.19818 -0.45581,0.35672 -0.7729,0.47563c-0.31709,0.11891 -0.65399,0.17836 -1.01072,0.17836c-0.27746,0 -0.61436,-0.03963 -1.01072,-0.1189c-0.436,-0.11891 -0.69363,-0.33691 -0.7729,-0.654c-0.07927,-0.27746 -0.11891,-0.47563 -0.11891,-0.59454c0,-0.23782 0.05945,-0.436 0.17836,-0.59454c0.11891,-0.15854 0.27745,-0.23781 0.47563,-0.23781c0.19818,0 0.35672,0 0.47563,0c0.11891,0.03963 0.19819,0.13873 0.23782,0.29727c0.03964,0.11891 0.05945,0.19818 0.05945,0.23781c0,0.15855 -0.05945,0.27745 -0.17836,0.35672c-0.07927,0.11891 -0.17836,0.17837 -0.29727,0.17837c-0.11891,-0.03964 -0.218,-0.03964 -0.29727,0c-0.03964,0.03963 -0.09909,0.07927 -0.17836,0.11891c0,0.19818 0.05945,0.35672 0.17836,0.47563c0.11891,0.11891 0.27745,0.218 0.47563,0.29727c0.23782,0.07927 0.47563,0.11891 0.71345,0.11891c0.39636,0 0.73327,-0.07928 1.01072,-0.23782c0.23782,-0.11891 0.41617,-0.25763 0.53508,-0.41618c0.11891,-0.15854 0.19819,-0.29727 0.23782,-0.41618c0,-0.15854 0,-0.25763 0,-0.29727c0,-0.23782 -0.05945,-0.436 -0.17836,-0.59454c-0.11891,-0.15854 -0.33691,-0.31709 -0.654,-0.47563c-0.27746,-0.15854 -0.61436,-0.3369 -1.01072,-0.53509c-0.47563,-0.31709 -0.71344,-0.67381 -0.71344,-1.07017c0,-0.43599 0.13873,-0.83235 0.41617,-1.18908c0.31709,-0.31708 0.65399,-0.51527 1.01072,-0.59454c0.31708,-0.07927 0.59454,-0.11891 0.83236,-0.11891c0.35673,0 0.67381,0.07928 0.95127,0.23782c0.27746,0.11891 0.47562,0.33691 0.59453,0.65399zM226.9796,179.10822c0.11891,0.27746 0.17836,0.57473 0.17836,0.89181c0,0.35673 -0.19818,0.95126 -0.59454,1.78361c-0.35673,0.87199 -0.53509,1.50617 -0.53509,1.90252c0,0.15854 0,0.33691 0,0.53509c0.03964,0.11891 0.15854,0.17836 0.35672,0.17836c0.11891,0 0.27745,-0.07927 0.47563,-0.23782c0.19818,-0.15854 0.41618,-0.47563 0.65399,-0.95126c0.23782,-0.47563 0.45581,-0.93145 0.654,-1.36744c-0.07927,0.5549 -0.23782,1.07017 -0.47563,1.5458c-0.27745,0.47563 -0.53509,0.79273 -0.7729,0.95127c-0.27746,0.15854 -0.45581,0.23781 -0.53508,0.23781c-0.19818,0 -0.35672,-0.05945 -0.47563,-0.17836c-0.15854,-0.11891 -0.27745,-0.25764 -0.35672,-0.41618c-0.07927,-0.15854 -0.13873,-0.31708 -0.17836,-0.47563c-0.03964,-0.11891 -0.05946,-0.27745 -0.05946,-0.47563c0,-0.436 0.17836,-1.07017 0.53509,-1.90252c0.35673,-0.87198 0.53509,-1.50617 0.53509,-1.90252c0,-0.15854 0,-0.25764 0,-0.29727c0,-0.11891 -0.07927,-0.17836 -0.23782,-0.17836c-0.11891,0 -0.29727,0.09909 -0.53509,0.29727c-0.19818,0.15854 -0.39636,0.41617 -0.59454,0.7729c-0.19818,0.31708 -0.35672,0.67381 -0.47563,1.07017h-0.17836c0.27745,-0.71345 0.53508,-1.22872 0.7729,-1.54581c0.23782,-0.35673 0.45581,-0.59454 0.654,-0.71345c0.19818,-0.07927 0.33691,-0.1189 0.41618,-0.1189c0.15854,0 0.31708,0.05945 0.47563,0.17836c0.11891,0.11891 0.218,0.25763 0.29727,0.41618zM226.92015,175.95716c0.15854,0 0.31708,0.07927 0.47563,0.23782c0.15854,0.11891 0.23782,0.27745 0.23782,0.47563c0,0.19818 -0.07928,0.35672 -0.23782,0.47563c-0.11891,0.15854 -0.27745,0.23782 -0.47563,0.23782c-0.19818,0 -0.37654,-0.07927 -0.53508,-0.23782c-0.11891,-0.11891 -0.17836,-0.27745 -0.17836,-0.47563c0,-0.19818 0.05945,-0.35672 0.17836,-0.47563c0.15854,-0.15854 0.3369,-0.23782 0.53508,-0.23782zM232.56827,178.87039c0.27746,0.23782 0.41618,0.49545 0.41618,0.7729c0,0.15854 -0.05945,0.35672 -0.17836,0.59454c-0.11891,0.27745 -0.35672,0.41618 -0.71345,0.41618c-0.03963,0 -0.09909,-0.01982 -0.17837,-0.05945c-0.07927,-0.03964 -0.13873,-0.09909 -0.17836,-0.17836c-0.03964,-0.07927 -0.05945,-0.17836 -0.05945,-0.29727c0,-0.15854 0.01981,-0.27746 0.05945,-0.35673c0.03964,-0.03963 0.15854,-0.13873 0.35673,-0.29727c0.19818,-0.11891 0.29727,-0.218 0.29727,-0.29727c0,-0.03963 -0.01982,-0.09909 -0.05945,-0.17836c-0.15854,-0.15854 -0.35673,-0.23782 -0.59454,-0.23782c-0.19818,0 -0.47563,0.17836 -0.83235,0.53509c-0.35673,0.35673 -0.67382,0.97108 -0.95126,1.84307c-0.23782,0.91163 -0.35672,1.84307 -0.35672,2.79433c0,0.15854 0.07927,0.27745 0.23781,0.35672c0.15854,0.11891 0.33691,0.17836 0.53509,0.17836c0.11891,0 0.31709,-0.05945 0.59454,-0.17836c0.23782,-0.07927 0.51526,-0.3369 0.83236,-0.7729c0.35673,-0.39635 0.65399,-0.87199 0.89181,-1.4269h0.11891c-0.19818,0.59454 -0.47563,1.12963 -0.83236,1.60525c-0.39636,0.47563 -0.75308,0.75308 -1.07017,0.83236c-0.35673,0.07927 -0.59454,0.1189 -0.71345,0.1189c-0.43599,0 -0.7729,-0.13873 -1.01072,-0.41617c-0.19818,-0.27746 -0.33691,-0.55491 -0.41618,-0.83236c-0.07927,-0.31708 -0.11891,-0.63417 -0.11891,-0.95126c0,-0.27746 0.01982,-0.55491 0.05946,-0.83236c0.07927,-0.23782 0.21799,-0.59454 0.41618,-1.07017c0.19818,-0.51526 0.49545,-0.95126 0.89181,-1.30799c0.43599,-0.436 0.97108,-0.654 1.60525,-0.654c0.19818,0 0.37654,0.01982 0.53508,0.05945c0.15854,0.03964 0.29727,0.11891 0.41618,0.23782zM237.74076,179.28658c0.03964,-0.11891 0.07927,-0.218 0.1189,-0.29727c0.03964,-0.11891 0.09909,-0.25764 0.17836,-0.41618h0.95127c-0.11891,0.51527 -0.31709,1.2089 -0.59454,2.08088c-0.27745,0.87199 -0.47563,1.58544 -0.59454,2.14034c-0.15854,0.5549 -0.23782,1.03054 -0.23782,1.4269c0,0.07927 0.05946,0.11891 0.17837,0.11891c0.15854,0 0.3369,-0.09909 0.53508,-0.29727c0.19818,-0.19818 0.41618,-0.49546 0.654,-0.89181c0.23782,-0.39635 0.45581,-0.7729 0.65399,-1.12962c-0.19818,0.5549 -0.436,1.05035 -0.71345,1.48635c-0.27746,0.47563 -0.53508,0.7729 -0.7729,0.89181c-0.19818,0.11891 -0.35672,0.17836 -0.47563,0.17836c-0.11891,0 -0.25764,-0.03964 -0.41618,-0.11891c-0.11891,-0.07927 -0.218,-0.17836 -0.29727,-0.29727c-0.07927,-0.11891 -0.11891,-0.218 -0.11891,-0.29727c-0.03964,-0.11891 -0.05946,-0.23781 -0.05946,-0.35672c0,-0.19818 0,-0.31709 0,-0.35673c0,-0.03963 0.01982,-0.07926 0.05946,-0.1189c-0.35673,0.47563 -0.69363,0.87198 -1.01072,1.18908c-0.31708,0.31708 -0.69362,0.47563 -1.12963,0.47563c-0.07927,0 -0.21799,-0.01982 -0.41617,-0.05946c-0.19818,-0.07927 -0.35672,-0.21799 -0.47563,-0.41617c-0.11891,-0.23782 -0.19819,-0.47563 -0.23782,-0.71345c-0.07927,-0.23782 -0.1189,-0.43599 -0.1189,-0.59454c0,-0.63417 0.15854,-1.24853 0.47563,-1.84307c0.35673,-0.63417 0.73327,-1.14944 1.12963,-1.5458c0.436,-0.39635 0.73327,-0.65399 0.89181,-0.7729c0.19818,-0.07927 0.436,-0.13873 0.71345,-0.17836c0.27746,0 0.49545,0.05945 0.65399,0.17836c0.19818,0.11891 0.35673,0.29727 0.47564,0.53509zM236.01659,179.04876c-0.51527,0.63417 -0.91163,1.38725 -1.18908,2.25924c-0.27745,0.83236 -0.41617,1.68453 -0.41617,2.55651c0,0.19818 0.03964,0.35673 0.11891,0.47564c0.07927,0.11891 0.19818,0.17836 0.35672,0.17836c0.03964,0 0.13873,-0.03964 0.29727,-0.11891c0.15854,-0.07927 0.35672,-0.25764 0.59454,-0.53509c0.27746,-0.23782 0.5549,-0.59454 0.83236,-1.07017c0.27746,-0.436 0.51526,-0.89181 0.71345,-1.36744c0.19818,-0.47563 0.29727,-0.91163 0.29727,-1.30799c0,-0.39635 -0.09909,-0.71345 -0.29727,-0.95127c-0.15854,-0.27745 -0.35673,-0.41618 -0.59454,-0.41618c-0.27746,0 -0.51526,0.09909 -0.71344,0.29727zM247.49119,178.87039c0.27746,0.23782 0.41618,0.49545 0.41618,0.7729c0,0.15854 -0.05945,0.35672 -0.17836,0.59454c-0.11891,0.27745 -0.33691,0.41618 -0.654,0.41618c-0.07927,0 -0.15854,-0.01982 -0.23781,-0.05945c-0.07927,-0.03964 -0.13873,-0.09909 -0.17836,-0.17836c-0.03963,-0.07927 -0.05946,-0.17836 -0.05946,-0.29727c0,-0.15854 0.01983,-0.27746 0.05946,-0.35673c0.03964,-0.03963 0.15854,-0.13873 0.35672,-0.29727c0.19818,-0.11891 0.29727,-0.218 0.29727,-0.29727c0,-0.03963 -0.01981,-0.09909 -0.05945,-0.17836c-0.11891,-0.15854 -0.29727,-0.23782 -0.53509,-0.23782c-0.23782,0 -0.53508,0.17836 -0.89181,0.53509c-0.35673,0.35673 -0.65399,0.97108 -0.89181,1.84307c-0.27746,0.91163 -0.41618,1.84307 -0.41618,2.79433c0,0.15854 0.07928,0.27745 0.23782,0.35672c0.15854,0.11891 0.3369,0.17836 0.53508,0.17836c0.11891,0 0.31708,-0.05945 0.59454,-0.17836c0.23782,-0.07927 0.51527,-0.3369 0.83236,-0.7729c0.35673,-0.39635 0.65399,-0.87199 0.89181,-1.4269h0.11891c-0.19818,0.59454 -0.47563,1.12963 -0.83236,1.60525c-0.39635,0.47563 -0.75308,0.75308 -1.07017,0.83236c-0.35673,0.07927 -0.59454,0.1189 -0.71345,0.1189c-0.436,0 -0.7729,-0.13873 -1.01072,-0.41617c-0.19818,-0.27746 -0.33691,-0.55491 -0.41618,-0.83236c-0.07927,-0.31708 -0.1189,-0.63417 -0.1189,-0.95126c0,-0.27746 0.01982,-0.55491 0.05945,-0.83236c0.07927,-0.23782 0.218,-0.59454 0.41618,-1.07017c0.19818,-0.51526 0.49545,-0.95126 0.89181,-1.30799c0.43599,-0.436 0.97108,-0.654 1.60525,-0.654c0.19818,0 0.37654,0.01982 0.53508,0.05945c0.15854,0.03964 0.29727,0.11891 0.41618,0.23782zM251.05844,175.95716h0.17836l-2.02143,7.43174c0,0.03964 0,0.11891 0,0.23782c-0.03963,0.07927 -0.05945,0.15854 -0.05945,0.23781c0,0.35673 0.07927,0.53509 0.23781,0.53509c0.436,0 0.7729,-0.25763 1.01072,-0.7729c0.27746,-0.5549 0.53508,-1.07017 0.7729,-1.5458c-0.23782,0.79272 -0.43599,1.36744 -0.59453,1.72416c-0.15854,0.31708 -0.37655,0.53508 -0.654,0.65399c-0.27746,0.11891 -0.47563,0.17836 -0.59454,0.17836c-0.15854,0 -0.31708,-0.03963 -0.47563,-0.1189c-0.11891,-0.11891 -0.25764,-0.27745 -0.41618,-0.47563c-0.11891,-0.19818 -0.17836,-0.41618 -0.17836,-0.654c0,-0.15854 0.01981,-0.31708 0.05945,-0.47563c0.03963,-0.15854 0.07927,-0.29727 0.11891,-0.41618l1.60525,-6.24266c-0.07927,-0.03964 -0.15855,-0.07926 -0.23782,-0.1189c-0.11891,0 -0.23781,0 -0.35672,0c-0.15854,0 -0.27746,0 -0.35673,0h-0.17836c0.15854,-0.07927 0.436,-0.13874 0.83236,-0.17837c0.39636,0 0.83236,0 1.30799,0zM256.17145,179.28658c0.03963,-0.11891 0.07927,-0.218 0.11891,-0.29727c0.03964,-0.11891 0.09909,-0.25764 0.17836,-0.41618h0.89181c-0.07927,0.51527 -0.25764,1.2089 -0.53509,2.08088c-0.27745,0.87199 -0.49545,1.58544 -0.654,2.14034c-0.11891,0.5549 -0.17836,1.03054 -0.17836,1.4269c0,0.07927 0.05945,0.11891 0.17836,0.11891c0.11891,0 0.29727,-0.09909 0.53509,-0.29727c0.19818,-0.19818 0.41618,-0.49546 0.654,-0.89181c0.23781,-0.39635 0.4558,-0.7729 0.65399,-1.12962c-0.19818,0.5549 -0.436,1.05035 -0.71344,1.48635c-0.27744,0.47563 -0.53508,0.7729 -0.7729,0.89181c-0.23782,0.11891 -0.39636,0.17836 -0.47563,0.17836c-0.15854,0 -0.29727,-0.03964 -0.41618,-0.11891c-0.11891,-0.07927 -0.218,-0.17836 -0.29727,-0.29727c-0.07927,-0.11891 -0.13873,-0.218 -0.17836,-0.29727c0,-0.11891 0,-0.23781 0,-0.35672c0,-0.19818 0,-0.31709 0,-0.35673c0,-0.03963 0.01982,-0.07926 0.05945,-0.1189c-0.39635,0.47563 -0.73327,0.87198 -1.01072,1.18908c-0.31708,0.31708 -0.69362,0.47563 -1.12962,0.47563c-0.07927,0 -0.218,-0.01982 -0.41618,-0.05946c-0.19818,-0.07927 -0.35672,-0.21799 -0.47563,-0.41617c-0.15854,-0.23782 -0.25763,-0.47563 -0.29727,-0.71345c-0.03963,-0.23782 -0.05945,-0.43599 -0.05945,-0.59454c0,-0.63417 0.15854,-1.24853 0.47563,-1.84307c0.31708,-0.63417 0.69362,-1.14944 1.12962,-1.5458c0.436,-0.39635 0.73327,-0.65399 0.89181,-0.7729c0.15854,-0.07927 0.39635,-0.13873 0.71345,-0.17836c0.23782,0 0.45581,0.05945 0.654,0.17836c0.19818,0.11891 0.35672,0.29727 0.47563,0.53509zM254.4473,179.04876c-0.5549,0.63417 -0.97109,1.38725 -1.24854,2.25924c-0.27746,0.83236 -0.41617,1.68453 -0.41617,2.55651c0,0.19818 0.03963,0.35673 0.1189,0.47564c0.11891,0.11891 0.23782,0.17836 0.35673,0.17836c0.03963,0 0.13873,-0.03964 0.29727,-0.11891c0.19818,-0.07927 0.41617,-0.25764 0.65399,-0.53509c0.23782,-0.23782 0.49546,-0.59454 0.77291,-1.07017c0.31708,-0.436 0.5549,-0.89181 0.71345,-1.36744c0.19818,-0.47563 0.29727,-0.91163 0.29727,-1.30799c0,-0.39635 -0.07927,-0.71345 -0.23782,-0.95127c-0.15854,-0.27745 -0.37654,-0.41618 -0.654,-0.41618c-0.27745,0 -0.49544,0.09909 -0.65399,0.29727zM258.23993,176.73008l-2.43761,0.71345c0.5549,-0.35673 1.10981,-0.73327 1.66471,-1.12963c0.5549,-0.436 0.81254,-0.69363 0.7729,-0.7729c0,0.07927 0,0.19818 0,0.35672c0.03964,0.11891 0.05945,0.23781 0.05945,0.35672c0,0.19818 -0.01981,0.35672 -0.05945,0.47563zM263.24649,179.46495c0.07927,0.11891 0.1189,0.25764 0.1189,0.41618c0,0.35673 -0.09908,0.5549 -0.29726,0.59454c-0.19819,0.03964 -0.3171,0.05946 -0.35673,0.05946c-0.31709,0 -0.51527,-0.13873 -0.59454,-0.41618c-0.07927,-0.15854 0.01981,-0.31709 0.29727,-0.47564c0.31709,-0.15854 0.4558,-0.31709 0.41617,-0.47563c-0.23781,-0.27745 -0.59454,-0.41618 -1.07017,-0.41618c-0.03963,0 -0.09909,0 -0.17836,0c-0.07927,0 -0.19818,0.01981 -0.35672,0.05945c-0.19819,0 -0.39636,0.05945 -0.59454,0.17836c-0.23781,0.11891 -0.37654,0.27745 -0.41618,0.47563c-0.03963,0.15854 -0.05946,0.27746 -0.05946,0.35673c0,0.39635 0.37654,0.77289 1.12963,1.12962c0.75308,0.31708 1.16926,0.63417 1.24853,0.95127c0.15854,0.27745 0.23782,0.51526 0.23782,0.71345c0,0.23782 -0.05945,0.47563 -0.17836,0.71344c-0.11891,0.19818 -0.29727,0.41618 -0.53509,0.654c-0.19818,0.19818 -0.45581,0.35672 -0.7729,0.47563c-0.31709,0.11891 -0.65399,0.17836 -1.01072,0.17836c-0.27745,0 -0.61435,-0.03963 -1.01072,-0.1189c-0.436,-0.11891 -0.69362,-0.33691 -0.7729,-0.654c-0.07927,-0.27746 -0.11891,-0.47563 -0.11891,-0.59454c0,-0.23782 0.05945,-0.436 0.17836,-0.59454c0.11891,-0.15854 0.27745,-0.23781 0.47563,-0.23781c0.19818,0 0.35672,0 0.47563,0c0.11891,0.03963 0.19817,0.13873 0.23782,0.29727c0.03963,0.11891 0.05945,0.19818 0.05945,0.23781c0,0.15855 -0.05945,0.27745 -0.17836,0.35672c-0.07927,0.11891 -0.17836,0.17837 -0.29727,0.17837c-0.11891,-0.03964 -0.218,-0.03964 -0.29727,0c-0.03963,0.03963 -0.09909,0.07927 -0.17837,0.11891c0,0.19818 0.05946,0.35672 0.17837,0.47563c0.11891,0.11891 0.27745,0.218 0.47563,0.29727c0.23782,0.07927 0.49545,0.11891 0.7729,0.11891c0.35672,0 0.67381,-0.07928 0.95126,-0.23782c0.23781,-0.11891 0.41617,-0.25763 0.53508,-0.41618c0.11891,-0.15854 0.19819,-0.29727 0.23782,-0.41618c0.03964,-0.15854 0.05945,-0.25763 0.05945,-0.29727c0,-0.23782 -0.07927,-0.436 -0.23781,-0.59454c-0.11891,-0.15854 -0.3369,-0.31709 -0.65399,-0.47563c-0.27744,-0.15854 -0.61436,-0.3369 -1.01072,-0.53509c-0.47563,-0.31709 -0.71344,-0.67381 -0.71344,-1.07017c0,-0.43599 0.15854,-0.83235 0.47563,-1.18908c0.27745,-0.31708 0.59454,-0.51527 0.95127,-0.59454c0.31709,-0.07927 0.59454,-0.11891 0.83235,-0.11891c0.35672,0 0.67382,0.07928 0.95126,0.23782c0.27746,0.11891 0.47563,0.33691 0.59454,0.65399zM266.51644,179.10822c0.11891,0.27746 0.17836,0.57473 0.17836,0.89181c0,0.35673 -0.19818,0.95126 -0.59454,1.78361c-0.35672,0.87199 -0.53508,1.50617 -0.53508,1.90252c0,0.15854 0.01983,0.33691 0.05946,0.53509c0,0.11891 0.11891,0.17836 0.35672,0.17836c0.07927,0 0.21799,-0.07927 0.41617,-0.23782c0.19819,-0.15854 0.41618,-0.47563 0.654,-0.95126c0.23782,-0.47563 0.45581,-0.93145 0.65399,-1.36744c-0.07927,0.5549 -0.23781,1.07017 -0.47563,1.5458c-0.27745,0.47563 -0.53508,0.79273 -0.7729,0.95127c-0.27745,0.15854 -0.45581,0.23781 -0.53509,0.23781c-0.19818,0 -0.35672,-0.05945 -0.47563,-0.17836c-0.15854,-0.11891 -0.27746,-0.25764 -0.35673,-0.41618c-0.07927,-0.15854 -0.13873,-0.31708 -0.17836,-0.47563c0,-0.11891 0,-0.27745 0,-0.47563c0,-0.436 0.15854,-1.07017 0.47563,-1.90252c0.39636,-0.87198 0.59454,-1.50617 0.59454,-1.90252c0,-0.15854 -0.01981,-0.25764 -0.05946,-0.29727c0,-0.11891 -0.07927,-0.17836 -0.23781,-0.17836c-0.11891,0 -0.29727,0.09909 -0.53508,0.29727c-0.19819,0.15854 -0.39636,0.41617 -0.59454,0.7729c-0.19818,0.31708 -0.35672,0.67381 -0.47563,1.07017h-0.17837c0.27745,-0.71345 0.53508,-1.22872 0.7729,-1.54581c0.23781,-0.35673 0.45582,-0.59454 0.654,-0.71345c0.19818,-0.07927 0.33691,-0.1189 0.41617,-0.1189c0.15854,0 0.31709,0.05945 0.47564,0.17836c0.11891,0.11891 0.218,0.25763 0.29727,0.41618zM266.45698,175.95716c0.15854,0 0.31709,0.07927 0.47563,0.23782c0.15854,0.11891 0.23782,0.27745 0.23782,0.47563c0,0.19818 -0.07927,0.35672 -0.23782,0.47563c-0.11891,0.15854 -0.27745,0.23782 -0.47563,0.23782c-0.19818,0 -0.37654,-0.07927 -0.53508,-0.23782c-0.11891,-0.11891 -0.17836,-0.27745 -0.17836,-0.47563c0,-0.19818 0.05945,-0.35672 0.17836,-0.47563c0.15854,-0.15854 0.33691,-0.23782 0.53508,-0.23782zM272.1051,178.87039c0.27745,0.23782 0.41618,0.49545 0.41618,0.7729c0,0.15854 -0.05945,0.35672 -0.17836,0.59454c-0.11891,0.27745 -0.3369,0.41618 -0.65399,0.41618c-0.07927,0 -0.15854,-0.01982 -0.23781,-0.05945c-0.07927,-0.03964 -0.13873,-0.09909 -0.17836,-0.17836c-0.03963,-0.07927 -0.05945,-0.17836 -0.05945,-0.29727c0,-0.15854 0.01982,-0.27746 0.05945,-0.35673c0.03964,-0.03963 0.15854,-0.13873 0.35672,-0.29727c0.19818,-0.11891 0.29727,-0.218 0.29727,-0.29727c0,-0.03963 -0.01981,-0.09909 -0.05946,-0.17836c-0.11891,-0.15854 -0.29727,-0.23782 -0.53508,-0.23782c-0.23781,0 -0.53508,0.17836 -0.8918,0.53509c-0.35672,0.35673 -0.654,0.97108 -0.89181,1.84307c-0.27746,0.91163 -0.41618,1.84307 -0.41618,2.79433c0,0.15854 0.07928,0.27745 0.23782,0.35672c0.15854,0.11891 0.33691,0.17836 0.53508,0.17836c0.11891,0 0.31708,-0.05945 0.59453,-0.17836c0.23782,-0.07927 0.51526,-0.3369 0.83236,-0.7729c0.35672,-0.39635 0.654,-0.87199 0.89181,-1.4269h0.1189c-0.19818,0.59454 -0.47563,1.12963 -0.83235,1.60525c-0.39635,0.47563 -0.75308,0.75308 -1.07017,0.83236c-0.35672,0.07927 -0.59454,0.1189 -0.71345,0.1189c-0.436,0 -0.7729,-0.13873 -1.01072,-0.41617c-0.19819,-0.27746 -0.33691,-0.55491 -0.41618,-0.83236c-0.07927,-0.31708 -0.11891,-0.63417 -0.11891,-0.95126c0,-0.27746 0.01982,-0.55491 0.05945,-0.83236c0.07927,-0.23782 0.21799,-0.59454 0.41617,-1.07017c0.19818,-0.51526 0.49545,-0.95126 0.89181,-1.30799c0.436,-0.436 0.97108,-0.654 1.60525,-0.654c0.19819,0 0.37654,0.01982 0.53508,0.05945c0.15854,0.03964 0.29727,0.11891 0.41618,0.23782zM277.27758,179.28658c0.03963,-0.11891 0.07926,-0.218 0.11891,-0.29727c0.03964,-0.11891 0.0991,-0.25764 0.17836,-0.41618h0.95126c-0.11891,0.51527 -0.31709,1.2089 -0.59454,2.08088c-0.27745,0.87199 -0.47563,1.58544 -0.59454,2.14034c-0.15854,0.5549 -0.23782,1.03054 -0.23782,1.4269c0,0.07927 0.05945,0.11891 0.17836,0.11891c0.15854,0 0.33691,-0.09909 0.53509,-0.29727c0.19818,-0.19818 0.41617,-0.49546 0.65399,-0.89181c0.23782,-0.39635 0.45581,-0.7729 0.654,-1.12962c-0.19818,0.5549 -0.43601,1.05035 -0.71345,1.48635c-0.27745,0.47563 -0.53508,0.7729 -0.7729,0.89181c-0.19818,0.11891 -0.35672,0.17836 -0.47563,0.17836c-0.11891,0 -0.25763,-0.03964 -0.41618,-0.11891c-0.11891,-0.07927 -0.218,-0.17836 -0.29727,-0.29727c-0.07927,-0.11891 -0.11891,-0.218 -0.11891,-0.29727c-0.03963,-0.11891 -0.05946,-0.23781 -0.05946,-0.35672c0,-0.19818 0,-0.31709 0,-0.35673c0.03964,-0.03963 0.05946,-0.07926 0.05946,-0.1189c-0.35672,0.47563 -0.69362,0.87198 -1.01072,1.18908c-0.27745,0.31708 -0.654,0.47563 -1.12963,0.47563c-0.07927,0 -0.21799,-0.01982 -0.41617,-0.05946c-0.19819,-0.07927 -0.35672,-0.21799 -0.47563,-0.41617c-0.11891,-0.23782 -0.19817,-0.47563 -0.23782,-0.71345c-0.07927,-0.23782 -0.11891,-0.43599 -0.11891,-0.59454c0,-0.63417 0.17836,-1.24853 0.53508,-1.84307c0.31709,-0.63417 0.67381,-1.14944 1.07017,-1.5458c0.436,-0.39635 0.73327,-0.65399 0.89181,-0.7729c0.19819,-0.07927 0.436,-0.13873 0.71345,-0.17836c0.27744,0 0.49544,0.05945 0.65399,0.17836c0.19819,0.11891 0.35672,0.29727 0.47564,0.53509zM275.55342,179.04876c-0.51527,0.63417 -0.91163,1.38725 -1.18908,2.25924c-0.27745,0.83236 -0.41618,1.68453 -0.41618,2.55651c0,0.19818 0.03964,0.35673 0.11891,0.47564c0.07927,0.11891 0.19817,0.17836 0.35672,0.17836c0.03964,0 0.13873,-0.03964 0.29727,-0.11891c0.15854,-0.07927 0.35672,-0.25764 0.59454,-0.53509c0.27745,-0.23782 0.55491,-0.59454 0.83236,-1.07017c0.27744,-0.436 0.51526,-0.89181 0.71344,-1.36744c0.19818,-0.47563 0.29727,-0.91163 0.29727,-1.30799c0,-0.39635 -0.09909,-0.71345 -0.29727,-0.95127c-0.15854,-0.27745 -0.35672,-0.41618 -0.59454,-0.41618c-0.27744,0 -0.51526,0.09909 -0.71344,0.29727z" fill="#ffffff" stroke-width="1"/><path d="M218.56973,176.67976l-2.43761,0.71345c0.5549,-0.35673 1.10981,-0.73327 1.66471,-1.12963c0.5549,-0.436 0.81254,-0.69363 0.7729,-0.7729c0,0.07927 0,0.19819 0,0.35673c0.03964,0.11891 0.05945,0.23781 0.05945,0.35672c0,0.19818 -0.01981,0.35672 -0.05945,0.47563z" fill="#ffffff" stroke-width="1"/><path d="M199.58524,187.79348v-15.58696h80.82952v15.58696z" fill="none" stroke-width="0"/></g></g></svg>