<svg version="1.1" xmlns="http://www.w3.org/2000/svg" xmlns:xlink="http://www.w3.org/1999/xlink" width="26.625" height="33.125" viewBox="0,0,26.625,33.125"><g transform="translate(-226.6875,-163.43753)"><g data-paper-data="{&quot;isPaintingLayer&quot;:true}" fill-rule="nonzero" stroke-linecap="butt" stroke-linejoin="miter" stroke-miterlimit="10" stroke-dasharray="" stroke-dashoffset="0" style="mix-blend-mode: normal"><path d="M226.6875,196.56253v-33.125h26.625v33.125z" fill="none" stroke="#000000" stroke-width="0"/><path d="M227.58932,193.31772c0,-2.25074 0,-16.31081 0,-26.75056c0,-0.70529 1.15456,-1.80723 1.89353,-1.80723c8.23134,0 18.94208,0 21.09178,0c0.71657,0 1.83611,0.9451 1.83611,1.55001c0,10.48994 0,24.47785 0,26.87916c0,0.80044 -1.27638,2.05102 -2.09333,2.05102c-2.45085,0 -12.86044,0 -21.09178,0c-0.63859,0 -1.63631,-1.17217 -1.63631,-1.92242z" data-paper-data="{&quot;origPos&quot;:null}" fill="#ffffff" stroke="#000000" stroke-width="1.5"/><path d="M237.93163,180.82537h-6.33677v-1.65075h6.33677z" fill="#000000" stroke="none" stroke-width="1"/><path d="M242.15431,183.04858l1.28091,-1.28091c0.40989,0.40989 0.92226,0.76855 1.58835,0.76855c0.71732,0 1.1272,-0.30743 1.1272,-0.92227c0,-0.66608 -0.4099,-0.92225 -1.02473,-0.92225h-0.92226v-1.43463h0.87102c0.61484,0 1.07596,-0.30741 1.07596,-0.87103c0,-0.66609 -0.5636,-0.97349 -1.07596,-0.97349c-0.46113,0 -1.02474,0.30742 -1.43463,0.71731l-1.22968,-1.43463c0.46112,-0.46114 1.5371,-1.12721 2.66431,-1.12721c1.99823,0 3.12544,1.02474 3.12544,2.56184c0,0.87103 -0.61484,1.33216 -0.92227,1.58834c0.40989,0.25618 1.12721,0.92226 1.12721,1.99823c0,1.84452 -1.74205,2.71554 -3.38163,2.71554c-1.17845,0 -2.40812,-0.66607 -2.86925,-1.38339z" fill="#000000" stroke="none" stroke-width="1"/></g></g></svg>