<svg version="1.1" xmlns="http://www.w3.org/2000/svg" xmlns:xlink="http://www.w3.org/1999/xlink" width="27.45218" height="33.25" viewBox="0,0,27.45218,33.25"><g transform="translate(-226.27391,-163.375)"><g data-paper-data="{&quot;isPaintingLayer&quot;:true}" fill-rule="nonzero" stroke-linecap="butt" stroke-linejoin="miter" stroke-miterlimit="10" stroke-dasharray="" stroke-dashoffset="0" style="mix-blend-mode: normal"><path d="M226.27391,196.625v-33.25h27.45218v33.25z" fill="none" stroke="#000000" stroke-width="0"/><path d="M227.58929,193.34888c0,-2.25074 0,-16.31081 0,-26.75056c0,-0.70529 1.15456,-1.80723 1.89353,-1.80723c8.23134,0 18.94208,0 21.09178,0c0.71657,0 1.83611,0.9451 1.83611,1.55001c0,10.48994 0,24.47785 0,26.87916c0,0.80044 -1.27638,2.05102 -2.09333,2.05102c-2.45085,0 -12.86044,0 -21.09178,0c-0.63859,0 -1.63631,-1.17217 -1.63631,-1.92242z" data-paper-data="{&quot;origPos&quot;:null}" fill="#edb47e" stroke="#000000" stroke-width="1.5"/><path d="M227.58929,193.34888c0,-2.25074 0,-16.31081 0,-26.75056c0,-0.70529 1.15456,-1.80723 1.89353,-1.80723c8.23134,0 18.94208,0 21.09178,0c0.71657,0 1.83611,0.9451 1.83611,1.55001c0,10.48994 0,24.47785 0,26.87916c0,0.80044 -1.27638,2.05102 -2.09333,2.05102c-2.45085,0 -12.86044,0 -21.09178,0c-0.63859,0 -1.63631,-1.17217 -1.63631,-1.92242z" data-paper-data="{&quot;origPos&quot;:null}" fill="#edb47e" stroke="#000000" stroke-width="1.5"/><g data-paper-data="{&quot;origPos&quot;:null,&quot;index&quot;:null}" fill="#b0b0b0" stroke="#000000" stroke-width="0"><path d="M229.61011,177.6126l0.09628,-2.39373c0,0 1.82468,-1.65308 3.37896,-1.8058c2.13292,-0.20956 3.91744,1.87096 6.05701,1.86884c2.32957,-0.0023 2.79173,-1.97803 2.79173,-1.97803v1.07718c0,0 -0.83318,2.0715 -2.37625,2.0318c-2.61886,-0.06738 -3.43975,-1.59999 -6.02032,-1.0412c-1.37003,0.29667 -3.92742,2.24093 -3.92742,2.24093z" data-paper-data="{&quot;origPos&quot;:null}"/><path d="M229.74236,177.52316c0,0 1.9501,-2.39254 3.668,-2.6343c2.04626,-0.5589 2.94704,0.95376 5.76797,1.05893c0.68853,-0.03632 1.08702,-0.10622 1.71797,-0.4508c0.49469,-0.27017 1.07376,-1.04791 1.07376,-1.04791l0.0444,1.18756c0,0 -1.46324,1.58244 -3.0063,1.54274c-2.61886,-0.06738 -2.69139,-1.17974 -5.44956,-0.62095c-1.37003,0.29667 -3.96761,2.79882 -3.96761,2.79882v0z" data-paper-data="{&quot;origPos&quot;:null}"/><path d="M229.70639,179.15526c0,0 2.43263,-2.81315 3.93468,-3.05491c3.09731,-0.59314 3.20388,0.69873 5.39563,0.58312c2.19175,-0.1156 2.96762,-1.28471 2.96762,-1.28471l0.04355,1.00014c0,0 -1.57703,1.97163 -3.1201,1.93192c-0.05489,-0.00141 -3.2966,-0.92113 -5.3332,-0.51337c-1.25292,0.25085 -3.91661,3.29045 -3.91661,3.29045z" data-paper-data="{&quot;origPos&quot;:null}"/><path d="M229.75672,180.93837c0,0 2.52619,-3.47828 4.24409,-3.72004c1.91556,-0.47811 2.95975,0.11801 4.892,0.27008c1.30462,0.10267 3.1492,-1.36455 3.1492,-1.36455l0.0444,1.03527c0,0 -1.65154,1.39028 -3.1946,1.35057c-2.61886,-0.06738 -3.53243,-0.21603 -4.93749,0.42572c-1.17261,0.53558 -4.29627,4.34547 -4.29627,4.34547z" data-paper-data="{&quot;origPos&quot;:null}"/><path d="M229.75879,183.04871c0,0 3.0997,-4.47064 4.8176,-4.71241c1.19256,-0.30646 2.67469,0.0057 4.42433,-0.08767c1.59404,-0.09464 3.07725,-1.45399 3.07725,-1.45399l0.04441,0.72223c0,0 -1.75946,2.01635 -3.30253,1.97664c-0.04106,-0.00106 -2.66633,-0.25471 -4.25399,0.47044c-1.17261,0.53558 -4.80982,4.92659 -4.80982,4.92659z" data-paper-data="{&quot;origPos&quot;:null}"/><path d="M229.73926,186.74742l0.0699,-2.04946c0,0 1.79882,-2.43813 2.88833,-3.6062c0.67153,-0.71996 1.027,-1.20569 1.84293,-1.63749c1.51362,-0.50614 2.65698,-0.38055 4.20849,-0.44542c1.77264,-0.07412 3.36505,-1.40927 3.36505,-1.40927l0.0444,0.81167c0,0 -1.90336,2.01634 -3.44642,1.97664c-2.61886,-0.06738 -2.59711,0.05229 -4.00217,0.69404c-1.17261,0.53558 -4.97052,5.66549 -4.97052,5.66549z" data-paper-data="{&quot;origPos&quot;:null}"/><path d="M229.79818,186.66391c0,0 2.91891,-4.4541 5.16351,-5.98645c1.18189,-0.7481 2.51384,-0.55102 3.98143,-0.90693c1.42226,-0.34491 3.13568,-1.43237 3.13568,-1.43237v-0.04472l0.0444,0.67751c0,0 -1.92154,1.54937 -3.37447,1.84248c-1.48781,0.30015 -2.4561,1.01314 -3.38308,1.63912c-0.66427,0.44857 -5.44302,6.4691 -5.73286,6.97295c0.07675,-1.75913 0.16539,-2.7616 0.16539,-2.7616z" data-paper-data="{&quot;origPos&quot;:null}"/></g><path d="M246.50387,176.38338l0.60683,-0.13873l1.83768,9.99726l-0.60683,0.13872z" data-paper-data="{&quot;origPos&quot;:null,&quot;origRot&quot;:0}" fill="#4b4b4b" stroke="#acacac" stroke-width="0.5"/><path d="M245.00591,174.51462c0.2045,-0.79931 1.01824,-1.2815 1.81754,-1.077c0.79931,0.2045 1.2815,1.01824 1.077,1.81755c-0.2045,0.79931 -1.01824,1.2815 -1.81755,1.07701c-0.79931,-0.2045 -1.2815,-1.01825 -1.077,-1.81755z" data-paper-data="{&quot;origPos&quot;:null,&quot;origRot&quot;:0}" fill="#acacac" stroke="#acacac" stroke-width="1"/></g></g></svg>