<svg version="1.1" xmlns="http://www.w3.org/2000/svg" xmlns:xlink="http://www.w3.org/1999/xlink" width="27" height="32" viewBox="0,0,27,32"><g transform="translate(-226.5,-164)"><g data-paper-data="{&quot;isPaintingLayer&quot;:true}" fill-rule="nonzero" stroke="none" stroke-linecap="butt" stroke-linejoin="miter" stroke-miterlimit="10" stroke-dasharray="" stroke-dashoffset="0" style="mix-blend-mode: normal"><path d="M226.5,196v-32h27v32z" fill="none" stroke-width="0"/><path d="" fill="#29200e" stroke-width="1"/><path d="M240.14285,170.71429c4,0 7.71429,3.71428 9,8.71428c-1.28571,6.28572 -5.85715,9.85714 -9,9.85714c-4,0 -7.85715,-3.71428 -9.28571,-8.85714c1.42857,-6.14285 6.14286,-9.71428 9.28571,-9.71428zM237.42856,180c0,3.14285 1.00001,6.71429 2.71429,7.71429c1.71429,-1 2.57143,-4.57144 2.57143,-7.71429c0,-3.28571 -0.85714,-6.85714 -2.57143,-7.71429c-1.71428,0.85715 -2.71429,4.42857 -2.71429,7.71429z" fill="#ff0000" stroke-width="1"/></g></g></svg>