<svg version="1.1" xmlns="http://www.w3.org/2000/svg" xmlns:xlink="http://www.w3.org/1999/xlink" width="26.625" height="33.125" viewBox="0,0,26.625,33.125"><g transform="translate(-226.6875,-163.43753)"><g data-paper-data="{&quot;isPaintingLayer&quot;:true}" fill-rule="nonzero" stroke-linecap="butt" stroke-linejoin="miter" stroke-miterlimit="10" stroke-dasharray="" stroke-dashoffset="0" style="mix-blend-mode: normal"><path d="M226.6875,196.56253v-33.125h26.625v33.125z" fill="none" stroke="#000000" stroke-width="0"/><path d="M227.58929,193.31772c0,-2.25074 0,-16.31081 0,-26.75056c0,-0.70529 1.15456,-1.80723 1.89353,-1.80723c8.23134,0 18.94208,0 21.09178,0c0.71657,0 1.83611,0.9451 1.83611,1.55001c0,10.48994 0,24.47785 0,26.87916c0,0.80044 -1.27638,2.05102 -2.09333,2.05102c-2.45085,0 -12.86044,0 -21.09178,0c-0.63859,0 -1.63631,-1.17217 -1.63631,-1.92242z" data-paper-data="{&quot;origPos&quot;:null}" fill="#ffffff" stroke="#000000" stroke-width="1.5"/><path d="M241.23212,182.89487l1.33215,-1.3834c0.51236,0.46114 1.02473,0.87103 1.74204,0.87103c0.81979,0 1.33216,-0.51236 1.33216,-1.22968c0,-0.61484 -0.51237,-1.17844 -1.22968,-1.17844c-0.5636,0 -0.92226,0.30741 -1.17844,0.5636l-1.5371,-0.71731l0.71732,-4.20141h4.86749v1.84452h-3.27915l-0.20495,1.17844c0.25618,-0.15371 0.71731,-0.30742 1.33215,-0.30742c1.43464,0 2.86926,1.02473 2.86926,2.92049c0,2.04946 -1.89576,3.12545 -3.68905,3.12545c-1.22968,0 -2.56184,-0.71732 -3.0742,-1.48587z" fill="#000000" stroke="none" stroke-width="1"/><path d="M238.26046,180.81347h-2.34301v2.34301h-1.65076v-2.34301h-2.34301v-1.65075h2.34301v-2.34301h1.65076v2.34301h2.34301z" fill="#000000" stroke="none" stroke-width="1"/></g></g></svg>