<svg version="1.1" xmlns="http://www.w3.org/2000/svg" xmlns:xlink="http://www.w3.org/1999/xlink" width="26.625" height="33.125" viewBox="0,0,26.625,33.125"><g transform="translate(-226.6875,-163.43753)"><g data-paper-data="{&quot;isPaintingLayer&quot;:true}" fill-rule="nonzero" stroke-linecap="butt" stroke-linejoin="miter" stroke-miterlimit="10" stroke-dasharray="" stroke-dashoffset="0" style="mix-blend-mode: normal"><path d="M226.6875,196.56253v-33.125h26.625v33.125z" fill="none" stroke="#000000" stroke-width="0"/><path d="M227.58931,193.31772c0,-2.25074 0,-16.31081 0,-26.75056c0,-0.70529 1.15456,-1.80723 1.89353,-1.80723c8.23134,0 18.94208,0 21.09178,0c0.71657,0 1.83611,0.9451 1.83611,1.55001c0,10.48994 0,24.47785 0,26.87916c0,0.80044 -1.27638,2.05102 -2.09333,2.05102c-2.45085,0 -12.86044,0 -21.09178,0c-0.63859,0 -1.63631,-1.17217 -1.63631,-1.92242z" data-paper-data="{&quot;origPos&quot;:null}" fill="#ffffff" stroke="#000000" stroke-width="1.5"/><path d="M238.09043,180.99204h-6.33677v-1.65075h6.33677z" fill="#000000" stroke="none" stroke-width="1"/><path d="M247.00374,178.12919c-0.40989,-0.20494 -1.02474,-0.61484 -1.79329,-0.61484c-0.92227,0.05123 -1.48586,0.76855 -1.63957,1.69081c0.35866,-0.30741 0.97349,-0.61484 1.63957,-0.61484c1.58834,-0.10247 2.86925,1.02474 2.86925,2.71555c0,1.63958 -1.17844,3.07421 -3.17668,3.12544c-1.99823,0.05123 -3.53533,-1.38339 -3.58656,-3.84275c-0.05124,-1.63958 0.35865,-4.91872 3.6378,-5.0212c0.81979,0 2.15195,0.35866 2.86926,0.9735zM243.62213,181.04968c0,0.61484 0.35864,1.43463 1.12721,1.43463c0.61484,0 1.12721,-0.46113 1.12721,-1.02473c0,-0.51236 -0.25618,-1.12721 -1.02473,-1.12721c-0.5636,0.05123 -1.07597,0.46112 -1.22968,0.71731z" fill="#000000" stroke="none" stroke-width="1"/></g></g></svg>