<svg version="1.1" xmlns="http://www.w3.org/2000/svg" xmlns:xlink="http://www.w3.org/1999/xlink" width="26.43677" height="122.78603" viewBox="0,0,26.43677,122.78603"><g transform="translate(-226.94991,-118.60699)"><g data-paper-data="{&quot;isPaintingLayer&quot;:true}" fill-rule="nonzero" stroke-linecap="butt" stroke-linejoin="miter" stroke-miterlimit="10" stroke-dasharray="" stroke-dashoffset="0" style="mix-blend-mode: normal"><path d="M226.94991,238.94566c0,-2.8653 0,-71.34793 0,-117.01422c0,-1.2974 1.2268,-3.32445 2.01202,-3.32445c8.63819,0 19.84667,0 22.13427,0c0.76253,0 1.95389,2.01808 1.95389,2.95706c0,45.52293 0,113.28865 0,117.01424c0,1.24187 -0.90067,2.81473 -1.71066,2.81473c-2.42999,0 -14.15755,0 -22.98558,0c-0.5479,0 -1.40393,-1.4922 -1.40393,-2.44733z" data-paper-data="{&quot;origPos&quot;:null}" fill-opacity="0.87311" fill="#ffffff" stroke="#001026" stroke-width="0"/><text transform="translate(227.75589,163.1905) scale(0.47234,0.5063)" font-size="40" xml:space="preserve" fill="#000000" fill-rule="nonzero" stroke="#000000" stroke-width="2" stroke-linecap="butt" stroke-linejoin="miter" stroke-miterlimit="10" stroke-dasharray="" stroke-dashoffset="0" font-family="Sans Serif" font-weight="normal" text-anchor="start" style="mix-blend-mode: normal"><tspan x="0" dy="0">Si</tspan></text><text transform="translate(244.02621,163.30355) scale(0.45453,0.45453)" font-size="40" xml:space="preserve" fill="#000000" fill-rule="nonzero" stroke="#000000" stroke-width="3" stroke-linecap="butt" stroke-linejoin="miter" stroke-miterlimit="10" stroke-dasharray="" stroke-dashoffset="0" font-family="Handwriting" font-weight="normal" text-anchor="start" style="mix-blend-mode: normal"><tspan x="0" dy="0">b</tspan></text></g></g></svg>