<svg version="1.1" xmlns="http://www.w3.org/2000/svg" xmlns:xlink="http://www.w3.org/1999/xlink" width="863.98491" height="465" viewBox="0,0,863.98491,465"><g transform="translate(191.99243,52.5)"><g data-paper-data="{&quot;isPaintingLayer&quot;:true}" fill-rule="nonzero" stroke-linecap="butt" stroke-linejoin="miter" stroke-miterlimit="10" stroke-dasharray="" stroke-dashoffset="0" style="mix-blend-mode: normal"><path d="M-191.99243,412.5v-465h863.98491v465z" fill="none" stroke="#000000" stroke-width="0"/><path d="M-155.99999,0h792v344.98498h-792z" fill="#ffffff" stroke="#000000" stroke-width="0"/><path d="M-56.40099,223.152c-2.296,0.41 -4.756,0.656 -7.38,0.738c-2.542,0.082 -5.043,0 -7.503,-0.246c-2.46,-0.164 -4.756,-0.451 -6.888,-0.861c-2.05,-0.328 -3.731,-0.82 -5.043,-1.476c-6.314,-3.034 -11.439,-6.273 -15.375,-9.717c-3.854,-3.362 -6.847,-6.888 -8.979,-10.578c-2.132,-3.69 -3.649,-7.462 -4.551,-11.316c-0.82,-3.936 -1.353,-7.872 -1.599,-11.808c-0.328,-4.264 0.041,-8.528 1.107,-12.792c1.148,-4.264 2.665,-8.323 4.551,-12.177c1.968,-3.936 4.182,-7.544 6.642,-10.824c2.542,-3.28 5.084,-6.15 7.626,-8.61c2.952,-2.788 6.027,-5.535 9.225,-8.241c3.28,-2.788 6.847,-5.617 10.701,-8.487c-0.082,-1.066 -0.205,-2.009 -0.369,-2.829c-0.082,-0.82 -0.205,-1.64 -0.369,-2.46c-0.164,-0.902 -0.369,-1.886 -0.615,-2.952c-0.164,-1.066 -0.287,-2.378 -0.369,-3.936c0,-0.656 -0.082,-1.845 -0.246,-3.567c-0.164,-1.804 -0.287,-3.936 -0.369,-6.396c0,-2.542 0.082,-5.412 0.246,-8.61c0.164,-3.198 0.574,-6.519 1.23,-9.963c0.41,-2.05 1.271,-4.633 2.583,-7.749c1.394,-3.198 2.993,-6.273 4.797,-9.225c1.886,-2.952 3.854,-5.494 5.904,-7.626c2.05,-2.132 3.977,-3.198 5.781,-3.198c0.902,0 1.886,0.574 2.952,1.722c1.066,1.066 2.091,2.542 3.075,4.428c1.066,1.804 2.091,3.895 3.075,6.273c0.984,2.296 1.845,4.674 2.583,7.134c0.738,2.46 1.312,4.879 1.722,7.257c0.492,2.378 0.779,4.469 0.861,6.273c0.082,4.264 -0.082,8.036 -0.492,11.316c-0.41,3.198 -1.025,6.109 -1.845,8.733c-0.82,2.542 -1.804,4.92 -2.952,7.134c-1.066,2.132 -2.214,4.305 -3.444,6.519c-1.312,2.214 -2.665,4.182 -4.059,5.904c-1.312,1.64 -2.665,3.321 -4.059,5.043c-1.476,1.804 -3.034,3.321 -4.674,4.551c-1.558,1.148 -3.116,2.419 -4.674,3.813c0.738,4.182 1.394,7.954 1.968,11.316c0.246,1.476 0.492,2.911 0.738,4.305c0.246,1.394 0.451,2.706 0.615,3.936c0.164,1.148 0.328,2.132 0.492,2.952c0.164,0.738 0.246,1.189 0.246,1.353c1.968,-0.246 3.977,-0.246 6.027,0c2.132,0.164 4.141,0.451 6.027,0.861c1.968,0.41 3.69,0.943 5.166,1.599c1.558,0.656 2.788,1.271 3.69,1.845c4.428,3.28 7.544,7.052 9.348,11.316c1.886,4.182 2.993,8.487 3.321,12.915c0.246,3.444 -0.041,6.888 -0.861,10.332c-0.82,3.526 -2.214,6.847 -4.182,9.963c-1.886,3.198 -4.387,6.109 -7.503,8.733c-3.034,2.624 -6.642,4.797 -10.824,6.519c0.492,3.362 0.943,6.478 1.353,9.348c0.41,2.46 0.779,4.838 1.107,7.134c0.328,2.378 0.574,4.018 0.738,4.92c0.738,4.92 1.025,8.938 0.861,12.054c-0.164,3.198 -0.779,5.781 -1.845,7.749c-0.902,1.64 -1.968,3.239 -3.198,4.797c-1.148,1.558 -2.542,2.952 -4.182,4.182c-1.64,1.23 -3.567,2.255 -5.781,3.075c-2.132,0.82 -4.592,1.312 -7.38,1.476c-2.132,0.164 -4.674,-0.041 -7.626,-0.615c-2.952,-0.492 -5.781,-1.435 -8.487,-2.829c-2.706,-1.312 -5.043,-3.116 -7.011,-5.412c-1.968,-2.296 -3.075,-5.125 -3.321,-8.487c-0.164,-1.968 -0.041,-3.977 0.369,-6.027c0.41,-1.968 1.107,-3.772 2.091,-5.412c1.066,-1.558 2.419,-2.87 4.059,-3.936c1.722,-1.066 3.813,-1.681 6.273,-1.845c1.476,-0.082 2.952,0.123 4.428,0.615c1.558,0.574 2.993,1.353 4.305,2.337c1.312,0.984 2.378,2.214 3.198,3.69c0.82,1.476 1.312,3.075 1.476,4.797c0.246,3.034 -0.697,5.945 -2.829,8.733c-2.132,2.87 -5.74,5.002 -10.824,6.396c0.82,1.148 2.378,2.214 4.674,3.198c2.296,1.066 5.166,1.599 8.61,1.599c3.608,0 7.052,-1.066 10.332,-3.198c3.362,-2.132 5.945,-4.797 7.749,-7.995c1.148,-2.132 1.722,-4.92 1.722,-8.364c0,-3.362 -0.205,-6.765 -0.615,-10.209c-0.164,-0.574 -0.41,-2.009 -0.738,-4.305c-0.328,-2.214 -0.697,-4.551 -1.107,-7.011c-0.41,-2.87 -0.902,-6.068 -1.476,-9.594zM-53.81798,67.311c-3.198,0 -6.027,1.517 -8.487,4.551c-2.378,2.952 -4.346,6.724 -5.904,11.316c-1.476,4.592 -2.46,9.635 -2.952,15.129c-0.492,5.494 -0.369,10.783 0.369,15.867c2.706,-2.05 5.535,-4.51 8.487,-7.38c2.952,-2.952 5.617,-6.068 7.995,-9.348c2.46,-3.28 4.428,-6.601 5.904,-9.963c1.558,-3.362 2.214,-6.56 1.968,-9.594c-0.082,-0.984 -0.246,-2.091 -0.492,-3.321c-0.246,-1.23 -0.656,-2.378 -1.23,-3.444c-0.574,-1.066 -1.312,-1.968 -2.214,-2.706c-0.902,-0.738 -2.05,-1.107 -3.444,-1.107zM-54.06399,218.109c3.526,-1.23 6.273,-2.829 8.241,-4.797c1.968,-1.968 3.403,-4.1 4.305,-6.396c0.984,-2.296 1.517,-4.592 1.599,-6.888c0.164,-2.296 0.205,-4.346 0.123,-6.15c-0.164,-1.476 -0.533,-3.321 -1.107,-5.535c-0.492,-2.214 -1.476,-4.346 -2.952,-6.396c-1.476,-2.05 -3.567,-3.731 -6.273,-5.043c-2.706,-1.394 -6.314,-1.968 -10.824,-1.722zM-64.14999,175.428c-3.362,0.164 -6.15,0.861 -8.364,2.091c-2.132,1.148 -3.854,2.583 -5.166,4.305c-1.23,1.64 -2.091,3.403 -2.583,5.289c-0.41,1.886 -0.574,3.567 -0.492,5.043c0.082,1.476 0.41,2.993 0.984,4.551c0.574,1.558 1.312,2.993 2.214,4.305c0.984,1.394 2.009,2.624 3.075,3.69c1.148,1.148 2.296,2.009 3.444,2.583c-0.164,0.164 -0.328,0.287 -0.492,0.369c-0.082,0.164 -0.205,0.328 -0.369,0.492c-0.164,0.164 -0.287,0.328 -0.369,0.492c-2.542,-1.23 -4.797,-2.706 -6.765,-4.428c-1.886,-1.64 -3.116,-2.829 -3.69,-3.567c-0.902,-1.23 -1.681,-2.337 -2.337,-3.321c-0.656,-0.984 -1.189,-2.05 -1.599,-3.198c-0.41,-1.066 -0.779,-2.255 -1.107,-3.567c-0.246,-1.312 -0.41,-2.87 -0.492,-4.674c-0.164,-1.722 -0.041,-3.526 0.369,-5.412c0.41,-1.968 1.066,-3.936 1.968,-5.904c0.984,-1.968 2.214,-3.854 3.69,-5.658c1.558,-1.886 3.362,-3.649 5.412,-5.289c1.066,-0.82 2.009,-1.476 2.829,-1.968c0.902,-0.492 1.722,-0.902 2.46,-1.23c0.738,-0.41 1.476,-0.697 2.214,-0.861c0.82,-0.246 1.681,-0.492 2.583,-0.738l-3.69,-22.263c-0.984,0.574 -2.583,1.722 -4.797,3.444c-2.214,1.722 -4.633,3.772 -7.257,6.15c-2.624,2.378 -5.248,4.961 -7.872,7.749c-2.542,2.706 -4.633,5.33 -6.273,7.872c-2.952,4.674 -5.248,8.979 -6.888,12.915c-1.64,3.936 -2.255,8.2 -1.845,12.792c0.328,5.166 1.886,9.963 4.674,14.391c2.87,4.51 6.519,8.282 10.947,11.316c4.428,3.034 9.471,5.125 15.129,6.273c5.658,1.23 11.521,1.107 17.589,-0.369c-1.312,-8.118 -2.501,-15.375 -3.567,-21.771c-0.492,-2.706 -0.943,-5.371 -1.353,-7.995c-0.41,-2.624 -0.82,-4.961 -1.23,-7.011c-0.328,-2.05 -0.574,-3.69 -0.738,-4.92c-0.164,-1.312 -0.246,-1.968 -0.246,-1.968z" fill="#000000" stroke="none" stroke-width="1"/><path d="M170.29201,99.906h-293.83399" fill="none" stroke="#000000" stroke-width="2.302"/><path d="M-123.54199,130.65601h293.83399" fill="none" stroke="#000000" stroke-width="2.302"/><path d="M170.29201,161.40601h-293.83399" fill="none" stroke="#000000" stroke-width="2.302"/><path d="M170.29201,192.15601h-293.83399" fill="none" stroke="#000000" stroke-width="2.302"/><path d="M-123.54199,222.90601h293.83399" fill="none" stroke="#000000" stroke-width="2.302"/><path d="M23.37501,176.412c-0.164,-2.132 0.328,-4.141 1.476,-6.027c1.23,-1.968 2.952,-3.69 5.166,-5.166c2.214,-1.476 4.797,-2.665 7.749,-3.567c3.034,-0.902 6.273,-1.353 9.717,-1.353c3.444,0 6.765,0.328 9.963,0.984c3.198,0.656 6.027,1.681 8.487,3.075c2.542,1.394 4.633,3.157 6.273,5.289c1.64,2.05 2.583,4.51 2.829,7.38c0.164,2.132 -0.369,4.141 -1.599,6.027c-1.148,1.968 -2.829,3.69 -5.043,5.166c-2.132,1.476 -4.715,2.624 -7.749,3.444c-2.952,0.902 -6.15,1.353 -9.594,1.353c-3.444,0 -6.765,-0.328 -9.963,-0.984c-3.198,-0.656 -6.068,-1.681 -8.61,-3.075c-2.542,-1.312 -4.633,-3.034 -6.273,-5.166c-1.64,-2.05 -2.583,-4.51 -2.829,-7.38zM38.75001,174.075c0.328,2.214 0.738,4.305 1.23,6.273c0.574,1.968 1.312,3.69 2.214,5.166c0.984,1.476 2.132,2.624 3.444,3.444c1.394,0.82 3.116,1.23 5.166,1.23c1.476,0 2.788,-0.328 3.936,-0.984c1.23,-0.656 2.255,-1.476 3.075,-2.46c0.82,-0.984 1.394,-2.091 1.722,-3.321c0.41,-1.148 0.533,-2.296 0.369,-3.444c-0.328,-2.214 -0.779,-4.305 -1.353,-6.273c-0.574,-1.968 -1.353,-3.69 -2.337,-5.166c-0.984,-1.476 -2.214,-2.624 -3.69,-3.444c-1.394,-0.902 -3.116,-1.353 -5.166,-1.353c-1.476,0 -2.788,0.328 -3.936,0.984c-1.148,0.656 -2.091,1.476 -2.829,2.46c-0.738,0.984 -1.271,2.091 -1.599,3.321c-0.328,1.23 -0.41,2.419 -0.246,3.567z" fill="#000000" stroke="none" stroke-width="1"/><path d="M-9.30199,133.239v21.771v7.872c1.148,-1.066 2.214,-1.927 3.198,-2.583c0.984,-0.656 1.927,-1.148 2.829,-1.476c0.902,-0.41 1.845,-0.697 2.829,-0.861c1.066,-0.164 2.255,-0.246 3.567,-0.246c1.558,0 2.952,0.328 4.182,0.984c1.23,0.656 2.296,1.517 3.198,2.583c0.902,1.066 1.599,2.255 2.091,3.567c0.492,1.312 0.738,2.583 0.738,3.813c0.082,1.312 -0.041,2.624 -0.369,3.936c-0.328,1.23 -0.738,2.378 -1.23,3.444c-0.574,1.394 -1.476,2.624 -2.706,3.69c-1.23,1.066 -2.337,2.091 -3.321,3.075c-0.328,0.328 -1.025,0.902 -2.091,1.722c-1.066,0.82 -2.296,1.722 -3.69,2.706c-1.312,0.984 -2.706,1.968 -4.182,2.952c-1.476,1.066 -2.829,2.009 -4.059,2.829c-1.23,0.902 -2.255,1.64 -3.075,2.214c-0.738,0.656 -1.107,0.984 -1.107,0.984v-72.693h3.198zM0.66101,165.588c-0.41,-0.492 -0.984,-0.902 -1.722,-1.23c-0.656,-0.328 -1.394,-0.492 -2.214,-0.492c-0.82,0 -1.64,0.246 -2.46,0.738c-0.82,0.492 -1.558,1.353 -2.214,2.583c-0.82,1.558 -1.271,3.526 -1.353,5.904c0,2.296 0,4.387 0,6.273v10.578c0,0 0.246,-0.205 0.738,-0.615c0.492,-0.328 1.066,-0.82 1.722,-1.476c0.738,-0.574 1.476,-1.23 2.214,-1.968c0.82,-0.738 1.558,-1.394 2.214,-1.968c1.148,-1.066 2.132,-2.214 2.952,-3.444c0.82,-1.23 1.435,-2.788 1.845,-4.674c0.492,-1.886 0.615,-3.731 0.369,-5.535c-0.246,-1.804 -0.943,-3.362 -2.091,-4.674z" fill="#000000" stroke="none" stroke-width="1"/><g fill="#000000" stroke="none" stroke-width="1"><path d="M319.73438,193.74255l3.46838,0.73572l-12.19189,38.67773h-110.35767v-3.88879h5.36023c6.02588,0 10.33508,-1.96191 12.92761,-5.88574c1.47144,-2.24219 2.20715,-7.42725 2.20715,-15.55518v-91.96472c0,-8.89869 -0.98096,-14.46912 -2.94287,-16.71131c-2.73267,-3.08301 -6.79663,-4.62451 -12.19189,-4.62451h-5.36023v-3.88879h64.53296v3.88879c-7.56738,-0.07007 -12.89258,0.63062 -15.97559,2.10205c-3.01294,1.47144 -5.07996,3.32825 -6.20105,5.57044c-1.12109,2.24219 -1.68164,7.60241 -1.68164,16.08068v89.54737c0,5.81567 0.56055,9.80957 1.68164,11.98169c0.84082,1.47144 2.13709,2.55749 3.88879,3.25818c1.75171,0.70068 7.21704,1.05103 16.396,1.05103h10.40515c10.93066,0 18.60315,-0.80579 23.01745,-2.41736c4.41431,-1.61157 8.44324,-4.44934 12.0868,-8.51331c3.64355,-4.13403 7.28711,-10.61536 10.93066,-19.44397z"/><path d="M389.20718,219.28247c-9.87964,7.63745 -16.08069,12.05176 -18.60315,13.24292c-3.78369,1.75171 -7.81262,2.62756 -12.08679,2.62756c-6.65649,0 -12.15686,-2.27722 -16.5011,-6.83166c-4.27417,-4.55444 -6.41126,-10.54529 -6.41126,-17.97253c0,-4.69458 1.05103,-8.75854 3.15308,-12.19189c2.8728,-4.76465 7.84765,-9.24902 14.92456,-13.45312c7.14697,-4.2041 18.98853,-9.31909 35.52466,-15.34497v-3.78369c0,-9.59936 -1.5415,-16.18579 -4.62451,-19.75928c-3.01294,-3.57349 -7.42725,-5.36023 -13.24292,-5.36023c-4.41431,0 -7.91773,1.19116 -10.51026,3.57349c-2.66259,2.38232 -3.99389,5.11499 -3.99389,8.198l0.2102,6.09595c0,3.22314 -0.84082,5.71057 -2.52246,7.46228c-1.61157,1.75171 -3.74866,2.62756 -6.41125,2.62756c-2.59253,0 -4.72962,-0.91089 -6.41126,-2.73267c-1.61157,-1.82178 -2.41736,-4.3092 -2.41736,-7.46228c0,-6.02588 3.08301,-11.56128 9.24903,-16.6062c6.16601,-5.04492 14.81945,-7.56738 25.96032,-7.56738c8.54834,0 15.55518,1.4364 21.02051,4.3092c4.13403,2.17212 7.18201,5.57043 9.14392,10.19495c1.26123,3.01294 1.89185,9.17896 1.89185,18.49805v32.68689c0,9.17895 0.17517,14.81946 0.52551,16.92151c0.35034,2.03198 0.91089,3.39832 1.68164,4.099c0.84082,0.70068 1.78674,1.05103 2.83777,1.05103c1.12109,0 2.10205,-0.24524 2.94287,-0.73572c1.47143,-0.91089 4.3092,-3.46838 8.51331,-7.67248v5.88574c-7.84766,10.51025 -15.34498,15.76538 -22.49195,15.76538c-3.43335,0 -6.16601,-1.19116 -8.19799,-3.57349c-2.03199,-2.38232 -3.08301,-6.44629 -3.15308,-12.19189zM389.20718,212.4508v-36.68079c-10.58032,4.2041 -17.41199,7.18201 -20.495,8.93372c-5.5354,3.08301 -9.49426,6.30615 -11.87658,9.66943c-2.38233,3.36328 -3.57349,7.04187 -3.57349,11.03577c0,5.04492 1.50647,9.24902 4.51941,12.6123c3.01294,3.29321 6.48132,4.93982 10.40515,4.93982c5.32519,0 12.33203,-3.50342 21.02051,-10.51025z"/></g><path d="M441.87452,116.0575v38.09925v13.776c2.009,-1.8655 3.8745,-3.37225 5.5965,-4.52025c1.722,-1.148 3.37225,-2.009 4.95075,-2.583c1.5785,-0.7175 3.22875,-1.21975 4.95075,-1.50675c1.8655,-0.287 3.94625,-0.4305 6.24225,-0.4305c2.7265,0 5.166,0.574 7.3185,1.722c2.1525,1.148 4.018,2.65475 5.5965,4.52025c1.5785,1.8655 2.79825,3.94625 3.65925,6.24225c0.861,2.296 1.2915,4.52025 1.2915,6.67275c0.1435,2.296 -0.07175,4.592 -0.64575,6.888c-0.574,2.1525 -1.2915,4.1615 -2.1525,6.027c-1.0045,2.4395 -2.583,4.592 -4.7355,6.4575c-2.1525,1.8655 -4.08975,3.65925 -5.81175,5.38125c-0.574,0.574 -1.79375,1.5785 -3.65925,3.0135c-1.8655,1.435 -4.018,3.0135 -6.4575,4.7355c-2.296,1.722 -4.7355,3.444 -7.3185,5.166c-2.583,1.8655 -4.95075,3.51575 -7.10325,4.95075c-2.1525,1.5785 -3.94625,2.87 -5.38125,3.8745c-1.2915,1.148 -1.93725,1.722 -1.93725,1.722v-127.21275h5.5965zM459.30977,172.66825c-0.7175,-0.861 -1.722,-1.5785 -3.0135,-2.1525c-1.148,-0.574 -2.4395,-0.861 -3.8745,-0.861c-1.435,0 -2.87,0.4305 -4.305,1.2915c-1.435,0.861 -2.7265,2.36775 -3.8745,4.52025c-1.435,2.7265 -2.22425,6.1705 -2.36775,10.332c0,4.018 0,7.67725 0,10.97775v18.5115c0,0 0.4305,-0.35875 1.2915,-1.07625c0.861,-0.574 1.8655,-1.435 3.0135,-2.583c1.2915,-1.0045 2.583,-2.1525 3.8745,-3.444c1.435,-1.2915 2.7265,-2.4395 3.8745,-3.444c2.009,-1.8655 3.731,-3.8745 5.166,-6.027c1.435,-2.1525 2.51125,-4.879 3.22875,-8.1795c0.861,-3.3005 1.07625,-6.52925 0.64575,-9.68625c-0.4305,-3.157 -1.65025,-5.8835 -3.65925,-8.1795z" fill="#000000" stroke="none" stroke-width="1"/></g></g></svg>