<svg version="1.1" xmlns="http://www.w3.org/2000/svg" xmlns:xlink="http://www.w3.org/1999/xlink" width="26.54665" height="118.69317" viewBox="0,0,26.54665,118.69317"><g transform="translate(-226.94991,-120.65343)"><g data-paper-data="{&quot;isPaintingLayer&quot;:true}" fill-rule="nonzero" stroke-linecap="butt" stroke-linejoin="miter" stroke-miterlimit="10" stroke-dasharray="" stroke-dashoffset="0" style="mix-blend-mode: normal"><path d="M226.94991,236.98081c0,-2.76979 0,-68.96967 0,-113.11375c0,-1.25415 1.2268,-3.21363 2.01202,-3.21363c8.63819,0 19.84667,0 22.13427,0c0.76253,0 1.95389,1.95082 1.95389,2.8585c0,44.0055 0,109.51236 0,113.11376c0,1.20048 -0.90067,2.72091 -1.71066,2.72091c-2.42999,0 -14.15755,0 -22.98558,0c-0.5479,0 -1.40393,-1.44246 -1.40393,-2.36576z" data-paper-data="{&quot;origPos&quot;:null}" fill-opacity="0.55053" fill="#ffffff" stroke="#001026" stroke-width="0"/><g fill="#000000" stroke="#000000" font-weight="normal" font-size="40" text-anchor="start"><text transform="translate(227.49801,162.40353) scale(0.3591,0.44072)" font-size="40" xml:space="preserve" data-paper-data="{&quot;origPos&quot;:null}" fill="#000000" fill-rule="nonzero" stroke="#000000" stroke-width="2" stroke-linecap="butt" stroke-linejoin="miter" stroke-miterlimit="10" stroke-dasharray="" stroke-dashoffset="0" font-family="Sans Serif" font-weight="normal" text-anchor="start" style="mix-blend-mode: normal"><tspan x="0" dy="0">Re</tspan></text><text transform="translate(245.34864,162.49692) scale(0.39565,0.39565)" font-size="40" xml:space="preserve" data-paper-data="{&quot;origPos&quot;:null}" fill="#000000" fill-rule="nonzero" stroke="#000000" stroke-width="3" stroke-linecap="butt" stroke-linejoin="miter" stroke-miterlimit="10" stroke-dasharray="" stroke-dashoffset="0" font-family="Handwriting" font-weight="normal" text-anchor="start" style="mix-blend-mode: normal"><tspan x="0" dy="0">b</tspan></text></g></g></g></svg>