<svg version="1.1" xmlns="http://www.w3.org/2000/svg" xmlns:xlink="http://www.w3.org/1999/xlink" width="655.50147" height="369.44324" viewBox="0,0,655.50147,369.44324"><defs><radialGradient cx="317.10537" cy="64.67003" r="1.35094" fx="317.10537" fy="64.67003" gradientUnits="userSpaceOnUse" id="color-1"><stop offset="0" stop-color="#ebc8a1"/><stop offset="1" stop-color="#edbe92"/></radialGradient></defs><g transform="translate(148.35432,4.97289)"><g data-paper-data="{&quot;isPaintingLayer&quot;:true}" fill-rule="evenodd" stroke="none" stroke-linecap="butt" stroke-linejoin="miter" stroke-miterlimit="10" stroke-dasharray="" stroke-dashoffset="0" style="mix-blend-mode: normal"><path d="M314.91337,64.14653v0.3556h-4.41957l1.06679,-0.3556z" fill="url(#color-1)" stroke-width="1"/><g data-paper-data="{&quot;origPos&quot;:null}" fill="#eeb47f" stroke-width="0.0254"><path d="M-86.27773,98.94215c-10.31366,-0.87569 -21.60032,-1.94597 -32.40047,-2.91896c-9.43798,-0.87569 -19.84894,-4.28114 -29.48151,-5.44873v-10.99475c17.02728,0.87569 33.85995,4.47574 50.88723,4.67034c23.35169,0.19459 47.28718,1.45948 70.05508,7.97849c12.64883,3.60005 24.71387,3.50276 37.7519,5.74062c14.10832,2.43247 26.95175,6.03252 40.86546,7.5893c32.20588,3.60005 63.82796,13.03804 96.71492,13.03804c41.44925,0 80.46605,12.74613 122.10988,12.74613c16.2489,0 32.30317,0.97299 48.84398,0.97299c28.2166,0 56.14135,-3.89197 84.26069,-2.14058c22.47598,1.36219 43.20062,2.33518 65.28744,5.15682c11.96774,1.45949 25.97876,4.96223 38.33569,2.43248v12.55153c-1.45949,0.5838 -3.11358,0.87569 -5.05956,0.6811c-11.28664,-0.97299 -12.84343,-0.87569 -23.93547,-1.94599c1.36219,0 -15.47047,-1.75139 -16.24887,-1.94599v0v0c-6.22712,1.94599 -18.68135,-0.97299 -23.93551,-0.97299c-14.01098,0 -19.75164,-1.75135 -33.76262,-1.94595c-20.14084,-0.2919 -42.32496,0.97299 -61.7847,-1.26489c-41.06007,-4.76763 -82.7039,-5.93522 -124.15317,-6.61631c-21.40571,-0.2919 -43.20062,-4.96223 -64.41174,-7.8812c-12.06504,-1.65409 -24.90847,-3.21084 -37.6546,-4.96223c-39.98977,-5.35142 -78.52006,-13.42723 -118.70443,-15.5678c-14.59481,-0.77839 -26.27066,-1.55678 -40.08707,-5.93522c-13.91372,-4.28114 -29.18961,-1.65408 -43.49253,-2.91896z"/><path d="M12.38317,121.41814c-4.08655,0 -47.48177,-6.22712 -53.2224,-6.22712c-4.96224,0 -84.84448,-10.02176 -107.22319,-12.84342v-5.35143c22.476,3.21086 98.07711,13.81642 103.33124,13.81642c6.22712,0 92.62838,7.88121 98.0771,8.8542c5.44873,0.97295 57.11435,9.82715 60.22791,9.82715c3.01626,0 85.62287,13.71912 90.29319,13.71912c4.67037,0 59.44952,-0.97299 64.11989,-0.97299c4.67033,0 81.14711,13.71912 87.27693,13.71912c6.12982,0 50.98452,-1.94599 57.89273,-0.97299c6.90821,0.97299 27.73014,2.91898 30.84368,2.91898c3.11358,0 43.29795,5.93522 50.98456,7.88117c3.50274,0.97299 8.07576,0.5838 12.06504,0v3.60007c-4.67037,0.97299 -10.50829,1.94599 -15.56781,1.94599c-10.70285,0 -19.75164,-2.04329 -24.61657,-3.11358c-4.86493,-1.07029 -22.08682,-5.25412 -30.25989,-5.25412c-8.1731,0 -27.82744,-2.04329 -33.56806,-2.04329c-5.74062,0 -51.56832,2.04329 -65.48204,-1.07029c-13.91372,-3.11354 -66.26043,-12.45423 -75.30923,-12.45423c-8.95146,0 -46.60605,0 -55.65485,0c-9.04878,0 -62.27118,-8.36766 -68.0118,-8.36766c-5.74062,0 -29.48151,-7.29741 -34.44375,-7.29741c-4.96223,0 -87.66614,-10.41099 -91.75269,-10.41099z"/><path d="M53.34592,119.76405c-5.44873,-0.97295 -91.94729,-8.85416 -98.0771,-8.85416c-5.25413,0 -80.85524,-10.60556 -103.33124,-13.81642v-6.32442c9.63257,1.16758 20.04354,4.57304 29.48151,5.44873c10.80016,0.97299 22.08681,2.04327 32.40047,2.91896c14.30291,1.16758 29.57881,-1.45948 43.49253,2.91896c13.81642,4.37844 25.49226,5.15683 40.08707,5.93522c40.18437,2.04327 78.71466,10.11908 118.70443,15.5678c12.74613,1.65409 25.49226,3.30814 37.6546,4.96223c21.21112,2.91898 42.90873,7.58931 64.41174,7.8812c41.44927,0.6811 83.0931,1.84869 124.15317,6.61631c19.45974,2.33518 41.64387,0.97299 61.7847,1.26489c14.01098,0.1946 19.75164,1.94595 33.76262,1.94595c5.25416,0 17.70839,2.91898 23.93551,0.97299c0.77839,0.0973 17.61106,1.94599 16.24887,1.94599c11.09204,1.07029 12.64883,0.97299 23.93547,1.94599c1.94599,0.0973 3.50277,-0.1946 5.05956,-0.6811v15.37317c-3.98927,0.5838 -8.5623,0.87569 -12.06504,0c-7.7839,-1.94595 -47.87098,-7.88117 -50.98456,-7.88117c-3.01624,0 -23.93547,-1.94599 -30.84368,-2.91898c-6.90821,-0.97299 -51.76292,0.97299 -57.89273,0.97299c-6.22712,0 -82.6066,-13.71912 -87.27693,-13.71912c-4.67037,0 -59.44952,0.97299 -64.11989,0.97299c-4.57302,0 -87.17963,-13.71912 -90.29319,-13.71912c-3.11356,0 -54.77918,-8.8542 -60.22791,-9.82715z"/><path d="M-115.27275,54.57393c-10.31366,0 -21.98951,-1.84868 -32.69237,-0.97299v-10.02177c7.20011,-2.72436 18.09756,-1.55678 25.00577,-2.62707c53.5143,-8.46499 105.27721,8.56229 156.84553,14.49751c48.55206,5.54603 96.52033,9.04878 145.46158,9.04878c45.53579,0 91.94729,2.04327 137.19119,-0.97299c39.50328,-2.62707 80.17416,1.36218 118.02335,-5.93522c23.54628,-4.47574 48.35744,-2.04327 72.48755,-1.16758v8.95148c-5.54602,0.0973 -11.09208,0.3892 -16.15161,0.0973c-18.68135,-1.07028 -37.6546,0.0973 -56.33594,0.0973c-17.41646,0 -34.44376,-0.58379 -51.56832,2.14057c-29.48153,4.76764 -59.64412,0.1946 -89.22291,3.50276c-16.8327,1.84868 -34.34646,2.62707 -51.27646,3.21086c-57.21163,2.14057 -115.49356,-3.60005 -172.12141,-10.02177c-28.70312,-3.30816 -56.53055,-1.07028 -84.55259,-6.90821c-23.15709,-4.86494 -47.09258,-2.72436 -70.63887,-2.72436c-10.21636,0 -20.33543,0 -30.5518,0z"/><path d="M-81.89929,73.44988c-16.92998,-0.0973 -33.76265,-0.19459 -50.59533,-0.97299c-5.25413,-0.1946 -10.50826,-1.84868 -15.76239,-2.62707v-9.04878c54.77918,0.58379 109.36376,5.83792 163.85104,5.83792c16.83268,0 34.15185,-0.68109 50.98453,1.16758c14.01101,1.55678 27.34094,6.71361 41.54655,6.61631c32.49777,-0.1946 64.70364,2.62707 97.10411,3.89195c36.68164,1.45948 73.65514,0.97299 110.43404,0.97299c39.11408,0 78.22817,-2.04327 117.34225,-1.94597c24.51927,0.0973 49.62233,-2.91896 73.94704,-0.2919v11.87044c-14.69212,-0.58379 -28.99504,-2.23787 -44.07631,-0.58379c-27.92474,3.11356 -55.94679,3.69735 -84.16343,3.69735c-107.12587,0 -214.15445,-0.3892 -320.79385,-9.82717c-21.40572,-1.84868 -41.35195,-6.81091 -62.75767,-6.81091c-25.58956,0 -51.27642,-1.75138 -76.96328,-1.94597z"/><path d="M66.77315,67.90385c-16.73538,-1.84868 -34.05455,-1.16758 -50.98453,-1.16758c-54.58458,0 -109.07186,-5.25413 -163.85104,-5.83792v-7.00551c10.70286,-0.97299 22.3787,0.97299 32.69237,0.97299c10.21637,0 20.33543,0 30.5518,0c23.54629,0 47.48177,-2.14057 70.63887,2.72436c28.02203,5.93522 55.84946,3.69735 84.55259,6.90821c56.62785,6.42171 114.90978,12.06504 172.12141,10.02177c16.93,-0.58379 34.44376,-1.36218 51.27646,-3.21086c29.57879,-3.30816 59.74138,1.26488 89.22291,-3.50276c17.22186,-2.72436 34.15186,-2.14057 51.56832,-2.14057c18.77865,0 37.6546,-1.16758 56.33594,-0.0973c5.05952,0.29189 10.60558,-0.0973 16.15161,-0.0973v11.57855c-24.42201,-2.62706 -49.52507,0.3892 -73.94704,0.2919c-39.21138,-0.19459 -78.22817,1.94597 -117.34225,1.94597c-36.7789,0 -73.7524,0.4865 -110.43404,-0.97299c-32.40046,-1.26488 -64.60634,-3.98925 -97.10411,-3.89195c-14.20561,0.0973 -27.53554,-5.05953 -41.54655,-6.61631z" data-paper-data="{&quot;origPos&quot;:null}"/><path d="M-6.20089,147.2996c-11.09205,-1.45949 -57.89274,-11.28664 -65.67663,-12.74613c-6.32442,-1.07029 -57.11435,-5.93522 -76.28219,-7.7839v-5.83792c20.14083,1.94599 78.52006,6.61631 82.70391,7.49201c4.86493,1.07029 35.22213,7.29741 45.82769,7.29741c10.60556,0 71.22266,9.34069 79.39575,9.34069c8.17309,0 37.6546,3.21084 41.74115,5.25412c4.08655,2.04325 47.48177,10.41095 54.87648,12.45423c7.3947,2.04329 29.48151,2.04329 33.56806,3.11354c4.08654,1.07029 52.44399,4.18387 58.18465,5.25416c5.74062,1.07025 19.65434,2.14055 27.82741,1.07025c8.1731,-1.07025 11.48128,-4.18383 31.13562,4.18387c19.6543,8.36766 31.91398,8.36766 45.0493,7.29741c13.03803,-1.07029 44.952,-5.25416 49.91423,-5.25416c4.96223,0 46.70339,2.14058 54.0981,4.18387c7.39467,2.04325 42.61682,3.11354 42.61682,3.11354l8.1731,-0.3892v7.00551c-10.11909,0.77839 -22.67062,1.75139 -25.20036,1.75139c-4.37847,0 -41.15737,-5.64332 -45.6331,-5.64332c-4.37847,0 -21.11383,1.45949 -25.58956,4.28113c-4.47577,2.82168 -54.5846,4.28117 -62.3685,4.28117c-7.7839,0 -45.6331,-7.00551 -55.65485,-11.28668c-10.02179,-4.18383 -35.61135,-5.64332 -47.87098,-8.46496c-12.25963,-2.82168 -73.55782,-4.18387 -85.81746,-5.64336c-12.25964,-1.36215 -57.89274,-11.28664 -64.60635,-15.56777c-6.71361,-4.28113 -45.73039,-1.45949 -51.27642,-1.45949c-5.54603,0 -37.9465,-5.64332 -49.03855,-7.10281z"/><path d="M-143.48938,202.95449c0,2.91894 -2.43247,4.08653 -4.67034,5.35142v-10.60558c2.23787,1.36219 4.67034,2.62708 4.67034,5.35146z"/><path d="M-19.62811,135.81836c-10.60556,0 -40.86546,-6.22712 -45.82769,-7.29741c-4.18385,-0.87569 -62.56308,-5.44872 -82.70391,-7.49201v-6.22712c27.92473,3.30818 135.05062,15.85971 140.01285,15.85971c5.74062,0 98.2717,9.34066 102.35825,9.34066c4.08655,0 63.82796,19.84894 76.96329,18.77865c13.13532,-1.07025 71.22264,4.18387 76.1849,4.18387c4.86493,0 27.82741,1.07029 27.82741,1.07029c0,0 19.65434,3.11354 22.08682,4.18383c2.43248,1.07029 49.13584,12.45423 58.96303,10.41095c9.82715,-2.04325 67.13613,-6.22712 72.09835,-6.22712c4.96223,0 43.39522,5.25416 50.78992,7.29741c4.47573,1.26489 17.90295,0.97299 27.82744,0.5838v5.25412l-8.1731,0.3892c0,0 -35.22215,-1.07029 -42.61682,-3.11354c-7.39471,-2.14058 -49.13587,-4.18387 -54.0981,-4.18387c-4.86493,0 -36.7789,4.18387 -49.91423,5.25416c-13.13533,1.07025 -25.395,1.07025 -45.0493,-7.29741c-19.65434,-8.3677 -22.96252,-5.25412 -31.13562,-4.18387c-8.17306,0.97299 -22.08679,0 -27.82741,-1.07025c-5.74066,-1.07029 -54.0981,-4.18387 -58.18465,-5.25416c-4.08655,-1.07025 -26.17336,-1.07025 -33.56806,-3.11354c-7.3947,-2.04329 -50.78993,-10.41099 -54.87648,-12.45423c-4.08655,-2.14058 -33.56806,-5.25412 -41.74115,-5.25412c-8.17309,0 -68.79019,-9.34069 -79.39575,-9.34069z"/><path d="M-114.88355,205.09503c-3.69735,3.50277 -6.12982,6.71361 -10.70286,7.29741c-7.492,0.97299 -14.8867,1.55679 -22.476,1.75139v-5.64332c2.23787,-1.26489 4.67034,-2.43248 4.67034,-5.35142c0,-2.72438 -2.43247,-3.98927 -4.67034,-5.35146v-21.50299c3.30816,0.5838 7.6866,0.5838 9.24338,0.87569c4.28114,0.6811 3.98924,2.23785 6.71361,5.54602c2.14057,2.62704 5.05953,4.28113 7.9785,5.25412c2.72436,0.97299 10.02177,0.3892 11.77315,2.72438c0.77839,1.07025 2.14057,7.00547 1.94597,8.56226c-0.3892,2.91898 -2.82166,3.98927 -4.57304,5.64332z"/><path d="M88.66536,132.80208c-4.96223,0 -64.70364,-6.22712 -74.53082,-6.22712c-8.65959,0 -133.59114,-14.69208 -162.09966,-18.09755v-6.22712c22.3787,2.82166 102.26095,12.84342 107.22318,12.84342c5.74063,0 49.13585,6.22712 53.2224,6.22712c4.08655,0 86.79046,10.41099 91.75269,10.41099c4.96223,0 28.70312,7.29741 34.44375,7.29741c5.74062,0 58.96302,8.36766 68.0118,8.36766c8.9515,0 46.60609,0 55.65485,0c8.9515,0 61.39551,9.34069 75.30923,12.45423c13.91372,3.11358 59.74142,1.07029 65.48204,1.07029c5.74062,0 25.39496,2.04329 33.56806,2.04329c8.17306,0 25.39496,4.18383 30.25989,5.25412c4.96223,1.07029 14.01102,3.11358 24.61657,3.11358c5.05952,0 10.89744,-0.97299 15.56781,-1.94599v5.64332c-5.35142,0.87569 -11.09208,1.45949 -14.78942,0.4865c-8.1731,-2.14058 -47.48179,-8.3677 -51.56832,-8.3677c-4.08653,0 -13.91372,-2.14055 -23.74087,-1.07029c-9.82719,1.07029 -53.3197,4.18387 -63.92529,4.18387c-10.70285,0 -30.35719,-8.2704 -34.44372,-9.34069c-4.08657,-1.07029 -19.65434,-5.25412 -23.74091,-5.25412c-4.08653,0 -24.51927,-2.04329 -31.91398,-2.04329c-7.39471,0 -66.35771,-3.11354 -76.18488,-3.11354c-9.82717,0 -71.31996,-11.38394 -73.75243,-12.45423c-2.52977,-1.07029 -19.65434,-5.25416 -24.61657,-5.25416z"/><path d="M94.01679,140.09948c-4.08655,0 -96.61762,-9.34066 -102.35825,-9.34066c-4.96223,0 -112.08812,-12.55153 -140.01285,-15.85971v-6.32441c28.50852,3.40547 153.44008,18.09755 162.09966,18.09755c9.82717,0 69.56858,6.22712 74.53082,6.22712c4.96223,0 22.1841,4.18387 24.61657,5.25416c2.52977,0.97299 63.92525,12.45423 73.75243,12.45423c9.82717,0 68.79017,3.11354 76.18488,3.11354c7.29741,0 27.82744,2.04329 31.91398,2.04329c4.08657,0 19.65434,4.18383 23.74091,5.25412c4.18383,0.97299 23.83817,9.34069 34.44372,9.34069c10.70288,0 54.0981,-3.11358 63.92529,-4.18387c9.82715,-0.97299 19.65434,1.07029 23.74087,1.07029c4.08653,0 43.39522,6.32442 51.56832,8.3677c3.69733,0.87569 9.53529,0.3892 14.78942,-0.4865v5.25412c-9.92449,0.3892 -23.35171,0.6811 -27.82744,-0.5838c-7.39471,-2.04325 -45.8277,-7.29741 -50.78992,-7.29741c-4.96223,0 -62.2712,4.18387 -72.09835,6.22712c-9.82719,2.04329 -56.53054,-9.34066 -58.96303,-10.41095c-2.43248,-1.07029 -22.08682,-4.18383 -22.08682,-4.18383c0,0 -22.86518,-1.07029 -27.82741,-1.07029c-4.96226,0 -63.04958,-5.25412 -76.1849,-4.18387c-13.03803,0.97299 -72.87674,-18.77865 -76.96329,-18.77865z"/><path d="M439.52452,106.14225c16.92996,0 34.63836,1.84868 51.47102,0c4.96223,-0.58379 10.50829,-2.33517 15.95701,-3.60005v6.51901c-8.465,1.36218 -17.61109,0.97299 -25.97876,1.84868c-6.90821,0.77839 -19.94624,-0.68109 -26.65985,3.01624c7.68661,-0.1946 15.27587,-0.0973 22.96248,-0.0973c-0.77839,0 -1.65405,0 -2.52974,0c10.41095,0 21.60029,1.26489 32.30317,-0.1946v8.8542c-10.21639,-2.52978 -21.21113,-1.84869 -31.71938,-1.84869c-53.9035,0 -107.5151,1.75139 -161.4186,1.94599c-13.81638,0.0973 -28.8004,-1.07029 -42.51952,-3.60004c-22.76788,-4.28117 -45.0493,-6.32442 -68.30368,-6.22712c-14.30293,0.0973 -29.57883,1.75135 -43.49254,-1.0703c-7.9785,-1.65408 -14.59481,-6.51901 -22.28141,-8.95148c-8.46499,-2.72436 -18.48676,-3.89195 -26.95175,-5.54603c-18.87595,-3.79465 -39.79517,-3.11356 -58.96302,-4.08655c-13.32992,-0.68109 -31.62208,0.1946 -44.46551,-5.05953c-0.1946,-0.87569 -0.1946,-1.65408 0.0973,-2.43247c15.85969,-3.01626 34.34645,0 50.20613,0.77839c24.13008,1.26488 48.26016,9.34068 72.77944,10.60556c52.63861,2.62707 105.37453,5.83792 158.0131,7.8812c23.78907,0.91672 37.18081,1.07778 60.98729,1.18477c35.35927,0.15891 55.2445,-0.21178 90.60412,-0.21178z" data-paper-data="{&quot;origPos&quot;:null}"/><path d="M59.08655,5.04889c-10.80016,0 -112.28272,-2.23787 -124.83425,-3.40546c-8.75689,-0.87569 -45.6331,-4.47574 -68.88749,-6.51901h139.62366c29.09232,1.26488 65.48204,3.01626 74.82271,3.01626c15.2759,0 115.88277,1.16759 123.95854,1.16759c8.0758,0 183.21349,3.40545 192.16499,3.40545c7.68661,0 87.27693,0 111.01784,0v10.70286c-7.10281,0.1946 -16.93,0.1946 -25.68686,-0.3892c-16.15161,-1.16758 -94.28248,-4.57304 -101.48259,-4.57304c-7.20011,0 -45.7304,-1.16758 -71.80645,-1.16758c-25.97876,0 -99.63386,-1.16758 -110.43403,-1.16758c-10.80016,0 -127.46132,-1.16758 -138.26148,-1.16758z"/><path d="M203.96432,-0.69174c-8.17308,0 -108.68265,-1.16759 -123.95855,-1.16759c-9.43797,0 -45.82769,-1.65408 -74.82271,-3.01626h501.86679v7.5893c-23.74091,0 -103.42853,0 -111.01784,0c-8.9515,0 -184.08918,-3.40545 -192.16499,-3.40545z"/><path d="M454.41124,113.73153c6.71361,-3.69733 19.65434,-2.23785 26.65985,-3.01624c8.36766,-0.87569 17.51376,-0.48649 25.97876,-1.84868v4.67032c-10.70288,1.45949 -21.89223,0.1946 -32.30317,0.1946c0.87569,0 1.65405,0 2.52974,0c-7.68661,0 -15.27587,-0.0973 -22.96248,0.0973z"/><path d="M461.70865,147.105v0c-0.0973,0 -0.0973,0 0,0z"/><path d="M342.9069,277.87448c7.7839,0 77.25518,-8.8542 88.05532,-8.8542c8.3677,0 55.55759,1.75139 76.08762,2.52978v10.50825c-7.10281,-0.58376 -17.5138,-1.36215 -22.86522,-1.36215c-8.56226,0 -64.89824,-2.91898 -74.91999,0c-10.02179,2.91894 -57.89273,3.89193 -71.80645,3.89193c-13.91372,0 -50.98452,-0.97299 -58.67113,-0.97299c-7.68661,0 3.11354,-0.97299 14.69212,-3.89193c11.57854,-2.91898 41.74113,-1.94599 49.42773,-1.94599z"/><path d="M59.76764,52.04416c-44.36821,-2.52977 -87.47154,-15.3732 -131.74246,-16.92998c-25.39497,-0.97299 -50.69263,-1.75138 -76.0876,-1.94597v-9.92447c7.5893,0 15.1786,0 22.7679,0c40.86546,0 81.43902,5.93522 122.10989,10.02177c47.87097,4.86494 94.96354,11.18935 143.02911,13.52452c121.81801,6.03252 245.19278,-2.52977 367.20536,-2.91896v5.93522c-24.13011,0.19459 -48.64938,0.58379 -73.16864,0.97299c-25.39496,0.3892 -50.49803,5.54603 -75.99029,6.90821c-40.96277,2.23787 -83.09313,0.97299 -124.05587,0.0973c-58.28194,-1.26488 -116.17467,-2.43247 -174.16471,-5.74062z"/><path d="M-3.28193,33.36281c-40.67087,-3.98925 -81.24443,-10.02177 -122.10989,-10.02177c-7.5893,0 -15.1786,0 -22.7679,0v-4.67034c23.05979,0.97299 94.86625,3.69735 98.7582,3.69735c4.57304,0 124.25046,10.80016 138.94257,13.71912c14.6921,3.01626 132.81276,7.8812 143.61291,6.90821c10.80014,-0.97299 128.2397,-1.94597 135.9263,-2.91896c7.68661,-0.97299 87.27697,-3.89195 94.96353,-3.89195c5.35142,0 28.99504,0.97299 42.90876,1.55678v6.32442c-122.01258,0.48649 -245.29006,8.95148 -367.20536,2.91896c-48.06557,-2.43247 -95.15814,-8.75688 -143.02911,-13.52452z"/><path d="M33.59429,55.74152c-51.56832,-5.83792 -103.42854,-22.8652 -156.84553,-14.49751c-6.81091,1.07028 -17.70837,-0.0973 -25.00577,2.62707v-10.50826c25.39496,0.1946 50.69263,1.07028 76.0876,1.94597c44.27092,1.55678 87.47154,14.40021 131.74246,16.92998c57.99003,3.30816 115.88277,4.47574 174.16471,5.74062c40.96277,0.87569 83.0931,2.14057 124.05587,-0.0973c25.49226,-1.36218 50.59532,-6.51901 75.99029,-6.90821c24.51927,-0.38919 49.03854,-0.87569 73.16864,-0.97299v6.61631c-24.13011,-0.87569 -48.94127,-3.30816 -72.48755,1.16758c-37.84919,7.2974 -78.42277,3.30816 -118.02335,5.93522c-45.2439,3.01626 -91.5581,0.97299 -137.19119,0.97299c-48.94125,0 -96.90952,-3.50276 -145.46158,-9.04878z"/><path d="M-36.1689,12.73548c-9.24338,0 -69.47128,2.91896 -80.27144,2.91896c-7.2974,0 -22.5733,-2.23787 -31.52478,-3.69735v-8.46499c19.36244,1.45948 72.48754,5.15683 82.50931,4.37844c12.35693,-0.97299 106.54209,5.93522 119.67742,6.90821c13.13533,0.97299 79.49305,3.89195 92.62838,2.91896c13.13533,-0.97299 141.27772,-4.86493 152.8563,-4.86493c11.57854,0 108.09886,5.83792 120.45579,4.86493c12.35693,-0.97299 38.53029,0 55.55759,2.91896c10.80014,1.84868 23.15708,2.91896 31.33018,3.50275v6.42171c-31.81668,0.3892 -138.94258,2.14057 -150.22922,3.79465c-13.13533,1.94597 -129.01809,5.83792 -137.48309,4.86493c-8.5623,-0.97299 -114.32599,-5.93522 -125.90453,-8.85418c-11.57855,-3.01626 -120.45581,-17.70837 -129.69919,-17.70837zM201.62918,22.36806c-10.89746,1.94597 -108.68268,-0.38919 -101.96906,1.94597c8.46499,3.01626 56.33596,5.93522 61.00629,6.90821c4.57304,0.97299 50.20612,0 56.33594,0c6.12982,0 95.74197,-1.94597 102.65018,-2.91896c6.90821,-0.97299 87.95802,-0.97299 93.40674,-3.89195c5.44872,-2.91896 -25.49226,-0.97299 -34.73562,-1.94597c-9.24339,-0.97299 -59.44952,-1.94597 -71.0281,-3.89195c-11.57854,-2.04327 -94.96353,1.94597 -105.76368,3.89195z"/><path d="M-49.30422,22.46536c-3.89195,0 -75.6984,-2.82166 -98.7582,-3.69735v-6.90821c8.95148,1.45948 24.13008,3.69735 31.52478,3.69735c10.80016,0 71.02806,-2.91896 80.27144,-2.91896c9.24338,0 118.12064,14.7894 129.69919,17.70837c11.57855,2.91896 117.43953,7.8812 125.90453,8.85418c8.5623,1.07028 124.34777,-2.91896 137.48309,-4.86493c11.28664,-1.65408 118.41255,-3.30816 150.22922,-3.79465v7.2974c-13.91372,-0.58379 -37.55733,-1.55678 -42.90876,-1.55678c-7.68661,0 -87.27693,2.91896 -94.96353,3.89195c-7.7839,0.97299 -125.12616,1.94597 -135.9263,2.91896c-10.80014,0.97299 -128.9208,-3.98925 -143.61291,-6.90821c-14.59481,-2.91896 -134.27223,-13.71912 -138.94256,-13.71912z"/><path d="M-65.7477,7.57865c-10.02177,0.77839 -63.14687,-2.91896 -82.50931,-4.37844v-8.17309h13.71912c23.25439,2.14057 60.13061,5.74062 68.88749,6.51901c12.55153,1.16758 114.03409,3.40546 124.83425,3.40546c10.80016,0 127.46132,1.16758 138.26148,1.16758c10.80017,0 84.35797,1.16758 110.43403,1.16758c25.97876,0 64.60635,1.16758 71.80645,1.16758c7.20011,0 85.33098,3.40546 101.48259,4.57304c8.75686,0.5838 18.48675,0.5838 25.68686,0.3892v10.50826c-8.1731,-0.58379 -20.53004,-1.65408 -31.33018,-3.50276c-16.93,-2.91896 -43.20066,-3.89195 -55.55759,-2.91896c-12.35693,1.07028 -108.87725,-4.86494 -120.45579,-4.86494c-11.57858,0 -139.72097,3.89195 -152.85629,4.86494c-13.13533,0.97299 -79.49305,-1.94597 -92.62838,-2.91896c-13.13532,-0.97299 -107.32048,-7.8812 -119.67742,-6.90821z"/><path d="M-27.21741,92.03394c-22.7679,-6.42171 -46.70338,-7.6866 -70.05508,-7.9785c-17.12458,-0.1946 -33.95725,-3.79465 -50.88723,-4.67034v-9.72987c5.15683,0.77839 10.41096,2.33517 15.76239,2.62707c16.92998,0.77839 33.76265,0.87569 50.59533,0.97299c25.58956,0.0973 51.27642,1.94597 76.96328,1.94597c21.40572,0 41.35195,4.86493 62.75767,6.81091c106.63939,9.43798 213.66798,9.82717 320.79385,9.82717c28.21664,0 56.23868,-0.58379 84.16343,-3.69735c15.08128,-1.65408 29.38419,0 44.07631,0.58379v13.32992c-5.44872,1.36218 -10.99478,3.01626 -15.95701,3.60005c-16.83266,1.84868 -34.54106,0 -51.47102,0c-50.49803,0 -101.09335,0.97299 -151.59141,-0.97299c-52.63857,-2.04327 -105.47179,-5.25413 -158.0131,-7.8812c-24.51928,-1.26488 -48.64936,-9.34067 -72.77944,-10.60556c-15.85969,-0.77839 -34.44375,-3.79465 -50.20614,-0.77839c-0.2919,0.87569 -0.2919,1.65408 -0.0973,2.43247c12.94073,5.15683 31.13559,4.37844 44.46552,5.05953c19.16785,0.97299 40.08707,0.2919 58.96302,4.08655c8.46499,1.75138 18.48675,2.82166 26.95174,5.54603c7.7839,2.52977 14.30291,7.2974 22.28141,8.95148c13.91371,2.82165 29.18961,1.0703 43.49254,1.0703c23.25438,0 45.5358,1.94595 68.30368,6.22712c13.71912,2.52974 28.70314,3.69733 42.51952,3.60004c53.9035,-0.1946 107.5151,-1.94599 161.4186,-1.94599c10.50825,0 21.50299,-0.6811 31.71938,1.84869v15.47051c-12.35693,2.62704 -26.36795,-0.87569 -38.33569,-2.43248c-22.08682,-2.72434 -42.81146,-3.79463 -65.28744,-5.15682c-28.11934,-1.75139 -56.04408,2.14058 -84.26069,2.14058c-16.5408,0 -32.59507,-0.97299 -48.84398,-0.97299c-41.54653,0 -80.56333,-12.74613 -122.10988,-12.74613c-32.88696,0 -64.50905,-9.43799 -96.71492,-13.03804c-14.01101,-1.55678 -26.75714,-5.15683 -40.86546,-7.5893c-13.03803,-2.23787 -25.10307,-2.14057 -37.7519,-5.74062z"/><path d="M20.16706,340.63214c-10.02177,0 -99.63389,-13.71909 -107.32049,-13.71909c-6.61631,0 -45.3412,1.45945 -60.909,1.84865v-7.7839c22.5733,-0.1946 45.4385,-0.58376 67.8172,1.84869c20.91922,2.23788 42.42224,5.64332 63.34147,6.03252c13.62182,0.2919 26.46525,3.98927 39.98977,3.89197c54.97377,-0.3892 110.04485,3.01624 165.01862,2.91894c67.13613,-0.0973 134.17492,-2.91894 201.40835,-2.91894c29.0923,0 58.28193,0.5838 87.37423,0.97299c9.14609,0.09726 20.04354,0.38916 30.16263,-1.07029v10.60555c-18.38945,-1.84869 -58.76843,-3.89193 -63.73065,-4.67033c-6.22715,-0.97299 -70.2497,-0.97299 -76.47682,-0.97299c-6.22712,0 -91.1689,4.86493 -99.63386,3.89193c-8.5623,-0.97299 -126.68294,0.97299 -135.14793,0c-8.56229,-0.97299 -101.96905,-0.97299 -111.99082,-0.97299z"/><path d="M-30.03907,287.60436c-13.62182,0.77836 -95.64464,2.43244 -118.02334,2.82164v-5.83792c27.82743,-0.3892 169.59166,-1.84869 182.1432,-0.97299c13.91372,0.97299 90.39051,1.94599 110.43404,1.94599c20.14083,0 56.43326,-2.91898 86.49855,-1.94599c30.06533,0.97299 70.24967,7.8812 92.62839,7.8812c22.37872,0 68.69288,0 82.6066,-2.91898c13.23263,-2.82164 71.31996,-4.67033 100.80149,-1.45945v9.14606c-10.41099,-2.14055 -25.88146,-5.15682 -33.66536,-5.74062c-12.35693,-1.07029 -81.82824,2.91898 -94.96353,4.86493c-13.13533,2.04329 -118.12065,-1.94595 -132.03437,-3.89193c-13.91372,-1.94599 -73.36324,-2.91898 -95.74194,-0.97299c-22.3787,1.94599 -111.99082,0.97299 -122.01259,-0.97299c-10.02177,-1.94595 -43.20063,-2.91894 -58.67112,-1.94595z"/><path d="M-80.24521,322.82648c-22.3787,-2.33514 -45.2439,-1.94599 -67.8172,-1.84869v-8.75686c29.09232,0.2919 58.47653,1.45949 87.56884,-0.0973c16.24889,-0.87569 32.01128,-3.89197 48.26016,-3.89197c6.51901,0 14.10832,-0.97295 19.94624,0.5838c12.16234,3.21088 23.25439,12.74613 35.90322,15.56781c8.75689,1.94599 17.31917,0.87569 26.17336,1.45949c40.76816,2.82164 82.12011,1.07029 123.08287,1.07029c10.70284,0 22.57332,1.16755 32.88696,-0.87569c35.90325,-7.10281 73.46054,-2.62708 109.94755,-2.14058c34.34646,0.4865 69.08207,2.91898 103.81773,2.91898c19.75164,0 39.98978,0.2919 59.54682,-3.11358c2.72438,-0.4865 5.35142,-1.07029 7.8812,-1.65409v10.60558c-10.11909,1.45945 -20.91923,1.16759 -30.16263,1.07029c-29.0923,-0.3892 -58.28193,-0.97299 -87.37423,-0.97299c-67.23343,0 -134.17492,2.82164 -201.40835,2.91894c-54.97377,0.0973 -110.04485,-3.30814 -165.01862,-2.91894c-13.52452,0.0973 -26.36795,-3.60007 -39.98977,-3.89197c-20.91922,-0.3892 -42.42224,-3.79463 -63.34147,-6.03252zM-1.53055,315.13988c-8.17309,-1.45945 -27.73013,-2.52974 -34.73564,3.01628c3.69735,4.76763 19.16785,1.94599 23.93548,1.94599l9.24338,4.86493c5.35143,0.5838 18.68136,7.10281 22.47601,1.94599c-4.18385,-6.03256 -14.59481,-10.80018 -20.91922,-11.87048z"/><path d="M-102.81851,308.23167c-14.59481,0 -30.6491,-4.08653 -45.2439,-2.23785v-4.67037c48.16287,-0.09726 96.32573,-0.87566 144.1967,-3.89193c9.82717,-0.5838 19.07055,3.21088 28.60582,4.96223c12.35694,2.33518 25.68686,1.94599 38.33569,3.69737c10.70286,1.45949 21.50302,4.47573 32.40047,4.08653c19.36245,-0.77839 39.01679,-6.03252 58.37923,-5.93522c24.13008,0.0973 50.20612,2.62708 74.92003,3.89193c34.05452,1.65409 67.33069,0.5838 101.19065,0c31.33018,-0.48646 62.95226,-0.97295 94.47704,-0.97295c22.86522,0 46.1196,-0.87569 68.98481,0.97295c3.89193,0.2919 8.85416,0 13.62182,0.1946v5.83796c-1.45949,-0.5838 -2.82168,-1.16759 -4.37847,-1.16759c-5.15682,-0.0973 -10.89744,3.98923 -16.92996,3.98923c-21.11383,0 -41.64387,-4.08653 -62.56306,-4.86493c-33.66536,-1.26489 -67.33073,0.97299 -101.09339,0.97299c-75.21189,0 -150.9103,0.97299 -225.83031,0.97299c-22.5733,0 -45.1466,-1.75139 -66.84422,-6.90821c-21.01652,-4.96226 -42.51954,-5.93522 -63.82796,-2.91898c-22.7679,3.21088 -45.24391,3.89193 -68.401,3.89193z"/><path d="M24.54551,302.29645c-9.43798,-1.84865 -18.77865,-5.54602 -28.60582,-4.96223c-47.87097,3.01628 -96.03383,3.79467 -144.1967,3.89197v-6.81091c26.95175,0.1946 54.09809,1.55675 80.85523,0c24.71387,-1.36219 50.69263,-6.12982 75.3092,-1.16759c69.47128,13.91372 139.42906,2.04325 209.77602,2.14055c30.06533,0 58.96303,4.86496 89.12565,4.86496c28.022,0 55.94675,-0.0973 83.77419,-1.94599c26.07606,-1.75139 52.15211,-4.47573 78.42277,-3.01628c7.97847,0.4865 15.66507,3.11358 23.64357,4.18387c4.37843,0.5838 9.53525,0.5838 14.40022,1.16759v7.58927c-4.76767,-0.1946 -9.82719,0.0973 -13.62182,-0.1946c-22.76792,-1.84865 -46.0223,-0.97295 -68.98481,-0.97295c-31.52478,0 -63.14686,0.4865 -94.47704,0.97295c-33.95726,0.4865 -67.13613,1.65409 -101.19065,0c-24.8112,-1.16755 -50.88725,-3.79463 -74.92003,-3.89193c-19.36244,-0.0973 -39.01678,5.25412 -58.37923,5.93522c-10.89746,0.3892 -21.69761,-2.62704 -32.40047,-4.08653c-12.55153,-1.75139 -25.97876,-1.36219 -38.33569,-3.69737z"/><path d="M-67.10989,294.31798c-26.85445,1.55675 -54.00079,0.1946 -80.85523,0v-4.08657c22.3787,-0.2919 104.40152,-1.94595 118.02334,-2.82164c15.4705,-0.97299 48.64936,0 58.67112,1.94595c10.02177,1.94599 99.63389,2.91898 122.01259,0.97299c22.37871,-1.94599 81.82822,-0.97299 95.74194,0.97299c13.91372,1.94599 118.89904,5.83792 132.03437,3.89193c13.13529,-1.94595 82.6066,-5.83792 94.96353,-4.86493c7.7839,0.6811 23.25438,3.60007 33.66536,5.74062v4.57307c-4.86496,-0.5838 -10.11909,-0.5838 -14.40022,-1.16759c-7.9785,-1.16759 -15.66511,-3.69737 -23.64357,-4.18387c-26.27066,-1.45945 -52.34671,1.36219 -78.42277,3.01628c-27.82744,1.84869 -55.75219,1.94599 -83.77419,1.94599c-30.25993,0 -59.15762,-4.86496 -89.12565,-4.86496c-70.44426,0 -140.30474,11.87048 -209.77602,-2.14055c-24.61657,-4.96223 -50.59533,-0.2919 -75.30921,1.16759z"/><path d="M-60.59087,312.12363c-28.99502,1.55679 -58.37923,0.3892 -87.56884,0.0973v-6.22712c14.49751,-1.84869 30.6491,2.23785 45.2439,2.23785c23.1571,0 45.6331,-0.58376 68.401,-3.89193c21.30842,-3.01628 42.90873,-2.04329 63.82796,2.91898c21.69762,5.15682 44.36822,6.90821 66.84422,6.90821c74.92001,0 150.61842,-0.97299 225.83031,-0.97299c33.66536,0 67.42803,-2.23788 101.09339,-0.97299c20.91919,0.77839 41.44923,4.86493 62.56306,4.86493c6.03252,0 11.67584,-4.08653 16.92996,-3.98923c1.55679,0 3.01628,0.5838 4.37847,1.16759v7.78387c-2.52978,0.5838 -5.15682,1.16759 -7.8812,1.65409c-19.45974,3.40548 -39.79518,3.11358 -59.54682,3.11358c-34.63836,0 -69.47127,-2.43248 -103.81773,-2.91898c-36.3897,-0.4865 -73.947,-4.96223 -109.94755,2.14058c-10.21635,2.04325 -22.08682,0.87569 -32.88696,0.87569c-40.86546,0 -82.21741,1.75135 -123.08287,-1.07029c-8.85418,-0.5838 -17.41647,0.4865 -26.17336,-1.45949c-12.64883,-2.82168 -23.74089,-12.35693 -35.90322,-15.56781c-5.83792,-1.55675 -13.42723,-0.5838 -19.94624,-0.5838c-16.34618,0 -32.10857,3.01628 -48.26016,3.89197z"/><path d="M393.21033,346.5674c14.40022,0 86.88777,3.50274 113.93682,5.15682v12.16233c-20.23814,-1.65409 -102.45558,-10.60558 -110.14215,-11.48124c-8.465,-0.97299 -186.13247,4.96223 -192.26229,6.90821c-6.2271,1.94595 -160.64017,-5.93526 -169.88355,-6.90821c-9.24338,-1.07029 -104.98531,-6.90821 -109.65565,-5.93522c-3.89195,0.77836 -53.3197,1.55675 -73.26593,1.84865v-10.70285c18.87595,0.1946 74.92001,1.07029 83.2877,1.94599c9.24338,0.97295 54.77918,3.98923 67.13612,5.93522c12.35694,1.94595 213.0842,3.89193 223.88435,3.89193c10.80014,0 149.74273,-2.91894 166.76999,-2.91894z"/><path d="M204.54812,359.31353c6.12982,-2.04329 183.79729,-7.8812 192.26229,-6.90821c7.68661,0.87566 89.90401,9.82715 110.14215,11.48124v0.5838h-142.63992c-16.3462,-0.4865 -30.64912,-0.87569 -38.43299,-0.87569c-4.86496,0 -14.01102,0.2919 -24.9085,0.87569h-203.257c-39.01679,-2.33518 -73.94702,-4.37847 -78.90926,-4.37847c-10.31366,0 -136.99659,-4.57303 -166.9646,-5.54602v-6.32442c19.94624,-0.1946 69.37398,-1.07029 73.26593,-1.84865c4.67034,-0.97299 100.41227,4.96223 109.65565,5.93522c9.24338,0.97295 163.65644,8.85416 169.88355,6.90821z"/><path d="M301.16574,364.47035c10.89748,-0.4865 19.94624,-0.87569 24.9085,-0.87569c7.78387,0 22.08679,0.2919 38.43299,0.87569h-63.43879z"/><path d="M2.1668,345.4971c-12.35694,-2.04329 -57.89273,-4.96226 -67.13611,-5.93522c-8.36769,-0.87569 -64.41175,-1.75139 -83.2877,-1.94599v-8.9515c15.56779,-0.3892 54.29268,-1.84865 60.90899,-1.84865c7.6866,0 97.29872,13.71909 107.32049,13.71909c10.02177,0 103.52583,0 111.99082,0.97299c8.56229,0.97299 126.68293,-0.97299 135.14793,0c8.56226,1.07029 93.40674,-3.89193 99.63386,-3.89193c6.22712,0 70.34697,0 76.47682,0.97299c4.96223,0.77839 45.2439,2.91894 63.73065,4.67033v8.3677c-27.04905,-1.65409 -99.5366,-5.15682 -113.93682,-5.15682c-16.92996,0 -155.96984,2.91894 -166.76999,2.91894c-10.80014,0 -211.52741,-1.94599 -223.88435,-3.89193z"/><path d="M-148.15972,354.54586c29.96801,1.07029 156.55363,5.54602 166.9646,5.54602c4.96223,0 39.89247,2.14058 78.90926,4.37847h-245.87385v-9.82719z"/><path d="M-122.37556,217.45197c-5.74062,1.94599 -11.77315,3.01628 -17.61107,4.28117c-1.94597,0.3892 -5.35143,0.1946 -8.17309,0.77839v-8.6596c7.5893,-0.0973 14.984,-0.6811 22.476,-1.75139c4.57304,-0.6811 7.10281,-3.79463 10.70286,-7.29741c1.75138,-1.75135 4.18384,-2.72434 4.57304,-5.64332c0.1946,-1.55679 -1.07029,-7.49201 -1.94597,-8.56226c-1.75138,-2.33518 -9.04878,-1.75139 -11.77315,-2.72438c-2.82166,-0.97299 -5.74062,-2.62708 -7.9785,-5.25412c-2.72436,-3.30818 -2.43247,-4.86493 -6.71361,-5.54602c-1.55678,-0.1946 -5.93522,-0.1946 -9.24338,-0.87569v-11.18934c9.92447,0.09726 19.84894,0.87566 29.57881,2.91894c3.79465,0.77839 7.3947,3.21088 11.28665,4.47573c6.12982,1.94599 12.16234,0.87569 18.38946,1.75139c3.11356,0.4865 7.5893,2.14058 10.11906,4.18383c4.18384,3.50277 7.492,8.465 12.45424,10.80018c5.74062,2.72434 11.87044,0.77839 16.83268,5.74062c2.14057,2.23788 9.24338,4.28113 7.8812,8.2704c-0.58379,1.65405 -3.79465,2.52974 -4.76764,3.01624c-2.72436,1.36219 -5.05953,2.33518 -7.9785,2.82168c-3.89195,0.6811 -8.07579,0.6811 -11.77315,1.36219c-8.46499,1.55675 -16.83268,0.97295 -25.49226,1.84865c-5.35143,0.5838 -10.31366,2.23788 -15.76239,2.23788c-5.64332,0 -9.72987,1.36219 -15.0813,3.11354z"/><path d="M33.20508,241.58207c-12.64883,0 -90.7797,3.40544 -104.20692,3.40544c-11.09205,0 -59.74141,3.79467 -77.25518,5.15682v-5.74062c9.92447,-1.36219 28.89772,-3.98923 32.49777,-3.98923c4.96223,0 40.28167,-2.14058 51.27642,-2.14058c11.09205,0 70.63887,-1.36219 79.49305,-1.36219c8.85419,0 64.02256,-7.78387 71.22266,-9.14606c7.10281,-1.45949 47.96827,-2.82168 54.58458,-2.82168c6.61631,0 35.31943,-7.68661 43.58982,-9.82715c8.27039,-2.04329 15.95699,-2.04329 21.50301,-4.18387c5.54602,-2.14055 24.90847,-4.96223 35.90325,-5.64332c11.09204,-0.6811 2.82164,-4.18383 -4.37847,-9.14606c-7.20011,-4.86496 -7.7839,1.36219 -27.63281,-3.50277c-19.84896,-4.96223 -35.31945,-4.96223 -46.31421,-5.64332c-10.99475,-0.6811 -47.96827,-8.465 -61.78469,-9.82715c-13.71912,-1.45949 -14.30291,1.36215 -49.62235,-5.64332c-35.31943,-7.00551 -72.87674,-7.68661 -83.87149,-9.82719c-10.99475,-2.14058 -40.76817,-14.69212 -52.9305,-16.83266c-10.11906,-1.75139 -49.33045,-3.50277 -63.43876,-4.47577v-5.93522c37.07081,7.29741 75.7957,7.9785 113.353,13.42723c13.52452,1.94599 25.88146,9.24339 39.79518,10.02179c16.44348,0.87566 32.01128,5.74062 48.74666,5.93522c16.83268,0.1946 33.85995,0.1946 50.30343,3.50274c10.60556,2.14058 20.14083,8.2704 30.94099,10.02179c11.48125,1.94595 23.25439,1.26485 34.73564,2.52974c13.42722,1.45949 27.82743,0.97299 41.54654,3.69737c11.57858,2.33514 23.44901,-1.07029 35.61135,0.77839c12.55153,1.84865 24.13007,9.92445 36.7789,11.48124c10.50829,1.36219 20.53004,-0.4865 30.55179,4.76763c3.60007,16.05431 -37.5573,18.38945 -43.97901,22.57332c0,0 -46.60609,4.57303 -56.53054,4.57303c-9.82719,0 -74.53082,4.57303 -90.68241,6.81091c-16.15159,2.23785 -77.25518,6.81091 -89.80672,6.81091z" data-paper-data="{&quot;origPos&quot;:null}"/><path d="M-64.09364,237.982c-10.99475,0 -46.31419,2.14058 -51.27642,2.14058c-3.60005,0 -22.5733,2.52978 -32.49777,3.98923v-4.96223c3.30815,-0.4865 6.71361,-0.97299 10.31367,-1.26489c11.38395,-0.77839 23.05979,-2.82164 34.54104,-2.91894c5.35143,-0.0973 10.41096,-1.65409 15.76239,-1.75139c5.25413,0 10.02177,1.16759 15.1786,1.16759c25.78416,-0.0973 50.88723,-3.98927 76.47679,-3.98927c11.38395,0 22.96249,1.75139 34.24915,0.5838c15.3732,-1.45945 30.3572,-4.37843 45.6331,-8.56226c15.85969,-4.37847 33.17886,-1.36219 48.94125,-7.00551c5.54603,-1.94599 11.28665,-4.47577 16.63808,-6.81091c3.79465,-1.65409 8.17309,-0.6811 11.57855,-2.82168c0.0973,-0.87569 0.0973,-1.65409 0,-2.52974c-3.30816,-0.5838 -5.93522,-3.60007 -8.95148,-4.76767c-3.30816,-1.36215 -6.71361,-1.16755 -10.31367,-1.16755c-4.67034,0 -9.14608,-0.2919 -13.71912,-1.55679c-3.40546,-0.97299 -6.22712,-4.37847 -9.63258,-4.76763c0,0 -4.86493,0.58376 -7.5893,0.58376c-5.05953,0 -13.71912,-2.72434 -18.87595,-2.82164c-8.36769,-0.0973 -16.34618,-1.75139 -24.51928,-4.08657c-14.10831,-4.08653 -28.11933,-12.74613 -42.81143,-14.78938c-12.94073,-1.84869 -26.07606,0.87569 -38.91949,-1.26489c-7.3947,-1.26489 -14.984,-1.75139 -22.18411,-3.89193c-4.28114,-1.16759 -8.36769,-4.18387 -12.45424,-5.25416c-3.79465,-0.97295 -7.7839,-0.6811 -11.38395,-2.23785c-3.40546,-1.36219 -5.93522,-3.50277 -9.43797,-4.28117c-9.43798,-2.04325 -19.07055,-5.74062 -28.50853,-5.83792c-9.04878,-0.0973 -18.00026,-1.16759 -27.14634,-1.16759c-6.32442,0 -15.76239,1.75139 -22.9625,-0.0973v-5.64332c14.10831,0.97299 53.3197,2.72438 63.43876,4.47577c12.06504,2.14055 41.93575,14.69208 52.9305,16.83266c10.99475,2.14058 48.55206,2.82168 83.87149,9.82719c35.31944,7.00547 35.80593,4.28113 49.62235,5.64332c13.81641,1.36215 50.78993,9.14606 61.78468,9.82715c10.99475,0.6811 26.46525,0.77839 46.31417,5.64332c19.94624,4.86496 20.43274,-1.36219 27.63285,3.50277c7.10281,4.96223 15.37321,8.46496 4.37847,9.14606c-11.09208,0.6811 -30.35723,3.50277 -35.90325,5.64332c-5.54602,2.04329 -13.23262,2.04329 -21.50301,4.18387c-8.27039,2.14055 -36.97351,9.82715 -43.58983,9.82715c-6.61631,0 -47.38447,1.45949 -54.58458,2.82168c-7.20011,1.45949 -62.36847,9.14606 -71.22266,9.14606c-8.85418,0 -68.49829,1.36219 -79.49305,1.36219z"/><path d="M37.29164,248.00379c-4.47574,0 -69.08209,0 -76.86598,1.45945c-6.61631,1.16759 -84.26069,5.44876 -108.58537,6.71361v-6.12982c17.51377,-1.36215 66.26043,-5.15682 77.25518,-5.15682c13.52452,0 91.65539,-3.40544 104.20692,-3.40544c12.55154,0 73.65513,-4.57307 89.80672,-6.81091c16.15159,-2.23788 80.75792,-6.81091 90.68241,-6.81091c9.82715,0 56.53054,-4.57303 56.53054,-4.57303c6.42171,-4.08657 47.57908,-6.51901 43.97901,-22.57332c-10.11905,-5.25412 -20.04354,-3.40544 -30.55179,-4.76763c-12.55153,-1.55679 -24.13007,-9.53529 -36.7789,-11.48124c-12.16233,-1.84869 -23.93551,1.55675 -35.61135,-0.77839c-13.62181,-2.72438 -28.11932,-2.14058 -41.54654,-3.69737c-11.48125,-1.26489 -23.25439,-0.6811 -34.73564,-2.52974c-10.89746,-1.75139 -20.33543,-7.8812 -30.94099,-10.02179c-16.44348,-3.30814 -33.47076,-3.30814 -50.30343,-3.50274c-16.73538,-0.1946 -32.30318,-4.96226 -48.74666,-5.93522c-13.91372,-0.77839 -26.27066,-8.0758 -39.79518,-10.02179c-37.5573,-5.44872 -76.28219,-6.22712 -113.353,-13.42723v-7.49201c19.16785,1.75139 69.95778,6.61631 76.28219,7.7839c7.7839,1.36219 54.58458,11.28664 65.67663,12.74613c11.18935,1.45949 43.49253,7.10281 49.03855,7.10281c5.64333,0 44.56281,-2.82164 51.27642,1.45949c6.71361,4.28113 52.34671,14.10832 64.60635,15.56777c12.25964,1.36219 73.55783,2.82168 85.81746,5.64336c12.25963,2.82164 37.84919,4.18383 47.87098,8.46496c10.02175,4.18387 47.87094,11.28668 55.65485,11.28668c7.7839,0 57.89273,-1.45949 62.3685,-4.28117c4.37843,-2.82164 21.11379,-4.28113 25.58956,-4.28113c4.37843,0 41.15733,5.64332 45.6331,5.64332c2.52974,0 14.98398,-0.97299 25.20036,-1.75139v19.26514c-11.18938,3.60007 -28.50854,11.18938 -31.91398,12.25963c-4.47577,1.45949 -28.99504,1.45949 -36.77894,0c-7.88117,-1.45945 -40.08708,-4.28113 -51.27642,0c-11.18934,4.18387 -25.68686,5.64336 -41.25463,8.465c-15.56781,2.91898 -57.89277,1.45949 -67.91452,1.45949c-10.02175,0 -58.96303,4.28113 -65.67664,4.28113c-6.71361,0 -77.93626,4.28117 -86.88775,4.28117c-8.85419,0 -83.4823,5.64332 -87.95804,5.64332z"/><path d="M-103.49961,234.96576c-11.48125,0.0973 -23.15709,2.14055 -34.54105,2.91894c-3.60005,0.1946 -7.00551,0.77839 -10.31366,1.26489v-5.35142c4.86494,-1.26489 10.21637,-1.94599 14.49751,-2.23788c17.12458,-1.36219 34.73564,-0.5838 51.95751,-0.5838c14.49751,0 29.09232,-2.43244 43.58983,-3.98923c10.41096,-1.07029 20.91922,-3.89193 31.42748,-3.98923c11.96774,-0.1946 23.25439,-1.36219 34.63834,-4.47577c18.68135,-4.96223 38.82219,-0.2919 57.89274,-4.37843c8.07579,-1.94599 9.82717,-6.51901 9.82717,-6.51901c-0.29189,-5.44872 -3.89195,-4.18383 -6.81091,-5.05952c-7.00551,-2.23788 -14.01101,-6.90821 -21.30842,-9.24339c-5.05953,-1.55679 -10.31366,-1.36219 -15.56779,-2.14058c-5.74062,-0.87566 -10.02177,-4.67033 -15.1786,-8.17306c-6.42171,-4.37847 -13.81642,-4.96223 -20.91922,-3.89197c-9.34067,1.36219 -20.62733,3.98927 -29.48151,-0.5838c-3.98925,-1.94595 -6.90821,-5.54602 -10.99475,-6.81091c-2.52977,-0.77836 -5.54603,-0.77836 -8.17309,-1.16755c-3.11356,-0.3892 -6.32442,-0.77839 -9.34067,-1.16759c-8.65959,-1.07029 -14.7894,-5.35142 -22.37871,-9.14609c-7.5893,-3.79463 -18.68135,-5.74062 -27.04904,-5.74062c-18.87595,0.0973 -37.8492,-3.69733 -56.53055,-5.25412v-3.30818c7.2001,1.84869 16.63808,0.0973 22.9625,0.0973c9.04878,0 18.09756,1.07029 27.14634,1.16759c9.43797,0.0973 19.16785,3.79467 28.50852,5.83792c3.50276,0.77839 6.12982,2.82168 9.43797,4.28117c3.60005,1.45945 7.6866,1.26489 11.38395,2.23785c4.08655,1.07029 8.17309,3.98927 12.45424,5.25416c7.2974,2.14055 14.7894,2.62704 22.1841,3.89193c12.84343,2.23788 26.07606,-0.4865 38.91949,1.26489c14.69211,2.04325 28.70312,10.80014 42.81143,14.78938c8.17309,2.23788 16.15159,3.98927 24.51928,4.08657c5.15683,0 13.81641,2.82164 18.87595,2.82164c2.62707,0 7.5893,-0.5838 7.5893,-0.5838c3.40546,0.3892 6.22712,3.79467 9.63257,4.76767c4.57304,1.26489 9.04878,1.55679 13.71912,1.55679c3.60005,0 7.00551,-0.0973 10.31366,1.16755c3.11356,1.07029 5.64332,4.18387 8.95148,4.76767c0.1946,0.87566 0.0973,1.65405 0,2.52974c-3.40546,2.14058 -7.7839,1.16759 -11.57855,2.82168c-5.35143,2.33514 -11.09205,4.86493 -16.63808,6.81091c-15.76239,5.64332 -33.08156,2.62704 -48.94126,7.00551c-15.2759,4.18383 -30.2599,7.00551 -45.6331,8.56226c-11.28665,1.16759 -22.8652,-0.5838 -34.24915,-0.5838c-25.58956,0 -50.59533,3.89197 -76.47679,3.98927c-5.15683,0 -9.92447,-1.26489 -15.1786,-1.16759c-5.35143,0.0973 -10.41096,1.65409 -15.76239,1.75139z"/><path d="M-120.13768,225.13857c-6.61631,0.97299 -13.13533,2.82168 -19.75164,3.69737c-2.33517,0.2919 -5.35143,0.4865 -8.17309,0.87569v-7.00551c2.91896,-0.4865 6.22712,-0.3892 8.17309,-0.77839c5.83792,-1.26489 11.87044,-2.33518 17.61107,-4.28117c5.35143,-1.84865 9.43798,-3.11354 15.0813,-3.11354c5.44873,0 10.41096,-1.75139 15.76239,-2.23788c8.56228,-0.87569 16.92997,-0.2919 25.49226,-1.84865c3.79465,-0.6811 7.8812,-0.6811 11.77315,-1.36219c2.91896,-0.3892 5.25413,-1.45949 7.9785,-2.82168c1.07028,-0.4865 4.18384,-1.36219 4.76763,-3.01624c1.36218,-3.98927 -5.74062,-6.12982 -7.88119,-8.2704c-4.96224,-4.96223 -11.09205,-3.01628 -16.83268,-5.74062c-4.96224,-2.33518 -8.27039,-7.39471 -12.45424,-10.80018c-2.52977,-2.04325 -7.10281,-3.79463 -10.11907,-4.18383c-6.22712,-0.87569 -12.25964,0.1946 -18.38945,-1.75139c-3.89195,-1.26485 -7.492,-3.69733 -11.28665,-4.47573c-9.72987,-1.94599 -19.65434,-2.72438 -29.57881,-2.91898v-8.65956c0.48649,0 1.07029,0 1.55678,0.0973c5.54603,0.6811 10.99475,1.36219 16.63808,1.84869c11.57855,0.97295 23.54629,-0.6811 34.63834,4.18383c3.50276,1.55679 6.61631,2.23788 10.31366,2.43248c2.91896,0.09726 6.22712,-0.3892 8.75689,1.16755c7.20011,4.47577 13.91371,10.41099 21.89221,13.13533c5.64332,1.94599 11.18935,4.18387 16.83268,6.42171c4.47574,1.75139 9.43798,1.94599 12.94073,5.54602c6.22712,6.42171 10.80016,8.8542 19.36244,8.8542c3.30816,0.0973 6.61631,0.2919 9.82717,0.87569c1.84868,0.2919 6.61631,-0.1946 7.8812,0.97299c4.47574,3.98923 -9.53527,10.41095 -12.74613,11.09204c-9.53528,1.84869 -19.75164,-1.07029 -29.38421,0.5838c-6.81091,1.16759 -13.32992,3.01628 -20.23813,3.40544c-8.75688,0.4865 -17.41647,2.14058 -26.07606,3.21088c-7.492,0.87569 -14.7894,3.11358 -22.2814,4.08653c-7.3947,0.97299 -14.7894,-0.3892 -22.18411,0.6811z"/><path d="M33.69159,253.74441c-5.64333,0 -63.82796,0 -69.56858,0c-4.86494,0 -86.79045,5.15682 -112.18542,6.81091v-4.28117c24.32468,-1.36215 101.96906,-5.54602 108.58536,-6.71361c7.7839,-1.45945 72.39025,-1.45945 76.86599,-1.45945c4.37844,0 79.00656,-5.64332 87.95804,-5.64332c8.95148,0 80.17414,-4.28117 86.88775,-4.28117c6.61631,0 55.65489,-4.28113 65.67664,-4.28113c10.02175,0 52.34671,1.36219 67.91452,-1.45949c15.66507,-2.82164 30.06529,-4.18383 41.25463,-8.465c11.18934,-4.28113 43.49251,-1.45945 51.27642,0c7.7839,1.45949 32.30317,1.45949 36.77894,0c3.40544,-1.07025 20.7246,-8.65956 31.91398,-12.25963v12.84343c-5.93522,0.2919 -13.52452,0.77839 -17.2219,1.94599c-6.61631,2.04329 -18.09755,5.25412 -24.61657,7.29741c-6.51901,2.14058 -113.83948,4.18383 -119.5801,5.25412c-5.74066,1.07029 -97.49331,2.04329 -103.23397,3.11358c-5.74062,1.07025 -90.87698,5.25412 -99.92576,5.25412c-8.95148,0 -103.13664,6.22712 -108.87726,6.22712z"/><path d="M33.88618,283.51779c-12.55153,-0.87569 -154.31576,0.6811 -182.14319,0.97299v-4.96223c19.94623,-0.3892 88.05534,-1.84869 93.30947,-1.84869c6.12982,0 81.04983,0 94.18516,0c13.13533,0 54.87648,1.94599 75.6984,-0.97299c20.82193,-2.91894 66.35773,-2.91894 83.385,-2.91894c17.02729,0 47.18988,1.94595 54.09809,1.94595c6.90821,0 57.11434,-2.91894 66.35773,-3.89193c9.34066,-1.07029 57.21164,-3.01624 65.67664,-5.93522c8.46496,-2.91898 60.22788,-3.89193 71.80645,-3.89193c9.82715,0 36.487,0.68106 50.69262,1.45945v7.9785c-20.53004,-0.77839 -67.71992,-2.52978 -76.08762,-2.52978c-10.80014,0 -80.36872,8.8542 -88.05532,8.8542c-7.68661,0 -37.84919,-0.97299 -49.42773,1.94599c-11.57858,2.91894 -22.37872,3.89193 -14.69212,3.89193c7.68661,0 44.75741,0.97299 58.67113,0.97299c13.91372,0 61.78467,-0.97299 71.80645,-3.89193c10.02175,-2.91898 66.45503,0 74.91999,0c5.35142,0 15.76241,0.77839 22.86522,1.36215v5.05956c-29.48153,-3.21088 -87.56886,-1.36219 -100.80149,1.45945c-13.91372,2.91898 -60.22788,2.91898 -82.6066,2.91898c-22.37872,0 -62.56306,-6.90821 -92.62839,-7.8812c-30.16259,-0.97299 -66.45501,1.94599 -86.49855,1.94599c-20.04354,0 -96.52033,-0.97299 -110.43404,-1.94599z"/><path d="M-81.802,231.17109c-17.22187,0 -34.83294,-0.77839 -51.95751,0.5838c-4.28115,0.2919 -9.63257,0.97299 -14.49751,2.23788v-4.37843c2.82166,-0.3892 5.83792,-0.5838 8.17309,-0.87569c6.61631,-0.87569 13.13532,-2.72438 19.75164,-3.69737c7.3947,-1.16759 14.8867,0.2919 22.18411,-0.6811c7.492,-0.97295 14.7894,-3.21084 22.28141,-4.08653c8.75688,-0.97299 17.41647,-2.72438 26.07605,-3.21088c6.81091,-0.38916 13.42723,-2.23785 20.23813,-3.40544c9.63257,-1.55679 19.84894,1.36219 29.38421,-0.5838c3.21086,-0.5838 17.22187,-7.00551 12.74613,-11.09204c-1.26488,-1.07029 -6.03252,-0.6811 -7.8812,-0.97299c-3.21086,-0.5838 -6.51901,-0.87569 -9.82717,-0.87569c-8.56229,0 -13.13533,-2.43248 -19.36245,-8.8542c-3.50275,-3.69733 -8.46499,-3.79463 -12.94073,-5.54602c-5.64332,-2.14055 -11.18935,-4.47573 -16.83268,-6.42171c-7.97849,-2.72434 -14.6921,-8.65956 -21.89221,-13.13533c-2.52977,-1.55675 -5.74062,-1.07025 -8.75688,-1.16755c-3.69735,-0.1946 -6.81091,-0.87569 -10.31367,-2.43248c-11.09205,-4.86493 -23.05979,-3.21088 -34.63834,-4.18383c-5.64332,-0.4865 -11.09205,-1.16759 -16.63808,-1.84869c-0.48649,0 -0.97299,-0.0973 -1.55678,-0.0973v-7.10281c18.68135,1.45949 37.6546,5.35142 56.53055,5.25412c8.36769,0 19.45974,1.94599 27.04904,5.74062c7.5893,3.79467 13.71912,8.0758 22.37871,9.14609c3.01626,0.3892 6.22712,0.77839 9.34067,1.16759c2.62707,0.3892 5.54603,0.3892 8.17309,1.16755c4.08654,1.16759 7.10281,4.76767 10.99475,6.81091c8.85418,4.57307 20.14083,1.94599 29.48151,0.5838c7.10281,-1.07029 14.59481,-0.4865 20.91922,3.89197c5.15683,3.50274 9.34067,7.29741 15.1786,8.17306c5.25413,0.77839 10.50826,0.4865 15.56779,2.14058c7.2974,2.33518 14.20562,7.00551 21.30842,9.24339c2.82166,0.97299 6.42171,-0.3892 6.81091,5.05952c0,0 -1.65408,4.47573 -9.82717,6.51901c-19.07055,4.08653 -39.21138,-0.6811 -57.89273,4.37843c-11.48125,3.11358 -22.6706,4.37847 -34.63834,4.47577c-10.50826,0.0973 -21.01652,2.91894 -31.42749,3.98923c-14.49751,1.45949 -29.09232,3.98923 -43.58982,3.98923z"/><path d="M137.50931,253.54981c-4.08655,0 -108.09888,4.18383 -117.92605,4.18383c-8.56228,0 -135.53711,5.54602 -167.84028,7.00551v-4.28113c25.39496,-1.65409 107.32048,-6.81091 112.18542,-6.81091c5.64333,0 63.82796,0 69.56858,0c5.64332,0 99.82848,-6.22712 108.87726,-6.22712c9.04878,0 94.18514,-4.18387 99.9258,-5.25412c5.74062,-1.07029 97.49328,-2.04329 103.23393,-3.11358c5.74062,-1.07029 113.06109,-3.21084 119.5801,-5.25412c6.61631,-2.04329 18.09755,-5.25412 24.61657,-7.29741c3.69737,-1.16759 11.28668,-1.75139 17.2219,-1.94599v15.47051c-9.82719,0.0973 -29.18963,0.2919 -32.78967,1.07029c-4.86493,0.97299 -25.39496,0 -31.91398,-1.07029c-6.61631,-1.07029 -71.31996,4.18383 -77.83897,4.18383c-6.51901,0 -95.74197,4.18387 -104.79072,4.18387c-8.9515,0 -117.92605,5.25412 -122.0126,5.25412z"/><path d="M46.72961,268.92298c-43.29793,0 -84.84448,4.96226 -127.85051,4.96226l-67.03882,0.87569v-4.76767c42.13034,-1.75135 249.5712,-10.11905 255.50643,-10.11905c6.51901,0 145.75348,-5.25412 153.14819,-5.25412c7.39471,0 101.48255,-3.11358 106.44477,-3.11358c4.96226,0 68.01182,-5.25412 73.75244,-4.18383c5.74062,1.07029 17.22186,1.07029 21.30843,1.07029c4.08653,0 4.86493,-1.07029 16.34617,-1.07029c8.1731,0 21.50303,1.07029 28.70314,1.65409v6.51901c-11.87044,-2.43248 -26.95175,-1.26489 -37.55733,-1.36219c-19.07055,-0.1946 -38.72489,-0.1946 -57.40624,0.97299c-24.81117,1.65405 -49.62233,7.88117 -74.0443,8.85416c-23.15712,0.97299 -46.41149,4.28117 -69.56861,3.98927c-13.52449,-0.1946 -27.14631,-1.94599 -40.86543,-1.94599c-31.91399,0.0973 -63.53607,-2.33518 -95.45005,0c-28.41122,2.04329 -56.62785,2.91894 -85.33098,2.91894z"/><path d="M260.5922,254.7174c-7.39471,0 -146.62918,5.25412 -153.14819,5.25412c-5.93522,0 -213.47338,8.3677 -255.50643,10.11905v-5.25412c32.30317,-1.45949 159.278,-7.00551 167.84028,-7.00551c9.82717,0 113.8395,-4.18383 117.92604,-4.18383c4.08655,0 112.9638,-5.25412 122.0126,-5.25412c8.95146,0 98.27171,-4.18387 104.79072,-4.18387c6.61631,0 71.31996,-5.25412 77.83897,-4.18383c6.51901,1.07029 26.95175,2.14058 31.91398,1.07029c3.69733,-0.77839 22.96248,-0.97299 32.78967,-1.07029v8.9515c-7.20011,-0.5838 -20.62733,-1.65409 -28.70314,-1.65409c-11.48124,0 -12.25963,1.07029 -16.34617,1.07029c-4.08657,0 -15.56781,0 -21.30843,-1.07029c-5.74062,-1.07029 -68.79018,4.18383 -73.75244,4.18383c-4.86493,0 -99.05006,3.11358 -106.44477,3.11358z"/><path d="M39.52951,277.87448c-13.13533,0 -87.95804,0 -94.18516,0c-5.25413,0 -73.26593,1.45949 -93.30947,1.84869v-4.86493l67.03881,-0.87569c43.00603,0 84.55259,-4.96226 127.85051,-4.96226c28.70312,0 56.91975,-0.87566 85.33098,-2.91894c31.91398,-2.33518 63.53606,0.0973 95.45005,0c13.71912,-0.0973 27.34095,1.75139 40.86543,1.94599c23.15712,0.2919 46.31419,-3.11358 69.56861,-3.98927c24.42197,-0.97299 49.23313,-7.20011 74.0443,-8.85416c18.68135,-1.16759 38.33569,-1.16759 57.40624,-0.97299c10.60558,0.0973 25.6869,-1.07029 37.55733,1.36219v7.97847c-14.20562,-0.77839 -40.96277,-1.45945 -50.69266,-1.45945c-11.57854,0 -63.34145,0.97295 -71.80642,3.89193c-8.5623,3.01624 -56.43328,4.96223 -65.67664,5.93522c-9.24339,0.97299 -59.44952,3.89193 -66.35773,3.89193c-7.00551,0 -37.0708,-1.94595 -54.09809,-1.94595c-16.92998,0 -62.56308,0 -83.385,2.91894c-20.91922,2.91898 -62.56307,0.97299 -75.6984,0.97299z"/><path d="M-12.33071,319.90754c-4.86494,0 -20.33543,2.82164 -23.93548,-1.94599c7.00551,-5.54602 26.56255,-4.47573 34.73564,-3.01628c6.32442,1.16759 16.73538,5.83792 20.91922,11.87048c-3.79465,5.15682 -17.12458,-1.36219 -22.47601,-1.94599l-9.24338,-4.86493z"/><path d="M160.56911,31.31954c-4.67034,-0.97299 -52.54131,-3.98925 -61.00629,-6.90821c-6.61631,-2.33517 91.1689,0 101.96906,-1.94597c10.80014,-1.94597 94.18514,-5.83792 105.76368,-3.89195c11.57858,1.94597 61.7847,2.91896 71.0281,3.89195c9.24336,0.97299 40.18434,-0.97299 34.73562,1.94597c-5.35142,2.91896 -86.49853,2.91896 -93.40674,3.89195c-6.90821,0.97299 -96.42306,2.91896 -102.65018,2.91896c-6.12982,0 -51.6656,0.97299 -56.33594,0z"/></g></g></g></svg>