<svg version="1.1" xmlns="http://www.w3.org/2000/svg" xmlns:xlink="http://www.w3.org/1999/xlink" width="10.47632" height="58.6822" viewBox="0,0,10.47632,58.6822"><g transform="translate(-234.76184,-150.6589)"><g data-paper-data="{&quot;isPaintingLayer&quot;:true}" fill-rule="nonzero" stroke-linecap="butt" stroke-linejoin="miter" stroke-miterlimit="10" stroke-dasharray="" stroke-dashoffset="0" style="mix-blend-mode: normal"><path d="M238.56766,150.6589c0,0 1.6718,0.09832 1.91989,0.09832c2.6237,0 4.75061,13.11437 4.75061,29.29193c0,16.17755 -2.12691,29.29195 -4.75061,29.29195c-0.32935,0 -1.8445,-0.01126 -1.8445,-0.01126" fill="#9c9055" stroke="none" stroke-width="0.03528"/><path d="M234.76184,180.04915c0,-16.17755 1.65445,-29.29193 3.69532,-29.29193c2.04088,0 3.69532,13.11437 3.69532,29.29193c0,16.17755 -1.65445,29.29195 -3.69532,29.29195c-2.04088,0 -3.69532,-13.1144 -3.69532,-29.29195" fill="#f6d738" stroke="none" stroke-width="0.03528"/><path d="M235.321,180.04915c0,-13.72954 1.40412,-24.85968 3.13618,-24.85968c1.73206,0 3.13617,11.13013 3.13617,24.85968c0,13.72957 -1.40412,24.85968 -3.13617,24.85968c-1.73206,0 -3.13618,-11.13011 -3.13618,-24.85968" fill="#f3cc30" stroke="none" stroke-width="0.03528"/><path d="M240.09798,158.83135c0.8971,4.37441 1.49536,12.22716 1.49536,21.18848c0,13.72967 -1.40412,24.85968 -3.13618,24.85968c-1.11005,0 -2.0854,-4.57159 -2.64276,-11.46905c0.47735,2.32757 1.03927,3.67112 1.64081,3.67112c1.73206,0 3.13618,-11.13 3.13618,-24.85968c0,-4.93048 -0.18108,-9.52564 -0.49339,-13.39054" fill="#edbd31" stroke="none" stroke-width="0.03528"/><path d="M235.87037,182.32378c0,3.98279 0.13387,7.71757 0.36786,10.93747c-0.3598,-3.70325 -0.57393,-8.34161 -0.57393,-13.37723c0,-12.11967 1.23947,-21.9446 2.76842,-21.9446c1.02653,0 1.92253,4.42878 2.40058,11.00721c-0.50616,-5.20981 -1.3008,-8.56745 -2.19451,-8.56745c-1.52895,0 -2.76842,9.82493 -2.76842,21.9446" fill="#f7db5e" stroke="none" stroke-width="0.03528"/><path d="M238.5706,181.82169c-0.07623,0.15359 -0.14503,0.49225 -0.19464,1.00788c-0.12559,1.30529 -0.08068,3.25032 0.10029,4.34438c0.02354,0.14248 0.04877,0.26633 0.07536,0.36976c-0.101,0.23392 -0.43398,-1.1343 -0.47268,-3.32515c-0.03638,-2.05947 0.16568,-4.13449 0.42421,-4.87921l-0.08134,-2.9926c-0.07279,0.63963 -0.17049,1.47 -0.30152,2.54385c-0.16302,1.33598 -0.29176,3.0041 -0.26575,4.98971c0.04042,3.08538 0.38873,5.32682 0.77796,5.00639c0.04227,-0.03465 0.08408,-0.09921 0.1249,-0.1929zM238.79179,189.95979c-0.02696,0.06697 -0.05481,0.10926 -0.08299,0.12606c-0.66118,0.42752 -1.125,-3.23777 -1.125,-7.42969c0,-4.11433 0.25117,-6.30857 0.74062,-9.89166l-0.06232,-2.29274c-0.02637,-1.05018 -0.04416,-2.26443 -0.02937,-3.585c0.03596,-3.21127 0.23656,-5.69381 0.44804,-5.54493c0.21148,0.14875 0.35376,2.87264 0.31779,6.08386c-0.03026,2.70122 -0.17699,4.88686 -0.36655,6.8811c-0.0029,0.04645 -0.02147,0.31265 -0.11061,1.14215l0.09926,3.65197c0.02746,-0.03287 0.0552,-0.04947 0.08297,-0.04964c0.34382,0 0.62689,2.22771 0.62689,5.1673c0,2.22395 -0.18632,4.40094 -0.42592,5.3291l0.11518,4.23785c0.00552,0.24366 0,0.50431 0,0.76062c0,2.32876 -0.23541,4.2167 -0.5292,4.2167c-0.25251,0 -0.46392,-1.39451 -0.51836,-3.26506c-0.03492,-0.91163 0.00784,-1.898 0.10608,-2.44693c0.09823,-0.54893 0.22981,-0.5367 0.32639,0.03034c0.09659,0.56704 0.13641,1.56109 0.0988,2.46598c-0.03761,0.90489 -0.14416,1.51666 -0.26436,1.51766c-0.0061,0 -0.01215,-0.00162 -0.01816,-0.00462c0.07518,0.50811 0.17079,0.78667 0.2696,0.7855c0.22989,0 0.41625,-1.47731 0.41625,-3.29959c0,-0.22476 -0.00284,-0.44422 -0.02273,-1.18958l-0.09232,-3.39676zM239.04158,186.95706c0.09484,-1.88861 0.07042,-3.41588 -0.11055,-4.50994c-0.07281,-0.44019 -0.15655,-0.67554 -0.23883,-0.71463l0.17966,6.60995c0.02517,-0.09809 0.04959,-0.20802 0.07312,-0.32918c0.0401,-0.26875 0.07437,-0.61332 0.09661,-1.0562zM238.7374,164.1424c-0.27499,0.47862 -0.46025,4.16289 -0.30593,7.76872c0.00507,0.11833 -0.00384,-0.11952 0,0c0.08472,-0.52062 0.18007,-1.10194 0.23962,-1.96848c0.15356,-2.23453 0.21598,-4.27357 0.11962,-5.6281c-0.01785,-0.22122 -0.03564,-0.20287 -0.05332,-0.17214z" fill="#b4832d" stroke="#b6842e" stroke-width="0"/></g></g></svg>