<svg version="1.1" xmlns="http://www.w3.org/2000/svg" xmlns:xlink="http://www.w3.org/1999/xlink" width="26.375" height="32.375" viewBox="0,0,26.375,32.375"><defs><linearGradient x1="227.58929" y1="180.00001" x2="252.41071" y2="180.00001" gradientUnits="userSpaceOnUse" id="color-1"><stop offset="0" stop-color="#306835"/><stop offset="1" stop-color="#042d08"/></linearGradient></defs><g transform="translate(-226.8125,-163.8125)"><g data-paper-data="{&quot;isPaintingLayer&quot;:true}" fill-rule="nonzero" stroke-linejoin="miter" stroke-miterlimit="10" stroke-dasharray="" stroke-dashoffset="0" style="mix-blend-mode: normal"><path d="M226.8125,196.1875v-32.375h26.375v32.375z" fill="none" stroke="#000000" stroke-width="0" stroke-linecap="butt"/><path d="M227.58929,193.31771c0,-2.25074 0,-16.31081 0,-26.75056c0,-0.70529 1.15456,-1.80723 1.89353,-1.80723c8.23134,0 18.94208,0 21.09178,0c0.71657,0 1.83611,0.9451 1.83611,1.55001c0,10.48994 0,24.47785 0,26.87916c0,0.80044 -1.27638,2.05102 -2.09333,2.05102c-2.45085,0 -12.86044,0 -21.09178,0c-0.63859,0 -1.63631,-1.17217 -1.63631,-1.92242z" data-paper-data="{&quot;origPos&quot;:null}" fill="url(#color-1)" stroke="#000000" stroke-width="1.5" stroke-linecap="butt"/><text transform="translate(230.62663,174.02641) scale(0.18674,0.18674)" font-size="40" xml:space="preserve" data-paper-data="{&quot;origPos&quot;:null}" fill="#686868" fill-rule="nonzero" stroke="#797979" stroke-width="1" stroke-linecap="butt" stroke-linejoin="miter" stroke-miterlimit="10" stroke-dasharray="" stroke-dashoffset="0" font-family="Sans Serif" font-weight="normal" text-anchor="start" style="mix-blend-mode: normal"><tspan x="0" dy="0">GUÍA</tspan></text><path d="M234.82841,180.7532v-2.54001h2.48698" data-paper-data="{&quot;origPos&quot;:null}" fill="#616161" stroke="#686868" stroke-width="0.5" stroke-linecap="round"/><path d="M242.2871,178.21319h2.60953v2.54001" data-paper-data="{&quot;origPos&quot;:null}" fill="#616161" stroke="#686868" stroke-width="0.5" stroke-linecap="round"/><path d="M234.82841,182.6099v2.54001" data-paper-data="{&quot;origPos&quot;:null}" fill="#929292" stroke="#686868" stroke-width="0.5" stroke-linecap="round"/><path d="M244.89663,185.14991v-2.54001" data-paper-data="{&quot;origPos&quot;:null}" fill="#929292" stroke="#686868" stroke-width="0.5" stroke-linecap="round"/><path d="M237.39187,189.5886h-2.56346v-2.54002" data-paper-data="{&quot;origPos&quot;:null}" fill="#616161" stroke="#686868" stroke-width="0.5" stroke-linecap="round"/><path d="M244.89138,187.08497v2.54002h-2.56346" data-paper-data="{&quot;origPos&quot;:null,&quot;index&quot;:null}" fill="#616161" stroke="#686868" stroke-width="0.5" stroke-linecap="round"/></g></g></svg>