<svg version="1.1" xmlns="http://www.w3.org/2000/svg" xmlns:xlink="http://www.w3.org/1999/xlink" width="49.74924" height="49.74924" viewBox="0,0,49.74924,49.74924"><defs><radialGradient cx="225.37913" cy="164.88944" r="24.62462" gradientUnits="userSpaceOnUse" id="color-1"><stop offset="0" stop-color="#e3e3e3"/><stop offset="1" stop-color="#9d9d9d"/></radialGradient></defs><g transform="translate(-215.12538,-155.12538)"><g data-paper-data="{&quot;isPaintingLayer&quot;:true}" fill-rule="nonzero" stroke-linejoin="miter" stroke-miterlimit="10" stroke-dasharray="" stroke-dashoffset="0" style="mix-blend-mode: normal"><path d="M264.62462,167.84354v24.31292c0,6.88611 -5.58195,12.46816 -12.46816,12.46816h-24.31292c-6.88611,0 -12.46816,-5.58195 -12.46816,-12.46816v-24.31292c0,-6.88622 5.58205,-12.46816 12.46816,-12.46816h24.31292c6.88622,0 12.46816,5.58195 12.46816,12.46816z" fill="url(#color-1)" stroke="#696969" stroke-width="0.5" stroke-linecap="butt"/><path d="M229.48355,186.77388v-14.03505h21.0329v14.03505z" fill="#f6f6f6" stroke="none" stroke-width="0" stroke-linecap="butt"/><path d="M247.84353,179.24491h-15.68766" fill="none" stroke="#3c73ac" stroke-width="0.5" stroke-linecap="round"/><path d="M245.23567,176.73188h-10.47194" fill="none" stroke="#3c73ac" stroke-width="1" stroke-linecap="round"/><path d="M232.15587,181.60318h5.7037" fill="none" stroke="#3c73ac" stroke-width="0.5" stroke-linecap="round"/><path d="M239.04737,184.33169c0,-2.06877 1.67709,-3.74586 3.74586,-3.74586c2.06877,0 3.74586,1.67709 3.74586,3.74586c0,1.6837 -0.82373,2.27069 -1.04237,2.67205c0.64084,1.71922 1.73421,3.39578 1.07403,3.85175c-0.62186,0.35202 -1.19089,-0.07941 -1.19089,-0.07941c0,0 0.20485,1.05556 -0.63977,1.19394c-1.39797,0.22902 -1.76754,-3.89438 -1.76754,-3.89438l-0.42428,0.00895c0,0 -1.10922,3.80932 -1.74044,3.92176c-0.63553,0.11322 -0.9068,-1.13384 -0.9068,-1.13384c0,0 -1.04317,0.6149 -1.32372,-0.09425c-0.35229,-0.89051 1.62274,-3.76406 1.62274,-3.76406c0,0 -1.15267,-0.90926 -1.15267,-2.68251z" fill="#3c73ac" stroke="none" stroke-width="0" stroke-linecap="butt"/><path d="M240.53928,184.35349c0,-1.2518 1.01479,-2.26659 2.26659,-2.26659c1.2518,0 2.26659,1.01479 2.26659,2.26659c0,1.2518 -1.01479,2.26659 -2.26659,2.26659c-1.2518,0 -2.26659,-1.01479 -2.26659,-2.26659z" fill="#8fadce" stroke="none" stroke-width="0" stroke-linecap="butt"/></g></g></svg>