<svg version="1.1" xmlns="http://www.w3.org/2000/svg" xmlns:xlink="http://www.w3.org/1999/xlink" width="27" height="32" viewBox="0,0,27,32"><g transform="translate(-226.5,-164)"><g data-paper-data="{&quot;isPaintingLayer&quot;:true}" fill-rule="nonzero" stroke="none" stroke-linecap="butt" stroke-linejoin="miter" stroke-miterlimit="10" stroke-dasharray="" stroke-dashoffset="0" style="mix-blend-mode: normal"><path d="M226.5,196v-32h27v32z" fill="none" stroke-width="0"/><path d="M239.71429,171.35714c-0.42857,0 -1,0.14286 -1.42857,0.42857c-0.28571,0.85715 -0.42857,2.42858 -0.42857,3.14286c0,2.85714 0.28571,5 3,5v0.28571c-0.85714,1 -1.71429,2 -2.14286,3.28571c-4,0 -6.71429,-3.14286 -6.71429,-8.57142c2,-2.71429 5.14285,-5.14286 8.42857,-6c5.28571,0 7.57143,2.57143 7.57143,7c0,7.14285 -6.14286,13.14286 -12.57143,15.14286l-0.57142,-0.71429c5,-3.14286 7.28571,-6.71429 7.28571,-12.85715c0,-3 -0.28572,-6.14286 -2.42857,-6.14286z" fill="#ff0000" stroke-width="1"/></g></g></svg>