<svg version="1.1" xmlns="http://www.w3.org/2000/svg" xmlns:xlink="http://www.w3.org/1999/xlink" width="450.60182" height="248.056" viewBox="0,0,450.60182,248.056"><g transform="translate(-14.69909,-55.972)"><g data-paper-data="{&quot;isPaintingLayer&quot;:true}" fill-rule="nonzero" stroke="#000000" stroke-width="0.5" stroke-linecap="butt" stroke-linejoin="miter" stroke-miterlimit="10" stroke-dasharray="" stroke-dashoffset="0" style="mix-blend-mode: normal"><path d="M14.94909,269.34182c0,-53.25519 0,-154.45414 0,-183.20727c0,-14.54826 14.80586,-29.91254 31.1,-29.91254c49.03754,0 299.34089,0 387.90182,0c19.45126,0 31.1,18.06106 31.1,34.43618c0,29.22528 0,126.20638 0,178.68364c0,20.67057 -15.41409,34.43618 -32.23091,34.43618c-48.79516,0 -290.30358,0 -382.24727,0c-22.15321,0 -35.62363,-15.00817 -35.62363,-34.43618zM448.35721,261.16907c0,-60.56982 -1.22484,-109.95289 -1.12291,-160.19108c0.06402,-31.55167 -17.07662,-26.25522 -28.40887,-26.64345c0,0 -356.93797,-1.48291 -367.57532,-1.5023c-9.99999,-0.00754 -19.72438,5.51627 -20.12697,19.562c-0.02885,1.00646 0.32741,133.65622 0.45185,171.82345c0.03217,9.86738 8.67961,23.83312 23.61526,24.02225c14.92609,0.18901 285.23663,0.35832 366.5052,0.16834c24.55234,-0.29676 26.66176,-9.17477 26.66176,-27.23922z" fill="#000000"/><path d="M60.73352,272.88061v-97.14286h20v97.14286z" fill="#00c8ff"/><path d="M83.73352,270.73776v-95.71429h20v95.71429z" fill="#0030ff"/><path d="M106.23352,270.02347v-95h20v95z" fill="#ff00b3"/><path d="M128.73352,267.16632v-92.14285h20v92.14285z" fill="#ff0000"/><path d="M151.23352,266.45204v-91.42857h20v91.42857z" fill="#ff6600"/><path d="M173.73352,265.02347v-90h20v90z" fill="#fff800"/><path d="M196.23352,263.5949v-88.57143h20v88.57143z" fill="#3aff00"/><path d="M219.23352,262.88061v-87.85714h20v87.85714z" fill="#00c8ff"/><path d="M264.73352,260.02347v-85h20v85z" fill="#ff00b3"/><path d="M287.23352,258.5949v-83.57143h20v83.57143z" fill="#ff0000"/><path d="M309.73352,257.88061v-82.85714h20v82.85714z" fill="#ff6600"/><path d="M332.23352,257.16632v-82.14285h20v82.14285z" fill="#fff800"/><path d="M354.73352,256.45204v-81.42857h20v81.42857z" fill="#3aff00"/><path d="M377.23352,254.30919v-79.28572h20v79.28572z" fill="#00c8ff"/><path d="M399.26648,253.19807v-78.1746h20v78.1746z" fill="#0030ff"/><path d="M241.73352,261.45204v-86.42857h20v86.42857z" fill="#0030ff"/><path d="M92.16209,87.16633v95.01565h-20v-95.01564z" data-paper-data="{&quot;index&quot;:null}" fill="#6900ff"/><path d="M115.16209,87.1194v93.61835h-20v-93.61835z" data-paper-data="{&quot;index&quot;:null}" fill="#6900ff"/><path d="M160.16208,88.89834v90.12513h-20v-90.12513z" data-paper-data="{&quot;index&quot;:null}" fill="#6900ff"/><path d="M181.66209,88.8827v89.42649h-20v-89.42648z" data-paper-data="{&quot;index&quot;:null}" fill="#6900ff"/><path d="M227.66209,90.96299v86.63191h-20v-86.63191z" data-paper-data="{&quot;index&quot;:null}" fill="#6900ff"/><path d="M250.66209,90.94735v85.93326h-20v-85.93326z" data-paper-data="{&quot;index&quot;:null}" fill="#6900ff"/><path d="M318.66209,92.56779v81.74139h-20v-81.74139z" data-paper-data="{&quot;index&quot;:null}" fill="#6900ff"/><path d="M341.16209,92.55215v81.04275h-20v-81.04275z" data-paper-data="{&quot;index&quot;:null}" fill="#6900ff"/><path d="M386.87637,92.52086v79.64546h-20v-79.64546z" data-paper-data="{&quot;index&quot;:null}" fill="#6900ff"/><path d="M408.66209,93.47394v77.54953h-20v-77.54953z" data-paper-data="{&quot;index&quot;:null}" fill="#6900ff"/><path d="M273.16209,90.91606v84.53598h-20v-84.53597z" data-paper-data="{&quot;index&quot;:null}" fill="#6900ff"/></g></g></svg>