<svg version="1.1" xmlns="http://www.w3.org/2000/svg" xmlns:xlink="http://www.w3.org/1999/xlink" width="37.64155" height="34.6101" viewBox="0,0,37.64155,34.6101"><g transform="translate(-221.17922,-162.69495)"><g data-paper-data="{&quot;isPaintingLayer&quot;:true}" fill-rule="nonzero" stroke-linejoin="miter" stroke-miterlimit="10" stroke-dasharray="" stroke-dashoffset="0" style="mix-blend-mode: normal"><g stroke="none" stroke-width="0.03528" stroke-linecap="butt"><path d="M239.56852,167.0437c0.27877,0.26082 0.62974,0.40336 0.99177,0.40336h17.09412c0.64407,0 1.16637,0.58972 1.16637,1.31692v27.22414c0,0.72721 -0.5223,1.31692 -1.16637,1.31692h-35.30881c-0.64416,0 -1.16637,-0.58972 -1.16637,-1.31692v-28.54106v-3.43519c0,-0.72721 0.52221,-1.31692 1.16637,-1.31692h12.01169c0.36215,0 0.71295,0.14287 0.99189,0.40336l4.21935,3.94539" fill="#fdc23b"/><path d="M256.5549,168.10992c0.21518,0 0.38979,0.19681 0.38979,0.43976v22.85852c0,0.24296 -0.1746,0.44011 -0.38979,0.44011h-32.46667c-0.21525,0 -0.38973,-0.19714 -0.38973,-0.44011v-22.85852c0,-0.24296 0.17448,-0.43976 0.38973,-0.43976h32.46667" fill="#ffffff"/><path d="M257.6371,162.9849c0.64407,0 1.16637,0.75726 1.16637,1.69207v4.41374v26.80329c-0.09253,0.80014 -0.57095,1.41106 -1.14906,1.41106h-35.30881c-0.64416,0 -1.16637,-0.75771 -1.16637,-1.69207v-25.11124c0.0924,-0.80057 0.57094,-1.41105 1.14899,-1.41105h17.09404c0.36232,0 0.71302,-0.18359 0.99208,-0.51872l4.21928,-5.06882c0.27877,-0.33513 0.62974,-0.51828 0.99177,-0.51828h12.01169" fill="#ff7f2a"/></g><g><path d="M233.40967,184.1171c0.21758,-1.15766 1.50171,-1.79767 2.94879,-1.5257c1.44708,0.27198 2.20351,1.16321 1.98593,2.32087c-0.21758,1.15766 -1.43004,1.79135 -2.87713,1.51938c-1.44708,-0.27198 -2.27518,-1.1569 -2.0576,-2.31455z" data-paper-data="{&quot;origPos&quot;:null,&quot;origRot&quot;:0}" fill="#520100" stroke="none" stroke-width="0.5" stroke-linecap="butt"/><path d="M241.36467,187.08336c0,-1.17793 1.12168,-1.84506 2.5941,-1.84506c1.47242,0 2.66605,0.95491 2.66605,2.13284c0,1.17793 -1.26558,1.98894 -2.738,1.98894c-1.47242,0 -2.52216,-1.0988 -2.52216,-2.27672z" data-paper-data="{&quot;origPos&quot;:null}" fill="#520100" stroke="none" stroke-width="0.5" stroke-linecap="butt"/><path d="M237.88693,184.9506c0,0 0.11998,-1.86824 0.15072,-3.20215c0.05349,-2.32093 0.06512,-6.16292 0.06512,-6.16292l8.06109,1.21873v10.29601" data-paper-data="{&quot;origPos&quot;:null}" fill="none" stroke="#520100" stroke-width="1" stroke-linecap="round"/><path d="M238.10278,176.57587v-0.71095l7.93701,1.32019v0.52051z" data-paper-data="{&quot;origPos&quot;:null}" fill="none" stroke="#520100" stroke-width="1" stroke-linecap="butt"/><path d="M234.70159,183.61569c0,0 1.26133,-0.8027 2.05621,0.03095" data-paper-data="{&quot;origPos&quot;:null,&quot;origRot&quot;:0}" fill="none" stroke="#ffffff" stroke-width="0.5" stroke-linecap="round"/><path d="M242.73276,186.31572c0,0 0.94747,-0.80602 1.88266,-0.13356" data-paper-data="{&quot;origPos&quot;:null}" fill="none" stroke="#ffffff" stroke-width="0.5" stroke-linecap="round"/></g></g></g></svg>