<svg version="1.1" xmlns="http://www.w3.org/2000/svg" xmlns:xlink="http://www.w3.org/1999/xlink" width="450.60182" height="248.056" viewBox="0,0,450.60182,248.056"><defs><linearGradient x1="70.73352" y1="175.73775" x2="70.73352" y2="272.88061" gradientUnits="userSpaceOnUse" id="color-1"><stop offset="0" stop-color="#ffffff"/><stop offset="1" stop-color="#8a8a8a"/></linearGradient><linearGradient x1="93.73352" y1="175.02346" x2="93.73352" y2="270.73775" gradientUnits="userSpaceOnUse" id="color-2"><stop offset="0" stop-color="#ffffff"/><stop offset="1" stop-color="#8a8a8a"/></linearGradient><linearGradient x1="116.23352" y1="175.02346" x2="116.23352" y2="270.02346" gradientUnits="userSpaceOnUse" id="color-3"><stop offset="0" stop-color="#ffffff"/><stop offset="1" stop-color="#8a8a8a"/></linearGradient><linearGradient x1="138.73352" y1="175.02347" x2="138.73352" y2="267.16632" gradientUnits="userSpaceOnUse" id="color-4"><stop offset="0" stop-color="#ffffff"/><stop offset="1" stop-color="#8a8a8a"/></linearGradient><linearGradient x1="161.23352" y1="175.02346" x2="161.23352" y2="266.45203" gradientUnits="userSpaceOnUse" id="color-5"><stop offset="0" stop-color="#ffffff"/><stop offset="1" stop-color="#8a8a8a"/></linearGradient><linearGradient x1="183.73352" y1="175.02346" x2="183.73352" y2="265.02346" gradientUnits="userSpaceOnUse" id="color-6"><stop offset="0" stop-color="#ffffff"/><stop offset="1" stop-color="#8a8a8a"/></linearGradient><linearGradient x1="206.23352" y1="175.02346" x2="206.23352" y2="263.59489" gradientUnits="userSpaceOnUse" id="color-7"><stop offset="0" stop-color="#ffffff"/><stop offset="1" stop-color="#8a8a8a"/></linearGradient><linearGradient x1="229.23352" y1="175.02347" x2="229.23352" y2="262.88061" gradientUnits="userSpaceOnUse" id="color-8"><stop offset="0" stop-color="#ffffff"/><stop offset="1" stop-color="#8a8a8a"/></linearGradient><linearGradient x1="274.73352" y1="175.02346" x2="274.73352" y2="260.02346" gradientUnits="userSpaceOnUse" id="color-9"><stop offset="0" stop-color="#ffffff"/><stop offset="1" stop-color="#8a8a8a"/></linearGradient><linearGradient x1="297.23352" y1="175.02346" x2="297.23352" y2="258.59489" gradientUnits="userSpaceOnUse" id="color-10"><stop offset="0" stop-color="#ffffff"/><stop offset="1" stop-color="#8a8a8a"/></linearGradient><linearGradient x1="319.73352" y1="175.02347" x2="319.73352" y2="257.88061" gradientUnits="userSpaceOnUse" id="color-11"><stop offset="0" stop-color="#ffffff"/><stop offset="1" stop-color="#8a8a8a"/></linearGradient><linearGradient x1="342.23352" y1="175.02347" x2="342.23352" y2="257.16632" gradientUnits="userSpaceOnUse" id="color-12"><stop offset="0" stop-color="#ffffff"/><stop offset="1" stop-color="#8a8a8a"/></linearGradient><linearGradient x1="364.73352" y1="175.02346" x2="364.73352" y2="256.45203" gradientUnits="userSpaceOnUse" id="color-13"><stop offset="0" stop-color="#ffffff"/><stop offset="1" stop-color="#8a8a8a"/></linearGradient><linearGradient x1="387.23352" y1="175.02346" x2="387.23352" y2="254.30918" gradientUnits="userSpaceOnUse" id="color-14"><stop offset="0" stop-color="#ffffff"/><stop offset="1" stop-color="#8a8a8a"/></linearGradient><linearGradient x1="409.26648" y1="175.02346" x2="409.26648" y2="253.19806" gradientUnits="userSpaceOnUse" id="color-15"><stop offset="0" stop-color="#ffffff"/><stop offset="1" stop-color="#8a8a8a"/></linearGradient><linearGradient x1="251.73352" y1="175.02346" x2="251.73352" y2="261.45203" gradientUnits="userSpaceOnUse" id="color-16"><stop offset="0" stop-color="#ffffff"/><stop offset="1" stop-color="#8a8a8a"/></linearGradient><linearGradient x1="82.16209" y1="87.16632" x2="82.16209" y2="182.18197" gradientUnits="userSpaceOnUse" id="color-17"><stop offset="0" stop-color="#ffffff"/><stop offset="1" stop-color="#8a8a8a"/></linearGradient><linearGradient x1="105.16209" y1="87.11939" x2="105.16209" y2="180.73774" gradientUnits="userSpaceOnUse" id="color-18"><stop offset="0" stop-color="#ffffff"/><stop offset="1" stop-color="#8a8a8a"/></linearGradient><linearGradient x1="150.16209" y1="88.89833" x2="150.16209" y2="179.02346" gradientUnits="userSpaceOnUse" id="color-19"><stop offset="0" stop-color="#ffffff"/><stop offset="1" stop-color="#8a8a8a"/></linearGradient><linearGradient x1="172.66209" y1="88.88269" x2="172.66209" y2="178.30918" gradientUnits="userSpaceOnUse" id="color-20"><stop offset="0" stop-color="#ffffff"/><stop offset="1" stop-color="#8a8a8a"/></linearGradient><linearGradient x1="217.66209" y1="90.96298" x2="217.66209" y2="177.59489" gradientUnits="userSpaceOnUse" id="color-21"><stop offset="0" stop-color="#ffffff"/><stop offset="1" stop-color="#8a8a8a"/></linearGradient><linearGradient x1="240.66209" y1="90.94734" x2="240.66209" y2="176.8806" gradientUnits="userSpaceOnUse" id="color-22"><stop offset="0" stop-color="#ffffff"/><stop offset="1" stop-color="#8a8a8a"/></linearGradient><linearGradient x1="308.66209" y1="92.56778" x2="308.66209" y2="174.30917" gradientUnits="userSpaceOnUse" id="color-23"><stop offset="0" stop-color="#ffffff"/><stop offset="1" stop-color="#8a8a8a"/></linearGradient><linearGradient x1="331.16209" y1="92.55214" x2="331.16209" y2="173.59489" gradientUnits="userSpaceOnUse" id="color-24"><stop offset="0" stop-color="#ffffff"/><stop offset="1" stop-color="#8a8a8a"/></linearGradient><linearGradient x1="376.87637" y1="92.52085" x2="376.87637" y2="172.16631" gradientUnits="userSpaceOnUse" id="color-25"><stop offset="0" stop-color="#ffffff"/><stop offset="1" stop-color="#8a8a8a"/></linearGradient><linearGradient x1="398.66209" y1="93.47393" x2="398.66209" y2="171.02346" gradientUnits="userSpaceOnUse" id="color-26"><stop offset="0" stop-color="#ffffff"/><stop offset="1" stop-color="#8a8a8a"/></linearGradient><linearGradient x1="263.16209" y1="90.91605" x2="263.16209" y2="175.45203" gradientUnits="userSpaceOnUse" id="color-27"><stop offset="0" stop-color="#ffffff"/><stop offset="1" stop-color="#8a8a8a"/></linearGradient></defs><g transform="translate(-14.69909,-55.97201)"><g data-paper-data="{&quot;isPaintingLayer&quot;:true}" fill-rule="nonzero" stroke="#000000" stroke-width="0.5" stroke-linecap="butt" stroke-linejoin="miter" stroke-miterlimit="10" stroke-dasharray="" stroke-dashoffset="0" style="mix-blend-mode: normal"><path d="M60.73352,272.88061v-97.14286h20v97.14286z" fill="url(#color-1)"/><path d="M83.73352,270.73775v-95.71429h20v95.71429z" fill="url(#color-2)"/><path d="M106.23352,270.02346v-95h20v95z" fill="url(#color-3)"/><path d="M128.73352,267.16632v-92.14285h20v92.14285z" fill="url(#color-4)"/><path d="M151.23352,266.45203v-91.42857h20v91.42857z" fill="url(#color-5)"/><path d="M173.73352,265.02346v-90h20v90z" fill="url(#color-6)"/><path d="M196.23352,263.59489v-88.57143h20v88.57143z" fill="url(#color-7)"/><path d="M219.23352,262.88061v-87.85714h20v87.85714z" fill="url(#color-8)"/><path d="M264.73352,260.02346v-85h20v85z" fill="url(#color-9)"/><path d="M287.23352,258.59489v-83.57143h20v83.57143z" fill="url(#color-10)"/><path d="M309.73352,257.88061v-82.85714h20v82.85714z" fill="url(#color-11)"/><path d="M332.23352,257.16632v-82.14285h20v82.14285z" fill="url(#color-12)"/><path d="M354.73352,256.45203v-81.42857h20v81.42857z" fill="url(#color-13)"/><path d="M377.23352,254.30918v-79.28572h20v79.28572z" fill="url(#color-14)"/><path d="M399.26648,253.19806v-78.1746h20v78.1746z" fill="url(#color-15)"/><path d="M241.73352,261.45203v-86.42857h20v86.42857z" fill="url(#color-16)"/><path d="M92.16209,87.16632v95.01565h-20v-95.01564z" data-paper-data="{&quot;index&quot;:null}" fill="url(#color-17)"/><path d="M115.16209,87.11939v93.61835h-20v-93.61835z" data-paper-data="{&quot;index&quot;:null}" fill="url(#color-18)"/><path d="M160.16209,88.89833v90.12513h-20v-90.12513z" data-paper-data="{&quot;index&quot;:null}" fill="url(#color-19)"/><path d="M182.66209,88.88269v89.42649h-20v-89.42648z" data-paper-data="{&quot;index&quot;:null}" fill="url(#color-20)"/><path d="M227.66209,90.96298v86.63191h-20v-86.63191z" data-paper-data="{&quot;index&quot;:null}" fill="url(#color-21)"/><path d="M250.66209,90.94734v85.93326h-20v-85.93326z" data-paper-data="{&quot;index&quot;:null}" fill="url(#color-22)"/><path d="M318.66209,92.56778v81.74139h-20v-81.74139z" data-paper-data="{&quot;index&quot;:null}" fill="url(#color-23)"/><path d="M341.16209,92.55214v81.04275h-20v-81.04275z" data-paper-data="{&quot;index&quot;:null}" fill="url(#color-24)"/><path d="M386.87637,92.52085v79.64546h-20v-79.64546z" data-paper-data="{&quot;index&quot;:null}" fill="url(#color-25)"/><path d="M408.66209,93.47393v77.54953h-20v-77.54953z" data-paper-data="{&quot;index&quot;:null}" fill="url(#color-26)"/><path d="M273.16209,90.91605v84.53598h-20v-84.53597z" data-paper-data="{&quot;index&quot;:null}" fill="url(#color-27)"/><path d="M14.94909,269.34182c0,-53.25519 0,-154.45414 0,-183.20727c0,-14.54826 14.80586,-29.91254 31.1,-29.91254c49.03754,0 299.34089,0 387.90182,0c19.45126,0 31.1,18.06106 31.1,34.43618c0,29.22528 0,126.20638 0,178.68364c0,20.67057 -15.41409,34.43618 -32.23091,34.43618c-48.79516,0 -290.30358,0 -382.24727,0c-22.15321,0 -35.62363,-15.00817 -35.62363,-34.43618zM448.35721,261.16907c0,-60.56982 -1.22484,-109.95289 -1.12291,-160.19108c0.06402,-31.55167 -17.07662,-26.25522 -28.40887,-26.64345c0,0 -356.93797,-1.48291 -367.57532,-1.5023c-9.99999,-0.00754 -19.72438,5.51627 -20.12697,19.562c-0.02885,1.00646 0.32741,133.65622 0.45185,171.82345c0.03217,9.86738 8.67961,23.83312 23.61526,24.02225c14.92609,0.18901 285.23663,0.35832 366.5052,0.16834c24.55234,-0.29676 26.66176,-9.17477 26.66176,-27.23922z" fill="#000000"/></g></g></svg>