<svg version="1.1" xmlns="http://www.w3.org/2000/svg" xmlns:xlink="http://www.w3.org/1999/xlink" width="24.46" height="58.73108" viewBox="0,0,24.46,58.73108"><g transform="translate(-227.77,-150.63446)"><g data-paper-data="{&quot;isPaintingLayer&quot;:true}" fill-rule="nonzero" stroke-linecap="butt" stroke-linejoin="miter" stroke-miterlimit="10" stroke-dasharray="" stroke-dashoffset="0" style="mix-blend-mode: normal"><path d="M251.64668,180.07359c0,14.14684 -9.52252,29.28069 -9.52252,29.28069c0,0 -1.58817,0.01126 -2.41582,0.01126c-6.59339,0 -11.93834,-13.1144 -11.93834,-29.29195c0,-16.17756 5.34495,-29.29193 11.93834,-29.29193c0.62345,0 2.97517,-0.09832 2.97517,-0.09832c0,0 8.96316,14.74241 8.96316,29.39025" data-paper-data="{&quot;index&quot;:null}" fill="#9c9055" stroke="none" stroke-width="0.03528"/><path d="M252.23,179.92639c0,16.17755 -4.81773,29.29195 -10.76076,29.29195c-5.94302,0 -10.76076,-13.1144 -10.76076,-29.29195c0,-16.17756 4.81773,-29.29193 10.76076,-29.29193c5.94303,0 10.76076,13.11438 10.76076,29.29193" data-paper-data="{&quot;index&quot;:null}" fill="#f6d738" stroke="none" stroke-width="0.03528"/><path d="M250.60175,179.92639c0,13.72957 -4.08879,24.85968 -9.13252,24.85968c-5.04373,0 -9.13252,-11.13011 -9.13252,-24.85968c0,-13.72955 4.08879,-24.85968 9.13252,-24.85968c5.04373,0 9.13252,11.13014 9.13252,24.85968" data-paper-data="{&quot;index&quot;:null}" fill="#f3cc30" stroke="none" stroke-width="0.03528"/><path d="M244.81049,158.70859c2.61234,4.37441 4.35447,12.22716 4.35447,21.18848c0,13.72967 -4.08879,24.85968 -9.13252,24.85968c-3.23247,0 -6.07267,-4.57159 -7.69572,-11.46905c1.39005,2.32757 3.02634,3.67112 4.77802,3.67112c5.04373,0 9.13252,-11.13 9.13252,-24.85968c0,-4.93048 -0.5273,-9.52564 -1.43676,-13.39054" data-paper-data="{&quot;index&quot;:null}" fill="#edbd31" stroke="none" stroke-width="0.03528"/><path d="M249.00198,182.20102c0,-12.11967 -3.60931,-21.9446 -8.06162,-21.9446c-2.60247,0 -4.91646,3.35764 -6.39039,8.56745c1.39206,-6.57843 4.0012,-11.00721 6.99046,-11.00721c4.4523,0 8.06162,9.82493 8.06162,21.9446c0,5.03562 -0.62355,9.67398 -1.67129,13.37723c0.68139,-3.2199 1.07122,-6.95468 1.07122,-10.93747" data-paper-data="{&quot;index&quot;:null}" fill="#f7db5e" stroke="none" stroke-width="0.03528"/><path d="M240.59503,188.57104c0.11888,0.09369 0.2406,0.15825 0.36371,0.1929c1.13345,0.32043 2.14772,-1.92101 2.26543,-5.00639c0.07575,-1.98561 -0.29915,-3.65373 -0.77387,-4.98971c-0.38157,-1.07385 -0.66606,-1.90422 -0.87802,-2.54385l-0.23686,2.9926c0.75282,0.74472 1.34122,2.81974 1.23528,4.87921c-0.1127,2.19085 -1.08237,3.55907 -1.37646,3.32515c0.07741,-0.10343 0.15091,-0.22728 0.21945,-0.36976c0.52699,-1.09406 0.65774,-3.03909 0.29204,-4.34438c-0.14447,-0.51563 -0.3448,-0.85429 -0.5668,-1.00788zM240.4948,189.83702l-0.26884,3.39676c-0.05792,0.74536 -0.06618,0.96482 -0.06618,1.18958c0,1.82228 0.54269,3.29959 1.21213,3.29959c0.28771,0.00117 0.56612,-0.27739 0.78505,-0.7855c-0.01748,0.003 -0.0351,0.00462 -0.05286,0.00462c-0.35,-0.001 -0.66031,-0.61277 -0.76982,-1.51766c-0.10951,-0.90489 0.00648,-1.89894 0.28773,-2.46598c0.28126,-0.56704 0.66439,-0.57927 0.95045,-0.03034c0.28606,0.54893 0.41058,1.5353 0.3089,2.44693c-0.15852,1.87055 -0.77416,3.26506 -1.50945,3.26506c-0.85552,0 -1.54105,-1.88794 -1.54105,-4.2167c0,-0.25631 -0.01608,-0.51696 0,-0.76062l0.33542,-4.23785c-0.69771,-0.92816 -1.24027,-3.10515 -1.24027,-5.3291c0,-2.93959 0.82432,-5.1673 1.82551,-5.1673c0.08088,0.00017 0.16164,0.01677 0.24161,0.04964l0.28905,-3.65197c-0.25959,-0.8295 -0.31366,-1.0957 -0.3221,-1.14215c-0.552,-1.99424 -0.97931,-4.17988 -1.06741,-6.8811c-0.10473,-3.21122 0.3096,-5.93511 0.92542,-6.08386c0.61582,-0.14888 1.19996,2.33366 1.30468,5.54493c0.04307,1.32057 -0.00873,2.53482 -0.08552,3.585l-0.18147,2.29274c1.42528,3.58309 2.15667,5.77733 2.15667,9.89166c0,4.19192 -1.35062,7.85721 -3.27598,7.42969c-0.08205,-0.0168 -0.16313,-0.05909 -0.24165,-0.12606zM239.76742,186.8343c0.06477,0.44288 0.16457,0.78745 0.28134,1.0562c0.0685,0.12116 0.1396,0.23109 0.21291,0.32918l0.52317,-6.60995c-0.23958,0.03909 -0.48345,0.27444 -0.69548,0.71463c-0.52699,1.09406 -0.5981,2.62133 -0.32192,4.50994zM240.65321,164.01964c-0.05148,-0.03073 -0.10328,-0.04908 -0.15527,0.17214c-0.28061,1.35453 -0.09884,3.39357 0.34834,5.6281c0.17341,0.86654 0.45106,1.44786 0.69777,1.96848c0.01118,-0.11952 -0.01475,0.11833 0,0c0.44941,-3.60583 -0.09006,-7.2901 -0.89085,-7.76872z" data-paper-data="{&quot;index&quot;:null}" fill="#b4832d" stroke="#b6842e" stroke-width="0"/></g></g></svg>