<svg version="1.1" xmlns="http://www.w3.org/2000/svg" xmlns:xlink="http://www.w3.org/1999/xlink" width="48.85036" height="79.82231"><defs><radialGradient cx="244.59464" cy="178.18065" r="14.89822" gradientUnits="userSpaceOnUse" id="color-1"><stop offset="0" stop-color="#ffff99"/><stop offset="1" stop-color="#ff9400"/></radialGradient><radialGradient cx="249.88507" cy="193.44912" r="17.98062" gradientUnits="userSpaceOnUse" id="color-2"><stop offset="0" stop-color="#ffff99"/><stop offset="1" stop-color="#ff9400"/></radialGradient></defs><g transform="translate(-231.1,-173.1)"><g data-paper-data="{&quot;isPaintingLayer&quot;:true}" fill="none" fill-rule="nonzero" stroke="none" stroke-width="none" stroke-linecap="butt" stroke-linejoin="miter" stroke-miterlimit="10" stroke-dasharray="" stroke-dashoffset="0" font-family="none" font-weight="none" font-size="none" text-anchor="none" style="mix-blend-mode: normal"><path d="M231.1,184.2c0,-5.02579 4.07421,-9.1 9.1,-9.1c5.02579,0 9.1,4.07421 9.1,9.1c0,5.02579 -4.07421,9.1 -9.1,9.1c-5.02579,0 -9.1,-4.07421 -9.1,-9.1z" data-paper-data="{&quot;origPos&quot;:null}" fill="#505050" stroke="none" stroke-width="1"/><path d="M242.55563,192.51531l3.89042,-2.0018l26.96083,60.07117l-3.69042,1.40181z" data-paper-data="{&quot;origPos&quot;:null,&quot;origRot&quot;:0}" fill="#505050" stroke="#d1bd60" stroke-width="0"/><path d="M231.9,181.8c0,-4.80488 3.89513,-8.7 8.7,-8.7c4.80488,0 8.7,3.89513 8.7,8.7c0,4.80488 -3.89512,8.7 -8.7,8.7c-4.80488,0 -8.7,-3.89512 -8.7,-8.7z" data-paper-data="{&quot;origPos&quot;:null}" fill="url(#color-1)" stroke="none" stroke-width="1"/><path d="M242.55563,189.31531l2.49042,-1.2018l34.56083,62.47117l-3.89042,2.00181z" data-paper-data="{&quot;origPos&quot;:null,&quot;origRot&quot;:0}" fill="url(#color-2)" stroke="#d1bd60" stroke-width="0.5"/></g></g></svg>