<svg version="1.1" xmlns="http://www.w3.org/2000/svg" xmlns:xlink="http://www.w3.org/1999/xlink" width="20.12002" height="27.57574" viewBox="0,0,20.12002,27.57574"><defs><linearGradient x1="240.03721" y1="178.10952" x2="240.38794" y2="178.10952" gradientUnits="userSpaceOnUse" id="color-1"><stop offset="0" stop-color="#000000"/><stop offset="1" stop-color="#000000"/></linearGradient><linearGradient x1="240.0006" y1="175.58008" x2="240.0006" y2="184.2625" gradientUnits="userSpaceOnUse" id="color-2"><stop offset="0" stop-color="#ffffff"/><stop offset="1" stop-color="#ffffff" stop-opacity="0"/></linearGradient><linearGradient x1="193.12245" y1="175.74418" x2="313.12712" y2="190.85651" gradientUnits="userSpaceOnUse" id="color-3"><stop offset="0" stop-color="#000000"/><stop offset="1" stop-color="#000000"/></linearGradient></defs><g transform="translate(-229.94009,-167.32292)"><g data-paper-data="{&quot;isPaintingLayer&quot;:true}" stroke-linecap="butt" stroke-linejoin="miter" stroke-miterlimit="10" stroke-dasharray="" stroke-dashoffset="0" style="mix-blend-mode: normal"><path d="M229.9401,186.55562c0,-3.52213 0,-6.11861 0,-11.14145c0,-3.45285 3.01208,-4.99253 5.18816,-4.99253c0.70353,0 4.60897,0 4.60897,0l-0.0499,-3.09399l0.86314,-0.00472l0.02022,3.09871c0,0 3.64615,0 3.91162,0c3.05101,0 5.57781,1.76381 5.57781,5.40948c0,4.71499 0,6.56157 0,9.8906c0,4.44247 -6.50233,9.17695 -9.8136,9.17695c-3.39339,0 -10.30641,-4.11749 -10.30641,-8.34305z" fill-opacity="0.00806" fill="#efffff" fill-rule="nonzero" stroke="none" stroke-width="0"/><path d="M239.97883,174.65629v-4.18445h0.29679v4.18445z" fill="none" fill-rule="nonzero" stroke="#000000" stroke-width="0.5"/><path d="" fill="url(#color-1)" fill-rule="nonzero" stroke="#000000" stroke-width="0.5"/><path d="" fill-opacity="0.00806" fill="#efffff" fill-rule="nonzero" stroke="none" stroke-width="0"/><path d="M248.95456,183.69767c0.02427,3.21526 -1.67713,6.19673 -4.45766,7.81141c-2.78052,1.61468 -6.21329,1.61468 -8.99382,0c-2.78052,-1.61468 -4.48193,-4.59614 -4.45766,-7.81141c-0.02427,-3.21526 1.67713,-6.19673 4.45766,-7.81141c2.78052,-1.61468 6.21329,-1.61468 8.99382,0c2.78052,1.61468 4.48193,4.59614 4.45766,7.81141z" fill="#c4c4c4" fill-rule="evenodd" stroke="#000000" stroke-width="1"/><path d="M246.38813,180.44668c0,2.68787 -2.85979,4.86681 -6.38753,4.86681c-3.52774,0 -6.38753,-2.17895 -6.38753,-4.86681c0,-2.68787 2.85979,-4.86681 6.38753,-4.86681c3.52774,0 6.38753,2.17895 6.38753,4.86681z" fill="url(#color-2)" fill-rule="evenodd" stroke="none" stroke-width="1" opacity="0.75"/><path d="M239.60705,177.02253c0.74639,0 1.40859,0.09459 1.98657,0.28379c0.57591,0.19128 1.06658,0.45012 1.472,0.77654c0.40542,0.3285 0.71313,0.71521 0.92312,1.16013c0.20999,0.44492 0.31498,0.92312 0.31498,1.43457c0,1.37428 -0.77966,2.68411 -2.33898,3.92949l-2.57288,2.06142h4.71538c0.079,0.14554 0.15385,0.32954 0.22454,0.552c0.07277,0.22246 0.10916,0.46468 0.10916,0.72664c0,0.47195 -0.10499,0.80877 -0.31498,1.01044c-0.20999,0.20375 -0.48443,0.30563 -0.82332,0.30563h-6.81734c-0.28899,-0.19752 -0.51562,-0.45012 -0.67986,-0.75783c-0.16425,-0.30771 -0.24637,-0.67051 -0.24637,-1.08841c0,-0.44492 0.09252,-0.82124 0.27756,-1.12894c0.18296,-0.30978 0.38567,-0.55616 0.60813,-0.73912l2.71009,-2.31715c0.34097,-0.28899 0.62269,-0.54784 0.84515,-0.77654c0.22246,-0.2287 0.4023,-0.43453 0.53952,-0.61749c0.1393,-0.18504 0.23806,-0.35552 0.29627,-0.51146c0.05821,-0.15801 0.08732,-0.30874 0.08732,-0.4522c0,-0.36592 -0.16009,-0.65387 -0.48027,-0.86386c-0.32018,-0.20999 -0.71624,-0.31498 -1.1882,-0.31498c-0.52393,0 -0.99277,0.08213 -1.40651,0.24637c-0.41166,0.16217 -0.75471,0.33577 -1.02915,0.52081c-0.22246,-0.15801 -0.40647,-0.35449 -0.552,-0.58942c-0.14346,-0.23702 -0.21518,-0.5125 -0.21518,-0.82644c0,-0.68194 0.32122,-1.18924 0.96366,-1.52189c0.64036,-0.33473 1.50422,-0.5021 2.59159,-0.5021z" fill="url(#color-3)" fill-rule="nonzero" stroke="none" stroke-width="1"/></g></g></svg>