<svg version="1.1" xmlns="http://www.w3.org/2000/svg" xmlns:xlink="http://www.w3.org/1999/xlink" width="467.21955" height="276.45987" viewBox="0,0,467.21955,276.45987"><defs><radialGradient cx="237.60392" cy="209.01054" r="233.04606" gradientUnits="userSpaceOnUse" id="color-1"><stop offset="0" stop-color="#ecf000"/><stop offset="1" stop-color="#fdff5d"/></radialGradient><linearGradient x1="235.66632" y1="318.18262" x2="235.66632" y2="354.20356" gradientUnits="userSpaceOnUse" id="color-2"><stop offset="0" stop-color="#eff099"/><stop offset="1" stop-color="#fdff5d"/></linearGradient></defs><g transform="translate(-4.55785,-77.99998)"><g data-paper-data="{&quot;isPaintingLayer&quot;:true}" fill="none" fill-rule="nonzero" stroke="#001026" stroke-width="none" stroke-linecap="none" stroke-linejoin="miter" stroke-miterlimit="10" stroke-dasharray="" stroke-dashoffset="0" font-family="none" font-weight="none" font-size="none" text-anchor="none" style="mix-blend-mode: normal"><path d="M4.85619,283.17287c-0.10277,-57.18742 -0.68472,-89.35342 0.12534,-146.5352c0.38462,-27.14995 10.22613,-58.63769 40.87882,-58.63769c101.543,0 391.22515,10.06037 402.32478,13.16666c24.10979,6.74725 20.86492,62.29853 22.27587,99.78175c1.4504,38.53138 4.39311,106.11947 -9.09593,110.59451c-13.48904,4.47504 -138.23122,17.20083 -224.68449,24.20128c-79.56642,6.4428 -124.32767,13.57245 -204.14365,12.25581c-30.07935,-0.49619 -27.64087,-32.64958 -27.68072,-54.82712z" data-paper-data="{&quot;origPos&quot;:null}" fill="url(#color-1)" stroke-width="0" stroke-linecap="butt"/><path d="M153.03696,115.1762z" fill="none" stroke-width="1.5" stroke-linecap="butt"/><path d="M184.71604,327.74834c0,0 10.17632,16.1034 10.63361,16.41318c5.85293,3.96491 84.44727,-2.65298 87.82195,-6.28361c2.50344,-2.6933 4.55131,-18.01765 4.55131,-18.01765l24.00775,-1.17766c0,0 -16.46693,24.10194 -23.61039,27.11412c-22.757,9.59593 -79.01805,10.17578 -96.33358,6.76073c-8.73477,-1.30745 -30.68471,-23.45686 -30.68471,-23.45686z" data-paper-data="{&quot;origPos&quot;:null,&quot;origRot&quot;:0}" fill="url(#color-2)" stroke-width="0" stroke-linecap="round"/></g></g></svg>