<svg version="1.1" xmlns="http://www.w3.org/2000/svg" xmlns:xlink="http://www.w3.org/1999/xlink" width="35.27751" height="32.5" viewBox="0,0,35.27751,32.5"><defs><linearGradient x1="-111.70215" y1="168.19788" x2="-111.70215" y2="192.11129" gradientUnits="userSpaceOnUse" id="color-1"><stop offset="0" stop-color="#69db0e"/><stop offset="1" stop-color="#397607"/></linearGradient><linearGradient x1="-69.88665" y1="191.38787" x2="-69.88665" y2="167.69423" gradientUnits="userSpaceOnUse" id="color-2"><stop offset="0" stop-color="#ffffff"/><stop offset="1" stop-color="#7f35ef"/></linearGradient><linearGradient x1="-69.88665" y1="169.60109" x2="-69.88665" y2="190.67132" gradientUnits="userSpaceOnUse" id="color-3"><stop offset="0" stop-color="#9874ca"/><stop offset="1" stop-color="#dbdbdb"/></linearGradient><linearGradient x1="239.86556" y1="168.43065" x2="239.9419" y2="180.07805" gradientUnits="userSpaceOnUse" id="color-4"><stop offset="0" stop-color="#ffffff" stop-opacity="0.69072"/><stop offset="1" stop-color="#ffffff" stop-opacity="0"/></linearGradient></defs><g transform="translate(-220.9725,-163.75)"><g data-paper-data="{&quot;isPaintingLayer&quot;:true}" stroke-miterlimit="10" stroke-dasharray="" stroke-dashoffset="0" style="mix-blend-mode: normal"><path d="M253.96865,180c0.03478,5.0136 -2.62001,9.66131 -6.9562,12.1782c-4.3362,2.51689 -9.68867,2.51689 -14.02488,0c-4.3362,-2.51689 -6.99098,-7.1646 -6.9562,-12.1782c-0.03478,-5.0136 2.62001,-9.66131 6.9562,-12.1782c4.3362,-2.51689 9.68867,-2.51689 14.02488,0c4.3362,2.51689 6.99098,7.1646 6.9562,12.1782z" fill="#383838" fill-rule="nonzero" stroke="url(#color-1)" stroke-width="0" stroke-linecap="round" stroke-linejoin="round"/><path d="M252.30785,180c0.03064,4.41751 -2.3085,8.51263 -6.12914,10.73028c-3.82065,2.21765 -8.53675,2.21765 -12.3574,0c-3.82065,-2.21765 -6.15979,-6.31277 -6.12915,-10.73028c-0.03064,-4.41751 2.3085,-8.51263 6.12915,-10.73028c3.82065,-2.21765 8.53675,-2.21765 12.3574,0c3.82065,2.21765 6.15978,6.31277 6.12914,10.73028z" fill="url(#color-2)" fill-rule="nonzero" stroke="url(#color-3)" stroke-width="1.5" stroke-linecap="round" stroke-linejoin="round"/><path d="M223.75001,196.25v-32.5h32.5v32.5z" fill="none" fill-rule="nonzero" stroke="none" stroke-width="0" stroke-linecap="butt" stroke-linejoin="miter"/><path d="M220.9725,168.88622z" fill="#ff4646" fill-rule="nonzero" stroke="none" stroke-width="0" stroke-linecap="butt" stroke-linejoin="miter"/><path d="M245.16936,188.82698h-10.34412c-0.44848,-0.02322 -0.83638,-0.18056 -1.16371,-0.47204c-0.29653,-0.26366 -0.48882,-0.5818 -0.57686,-0.95442c-0.04069,-0.1724 -0.05643,-0.40089 -0.04724,-0.68547c0.02781,-0.85442 0.20206,-1.65609 0.52272,-2.40501c0.70248,-1.64081 1.8439,-2.84693 3.42425,-3.61837c1.02062,-0.49813 2.10905,-0.72673 3.26529,-0.68582c0.22987,0.00805 0.45894,0.02805 0.6872,0.06c1.26267,0.17631 2.39329,0.65938 3.39184,1.44921c0.43124,0.34113 0.82477,0.74317 1.18061,1.20612c0.86799,1.12958 1.35014,2.41202 1.44645,3.84732c0.01103,0.16597 0.0123,0.32722 0.00379,0.48376c-0.00965,0.17907 -0.0362,0.33722 -0.07965,0.47445c-0.0993,0.31354 -0.27435,0.58398 -0.52514,0.81132c-0.33469,0.30343 -0.72984,0.4664 -1.18544,0.48893z" fill="#440aa5" fill-rule="nonzero" stroke-opacity="0.28604" stroke="#1b1b1b" stroke-width="1" stroke-linecap="butt" stroke-linejoin="miter"/><path d="M248.93601,176.75765c-0.27918,0.13956 -1.3801,-1.15908 -3.34145,-0.8554c-1.75954,0.27247 -6.22477,2.14707 -9.87527,1.11726c-2.26737,-0.63306 -4.65031,-0.96031 -4.65031,-0.96031c-1.38204,-0.13187 0.39819,-7.3489 9.09634,-7.30448c7.969,0.04201 11.63849,7.94011 8.77055,8.00261z" fill="url(#color-4)" fill-rule="evenodd" stroke="none" stroke-width="1" stroke-linecap="butt" stroke-linejoin="miter" opacity="0.9"/><path d="M239.93248,171.17302h0.13792c0.80454,0.0246 1.52219,0.25447 2.15296,0.68961c0.82293,0.56755 1.35634,1.33439 1.60024,2.30053c0.05632,0.2232 0.09229,0.44985 0.10792,0.67995c0.06965,1.02614 -0.21746,1.94412 -0.86132,2.75395c-0.29791,0.37492 -0.65731,0.68478 -1.0782,0.92959c-0.19585,0.11379 -0.40377,0.21125 -0.62375,0.29239c-0.80569,0.29676 -1.62322,0.32848 -2.45259,0.09517c-0.22091,-0.06229 -0.43514,-0.14459 -0.64272,-0.24688c-0.84914,-0.41836 -1.47036,-1.05821 -1.86367,-1.91953c-0.09746,-0.21286 -0.17447,-0.42905 -0.23102,-0.64858c-0.1793,-0.69581 -0.16769,-1.39037 0.03482,-2.08365c0.22872,-0.78363 0.66547,-1.43875 1.31026,-1.96538c0.68041,-0.55582 1.48346,-0.84822 2.40915,-0.87718z" fill="#440aa5" fill-rule="nonzero" stroke-opacity="0.2873" stroke="#1d1d1d" stroke-width="1" stroke-linecap="butt" stroke-linejoin="miter"/></g></g></svg>