<svg version="1.1" xmlns="http://www.w3.org/2000/svg" xmlns:xlink="http://www.w3.org/1999/xlink" width="145.41652" height="24.30015" viewBox="0,0,145.41652,24.30015"><defs><linearGradient x1="237.32591" y1="157.36237" x2="237.32591" y2="193.27033" gradientUnits="userSpaceOnUse" id="color-1"><stop offset="0" stop-color="#ffffff"/><stop offset="1" stop-color="#97999c"/></linearGradient><linearGradient x1="237.32591" y1="217.36238" x2="237.32591" y2="253.27033" gradientUnits="userSpaceOnUse" id="color-2"><stop offset="0" stop-color="#f7f7f7"/><stop offset="1" stop-color="#797b7d"/></linearGradient></defs><g transform="translate(-153.847,-167.39668)"><g data-paper-data="{&quot;isPaintingLayer&quot;:true}" fill-rule="nonzero" stroke-miterlimit="10" stroke-dasharray="" stroke-dashoffset="0" style="mix-blend-mode: normal"><path d="M250.06608,187.82544v3.56482h-20.13211v-4.15981" fill="none" stroke="none" stroke-width="0" stroke-linecap="butt" stroke-linejoin="miter"/><path d="M229.93397,171.21516v-2.60532h20.13211v2.67285" fill="none" stroke="none" stroke-width="0" stroke-linecap="butt" stroke-linejoin="miter"/><path d="M168.07817,191.19684v-23.30015h131.18535v23.30015z" fill="none" stroke="none" stroke-width="0" stroke-linecap="butt" stroke-linejoin="miter"/><path d="M168.07817,191.19684v-23.30015h131.18535v23.30015z" fill="none" stroke="none" stroke-width="0" stroke-linecap="butt" stroke-linejoin="miter"/><path d="M287.73202,167.89669c6.0455,0 10.99234,4.94684 10.99234,10.99234v1.31547c0,6.04552 -4.94684,10.99234 -10.99234,10.99234c0,0 -8.04629,0 -18.83221,0c-21.36001,0 -88.79236,0 -88.79236,0c-6.04552,0 -10.99234,-4.94682 -10.99234,-10.99234v-1.31547c0,-6.0455 4.94682,-10.99234 10.99234,-10.99234zM177.74776,170.78466c-3.27257,1.09471 -6.18665,5.15697 -6.18665,8.79787c0,3.76394 2.36189,8.12964 6.52151,9.12022c0.18973,0.05455 99.91832,0.67922 109.53405,0.32026c4.34448,-0.16218 9.09128,-4.00634 8.96429,-9.44048c-0.17857,-8.8315 -7.50655,-8.97211 -11.93403,-8.96429c-21.26627,0.03758 -106.59312,0.01818 -106.89916,0.16642z" fill="url(#color-1)" stroke-opacity="0.58065" stroke="#ffffff" stroke-width="1" stroke-linecap="round" stroke-linejoin="round"/><path d="" fill="url(#color-2)" stroke="none" stroke-width="4.76499" stroke-linecap="round" stroke-linejoin="round"/><path d="M287.73176,169.81288c5.00738,0 9.07747,4.06814 9.07747,9.07552v1.31672c0,5.00738 -4.07009,9.07552 -9.07747,9.07552h-107.62404c-5.00738,0 -9.07747,-4.06814 -9.07747,-9.07552v-1.31672c0,-5.00738 4.07009,-9.07552 9.07747,-9.07552zM172.23,178.88839v1.31672c0,4.36466 3.51306,7.87772 7.87772,7.87772h107.62404c4.36466,0 7.8777,-3.51306 7.8777,-7.87772v-1.31672c0,-4.36464 -3.51304,-7.8777 -7.8777,-7.8777h-107.62404c-4.36466,0 -7.87772,3.51306 -7.87772,7.8777z" fill="#d4d4d4" stroke="none" stroke-width="4.76499" stroke-linecap="round" stroke-linejoin="round"/><path d="M287.73176,169.81288c5.00738,0 9.07747,4.06814 9.07747,9.07552v1.31672c0,5.00738 -4.07009,9.07552 -9.07747,9.07552h-107.62404c-5.00738,0 -9.07747,-4.06814 -9.07747,-9.07552v-1.31672c0,-5.00738 4.07009,-9.07552 9.07747,-9.07552zM172.23,178.88839v1.31672c0,4.36466 3.51306,7.87772 7.87772,7.87772h107.62404c4.36466,0 7.8777,-3.51306 7.8777,-7.87772v-1.31672c0,-4.36464 -3.51304,-7.8777 -7.8777,-7.8777h-107.62404c-4.36466,0 -7.87772,3.51306 -7.87772,7.8777z" fill="#d4d4d4" stroke="none" stroke-width="4.76499" stroke-linecap="round" stroke-linejoin="round"/><g stroke="none" stroke-linecap="butt" stroke-linejoin="miter"><path d="M153.847,188.26408v-17.43465h14.23117v17.43465z" fill="none" stroke-width="0"/><path d="M155.81749,171.5234c0.00025,0 0.00048,0 0.00072,0c0.00088,0 0.00196,0 0.00283,0h4.15804h0.00072c0.00025,0 0.00049,0 0.00073,0c0.59949,0.00043 1.17341,0.25977 1.59554,0.7208l5.50349,6.00454l0.00072,0.00079c0.00025,0.00028 0.00049,0.00052 0.00073,0.00078c0.65876,0.71933 0.65876,1.8734 0,2.59273c-0.00024,0.00027 -0.00049,0.00053 -0.00073,0.00079c-0.00025,0.00028 -0.00049,0.00052 -0.00072,0.00078l-5.50344,6.00462c-0.42213,0.46103 -0.99605,0.72037 -1.59554,0.7208c-0.00025,0 -0.00049,0 -0.00073,0h-0.00072h-4.15806c-0.00088,0 -0.00196,0 -0.00283,0c-0.00025,0 -0.00048,0 -0.00072,0c-0.59496,-0.00132 -1.11899,-0.37617 -1.35067,-0.97361c-0.23269,-0.60006 -0.113,-1.27157 0.30945,-1.73361c0.00047,-0.00051 0.00094,-0.00103 0.00141,-0.00153l4.87747,-5.31456l-4.87748,-5.31456c-0.00047,-0.00051 -0.00095,-0.00102 -0.00141,-0.00153c-0.42246,-0.46204 -0.54215,-1.13354 -0.30945,-1.73361c0.23168,-0.59744 0.75573,-0.97228 1.35067,-0.97361z" fill="#ffffff" stroke-width="1.856"/><path d="M155.81892,172.1835c0.00047,0 0.00094,0 0.00141,0h4.15876c0.00025,0 0.00048,0 0.00072,0c0.43126,0.00031 0.85946,0.19378 1.1633,0.52562l5.50419,6.00539h-0.00073c0.40037,0.43616 0.40037,1.22828 0,1.66444h0.00073l-5.5042,6.0054c-0.30384,0.33184 -0.73203,0.5253 -1.1633,0.52562c-0.00025,0 -0.00048,0 -0.00073,0h-4.15877c-0.00047,0 -0.00094,0 -0.00141,0c-0.33434,-0.00074 -0.65968,-0.23343 -0.78996,-0.56942c-0.13029,-0.33598 -0.05516,-0.75454 0.18098,-1.01281c0.00024,-0.00027 0.00049,-0.00053 0.00073,-0.00079l5.30475,-5.78024l-5.30474,-5.78021c-0.00025,-0.00026 -0.00049,-0.00052 -0.00072,-0.00078c-0.23615,-0.25827 -0.31128,-0.67683 -0.18098,-1.01281c0.13029,-0.33598 0.45562,-0.56867 0.78996,-0.56942z" fill="#000000" stroke-width="1.856"/><path d="M155.66812,173.04419c0.02562,-0.06606 0.0856,-0.10908 0.15209,-0.10908h4.15857c0.2525,0 0.49448,0.10895 0.67182,0.3025l5.50391,6.00665c0.15368,0.16772 0.15368,0.43727 0,0.60499l-5.50391,6.00666c-0.17734,0.19354 -0.41932,0.3025 -0.67182,0.3025h-4.15857c-0.06649,0 -0.12647,-0.04302 -0.15209,-0.10908c-0.02562,-0.06606 -0.01188,-0.14224 0.03486,-0.19316l5.51367,-6.00716c0.15373,-0.16749 0.15373,-0.43699 0,-0.60448l-5.51367,-6.00716c-0.04674,-0.05092 -0.06049,-0.1271 -0.03486,-0.19316z" fill="#280b0b" stroke-width="1.856"/></g></g></g></svg>