<svg version="1.1" xmlns="http://www.w3.org/2000/svg" xmlns:xlink="http://www.w3.org/1999/xlink" width="27.45218" height="33.25" viewBox="0,0,27.45218,33.25"><g transform="translate(-226.27391,-163.375)"><g data-paper-data="{&quot;isPaintingLayer&quot;:true}" fill-rule="nonzero" stroke="#000000" stroke-linecap="butt" stroke-linejoin="miter" stroke-miterlimit="10" stroke-dasharray="" stroke-dashoffset="0" style="mix-blend-mode: normal"><path d="M226.27391,196.625v-33.25h27.45218v33.25z" fill="none" stroke-width="0"/><path d="M227.58929,193.31772c0,-2.25074 0,-16.31081 0,-26.75056c0,-0.70529 1.15456,-1.80723 1.89353,-1.80723c8.23134,0 18.94208,0 21.09178,0c0.71657,0 1.83611,0.9451 1.83611,1.55001c0,10.48994 0,24.47785 0,26.87916c0,0.80044 -1.27638,2.05102 -2.09333,2.05102c-2.45085,0 -12.86044,0 -21.09178,0c-0.63859,0 -1.63631,-1.17217 -1.63631,-1.92242z" data-paper-data="{&quot;origPos&quot;:null}" fill="#edb47e" stroke-width="1.5"/><g data-paper-data="{&quot;origPos&quot;:null}" stroke-width="0"><path d="M241.11644,182.43809c-0.20437,-0.84319 -0.67741,-1.26622 -1.42343,-1.26622c-0.45161,0 -0.8975,0.17721 -1.33768,0.53021c-0.4416,0.35443 -0.44126,0.53033 -0.66707,1.10056v4.905c0.99325,-0.75316 1.4137,-1.10797 2.30915,-2.22708c0.84522,-1.05635 1.15332,-1.84342 1.15332,-2.66518c0,-0.18293 -0.01143,-0.30869 -0.0343,-0.37729zM242.95575,180.03713c0.52307,0.41302 0.7846,1.11187 0.7846,2.09512c0,0.66455 -0.14863,1.33339 -0.44446,2.00937c-0.29726,0.67456 -0.77602,1.34482 -1.43772,2.00937c-0.95895,0.91465 -1.68407,1.38187 -2.32807,1.78197c-0.5646,0.35077 -1.08423,0.68327 -1.91791,1.18083c-0.29453,0.17578 -0.49162,0.30869 -0.65026,0.30869c-0.2744,0 -0.41159,-0.25153 -0.41159,-0.75459v-17.79968h1.13794v10.39225c0.5688,-0.56737 0.83857,-1.02327 1.47596,-1.3634c0.6374,-0.34156 1.26336,-0.51163 1.87932,-0.51163c0.6817,0 1.32053,0.21723 1.91219,0.65169z" data-paper-data="{&quot;origPos&quot;:null}" fill="#6c6c6c"/><path d="M240.82575,182.1474c-0.20437,-0.84319 -0.67741,-1.26622 -1.42343,-1.26622c-0.45161,0 -0.8975,0.17721 -1.33768,0.53021c-0.4416,0.35443 -0.44126,0.53033 -0.66707,1.10056v4.905c0.99325,-0.75316 1.4137,-1.10797 2.30915,-2.22708c0.84522,-1.05635 1.15332,-1.84342 1.15332,-2.66518c0,-0.18293 -0.01143,-0.30869 -0.0343,-0.37729zM242.66506,179.74644c0.52307,0.41302 0.7846,1.11187 0.7846,2.09512c0,0.66455 -0.14863,1.33339 -0.44446,2.00937c-0.29726,0.67456 -0.77602,1.34482 -1.43772,2.00937c-0.95895,0.91465 -1.68407,1.38187 -2.32807,1.78197c-0.5646,0.35077 -1.08423,0.68327 -1.91791,1.18083c-0.29453,0.17578 -0.49162,0.30869 -0.65026,0.30869c-0.2744,0 -0.41159,-0.25153 -0.41159,-0.75459v-17.79968h1.13794v10.39225c0.5688,-0.56737 0.83857,-1.02327 1.47596,-1.3634c0.6374,-0.34156 1.26336,-0.51163 1.87932,-0.51163c0.6817,0 1.32053,0.21723 1.91219,0.65169z" data-paper-data="{&quot;origPos&quot;:null}" fill="#000000"/></g></g></g></svg>