<svg version="1.1" xmlns="http://www.w3.org/2000/svg" xmlns:xlink="http://www.w3.org/1999/xlink" width="167.79716" height="98.57075" viewBox="0,0,167.79716,98.57075"><g transform="translate(-156.10142,-130.71463)"><g data-paper-data="{&quot;isPaintingLayer&quot;:true}" fill-rule="nonzero" stroke-linecap="butt" stroke-linejoin="miter" stroke-miterlimit="10" stroke-dasharray="" stroke-dashoffset="0" style="mix-blend-mode: normal"><path d="M235.14109,205.75038c-12.59313,0 -22.8223,-10.22916 -22.8223,-22.82229c0,-12.59313 10.22917,-22.8223 22.8223,-22.8223c12.59313,0 22.82229,10.22917 22.82229,22.8223c0,12.59313 -10.22916,22.82229 -22.82229,22.82229zM235.14108,166.07096c-9.30125,0 -16.85713,7.55588 -16.85713,16.85713c0,9.30124 7.55588,16.85712 16.85713,16.85712c9.30124,0 16.85712,-7.55587 16.85712,-16.85712c0,-9.30125 -7.55587,-16.85713 -16.85712,-16.85713z" fill="#000000" stroke="none" stroke-width="1"/><path d="M156.35143,220.96895c0,-20.82585 0,-75.43285 0,-84.90974c0,-2.75215 3.6803,-5.09458 8.07332,-5.09458c16.50849,0 119.08806,0 150.25348,0c5.66497,0 8.97036,3.23486 8.97036,6.79279c0,10.46368 0,62.88974 0,83.21154c0,5.00809 -4.37227,8.06643 -9.41888,8.06643c-17.80939,0 -122.21696,0 -150.70199,0c-4.5617,0 -7.17628,-3.05527 -7.17628,-8.06643z" fill="#42ff00" stroke="#001026" stroke-width="0.5"/><path d="M162.52582,220.96895c0,-20.82585 0,-75.43285 0,-84.90974c0,-2.75215 3.40865,-5.09458 7.4774,-5.09458c15.28994,0 110.29776,0 139.16276,0c5.24682,0 8.30822,3.23486 8.30822,6.79279c0,10.46368 0,62.88974 0,83.21154c0,5.00809 -4.04953,8.06643 -8.72363,8.06643c-16.49483,0 -113.19573,0 -139.57817,0c-4.22499,0 -6.64658,-3.05527 -6.64658,-8.06643z" fill="#00ffff" stroke="#001026" stroke-width="0.5"/><path d="M169.54947,220.96895c0,-20.82585 0,-75.43285 0,-84.90974c0,-2.75215 3.09963,-5.09458 6.79951,-5.09458c13.90378,0 100.29839,0 126.54654,0c4.77114,0 7.55502,3.23486 7.55502,6.79279c0,10.46368 0,62.88974 0,83.21154c0,5.00809 -3.68241,8.06643 -7.93276,8.06643c-14.99944,0 -102.93362,0 -126.92429,0c-3.84196,0 -6.04401,-3.05527 -6.04401,-8.06643z" fill="#ff0000" stroke="#001026" stroke-width="0.5"/><path d="M176.76434,220.96895c0,-20.82585 0,-75.43285 0,-84.90974c0,-2.75215 2.7822,-5.09458 6.10317,-5.09458c12.47989,0 90.02677,0 113.58683,0c4.28253,0 6.7813,3.23486 6.7813,6.79279c0,10.46368 0,62.88974 0,83.21154c0,5.00809 -3.30529,8.06643 -7.12036,8.06643c-13.46335,0 -92.39214,0 -113.92591,0c-3.4485,0 -5.42504,-3.05527 -5.42504,-8.06643z" fill="#fbff00" stroke="#001026" stroke-width="0.5"/><g stroke="none"><path d="M278.28799,188.95453l-5.98784,1.01579c-0.62373,2.01377 -1.42568,3.95625 -2.40583,5.80963l3.52855,4.93641c1.49696,2.10288 1.26529,4.97205 -0.57027,6.78979l-5.31065,5.31065c-0.99797,0.99797 -2.31672,1.55042 -3.72458,1.55042c-1.1049,0 -2.15633,-0.3386 -3.04738,-0.98015l-4.95423,-3.52855c-1.92466,1.01579 -3.93843,1.85338 -6.02348,2.47711l-0.99797,5.91656c-0.4277,2.5484 -2.61968,4.40178 -5.20372,4.40178h-7.50262c-2.58404,0 -4.77602,-1.85338 -5.20372,-4.40178l-1.03362,-6.05913c-1.99595,-0.62373 -3.93843,-1.4435 -5.79181,-2.44147l-4.90076,3.52855c-0.89105,0.64155 -1.96031,0.98015 -3.06521,0.98015c-1.40786,0 -2.74443,-0.55245 -3.72458,-1.55042l-5.32847,-5.31065c-1.81774,-1.81774 -2.06723,-4.68692 -0.57027,-6.78979l3.56419,-5.00769c-0.98016,-1.8712 -1.76428,-3.81368 -2.37019,-5.82745l-5.91656,-0.99797c-2.5484,-0.4277 -4.40178,-2.61968 -4.40178,-5.20372v-7.50262c0,-2.58404 1.85338,-4.77602 4.40178,-5.20372l6.05913,-1.03362c0.62373,-1.99595 1.4435,-3.93843 2.44147,-5.79181l-3.51073,-4.88294c-1.49696,-2.10288 -1.26529,-4.97205 0.57027,-6.78979l5.31065,-5.31065c0.99797,-0.99797 2.31672,-1.55042 3.72458,-1.55042c1.1049,0 2.15633,0.3386 3.04738,0.98015l5.00769,3.56419c1.79991,-0.94451 3.68894,-1.71081 5.63142,-2.31672l0.99797,-5.98784c0.4277,-2.5484 2.61968,-4.40178 5.20372,-4.40178h7.52045c2.58404,0 4.77602,1.85338 5.20372,4.40178l1.01579,5.98784c2.01377,0.62373 3.95625,1.42568 5.80963,2.40583l4.93641,-3.52855c0.89105,-0.64155 1.96031,-0.98015 3.06521,-0.98015v0c1.40786,0 2.72661,0.55245 3.72458,1.55042l5.31065,5.31065c1.81774,1.81774 2.06723,4.68692 0.57027,6.78979l-3.52855,4.95423c0.98015,1.8712 1.79992,3.81368 2.40583,5.80963l5.98784,0.99797c2.5484,0.4277 4.40178,2.61968 4.40178,5.20372v7.50262c0.03564,2.58404 -1.81774,4.77602 -4.36614,5.20372zM277.87813,176.24817c0,-0.23167 -0.16039,-0.4277 -0.39206,-0.46334l-7.4848,-1.24747c-0.94451,-0.16039 -1.69299,-0.85541 -1.92466,-1.76428c-0.6772,-2.61968 -1.71082,-5.13243 -3.10085,-7.46698c-0.48116,-0.81976 -0.44552,-1.83556 0.10693,-2.61968l4.40178,-6.20169c0.12475,-0.17821 0.10693,-0.44552 -0.05346,-0.60591l-5.31065,-5.31065c-0.12475,-0.12475 -0.2495,-0.14257 -0.3386,-0.14257c-0.10692,0 -0.19603,0.03564 -0.26731,0.0891l-6.18387,4.40178c-0.7663,0.55245 -1.79992,0.5881 -2.61968,0.10693c-2.33454,-1.39004 -4.8473,-2.42365 -7.46698,-3.10085c-0.92669,-0.23167 -1.62171,-0.99797 -1.76428,-1.92466l-1.26529,-7.4848c-0.03564,-0.23167 -0.23167,-0.39206 -0.46334,-0.39206h-7.50262c-0.23167,0 -0.4277,0.16039 -0.46334,0.39206l-1.24747,7.4848c-0.16039,0.94451 -0.85541,1.69299 -1.76428,1.92466c-2.54839,0.65937 -5.00769,1.67517 -7.30659,2.99392c-0.37424,0.21385 -0.80195,0.32078 -1.21183,0.32078c-0.48116,0 -0.98015,-0.14256 -1.39003,-0.44552l-6.23734,-4.43742c-0.0891,-0.05346 -0.17821,-0.0891 -0.26731,-0.0891c-0.07129,0 -0.21385,0.01782 -0.3386,0.14257l-5.31065,5.31065c-0.16039,0.16039 -0.17821,0.40988 -0.05346,0.60591l4.38396,6.14823c0.55245,0.78412 0.5881,1.81774 0.10693,2.6375c-1.39004,2.31672 -2.45929,4.82948 -3.13649,7.44916c-0.24949,0.90887 -0.99797,1.60389 -1.92466,1.76428l-7.53827,1.28311c-0.23167,0.03564 -0.39206,0.23167 -0.39206,0.46334v7.50262c0,0.23167 0.16039,0.4277 0.39206,0.46334l7.43134,1.24747c0.94451,0.16039 1.71081,0.85541 1.94248,1.7821c0.65937,2.61968 1.67517,5.15025 3.04738,7.4848c0.48116,0.81976 0.4277,1.83556 -0.12475,2.60186l-4.43742,6.23734c-0.12475,0.17821 -0.10693,0.44552 0.05346,0.60591l5.31065,5.31065c0.12475,0.12475 0.2495,0.14257 0.3386,0.14257c0.10692,0 0.19603,-0.03564 0.26731,-0.0891l6.14823,-4.38396c0.78412,-0.55245 1.81774,-0.5881 2.6375,-0.10693c2.31672,1.39004 4.82948,2.45929 7.44916,3.13649c0.90887,0.24949 1.60389,0.99797 1.76428,1.92466l1.28311,7.53827c0.03564,0.23167 0.23167,0.39206 0.46334,0.39206h7.50262c0.23167,0 0.4277,-0.16039 0.46334,-0.39206l1.24747,-7.43134c0.16039,-0.94451 0.85541,-1.71081 1.7821,-1.94248c2.69096,-0.6772 5.25718,-1.72863 7.64519,-3.13649c0.81976,-0.48116 1.83556,-0.44552 2.61968,0.10693l6.14823,4.4196c0.0891,0.05346 0.17821,0.0891 0.26731,0.0891c0.07129,0 0.21385,-0.01782 0.3386,-0.14257l5.31065,-5.31065c0.16039,-0.16039 0.17821,-0.40988 0.05346,-0.60591l-4.40178,-6.18387c-0.55245,-0.7663 -0.5881,-1.79992 -0.10693,-2.61968c1.39004,-2.33454 2.42365,-4.8473 3.10085,-7.46698c0.23167,-0.92669 0.99797,-1.62171 1.92466,-1.76428l7.4848,-1.26529c0.23167,-0.03564 0.39206,-0.23167 0.39206,-0.46334v-7.50262z" fill="#000000" stroke-width="1"/><path d="M277.9457,176.24328l0,7.51247c0,0.23167 -0.16046,0.42836 -0.39213,0.464l-7.4853,1.26869c-0.92669,0.14257 -1.69376,0.8411 -1.92543,1.76779c-0.6772,2.61968 -1.71615,5.14533 -3.10619,7.47987c-0.48117,0.81976 -0.44747,1.85643 0.10498,2.62273l4.39974,6.18662c0.12475,0.19603 0.10651,0.44603 -0.05388,0.60642l-5.31763,5.31763c-0.12475,0.12475 -0.26767,0.14287 -0.33896,0.14287c-0.0891,0 -0.17837,-0.03552 -0.26747,-0.08898l-6.15094,-4.41759c-0.78412,-0.55245 -1.80297,-0.58614 -2.62273,-0.10498c-2.38801,1.40786 -4.96741,2.46471 -7.65837,3.14191c-0.92669,0.23167 -1.62524,0.99873 -1.78563,1.94324l-1.25079,7.43182c-0.03564,0.23167 -0.23233,0.39212 -0.464,0.39212l-7.51247,-0.00004c-0.23167,0 -0.42836,-0.16046 -0.464,-0.39213l-1.2866,-7.5388c-0.16039,-0.92669 -0.85893,-1.67597 -1.7678,-1.92546c-2.61968,-0.6772 -5.1453,-1.75186 -7.46202,-3.1419c-0.81976,-0.48117 -1.85642,-0.44749 -2.64054,0.10496l-6.1509,4.38195c-0.07128,0.05346 -0.16054,0.08898 -0.26746,0.08898c-0.0891,0 -0.21421,-0.01811 -0.33896,-0.14287l-5.31759,-5.31766c-0.16039,-0.16039 -0.17863,-0.42822 -0.05388,-0.60643l4.43534,-6.24017c0.55245,-0.7663 0.60399,-1.78514 0.12284,-2.6049c-1.37221,-2.33455 -2.39327,-4.87804 -3.05264,-7.49771c-0.23167,-0.92669 -0.99873,-1.62524 -1.94324,-1.78563l-7.43181,-1.25078c-0.23167,-0.03564 -0.39213,-0.23232 -0.39213,-0.46399l0.00005,-7.51248c0,-0.23167 0.16046,-0.42836 0.39213,-0.464l7.5388,-1.2866c0.92669,-0.16039 1.67597,-0.85893 1.92546,-1.7678c0.6772,-2.61968 1.75187,-5.14529 3.14191,-7.46201c0.48117,-0.81976 0.44749,-1.85642 -0.10496,-2.64054l-4.38196,-6.1509c-0.12475,-0.19603 -0.10651,-0.44603 0.05388,-0.60642l5.31766,-5.31759c0.12475,-0.12475 0.26767,-0.14286 0.33896,-0.14286c0.0891,0 0.17837,0.03551 0.26747,0.08897l6.24018,4.43534c0.40988,0.30296 0.91015,0.44467 1.39131,0.44467c0.40988,0 0.83935,-0.108 1.21359,-0.32185c2.2989,-1.31875 4.77079,-2.33972 7.31919,-2.99909c0.90887,-0.23167 1.6074,-0.98092 1.76779,-1.92543l1.25084,-7.4853c0.03564,-0.23167 0.23233,-0.39213 0.464,-0.39213l7.51248,0c0.23167,0 0.42836,0.16046 0.464,0.39213l1.26868,7.48529c0.14257,0.92669 0.84109,1.69376 1.76778,1.92543c2.61968,0.6772 5.14534,1.71614 7.47988,3.10618c0.81976,0.48117 1.85643,0.44747 2.62273,-0.10498l6.18663,-4.39973c0.07128,-0.05346 0.16055,-0.08897 0.26747,-0.08897c0.0891,0 0.21421,0.01811 0.33896,0.14286l5.31763,5.31763c0.16039,0.16039 0.17863,0.42822 0.05388,0.60643l-4.39972,6.20446c-0.55245,0.78412 -0.58614,1.80298 -0.10498,2.62274c1.39003,2.33455 2.42898,4.8602 3.10618,7.47988c0.23167,0.90887 0.98092,1.6074 1.92543,1.76779l7.4853,1.25084c0.23167,0.03564 0.39213,0.23233 0.39213,0.464z" data-paper-data="{&quot;noHover&quot;:false,&quot;origItem&quot;:[&quot;Path&quot;,{&quot;applyMatrix&quot;:true,&quot;segments&quot;:[[[555.75625,352.49634],[0,0],[0,-0.46334]],[[554.97213,351.56966],[0.46334,0.07128],[0,0]],[[540.00253,349.07472],[0,0],[-1.88902,-0.32078]],[[536.15321,345.54616],[0.46334,1.81774],[-1.3544,-5.23936]],[[529.95151,330.6122],[2.78006,4.6691],[-0.96232,-1.63952]],[[530.16537,325.37284],[-1.1049,1.56824],[0,0]],[[538.96893,312.96946],[0,0],[0.2495,-0.35642]],[[538.86201,311.75764],[0.32078,0.32078],[0,0]],[[528.24071,301.13634],[0,0],[-0.2495,-0.2495]],[[527.56351,300.8512],[0.1782,0],[-0.21384,0]],[[527.02889,301.0294],[0.14256,-0.10692],[0,0]],[[514.66115,309.83296],[0,0],[-1.5326,1.1049]],[[509.42179,310.04682],[1.63952,0.96234],[-4.66908,-2.78008]],[[494.48783,303.84512],[5.23936,1.3544],[-1.85338,-0.46334]],[[490.95927,299.9958],[0.28514,1.85338],[0,0]],[[488.42869,285.0262],[0,0],[-0.07128,-0.46334]],[[487.50201,284.24208],[0.46334,0],[0,0]],[[472.49677,284.24208],[0,0],[-0.46334,0]],[[471.57009,285.0262],[0.07128,-0.46334],[0,0]],[[469.07515,299.9958],[0,0],[-0.32078,1.88902]],[[465.54659,303.84512],[1.81774,-0.46334],[-5.09678,1.31874]],[[450.93341,309.83296],[4.5978,-2.6375],[-0.74848,0.4277]],[[448.50975,310.47452],[0.81976,0],[-0.96232,0]],[[445.72969,309.58348],[0.81976,0.60592],[0,0]],[[433.25501,300.70864],[0,0],[-0.1782,-0.10692]],[[432.72039,300.53044],[0.1782,0],[-0.14258,0]],[[432.04319,300.81558],[0.2495,-0.2495],[0,0]],[[421.42189,311.43688],[0,0],[-0.32078,0.32078]],[[421.31497,312.6487],[-0.2495,-0.39206],[0,0]],[[430.08289,324.94516],[0,0],[1.1049,1.56824]],[[430.29675,330.22016],[0.96234,-1.63952],[-2.78008,4.63344]],[[424.02377,345.11848],[1.3544,-5.23936],[-0.49898,1.81774]],[[420.17445,348.64704],[1.85338,-0.32078],[0,0]],[[405.09791,351.21326],[0,0],[-0.46334,0.07128]],[[404.31379,352.13994],[0,-0.46334],[0,0]],[[404.31379,367.14518],[0,0],[0,0.46334]],[[405.09791,368.07186],[-0.46334,-0.07128],[0,0]],[[419.96059,370.5668],[0,0],[1.88902,0.32078]],[[423.84555,374.131],[-0.46334,-1.85338],[1.31874,5.23936]],[[429.94031,389.1006],[-2.74442,-4.6691],[0.96232,1.63952]],[[429.69081,394.30432],[1.1049,-1.5326],[0,0]],[[420.81597,406.779],[0,0],[-0.2495,0.35642]],[[420.92289,407.99082],[-0.32078,-0.32078],[0,0]],[[431.54419,418.61212],[0,0],[0.2495,0.2495]],[[432.22139,418.89726],[-0.1782,0],[0.21384,0]],[[432.75601,418.71906],[-0.14256,0.10692],[0,0]],[[445.05247,409.95114],[0,0],[1.56824,-1.1049]],[[450.32747,409.73728],[-1.63952,-0.96234],[4.63344,2.78008]],[[465.22579,416.01026],[-5.23936,-1.3544],[1.81774,0.49898]],[[468.75435,419.85958],[-0.32078,-1.85338],[0,0]],[[471.32057,434.93612],[0,0],[0.07128,0.46334]],[[472.24725,435.72024],[-0.46334,0],[0,0]],[[487.25249,435.72024],[0,0],[0.46334,0]],[[488.17917,434.93612],[-0.07128,0.46334],[0,0]],[[490.67411,420.07344],[0,0],[0.32078,-1.88902]],[[494.23831,416.18848],[-1.85338,0.46334],[5.38192,-1.3544]],[[509.52869,409.9155],[-4.77602,2.81572],[1.63952,-0.96232]],[[514.76805,410.12936],[-1.56824,-1.1049],[0,0]],[[527.06451,418.96856],[0,0],[0.1782,0.10692]],[[527.59913,419.14676],[-0.1782,0],[0.14258,0]],[[528.27633,418.86162],[-0.2495,0.2495],[0,0]],[[538.89763,408.24032],[0,0],[0.32078,-0.32078]],[[539.00455,407.0285],[0.2495,0.39206],[0,0]],[[530.20099,394.66076],[0,0],[-1.1049,-1.5326]],[[529.98713,389.4214],[-0.96234,1.63952],[2.78008,-4.66908]],[[536.18883,374.48744],[-1.3544,5.23936],[0.46334,-1.85338]],[[540.03815,370.95888],[-1.85338,0.28514],[0,0]],[[555.00775,368.4283],[0,0],[0.46334,-0.07128]],[[555.79187,367.50162],[0,0.46334],[0,0]],[555.79187,352.49638]],&quot;closed&quot;:true,&quot;fillColor&quot;:[0,0,0]}]}" fill="#a7a7a7" stroke-width="0.5"/><path d="M240.00858,198.41746c-10.15795,0 -18.40905,-8.2511 -18.40905,-18.40905c0,-10.15795 8.2511,-18.40905 18.40905,-18.40905c10.15795,0 18.40905,8.2511 18.40905,18.40905c0,10.15795 -8.2511,18.40905 -18.40905,18.40905zM240.00858,166.41102c-7.50262,0 -13.59739,6.09477 -13.59739,13.59739c0,7.50262 6.09477,13.59739 13.59739,13.59739c7.50262,0 13.59739,-6.09477 13.59739,-13.59739c0,-7.50262 -6.09477,-13.59739 -13.59739,-13.59739z" fill="#000000" stroke-width="1"/><path d="M253.65597,180.00841c0,7.50262 -6.14477,13.64739 -13.64739,13.64739c-7.50262,0 -13.64739,-6.14477 -13.64739,-13.64739c0,-7.50262 6.14477,-13.64739 13.64739,-13.64739c7.50262,0 13.64739,6.14477 13.64739,13.64739z" data-paper-data="{&quot;noHover&quot;:false,&quot;origItem&quot;:[&quot;Path&quot;,{&quot;applyMatrix&quot;:true,&quot;segments&quot;:[[[480.01715,332.82204],[15.00524,0],[-15.00524,0]],[[452.82237,360.01682],[0,-15.00524],[0,15.00524]],[[480.01715,387.2116],[-15.00524,0],[15.00524,0]],[[507.21193,360.01682],[0,15.00524],[0,-15.00524]]],&quot;closed&quot;:true,&quot;fillColor&quot;:[0,0,0]}]}" fill="#fbff00" stroke-width="0.5"/></g></g></g></svg>