<svg version="1.1" xmlns="http://www.w3.org/2000/svg" xmlns:xlink="http://www.w3.org/1999/xlink" width="480" height="360" viewBox="0,0,480,360"><g transform=""><g data-paper-data="{&quot;isPaintingLayer&quot;:true}" fill-rule="nonzero" stroke-linejoin="miter" stroke-miterlimit="10" stroke-dasharray="" stroke-dashoffset="0" style="mix-blend-mode: normal"><path d="M0,360v-360h480v360z" fill="#eeb47f" stroke="none" stroke-width="0" stroke-linecap="butt"/><path d="M153.03696,115.17622z" fill="none" stroke="#001026" stroke-width="1.5" stroke-linecap="butt"/><g fill="#003aff" stroke="#000000"><text transform="translate(125.14879,50.21542) scale(1.06676,1.06676)" font-size="40" xml:space="preserve" fill="#003aff" fill-rule="nonzero" stroke="#000000" stroke-width="1" stroke-linecap="butt" stroke-linejoin="miter" stroke-miterlimit="10" stroke-dasharray="" stroke-dashoffset="0" font-family="Marker" font-weight="normal" text-anchor="start" style="mix-blend-mode: normal"><tspan x="0" dy="0">Mi carillon</tspan></text><path d="M317.79546,17.83877c0.19092,0.50116 -0.36318,0.98055 -0.58277,1.46981c-0.46825,1.04332 -0.32836,0.94304 -1.26155,1.60405c-3.06817,2.17328 -6.04524,3.54062 -6.55757,3.68864c-0.51234,0.14801 -2.26928,-0.15959 -2.04924,-0.8197c0.22004,-0.66011 -0.50349,0.03693 0.61477,-1.43447c1.11826,-1.4714 1.46209,-2.80795 2.66401,-3.89356c1.20192,-1.08561 2.5489,-1.73402 3.68864,-1.84432c1.13973,-0.1103 2.92416,-0.23928 3.48371,1.22955z" stroke-width="0.5" stroke-linecap="round"/></g><text transform="translate(127.61005,106.26875) scale(0.5,0.5)" font-size="40" xml:space="preserve" fill="#000000" fill-rule="nonzero" stroke="none" stroke-width="1" stroke-linecap="butt" stroke-linejoin="miter" stroke-miterlimit="10" stroke-dasharray="" stroke-dashoffset="0" font-family="Sans Serif" font-weight="normal" text-anchor="start" style="mix-blend-mode: normal"><tspan x="0" dy="0">Elige tu tipo de carillón:</tspan></text><text transform="translate(112.56004,211.5) scale(0.5,0.5)" font-size="40" xml:space="preserve" fill="#000000" fill-rule="nonzero" stroke="none" stroke-width="1" stroke-linecap="butt" stroke-linejoin="miter" stroke-miterlimit="10" stroke-dasharray="" stroke-dashoffset="0" font-family="Sans Serif" font-weight="normal" text-anchor="start" style="mix-blend-mode: normal"><tspan x="0" dy="0">Elige el color de la carcasa:</tspan></text></g></g></svg>