<svg version="1.1" xmlns="http://www.w3.org/2000/svg" xmlns:xlink="http://www.w3.org/1999/xlink" width="27" height="32" viewBox="0,0,27,32"><g transform="translate(-226.5,-164)"><g data-paper-data="{&quot;isPaintingLayer&quot;:true}" fill-rule="nonzero" stroke="none" stroke-linecap="butt" stroke-linejoin="miter" stroke-miterlimit="10" stroke-dasharray="" stroke-dashoffset="0" style="mix-blend-mode: normal"><path d="M226.5,196v-32h27v32z" fill="none" stroke-width="0"/><path d="M247,176.42858c-2.85715,3 -5.71428,5.28571 -9,7.57143v0.42857c0,0 0.71429,-0.57144 1.14286,-0.57144c2.71428,0 4.28571,0.14287 6.85714,0.57144c0.42857,-0.57143 0.71429,-1.28571 0.85715,-2l0.85714,0.14285c-0.28572,1 -0.42857,2.57143 -0.42857,3.42857c0,0.71429 0.14286,2.14285 0.28571,2.99999l-0.42857,0.28572c-4.57143,-1 -8.14286,-1.42857 -12.85715,-1.42857c-0.42857,0.42857 -0.85714,1 -1.14285,1.57143l-0.85715,-0.28572c1.71428,-4.57143 8.42857,-8.71427 8.42857,-13.57142c0,-1.57143 -0.42857,-2.42858 -2,-2.42858c-0.57143,0 -0.99999,0.14286 -1.57142,0.28572c-0.14285,0.57143 -0.28572,1.42857 -0.28572,1.85714c0,0.57143 0.14285,1 0.42857,1.28572v0.28571c-1.28572,0.42857 -2.14285,0.85715 -3.14285,1.71429c-0.57143,0 -1,-0.42857 -1,-1c0,-3.14285 4,-6.28571 7,-7c4.14285,0 6.85714,1.71429 6.85714,5.85714z" fill="#ff0000" stroke-width="1"/></g></g></svg>