<svg version="1.1" xmlns="http://www.w3.org/2000/svg" xmlns:xlink="http://www.w3.org/1999/xlink" width="80.82952" height="15.58696" viewBox="0,0,80.82952,15.58696"><g transform="translate(-199.58524,-172.20652)"><g data-paper-data="{&quot;isPaintingLayer&quot;:true}" fill-rule="nonzero" stroke="none" stroke-linecap="butt" stroke-linejoin="miter" stroke-miterlimit="10" stroke-dasharray="" stroke-dashoffset="0" style="mix-blend-mode: normal"><path d="M209.97579,175.42206c0.19818,0.31708 0.29727,0.63417 0.29727,0.95126c0,0.51527 -0.17836,1.03054 -0.53508,1.54581c-0.35673,0.47563 -0.83236,0.81253 -1.4269,1.01072c-0.59454,0.15855 -1.26835,0.23782 -2.02143,0.23782c-0.15855,0 -0.31708,0 -0.47563,0c-0.15855,0 -0.47564,-0.01982 -0.95127,-0.05946c-0.15855,0.5549 -0.3369,1.16926 -0.53508,1.84307c-0.19818,0.63417 -0.39635,1.24853 -0.59454,1.84307c-0.07927,0.19818 -0.01982,0.33691 0.17836,0.41618c0.23782,0.07927 0.51527,0.11891 0.83236,0.11891c0.19818,0 0.35672,-0.01982 0.47563,-0.05946c0,0.07927 0,0.13873 0,0.17837h-4.16177c0,-0.03964 0,-0.07927 0,-0.11891c0,-0.03964 0,-0.05946 0,-0.05946c0.15855,0 0.27745,0 0.35672,0c0.27746,0 0.51527,-0.01981 0.71345,-0.05945c0.23782,-0.07927 0.37653,-0.23781 0.41617,-0.47563l2.25925,-8.08573c0,-0.11891 -0.07927,-0.17836 -0.23782,-0.17836c-0.11891,-0.03964 -0.31708,-0.05946 -0.59454,-0.05946c-0.07927,0 -0.15854,0 -0.23781,0c-0.03964,0 -0.0991,-0.01981 -0.17837,-0.05945h-0.17836c0,0 0,-0.01982 0,-0.05946c0,-0.03964 0,-0.07926 0,-0.1189c0.31708,0 0.91162,0 1.78361,0c0.87199,0 1.3278,0 1.36744,0c0.31708,0 0.59454,0 0.83236,0c0.23782,0 0.61435,0.03963 1.12962,0.1189c0.51527,0.03964 1.01072,0.41618 1.48635,1.12963zM208.5489,174.76807c-0.39636,-0.23782 -0.83235,-0.35673 -1.30798,-0.35673c-0.15855,0 -0.33691,0.01982 -0.53509,0.05946c-0.15855,0.03964 -0.35672,0.1189 -0.59454,0.23781c-0.35673,1.34762 -0.73327,2.71506 -1.12963,4.10232c0.43599,0.07927 0.81254,0.11891 1.12963,0.11891c0.27746,0 0.53508,-0.03964 0.7729,-0.11891c0.19818,-0.03964 0.49545,-0.17836 0.89181,-0.41618c0.35673,-0.19818 0.65399,-0.51527 0.89181,-0.95126c0.27746,-0.39636 0.41618,-0.85217 0.41618,-1.36744c0,-0.27746 -0.03963,-0.51527 -0.1189,-0.71345c-0.07927,-0.19818 -0.13872,-0.3369 -0.17836,-0.41617c-0.03964,-0.07927 -0.11891,-0.13872 -0.23782,-0.17836zM213.89975,177.74076c0.35673,0.23782 0.53509,0.5549 0.53509,0.95126c0,0.11891 -0.07927,0.35672 -0.23782,0.71345c-0.15855,0.31708 -0.51527,0.59454 -1.07017,0.83236c-0.51527,0.23782 -1.20889,0.45581 -2.08088,0.65399c-0.03964,0.23782 -0.07927,0.49545 -0.11891,0.77291c-0.03964,0.23782 -0.05945,0.45581 -0.05945,0.65399c0,0.27746 0.03963,0.49545 0.1189,0.654c0.03964,0.15855 0.11891,0.25762 0.23782,0.29726c0.11891,0.07927 0.25763,0.11891 0.41618,0.11891c0.11891,0 0.23781,-0.01981 0.35672,-0.05945c0.43599,-0.15855 0.85218,-0.45581 1.24854,-0.89181c0.35673,-0.39636 0.65399,-0.85217 0.89181,-1.36744h0.05945c-0.11891,0.51527 -0.35672,0.97108 -0.71345,1.36744c-0.35673,0.43599 -0.71344,0.73326 -1.07017,0.89181c-0.35673,0.15855 -0.61435,0.23782 -0.7729,0.23782c-0.19818,0 -0.39636,-0.03964 -0.59454,-0.11891c-0.15855,-0.07927 -0.39636,-0.29727 -0.71345,-0.654c-0.31708,-0.31708 -0.47563,-0.79271 -0.47563,-1.42689c0,-0.23782 0.13872,-0.81254 0.41617,-1.72416c0.31708,-0.91162 0.85217,-1.50616 1.60525,-1.78361c0.75308,-0.31708 1.18908,-0.47563 1.30799,-0.47563c0.23782,0 0.47563,0.1189 0.71345,0.35672zM212.94849,177.74076c-0.39636,0.11891 -0.73326,0.45582 -1.01072,1.01072c-0.27746,0.51527 -0.53508,1.14944 -0.7729,1.90252c0.83236,-0.07927 1.42689,-0.33691 1.78361,-0.7729c0.35673,-0.43599 0.5549,-0.73326 0.59454,-0.8918c0.07927,-0.15855 0.11891,-0.33691 0.11891,-0.53509c0,-0.15855 -0.01982,-0.29727 -0.05946,-0.41618c-0.07927,-0.15855 -0.15855,-0.25763 -0.23782,-0.29727c-0.03964,-0.03964 -0.1189,-0.05945 -0.23781,-0.05945c-0.03964,0 -0.09909,0.01981 -0.17836,0.05945zM217.58589,174.82752h0.17837l-2.02143,7.43174c0,0.03964 -0.01981,0.1189 -0.05945,0.23781c0,0.07927 0,0.15855 0,0.23782c0,0.35673 0.07927,0.53508 0.23781,0.53508c0.43599,0 0.7729,-0.25763 1.01072,-0.7729c0.27746,-0.5549 0.53508,-1.07017 0.7729,-1.5458c-0.23782,0.79271 -0.43599,1.36744 -0.59454,1.72416c-0.15855,0.31708 -0.37653,0.53508 -0.65399,0.65399c-0.31708,0.11891 -0.51527,0.17836 -0.59454,0.17836c-0.15855,0 -0.31708,-0.03964 -0.47563,-0.11891c-0.11891,-0.11891 -0.25764,-0.27745 -0.41618,-0.47563c-0.11891,-0.19818 -0.17836,-0.41618 -0.17836,-0.65399c0,-0.15855 0.01982,-0.31709 0.05946,-0.47563c0.03964,-0.15855 0.07926,-0.29726 0.1189,-0.41617l1.60526,-6.24266c-0.07927,-0.03964 -0.15855,-0.07927 -0.23782,-0.11891c-0.11891,0 -0.23782,0 -0.35673,0c-0.19818,0 -0.31708,0 -0.35672,0h-0.17836c0.15855,-0.07927 0.43599,-0.13872 0.83235,-0.17836c0.39636,0 0.83236,0 1.30799,0zM220.85585,177.97858c0.11891,0.27746 0.17836,0.57473 0.17836,0.89181c0,0.35673 -0.19818,0.95126 -0.59454,1.78361c-0.35673,0.87199 -0.53508,1.50617 -0.53508,1.90252c0,0.15855 0,0.3369 0,0.53508c0.03964,0.11891 0.15854,0.17836 0.35672,0.17836c0.11891,0 0.27745,-0.07927 0.47563,-0.23781c0.19818,-0.15855 0.39635,-0.47563 0.59454,-0.95126c0.23782,-0.47563 0.47563,-0.93145 0.71345,-1.36744c-0.07927,0.5549 -0.25763,1.07017 -0.53508,1.5458c-0.23782,0.47563 -0.49545,0.79272 -0.7729,0.95126c-0.23782,0.15855 -0.41617,0.23782 -0.53508,0.23782c-0.15855,0 -0.31709,-0.05946 -0.47564,-0.17837c-0.11891,-0.11891 -0.218,-0.25763 -0.29727,-0.41617c-0.07927,-0.15855 -0.13872,-0.31708 -0.17836,-0.47563c-0.03964,-0.11891 -0.05946,-0.27745 -0.05946,-0.47563c0,-0.43599 0.17836,-1.07017 0.53509,-1.90252c0.35673,-0.87199 0.53509,-1.50617 0.53509,-1.90252c0,-0.15855 0,-0.25763 0,-0.29727c0,-0.11891 -0.07927,-0.17836 -0.23782,-0.17836c-0.15855,0 -0.33691,0.09909 -0.53509,0.29727c-0.19818,0.15855 -0.39636,0.41617 -0.59454,0.7729c-0.19818,0.31708 -0.35672,0.67381 -0.47563,1.07017h-0.17836c0.23782,-0.71345 0.47563,-1.22872 0.71345,-1.5458c0.27746,-0.35673 0.51527,-0.59454 0.71345,-0.71345c0.19818,-0.07927 0.33691,-0.1189 0.41618,-0.1189c0.15855,0 0.31708,0.05945 0.47563,0.17836c0.11891,0.11891 0.218,0.25763 0.29727,0.41617zM222.25096,175.60042l-2.43761,0.71345c0.59454,-0.35673 1.16926,-0.73327 1.72416,-1.12963c0.5549,-0.43599 0.79271,-0.69363 0.71344,-0.7729c0.03964,0.07927 0.05946,0.19818 0.05946,0.35673c0,0.11891 0,0.23781 0,0.35672c0,0.19818 -0.01982,0.35672 -0.05946,0.47563zM226.32561,177.74076c0.27746,0.23782 0.41618,0.49544 0.41618,0.7729c0,0.15855 -0.05945,0.35672 -0.17836,0.59454c-0.11891,0.27746 -0.33691,0.41618 -0.654,0.41618c-0.07927,0 -0.15854,-0.01981 -0.23781,-0.05945c-0.07927,-0.03964 -0.13872,-0.0991 -0.17836,-0.17837c-0.03964,-0.07927 -0.05946,-0.17835 -0.05946,-0.29726c0,-0.15855 0.01982,-0.27746 0.05946,-0.35673c0.03964,-0.03964 0.15854,-0.13872 0.35672,-0.29727c0.19818,-0.11891 0.29727,-0.218 0.29727,-0.29727c0,-0.03964 -0.01981,-0.09909 -0.05945,-0.17836c-0.11891,-0.15855 -0.29727,-0.23782 -0.53509,-0.23782c-0.23782,0 -0.53508,0.17836 -0.89181,0.53509c-0.35673,0.35673 -0.65399,0.97108 -0.89181,1.84307c-0.27746,0.91162 -0.41618,1.84307 -0.41618,2.79433c0,0.15855 0.07927,0.27746 0.23782,0.35673c0.15855,0.11891 0.35672,0.17836 0.59454,0.17836c0.07927,0 0.25763,-0.05945 0.53509,-0.17836c0.23782,-0.07927 0.53508,-0.33691 0.8918,-0.7729c0.31708,-0.39636 0.59454,-0.87199 0.83236,-1.4269h0.11891c-0.19818,0.59454 -0.47563,1.12963 -0.83236,1.60525c-0.39636,0.47563 -0.75308,0.75308 -1.07017,0.83235c-0.35673,0.07927 -0.59454,0.11891 -0.71345,0.11891c-0.43599,0 -0.7729,-0.13872 -1.01072,-0.41618c-0.19818,-0.27746 -0.33691,-0.5549 -0.41618,-0.83235c-0.07927,-0.31708 -0.11891,-0.63418 -0.11891,-0.95126c0,-0.27746 0.01982,-0.5549 0.05946,-0.83235c0.07927,-0.23782 0.218,-0.59454 0.41618,-1.07017c0.19818,-0.51527 0.51527,-0.95126 0.95126,-1.30799c0.39636,-0.43599 0.91163,-0.65399 1.5458,-0.65399c0.19818,0 0.37654,0.01981 0.53508,0.05945c0.15855,0.03964 0.29727,0.11891 0.41618,0.23782zM233.16281,177.38403c-0.51527,1.82325 -1.01072,3.62668 -1.48635,5.4103c-0.03964,0.11891 0,0.218 0.11891,0.29727c0.07927,0.03964 0.17836,0.05946 0.29727,0.05946c0.07927,0 0.19817,-0.03964 0.35672,-0.11891c0.19818,-0.11891 0.39636,-0.39635 0.59454,-0.83235c0.19818,-0.39636 0.37654,-0.79272 0.53509,-1.18908h0.23782c-0.43599,0.9909 -0.75308,1.6449 -0.95126,1.96198c-0.15855,0.27746 -0.45582,0.41617 -0.89181,0.41617c-0.27746,0 -0.47563,-0.05945 -0.59454,-0.17836c-0.07927,-0.11891 -0.15855,-0.27745 -0.23782,-0.47563c-0.03964,-0.15855 -0.05945,-0.3369 -0.05945,-0.53508c0,-0.19818 0,-0.37654 0,-0.53509c0,-0.11891 0,-0.19818 0,-0.23782c0,0 0,-0.03964 0,-0.11891c-0.07927,0.07927 -0.33691,0.45582 -0.77291,1.12963c-0.43599,0.67381 -0.83235,1.01072 -1.18907,1.01072c-0.03964,0 -0.15855,-0.01982 -0.35673,-0.05946c-0.19818,-0.03964 -0.37654,-0.19817 -0.53509,-0.47563c-0.15855,-0.27746 -0.23781,-0.59454 -0.23781,-0.95126c0,-0.11891 0.01981,-0.29727 0.05945,-0.53509c0.03964,-0.27746 0.218,-0.87199 0.53509,-1.78361c0.35673,-0.95126 0.5549,-1.52598 0.59454,-1.72416c0,-0.07927 -0.01981,-0.13872 -0.05945,-0.17836c-0.07927,-0.03964 -0.11891,-0.07927 -0.11891,-0.11891c-0.47563,0.15855 -0.87199,0.53509 -1.18907,1.12963c-0.31708,0.59454 -0.53509,0.95126 -0.654,1.07017h-0.11891c0.31708,-0.67381 0.63418,-1.24853 0.95126,-1.72416c0.31708,-0.43599 0.65399,-0.65399 1.01071,-0.65399c0.11891,0 0.25764,0.03964 0.41618,0.11891c0.15855,0.03964 0.27745,0.15854 0.35672,0.35672c0.07927,0.19818 0.11891,0.45582 0.11891,0.7729c0,0.27746 -0.19818,0.87199 -0.59454,1.78362c-0.35673,0.91162 -0.53509,1.60525 -0.53509,2.08088c0,0.15855 0.01981,0.31708 0.05945,0.47563c0,0.11891 0.09909,0.17836 0.29727,0.17836c0.23782,0 0.43599,-0.11891 0.59454,-0.35672c0.19818,-0.23782 0.39635,-0.51527 0.59453,-0.83236c0.19818,-0.35673 0.41618,-0.7729 0.654,-1.24853c0.23782,-0.47563 0.43599,-0.97108 0.59454,-1.48635c0.19818,-0.5549 0.37654,-1.16926 0.53509,-1.84307c0.03964,0 0.11891,0 0.23782,0c0.07927,0 0.15854,0 0.23781,0c0.07927,0 0.15855,0.01981 0.23782,0.05945c0.15855,0 0.27745,-0.03963 0.35672,-0.1189zM236.84895,174.82752h0.17836l-2.02143,7.43174c0,0.03964 0,0.1189 0,0.23781c-0.03964,0.07927 -0.05946,0.15855 -0.05946,0.23782c0,0.35673 0.07927,0.53508 0.23782,0.53508c0.43599,0 0.79271,-0.25763 1.07017,-0.7729c0.23782,-0.5549 0.47563,-1.07017 0.71345,-1.5458c-0.19818,0.79271 -0.39635,1.36744 -0.59454,1.72416c-0.15855,0.31708 -0.37654,0.53508 -0.65399,0.65399c-0.27746,0.11891 -0.47563,0.17836 -0.59454,0.17836c-0.15855,0 -0.31708,-0.03964 -0.47563,-0.11891c-0.11891,-0.11891 -0.25763,-0.27745 -0.41617,-0.47563c-0.11891,-0.19818 -0.17837,-0.41618 -0.17837,-0.65399c0,-0.15855 0.01982,-0.31709 0.05946,-0.47563c0.03964,-0.15855 0.07927,-0.29726 0.11891,-0.41617l1.60525,-6.24266c-0.07927,-0.03964 -0.15855,-0.07927 -0.23782,-0.11891c-0.11891,0 -0.23782,0 -0.35673,0c-0.15855,0 -0.27745,0 -0.35672,0h-0.17836c0.15855,-0.07927 0.436,-0.13872 0.83236,-0.17836c0.39636,0 0.83235,0 1.30798,0zM241.96198,178.15694c0.03964,-0.11891 0.07926,-0.218 0.1189,-0.29727c0.03964,-0.11891 0.09909,-0.25763 0.17836,-0.41618h0.89181c-0.07927,0.51527 -0.25763,1.2089 -0.53509,2.08089c-0.27746,0.87199 -0.49544,1.58544 -0.65399,2.14034c-0.11891,0.5549 -0.17837,1.03053 -0.17837,1.42689c0,0.07927 0.05946,0.11891 0.17837,0.11891c0.11891,0 0.29727,-0.09909 0.53508,-0.29727c0.19818,-0.19818 0.41618,-0.49545 0.65399,-0.89181c0.23782,-0.39636 0.45581,-0.7729 0.65399,-1.12963c-0.19818,0.5549 -0.43599,1.05036 -0.71345,1.48635c-0.27746,0.47563 -0.53508,0.77289 -0.7729,0.8918c-0.23782,0.11891 -0.39636,0.17837 -0.47563,0.17837c-0.11891,0 -0.25763,-0.03964 -0.41618,-0.11891c-0.11891,-0.07927 -0.218,-0.17836 -0.29727,-0.29727c-0.07927,-0.11891 -0.13873,-0.218 -0.17837,-0.29727c0,-0.11891 0,-0.23781 0,-0.35672c0,-0.19818 0,-0.31709 0,-0.35673c0,-0.03964 0.01982,-0.07927 0.05946,-0.11891c-0.39636,0.47563 -0.73326,0.87199 -1.01072,1.18908c-0.31708,0.31708 -0.69363,0.47563 -1.12963,0.47563c-0.07927,0 -0.218,-0.01981 -0.41618,-0.05945c-0.19818,-0.07927 -0.35672,-0.218 -0.47563,-0.41618c-0.15855,-0.23782 -0.25763,-0.47563 -0.29727,-0.71344c-0.03964,-0.23782 -0.05945,-0.436 -0.05945,-0.59454c0,-0.63417 0.15855,-1.24853 0.47563,-1.84307c0.35673,-0.63417 0.73327,-1.14944 1.12963,-1.5458c0.43599,-0.39636 0.73326,-0.65399 0.89181,-0.7729c0.15855,-0.07927 0.39636,-0.13872 0.71345,-0.17836c0.27746,0 0.49544,0.05945 0.65399,0.17836c0.19818,0.11891 0.35673,0.29727 0.47564,0.53509zM240.23782,177.91913c-0.5549,0.63417 -0.97108,1.38725 -1.24853,2.25924c-0.27746,0.83236 -0.41618,1.68453 -0.41618,2.55652c0,0.19818 0.05946,0.35672 0.17837,0.47563c0.07927,0.11891 0.19817,0.17836 0.35672,0.17836c0,0 0.07927,-0.03964 0.23781,-0.11891c0.19818,-0.07927 0.41618,-0.25762 0.654,-0.53508c0.27746,-0.23782 0.5549,-0.59454 0.83236,-1.07017c0.27746,-0.43599 0.51526,-0.89181 0.71345,-1.36744c0.15855,-0.47563 0.23781,-0.91162 0.23781,-1.30798c0,-0.39636 -0.07927,-0.71345 -0.23781,-0.95127c-0.15855,-0.27746 -0.35673,-0.41618 -0.59454,-0.41618c-0.31708,0 -0.5549,0.09909 -0.71344,0.29727zM249.21535,178.3353c0.03964,0.11891 0.05945,0.25763 0.05945,0.41618c0,0.35673 -0.09909,0.5549 -0.29727,0.59454c-0.15855,0.03964 -0.25763,0.05945 -0.29727,0.05945c-0.31708,0 -0.53508,-0.13872 -0.65399,-0.41617c-0.03964,-0.15855 0.07926,-0.31709 0.35672,-0.47564c0.27746,-0.15855 0.41618,-0.31708 0.41618,-0.47563c-0.23782,-0.27746 -0.59454,-0.41618 -1.07017,-0.41618c-0.07927,0 -0.13872,0 -0.17836,0c-0.07927,0 -0.218,0.01982 -0.41618,0.05946c-0.15855,0 -0.35672,0.05945 -0.59454,0.17836c-0.19818,0.11891 -0.31708,0.27745 -0.35672,0.47563c-0.03964,0.15855 -0.05945,0.27745 -0.05945,0.35672c0,0.39636 0.35672,0.7729 1.07017,1.12962c0.75308,0.31708 1.18908,0.63418 1.30799,0.95127c0.11891,0.27746 0.17836,0.51526 0.17836,0.71344c0,0.23782 -0.05945,0.47564 -0.17836,0.71345c-0.07927,0.19818 -0.23781,0.41617 -0.47563,0.65399c-0.23782,0.19818 -0.51527,0.35672 -0.83236,0.47563c-0.31708,0.11891 -0.65399,0.17836 -1.01072,0.17836c-0.23782,0 -0.57472,-0.03964 -1.01071,-0.11891c-0.39636,-0.11891 -0.63418,-0.33691 -0.71345,-0.65399c-0.11891,-0.27746 -0.17836,-0.47563 -0.17836,-0.59454c0,-0.23782 0.05945,-0.43599 0.17836,-0.59454c0.11891,-0.15855 0.29727,-0.23782 0.53509,-0.23782c0.19818,0 0.35672,0 0.47563,0c0.11891,0.03964 0.17837,0.13872 0.17837,0.29727c0.03964,0.11891 0.05945,0.19818 0.05945,0.23782c0,0.15855 -0.03964,0.27746 -0.11891,0.35673c-0.11891,0.11891 -0.23781,0.17836 -0.35672,0.17836c-0.11891,-0.03964 -0.19818,-0.03964 -0.23782,0c-0.07927,0.03964 -0.15854,0.07926 -0.23781,0.1189c0,0.19818 0.05945,0.35673 0.17836,0.47564c0.11891,0.11891 0.27745,0.21799 0.47563,0.29726c0.27746,0.07927 0.53508,0.11891 0.7729,0.11891c0.39636,0 0.71345,-0.07927 0.95126,-0.23781c0.23782,-0.11891 0.43599,-0.25763 0.59454,-0.41618c0.11891,-0.15855 0.17836,-0.29727 0.17836,-0.41618c0.03964,-0.15855 0.05946,-0.25763 0.05946,-0.29727c0,-0.23782 -0.05945,-0.43599 -0.17836,-0.59454c-0.11891,-0.15855 -0.33691,-0.31708 -0.65399,-0.47563c-0.31708,-0.15855 -0.67381,-0.33691 -1.07017,-0.53509c-0.43599,-0.31708 -0.65399,-0.67381 -0.65399,-1.07017c0,-0.43599 0.13872,-0.83235 0.41618,-1.18908c0.31708,-0.31708 0.63417,-0.51527 0.95126,-0.59454c0.35673,-0.07927 0.65399,-0.11891 0.89181,-0.11891c0.35673,0 0.654,0.07927 0.89181,0.23782c0.27746,0.11891 0.49544,0.33691 0.65399,0.65399zM259.50088,177.44348l-2.02143,6.65883c-0.15855,0.5549 -0.5549,0.9909 -1.18908,1.30799c-0.59454,0.27746 -1.30799,0.41618 -2.14034,0.41618c-0.31708,0 -0.59454,-0.05945 -0.83236,-0.17836c-0.19818,-0.07927 -0.31708,-0.25763 -0.35672,-0.53509c-0.03964,-0.19818 0,-0.37654 0.11891,-0.53508c0.07927,-0.15855 0.19817,-0.27746 0.35672,-0.35673c0.15855,-0.11891 0.29727,-0.17836 0.41618,-0.17836c0.23782,0 0.41618,0.15855 0.53509,0.47563c0.03964,0.11891 0,0.29727 -0.11891,0.53509c-0.15855,0.23782 -0.23782,0.37654 -0.23782,0.41618c0,0.11891 0.05945,0.17836 0.17836,0.17836c0.15855,0.03964 0.27746,0.05945 0.35673,0.05945c0.43599,0 0.81254,-0.09909 1.12963,-0.29727c0.31709,-0.19818 0.53508,-0.49545 0.65399,-0.89181c0.11891,-0.43599 0.27746,-0.95126 0.47564,-1.5458c0.19818,-0.59454 0.33691,-1.05036 0.41618,-1.36744c-0.43599,0.5549 -0.81254,1.03053 -1.12962,1.42689c-0.31708,0.35673 -0.65399,0.53509 -1.01072,0.53509c-0.15855,0 -0.31708,-0.01981 -0.47563,-0.05945c-0.15855,-0.07927 -0.29727,-0.218 -0.41618,-0.41618c-0.11891,-0.23782 -0.17836,-0.51527 -0.17836,-0.83235v-0.17836c0,-0.51527 0.23782,-1.22872 0.71345,-2.14034c0.43599,-0.91162 0.65399,-1.5458 0.65399,-1.90252v-0.17836c0,-0.15855 -0.09909,-0.23782 -0.29727,-0.23782c-0.15855,0 -0.3369,0.09909 -0.53508,0.29727c-0.19818,0.15855 -0.41618,0.436 -0.65399,0.83236c-0.27746,0.39636 -0.53508,0.79272 -0.7729,1.18908c0.11891,-0.51527 0.33691,-1.03053 0.65399,-1.5458c0.35673,-0.47563 0.654,-0.75308 0.89181,-0.83235c0.23782,-0.07927 0.39636,-0.11891 0.47563,-0.11891c0.15855,0 0.31708,0.05945 0.47563,0.17836c0.15855,0.07927 0.25763,0.19817 0.29727,0.35672c0.03964,0.11891 0.07927,0.25763 0.11891,0.41618c0.03964,0.11891 0.05945,0.27745 0.05945,0.47563c0,0.47563 -0.218,1.12962 -0.65399,1.96198c-0.43599,0.83236 -0.654,1.46653 -0.654,1.90252c0,0.19818 0.01982,0.37653 0.05946,0.53508c0.03964,0.11891 0.13872,0.17837 0.29727,0.17837c0.11891,0 0.33691,-0.13872 0.65399,-0.41618c0.31709,-0.27746 0.654,-0.73326 1.01072,-1.36744c0.35672,-0.59454 0.65399,-1.2089 0.89181,-1.84307c0.23782,-0.67381 0.49545,-1.46653 0.7729,-2.37815h0.17836c0.15855,0 0.29726,0 0.41618,0c0.15855,0 0.29727,0 0.41618,0zM264.49501,174.17352h6.8372c-0.11891,0.59454 -0.27745,1.20889 -0.47563,1.84307c-0.15855,0.67381 -0.33691,1.26835 -0.53508,1.78361h-0.05946c0,-0.11891 0.01981,-0.35672 0.05946,-0.71345c0.03964,-0.31708 0.05946,-0.57472 0.05946,-0.7729c0,-0.23782 -0.01981,-0.45581 -0.05946,-0.65399c-0.03964,-0.15855 -0.15855,-0.33691 -0.35672,-0.53509c-0.15855,-0.19818 -0.33691,-0.35672 -0.53509,-0.47563c-0.23782,-0.07927 -0.47563,-0.11891 -0.71344,-0.11891h-0.17836c-0.23782,0.75308 -0.53509,1.70435 -0.89181,2.85379c-0.35672,1.18908 -0.65399,2.21961 -0.89181,3.0916c-0.27745,0.83236 -0.47563,1.50616 -0.59454,2.02143c-0.03964,0.07927 -0.05945,0.13873 -0.05945,0.17837c0,0.27746 0.15855,0.43599 0.47563,0.47563c0.27745,0.07927 0.61435,0.1189 1.01071,0.1189h0.17836c0,0.07927 0,0.13873 0,0.17837h-4.6374c0,-0.11891 0.01981,-0.17837 0.05945,-0.17837c0.07927,0.03964 0.15855,0.05946 0.23782,0.05946c0.31709,0 0.63417,-0.05945 0.95126,-0.17836c0.31709,-0.11891 0.51527,-0.33691 0.59454,-0.654l2.25924,-7.90736c-0.11891,-0.03964 -0.27745,-0.05945 -0.47563,-0.05945c-0.23782,0 -0.49545,0.07927 -0.7729,0.23782c-0.27745,0.15855 -0.57472,0.37653 -0.8918,0.65399c-0.31709,0.27746 -0.59454,0.654 -0.83236,1.12963c-0.27745,0.47563 -0.51527,0.93144 -0.71345,1.36744h-0.17836zM275.31561,174.17352h3.62669c0,0.03964 0,0.09909 0,0.17836c-0.07927,0 -0.13872,0 -0.17836,0c-0.27745,0 -0.57473,0.07927 -0.89181,0.23781c-0.31709,0.15855 -0.65399,0.53509 -1.01072,1.12963c-0.35672,0.59454 -0.83235,1.38725 -1.42689,2.37815c-0.59454,0.9909 -1.26835,2.1007 -2.02143,3.32942c-0.75308,1.22871 -1.16926,1.88271 -1.24853,1.96198c-0.03964,0.03964 -0.07927,0.05946 -0.11891,0.05946c-0.07927,-0.03964 -0.1189,-0.07927 -0.1189,-0.11891l-0.17836,-8.38299c0,-0.23782 -0.09909,-0.39636 -0.29727,-0.47563c-0.19818,-0.07927 -0.41618,-0.11891 -0.654,-0.11891c-0.15855,0 -0.27745,0 -0.35672,0c0,-0.03964 0,-0.09909 0,-0.17836h4.04287c0,0.07927 0,0.13872 0,0.17836c-0.11891,0 -0.23781,0 -0.35672,0c-0.39636,0 -0.67381,0.05945 -0.83236,0.17836c-0.19818,0.11891 -0.29727,0.25763 -0.29727,0.41618l0.1189,6.1832l3.32942,-5.52921c0.15855,-0.27746 0.23782,-0.51526 0.23782,-0.71345c0,-0.19818 -0.09909,-0.3369 -0.29727,-0.41617c-0.19818,-0.07927 -0.43599,-0.11891 -0.71345,-0.11891c-0.15855,0 -0.25763,0 -0.29727,0c-0.03964,0 -0.05946,-0.01982 -0.05946,-0.05946c0,0 0,-0.03963 0,-0.1189z" fill="#ffffff" stroke-width="1"/><path d="M199.58524,187.79348v-15.58696h80.82952v15.58696z" fill="none" stroke-width="0"/></g></g></svg>