<svg version="1.1" xmlns="http://www.w3.org/2000/svg" xmlns:xlink="http://www.w3.org/1999/xlink" width="188.75459" height="120.97156" viewBox="0,0,188.75459,120.97156"><g transform="translate(-145.62271,-115.17626)"><g data-paper-data="{&quot;isPaintingLayer&quot;:true}" fill-rule="nonzero" stroke="#001026" stroke-linejoin="miter" stroke-miterlimit="10" stroke-dasharray="" stroke-dashoffset="0" style="mix-blend-mode: normal"><path d="M153.03696,115.17627z" fill="none" stroke-width="1.5" stroke-linecap="butt"/><g fill="#ff0000" stroke-width="0.5"><path d="M145.99291,206.77154c-0.0414,-23.04227 -0.27589,-36.00276 0.05051,-59.04275c0.15497,-10.93939 4.12036,-23.62661 16.47111,-23.62661c40.91425,0 157.63453,4.05358 162.10684,5.30517c9.71444,2.71863 8.40701,25.10166 8.97551,40.20459c0.58441,15.52528 1.7701,42.75823 -3.66498,44.56134c-5.43509,1.8031 -55.69686,6.93064 -90.53107,9.7513c-32.05933,2.59597 -50.09476,5.46869 -82.25464,4.93818c-12.11973,-0.19993 -11.13721,-13.15533 -11.15327,-22.09124z" data-paper-data="{&quot;origPos&quot;:null}" stroke-linecap="butt"/><path d="M218.46299,225.13507c0,0 4.10029,6.48847 4.28455,6.61329c2.35829,1.59756 34.02595,-1.06895 35.38568,-2.53182c1.00871,-1.0852 1.83384,-7.25978 1.83384,-7.25978l9.67334,-0.4745c0,0 -6.63494,9.71128 -9.51323,10.92497c-9.16938,3.86645 -31.83837,4.10007 -38.81525,2.72407c-3.51946,-0.5268 -12.36366,-9.45137 -12.36366,-9.45137z" data-paper-data="{&quot;origPos&quot;:null,&quot;origRot&quot;:0}" stroke-linecap="round"/></g></g></g></svg>