<svg version="1.1" xmlns="http://www.w3.org/2000/svg" xmlns:xlink="http://www.w3.org/1999/xlink" width="26.23831" height="107.43777" viewBox="0,0,26.23831,107.43777"><g transform="translate(-226.94991,-126.28116)"><g data-paper-data="{&quot;isPaintingLayer&quot;:true}" fill-rule="nonzero" stroke-linecap="butt" stroke-linejoin="miter" stroke-miterlimit="10" stroke-dasharray="" stroke-dashoffset="0" style="mix-blend-mode: normal"><path d="M226.94991,231.5775c0,-2.50714 0,-62.42944 0,-102.38744c0,-1.13522 1.2268,-2.9089 2.01202,-2.9089c8.63819,0 19.84667,0 22.13427,0c0.76253,0 1.95389,1.76582 1.95389,2.58742c0,39.83256 0,99.12757 0,102.38746c0,1.08664 -0.90067,2.46289 -1.71066,2.46289c-2.42999,0 -14.15755,0 -22.98558,0c-0.5479,0 -1.40393,-1.30568 -1.40393,-2.14141z" data-paper-data="{&quot;origPos&quot;:null}" fill="#696969" stroke="#001026" stroke-width="0"/><text transform="translate(227.95436,164.21374) scale(0.47234,0.5063)" font-size="40" xml:space="preserve" fill="#000000" fill-rule="nonzero" stroke="#000000" stroke-width="2" stroke-linecap="butt" stroke-linejoin="miter" stroke-miterlimit="10" stroke-dasharray="" stroke-dashoffset="0" font-family="Sans Serif" font-weight="normal" text-anchor="start" style="mix-blend-mode: normal"><tspan x="0" dy="0">Si</tspan></text><text transform="translate(243.82774,164.32681) scale(0.45453,0.45453)" font-size="40" xml:space="preserve" fill="#000000" fill-rule="nonzero" stroke="#000000" stroke-width="3" stroke-linecap="butt" stroke-linejoin="miter" stroke-miterlimit="10" stroke-dasharray="" stroke-dashoffset="0" font-family="Handwriting" font-weight="normal" text-anchor="start" style="mix-blend-mode: normal"><tspan x="0" dy="0">b</tspan></text></g></g></svg>