<svg version="1.1" xmlns="http://www.w3.org/2000/svg" xmlns:xlink="http://www.w3.org/1999/xlink" width="418.79959" height="124.81784" viewBox="0,0,418.79959,124.81784"><defs><linearGradient x1="43.43154" y1="84.20491" x2="43.43154" y2="208.02275" gradientUnits="userSpaceOnUse" id="color-1"><stop offset="0" stop-color="#ffffff"/><stop offset="1" stop-color="#808080"/></linearGradient><linearGradient x1="71.41014" y1="84.70223" x2="71.41014" y2="207.48826" gradientUnits="userSpaceOnUse" id="color-2"><stop offset="0" stop-color="#ffffff"/><stop offset="1" stop-color="#808080"/></linearGradient><linearGradient x1="127.50439" y1="88.47597" x2="127.50439" y2="207.16914" gradientUnits="userSpaceOnUse" id="color-3"><stop offset="0" stop-color="#ffffff"/><stop offset="1" stop-color="#808080"/></linearGradient><linearGradient x1="155.42857" y1="89.11338" x2="155.42857" y2="206.81745" gradientUnits="userSpaceOnUse" id="color-4"><stop offset="0" stop-color="#ffffff"/><stop offset="1" stop-color="#808080"/></linearGradient><linearGradient x1="267.06107" y1="94.51029" x2="267.06107" y2="201.94807" gradientUnits="userSpaceOnUse" id="color-5"><stop offset="0" stop-color="#ffffff"/><stop offset="1" stop-color="#808080"/></linearGradient><linearGradient x1="322.9736" y1="97.04453" x2="322.9736" y2="199.91194" gradientUnits="userSpaceOnUse" id="color-6"><stop offset="0" stop-color="#ffffff"/><stop offset="1" stop-color="#808080"/></linearGradient><linearGradient x1="351.0911" y1="98.02839" x2="351.0911" y2="199.05772" gradientUnits="userSpaceOnUse" id="color-7"><stop offset="0" stop-color="#ffffff"/><stop offset="1" stop-color="#808080"/></linearGradient><linearGradient x1="407.10317" y1="101.04105" x2="407.10317" y2="195.98083" gradientUnits="userSpaceOnUse" id="color-8"><stop offset="0" stop-color="#ffffff"/><stop offset="1" stop-color="#808080"/></linearGradient><linearGradient x1="435.13095" y1="102.20223" x2="435.13095" y2="194.76852" gradientUnits="userSpaceOnUse" id="color-9"><stop offset="0" stop-color="#ffffff"/><stop offset="1" stop-color="#808080"/></linearGradient><linearGradient x1="211.61818" y1="92.44202" x2="211.61818" y2="205.24175" gradientUnits="userSpaceOnUse" id="color-10"><stop offset="0" stop-color="#ffffff"/><stop offset="1" stop-color="#808080"/></linearGradient><linearGradient x1="239.52767" y1="93.32876" x2="239.52767" y2="203.3085" gradientUnits="userSpaceOnUse" id="color-11"><stop offset="0" stop-color="#ffffff"/><stop offset="1" stop-color="#808080"/></linearGradient><linearGradient x1="43.66945" y1="85.16529" x2="43.66945" y2="128.52739" gradientUnits="userSpaceOnUse" id="color-12"><stop offset="0" stop-color="#b9b9b9"/><stop offset="1" stop-color="#f4f4f4" stop-opacity="0.39189"/></linearGradient><linearGradient x1="71.38536" y1="86.07401" x2="71.38536" y2="128.52739" gradientUnits="userSpaceOnUse" id="color-13"><stop offset="0" stop-color="#b9b9b9"/><stop offset="1" stop-color="#f4f4f4" stop-opacity="0.39189"/></linearGradient><linearGradient x1="127.51885" y1="89.90269" x2="127.51885" y2="128.52739" gradientUnits="userSpaceOnUse" id="color-14"><stop offset="0" stop-color="#b9b9b9"/><stop offset="1" stop-color="#f4f4f4" stop-opacity="0.39189"/></linearGradient><linearGradient x1="211.62408" y1="93.85289" x2="211.62408" y2="128.52739" gradientUnits="userSpaceOnUse" id="color-15"><stop offset="0" stop-color="#b9b9b9"/><stop offset="1" stop-color="#f4f4f4" stop-opacity="0.39189"/></linearGradient><linearGradient x1="239.57283" y1="94.65724" x2="239.57283" y2="128.52739" gradientUnits="userSpaceOnUse" id="color-16"><stop offset="0" stop-color="#b9b9b9"/><stop offset="1" stop-color="#f4f4f4" stop-opacity="0.39189"/></linearGradient><linearGradient x1="267.04611" y1="95.89453" x2="267.04611" y2="128.52739" gradientUnits="userSpaceOnUse" id="color-17"><stop offset="0" stop-color="#b9b9b9"/><stop offset="1" stop-color="#f4f4f4" stop-opacity="0.39189"/></linearGradient><linearGradient x1="322.95832" y1="98.39796" x2="322.95832" y2="128.52739" gradientUnits="userSpaceOnUse" id="color-18"><stop offset="0" stop-color="#b9b9b9"/><stop offset="1" stop-color="#f4f4f4" stop-opacity="0.39189"/></linearGradient><linearGradient x1="351.11467" y1="99.34017" x2="351.11467" y2="128.52739" gradientUnits="userSpaceOnUse" id="color-19"><stop offset="0" stop-color="#b9b9b9"/><stop offset="1" stop-color="#f4f4f4" stop-opacity="0.39189"/></linearGradient><linearGradient x1="407.0918" y1="102.57161" x2="407.0918" y2="128.52739" gradientUnits="userSpaceOnUse" id="color-20"><stop offset="0" stop-color="#b9b9b9"/><stop offset="1" stop-color="#f4f4f4" stop-opacity="0.39189"/></linearGradient><linearGradient x1="435.10474" y1="103.66505" x2="435.10474" y2="128.52739" gradientUnits="userSpaceOnUse" id="color-21"><stop offset="0" stop-color="#b9b9b9"/><stop offset="1" stop-color="#f4f4f4" stop-opacity="0.39189"/></linearGradient><linearGradient x1="155.43031" y1="90.49905" x2="155.43031" y2="128.52739" gradientUnits="userSpaceOnUse" id="color-22"><stop offset="0" stop-color="#b9b9b9"/><stop offset="1" stop-color="#f4f4f4" stop-opacity="0.39189"/></linearGradient></defs><g transform="translate(-29.88145,-83.70491)"><g data-paper-data="{&quot;isPaintingLayer&quot;:true}" fill-rule="nonzero" stroke-linecap="butt" stroke-linejoin="miter" stroke-miterlimit="10" stroke-dasharray="" stroke-dashoffset="0" style="mix-blend-mode: normal"><path d="M30.38145,205.55483c0,-2.88938 0,-71.94749 0,-117.99753c0,-1.3083 1.2268,-3.35239 2.01202,-3.35239c8.63819,0 19.84667,0 22.13427,0c0.76253,0 1.95389,2.03504 1.95389,2.98191c0,45.90548 0,114.24066 0,117.99755c0,1.25231 -0.90067,2.83838 -1.71066,2.83838c-2.42999,0 -14.15755,0 -22.98558,0c-0.5479,0 -1.40393,-1.50474 -1.40393,-2.4679z" fill="url(#color-1)" stroke="#001026" stroke-width="1"/><path d="M58.36005,205.0409c0,-2.8653 0,-71.34793 0,-117.01422c0,-1.2974 1.2268,-3.32445 2.01202,-3.32445c8.63819,0 19.84667,0 22.13427,0c0.76253,0 1.95389,2.01808 1.95389,2.95706c0,45.52293 0,113.28865 0,117.01424c0,1.24187 -0.90067,2.81473 -1.71066,2.81473c-2.42999,0 -14.15755,0 -22.98558,0c-0.5479,0 -1.40393,-1.4922 -1.40393,-2.44733z" fill="url(#color-2)" stroke="#001026" stroke-width="1"/><path d="M114.4543,204.80335c0,-2.76979 0,-68.96967 0,-113.11375c0,-1.25415 1.2268,-3.21363 2.01202,-3.21363c8.63819,0 19.84667,0 22.13427,0c0.76253,0 1.95389,1.95082 1.95389,2.8585c0,44.0055 0,109.51236 0,113.11376c0,1.20048 -0.90067,2.72091 -1.71066,2.72091c-2.42999,0 -14.15755,0 -22.98558,0c-0.5479,0 -1.40393,-1.44246 -1.40393,-2.36576z" data-paper-data="{&quot;origPos&quot;:null}" fill="url(#color-3)" stroke="#001026" stroke-width="1"/><path d="M142.37848,204.47137c0,-2.74671 0,-68.39492 0,-112.17114c0,-1.2437 1.2268,-3.18685 2.01202,-3.18685c8.63819,0 19.84667,0 22.13427,0c0.76253,0 1.95389,1.93456 1.95389,2.83468c0,43.63879 0,108.59976 0,112.17115c0,1.19048 -0.90067,2.69824 -1.71066,2.69824c-2.42999,0 -14.15755,0 -22.98558,0c-0.5479,0 -1.40393,-1.43044 -1.40393,-2.34605z" fill="url(#color-4)" stroke="#001026" stroke-width="1"/><path d="M254.01098,199.80662c0,-2.50714 0,-62.42944 0,-102.38744c0,-1.13523 1.2268,-2.90889 2.01202,-2.90889c8.63819,0 19.84667,0 22.13427,0c0.76253,0 1.95389,1.76582 1.95389,2.58743c0,39.83256 0,99.12757 0,102.38746c0,1.08664 -0.90067,2.46289 -1.71066,2.46289c-2.42999,0 -14.15755,0 -22.98558,0c-0.5479,0 -1.40393,-1.30567 -1.40393,-2.14141z" data-paper-data="{&quot;origPos&quot;:null}" fill="url(#color-5)" stroke="#001026" stroke-width="1"/><path d="M309.92351,197.86158c0,-2.40049 0,-59.77371 0,-98.03191c0,-1.08693 1.2268,-2.78514 2.01202,-2.78514c8.63819,0 19.84667,0 22.13427,0c0.76253,0 1.95389,1.69071 1.95389,2.47736c0,38.1381 0,94.91071 0,98.03193c0,1.04041 -0.90067,2.35812 -1.71066,2.35812c-2.42999,0 -14.15755,0 -22.98558,0c-0.5479,0 -1.40393,-1.25013 -1.40393,-2.05033z" fill="url(#color-6)" stroke="#001026" stroke-width="1"/><path d="M338.04101,197.044c0,-2.35759 0,-58.70564 0,-96.28023c0,-1.06751 1.2268,-2.73538 2.01202,-2.73538c8.63819,0 19.84667,0 22.13427,0c0.76253,0 1.95389,1.6605 1.95389,2.4331c0,37.45663 0,93.21479 0,96.28024c0,1.02183 -0.90067,2.31599 -1.71066,2.31599c-2.42999,0 -14.15755,0 -22.98558,0c-0.5479,0 -1.40393,-1.22779 -1.40393,-2.01369z" fill="url(#color-7)" stroke="#001026" stroke-width="1"/><path d="M394.05308,194.08849c0,-2.21549 0,-55.16716 0,-90.47694c0,-1.00317 1.2268,-2.5705 2.01202,-2.5705c8.63819,0 19.84667,0 22.13427,0c0.76253,0 1.95389,1.56041 1.95389,2.28645c0,35.19892 0,87.59626 0,90.47694c0,0.96023 -0.90067,2.17639 -1.71066,2.17639c-2.42999,0 -14.15755,0 -22.98558,0c-0.5479,0 -1.40393,-1.15379 -1.40393,-1.89232z" fill="url(#color-8)" stroke="#001026" stroke-width="1"/><path d="M422.08086,192.92349c0,-2.1601 0,-53.78798 0,-88.21502c0,-0.97808 1.2268,-2.50624 2.01202,-2.50624c8.63819,0 19.84667,0 22.13427,0c0.76253,0 1.95389,1.5214 1.95389,2.22929c0,34.31895 0,85.40636 0,88.21502c0,0.93623 -0.90067,2.12198 -1.71066,2.12198c-2.42999,0 -14.15755,0 -22.98558,0c-0.5479,0 -1.40393,-1.12495 -1.40393,-1.84501z" data-paper-data="{&quot;origPos&quot;:null}" fill="url(#color-9)" stroke="#001026" stroke-width="1"/><path d="M198.56809,202.99343c0,-2.63226 0,-65.54514 0,-107.49735c0,-1.19188 1.2268,-3.05406 2.01202,-3.05406c8.63819,0 19.84667,0 22.13427,0c0.76253,0 1.95389,1.85395 1.95389,2.71657c0,41.8205 0,104.07477 0,107.49735c0,1.14087 -0.90067,2.58581 -1.71066,2.58581c-2.42999,0 -14.15755,0 -22.98558,0c-0.5479,0 -1.40393,-1.37084 -1.40393,-2.2483z" data-paper-data="{&quot;origPos&quot;:null}" fill="url(#color-10)" stroke="#001026" stroke-width="1"/><path d="M226.47758,201.11639c0,-2.56645 0,-63.90651 0,-104.80992c0,-1.16208 1.2268,-2.97771 2.01202,-2.97771c8.63819,0 19.84667,0 22.13427,0c0.76253,0 1.95389,1.8076 1.95389,2.64866c0,40.77499 0,101.4729 0,104.80992c0,1.11235 -0.90067,2.52116 -1.71066,2.52116c-2.42999,0 -14.15755,0 -22.98558,0c-0.5479,0 -1.40393,-1.33657 -1.40393,-2.19209z" data-paper-data="{&quot;origPos&quot;:null}" fill="url(#color-11)" stroke="#001026" stroke-width="1"/><g fill="#cacaca" font-family="Sans Serif" font-weight="normal" font-size="40" text-anchor="start"><text transform="translate(35.4341,196.5344) scale(0.19253,0.24552)" font-size="40" xml:space="preserve" fill="#cacaca" fill-rule="nonzero" stroke="#000000" stroke-width="4" stroke-linecap="butt" stroke-linejoin="miter" stroke-miterlimit="10" stroke-dasharray="" stroke-dashoffset="0" font-family="Sans Serif" font-weight="normal" text-anchor="start" style="mix-blend-mode: normal"><tspan x="0" dy="0">Sol#</tspan></text><text transform="translate(35.4341,196.5344) scale(0.19253,0.24552)" font-size="40" xml:space="preserve" fill="#cacaca" fill-rule="nonzero" stroke="#425671" stroke-width="0" stroke-linecap="butt" stroke-linejoin="miter" stroke-miterlimit="10" stroke-dasharray="" stroke-dashoffset="0" font-family="Sans Serif" font-weight="normal" text-anchor="start" style="mix-blend-mode: normal"><tspan x="0" dy="0">Sol#</tspan></text></g><g fill="#cacaca" font-family="Sans Serif" font-weight="normal" font-size="40" text-anchor="start"><text transform="translate(231.53019,193.12376) scale(0.19253,0.24552)" font-size="40" xml:space="preserve" fill="#cacaca" fill-rule="nonzero" stroke="#000000" stroke-width="4" stroke-linecap="butt" stroke-linejoin="miter" stroke-miterlimit="10" stroke-dasharray="" stroke-dashoffset="0" font-family="Sans Serif" font-weight="normal" text-anchor="start" style="mix-blend-mode: normal"><tspan x="0" dy="0">Sol#</tspan></text><text transform="translate(231.53019,193.12376) scale(0.19253,0.24552)" font-size="40" xml:space="preserve" fill="#cacaca" fill-rule="nonzero" stroke="#425671" stroke-width="0" stroke-linecap="butt" stroke-linejoin="miter" stroke-miterlimit="10" stroke-dasharray="" stroke-dashoffset="0" font-family="Sans Serif" font-weight="normal" text-anchor="start" style="mix-blend-mode: normal"><tspan x="0" dy="0">Sol#</tspan></text></g><g fill="#cacaca" font-family="Sans Serif" font-weight="normal" font-size="40" text-anchor="start"><text transform="translate(427.13346,186.30247) scale(0.19253,0.24552)" font-size="40" xml:space="preserve" fill="#cacaca" fill-rule="nonzero" stroke="#000000" stroke-width="4" stroke-linecap="butt" stroke-linejoin="miter" stroke-miterlimit="10" stroke-dasharray="" stroke-dashoffset="0" font-family="Sans Serif" font-weight="normal" text-anchor="start" style="mix-blend-mode: normal"><tspan x="0" dy="0">Sol#</tspan></text><text transform="translate(427.13346,186.30247) scale(0.19253,0.24552)" font-size="40" xml:space="preserve" fill="#cacaca" fill-rule="nonzero" stroke="#425671" stroke-width="0" stroke-linecap="butt" stroke-linejoin="miter" stroke-miterlimit="10" stroke-dasharray="" stroke-dashoffset="0" font-family="Sans Serif" font-weight="normal" text-anchor="start" style="mix-blend-mode: normal"><tspan x="0" dy="0">Sol#</tspan></text></g><g fill="#cacaca" font-family="Sans Serif" font-weight="normal" font-size="40" text-anchor="start"><text transform="translate(147.47668,194.97061) scale(0.2148,0.24552)" font-size="40" xml:space="preserve" fill="#cacaca" fill-rule="nonzero" stroke="#000000" stroke-width="4" stroke-linecap="butt" stroke-linejoin="miter" stroke-miterlimit="10" stroke-dasharray="" stroke-dashoffset="0" font-family="Sans Serif" font-weight="normal" text-anchor="start" style="mix-blend-mode: normal"><tspan x="0" dy="0">Re#</tspan></text><text transform="translate(147.47668,194.97061) scale(0.2148,0.24552)" font-size="40" xml:space="preserve" fill="#cacaca" fill-rule="nonzero" stroke="#425671" stroke-width="0" stroke-linecap="butt" stroke-linejoin="miter" stroke-miterlimit="10" stroke-dasharray="" stroke-dashoffset="0" font-family="Sans Serif" font-weight="normal" text-anchor="start" style="mix-blend-mode: normal"><tspan x="0" dy="0">Re#</tspan></text></g><g fill="#cacaca" font-family="Sans Serif" font-weight="normal" font-size="40" text-anchor="start"><text transform="translate(343.13921,188.83145) scale(0.2148,0.24552)" font-size="40" xml:space="preserve" fill="#cacaca" fill-rule="nonzero" stroke="#000000" stroke-width="4" stroke-linecap="butt" stroke-linejoin="miter" stroke-miterlimit="10" stroke-dasharray="" stroke-dashoffset="0" font-family="Sans Serif" font-weight="normal" text-anchor="start" style="mix-blend-mode: normal"><tspan x="0" dy="0">Re#</tspan></text><text transform="translate(343.13921,188.83145) scale(0.2148,0.24552)" font-size="40" xml:space="preserve" fill="#cacaca" fill-rule="nonzero" stroke="#425671" stroke-width="0" stroke-linecap="butt" stroke-linejoin="miter" stroke-miterlimit="10" stroke-dasharray="" stroke-dashoffset="0" font-family="Sans Serif" font-weight="normal" text-anchor="start" style="mix-blend-mode: normal"><tspan x="0" dy="0">Re#</tspan></text></g><g fill="#cacaca" font-family="Sans Serif" font-weight="normal" font-size="40" text-anchor="start"><text transform="translate(119.5186,195.52758) scale(0.20085,0.24552)" font-size="40" xml:space="preserve" fill="#cacaca" fill-rule="nonzero" stroke="#000000" stroke-width="4" stroke-linecap="butt" stroke-linejoin="miter" stroke-miterlimit="10" stroke-dasharray="" stroke-dashoffset="0" font-family="Sans Serif" font-weight="normal" text-anchor="start" style="mix-blend-mode: normal"><tspan x="0" dy="0">Do#</tspan></text><text transform="translate(119.5186,195.52758) scale(0.20085,0.24552)" font-size="40" xml:space="preserve" fill="#cacaca" fill-rule="nonzero" stroke="#425671" stroke-width="0" stroke-linecap="butt" stroke-linejoin="miter" stroke-miterlimit="10" stroke-dasharray="" stroke-dashoffset="0" font-family="Sans Serif" font-weight="normal" text-anchor="start" style="mix-blend-mode: normal"><tspan x="0" dy="0">Do#</tspan></text></g><g fill="#cacaca" font-family="Sans Serif" font-weight="normal" font-size="40" text-anchor="start"><text transform="translate(314.9878,190.07055) scale(0.20085,0.24552)" font-size="40" xml:space="preserve" fill="#cacaca" fill-rule="nonzero" stroke="#000000" stroke-width="4" stroke-linecap="butt" stroke-linejoin="miter" stroke-miterlimit="10" stroke-dasharray="" stroke-dashoffset="0" font-family="Sans Serif" font-weight="normal" text-anchor="start" style="mix-blend-mode: normal"><tspan x="0" dy="0">Do#</tspan></text><text transform="translate(314.9878,190.07055) scale(0.20085,0.24552)" font-size="40" xml:space="preserve" fill="#cacaca" fill-rule="nonzero" stroke="#425671" stroke-width="0" stroke-linecap="butt" stroke-linejoin="miter" stroke-miterlimit="10" stroke-dasharray="" stroke-dashoffset="0" font-family="Sans Serif" font-weight="normal" text-anchor="start" style="mix-blend-mode: normal"><tspan x="0" dy="0">Do#</tspan></text></g><g fill="#cacaca" font-family="Sans Serif" font-weight="normal" font-size="40" text-anchor="start"><text transform="translate(203.93817,194.09745) scale(0.21968,0.24552)" font-size="40" xml:space="preserve" fill="#cacaca" fill-rule="nonzero" stroke="#000000" stroke-width="4" stroke-linecap="butt" stroke-linejoin="miter" stroke-miterlimit="10" stroke-dasharray="" stroke-dashoffset="0" font-family="Sans Serif" font-weight="normal" text-anchor="start" style="mix-blend-mode: normal"><tspan x="0" dy="0">Fa#</tspan></text><text transform="translate(203.93817,194.09745) scale(0.21968,0.24552)" font-size="40" xml:space="preserve" fill="#cacaca" fill-rule="nonzero" stroke="#425671" stroke-width="0" stroke-linecap="butt" stroke-linejoin="miter" stroke-miterlimit="10" stroke-dasharray="" stroke-dashoffset="0" font-family="Sans Serif" font-weight="normal" text-anchor="start" style="mix-blend-mode: normal"><tspan x="0" dy="0">Fa#</tspan></text></g><g fill="#cacaca" font-family="Sans Serif" font-weight="normal" font-size="40" text-anchor="start"><text transform="translate(399.42316,187.27616) scale(0.21968,0.24552)" font-size="40" xml:space="preserve" fill="#cacaca" fill-rule="nonzero" stroke="#000000" stroke-width="4" stroke-linecap="butt" stroke-linejoin="miter" stroke-miterlimit="10" stroke-dasharray="" stroke-dashoffset="0" font-family="Sans Serif" font-weight="normal" text-anchor="start" style="mix-blend-mode: normal"><tspan x="0" dy="0">Fa#</tspan></text><text transform="translate(399.42316,187.27616) scale(0.21968,0.24552)" font-size="40" xml:space="preserve" fill="#cacaca" fill-rule="nonzero" stroke="#425671" stroke-width="0" stroke-linecap="butt" stroke-linejoin="miter" stroke-miterlimit="10" stroke-dasharray="" stroke-dashoffset="0" font-family="Sans Serif" font-weight="normal" text-anchor="start" style="mix-blend-mode: normal"><tspan x="0" dy="0">Fa#</tspan></text></g><g fill="#cacaca" font-family="Sans Serif" font-weight="normal" font-size="40" text-anchor="start"><text transform="translate(63.41244,195.47933) scale(0.22772,0.24552)" font-size="40" xml:space="preserve" fill="#cacaca" fill-rule="nonzero" stroke="#000000" stroke-width="4" stroke-linecap="butt" stroke-linejoin="miter" stroke-miterlimit="10" stroke-dasharray="" stroke-dashoffset="0" font-family="Sans Serif" font-weight="normal" text-anchor="start" style="mix-blend-mode: normal"><tspan x="0" dy="0">La#</tspan></text><text transform="translate(63.41244,195.47933) scale(0.22772,0.24552)" font-size="40" xml:space="preserve" fill="#cacaca" fill-rule="nonzero" stroke="#425671" stroke-width="0" stroke-linecap="butt" stroke-linejoin="miter" stroke-miterlimit="10" stroke-dasharray="" stroke-dashoffset="0" font-family="Sans Serif" font-weight="normal" text-anchor="start" style="mix-blend-mode: normal"><tspan x="0" dy="0">La#</tspan></text></g><g fill="#cacaca" font-family="Sans Serif" font-weight="normal" font-size="40" text-anchor="start"><text transform="translate(259.06354,191.38656) scale(0.22772,0.24552)" font-size="40" xml:space="preserve" fill="#cacaca" fill-rule="nonzero" stroke="#000000" stroke-width="4" stroke-linecap="butt" stroke-linejoin="miter" stroke-miterlimit="10" stroke-dasharray="" stroke-dashoffset="0" font-family="Sans Serif" font-weight="normal" text-anchor="start" style="mix-blend-mode: normal"><tspan x="0" dy="0">La#</tspan></text><text transform="translate(259.06354,191.38656) scale(0.22772,0.24552)" font-size="40" xml:space="preserve" fill="#cacaca" fill-rule="nonzero" stroke="#425671" stroke-width="0" stroke-linecap="butt" stroke-linejoin="miter" stroke-miterlimit="10" stroke-dasharray="" stroke-dashoffset="0" font-family="Sans Serif" font-weight="normal" text-anchor="start" style="mix-blend-mode: normal"><tspan x="0" dy="0">La#</tspan></text></g><path d="M31.90209,87.41216c0,-0.26038 0.43276,-2.24687 1.81426,-2.24687c7.78912,0 17.89588,0 19.95863,0c1.32362,0 1.76184,1.98469 1.76184,2.17314c0,9.13595 0,41.11524 0,41.11524l-23.53471,0.07373c0,0 -0.00001,-31.95051 -0.00001,-41.11524z" fill="url(#color-12)" stroke="#001026" stroke-width="0"/><path d="M61.43226,86.07401c7.78912,0 17.89588,0 19.95863,0c1.32362,0 1.76184,1.98469 1.76184,2.17314c0,9.13595 0,40.20652 0,40.20652l-23.53471,0.07373c0,0 -0.00001,-31.04179 -0.00001,-40.20652c0,0 0.43275,-2.24687 1.81425,-2.24687z" fill="url(#color-13)" stroke="#001026" stroke-width="0"/><path d="M117.56574,89.90269c7.78912,0 17.89588,0 19.95863,0c1.32362,0 1.76184,1.98469 1.76184,2.17314c0,9.13595 0,36.37783 0,36.37783l-23.53471,0.07373c0,0 -0.00001,-27.2131 -0.00001,-36.37783c0,0 0.43275,-2.24687 1.81425,-2.24687z" fill="url(#color-14)" stroke="#001026" stroke-width="0"/><path d="M201.67097,93.85289c7.78912,0 17.89588,0 19.95863,0c1.32362,0 1.76184,1.98469 1.76184,2.17314c0,9.13595 0,32.42764 0,32.42764l-23.53471,0.07373c0,0 -0.00001,-23.26291 -0.00001,-32.42764c0,0 0.43275,-2.24687 1.81425,-2.24687z" fill="url(#color-15)" stroke="#001026" stroke-width="0"/><path d="M229.61972,94.65724c7.78912,0 17.89588,0 19.95863,0c1.32362,0 1.76184,1.98469 1.76184,2.17314c0,9.13595 0,31.62329 0,31.62329l-23.53471,0.07373c0,0 -0.00001,-22.45856 -0.00001,-31.62329c0,0 0.43275,-2.24687 1.81425,-2.24687z" fill="url(#color-16)" stroke="#001026" stroke-width="0"/><path d="M257.11774,95.89453c7.78912,0 17.89588,0 19.95863,0c1.32362,0 1.76184,1.98469 1.76184,2.17314c0,9.13595 -0.04949,30.386 -0.04949,30.386l-23.53471,0.07373c0,0 0.04948,-21.22127 0.04948,-30.386c0,0 0.43275,-2.24687 1.81425,-2.24687z" fill="url(#color-17)" stroke="#001026" stroke-width="0"/><path d="M313.02995,98.39796c7.78912,0 17.89588,0 19.95863,0c1.32362,0 1.76184,1.98469 1.76184,2.17314c0,9.13595 -0.04949,27.88257 -0.04949,27.88257l-23.53471,0.07373c0,0 0.04949,-18.71784 0.04949,-27.88257c0,0 0.43275,-2.24687 1.81425,-2.24687z" fill="url(#color-18)" stroke="#001026" stroke-width="0"/><path d="M341.1579,99.34017c7.78912,0 17.89588,0 19.95863,0c1.32362,0 1.76184,1.98469 1.76184,2.17314c0,9.13595 0.00731,26.94036 0.00731,26.94036l-23.53471,0.07373c0,0 -0.00732,-17.77563 -0.00732,-26.94036c0,0 0.43275,-2.24687 1.81425,-2.24687z" fill="url(#color-19)" stroke="#001026" stroke-width="0"/><path d="M397.13504,102.57161c7.78912,0 17.89588,0 19.95863,0c1.32362,0 1.76184,1.98469 1.76184,2.17314c0,1.66325 0.00731,23.70892 0.00731,23.70892l-23.53471,0.07373c0,0 -0.00187,-22.36488 -0.00732,-23.70892c0,0 0.43275,-2.24687 1.81425,-2.24687z" fill="url(#color-20)" stroke="#001026" stroke-width="0"/><path d="M425.14798,103.66505c7.78912,0 17.89588,0 19.95863,0c1.32362,0 1.76184,1.98469 1.76184,2.17314c0,1.66325 0.00731,22.61548 0.00731,22.61548l-23.53471,0.07373c0,0 -0.00187,-21.27144 -0.00732,-22.61548c0,0 0.43275,-2.24687 1.81425,-2.24687z" fill="url(#color-21)" stroke="#001026" stroke-width="0"/><path d="M145.4772,90.49905c7.78912,0 17.89588,0 19.95863,0c1.32362,0 1.76184,1.98469 1.76184,2.17314c0,9.13595 0,35.78147 0,35.78147l-23.53471,0.07373c0,0 -0.00001,-26.61674 -0.00001,-35.78147c0,0 0.43275,-2.24687 1.81425,-2.24687z" fill="url(#color-22)" stroke="#001026" stroke-width="0"/></g></g></svg>