<svg version="1.1" xmlns="http://www.w3.org/2000/svg" xmlns:xlink="http://www.w3.org/1999/xlink" width="58.58388" height="58.58388" viewBox="0,0,58.58388,58.58388"><g transform="translate(-210.70806,-150.70806)"><g data-paper-data="{&quot;isPaintingLayer&quot;:true}" fill-rule="nonzero" stroke-linecap="butt" stroke-linejoin="miter" stroke-miterlimit="10" stroke-dasharray="" stroke-dashoffset="0" style="mix-blend-mode: normal"><path d="M269.29194,179.99999c0,16.17755 -13.11438,29.29195 -29.29193,29.29195c-16.17755,0 -29.29195,-13.1144 -29.29195,-29.29195c0,-16.17756 13.1144,-29.29193 29.29195,-29.29193c16.17756,0 29.29193,13.11438 29.29193,29.29193" data-paper-data="{&quot;index&quot;:null}" fill="#f6d738" stroke="none" stroke-width="0.03528"/><path d="M264.85968,179.99999c0,13.72957 -11.13011,24.85968 -24.85968,24.85968c-13.72957,0 -24.8597,-11.13011 -24.8597,-24.85968c0,-13.72955 11.13013,-24.85968 24.8597,-24.85968c13.72957,0 24.85968,11.13014 24.85968,24.85968" data-paper-data="{&quot;index&quot;:null}" fill="#f3cc30" stroke="none" stroke-width="0.03528"/><path d="M252.70246,158.78219c7.11107,4.37441 11.85334,12.22716 11.85334,21.18848c0,13.72967 -11.13013,24.85968 -24.8597,24.85968c-8.79912,0 -16.53044,-4.57159 -20.94857,-11.46905c3.78385,2.32757 8.23801,3.67112 13.00628,3.67112c13.72957,0 24.85968,-11.13 24.85968,-24.85968c0,-4.93048 -1.43535,-9.52564 -3.911,-13.39054" data-paper-data="{&quot;index&quot;:null}" fill="#edbd31" stroke="none" stroke-width="0.03528"/><path d="M260.50491,182.27462c0,-12.11967 -9.82493,-21.9446 -21.9446,-21.9446c-7.0842,0 -13.38313,3.35764 -17.39533,8.56745c3.78931,-6.57843 10.89171,-11.00721 19.02878,-11.00721c12.11967,0 21.9446,9.82493 21.9446,21.9446c0,5.03562 -1.69737,9.67398 -4.54943,13.37723c1.85484,-3.2199 2.91598,-6.95468 2.91598,-10.93747" data-paper-data="{&quot;index&quot;:null}" fill="#f7db5e" stroke="none" stroke-width="0.03528"/><path d="M237.62029,188.64464c0.3236,0.09369 0.65494,0.15825 0.99005,0.1929c3.08536,0.32043 5.84632,-1.92101 6.16673,-5.00639c0.2062,-1.98561 -0.81434,-3.65373 -2.10657,-4.98971c-1.03869,-1.07385 -1.81311,-1.90422 -2.39007,-2.54385l-0.64475,2.9926c2.04926,0.74472 3.65093,2.81974 3.36257,4.87921c-0.30676,2.19085 -2.94633,3.55907 -3.74687,3.32515c0.21074,-0.10343 0.41083,-0.22728 0.59739,-0.36976c1.43453,-1.09406 1.79044,-3.03909 0.79497,-4.34438c-0.39325,-0.51563 -0.93857,-0.85429 -1.54287,-1.00788zM237.34753,189.91062l-0.73182,3.39676c-0.15769,0.74536 -0.18016,0.96482 -0.18016,1.18958c0,1.82228 1.47726,3.29959 3.29954,3.29959c0.78317,0.00117 1.54102,-0.27739 2.13699,-0.7855c-0.04757,0.003 -0.09555,0.00462 -0.1439,0.00462c-0.95272,-0.001 -1.79743,-0.61277 -2.09552,-1.51766c-0.29809,-0.90489 0.01764,-1.89894 0.78324,-2.46598c0.7656,-0.56704 1.80851,-0.57927 2.5872,-0.03034c0.77869,0.54893 1.11764,1.5353 0.84086,2.44693c-0.43149,1.87055 -2.10732,3.26506 -4.10887,3.26506c-2.32882,0 -4.19489,-1.88794 -4.19489,-4.2167c0,-0.25631 -0.04378,-0.51696 0,-0.76062l0.91304,-4.23785c-1.89925,-0.92816 -3.37616,-3.10515 -3.37616,-5.3291c0,-2.93959 2.24386,-5.1673 4.96922,-5.1673c0.22015,0.00017 0.43999,0.01677 0.65768,0.04964l0.78681,-3.65197c-0.70663,-0.8295 -0.8538,-1.0957 -0.87679,-1.14215c-1.50259,-1.99424 -2.66579,-4.17988 -2.9056,-6.8811c-0.28507,-3.21122 0.84277,-5.93511 2.51911,-6.08386c1.67635,-0.14888 3.26641,2.33366 3.55148,5.54493c0.11723,1.32057 -0.02378,2.53482 -0.23281,3.585l-0.49397,2.29274c3.87977,3.58309 5.8707,5.77733 5.8707,9.89166c0,4.19192 -3.67652,7.85721 -8.91757,7.42969c-0.22336,-0.0168 -0.44406,-0.05909 -0.65781,-0.12606zM236.13335,187.9641c0.18646,0.12116 0.37999,0.23109 0.57955,0.32918l1.42411,-6.60995c-0.65218,0.03909 -1.31601,0.27444 -1.89319,0.71463c-1.43453,1.09406 -1.62809,2.62133 -0.8763,4.50994c0.17629,0.44288 0.44797,0.78745 0.76583,1.0562zM237.77866,164.09324c-0.1401,-0.03073 -0.28114,-0.04908 -0.42264,0.17214c-0.76388,1.35453 -0.26906,3.39357 0.94821,5.6281c0.47205,0.86654 1.22784,1.44786 1.89941,1.96848c0.03042,-0.11952 -0.04015,0.11833 0,0c1.22333,-3.60583 -0.24515,-7.2901 -2.42499,-7.76872z" data-paper-data="{&quot;index&quot;:null}" fill="#b4832d" stroke="#b6842e" stroke-width="0"/></g></g></svg>