<svg version="1.1" xmlns="http://www.w3.org/2000/svg" xmlns:xlink="http://www.w3.org/1999/xlink" width="20.12002" height="27.57574" viewBox="0,0,20.12002,27.57574"><defs><linearGradient x1="240.0006" y1="175.58008" x2="240.0006" y2="184.2625" gradientUnits="userSpaceOnUse" id="color-1"><stop offset="0" stop-color="#ffffff"/><stop offset="1" stop-color="#ffffff" stop-opacity="0"/></linearGradient><linearGradient x1="240.03721" y1="178.10952" x2="240.38794" y2="178.10952" gradientUnits="userSpaceOnUse" id="color-2"><stop offset="0" stop-color="#000000"/><stop offset="1" stop-color="#000000"/></linearGradient><linearGradient x1="171.21559" y1="175.87244" x2="291.22029" y2="190.98477" gradientUnits="userSpaceOnUse" id="color-3"><stop offset="0" stop-color="#000000"/><stop offset="1" stop-color="#000000"/></linearGradient></defs><g transform="translate(-229.94009,-167.32292)"><g data-paper-data="{&quot;isPaintingLayer&quot;:true}" stroke-linecap="butt" stroke-linejoin="miter" stroke-miterlimit="10" stroke-dasharray="" stroke-dashoffset="0" style="mix-blend-mode: normal"><path d="M229.9401,186.55562c0,-3.52213 0,-6.11861 0,-11.14145c0,-3.45285 3.01208,-4.99253 5.18816,-4.99253c0.70353,0 4.60897,0 4.60897,0l-0.0499,-3.09399l0.86314,-0.00472l0.02022,3.09871c0,0 3.64615,0 3.91162,0c3.05101,0 5.57781,1.76381 5.57781,5.40948c0,4.71499 0,6.56157 0,9.8906c0,4.44247 -6.50233,9.17695 -9.8136,9.17695c-3.39339,0 -10.30641,-4.11749 -10.30641,-8.34305z" fill-opacity="0.00806" fill="#efffff" fill-rule="nonzero" stroke="none" stroke-width="0"/><path d="M239.97883,174.65629v-4.18445h0.29679v4.18445z" fill="none" fill-rule="nonzero" stroke="#000000" stroke-width="0.5"/><path d="M248.95456,183.69767c0.02427,3.21526 -1.67713,6.19673 -4.45766,7.81141c-2.78052,1.61468 -6.21329,1.61468 -8.99382,0c-2.78052,-1.61468 -4.48193,-4.59614 -4.45766,-7.81141c-0.02427,-3.21526 1.67713,-6.19673 4.45766,-7.81141c2.78052,-1.61468 6.21329,-1.61468 8.99382,0c2.78052,1.61468 4.48193,4.59614 4.45766,7.81141z" fill="#c4c4c4" fill-rule="evenodd" stroke="#000000" stroke-width="1"/><path d="M246.38813,180.44668c0,2.68787 -2.85979,4.86681 -6.38753,4.86681c-3.52774,0 -6.38753,-2.17895 -6.38753,-4.86681c0,-2.68787 2.85979,-4.86681 6.38753,-4.86681c3.52774,0 6.38753,2.17895 6.38753,4.86681z" fill="url(#color-1)" fill-rule="evenodd" stroke="none" stroke-width="1" opacity="0.75"/><path d="" fill="url(#color-2)" fill-rule="nonzero" stroke="#000000" stroke-width="0.5"/><path d="" fill-opacity="0.00806" fill="#efffff" fill-rule="nonzero" stroke="none" stroke-width="0"/><path d="M239.58682,177.15078c1.50734,0 2.65396,0.31082 3.43986,0.93247c0.7859,0.62373 1.17884,1.45952 1.17884,2.50738c0,0.62788 -0.16736,1.16117 -0.5021,1.59986c-0.33266,0.43869 -0.72872,0.76926 -1.1882,0.99173c0.27444,0.10603 0.53017,0.23702 0.76719,0.39295c0.23494,0.15801 0.44389,0.35449 0.62685,0.58942c0.18504,0.23702 0.32953,0.51249 0.43349,0.82644c0.10396,0.31394 0.15593,0.6809 0.15593,1.10088c0,0.56135 -0.12059,1.06553 -0.36176,1.51254c-0.24325,0.44492 -0.5811,0.82436 -1.01355,1.1383c-0.43037,0.31394 -0.94391,0.55304 -1.54061,0.71729c-0.5967,0.16425 -1.24849,0.24637 -1.95539,0.24637c-1.36181,0 -2.38992,-0.19024 -3.08433,-0.57071c-0.69441,-0.38048 -1.04162,-0.8649 -1.04162,-1.45328c0,-0.35345 0.08524,-0.65803 0.25573,-0.91376c0.17049,-0.25573 0.38048,-0.45532 0.62997,-0.59878c0.25989,0.18296 0.61021,0.37632 1.05098,0.58007c0.43869,0.20167 1.01148,0.30251 1.71837,0.30251c0.66739,0 1.16118,-0.11747 1.48136,-0.35241c0.32226,-0.23702 0.48339,-0.54472 0.48339,-0.92312c0,-0.38048 -0.12786,-0.66843 -0.38359,-0.86386c-0.25573,-0.19752 -0.69754,-0.29627 -1.32542,-0.29627h-1.84623c-0.09356,-0.14346 -0.17256,-0.32018 -0.23702,-0.53017c-0.06653,-0.20999 -0.09979,-0.45844 -0.09979,-0.74535c0,-0.30147 0.03015,-0.56031 0.09044,-0.77654c0.05821,-0.21623 0.14034,-0.39711 0.24637,-0.54264h1.84623c0.94183,0 1.41274,-0.35968 1.41274,-1.07905c0,-0.34097 -0.15074,-0.61645 -0.4522,-0.82644c-0.29939,-0.20791 -0.75055,-0.31187 -1.35349,-0.31187c-0.53848,0 -1.01044,0.06133 -1.41586,0.184c-0.40542,0.12475 -0.73912,0.27964 -1.00109,0.46468c-0.22246,-0.15801 -0.40646,-0.35137 -0.552,-0.58007c-0.14346,-0.23078 -0.21519,-0.50314 -0.21519,-0.81708c0,-0.65491 0.34097,-1.13622 1.02291,-1.44393c0.67986,-0.30771 1.58946,-0.46156 2.72881,-0.46156z" fill="url(#color-3)" fill-rule="nonzero" stroke="none" stroke-width="1"/></g></g></svg>