<svg version="1.1" xmlns="http://www.w3.org/2000/svg" xmlns:xlink="http://www.w3.org/1999/xlink" width="863.98491" height="465" viewBox="0,0,863.98491,465"><g transform="translate(191.99243,52.5)"><g data-paper-data="{&quot;isPaintingLayer&quot;:true}" fill-rule="nonzero" stroke-linecap="butt" stroke-linejoin="miter" stroke-miterlimit="10" stroke-dasharray="" stroke-dashoffset="0" style="mix-blend-mode: normal"><path d="M-191.99243,412.5v-465h863.98491v465z" fill="none" stroke="#000000" stroke-width="0"/><path d="M-155.99999,0h792v344.98498h-792z" fill="#ffffff" stroke="#000000" stroke-width="0"/><path d="M-56.40099,223.152c-2.296,0.41 -4.756,0.656 -7.38,0.738c-2.542,0.082 -5.043,0 -7.503,-0.246c-2.46,-0.164 -4.756,-0.451 -6.888,-0.861c-2.05,-0.328 -3.731,-0.82 -5.043,-1.476c-6.314,-3.034 -11.439,-6.273 -15.375,-9.717c-3.854,-3.362 -6.847,-6.888 -8.979,-10.578c-2.132,-3.69 -3.649,-7.462 -4.551,-11.316c-0.82,-3.936 -1.353,-7.872 -1.599,-11.808c-0.328,-4.264 0.041,-8.528 1.107,-12.792c1.148,-4.264 2.665,-8.323 4.551,-12.177c1.968,-3.936 4.182,-7.544 6.642,-10.824c2.542,-3.28 5.084,-6.15 7.626,-8.61c2.952,-2.788 6.027,-5.535 9.225,-8.241c3.28,-2.788 6.847,-5.617 10.701,-8.487c-0.082,-1.066 -0.205,-2.009 -0.369,-2.829c-0.082,-0.82 -0.205,-1.64 -0.369,-2.46c-0.164,-0.902 -0.369,-1.886 -0.615,-2.952c-0.164,-1.066 -0.287,-2.378 -0.369,-3.936c0,-0.656 -0.082,-1.845 -0.246,-3.567c-0.164,-1.804 -0.287,-3.936 -0.369,-6.396c0,-2.542 0.082,-5.412 0.246,-8.61c0.164,-3.198 0.574,-6.519 1.23,-9.963c0.41,-2.05 1.271,-4.633 2.583,-7.749c1.394,-3.198 2.993,-6.273 4.797,-9.225c1.886,-2.952 3.854,-5.494 5.904,-7.626c2.05,-2.132 3.977,-3.198 5.781,-3.198c0.902,0 1.886,0.574 2.952,1.722c1.066,1.066 2.091,2.542 3.075,4.428c1.066,1.804 2.091,3.895 3.075,6.273c0.984,2.296 1.845,4.674 2.583,7.134c0.738,2.46 1.312,4.879 1.722,7.257c0.492,2.378 0.779,4.469 0.861,6.273c0.082,4.264 -0.082,8.036 -0.492,11.316c-0.41,3.198 -1.025,6.109 -1.845,8.733c-0.82,2.542 -1.804,4.92 -2.952,7.134c-1.066,2.132 -2.214,4.305 -3.444,6.519c-1.312,2.214 -2.665,4.182 -4.059,5.904c-1.312,1.64 -2.665,3.321 -4.059,5.043c-1.476,1.804 -3.034,3.321 -4.674,4.551c-1.558,1.148 -3.116,2.419 -4.674,3.813c0.738,4.182 1.394,7.954 1.968,11.316c0.246,1.476 0.492,2.911 0.738,4.305c0.246,1.394 0.451,2.706 0.615,3.936c0.164,1.148 0.328,2.132 0.492,2.952c0.164,0.738 0.246,1.189 0.246,1.353c1.968,-0.246 3.977,-0.246 6.027,0c2.132,0.164 4.141,0.451 6.027,0.861c1.968,0.41 3.69,0.943 5.166,1.599c1.558,0.656 2.788,1.271 3.69,1.845c4.428,3.28 7.544,7.052 9.348,11.316c1.886,4.182 2.993,8.487 3.321,12.915c0.246,3.444 -0.041,6.888 -0.861,10.332c-0.82,3.526 -2.214,6.847 -4.182,9.963c-1.886,3.198 -4.387,6.109 -7.503,8.733c-3.034,2.624 -6.642,4.797 -10.824,6.519c0.492,3.362 0.943,6.478 1.353,9.348c0.41,2.46 0.779,4.838 1.107,7.134c0.328,2.378 0.574,4.018 0.738,4.92c0.738,4.92 1.025,8.938 0.861,12.054c-0.164,3.198 -0.779,5.781 -1.845,7.749c-0.902,1.64 -1.968,3.239 -3.198,4.797c-1.148,1.558 -2.542,2.952 -4.182,4.182c-1.64,1.23 -3.567,2.255 -5.781,3.075c-2.132,0.82 -4.592,1.312 -7.38,1.476c-2.132,0.164 -4.674,-0.041 -7.626,-0.615c-2.952,-0.492 -5.781,-1.435 -8.487,-2.829c-2.706,-1.312 -5.043,-3.116 -7.011,-5.412c-1.968,-2.296 -3.075,-5.125 -3.321,-8.487c-0.164,-1.968 -0.041,-3.977 0.369,-6.027c0.41,-1.968 1.107,-3.772 2.091,-5.412c1.066,-1.558 2.419,-2.87 4.059,-3.936c1.722,-1.066 3.813,-1.681 6.273,-1.845c1.476,-0.082 2.952,0.123 4.428,0.615c1.558,0.574 2.993,1.353 4.305,2.337c1.312,0.984 2.378,2.214 3.198,3.69c0.82,1.476 1.312,3.075 1.476,4.797c0.246,3.034 -0.697,5.945 -2.829,8.733c-2.132,2.87 -5.74,5.002 -10.824,6.396c0.82,1.148 2.378,2.214 4.674,3.198c2.296,1.066 5.166,1.599 8.61,1.599c3.608,0 7.052,-1.066 10.332,-3.198c3.362,-2.132 5.945,-4.797 7.749,-7.995c1.148,-2.132 1.722,-4.92 1.722,-8.364c0,-3.362 -0.205,-6.765 -0.615,-10.209c-0.164,-0.574 -0.41,-2.009 -0.738,-4.305c-0.328,-2.214 -0.697,-4.551 -1.107,-7.011c-0.41,-2.87 -0.902,-6.068 -1.476,-9.594zM-53.81798,67.311c-3.198,0 -6.027,1.517 -8.487,4.551c-2.378,2.952 -4.346,6.724 -5.904,11.316c-1.476,4.592 -2.46,9.635 -2.952,15.129c-0.492,5.494 -0.369,10.783 0.369,15.867c2.706,-2.05 5.535,-4.51 8.487,-7.38c2.952,-2.952 5.617,-6.068 7.995,-9.348c2.46,-3.28 4.428,-6.601 5.904,-9.963c1.558,-3.362 2.214,-6.56 1.968,-9.594c-0.082,-0.984 -0.246,-2.091 -0.492,-3.321c-0.246,-1.23 -0.656,-2.378 -1.23,-3.444c-0.574,-1.066 -1.312,-1.968 -2.214,-2.706c-0.902,-0.738 -2.05,-1.107 -3.444,-1.107zM-54.06399,218.109c3.526,-1.23 6.273,-2.829 8.241,-4.797c1.968,-1.968 3.403,-4.1 4.305,-6.396c0.984,-2.296 1.517,-4.592 1.599,-6.888c0.164,-2.296 0.205,-4.346 0.123,-6.15c-0.164,-1.476 -0.533,-3.321 -1.107,-5.535c-0.492,-2.214 -1.476,-4.346 -2.952,-6.396c-1.476,-2.05 -3.567,-3.731 -6.273,-5.043c-2.706,-1.394 -6.314,-1.968 -10.824,-1.722zM-64.14999,175.428c-3.362,0.164 -6.15,0.861 -8.364,2.091c-2.132,1.148 -3.854,2.583 -5.166,4.305c-1.23,1.64 -2.091,3.403 -2.583,5.289c-0.41,1.886 -0.574,3.567 -0.492,5.043c0.082,1.476 0.41,2.993 0.984,4.551c0.574,1.558 1.312,2.993 2.214,4.305c0.984,1.394 2.009,2.624 3.075,3.69c1.148,1.148 2.296,2.009 3.444,2.583c-0.164,0.164 -0.328,0.287 -0.492,0.369c-0.082,0.164 -0.205,0.328 -0.369,0.492c-0.164,0.164 -0.287,0.328 -0.369,0.492c-2.542,-1.23 -4.797,-2.706 -6.765,-4.428c-1.886,-1.64 -3.116,-2.829 -3.69,-3.567c-0.902,-1.23 -1.681,-2.337 -2.337,-3.321c-0.656,-0.984 -1.189,-2.05 -1.599,-3.198c-0.41,-1.066 -0.779,-2.255 -1.107,-3.567c-0.246,-1.312 -0.41,-2.87 -0.492,-4.674c-0.164,-1.722 -0.041,-3.526 0.369,-5.412c0.41,-1.968 1.066,-3.936 1.968,-5.904c0.984,-1.968 2.214,-3.854 3.69,-5.658c1.558,-1.886 3.362,-3.649 5.412,-5.289c1.066,-0.82 2.009,-1.476 2.829,-1.968c0.902,-0.492 1.722,-0.902 2.46,-1.23c0.738,-0.41 1.476,-0.697 2.214,-0.861c0.82,-0.246 1.681,-0.492 2.583,-0.738l-3.69,-22.263c-0.984,0.574 -2.583,1.722 -4.797,3.444c-2.214,1.722 -4.633,3.772 -7.257,6.15c-2.624,2.378 -5.248,4.961 -7.872,7.749c-2.542,2.706 -4.633,5.33 -6.273,7.872c-2.952,4.674 -5.248,8.979 -6.888,12.915c-1.64,3.936 -2.255,8.2 -1.845,12.792c0.328,5.166 1.886,9.963 4.674,14.391c2.87,4.51 6.519,8.282 10.947,11.316c4.428,3.034 9.471,5.125 15.129,6.273c5.658,1.23 11.521,1.107 17.589,-0.369c-1.312,-8.118 -2.501,-15.375 -3.567,-21.771c-0.492,-2.706 -0.943,-5.371 -1.353,-7.995c-0.41,-2.624 -0.82,-4.961 -1.23,-7.011c-0.328,-2.05 -0.574,-3.69 -0.738,-4.92c-0.164,-1.312 -0.246,-1.968 -0.246,-1.968z" fill="#000000" stroke="none" stroke-width="1"/><path d="M170.29201,99.906h-293.83399" fill="none" stroke="#000000" stroke-width="2.302"/><path d="M-123.54199,130.65601h293.83399" fill="none" stroke="#000000" stroke-width="2.302"/><path d="M170.29201,161.40601h-293.83399" fill="none" stroke="#000000" stroke-width="2.302"/><path d="M170.29201,192.15601h-293.83399" fill="none" stroke="#000000" stroke-width="2.302"/><path d="M-123.54199,222.90601h293.83399" fill="none" stroke="#000000" stroke-width="2.302"/><path d="M27.21901,207.162c-0.164,-2.132 0.328,-4.141 1.476,-6.027c1.23,-1.968 2.952,-3.69 5.166,-5.166c2.214,-1.476 4.797,-2.665 7.749,-3.567c3.034,-0.902 6.273,-1.353 9.717,-1.353c3.444,0 6.765,0.328 9.963,0.984c3.198,0.656 6.027,1.681 8.487,3.075c2.542,1.394 4.633,3.157 6.273,5.289c1.64,2.05 2.583,4.51 2.829,7.38c0.164,2.132 -0.369,4.141 -1.599,6.027c-1.148,1.968 -2.829,3.69 -5.043,5.166c-2.132,1.476 -4.715,2.624 -7.749,3.444c-2.952,0.902 -6.15,1.353 -9.594,1.353c-3.444,0 -6.765,-0.328 -9.963,-0.984c-3.198,-0.656 -6.068,-1.681 -8.61,-3.075c-2.542,-1.312 -4.633,-3.034 -6.273,-5.166c-1.64,-2.05 -2.583,-4.51 -2.829,-7.38zM42.59401,204.825c0.328,2.214 0.738,4.305 1.23,6.273c0.574,1.968 1.312,3.69 2.214,5.166c0.984,1.476 2.132,2.624 3.444,3.444c1.394,0.82 3.116,1.23 5.166,1.23c1.476,0 2.788,-0.328 3.936,-0.984c1.23,-0.656 2.255,-1.476 3.075,-2.46c0.82,-0.984 1.394,-2.091 1.722,-3.321c0.41,-1.148 0.533,-2.296 0.369,-3.444c-0.328,-2.214 -0.779,-4.305 -1.353,-6.273c-0.574,-1.968 -1.353,-3.69 -2.337,-5.166c-0.984,-1.476 -2.214,-2.624 -3.69,-3.444c-1.394,-0.902 -3.116,-1.353 -5.166,-1.353c-1.476,0 -2.788,0.328 -3.936,0.984c-1.148,0.656 -2.091,1.476 -2.829,2.46c-0.738,0.984 -1.271,2.091 -1.599,3.321c-0.328,1.23 -0.41,2.419 -0.246,3.567z" fill="#000000" stroke="none" stroke-width="1"/><path d="M-3.64399,199.905v18.327l12.054,-3.936v-18.327zM-7.21099,188.343v-20.049h3.567v18.819l12.054,-3.936v-17.958h3.567v16.851l4.797,-1.599v12.792l-4.797,1.599v18.204l4.797,-1.476v12.669l-4.797,1.599v20.049h-3.567v-18.942l-12.054,3.936v18.204h-3.567v-16.974l-5.289,1.722v-12.792l5.289,-1.722v-18.327l-5.289,1.722v-12.669z" fill="#000000" stroke="none" stroke-width="1"/><g fill="#000000" stroke="none" stroke-width="1"><path d="M240.38197,98.41454v56.01966h25.96033c5.95581,0 10.30005,-1.29626 13.03271,-3.88879c2.80273,-2.6626 4.65955,-7.88269 5.57043,-15.66028h3.88879v48.24206h-3.88879c-0.07007,-5.5354 -0.80579,-9.59936 -2.20715,-12.19189c-1.3313,-2.59253 -3.22314,-4.51941 -5.67554,-5.78064c-2.38232,-1.3313 -5.95581,-1.99695 -10.72046,-1.99695h-25.96033v44.77368c0,7.21704 0.45544,11.98169 1.36633,14.29395c0.70068,1.75171 2.17212,3.25818 4.41431,4.51941c3.08301,1.68164 6.30615,2.52246 9.66943,2.52246h5.15002v3.88879h-61.16968v-3.88879h5.04492c5.88574,0 10.15991,-1.71667 12.82251,-5.15002c1.68164,-2.24219 2.52246,-7.63745 2.52246,-16.18579v-92.06982c0,-7.21705 -0.45544,-11.9817 -1.36633,-14.29395c-0.70068,-1.75171 -2.13708,-3.25818 -4.3092,-4.51941c-3.01294,-1.68164 -6.23608,-2.52246 -9.66943,-2.52246h-5.04492v-3.88879h106.04847l1.36633,31.32055h-3.67859c-1.82178,-6.65649 -3.95887,-11.52624 -6.41126,-14.60925c-2.38232,-3.15307 -5.36022,-5.43029 -8.93371,-6.83166c-3.50342,-1.40137 -8.96875,-2.10206 -16.396,-2.10206z"/><path d="M377.43569,219.28247c-9.87963,7.63745 -16.08068,12.05176 -18.60314,13.24292c-3.78369,1.75171 -7.81263,2.62756 -12.0868,2.62756c-6.65649,0 -12.15686,-2.27722 -16.5011,-6.83166c-4.27417,-4.55444 -6.41125,-10.54529 -6.41125,-17.97253c0,-4.69458 1.05103,-8.75854 3.15308,-12.19189c2.8728,-4.76465 7.84765,-9.24902 14.92456,-13.45312c7.14697,-4.2041 18.98852,-9.31909 35.52465,-15.34497v-3.78369c0,-9.59936 -1.5415,-16.18579 -4.62451,-19.75928c-3.01294,-3.57349 -7.42725,-5.36023 -13.24292,-5.36023c-4.41431,0 -7.91772,1.19116 -10.51025,3.57349c-2.6626,2.38232 -3.9939,5.11499 -3.9939,8.198l0.21021,6.09595c0,3.22314 -0.84082,5.71057 -2.52246,7.46228c-1.61157,1.75171 -3.74866,2.62756 -6.41126,2.62756c-2.59253,0 -4.72961,-0.91089 -6.41125,-2.73267c-1.61157,-1.82178 -2.41736,-4.3092 -2.41736,-7.46228c0,-6.02588 3.08301,-11.56128 9.24902,-16.6062c6.16602,-5.04492 14.81946,-7.56738 25.96033,-7.56738c8.54834,0 15.55518,1.4364 21.02051,4.3092c4.13403,2.17212 7.18201,5.57043 9.14392,10.19495c1.26123,3.01294 1.89184,9.17896 1.89184,18.49805v32.68689c0,9.17895 0.17517,14.81946 0.52552,16.92151c0.35034,2.03198 0.91089,3.39832 1.68164,4.099c0.84082,0.70068 1.78674,1.05103 2.83777,1.05103c1.12109,0 2.10205,-0.24524 2.94287,-0.73572c1.47143,-0.91089 4.3092,-3.46838 8.5133,-7.67248v5.88574c-7.84765,10.51025 -15.34497,15.76538 -22.49194,15.76538c-3.43335,0 -6.16602,-1.19116 -8.198,-3.57349c-2.03198,-2.38232 -3.08301,-6.44629 -3.15308,-12.19189zM377.43569,212.4508v-36.68079c-10.58032,4.2041 -17.41198,7.18201 -20.49499,8.93372c-5.5354,3.08301 -9.49426,6.30615 -11.87659,9.66943c-2.38232,3.36328 -3.57348,7.04187 -3.57348,11.03577c0,5.04492 1.50647,9.24902 4.51941,12.6123c3.01293,3.29321 6.48132,4.93982 10.40515,4.93982c5.32519,0 12.33203,-3.50342 21.0205,-10.51025z"/></g><path d="M434.61902,146.6195v32.07225l21.0945,-6.888v-32.07225zM428.37677,126.386v-35.08575h6.24225v32.93325l21.0945,-6.888v-31.4265h6.24225v29.48925l8.39475,-2.79825v22.386l-8.39475,2.79825v31.857l8.39475,-2.583v22.17075l-8.39475,2.79825v35.08575h-6.24225v-33.1485l-21.0945,6.888v31.857h-6.24225v-29.7045l-9.25575,3.0135v-22.386l9.25575,-3.0135v-32.07225l-9.25575,3.0135v-22.17075z" fill="#000000" stroke="none" stroke-width="1"/></g></g></svg>