<svg version="1.1" xmlns="http://www.w3.org/2000/svg" xmlns:xlink="http://www.w3.org/1999/xlink" width="10.47632" height="58.6822" viewBox="0,0,10.47632,58.6822"><g transform="translate(-234.76184,-150.6589)"><g data-paper-data="{&quot;isPaintingLayer&quot;:true}" fill-rule="nonzero" stroke-linecap="butt" stroke-linejoin="miter" stroke-miterlimit="10" stroke-dasharray="" stroke-dashoffset="0" style="mix-blend-mode: normal"><path d="M241.35695,209.32984c0,0 -1.51515,0.01126 -1.8445,0.01126c-2.6237,0 -4.75061,-13.1144 -4.75061,-29.29195c0,-16.17756 2.12691,-29.29193 4.75061,-29.29193c0.24809,0 1.91989,-0.09832 1.91989,-0.09832" data-paper-data="{&quot;index&quot;:null}" fill="#9c9055" stroke="none" stroke-width="0.03528"/><path d="M245.23816,180.04915c0,16.17755 -1.65444,29.29195 -3.69532,29.29195c-2.04087,0 -3.69532,-13.1144 -3.69532,-29.29195c0,-16.17756 1.65444,-29.29193 3.69532,-29.29193c2.04087,0 3.69532,13.11438 3.69532,29.29193" data-paper-data="{&quot;index&quot;:null}" fill="#f6d738" stroke="none" stroke-width="0.03528"/><path d="M244.679,180.04915c0,13.72957 -1.40412,24.85968 -3.13618,24.85968c-1.73205,0 -3.13617,-11.13011 -3.13617,-24.85968c0,-13.72955 1.40411,-24.85968 3.13617,-24.85968c1.73206,0 3.13618,11.13014 3.13618,24.85968" data-paper-data="{&quot;index&quot;:null}" fill="#f3cc30" stroke="none" stroke-width="0.03528"/><path d="M242.69024,158.83135c0.8971,4.37441 1.49536,12.22716 1.49536,21.18848c0,13.72967 -1.40412,24.85968 -3.13618,24.85968c-1.11005,0 -2.0854,-4.57159 -2.64276,-11.46905c0.47735,2.32757 1.03927,3.67112 1.64081,3.67112c1.73206,0 3.13618,-11.13 3.13618,-24.85968c0,-4.93048 -0.18108,-9.52564 -0.49339,-13.39054" data-paper-data="{&quot;index&quot;:null}" fill="#edbd31" stroke="none" stroke-width="0.03528"/><path d="M244.12963,182.32378c0,-12.11967 -1.23947,-21.9446 -2.76842,-21.9446c-0.89371,0 -1.68835,3.35764 -2.19451,8.56745c0.47805,-6.57843 1.37405,-11.00721 2.40058,-11.00721c1.52895,0 2.76842,9.82493 2.76842,21.9446c0,5.03562 -0.21413,9.67398 -0.57393,13.37723c0.23399,-3.2199 0.36786,-6.95468 0.36786,-10.93747" data-paper-data="{&quot;index&quot;:null}" fill="#f7db5e" stroke="none" stroke-width="0.03528"/><path d="M241.24261,188.6938c0.04082,0.09369 0.08263,0.15825 0.1249,0.1929c0.38923,0.32043 0.73754,-1.92101 0.77796,-5.00639c0.02601,-1.98561 -0.10273,-3.65373 -0.26575,-4.98971c-0.13103,-1.07385 -0.22873,-1.90422 -0.30152,-2.54385l-0.08134,2.9926c0.25853,0.74472 0.46059,2.81974 0.42421,4.87921c-0.0387,2.19085 -0.37168,3.55907 -0.47268,3.32515c0.02659,-0.10343 0.05182,-0.22728 0.07536,-0.36976c0.18097,-1.09406 0.22588,-3.03909 0.10029,-4.34438c-0.04961,-0.51563 -0.11841,-0.85429 -0.19464,-1.00788zM241.20823,189.95978l-0.09232,3.39676c-0.01989,0.74536 -0.02273,0.96482 -0.02273,1.18958c0,1.82228 0.18636,3.29959 0.41625,3.29959c0.09881,0.00117 0.19442,-0.27739 0.2696,-0.7855c-0.00601,0.003 -0.01206,0.00462 -0.01816,0.00462c-0.1202,-0.001 -0.22675,-0.61277 -0.26436,-1.51766c-0.03761,-0.90489 0.00221,-1.89894 0.0988,-2.46598c0.09658,-0.56704 0.22816,-0.57927 0.32639,-0.03034c0.09824,0.54893 0.141,1.5353 0.10608,2.44693c-0.05444,1.87055 -0.26585,3.26506 -0.51836,3.26506c-0.29379,0 -0.5292,-1.88794 -0.5292,-4.2167c0,-0.25631 -0.00552,-0.51696 0,-0.76062l0.11518,-4.23785c-0.2396,-0.92816 -0.42592,-3.10515 -0.42592,-5.3291c0,-2.93959 0.28307,-5.1673 0.62689,-5.1673c0.02777,0.00017 0.05551,0.01677 0.08297,0.04964l0.09926,-3.65197c-0.08914,-0.8295 -0.10771,-1.0957 -0.11061,-1.14215c-0.18956,-1.99424 -0.33629,-4.17988 -0.36655,-6.8811c-0.03597,-3.21122 0.10631,-5.93511 0.31779,-6.08386c0.21148,-0.14888 0.41208,2.33366 0.44804,5.54493c0.01479,1.32057 -0.003,2.53482 -0.02937,3.585l-0.06232,2.29274c0.48945,3.58309 0.74062,5.77733 0.74062,9.89166c0,4.19192 -0.46382,7.85721 -1.125,7.42969c-0.02818,-0.0168 -0.05603,-0.05909 -0.08299,-0.12606zM240.95841,186.95706c0.02224,0.44288 0.05651,0.78745 0.09661,1.0562c0.02353,0.12116 0.04795,0.23109 0.07312,0.32918l0.17966,-6.60995c-0.08228,0.03909 -0.16602,0.27444 -0.23883,0.71463c-0.18097,1.09406 -0.20539,2.62133 -0.11055,4.50994zM241.26261,164.1424c-0.01768,-0.03073 -0.03547,-0.04908 -0.05332,0.17214c-0.09636,1.35453 -0.03394,3.39357 0.11962,5.6281c0.05955,0.86654 0.1549,1.44786 0.23962,1.96848c0.00384,-0.11952 -0.00507,0.11833 0,0c0.15432,-3.60583 -0.03094,-7.2901 -0.30593,-7.76872z" data-paper-data="{&quot;index&quot;:null}" fill="#b4832d" stroke="#b6842e" stroke-width="0"/></g></g></svg>