<svg version="1.1" xmlns="http://www.w3.org/2000/svg" xmlns:xlink="http://www.w3.org/1999/xlink" width="49.74924" height="49.74924" viewBox="0,0,49.74924,49.74924"><defs><radialGradient cx="244.31822" cy="183.61032" r="12.71415" gradientUnits="userSpaceOnUse" id="color-1"><stop offset="0" stop-color="#ffffff"/><stop offset="1" stop-color="#faffb1"/></radialGradient><radialGradient cx="225.37913" cy="164.88944" r="24.62462" gradientUnits="userSpaceOnUse" id="color-2"><stop offset="0" stop-color="#e3e3e3"/><stop offset="1" stop-color="#9d9d9d"/></radialGradient></defs><g transform="translate(-215.12538,-155.12538)"><g data-paper-data="{&quot;isPaintingLayer&quot;:true}" fill-rule="nonzero" stroke-linejoin="miter" stroke-miterlimit="10" stroke-dasharray="" stroke-dashoffset="0" style="mix-blend-mode: normal"><path d="M264.62462,167.84354v24.31292c0,6.88611 -5.58195,12.46816 -12.46816,12.46816h-24.31292c-6.88611,0 -12.46816,-5.58195 -12.46816,-12.46816v-24.31292c0,-6.88622 5.58205,-12.46816 12.46816,-12.46816h24.31292c6.88622,0 12.46816,5.58195 12.46816,12.46816z" fill="#494949" stroke="#696969" stroke-width="0.5" stroke-linecap="butt"/><path d="M228.40828,184.31821c0,-8.78681 7.12312,-15.90993 15.90993,-15.90993c8.78681,0 15.90993,7.12312 15.90993,15.90993c0,8.78681 -7.12312,15.90993 -15.90993,15.90993c-8.78681,0 -15.90993,-7.12312 -15.90993,-15.90993z" fill="#ffe3bd" stroke="#ffa600" stroke-width="2" stroke-linecap="butt"/><path d="M231.60407,180.99448l8.63832,-1.09498l4.015,-7.54334l4.015,7.42165l8.75998,1.33833l-6.57,5.54376l1.46001,8.20454l-7.90834,-3.77167l-7.66499,3.77167l1.58167,-8.02998z" fill="url(#color-1)" stroke="#000000" stroke-width="0.5" stroke-linecap="round"/><path d="M236.97876,182.23352l4.98662,-0.6321l2.31773,-4.35452l2.31773,4.28427l5.05685,0.77257l-3.79264,3.20023l0.84281,4.73621l-4.56522,-2.17726l-4.42474,2.17726l0.91305,-4.63544z" fill="#dda900" stroke="#fcd938" stroke-width="1.5" stroke-linecap="round"/><path d="M215.37538,192.15646v-24.31292c0,-6.88622 5.58205,-12.46816 12.46816,-12.46816h24.31292c3.51185,0 6.68447,1.45176 8.95051,3.78791c-0.74882,0.76224 -41.91843,41.97115 -42.08523,41.80414c-2.25309,-2.25583 -3.64636,-5.37063 -3.64636,-8.81097z" fill="url(#color-2)" stroke="#696969" stroke-width="0.5" stroke-linecap="butt"/><path d="M220.07133,201.0802l40.86492,-40.86492" fill="none" stroke="#696969" stroke-width="1.5" stroke-linecap="round"/></g></g></svg>