<svg version="1.1" xmlns="http://www.w3.org/2000/svg" xmlns:xlink="http://www.w3.org/1999/xlink" width="496.05513" height="361.86555"><defs><radialGradient cx="240" cy="180.00002" r="248.02757" gradientUnits="userSpaceOnUse" id="color-1"><stop offset="0" stop-color="#919191" stop-opacity="0"/><stop offset="1" stop-color="#919191"/></radialGradient></defs><g transform="translate(8.02757,0.93276)"><g data-paper-data="{&quot;isPaintingLayer&quot;:true}" fill="none" fill-rule="none" stroke="none" stroke-width="none" stroke-linecap="butt" stroke-linejoin="miter" stroke-miterlimit="10" stroke-dasharray="" stroke-dashoffset="0" font-family="none" font-weight="none" font-size="none" text-anchor="none" style="mix-blend-mode: normal"><path d="M-8.02757,360.93279v-361.86555h496.05513v361.86555z" data-paper-data="{&quot;origPos&quot;:null}" fill="url(#color-1)" fill-rule="nonzero" stroke="none" stroke-width="NaN"/><path d="M195.85937,153.77317c11.521,-3.687 21.804,4.688 17.393,14.165c-1.302,2.796 -6.51,8.116 -10.417,10.64l-2.705,1.747l1.946,1.14c4.567,2.676 3.336,8.847 -3.147,15.781c-5.481,5.864 -10.929,8.199 -18.712,8.022c-3.038,-0.069 -5.055,0.075 -5.659,0.404c-3.247,1.771 -8.384,-0.057 -8.972,-3.194c-0.541,-2.883 3.441,-13.864 9.084,-25.051c7.258,-14.39 13.294,-21.128 21.189,-23.654M232.58637,155.29218c3.104,-3.334 8.14,-2.374 7.251,1.382c-0.269,1.135 -5.002,10.385 -18.298,35.758c-6.391,12.197 -6.778,12.57 -13.293,12.828c-7.604,0.301 -7.757,-1.07 -1.428,-12.811c1.718,-3.187 5.205,-9.657 7.749,-14.378c8.606,-15.969 10.12,-18.128 13.912,-19.83c1.291,-0.58 3.13,-1.901 4.107,-2.949M259.83137,154.27917c3.217,-0.838 9.469,-1.1 12.216,-0.512c4.934,1.058 0.783,9.651 -5.508,11.4c-1.329,0.37 -3.527,0.979 -4.884,1.355c-2.879,0.796 -5.561,3.266 -7.537,6.942c-1.638,3.046 -1.45,3.194 3.603,2.846c5.014,-0.345 5.1,-0.238 2.643,3.279c-2.287,3.274 -4.357,4.583 -8.642,5.467l-3.588,0.741l-1.823,2.575c-4.577,6.464 -4.446,6.783 2.686,6.596c6.088,-0.16 6.714,0.012 6.333,1.745c-0.174,0.793 -0.042,1.359 0.404,1.729c2.52,2.091 -3.226,6.701 -9.956,7.989c-6.781,1.297 -14.853,0.689 -17.158,-1.294l-1.169,-1.005l0.537,-3.131c1.434,-8.365 6.034,-18.614 13.313,-29.663c3.362,-5.103 4.575,-7.341 5.201,-9.599c1.06,-3.823 2.528,-4.645 13.329,-7.46M305.90638,156.78718c5.226,-2.472 9.677,-1.583 8.305,1.659c-0.372,0.88 -0.758,2.615 -0.857,3.855c-0.147,1.86 -0.594,2.88 -2.542,5.807c-2.201,3.308 -3.913,6.328 -13.215,23.312c-6.023,10.998 -7.807,12.617 -13.906,12.617c-3.903,0 -3.863,0.091 -4.118,-9.399l-0.215,-7.983l-1.881,3.648c-5.494,10.655 -9.467,14.592 -14.725,14.592c-3.577,0 -3.752,-0.442 -2.081,-5.258c6.446,-18.582 16.853,-37.573 22.503,-41.065c1.666,-1.029 5.454,-1.227 6.204,-0.323c0.894,1.077 1.875,8.504 1.711,12.955l-0.158,4.292l2.825,-4.292c1.554,-2.36 3.545,-5.58 4.425,-7.155c1.934,-3.461 4.207,-5.597 7.725,-7.262M200.93737,166.07818c-0.525,-0.367 -1.056,-0.648 -1.18,-0.624c-3.481,0.676 -5.811,2.63 -7.803,6.545c-1.582,3.107 -1.58,3.109 2.038,1.756c6.905,-2.583 9.741,-5.718 6.945,-7.677M191.16238,190.08918c-0.6,-0.723 -2.658,-0.774 -5.513,-0.136c-1.799,0.402 -1.915,0.529 -3.371,3.709c-2.651,5.793 -2.638,5.387 -0.164,5.094c5.738,-0.679 11.275,-5.983 9.048,-8.667" data-paper-data="{&quot;origPos&quot;:null}" id="path0 1" fill="#003aff" fill-rule="evenodd" stroke="#ffffff" stroke-width="11"/><path d="M195.85937,153.77317c11.521,-3.687 21.804,4.688 17.393,14.165c-1.302,2.796 -6.51,8.116 -10.417,10.64l-2.705,1.747l1.946,1.14c4.567,2.676 3.336,8.847 -3.147,15.781c-5.481,5.864 -10.929,8.199 -18.712,8.022c-3.038,-0.069 -5.055,0.075 -5.659,0.404c-3.247,1.771 -8.384,-0.057 -8.972,-3.194c-0.541,-2.883 3.441,-13.864 9.084,-25.051c7.258,-14.39 13.294,-21.128 21.189,-23.654M232.58637,155.29218c3.104,-3.334 8.14,-2.374 7.251,1.382c-0.269,1.135 -5.002,10.385 -18.298,35.758c-6.391,12.197 -6.778,12.57 -13.293,12.828c-7.604,0.301 -7.757,-1.07 -1.428,-12.811c1.718,-3.187 5.205,-9.657 7.749,-14.378c8.606,-15.969 10.12,-18.128 13.912,-19.83c1.291,-0.58 3.13,-1.901 4.107,-2.949M259.83137,154.27917c3.217,-0.838 9.469,-1.1 12.216,-0.512c4.934,1.058 0.783,9.651 -5.508,11.4c-1.329,0.37 -3.527,0.979 -4.884,1.355c-2.879,0.796 -5.561,3.266 -7.537,6.942c-1.638,3.046 -1.45,3.194 3.603,2.846c5.014,-0.345 5.1,-0.238 2.643,3.279c-2.287,3.274 -4.357,4.583 -8.642,5.467l-3.588,0.741l-1.823,2.575c-4.577,6.464 -4.446,6.783 2.686,6.596c6.088,-0.16 6.714,0.012 6.333,1.745c-0.174,0.793 -0.042,1.359 0.404,1.729c2.52,2.091 -3.226,6.701 -9.956,7.989c-6.781,1.297 -14.853,0.689 -17.158,-1.294l-1.169,-1.005l0.537,-3.131c1.434,-8.365 6.034,-18.614 13.313,-29.663c3.362,-5.103 4.575,-7.341 5.201,-9.599c1.06,-3.823 2.528,-4.645 13.329,-7.46M305.90638,156.78718c5.226,-2.472 9.677,-1.583 8.305,1.659c-0.372,0.88 -0.758,2.615 -0.857,3.855c-0.147,1.86 -0.594,2.88 -2.542,5.807c-2.201,3.308 -3.913,6.328 -13.215,23.312c-6.023,10.998 -7.807,12.617 -13.906,12.617c-3.903,0 -3.863,0.091 -4.118,-9.399l-0.215,-7.983l-1.881,3.648c-5.494,10.655 -9.467,14.592 -14.725,14.592c-3.577,0 -3.752,-0.442 -2.081,-5.258c6.446,-18.582 16.853,-37.573 22.503,-41.065c1.666,-1.029 5.454,-1.227 6.204,-0.323c0.894,1.077 1.875,8.504 1.711,12.955l-0.158,4.292l2.825,-4.292c1.554,-2.36 3.545,-5.58 4.425,-7.155c1.934,-3.461 4.207,-5.597 7.725,-7.262M200.93737,166.07818c-0.525,-0.367 -1.056,-0.648 -1.18,-0.624c-3.481,0.676 -5.811,2.63 -7.803,6.545c-1.582,3.107 -1.58,3.109 2.038,1.756c6.905,-2.583 9.741,-5.718 6.945,-7.677M191.16238,190.08918c-0.6,-0.723 -2.658,-0.774 -5.513,-0.136c-1.799,0.402 -1.915,0.529 -3.371,3.709c-2.651,5.793 -2.638,5.387 -0.164,5.094c5.738,-0.679 11.275,-5.983 9.048,-8.667" data-paper-data="{&quot;origPos&quot;:null}" id="path0" fill="#4fff00" fill-rule="evenodd" stroke="none" stroke-width="1"/></g></g></svg>