<svg version="1.1" xmlns="http://www.w3.org/2000/svg" xmlns:xlink="http://www.w3.org/1999/xlink" width="14.81941" height="18.2299" viewBox="0,0,14.81941,18.2299"><g transform="translate(-233.10917,-170.88505)"><g data-paper-data="{&quot;isPaintingLayer&quot;:true}" fill="#ff0000" fill-rule="nonzero" stroke="none" stroke-width="1" stroke-linecap="butt" stroke-linejoin="miter" stroke-miterlimit="10" stroke-dasharray="" stroke-dashoffset="0" style="mix-blend-mode: normal"><path d="M247.92858,188.40067l-0.14286,0.71428c-1.28571,-0.14285 -5.73854,-0.28571 -7.30998,-0.28571c-2.14285,0 -5.65228,0.14285 -7.36657,0.28571v-0.71428c0.71428,-0.28572 3.36657,-0.57143 4.22371,-0.85714c0.14285,-1.14285 0.28572,-4 0.28572,-7.57143c0,-3.57143 -0.14286,-3.64151 -0.28572,-4.92722c-0.71428,-0.14285 -2.09434,1.97574 -2.80862,1.54717l0.23719,-3.73316c1.23799,0.19046 2.68764,-1.97384 2.68764,-1.97384c0,0 2.78836,0.51562 3.88379,0.51562c1.57143,0 1.86792,0.14016 3.15364,-0.0027v0.85715c-0.71428,0.14285 -0.2965,0.14555 -1.01078,0.43127c-0.14286,1.14285 -0.42857,3.71428 -0.42857,7.28571c0,3.57143 0.14285,6.42858 0.42857,7.57143c0.57143,0.14285 3.8814,0.57142 4.45283,0.85714z"/></g></g></svg>