<svg version="1.1" xmlns="http://www.w3.org/2000/svg" xmlns:xlink="http://www.w3.org/1999/xlink" width="467.21955" height="277.45987" viewBox="0,0,467.21955,277.45987"><defs><radialGradient cx="237.60392" cy="208.01055" r="233.04606" gradientUnits="userSpaceOnUse" id="color-1"><stop offset="0" stop-color="#ecf000"/><stop offset="1" stop-color="#fdff5d"/></radialGradient><linearGradient x1="235.66632" y1="318.18262" x2="235.66632" y2="354.20357" gradientUnits="userSpaceOnUse" id="color-2"><stop offset="0" stop-color="#eff099"/><stop offset="1" stop-color="#fdff5d"/></linearGradient></defs><g transform="translate(-4.55784,-76.99998)"><g data-paper-data="{&quot;isPaintingLayer&quot;:true}" fill="none" fill-rule="nonzero" stroke="none" stroke-width="none" stroke-linecap="none" stroke-linejoin="miter" stroke-miterlimit="10" stroke-dasharray="" stroke-dashoffset="0" font-family="none" font-weight="none" font-size="none" text-anchor="none" style="mix-blend-mode: normal"><path d="M4.85619,282.17287c-0.10277,-57.18742 -0.68472,-89.35342 0.12534,-146.5352c0.38462,-27.14995 10.22613,-58.63769 40.87882,-58.63769c101.543,0 391.22515,10.06037 402.32478,13.16666c24.10979,6.74725 20.86492,62.29853 22.27587,99.78175c1.4504,38.53138 4.39311,106.11947 -9.09593,110.59451c-13.48904,4.47504 -138.23122,17.20083 -224.68449,24.20128c-79.56642,6.4428 -124.32767,13.57245 -204.14365,12.25581c-30.07935,-0.49619 -27.64087,-32.64958 -27.68072,-54.82712z" data-paper-data="{&quot;origPos&quot;:null}" fill="url(#color-1)" stroke="#001026" stroke-width="0" stroke-linecap="butt"/><path d="M153.03696,115.17621z" fill="none" stroke="#001026" stroke-width="1.5" stroke-linecap="butt"/><path d="M184.71604,327.74834c0,0 10.17632,16.1034 10.63361,16.41318c5.85293,3.96491 84.44727,-2.65298 87.82195,-6.28361c2.50344,-2.6933 4.55131,-18.01765 4.55131,-18.01765l24.00775,-1.17766c0,0 -16.46693,24.10194 -23.61039,27.11412c-22.757,9.59593 -79.01805,10.17578 -96.33358,6.76073c-8.73477,-1.30745 -30.68471,-23.45686 -30.68471,-23.45686z" data-paper-data="{&quot;origPos&quot;:null,&quot;origRot&quot;:0}" fill="url(#color-2)" stroke="#001026" stroke-width="0" stroke-linecap="round"/><text transform="translate(69.14879,193.93542) scale(1.62676,1.62676)" font-size="40" xml:space="preserve" data-paper-data="{&quot;origPos&quot;:null}" fill="#003aff" fill-rule="nonzero" stroke="#000000" stroke-width="1" stroke-linecap="butt" stroke-linejoin="miter" stroke-miterlimit="10" stroke-dasharray="" stroke-dashoffset="0" font-family="Marker" font-weight="normal" text-anchor="start" style="mix-blend-mode: normal"><tspan x="0" dy="0">Mi carillon</tspan></text><path d="M357.61366,142.6875c-1.73804,0.1682 -3.79212,1.15699 -5.625,2.8125c-1.83288,1.65551 -2.3572,3.69368 -4.0625,5.9375c-1.7053,2.24382 -0.60195,1.18086 -0.9375,2.1875c-0.33555,1.00664 2.34371,1.47571 3.125,1.25c0.78129,-0.22571 5.32118,-2.31084 10,-5.625c1.42307,-1.00801 1.20975,-0.85509 1.92381,-2.4461c0.33486,-0.74611 1.17983,-1.47716 0.88869,-2.2414c-0.85329,-2.23989 -3.57446,-2.0432 -5.3125,-1.875z" data-paper-data="{&quot;origPos&quot;:null}" fill="#003aff" stroke="#000000" stroke-width="0.5" stroke-linecap="round"/><path d="M216.4434,222.64679l59.16667,32.5l-59.16667,30.83333z" data-paper-data="{&quot;origPos&quot;:null}" fill="#ffffff" stroke="#003aff" stroke-width="2" stroke-linecap="round"/></g></g></svg>