<svg version="1.1" xmlns="http://www.w3.org/2000/svg" xmlns:xlink="http://www.w3.org/1999/xlink" width="35.27751" height="32.5" viewBox="0,0,35.27751,32.5"><defs><linearGradient x1="-111.70215" y1="168.19788" x2="-111.70215" y2="192.11129" gradientUnits="userSpaceOnUse" id="color-1"><stop offset="0" stop-color="#69db0e"/><stop offset="1" stop-color="#397607"/></linearGradient><linearGradient x1="-69.88664" y1="191.38787" x2="-69.88664" y2="167.69423" gradientUnits="userSpaceOnUse" id="color-2"><stop offset="0" stop-color="#ffcdcd"/><stop offset="1" stop-color="#ff4f4f"/></linearGradient><linearGradient x1="-69.88664" y1="169.60109" x2="-69.88664" y2="190.67132" gradientUnits="userSpaceOnUse" id="color-3"><stop offset="0" stop-color="#ffcdcd"/><stop offset="1" stop-color="#ff4d4d"/></linearGradient><linearGradient x1="247.92209" y1="183.8961" x2="247.92209" y2="185.45454" gradientUnits="userSpaceOnUse" id="color-4"><stop offset="0" stop-color="#db0d0d"/><stop offset="1" stop-color="#750707"/></linearGradient><linearGradient x1="243.76624" y1="183.8961" x2="243.76624" y2="185.45454" gradientUnits="userSpaceOnUse" id="color-5"><stop offset="0" stop-color="#db0d0d"/><stop offset="1" stop-color="#750707"/></linearGradient><linearGradient x1="236.23378" y1="183.8961" x2="236.23378" y2="185.45454" gradientUnits="userSpaceOnUse" id="color-6"><stop offset="0" stop-color="#db0d0d"/><stop offset="1" stop-color="#750707"/></linearGradient><linearGradient x1="232.07793" y1="183.8961" x2="232.07793" y2="185.45454" gradientUnits="userSpaceOnUse" id="color-7"><stop offset="0" stop-color="#db0d0d"/><stop offset="1" stop-color="#750707"/></linearGradient><linearGradient x1="239.86557" y1="168.43065" x2="239.94191" y2="180.07805" gradientUnits="userSpaceOnUse" id="color-8"><stop offset="0" stop-color="#ffffff" stop-opacity="0.69072"/><stop offset="1" stop-color="#ffffff" stop-opacity="0"/></linearGradient></defs><g transform="translate(-220.9725,-163.75)"><g data-paper-data="{&quot;isPaintingLayer&quot;:true}" stroke-dasharray="" stroke-dashoffset="0" style="mix-blend-mode: normal"><path d="M253.96865,180c0.03478,5.0136 -2.62001,9.66131 -6.9562,12.1782c-4.3362,2.51689 -9.68867,2.51689 -14.02488,0c-4.3362,-2.51689 -6.99098,-7.1646 -6.9562,-12.1782c-0.03478,-5.0136 2.62001,-9.66131 6.9562,-12.1782c4.3362,-2.51689 9.68867,-2.51689 14.02488,0c4.3362,2.51689 6.99098,7.1646 6.9562,12.1782z" fill="#383838" fill-rule="nonzero" stroke="url(#color-1)" stroke-width="0" stroke-linecap="round" stroke-linejoin="round" stroke-miterlimit="10"/><path d="M252.30785,180c0.03064,4.41751 -2.3085,8.51263 -6.12914,10.73028c-3.82065,2.21765 -8.53675,2.21765 -12.3574,0c-3.82065,-2.21765 -6.15979,-6.31277 -6.12915,-10.73028c-0.03064,-4.41751 2.3085,-8.51263 6.12915,-10.73028c3.82065,-2.21765 8.53675,-2.21765 12.3574,0c3.82065,2.21765 6.15978,6.31277 6.12914,10.73028z" fill="url(#color-2)" fill-rule="nonzero" stroke="url(#color-3)" stroke-width="1.3644" stroke-linecap="round" stroke-linejoin="round" stroke-miterlimit="10"/><path d="M223.75001,196.25v-32.5h32.5v32.5z" fill="none" fill-rule="nonzero" stroke="none" stroke-width="0" stroke-linecap="butt" stroke-linejoin="miter" stroke-miterlimit="10"/><path d="M240.00001,175.24266c0.7733,0.01588 1.49865,0.39572 1.97955,0.90895c0.42098,0.44929 0.68532,1.10443 0.67508,1.72004c-0.02139,1.28645 -0.60125,1.77344 -1.52857,3.544c-0.33404,0.77911 -0.68267,1.60287 -1.01425,2.96825c-0.04608,0.2014 -0.09103,0.38916 -0.11181,0.37293c-0.02079,-0.01621 -0.06573,-0.20328 -0.11181,-0.40469c-0.33158,-1.36539 -0.68022,-2.1898 -1.01425,-2.96891c-0.92731,-1.77056 -1.50718,-2.25755 -1.52856,-3.544c-0.01024,-0.61561 0.25344,-1.27011 0.67442,-1.71939c0.4809,-0.51324 1.2069,-0.89308 1.9802,-0.87719z" fill="#ffbaba" fill-rule="nonzero" stroke="#d68383" stroke-width="1" stroke-linecap="butt" stroke-linejoin="miter" stroke-miterlimit="4"/><path d="M238.98434,177.88707c0,-0.56094 0.45474,-1.01567 1.01568,-1.01567c0.56094,0 1.01567,0.45473 1.01567,1.01567c0,0.56094 -0.45473,1.01568 -1.01567,1.01568c-0.56094,0 -1.01568,-0.45474 -1.01568,-1.01568z" fill="#f29494" fill-rule="nonzero" stroke="none" stroke-width="0" stroke-linecap="butt" stroke-linejoin="miter" stroke-miterlimit="10"/><path d="M220.9725,168.88622v0z" fill="#ff4646" fill-rule="nonzero" stroke="none" stroke-width="0" stroke-linecap="butt" stroke-linejoin="miter" stroke-miterlimit="10"/><g fill="#ffffff" fill-rule="nonzero" stroke-width="0" stroke-linecap="butt" stroke-linejoin="miter" stroke-miterlimit="10"><g data-paper-data="{&quot;index&quot;:null}" stroke="url(#color-4)"><path d="M247.92209,185.45454c-0.43035,0 -0.77922,-0.34887 -0.77922,-0.77922c0,-0.43035 0.34887,-0.77922 0.77922,-0.77922c0.43035,0 0.77922,0.34887 0.77922,0.77922c0,0.43035 -0.34887,0.77922 -0.77922,0.77922z"/></g><g data-paper-data="{&quot;index&quot;:null}" stroke="url(#color-5)"><path d="M243.76624,185.45454c-0.43035,0 -0.77922,-0.34887 -0.77922,-0.77922c0,-0.43035 0.34887,-0.77922 0.77922,-0.77922c0.43035,0 0.77922,0.34887 0.77922,0.77922c0,0.43035 -0.34887,0.77922 -0.77922,0.77922z"/></g></g><g fill="#ffffff" fill-rule="nonzero" stroke-width="0" stroke-linecap="butt" stroke-linejoin="miter" stroke-miterlimit="10"><g data-paper-data="{&quot;index&quot;:null}" stroke="url(#color-6)"><path d="M236.23378,185.45454c-0.43035,0 -0.77922,-0.34887 -0.77922,-0.77922c0,-0.43035 0.34887,-0.77922 0.77922,-0.77922c0.43035,0 0.77922,0.34887 0.77922,0.77922c0,0.43035 -0.34887,0.77922 -0.77922,0.77922z"/></g><g data-paper-data="{&quot;index&quot;:null}" stroke="url(#color-7)"><path d="M232.07793,185.45454c-0.43035,0 -0.77922,-0.34887 -0.77922,-0.77922c0,-0.43035 0.34887,-0.77922 0.77922,-0.77922c0.43035,0 0.77922,0.34887 0.77922,0.77922c0,0.43035 -0.34887,0.77922 -0.77922,0.77922z"/></g></g><path d="M248.93602,176.75765c-0.27918,0.13956 -1.3801,-1.15908 -3.34145,-0.8554c-1.75954,0.27247 -6.22477,2.14707 -9.87527,1.11726c-2.26737,-0.63306 -4.65031,-0.96031 -4.65031,-0.96031c-1.38204,-0.13187 0.39819,-7.3489 9.09634,-7.30448c7.969,0.04201 11.63849,7.94011 8.77055,8.00261z" fill="url(#color-8)" fill-rule="evenodd" stroke="none" stroke-width="1" stroke-linecap="butt" stroke-linejoin="miter" stroke-miterlimit="10" opacity="0.9"/></g></g></svg>