<svg version="1.1" xmlns="http://www.w3.org/2000/svg" xmlns:xlink="http://www.w3.org/1999/xlink" width="12.875" height="10.375" viewBox="0,0,12.875,10.375"><g transform="translate(-233.5625,-174.8125)"><g data-paper-data="{&quot;isPaintingLayer&quot;:true}" fill-rule="nonzero" stroke="#000000" stroke-linecap="butt" stroke-linejoin="miter" stroke-miterlimit="10" stroke-dasharray="" stroke-dashoffset="0" style="mix-blend-mode: normal"><path d="M245.51487,178.94001c0,0.48721 -0.58883,0.88333 -1.31306,0.88333h-9.71667c0.43393,0 0.78784,-0.23809 0.78784,-0.53v-2.82667c0,-0.48721 0.58883,-0.88333 1.31306,-0.88333h7.61577c0.72424,0 1.31306,0.39612 1.31306,0.88333zM245.51487,183.53334c0,0.48721 -0.58883,0.88333 -1.31306,0.88333h-7.61577c-0.72424,0 -1.31306,-0.39612 -1.31306,-0.88333v-2.82667c0,-0.29191 -0.35391,-0.53 -0.78784,-0.53h9.71667c0.72424,0 1.31306,0.39612 1.31306,0.88333z" data-paper-data="{&quot;origRot&quot;:0}" fill="#b6b6b6" stroke-width="1"/><path d="M233.5625,185.1875v-10.375h12.875v10.375z" fill="none" stroke-width="0"/></g></g></svg>