<svg version="1.1" xmlns="http://www.w3.org/2000/svg" xmlns:xlink="http://www.w3.org/1999/xlink" width="51.80866" height="58.58388" viewBox="0,0,51.80866,58.58388"><g transform="translate(-214.09567,-150.70806)"><g data-paper-data="{&quot;isPaintingLayer&quot;:true}" fill-rule="nonzero" stroke-linecap="butt" stroke-linejoin="miter" stroke-miterlimit="10" stroke-dasharray="" stroke-dashoffset="0" style="mix-blend-mode: normal"><path d="M265.90433,179.99999c0,16.17755 -11.5977,29.29195 -25.90432,29.29195c-14.30662,0 -25.90434,-13.1144 -25.90434,-29.29195c0,-16.17756 11.59772,-29.29193 25.90434,-29.29193c14.30662,0 25.90432,13.11438 25.90432,29.29193" data-paper-data="{&quot;index&quot;:null}" fill="#f6d738" stroke="none" stroke-width="0.03528"/><path d="M261.98465,179.99999c0,13.72957 -9.84292,24.85968 -21.98467,24.85968c-12.14174,0 -21.98468,-11.13011 -21.98468,-24.85968c0,-13.72955 9.84293,-24.85968 21.98468,-24.85968c12.14175,0 21.98467,11.13014 21.98467,24.85968" data-paper-data="{&quot;index&quot;:null}" fill="#f3cc30" stroke="none" stroke-width="0.03528"/><path d="M251.23343,159.08219c6.28867,4.37441 10.4825,12.22716 10.4825,21.18848c0,13.72967 -9.84294,24.85968 -21.98468,24.85968c-7.78151,0 -14.6187,-4.57159 -18.52587,-11.46905c3.34625,2.32757 7.28529,3.67112 11.50211,3.67112c12.14175,0 21.98467,-11.13 21.98467,-24.85968c0,-4.93048 -1.26935,-9.52564 -3.45869,-13.39054" data-paper-data="{&quot;index&quot;:null}" fill="#edbd31" stroke="none" stroke-width="0.03528"/><path d="M258.13352,182.27462c0,-12.11967 -8.68868,-21.9446 -19.40671,-21.9446c-6.26491,0 -11.83537,3.35764 -15.38356,8.56745c3.35107,-6.57843 9.63208,-11.00721 16.8281,-11.00721c10.71803,0 19.40671,9.82493 19.40671,21.9446c0,5.03562 -1.50107,9.67398 -4.02329,13.37723c1.64033,-3.2199 2.57875,-6.95468 2.57875,-10.93747" data-paper-data="{&quot;index&quot;:null}" fill="#f7db5e" stroke="none" stroke-width="0.03528"/><path d="M240.79515,181.77253c-0.53441,0.15359 -1.01667,0.49225 -1.36444,1.00788c-0.88035,1.30529 -0.5656,3.25032 0.70303,4.34438c0.16499,0.14248 0.34193,0.26633 0.5283,0.36976c-0.70795,0.23392 -3.04226,-1.1343 -3.31355,-3.32515c-0.25502,-2.05947 1.16142,-4.13449 2.97369,-4.87921l-0.57018,-2.9926c-0.51023,0.63963 -1.19509,1.47 -2.11366,2.54385c-1.14279,1.33598 -2.0453,3.0041 -1.86294,4.98971c0.28336,3.08538 2.72501,5.32682 5.45355,5.00639c0.29636,-0.03465 0.58938,-0.09921 0.87555,-0.1929zM242.34572,189.91063c-0.18903,0.06697 -0.38421,0.10926 -0.58174,0.12606c-4.63493,0.42752 -7.88626,-3.23777 -7.88626,-7.42969c0,-4.11433 1.76068,-6.30857 5.19175,-9.89166l-0.43685,-2.29274c-0.18486,-1.05018 -0.30956,-2.26443 -0.20589,-3.585c0.2521,-3.21127 1.65827,-5.69381 3.14075,-5.54493c1.48247,0.14875 2.47988,2.87264 2.22778,6.08386c-0.21208,2.70122 -1.24075,4.88686 -2.56956,6.8811c-0.02033,0.04645 -0.15048,0.31265 -0.77539,1.14215l0.69582,3.65197c0.19252,-0.03287 0.38693,-0.04947 0.58162,-0.04964c2.41017,0 4.39453,2.22771 4.39453,5.1673c0,2.22395 -1.30611,4.40094 -2.98571,5.3291l0.80745,4.23785c0.03872,0.24366 0,0.50431 0,0.76062c0,2.32876 -1.65026,4.2167 -3.70975,4.2167c-1.77007,0 -3.25209,-1.39451 -3.63368,-3.26506c-0.24477,-0.91163 0.05498,-1.898 0.74362,-2.44693c0.68863,-0.54893 1.61094,-0.5367 2.28799,0.03034c0.67706,0.56704 0.95628,1.56109 0.69265,2.46598c-0.26361,0.90489 -1.01063,1.51666 -1.85318,1.51766c-0.04276,0 -0.08519,-0.00162 -0.12726,-0.00462c0.52705,0.50811 1.19725,0.78667 1.88985,0.7855c1.61154,0 2.91795,-1.47731 2.91795,-3.29959c0,-0.22476 -0.01987,-0.44422 -0.15933,-1.18958l-0.64718,-3.39676zM244.09674,186.9079c0.66484,-1.88861 0.49367,-3.41588 -0.77496,-4.50994c-0.51043,-0.44019 -1.09749,-0.67554 -1.67424,-0.71463l1.25941,6.60995c0.17648,-0.09809 0.34763,-0.20802 0.51253,-0.32918c0.2811,-0.26875 0.52136,-0.61332 0.67726,-1.0562zM241.96446,164.09324c-1.92775,0.47862 -3.22639,4.16289 -2.14454,7.76872c0.03551,0.11833 -0.0269,-0.11952 0,0c0.5939,-0.52062 1.26228,-1.10194 1.67974,-1.96848c1.07649,-2.23453 1.51409,-4.27357 0.83855,-5.6281c-0.12513,-0.22122 -0.24986,-0.20287 -0.37376,-0.17214z" data-paper-data="{&quot;index&quot;:null}" fill="#b4832d" stroke="#b6842e" stroke-width="0"/></g></g></svg>