<svg version="1.1" xmlns="http://www.w3.org/2000/svg" xmlns:xlink="http://www.w3.org/1999/xlink" width="53.33334" height="87.77778" viewBox="0,0,53.33334,87.77778"><g transform="translate(-213.33333,-136.11111)"><g data-paper-data="{&quot;isPaintingLayer&quot;:true}" fill-rule="nonzero" stroke-linejoin="miter" stroke-miterlimit="10" stroke-dasharray="" stroke-dashoffset="0" style="mix-blend-mode: normal"><path d="M213.33333,223.88889v-87.77778h53.33334v87.77778z" fill="#9966ff" stroke="none" stroke-width="none" stroke-linecap="butt"/><path d="M245.53855,150.39683v47.77778" fill="none" stroke="#000000" stroke-width="2" stroke-linecap="round"/><path d="M219.09411,199.10317c0,-5.79899 6.04415,-10.5 13.5,-10.5c7.45585,0 13.5,4.70101 13.5,10.5c0,5.79899 -6.04415,10.5 -13.5,10.5c-7.45585,0 -13.5,-4.70101 -13.5,-10.5z" fill="#ffffff" stroke="#000000" stroke-width="1" stroke-linecap="butt"/><path d="M254.79478,200.00365c0,-1.68754 1.36802,-3.05556 3.05556,-3.05556c1.68754,0 3.05556,1.36802 3.05556,3.05556c0,1.68754 -1.36802,3.05556 -3.05556,3.05556c-1.68754,0 -3.05556,-1.36802 -3.05556,-3.05556z" fill="#000000" stroke="#000000" stroke-width="1" stroke-linecap="butt"/></g></g></svg>