<svg version="1.1" xmlns="http://www.w3.org/2000/svg" xmlns:xlink="http://www.w3.org/1999/xlink" width="27" height="32" viewBox="0,0,27,32"><g transform="translate(-226.5,-164)"><g data-paper-data="{&quot;isPaintingLayer&quot;:true}" fill-rule="nonzero" stroke="none" stroke-linecap="butt" stroke-linejoin="miter" stroke-miterlimit="10" stroke-dasharray="" stroke-dashoffset="0" style="mix-blend-mode: normal"><path d="M226.5,196v-32h27v32z" fill="none" stroke-width="0"/><path d="M237.78574,174.07143c-0.28571,-0.14285 -0.71429,-0.42857 -0.71429,-0.42857l-0.14285,0.14285l-0.85715,4.42857c1.14285,-0.71428 2.85715,-1.28571 4.14286,-1.57142c4.71429,0.28571 7.71428,3 7.71428,7.71429c-1.85715,2.71428 -5.71429,5.57143 -8.85715,6.71428c-2,0 -5.14285,-1.14285 -7,-2v-0.42857c1,-1.14285 1.42858,-4.42857 1.57143,-6h0.85715c0,0.85715 0,1.42857 0.14285,2.28571c1.57143,2.28572 3.57143,3.28571 5.14286,3.28571c0.71429,0 1.14286,0 1.57143,-0.42857c0.42857,-0.85714 0.57143,-1.71429 0.57143,-2.71429c0,-3.14285 -1.42857,-5 -4.57143,-5c-1,0 -1.71428,0.14286 -2.57143,0.57143l-0.42857,-0.28571l0.28571,-7.42857c0.14285,-1.85715 0.14285,-3.14286 0,-3.85715l0.71429,-0.14285l0.42857,1c3.57143,-0.14285 6.71429,-0.42857 10,-1l0.42857,0.28571c-0.28571,1 -0.42857,2.14286 -0.42857,3.57143c0,1 0,2.42857 0.14285,3l-0.85715,0.14286c-0.14285,-0.71428 -0.42857,-1.42857 -0.71428,-2.14286c-2.14285,0.14285 -4.28571,0.28571 -6.57143,0.28571z" fill="#ff0000" stroke-width="1"/></g></g></svg>