<svg version="1.1" xmlns="http://www.w3.org/2000/svg" xmlns:xlink="http://www.w3.org/1999/xlink" width="27" height="32" viewBox="0,0,27,32"><g transform="translate(-226.5,-164)"><g data-paper-data="{&quot;isPaintingLayer&quot;:true}" fill-rule="nonzero" stroke="none" stroke-linecap="butt" stroke-linejoin="miter" stroke-miterlimit="10" stroke-dasharray="" stroke-dashoffset="0" style="mix-blend-mode: normal"><path d="M226.5,196v-32h27v32z" fill="none" stroke-width="0"/><path d="M226.5,196v-32h27v32z" fill="none" stroke-width="0"/><path d="M245.71428,182.50002c1.71428,0 2.28572,-0.14285 3,-1.71429l0.57143,0.14285c-0.28571,1.71429 -0.28571,2.85714 -0.28571,4.85714l-0.28571,0.14285c-1.28572,-0.14285 -2.14286,-0.14285 -3,-0.14285c0,1.28572 0.14286,2.57143 0.28572,3.57143c0.57143,0.28571 1.14286,0.57144 1.85715,0.71429l-0.14286,0.85714c-1.71429,-0.14285 -2.57143,-0.28571 -4.85714,-0.28571c-1.85715,0 -4.57143,0.28572 -5.85715,0.42858l-0.14285,-0.71429c0.57143,-0.42857 2.28572,-0.85715 3,-1c0.14285,-1.14285 0.28571,-2.42857 0.28571,-3.57143h-9.14286l-0.28572,-0.85715c3.71428,-4.57143 6.28572,-9.42857 8.85715,-15.14285c1.57143,0 5,-0.42857 6.28572,-0.85715l0.28571,0.14286c-0.28572,2 -0.57143,5.71428 -0.57143,7.71428c0,3.14285 0,4.42857 0.14285,5.71429zM235.71428,182.07145c1.57143,0.28571 2.85715,0.28571 4.42857,0.28571v-9.57143h-0.14286c-1.14285,3 -2.57143,6.57143 -4.28572,9.28572z" fill="#ff0000" stroke-width="1"/></g></g></svg>