<svg version="1.1" xmlns="http://www.w3.org/2000/svg" xmlns:xlink="http://www.w3.org/1999/xlink" width="20.82138" height="20.82138" viewBox="0,0,20.82138,20.82138"><g transform="translate(-229.58931,-169.58931)"><g data-paper-data="{&quot;isPaintingLayer&quot;:true}" fill-rule="nonzero" stroke="none" stroke-linecap="butt" stroke-linejoin="miter" stroke-miterlimit="10" stroke-dasharray="" stroke-dashoffset="0" style="mix-blend-mode: normal"><path d="M231.83932,180.00001c0,-4.50703 3.65366,-8.16069 8.16069,-8.16069c4.50703,0 8.16069,3.65366 8.16069,8.16069c0,4.50703 -3.65366,8.16069 -8.16069,8.16069c-4.50703,0 -8.16069,-3.65366 -8.16069,-8.16069z" fill="#bdbdbd" stroke-width="0"/><path d="M229.58931,180c0,-5.74967 4.66102,-10.41069 10.41069,-10.41069c5.74967,0 10.41069,4.66102 10.41069,10.41069c0,5.74967 -4.66102,10.41069 -10.41069,10.41069c-5.74967,0 -10.41069,-4.66102 -10.41069,-10.41069z" fill="none" stroke-width="0"/><path d="M249.51807,180c0,5.25695 -4.26112,9.51807 -9.51807,9.51807c-5.25695,0 -9.51807,-4.26112 -9.51807,-9.51807c0,-5.25695 4.26112,-9.51807 9.51807,-9.51807c5.25695,0 9.51807,4.26112 9.51807,9.51807zM247.73343,180c0,-4.27123 -3.4622,-7.73343 -7.73343,-7.73343c-4.27123,0 -7.73343,3.4622 -7.73343,7.73343c0,4.27123 3.4622,7.73343 7.73343,7.73343c4.27123,0 7.73343,-3.4622 7.73343,-7.73343z" fill="#000000" stroke-width="1"/><path d="M244.75904,177.0256l-2.9744,2.9744l2.9744,2.9744l-1.78464,1.78464l-2.9744,-2.9744l-2.9744,2.9744l-1.78464,-1.78464l2.9744,-2.9744l-2.9744,-2.9744l1.78464,-1.78464l2.9744,2.9744l2.9744,-2.9744z" fill="#000000" stroke-width="1"/></g></g></svg>