<svg version="1.1" xmlns="http://www.w3.org/2000/svg" xmlns:xlink="http://www.w3.org/1999/xlink" width="92.60825" height="91.0743" viewBox="0,0,92.60825,91.0743"><g transform="translate(-193.76143,-126.82541)"><g data-paper-data="{&quot;isPaintingLayer&quot;:true}" fill="none" fill-rule="nonzero" stroke="none" stroke-width="1" stroke-linecap="butt" stroke-linejoin="miter" stroke-miterlimit="10" stroke-dasharray="" stroke-dashoffset="0" font-family="none" font-weight="none" font-size="none" text-anchor="none" style="mix-blend-mode: normal"><path d="M195.57739,180.62946c0,0 -3.88712,-3.5999 -0.28721,-7.48981c3.5999,-3.88433 7.48981,-0.28163 7.48981,-0.28163l18.04413,16.71404c-0.28442,-0.26769 1.25481,-2.45106 1.02615,-2.66298l-25.04596,-23.19721c0,0 -3.88712,-3.5999 -0.28721,-7.48423c3.60269,-3.8899 7.48981,-0.28721 7.48981,-0.28721l23.55692,21.81971c-0.05577,-0.05019 1.69817,-2.03837 1.66471,-2.06904l-27.31019,-25.29692c0,0 -3.88712,-3.5999 -0.28721,-7.48702c3.60269,-3.88433 7.48981,-0.28442 7.48981,-0.28442l27.3074,25.29692c0.03346,0.02788 1.90452,-1.85154 1.96029,-1.79856l-25.52558,-23.64337c0,0 -3.88712,-3.5999 -0.28721,-7.48702c3.60269,-3.88433 7.48981,-0.28442 7.48981,-0.28442c0,0 18.995,17.59519 26.98952,24.99856c7.99173,7.40337 9.79308,5.45981 9.79308,5.45981l-7.21654,-6.68394l-8.33471,-7.71567c0,0 -3.88712,-3.5999 -0.28442,-7.48981c3.60269,-3.88712 7.48702,-0.28721 7.48702,-0.28721l21.37913,19.80365c12.87712,11.92904 13.64952,32.04221 1.71769,44.92212c-11.92904,12.8799 -32.045,13.64673 -44.9249,1.72048c-0.68038,-0.63019 -1.90173,-1.84875 -1.84875,-1.90731l-0.09202,0.10596z" data-paper-data="{&quot;origPos&quot;:null}" id="path22" fill="#c1694f"/><path d="M201.88409,174.26951c0,0 -3.88712,-3.5999 -0.28721,-7.48702c3.5999,-3.8899 7.48702,-0.29 7.48702,-0.29l18.04692,16.71962c-0.28721,-0.26769 1.25481,-2.45106 1.02615,-2.66298l-25.04596,-23.19721c0,0 -3.88712,-3.5999 -0.28721,-7.48702c3.5999,-3.88712 7.48702,-0.28721 7.48702,-0.28721l23.55692,21.8225c-0.05298,-0.05298 1.70096,-2.03837 1.6675,-2.06904l-27.31019,-25.29971c0,0 -3.88712,-3.59712 -0.28721,-7.48423c3.5999,-3.88712 7.48702,-0.28721 7.48702,-0.28721l27.3074,25.29413c0.03625,0.03346 1.90452,-1.84596 1.96029,-1.79577l-25.52279,-23.64337c0,0 -3.88712,-3.5999 -0.28721,-7.48423c3.5999,-3.88712 7.48702,-0.28721 7.48702,-0.28721c0,0 18.99779,17.59798 26.99231,25.00135c7.98894,7.40058 9.79308,5.45702 9.79308,5.45702l-7.21933,-6.68394l-8.33192,-7.71567c0,0 -3.88433,-3.5999 -0.28721,-7.48702c3.60269,-3.88712 7.48981,-0.28721 7.48981,-0.28721l21.37635,19.80087c12.8799,11.92904 13.64952,32.045 1.72048,44.92212c-11.93183,12.8799 -32.045,13.64673 -44.9249,1.71769c-0.68317,-0.6274 -1.90173,-1.84596 -1.84875,-1.90173l-0.09481,0.10596z" data-paper-data="{&quot;origPos&quot;:null}" id="path26" fill="#e8a88b"/></g></g></svg>