<svg version="1.1" xmlns="http://www.w3.org/2000/svg" xmlns:xlink="http://www.w3.org/1999/xlink" width="82.59195" height="79.38632" viewBox="0,0,82.59195,79.38632"><defs><radialGradient cx="240.00002" cy="180" r="38.88747" gradientUnits="userSpaceOnUse" id="color-1"><stop offset="0" stop-color="#ffffff"/><stop offset="1" stop-color="#ffffff" stop-opacity="0"/></radialGradient><radialGradient cx="240.00002" cy="180" r="38.88747" gradientUnits="userSpaceOnUse" id="color-2"><stop offset="0" stop-color="#ffffff"/><stop offset="1" stop-color="#ffffff" stop-opacity="0"/></radialGradient><radialGradient cx="225.37914" cy="164.88944" r="24.62462" gradientUnits="userSpaceOnUse" id="color-3"><stop offset="0" stop-color="#e3e3e3"/><stop offset="1" stop-color="#9d9d9d"/></radialGradient><linearGradient x1="248.82008" y1="166.38231" x2="248.82008" y2="196.95412" gradientUnits="userSpaceOnUse" id="color-4"><stop offset="0" stop-color="#ffe3a7"/><stop offset="1" stop-color="#3a2b00"/></linearGradient><linearGradient x1="222.3599" y1="175.59877" x2="222.3599" y2="196.95412" gradientUnits="userSpaceOnUse" id="color-5"><stop offset="0" stop-color="#ababab"/><stop offset="1" stop-color="#0c0900"/></linearGradient><linearGradient x1="231.17996" y1="172.65875" x2="231.17996" y2="196.95411" gradientUnits="userSpaceOnUse" id="color-6"><stop offset="0" stop-color="#ababab"/><stop offset="1" stop-color="#0c0900"/></linearGradient><linearGradient x1="240.00002" y1="169.71873" x2="240.00002" y2="196.95412" gradientUnits="userSpaceOnUse" id="color-7"><stop offset="0" stop-color="#de9905"/><stop offset="1" stop-color="#3e2d00"/></linearGradient><radialGradient cx="258.85733" cy="161.14806" r="13.36593" gradientUnits="userSpaceOnUse" id="color-8"><stop offset="0" stop-color="#fffad8" stop-opacity="0.40323"/><stop offset="1" stop-color="#fffad8" stop-opacity="0"/></radialGradient></defs><g transform="translate(-198.70403,-140.30684)"><g data-paper-data="{&quot;isPaintingLayer&quot;:true}" fill-rule="nonzero" stroke-linecap="butt" stroke-linejoin="miter" stroke-miterlimit="10" stroke-dasharray="" stroke-dashoffset="0" style="mix-blend-mode: normal"><path d="M278.88749,155.2433v49.31485c0,10.87463 -2.85892,14.32932 -13.7337,14.32932h-50.109c-10.87463,0 -13.93224,-3.45454 -13.93224,-14.32932v-49.31485c0,-10.8748 3.05762,-14.13078 13.93224,-14.13078h50.109c10.8748,0 13.7337,3.256 13.7337,14.13078z" fill="url(#color-1)" stroke="#696969" stroke-width="0"/><path d="M278.88749,155.2433v49.31485c0,10.87463 -2.85892,14.32932 -13.7337,14.32932h-50.109c-10.87463,0 -13.93224,-3.45454 -13.93224,-14.32932v-49.31485c0,-10.8748 3.05762,-14.13078 13.93224,-14.13078h50.109c10.8748,0 13.7337,3.256 13.7337,14.13078z" fill="url(#color-2)" stroke="#696969" stroke-width="0"/><path d="M267.91746,166.21796v27.56407c0,7.80693 -6.32837,14.13541 -14.13541,14.13541h-27.56407c-7.80693,0 -14.13541,-6.32837 -14.13541,-14.13541v-27.56407c0,-7.80705 6.32848,-14.13541 14.13541,-14.13541h27.56407c7.80705,0 14.13541,6.32837 14.13541,14.13541z" fill="#e0e0e0" stroke="#696969" stroke-width="0"/><path d="M266.38964,166.97221v26.05559c0,7.37968 -5.98204,13.36183 -13.36183,13.36183h-26.05559c-7.37968,0 -13.36183,-5.98204 -13.36183,-13.36183v-26.05559c0,-7.3798 5.98215,-13.36183 13.36183,-13.36183h26.05559c7.3798,0 13.36183,5.98204 13.36183,13.36183z" fill="#ffffff" stroke="#696969" stroke-width="0"/><path d="M264.62462,167.84354v24.31292c0,6.88611 -5.58195,12.46816 -12.46816,12.46816h-24.31292c-6.88611,0 -12.46816,-5.58195 -12.46816,-12.46816v-24.31292c0,-6.88622 5.58205,-12.46816 12.46816,-12.46816h24.31292c6.88622,0 12.46816,5.58195 12.46816,12.46816z" fill="url(#color-3)" stroke="#696969" stroke-width="0.5"/><path d="M254.70012,196.95412v-33.90823h5.88004v33.90823z" fill="#ffffff" stroke="#000000" stroke-width="1.5"/><path d="M245.88006,196.95412v-30.57181h5.88004v30.57181z" fill="url(#color-4)" stroke="#000000" stroke-width="1.5"/><path d="M219.41988,196.95412v-21.35535h5.88003v21.35535z" fill="url(#color-5)" stroke="#000000" stroke-width="1.5"/><path d="M228.23994,196.95411v-24.29536h5.88004v24.29537z" fill="url(#color-6)" stroke="#000000" stroke-width="1.5"/><path d="M237.06,196.95411v-27.23538h5.88004v27.23539z" fill="url(#color-7)" stroke="#000000" stroke-width="1.5"/><path d="M198.70404,219.69316v-79.38632h82.59195v79.38632z" fill="none" stroke="none" stroke-width="0"/><path d="M245.49141,161.14806c0,-7.3818 5.98413,-13.36593 13.36593,-13.36593c7.3818,0 13.36593,5.98413 13.36593,13.36593c0,7.3818 -5.98413,13.36593 -13.36593,13.36593c-7.3818,0 -13.36593,-5.98413 -13.36593,-13.36593z" fill="url(#color-8)" stroke="none" stroke-width="0"/></g></g></svg>