<svg version="1.1" xmlns="http://www.w3.org/2000/svg" xmlns:xlink="http://www.w3.org/1999/xlink" width="25.01069" height="85.70513" viewBox="0,0,25.01069,85.70513"><g transform="translate(-227.49466,-130.88032)"><g data-paper-data="{&quot;isPaintingLayer&quot;:true}" fill="#6b0000" fill-rule="nonzero" stroke="none" stroke-width="0" stroke-linecap="butt" stroke-linejoin="miter" stroke-miterlimit="10" stroke-dasharray="" stroke-dashoffset="0" style="mix-blend-mode: normal"><path d="M250.27245,216.58545v-15.78707c0.74438,0.01475 1.48869,0.02901 2.23291,0.04278v15.74429z"/><path d="M250.27245,176.66163c0.7443,0.0042 1.48861,0.00867 2.23291,0.01376v12.01699c-0.01228,-0.0003 -0.02452,-0.00062 -0.03672,-0.00094c-0.73203,-0.01952 -1.46409,-0.03709 -2.19619,-0.05309z"/><path d="M250.27245,154.35007c0.74469,0.01778 1.48905,0.03195 2.23291,0.04165v10.22481c-0.74438,-0.01562 -1.48868,-0.02815 -2.23291,-0.0383z"/><path d="M250.27245,130.88032h2.23291v11.22819c-0.74416,-0.01662 -1.48846,-0.03279 -2.23291,-0.04854z"/><path d="M227.49467,216.58545v-16.39448c0.74417,0.02504 1.48848,0.04957 2.23291,0.07358v16.3209z"/><path d="M227.49467,176.25934c0.30756,-0.00909 0.48854,-0.0157 0.50318,-0.01546c0.55693,0.00887 1.11271,0.05399 1.66924,0.07714c0.02017,0.00084 0.04033,0.00168 0.0605,0.00251v11.97428c-0.74436,-0.01941 -1.48866,-0.04079 -2.23291,-0.06453z"/><path d="M227.49467,153.61564c0.67134,-0.01236 1.30237,-0.01844 1.87237,-0.01064c0.12015,0.00164 0.24033,0.0034 0.36054,0.00528v10.74263c-0.41107,-0.01446 -0.82212,-0.03017 -1.23317,-0.04727c-0.26759,-0.01113 -0.60624,-0.03093 -0.99974,-0.0551z"/><path d="M227.49467,130.88032h2.23291v10.82453c-0.74433,-0.011 -1.48864,-0.0219 -2.23291,-0.03274z"/></g></g></svg>