<svg version="1.1" xmlns="http://www.w3.org/2000/svg" xmlns:xlink="http://www.w3.org/1999/xlink" width="48.04779" height="86.00799"><defs><radialGradient cx="258.68507" cy="199.64912" r="17.98062" gradientUnits="userSpaceOnUse" id="color-1"><stop offset="0" stop-color="#ffff99"/><stop offset="1" stop-color="#ff9400"/></radialGradient><radialGradient cx="252.97284" cy="181.23182" r="17.98062" gradientUnits="userSpaceOnUse" id="color-2"><stop offset="0" stop-color="#ffff99"/><stop offset="1" stop-color="#ff9400"/></radialGradient></defs><g transform="translate(-237.9,-175.1)"><g data-paper-data="{&quot;isPaintingLayer&quot;:true}" fill="none" fill-rule="nonzero" stroke="none" stroke-width="none" stroke-linecap="butt" stroke-linejoin="miter" stroke-miterlimit="10" stroke-dasharray="" stroke-dashoffset="0" font-family="none" font-weight="none" font-size="none" text-anchor="none" style="mix-blend-mode: normal"><path d="M239.7,188.2c0,-5.02579 4.07421,-9.1 9.1,-9.1c5.02579,0 9.1,4.07421 9.1,9.1c0,5.02579 -4.07421,9.1 -9.1,9.1c-5.02579,0 -9.1,-4.07421 -9.1,-9.1z" data-paper-data="{&quot;origPos&quot;:null}" fill="#505050" stroke="none" stroke-width="1"/><path d="M251.15563,196.51531l3.89042,-2.0018l26.96083,60.07117l-3.69042,1.40181z" data-paper-data="{&quot;origPos&quot;:null,&quot;origRot&quot;:0}" fill="#505050" stroke="#d1bd60" stroke-width="0"/><path d="M250.75563,195.51531l3.29042,-1.4018l31.56083,65.07117l-3.89042,1.60181z" data-paper-data="{&quot;origPos&quot;:null,&quot;origRot&quot;:0}" fill="url(#color-1)" stroke="#d1bd60" stroke-width="0.5"/><path d="M237.9,185.6c0,-5.79899 4.70101,-10.5 10.5,-10.5c5.79899,0 10.5,4.70101 10.5,10.5c0,5.79899 -4.70101,10.5 -10.5,10.5c-5.79899,0 -10.5,-4.70101 -10.5,-10.5z" data-paper-data="{&quot;origPos&quot;:null}" fill="url(#color-2)" stroke="none" stroke-width="1"/></g></g></svg>