<svg version="1.1" xmlns="http://www.w3.org/2000/svg" xmlns:xlink="http://www.w3.org/1999/xlink" width="81.0897" height="179.38135" viewBox="0,0,81.0897,179.38135"><g transform="translate(-199.45515,-90.27083)"><g data-paper-data="{&quot;isPaintingLayer&quot;:true}" fill-rule="nonzero" stroke="#001026" stroke-width="0.5" stroke-linejoin="miter" stroke-miterlimit="10" stroke-dasharray="" stroke-dashoffset="0" style="mix-blend-mode: normal"><g fill="#00ff84"><path d="M259.29869,226.14055c-16.61039,0.02984 -25.95317,0.19888 -42.56192,-0.03641c-7.88584,-0.11171 -17.03162,-2.97023 -17.03162,-11.87347c0,-29.4937 2.92209,-113.6334 3.82432,-116.85734c1.95977,-7.00281 18.09494,-6.06033 28.98213,-6.47014c11.19165,-0.42128 30.82296,-1.27601 32.12276,2.64196c1.29979,3.91797 4.99606,40.14998 7.02938,65.26079c1.87135,23.11049 3.94219,36.11162 3.55977,59.29459c-0.14412,8.7367 -9.48323,8.02844 -15.92483,8.04002z" data-paper-data="{&quot;origPos&quot;:null}" stroke-linecap="butt"/><path d="M272.53635,173.89932c0,0 4.67732,-2.95576 4.7673,-3.08859c1.15163,-1.70001 -0.77057,-24.52816 -1.8251,-25.50834c-0.78228,-0.72714 -5.23333,-1.32195 -5.23333,-1.32195l-0.34205,-6.97318c0,0 7.00053,4.7829 7.87544,6.85777c2.78719,6.6099 2.9556,22.9512 1.96369,27.9806c-0.37975,2.53706 -6.81317,8.91254 -6.81317,8.91254z" data-paper-data="{&quot;origPos&quot;:null,&quot;origRot&quot;:0}" stroke-linecap="round"/></g><g fill="#00daff"><path d="M259.29869,240.55787c-16.61039,0.02984 -25.95317,0.19888 -42.56192,-0.03641c-7.88584,-0.11171 -17.03162,-2.97023 -17.03162,-11.87347c0,-29.4937 2.92209,-113.6334 3.82432,-116.85734c1.95977,-7.00281 18.09494,-6.06033 28.98213,-6.47014c11.19165,-0.42128 30.82296,-1.27601 32.12276,2.64196c1.29979,3.91797 4.99606,40.14998 7.02938,65.26079c1.87135,23.11049 3.94219,36.11162 3.55977,59.29459c-0.14412,8.7367 -9.48323,8.02844 -15.92483,8.04002z" data-paper-data="{&quot;origPos&quot;:null}" stroke-linecap="butt"/><path d="M272.53635,188.31664c0,0 4.67732,-2.95576 4.7673,-3.08859c1.15163,-1.70001 -0.77057,-24.52816 -1.8251,-25.50834c-0.78228,-0.72714 -5.23333,-1.32195 -5.23333,-1.32195l-0.34205,-6.97318c0,0 7.00053,4.7829 7.87544,6.85777c2.78719,6.6099 2.9556,22.9512 1.96369,27.9806c-0.37975,2.53706 -6.81317,8.91254 -6.81317,8.91254z" data-paper-data="{&quot;origPos&quot;:null,&quot;origRot&quot;:0}" stroke-linecap="round"/></g><g fill="#ff0000"><path d="M259.2987,254.97519c-16.61039,0.02984 -25.95317,0.19888 -42.56192,-0.03641c-7.88584,-0.11171 -17.03162,-2.97023 -17.03162,-11.87347c0,-29.4937 2.92209,-113.6334 3.82432,-116.85734c1.95977,-7.00281 18.09494,-6.06033 28.98213,-6.47014c11.19165,-0.42128 30.82296,-1.27601 32.12276,2.64196c1.29979,3.91797 4.99606,40.14998 7.02938,65.26079c1.87135,23.11049 3.94219,36.11162 3.55977,59.29459c-0.14412,8.7367 -9.48323,8.02844 -15.92483,8.04002z" data-paper-data="{&quot;origPos&quot;:null}" stroke-linecap="butt"/><path d="M272.53635,202.73396c0,0 4.67732,-2.95576 4.7673,-3.08859c1.15163,-1.70001 -0.77057,-24.52816 -1.8251,-25.50834c-0.78228,-0.72714 -5.23333,-1.32195 -5.23333,-1.32195l-0.34205,-6.97318c0,0 7.00053,4.7829 7.87544,6.85777c2.78719,6.6099 2.9556,22.9512 1.96369,27.9806c-0.37975,2.53706 -6.81317,8.91254 -6.81317,8.91254z" data-paper-data="{&quot;origPos&quot;:null,&quot;origRot&quot;:0}" stroke-linecap="round"/></g><g fill="#fbff00"><path d="M259.29869,269.39252c-16.61039,0.02984 -25.95317,0.19888 -42.56192,-0.03641c-7.88584,-0.11171 -17.03162,-2.97023 -17.03162,-11.87347c0,-29.4937 2.92209,-113.6334 3.82432,-116.85734c1.95977,-7.00281 18.09494,-6.06033 28.98213,-6.47014c11.19165,-0.42128 30.82296,-1.27601 32.12276,2.64196c1.29979,3.91797 4.99606,40.14998 7.02938,65.26079c1.87135,23.11049 3.94219,36.11162 3.55977,59.29459c-0.14412,8.7367 -9.48323,8.02844 -15.92483,8.04002z" data-paper-data="{&quot;origPos&quot;:null}" stroke-linecap="butt"/><path d="M272.53635,217.15129c0,0 4.67732,-2.95576 4.7673,-3.08859c1.15163,-1.70001 -0.77057,-24.52816 -1.8251,-25.50834c-0.78228,-0.72714 -5.23333,-1.32195 -5.23333,-1.32195l-0.34205,-6.97318c0,0 7.00053,4.7829 7.87544,6.85777c2.78719,6.6099 2.9556,22.9512 1.96369,27.9806c-0.37975,2.53706 -6.81317,8.91254 -6.81317,8.91254z" data-paper-data="{&quot;origPos&quot;:null,&quot;origRot&quot;:0}" stroke-linecap="round"/></g></g></g></svg>