<svg version="1.1" xmlns="http://www.w3.org/2000/svg" xmlns:xlink="http://www.w3.org/1999/xlink" width="36.78065" height="31.75" viewBox="0,0,36.78065,31.75"><defs><linearGradient x1="-111.70214" y1="168.19788" x2="-111.70214" y2="192.11129" gradientUnits="userSpaceOnUse" id="color-1"><stop offset="0" stop-color="#69db0e"/><stop offset="1" stop-color="#397607"/></linearGradient><linearGradient x1="-69.88663" y1="191.38787" x2="-69.88663" y2="167.69423" gradientUnits="userSpaceOnUse" id="color-2"><stop offset="0" stop-color="#69db0e"/><stop offset="1" stop-color="#397607"/></linearGradient><linearGradient x1="-69.88663" y1="169.60109" x2="-69.88663" y2="190.67132" gradientUnits="userSpaceOnUse" id="color-3"><stop offset="0" stop-color="#69db0e"/><stop offset="1" stop-color="#397607"/></linearGradient><linearGradient x1="239.86558" y1="168.43065" x2="239.94192" y2="180.07805" gradientUnits="userSpaceOnUse" id="color-4"><stop offset="0" stop-color="#ffffff" stop-opacity="0.69072"/><stop offset="1" stop-color="#ffffff" stop-opacity="0"/></linearGradient><linearGradient x1="-119.20214" y1="168.19788" x2="-119.20214" y2="192.11129" gradientUnits="userSpaceOnUse" id="color-5"><stop offset="0" stop-color="#69db0e"/><stop offset="1" stop-color="#397607"/></linearGradient><linearGradient x1="-119.20214" y1="168.19788" x2="-119.20214" y2="192.11129" gradientUnits="userSpaceOnUse" id="color-6"><stop offset="0" stop-color="#69db0e"/><stop offset="1" stop-color="#397607"/></linearGradient><linearGradient x1="-77.38663" y1="191.38787" x2="-77.38663" y2="167.69423" gradientUnits="userSpaceOnUse" id="color-7"><stop offset="0" stop-color="#69db0e"/><stop offset="1" stop-color="#397607"/></linearGradient><linearGradient x1="-77.38663" y1="169.60109" x2="-77.38663" y2="190.67132" gradientUnits="userSpaceOnUse" id="color-8"><stop offset="0" stop-color="#69db0e"/><stop offset="1" stop-color="#397607"/></linearGradient><linearGradient x1="232.36558" y1="168.43065" x2="232.44192" y2="180.07805" gradientUnits="userSpaceOnUse" id="color-9"><stop offset="0" stop-color="#ffffff" stop-opacity="0.69072"/><stop offset="1" stop-color="#ffffff" stop-opacity="0"/></linearGradient><linearGradient x1="-77.38663" y1="191.38787" x2="-77.38663" y2="167.69423" gradientUnits="userSpaceOnUse" id="color-10"><stop offset="0" stop-color="#c3ff87"/><stop offset="1" stop-color="#d1ffac"/></linearGradient><linearGradient x1="-77.38663" y1="169.60109" x2="-77.38663" y2="190.67132" gradientUnits="userSpaceOnUse" id="color-11"><stop offset="0" stop-color="#c3ff87"/><stop offset="1" stop-color="#d1ffac"/></linearGradient><linearGradient x1="232.36558" y1="168.43065" x2="232.44192" y2="180.07805" gradientUnits="userSpaceOnUse" id="color-12"><stop offset="0" stop-color="#ffffff" stop-opacity="0.69072"/><stop offset="1" stop-color="#ffffff" stop-opacity="0"/></linearGradient></defs><g transform="translate(-217.90569,-164.62985)"><g data-paper-data="{&quot;isPaintingLayer&quot;:true}" stroke-miterlimit="10" stroke-dasharray="" stroke-dashoffset="0" style="mix-blend-mode: normal"><path d="M217.90569,196.37986v-31.75h36.78065v31.75z" fill="none" fill-rule="nonzero" stroke="none" stroke-width="0" stroke-linecap="butt" stroke-linejoin="miter"/><path d="M253.96866,180c0.03478,5.0136 -2.62001,9.66131 -6.9562,12.1782c-4.3362,2.51689 -9.68867,2.51689 -14.02488,0c-4.3362,-2.51689 -6.99098,-7.1646 -6.9562,-12.1782c-0.03478,-5.0136 2.62001,-9.66131 6.9562,-12.1782c4.3362,-2.51689 9.68867,-2.51689 14.02488,0c4.3362,2.51689 6.99098,7.1646 6.9562,12.1782z" fill="#383838" fill-rule="nonzero" stroke="url(#color-1)" stroke-width="0" stroke-linecap="round" stroke-linejoin="round"/><g><path d="M252.30786,180c0.03064,4.41751 -2.3085,8.51263 -6.12914,10.73028c-3.82065,2.21765 -8.53675,2.21765 -12.3574,0c-3.82065,-2.21765 -6.15979,-6.31277 -6.12915,-10.73028c-0.03064,-4.41751 2.3085,-8.51263 6.12915,-10.73028c3.82065,-2.21765 8.53675,-2.21765 12.3574,0c3.82065,2.21765 6.15978,6.31277 6.12914,10.73028z" fill="url(#color-2)" fill-rule="nonzero" stroke="url(#color-3)" stroke-width="1.3644" stroke-linecap="round" stroke-linejoin="round"/><path d="M248.93603,176.75765c-0.27918,0.13956 -1.3801,-1.15908 -3.34145,-0.8554c-1.75954,0.27247 -6.22477,2.14707 -9.87527,1.11726c-2.26737,-0.63306 -4.65031,-0.96031 -4.65031,-0.96031c-1.38204,-0.13187 0.39819,-7.3489 9.09634,-7.30448c7.969,0.04201 11.63849,7.94011 8.77055,8.00261z" fill="url(#color-4)" fill-rule="evenodd" stroke="none" stroke-width="1" stroke-linecap="butt" stroke-linejoin="miter" opacity="0.9"/></g><path d="M246.46866,180c0.03478,5.0136 -2.62001,9.66131 -6.9562,12.1782c-4.3362,2.51689 -9.68867,2.51689 -14.02488,0c-4.3362,-2.51689 -6.99098,-7.1646 -6.9562,-12.1782c-0.03478,-5.0136 2.62001,-9.66131 6.9562,-12.1782c4.3362,-2.51689 9.68867,-2.51689 14.02488,0c4.3362,2.51689 6.99098,7.1646 6.9562,12.1782z" fill="#383838" fill-rule="nonzero" stroke="url(#color-5)" stroke-width="0" stroke-linecap="round" stroke-linejoin="round"/><path d="M246.46866,180c0.03478,5.0136 -2.62001,9.66131 -6.9562,12.1782c-4.3362,2.51689 -9.68867,2.51689 -14.02488,0c-4.3362,-2.51689 -6.99098,-7.1646 -6.9562,-12.1782c-0.03478,-5.0136 2.62001,-9.66131 6.9562,-12.1782c4.3362,-2.51689 9.68867,-2.51689 14.02488,0c4.3362,2.51689 6.99098,7.1646 6.9562,12.1782z" fill="#383838" fill-rule="nonzero" stroke="url(#color-6)" stroke-width="0" stroke-linecap="round" stroke-linejoin="round"/><g><path d="M244.80786,180c0.03064,4.41751 -2.3085,8.51263 -6.12914,10.73028c-3.82065,2.21765 -8.53675,2.21765 -12.3574,0c-3.82065,-2.21765 -6.15979,-6.31277 -6.12915,-10.73028c-0.03064,-4.41751 2.3085,-8.51263 6.12915,-10.73028c3.82065,-2.21765 8.53675,-2.21765 12.3574,0c3.82065,2.21765 6.15978,6.31277 6.12914,10.73028z" fill="url(#color-7)" fill-rule="nonzero" stroke="url(#color-8)" stroke-width="1.3644" stroke-linecap="round" stroke-linejoin="round"/><path d="M241.43603,176.75765c-0.27918,0.13956 -1.3801,-1.15908 -3.34145,-0.8554c-1.75954,0.27247 -6.22477,2.14707 -9.87527,1.11726c-2.26737,-0.63306 -4.65031,-0.96031 -4.65031,-0.96031c-1.38204,-0.13187 0.39819,-7.3489 9.09634,-7.30448c7.969,0.04201 11.63849,7.94011 8.77055,8.00261z" fill="url(#color-9)" fill-rule="evenodd" stroke="none" stroke-width="1" stroke-linecap="butt" stroke-linejoin="miter" opacity="0.9"/></g><path d="M244.80786,180c0.03064,4.41751 -2.3085,8.51263 -6.12914,10.73028c-3.82065,2.21765 -8.53675,2.21765 -12.3574,0c-3.82065,-2.21765 -6.15979,-6.31277 -6.12915,-10.73028c-0.03064,-4.41751 2.3085,-8.51263 6.12915,-10.73028c3.82065,-2.21765 8.53675,-2.21765 12.3574,0c3.82065,2.21765 6.15978,6.31277 6.12914,10.73028z" fill="url(#color-10)" fill-rule="nonzero" stroke="url(#color-11)" stroke-width="1.3644" stroke-linecap="round" stroke-linejoin="round"/><path d="M241.43603,176.75765c-0.27918,0.13956 -1.3801,-1.15908 -3.34145,-0.8554c-1.75954,0.27247 -6.22477,2.14707 -9.87527,1.11726c-2.26737,-0.63306 -4.65031,-0.96031 -4.65031,-0.96031c-1.38204,-0.13187 0.39819,-7.3489 9.09634,-7.30448c7.969,0.04201 11.63849,7.94011 8.77055,8.00261z" fill="url(#color-12)" fill-rule="evenodd" stroke="none" stroke-width="1" stroke-linecap="butt" stroke-linejoin="miter" opacity="0.9"/><path d="M233.5187,179.63257l1.03903,1.03902l-0.92219,0.92212l-1.03895,-1.03902c-2.00392,1.55013 -4.89306,1.41026 -6.73174,-0.42843c-1.99521,-1.99522 -1.99519,-5.23015 0.00003,-7.22539c1.99522,-1.99525 5.23015,-1.99528 7.2254,-0.00003c1.83868,1.83868 1.97852,4.72785 0.42843,6.73174zM232.4349,173.5562c-1.63331,-1.63331 -4.28134,-1.63331 -5.91468,0c-1.63334,1.63331 -1.63334,4.28144 -0.00007,5.91475c1.63334,1.63331 4.28148,1.63331 5.91478,0c1.63331,-1.63331 1.63331,-4.28144 -0.00003,-5.91475z" fill="#8acafb" fill-rule="nonzero" stroke="none" stroke-width="1" stroke-linecap="butt" stroke-linejoin="miter"/><path d="M225.19585,176.52829c0,-2.3635 1.916,-4.27949 4.27949,-4.27949c2.3635,0 4.27949,1.91599 4.27949,4.27949c0,2.3635 -1.91599,4.27949 -4.27949,4.27949c-2.3635,0 -4.27949,-1.91599 -4.27949,-4.27949z" fill="#e0e0e0" fill-rule="nonzero" stroke="none" stroke-width="0" stroke-linecap="butt" stroke-linejoin="miter"/><path d="M235.0132,180.22439l5.61841,5.61842c0.39098,0.39102 -1.43382,2.21582 -1.8248,1.8248l-5.61845,-5.61842c-0.08602,-0.08602 -0.08602,-0.22544 0,-0.31148l1.51335,-1.51332c0.08605,-0.08602 0.22547,-0.08602 0.31148,0z" fill="#fde0d7" fill-rule="nonzero" stroke="none" stroke-width="1" stroke-linecap="butt" stroke-linejoin="miter"/></g></g></svg>