<svg version="1.1" xmlns="http://www.w3.org/2000/svg" xmlns:xlink="http://www.w3.org/1999/xlink" width="57.89205" height="54.77145" viewBox="0,0,57.89205,54.77145"><defs><linearGradient x1="211.05455" y1="180.0002" x2="268.94596" y2="180.0002" gradientUnits="userSpaceOnUse" id="color-1"><stop offset="0.012" stop-color="#66b3e3"/><stop offset="1" stop-color="#1c75bc"/></linearGradient></defs><g transform="translate(-211.05397,-152.56455)"><g data-paper-data="{&quot;isPaintingLayer&quot;:true}" fill-rule="nonzero" stroke="none" stroke-linecap="butt" stroke-linejoin="miter" stroke-miterlimit="10" stroke-dasharray="" stroke-dashoffset="0" style="mix-blend-mode: normal"><g stroke-width="1"><path d="M268.94602,198.731c0,4.752 -2.4518,8.605 -5.47424,8.605h-46.94421c-3.02308,0 -5.4736,-3.854 -5.4736,-8.605v-37.463c0,-4.752 2.45052,-8.604 5.4736,-8.604h46.94357c3.02435,0 5.47424,3.852 5.47424,8.604v37.463z" fill="url(#color-1)"/><path d="M266.7735,161.268v37.462c0,2.862 -1.48037,5.19 -3.30235,5.19h-46.94357c-1.82008,0 -3.30172,-2.328 -3.30172,-5.19v-37.463c0,-2.862 1.48164,-5.19 3.30172,-5.19h46.94357c1.82199,0 3.30235,2.329 3.30235,5.191z" fill="#27aae1"/></g><g><path d="M235.61065,194.53975v-29.07948h29.07948v29.07948z" fill="#ffffff" stroke-width="NaN"/><path d="M215.30986,196.73442v-33.46884h33.46884v33.46884z" fill="#9966ff" stroke-width="NaN"/></g><text transform="translate(216.48463,174.31455) scale(0.5,0.5)" font-size="40" xml:space="preserve" fill="#000000" fill-rule="nonzero" stroke="none" stroke-width="1" stroke-linecap="butt" stroke-linejoin="miter" stroke-miterlimit="10" stroke-dasharray="" stroke-dashoffset="0" font-family="Sans Serif" font-weight="normal" text-anchor="start" style="mix-blend-mode: normal"><tspan x="0" dy="0">todo</tspan></text></g></g></svg>