<svg version="1.1" xmlns="http://www.w3.org/2000/svg" xmlns:xlink="http://www.w3.org/1999/xlink" width="27" height="32" viewBox="0,0,27,32"><g transform="translate(-226.5,-164)"><g data-paper-data="{&quot;isPaintingLayer&quot;:true}" fill-rule="nonzero" stroke="none" stroke-linecap="butt" stroke-linejoin="miter" stroke-miterlimit="10" stroke-dasharray="" stroke-dashoffset="0" style="mix-blend-mode: normal"><path d="M226.5,196v-32h27v32z" fill="none" stroke-width="0"/><path d="M240.28574,177.78572l2.28571,-3.71429l-0.14286,-0.14286c0,0 -0.57143,0.28571 -1,0.42857c-1.85715,0 -4.14286,0 -6.14286,-0.28571c-0.28571,0.85715 -0.42857,1.57142 -0.71429,2.28571l-0.85714,-0.14285c0.14285,-0.71429 0.28571,-2.14286 0.28571,-3.57143c0,-1 -0.14286,-2.42857 -0.42857,-3.42857l0.28571,-0.28571c3.57143,0.71428 8,1 11.71429,1c0.28571,-0.28572 0.42857,-0.57143 0.71429,-1l0.85714,0.42857c-1.42857,2.42857 -2.57143,4.71429 -3.71428,7.57143c-2,4.85715 -2.85714,8.14286 -2.85714,12.28572c0.71429,0.14285 2.42857,0.57143 3,0.85714l-0.14286,0.85714c-1.71429,-0.28572 -3,-0.28572 -4.85714,-0.28572c-2.28571,0 -4.28571,0.14286 -5.57143,0.42857l-0.14286,-0.85714c0.71429,-0.14286 1.28571,-0.42858 1.85714,-0.85715c0.42857,-3 1.57143,-5.42857 5.57143,-11.57142z" fill="#ff0000" stroke-width="1"/></g></g></svg>