<svg version="1.1" xmlns="http://www.w3.org/2000/svg" xmlns:xlink="http://www.w3.org/1999/xlink" width="26.625" height="33.125" viewBox="0,0,26.625,33.125"><g transform="translate(-226.6875,-163.43753)"><g data-paper-data="{&quot;isPaintingLayer&quot;:true}" fill-rule="nonzero" stroke-linecap="butt" stroke-linejoin="miter" stroke-miterlimit="10" stroke-dasharray="" stroke-dashoffset="0" style="mix-blend-mode: normal"><path d="M226.6875,196.56253v-33.125h26.625v33.125z" fill="none" stroke="#000000" stroke-width="0"/><path d="M227.58929,193.31772c0,-2.25074 0,-16.31081 0,-26.75056c0,-0.70529 1.15456,-1.80723 1.89353,-1.80723c8.23134,0 18.94208,0 21.09178,0c0.71657,0 1.83611,0.9451 1.83611,1.55001c0,10.48994 0,24.47785 0,26.87916c0,0.80044 -1.27638,2.05102 -2.09333,2.05102c-2.45085,0 -12.86044,0 -21.09178,0c-0.63859,0 -1.63631,-1.17217 -1.63631,-1.92242z" data-paper-data="{&quot;origPos&quot;:null}" fill="#ffffff" stroke="#000000" stroke-width="1.5"/><path d="M237.54358,177.28446c0.71731,-0.35866 1.28092,-0.51237 2.15194,-1.58834h2.20317v6.9682h1.12721v1.63957h-4.91872v-1.63957h1.22967v-4.56007l-1.22967,0.5636zM243.64075,177.3357c0.71731,-0.35866 1.28093,-0.5636 2.15195,-1.63958h2.20317v6.9682h1.12721v1.63957h-4.91873v-1.63957h1.22969v-4.56007l-1.22969,0.5636z" fill="#000000" stroke="none" stroke-width="1"/><path d="M236.07846,180.82538h-2.34301v2.34301h-1.65076v-2.34301h-2.34301v-1.65075h2.34301v-2.34301h1.65076v2.34301h2.34301z" fill="#000000" stroke="none" stroke-width="1"/></g></g></svg>