<svg version="1.1" xmlns="http://www.w3.org/2000/svg" xmlns:xlink="http://www.w3.org/1999/xlink" width="26.625" height="33.125" viewBox="0,0,26.625,33.125"><g transform="translate(-226.6875,-163.43753)"><g data-paper-data="{&quot;isPaintingLayer&quot;:true}" fill-rule="nonzero" stroke-linecap="butt" stroke-linejoin="miter" stroke-miterlimit="10" stroke-dasharray="" stroke-dashoffset="0" style="mix-blend-mode: normal"><path d="M226.6875,196.56253v-33.125h26.625v33.125z" fill="none" stroke="#000000" stroke-width="0"/><path d="M227.58929,193.31772c0,-2.25074 0,-16.31081 0,-26.75056c0,-0.70529 1.15456,-1.80723 1.89353,-1.80723c8.23134,0 18.94208,0 21.09178,0c0.71657,0 1.83611,0.9451 1.83611,1.55001c0,10.48994 0,24.47785 0,26.87916c0,0.80044 -1.27638,2.05102 -2.09333,2.05102c-2.45085,0 -12.86044,0 -21.09178,0c-0.63859,0 -1.63631,-1.17217 -1.63631,-1.92242z" data-paper-data="{&quot;origPos&quot;:null}" fill="#ffffff" stroke="#000000" stroke-width="1.5"/><path d="M242.83975,179.61573c-0.61484,-0.35866 -0.92226,-1.02473 -0.92226,-1.63957c0,-1.38339 1.07597,-2.40813 2.92049,-2.40813c1.89576,0 2.9205,1.02474 2.9205,2.40813c0,0.81979 -0.46114,1.43463 -1.02474,1.69081c0.81979,0.40989 1.28092,1.28091 1.28092,2.1007c0,1.5371 -1.28092,2.66431 -3.27915,2.66431c-1.99823,0 -3.22791,-1.1272 -3.22791,-2.66431c0,-0.76855 0.51236,-1.74206 1.33216,-2.15195zM244.78674,177.10514c-0.46113,0 -0.87103,0.35867 -0.87103,0.76855c0,0.66609 0.81979,0.81979 1.22969,0.81979c0.30741,-0.15371 0.5636,-0.46113 0.5636,-0.81979c0,-0.46113 -0.40991,-0.76855 -0.92227,-0.76855zM244.78674,182.68993c0.56361,0 1.07597,-0.30741 1.12721,-0.97349c0,-0.87103 -1.02473,-1.07598 -1.58834,-1.12721c-0.35866,0.20495 -0.71732,0.66609 -0.71732,1.12721c0,0.5636 0.56361,0.97349 1.17845,0.97349z" fill="#000000" stroke="none" stroke-width="1"/><path d="M238.26046,180.81347h-2.34301v2.34301h-1.65076v-2.34301h-2.34301v-1.65075h2.34301v-2.34301h1.65076v2.34301h2.34301z" fill="#000000" stroke="none" stroke-width="1"/></g></g></svg>