<svg version="1.1" xmlns="http://www.w3.org/2000/svg" xmlns:xlink="http://www.w3.org/1999/xlink" width="16.85383" height="19.35381" viewBox="0,0,16.85383,19.35381"><defs><linearGradient x1="240" y1="-21565.01309" x2="240" y2="189.6769" gradientUnits="userSpaceOnUse" id="color-1"><stop offset="0" stop-color="#000000"/><stop offset="1" stop-color="#000000" stop-opacity="0"/></linearGradient></defs><g transform="translate(-231.57308,-170.3231)"><g data-paper-data="{&quot;isPaintingLayer&quot;:true}" fill-rule="nonzero" stroke="#000000" stroke-linecap="butt" stroke-linejoin="miter" stroke-miterlimit="10" stroke-dasharray="" stroke-dashoffset="0" style="mix-blend-mode: normal"><path d="M236.46195,180c0,-1.95401 1.58404,-3.53805 3.53805,-3.53805c1.95401,0 3.53805,1.58404 3.53805,3.53805c0,1.95401 -1.58404,3.53805 -3.53805,3.53805c-1.95401,0 -3.53805,-1.58404 -3.53805,-3.53805z" fill="#ffffff" stroke-width="0.5"/><path d="M238.22709,180c0,-0.97915 0.79376,-1.77291 1.77291,-1.77291c0.97915,0 1.77291,0.79376 1.77291,1.77291c0,0.97915 -0.79376,1.77291 -1.77291,1.77291c-0.97915,0 -1.77291,-0.79376 -1.77291,-1.77291z" fill="#ff0000" stroke-width="0.5"/><path d="M231.57308,187.49746c0,-4.10005 0,-12.75255 0,-15.0171c0,-1.06202 1.22403,-2.15726 2.3352,-2.15726c1.99679,0 8.65645,0 12.22081,0c1.38136,0 2.29783,1.03541 2.29783,2.0537c0,2.2174 0,10.84584 0,15.0171c0,1.38841 -1.01704,2.28301 -1.98713,2.28301c-1.92075,0 -8.85083,0 -12.53151,0c-1.404,0 -2.3352,-0.85063 -2.3352,-2.17945z" fill="url(#color-1)" stroke-width="0"/></g></g></svg>