<svg version="1.1" xmlns="http://www.w3.org/2000/svg" xmlns:xlink="http://www.w3.org/1999/xlink" width="51.80866" height="58.58388" viewBox="0,0,51.80866,58.58388"><g transform="translate(-214.09567,-150.70806)"><g data-paper-data="{&quot;isPaintingLayer&quot;:true}" fill-rule="nonzero" stroke-linecap="butt" stroke-linejoin="miter" stroke-miterlimit="10" stroke-dasharray="" stroke-dashoffset="0" style="mix-blend-mode: normal"><path d="M265.90433,179.99999c0,16.17755 -11.5977,29.29195 -25.90432,29.29195c-14.30662,0 -25.90434,-13.1144 -25.90434,-29.29195c0,-16.17756 11.59772,-29.29193 25.90434,-29.29193c14.30662,0 25.90432,13.11438 25.90432,29.29193" data-paper-data="{&quot;index&quot;:null}" fill="#f6d738" stroke="none" stroke-width="0.03528"/><path d="M261.98465,179.99999c0,13.72957 -9.84292,24.85968 -21.98467,24.85968c-12.14174,0 -21.98468,-11.13011 -21.98468,-24.85968c0,-13.72955 9.84293,-24.85968 21.98468,-24.85968c12.14175,0 21.98467,11.13014 21.98467,24.85968" data-paper-data="{&quot;index&quot;:null}" fill="#f3cc30" stroke="none" stroke-width="0.03528"/><path d="M251.23343,158.78219c6.28867,4.37441 10.4825,12.22716 10.4825,21.18848c0,13.72967 -9.84294,24.85968 -21.98468,24.85968c-7.78151,0 -14.6187,-4.57159 -18.52587,-11.46905c3.34625,2.32757 7.28529,3.67112 11.50211,3.67112c12.14175,0 21.98467,-11.13 21.98467,-24.85968c0,-4.93048 -1.26935,-9.52564 -3.45869,-13.39054" data-paper-data="{&quot;index&quot;:null}" fill="#edbd31" stroke="none" stroke-width="0.03528"/><path d="M258.13352,182.27462c0,-12.11967 -8.68868,-21.9446 -19.40671,-21.9446c-6.26491,0 -11.83537,3.35764 -15.38356,8.56745c3.35107,-6.57843 9.63208,-11.00721 16.8281,-11.00721c10.71803,0 19.40671,9.82493 19.40671,21.9446c0,5.03562 -1.50107,9.67398 -4.02329,13.37723c1.64033,-3.2199 2.57875,-6.95468 2.57875,-10.93747" data-paper-data="{&quot;index&quot;:null}" fill="#f7db5e" stroke="none" stroke-width="0.03528"/><path d="M237.8955,188.64464c0.28617,0.09369 0.57919,0.15825 0.87555,0.1929c2.72854,0.32043 5.17019,-1.92101 5.45355,-5.00639c0.18236,-1.98561 -0.72015,-3.65373 -1.86294,-4.98971c-0.91857,-1.07385 -1.60343,-1.90422 -2.11366,-2.54385l-0.57018,2.9926c1.81227,0.74472 3.22871,2.81974 2.97369,4.87921c-0.27129,2.19085 -2.6056,3.55907 -3.31355,3.32515c0.18637,-0.10343 0.36331,-0.22728 0.5283,-0.36976c1.26863,-1.09406 1.58338,-3.03909 0.70303,-4.34438c-0.34777,-0.51563 -0.83003,-0.85429 -1.36444,-1.00788zM237.6543,189.91062l-0.64718,3.39676c-0.13946,0.74536 -0.15933,0.96482 -0.15933,1.18958c0,1.82228 1.30641,3.29959 2.91795,3.29959c0.6926,0.00117 1.3628,-0.27739 1.88985,-0.7855c-0.04207,0.003 -0.0845,0.00462 -0.12726,0.00462c-0.84255,-0.001 -1.58957,-0.61277 -1.85318,-1.51766c-0.26363,-0.90489 0.01559,-1.89894 0.69265,-2.46598c0.67705,-0.56704 1.59936,-0.57927 2.28799,-0.03034c0.68864,0.54893 0.98839,1.5353 0.74362,2.44693c-0.38159,1.87055 -1.86361,3.26506 -3.63368,3.26506c-2.05949,0 -3.70975,-1.88794 -3.70975,-4.2167c0,-0.25631 -0.03872,-0.51696 0,-0.76062l0.80745,-4.23785c-1.6796,-0.92816 -2.98571,-3.10515 -2.98571,-5.3291c0,-2.93959 1.98436,-5.1673 4.39453,-5.1673c0.19469,0.00017 0.3891,0.01677 0.58162,0.04964l0.69582,-3.65197c-0.62491,-0.8295 -0.75506,-1.0957 -0.77539,-1.14215c-1.32881,-1.99424 -2.35748,-4.17988 -2.56956,-6.8811c-0.2521,-3.21122 0.74531,-5.93511 2.22778,-6.08386c1.48248,-0.14888 2.88865,2.33366 3.14075,5.54493c0.10367,1.32057 -0.02103,2.53482 -0.20589,3.585l-0.43685,2.29274c3.43107,3.58309 5.19175,5.77733 5.19175,9.89166c0,4.19192 -3.25133,7.85721 -7.88626,7.42969c-0.19753,-0.0168 -0.39271,-0.05909 -0.58174,-0.12606zM236.58052,187.9641c0.1649,0.12116 0.33605,0.23109 0.51253,0.32918l1.25941,-6.60995c-0.57675,0.03909 -1.16381,0.27444 -1.67424,0.71463c-1.26863,1.09406 -1.4398,2.62133 -0.77496,4.50994c0.1559,0.44288 0.39616,0.78745 0.67726,1.0562zM238.03555,164.09324c-0.1239,-0.03073 -0.24863,-0.04908 -0.37376,0.17214c-0.67554,1.35453 -0.23794,3.39357 0.83855,5.6281c0.41746,0.86654 1.08584,1.44786 1.67974,1.96848c0.0269,-0.11952 -0.03551,0.11833 0,0c1.08185,-3.60583 -0.21679,-7.2901 -2.14454,-7.76872z" data-paper-data="{&quot;index&quot;:null}" fill="#b4832d" stroke="#b6842e" stroke-width="0"/></g></g></svg>