<svg version="1.1" xmlns="http://www.w3.org/2000/svg" xmlns:xlink="http://www.w3.org/1999/xlink" width="80.82952" height="15.58696" viewBox="0,0,80.82952,15.58696"><g transform="translate(-199.58524,-172.20652)"><g data-paper-data="{&quot;isPaintingLayer&quot;:true}" fill-rule="nonzero" stroke="none" stroke-linecap="butt" stroke-linejoin="miter" stroke-miterlimit="10" stroke-dasharray="" stroke-dashoffset="0" style="mix-blend-mode: normal"><path d="M220.05323,176.31387c0.19818,0.31708 0.29727,0.63417 0.29727,0.95126c0,0.51527 -0.17835,1.03053 -0.53508,1.5458c-0.35673,0.47563 -0.83236,0.81254 -1.4269,1.01072c-0.59454,0.15855 -1.26835,0.23781 -2.02144,0.23781c-0.15855,0 -0.31708,0 -0.47563,0c-0.15855,0 -0.47563,-0.01981 -0.95126,-0.05945c-0.15855,0.5549 -0.33691,1.16926 -0.53509,1.84307c-0.19818,0.63417 -0.39636,1.24853 -0.59454,1.84307c-0.07927,0.19818 -0.01982,0.33691 0.17836,0.41618c0.23782,0.07927 0.51527,0.11891 0.83236,0.11891c0.19818,0 0.35673,-0.01982 0.47564,-0.05946c0,0.07927 0,0.13873 0,0.17837h-4.16178c0,-0.03964 0,-0.07927 0,-0.11891c0,-0.03964 0,-0.05946 0,-0.05946c0.15855,0 0.27745,0 0.35672,0c0.27746,0 0.51526,-0.01981 0.71345,-0.05945c0.23782,-0.07927 0.37654,-0.23782 0.41618,-0.47563l2.25924,-8.08572c0,-0.11891 -0.07927,-0.17836 -0.23781,-0.17836c-0.11891,-0.03964 -0.31708,-0.05945 -0.59454,-0.05945c-0.07927,0 -0.15855,0 -0.23782,0c-0.03964,0 -0.09909,-0.01982 -0.17836,-0.05946h-0.17836c0,0 0,-0.01981 0,-0.05945c0,-0.03964 0,-0.07927 0,-0.11891c0.31708,0 0.91163,0 1.78362,0c0.87199,0 1.3278,0 1.36744,0c0.31708,0 0.59454,0 0.83235,0c0.23782,0 0.61436,0.03964 1.12963,0.11891c0.51527,0.03964 1.01072,0.41618 1.48635,1.12963zM218.62633,175.65987c-0.39636,-0.23782 -0.83236,-0.35672 -1.30799,-0.35672c-0.15855,0 -0.3369,0.01981 -0.53508,0.05945c-0.15855,0.03964 -0.35673,0.1189 -0.59454,0.23781c-0.35673,1.34762 -0.73326,2.71507 -1.12962,4.10232c0.43599,0.07927 0.81254,0.11891 1.12962,0.11891c0.27746,0 0.53509,-0.03964 0.7729,-0.11891c0.19818,-0.03964 0.49545,-0.17836 0.89181,-0.41618c0.35673,-0.19818 0.65399,-0.51527 0.89181,-0.95127c0.27746,-0.39636 0.41618,-0.85217 0.41618,-1.36744c0,-0.27746 -0.03964,-0.51526 -0.11891,-0.71345c-0.07927,-0.19818 -0.13872,-0.33691 -0.17836,-0.41618c-0.03964,-0.07927 -0.11891,-0.13872 -0.23782,-0.17836zM224.69063,179.22711c0.27746,0.47563 0.41618,0.97108 0.41618,1.48635c0,0.31708 -0.05946,0.65399 -0.17837,1.01071c-0.15855,0.35673 -0.37653,0.75309 -0.65399,1.18908c-0.31708,0.43599 -0.67381,0.79271 -1.07017,1.07017c-0.39636,0.27746 -0.87199,0.41618 -1.4269,0.41618c-0.67381,-0.03964 -1.14944,-0.31709 -1.4269,-0.83236c-0.23782,-0.51527 -0.35672,-1.03053 -0.35672,-1.5458c0,-0.31708 0.01981,-0.61435 0.05945,-0.8918c0.07927,-0.23782 0.25763,-0.59454 0.53509,-1.07017c0.27746,-0.43599 0.63417,-0.83235 1.07017,-1.18908c0.43599,-0.39636 0.93144,-0.59454 1.48635,-0.59454c0.19818,0 0.45582,0.03964 0.7729,0.11891c0.31708,0.07927 0.57472,0.35673 0.7729,0.83236zM223.20428,178.51366c-0.63417,0.19818 -1.12963,0.73326 -1.48635,1.60525c-0.23782,0.67381 -0.41618,1.14944 -0.53509,1.4269c-0.11891,0.31708 -0.218,0.59454 -0.29727,0.83236c-0.03964,0.23782 -0.05945,0.45581 -0.05945,0.65399c0,0.23782 0.03964,0.45582 0.11891,0.654c0.07927,0.15855 0.19818,0.29727 0.35673,0.41618c0.15855,0.07927 0.31708,0.11891 0.47563,0.11891c0.19818,0 0.37654,-0.03964 0.53508,-0.11891c0.15855,-0.07927 0.39636,-0.33691 0.71345,-0.7729c0.27746,-0.47563 0.5549,-1.01072 0.83236,-1.60525c0.23782,-0.59454 0.35672,-1.16926 0.35672,-1.72416c0,-0.31708 -0.01981,-0.59454 -0.05945,-0.83236c-0.07927,-0.23782 -0.19817,-0.41618 -0.35672,-0.53509c-0.11891,-0.11891 -0.25763,-0.17836 -0.41618,-0.17836c-0.03964,0 -0.09909,0.01981 -0.17836,0.05945zM231.1711,178.69202c0.15855,0.23782 0.27745,0.47563 0.35672,0.71345c0.07927,0.27746 0.11891,0.57473 0.11891,0.89181c0,0.23782 -0.01981,0.49544 -0.05945,0.7729c-0.03964,0.27746 -0.15854,0.654 -0.35672,1.12963c-0.19818,0.43599 -0.49545,0.87199 -0.89181,1.30799c-0.35673,0.43599 -0.71344,0.69363 -1.07017,0.7729c-0.31708,0.07927 -0.51527,0.11891 -0.59454,0.11891c-0.19818,0 -0.37654,-0.05945 -0.53509,-0.17836c-0.11891,-0.11891 -0.25763,-0.25763 -0.41617,-0.41618c-0.15855,-0.19818 -0.23782,-0.37654 -0.23782,-0.53509l-0.71345,2.55652c-0.03964,0.11891 0,0.19817 0.11891,0.23781c0.11891,0.03964 0.27745,0.05946 0.47563,0.05946c0.07927,0 0.17836,0 0.29727,0c0.15855,0 0.25763,0 0.29727,0v0.17836h-3.38887v-0.11891c0.19818,0 0.39635,-0.01981 0.59454,-0.05945c0.23782,-0.03964 0.39636,-0.15855 0.47563,-0.35673l1.96198,-6.89665c0.03964,-0.19818 -0.01982,-0.29727 -0.17836,-0.29727c-0.15855,0 -0.27745,0.03964 -0.35672,0.11891c-0.35673,0.27746 -0.63417,0.59453 -0.83236,0.95126c-0.23782,0.31708 -0.49544,0.7729 -0.7729,1.36744c0.15855,-0.5549 0.39637,-1.07017 0.71345,-1.5458c0.31708,-0.51527 0.59453,-0.83236 0.83235,-0.95127c0.23782,-0.11891 0.41618,-0.17836 0.53509,-0.17836c0.23782,0 0.39637,0.11891 0.47564,0.35673c0.07927,0.19818 0.13872,0.39636 0.17836,0.59454c0.03964,0.19818 0.07926,0.35672 0.1189,0.47563c0.35673,-0.59454 0.61436,-0.9909 0.77291,-1.18908c0.19818,-0.19818 0.47562,-0.29727 0.83235,-0.29727c0.27746,0 0.53509,0.03964 0.77291,0.11891c0.19818,0.03964 0.35672,0.13872 0.47563,0.29727zM230.33875,178.51366c-0.11891,-0.03964 -0.23781,-0.05945 -0.35672,-0.05945c-0.39636,0 -0.7729,0.27746 -1.12963,0.83236c-0.31708,0.59454 -0.5549,1.12962 -0.71345,1.60525c-0.11891,0.47563 -0.218,0.83235 -0.29727,1.07017c-0.03964,0.27746 -0.05945,0.51527 -0.05945,0.71345c0,0.27746 0.03964,0.53508 0.11891,0.7729c0.07927,0.19818 0.17836,0.37654 0.29727,0.53509c0.11891,0.15855 0.25763,0.23782 0.41617,0.23782c0.15855,0 0.29727,-0.03964 0.41618,-0.11891c0.15855,-0.07927 0.35673,-0.35672 0.59454,-0.83235c0.27746,-0.51527 0.51526,-1.08999 0.71344,-1.72416c0.23782,-0.63417 0.35673,-1.28817 0.35673,-1.96198c0,-0.23782 0,-0.43599 0,-0.59454c0,-0.15855 -0.03964,-0.25763 -0.11891,-0.29727c-0.07927,-0.07927 -0.15855,-0.13873 -0.23782,-0.17837zM239.97028,173.6979h0.29727c-0.19818,0.51527 -0.65399,1.82326 -1.36744,3.92396c-0.75308,2.1007 -1.28817,3.58705 -1.60525,4.45904c-0.31708,0.83236 -0.71345,1.88271 -1.18908,3.15105c-0.03964,0.03964 -0.09909,0.05946 -0.17836,0.05946c-0.03964,0 -0.09909,0 -0.17836,0c-0.11891,0 -0.218,0 -0.29727,0l4.16177,-11.53405c0.07927,-0.03964 0.19818,-0.05945 0.35672,-0.05945zM247.75873,184.34014h-3.92396v-0.11891c0.03964,0 0.09909,0 0.17836,0c0.27746,0 0.51527,-0.05945 0.71345,-0.17836c0.15855,-0.15855 0.25763,-0.35673 0.29727,-0.59454l2.14034,-7.66955c0.03964,-0.23782 -0.05945,-0.37654 -0.29727,-0.41618c-0.19818,-0.07927 -0.47563,-0.11891 -0.83236,-0.11891h-0.23782c0,0 0,-0.01981 0,-0.05945c0.03964,-0.03964 0.03964,-0.07927 0,-0.11891c0.11891,0.03964 0.23781,0.05945 0.35672,0.05945c0.15855,0 0.31709,0 0.47564,0c0.15855,0 0.47563,-0.01981 0.95126,-0.05945c0.47563,0 0.83236,0 1.07017,0c0.39636,0 0.73326,0 1.01072,0c0.27746,0.03964 0.63417,0.07927 1.07017,0.11891c0.39636,0.03964 0.83236,0.23781 1.30799,0.59454c0.43599,0.35673 0.654,0.81254 0.654,1.36744c0,0.43599 -0.11891,0.81254 -0.35673,1.12962c-0.27746,0.27746 -0.57473,0.51527 -0.89181,0.71345c-0.31708,0.19818 -0.67381,0.33691 -1.07017,0.41618c-0.35673,0.07927 -0.57472,0.11891 -0.65399,0.11891c0.15855,0.11891 0.37653,0.25763 0.65399,0.41617c0.27746,0.15855 0.436,0.33691 0.47564,0.53509c0.03964,0.19818 0.07927,0.35672 0.11891,0.47563c0,0.11891 0,0.218 0,0.29727c0,0.35673 -0.07927,0.79272 -0.23782,1.30799c-0.15855,0.47563 -0.23782,0.81253 -0.23782,1.01072c0,0.11891 0.01982,0.218 0.05946,0.29727c0.03964,0.11891 0.1189,0.17837 0.23781,0.17837c0.11891,0 0.29727,-0.05946 0.53509,-0.17837c0.23782,-0.07927 0.45581,-0.31709 0.65399,-0.71345c0.19818,-0.35673 0.41618,-0.85217 0.654,-1.48634c0,0.03964 0.01982,0.05945 0.05946,0.05945c-0.23782,0.63417 -0.49545,1.18908 -0.7729,1.66471c-0.27746,0.47563 -0.57473,0.75308 -0.89181,0.83236c-0.27746,0.11891 -0.47563,0.17836 -0.59454,0.17836c-0.35673,0 -0.61435,-0.09909 -0.7729,-0.29727c-0.11891,-0.19818 -0.218,-0.37654 -0.29727,-0.53509c-0.03964,-0.19818 -0.05946,-0.39635 -0.05946,-0.59454c0,-0.27746 0.09909,-0.69364 0.29727,-1.24854c0.19818,-0.51527 0.29727,-0.87199 0.29727,-1.07017c0,-0.19818 -0.07927,-0.39635 -0.23781,-0.59454c-0.15855,-0.15855 -0.35673,-0.27745 -0.59454,-0.35672c-0.19818,-0.07927 -0.45582,-0.11891 -0.7729,-0.11891c-0.19818,0 -0.35672,0.01981 -0.47563,0.05945c-0.15855,0 -0.29727,0 -0.41618,0l-0.95126,3.7456c-0.03964,0.11891 -0.05946,0.19817 -0.05946,0.23781c0,0.23782 0.09909,0.39636 0.29727,0.47563c0.19818,0.07927 0.43599,0.11891 0.71345,0.11891c0.15855,0 0.27745,0 0.35672,0zM248.65054,175.2437l-1.12963,4.04287c0.15855,0 0.31708,0 0.47563,0c0.15855,0 0.33691,0 0.53509,0c0.63417,0 1.10981,-0.05945 1.4269,-0.17836c0.31708,-0.11891 0.57472,-0.29727 0.7729,-0.53509c0.23782,-0.23782 0.41618,-0.47563 0.53509,-0.71345c0.11891,-0.27746 0.17836,-0.57473 0.17836,-0.89181c0,-0.19818 -0.05945,-0.45582 -0.17836,-0.7729c-0.11891,-0.35673 -0.39636,-0.61436 -0.83236,-0.7729c-0.39636,-0.15855 -0.83236,-0.23781 -1.30799,-0.23781c-0.11891,0 -0.218,0.01981 -0.29727,0.05945c-0.07927,0 -0.13872,0 -0.17836,0zM257.33081,179.16765c0.27745,0.51527 0.41618,1.01072 0.41618,1.48635c0,0.35673 -0.07927,0.71344 -0.23782,1.07017c-0.11891,0.35673 -0.31709,0.75309 -0.59454,1.18908c-0.31709,0.43599 -0.67381,0.79271 -1.07017,1.07017c-0.39636,0.27746 -0.87199,0.41618 -1.4269,0.41618c-0.67381,-0.03964 -1.14943,-0.31709 -1.42689,-0.83236c-0.23782,-0.51527 -0.35673,-1.03053 -0.35673,-1.5458c0,-0.31708 0.01982,-0.61435 0.05946,-0.8918c0.07927,-0.23782 0.25763,-0.59454 0.53508,-1.07017c0.27746,-0.43599 0.63418,-0.85218 1.07017,-1.24854c0.43599,-0.35673 0.93144,-0.53508 1.48635,-0.53508c0.19818,0 0.45581,0.03964 0.7729,0.11891c0.31709,0.07927 0.57472,0.33691 0.7729,0.7729zM255.84446,178.51366c-0.63417,0.19818 -1.14944,0.73326 -1.5458,1.60525c-0.23782,0.67381 -0.39637,1.14944 -0.47564,1.4269c-0.11891,0.27746 -0.218,0.53509 -0.29727,0.7729c-0.03964,0.23782 -0.05945,0.47563 -0.05945,0.71344c0,0.23782 0.03963,0.45582 0.1189,0.654c0.07927,0.15855 0.19818,0.29727 0.35673,0.41618c0.15855,0.07927 0.31708,0.11891 0.47563,0.11891c0.15855,0 0.33691,-0.03964 0.53509,-0.11891c0.15855,-0.07927 0.39637,-0.33691 0.71345,-0.7729c0.27746,-0.47563 0.53509,-1.01072 0.7729,-1.60525c0.27745,-0.59454 0.41617,-1.18908 0.41617,-1.78361c0,-0.27746 -0.03964,-0.53508 -0.11891,-0.7729c-0.03964,-0.23782 -0.13872,-0.41618 -0.29726,-0.53509c-0.11891,-0.11891 -0.25763,-0.17836 -0.41618,-0.17836c-0.03964,0 -0.09909,0.01981 -0.17836,0.05945zM262.20603,178.63257c0.23782,0.23782 0.35672,0.49545 0.35672,0.7729c0,0.11891 -0.05945,0.31708 -0.17836,0.59454c-0.07927,0.27746 -0.29727,0.41617 -0.65399,0.41617c-0.03964,0 -0.1189,-0.01981 -0.23782,-0.05945c-0.07927,-0.03964 -0.13872,-0.09909 -0.17836,-0.17836c-0.03964,-0.07927 -0.05946,-0.17836 -0.05946,-0.29727c0,-0.15855 0.01981,-0.27745 0.05946,-0.35672c0.03964,-0.03964 0.15855,-0.13872 0.35672,-0.29727c0.19818,-0.11891 0.29727,-0.23782 0.29727,-0.35673c0,0 0,-0.03964 0,-0.11891c-0.15855,-0.19818 -0.35672,-0.29727 -0.59454,-0.29727c-0.23782,0 -0.51527,0.19818 -0.83236,0.59454c-0.35672,0.35673 -0.67381,0.97108 -0.95126,1.84307c-0.27745,0.91162 -0.41618,1.84307 -0.41618,2.79433c0,0.15855 0.07927,0.27746 0.23782,0.35673c0.19818,0.07927 0.39636,0.1189 0.59454,0.1189c0.11891,0 0.29727,-0.03963 0.53508,-0.1189c0.27745,-0.07927 0.57473,-0.33691 0.89181,-0.7729c0.31709,-0.39636 0.61435,-0.87199 0.8918,-1.4269h0.05946c-0.15855,0.59454 -0.43599,1.12963 -0.83236,1.60525c-0.35672,0.47563 -0.71345,0.75308 -1.07017,0.83236c-0.35672,0.07927 -0.57472,0.11891 -0.65399,0.11891c-0.47563,0 -0.81254,-0.13872 -1.01072,-0.41618c-0.19818,-0.27746 -0.33691,-0.5549 -0.41618,-0.83236c-0.07927,-0.31708 -0.11891,-0.63417 -0.11891,-0.95126c0,-0.27746 0.01981,-0.5549 0.05945,-0.83236c0.03964,-0.23782 0.15855,-0.61436 0.35672,-1.12963c0.19818,-0.47563 0.51527,-0.91163 0.95127,-1.30799c0.43599,-0.39636 0.95126,-0.59454 1.5458,-0.59454c0.23782,0 0.41617,0.01982 0.53508,0.05946c0.15855,0.03964 0.31709,0.1189 0.47563,0.23781zM266.24889,175.60042l-1.36744,5.11304c0.11891,0.07927 0.25763,0.11891 0.41618,0.11891c0.11891,0 0.218,-0.01982 0.29727,-0.05946c0.07927,0 0.25763,-0.07927 0.53508,-0.23782c0.27745,-0.15855 0.5549,-0.57472 0.83236,-1.24853c0.27745,-0.67381 0.57473,-1.01072 0.89181,-1.01072c0.11891,0 0.29727,0.03964 0.53508,0.11891c0.27745,0.11891 0.41618,0.35672 0.41618,0.71345c0,0.15855 -0.03964,0.29727 -0.11891,0.41618c-0.03964,0.15855 -0.1189,0.27745 -0.23781,0.35672c-0.07927,0.07927 -0.17836,0.11891 -0.29727,0.11891c-0.07927,0 -0.15855,-0.01982 -0.23782,-0.05946c-0.07927,-0.03964 -0.13872,-0.09909 -0.17836,-0.17836c0,-0.07927 0,-0.17836 0,-0.29727c0,-0.07927 0,-0.15854 0,-0.23781c0.03964,-0.07927 0.13873,-0.17836 0.29727,-0.29727c0.11891,-0.15855 0.15855,-0.27745 0.1189,-0.35672c-0.07927,-0.11891 -0.19817,-0.17836 -0.35672,-0.17836c-0.11891,0 -0.218,0.05945 -0.29727,0.17836c-0.07927,0.11891 -0.21799,0.436 -0.41617,0.95127c-0.23782,0.5549 -0.63418,1.01071 -1.18908,1.36744c0.27745,0.11891 0.49545,0.23781 0.654,0.35672c0.15855,0.11891 0.25763,0.25763 0.29727,0.41618c0.03964,0.15855 0.05945,0.25763 0.05945,0.29727c0,0.11891 -0.05945,0.35672 -0.17836,0.71345c-0.07927,0.35673 -0.11891,0.61435 -0.11891,0.7729c0,0.19818 0.01981,0.33691 0.05946,0.41618c0.07927,0.07927 0.15854,0.11891 0.23781,0.11891c0.07927,0 0.13873,0 0.17837,0c0.07927,-0.03964 0.21799,-0.11891 0.41617,-0.23782c0.23782,-0.15855 0.41618,-0.37654 0.53509,-0.65399c0.15855,-0.23782 0.39636,-0.71345 0.71344,-1.42689l0.11891,0.05945c-0.23782,0.67381 -0.49545,1.22872 -0.7729,1.66471c-0.31709,0.43599 -0.65399,0.71345 -1.01071,0.83236c-0.31709,0.07927 -0.49545,0.11891 -0.53509,0.11891c-0.19818,0 -0.37654,-0.07927 -0.53508,-0.23782c-0.11891,-0.11891 -0.218,-0.25763 -0.29727,-0.41618c-0.03964,-0.15855 -0.05945,-0.31708 -0.05945,-0.47563c0,-0.15855 0.03963,-0.41617 0.1189,-0.7729c0.07927,-0.39636 0.11891,-0.63418 0.11891,-0.71345c0,-0.31708 -0.07927,-0.49544 -0.23781,-0.53508c-0.19818,-0.07927 -0.33691,-0.11891 -0.41618,-0.11891c-0.39636,0 -0.61435,0.19818 -0.65399,0.59454l-0.7729,2.67543h-1.01072c0.23782,-0.95126 0.47563,-1.90253 0.71344,-2.85379c0.27745,-0.95126 0.53508,-1.84307 0.7729,-2.67543c0.19818,-0.79271 0.43599,-1.70434 0.71345,-2.73487c0.03964,-0.11891 -0.01981,-0.17837 -0.17836,-0.17837c-0.07927,0 -0.17836,0 -0.29727,0c-0.15855,0.03964 -0.27745,0.05946 -0.35672,0.05946c-0.11891,0 -0.21799,-0.01982 -0.29726,-0.05946v-0.05945c0.39636,0 0.83235,-0.03964 1.30798,-0.11891c0.47563,-0.03964 0.83236,-0.07927 1.07017,-0.11891z" fill="#ffffff" stroke-width="1"/><path d="M199.58524,187.79348v-15.58696h80.82952v15.58696z" fill="none" stroke-width="0"/></g></g></svg>