<svg version="1.1" xmlns="http://www.w3.org/2000/svg" xmlns:xlink="http://www.w3.org/1999/xlink" width="25.01068" height="77.96786" viewBox="0,0,25.01068,77.96786"><g transform="translate(-228.08983,-134.74896)"><g data-paper-data="{&quot;isPaintingLayer&quot;:true}" fill="#ffffff" fill-rule="nonzero" stroke="none" stroke-width="0" stroke-linecap="butt" stroke-linejoin="miter" stroke-miterlimit="10" stroke-dasharray="" stroke-dashoffset="0" style="mix-blend-mode: normal"><path d="M250.8676,212.71683v-14.36185c0.74438,0.01342 1.48869,0.02639 2.23291,0.03892v14.32293z"/><path d="M250.8676,176.39724c0.7443,0.00382 1.48861,0.00789 2.23291,0.01252v10.93212c-0.01228,-0.00027 -0.02452,-0.00056 -0.03672,-0.00086c-0.73203,-0.01776 -1.46409,-0.03374 -2.19619,-0.0483z"/><path d="M250.8676,156.09991c0.74469,0.01618 1.48905,0.02907 2.23291,0.03789v9.30174c-0.74438,-0.01421 -1.48868,-0.02561 -2.23291,-0.03484z"/><path d="M250.8676,134.74897h2.23291v10.21454c-0.74416,-0.01512 -1.48846,-0.02983 -2.23291,-0.04416z"/><path d="M228.08983,212.71683v-14.91443c0.74417,0.02278 1.48848,0.0451 2.23291,0.06694v14.84749z"/><path d="M228.08983,176.03127c0.30756,-0.00827 0.48854,-0.01429 0.50318,-0.01407c0.55693,0.00807 1.11271,0.04912 1.66924,0.07018c0.02017,0.00077 0.04033,0.00153 0.0605,0.00229v10.89327c-0.74436,-0.01766 -1.48866,-0.03711 -2.23291,-0.05871z"/><path d="M228.08983,155.4318c0.67134,-0.01125 1.30237,-0.01677 1.87237,-0.00968c0.12015,0.00149 0.24033,0.00309 0.36054,0.0048v9.77281c-0.41107,-0.01316 -0.82212,-0.02745 -1.23317,-0.043c-0.26759,-0.01012 -0.60624,-0.02813 -0.99974,-0.05012z"/><path d="M228.08983,134.74897h2.23291v9.84732c-0.74433,-0.01001 -1.48864,-0.01993 -2.23291,-0.02979z"/></g></g></svg>