<svg version="1.1" xmlns="http://www.w3.org/2000/svg" xmlns:xlink="http://www.w3.org/1999/xlink" width="26.5296" height="101.02932" viewBox="0,0,26.5296,101.02932"><g transform="translate(-226.94991,-129.99698)"><g data-paper-data="{&quot;isPaintingLayer&quot;:true}" fill-rule="nonzero" stroke-linecap="butt" stroke-linejoin="miter" stroke-miterlimit="10" stroke-dasharray="" stroke-dashoffset="0" style="mix-blend-mode: normal"><path d="M226.94991,229.01259c0,-2.3576 0,-58.70564 0,-96.28023c0,-1.06751 1.2268,-2.73538 2.01202,-2.73538c8.63819,0 19.84667,0 22.13427,0c0.76253,0 1.95389,1.6605 1.95389,2.4331c0,37.45663 0,93.21479 0,96.28023c0,1.02183 -0.90067,2.31599 -1.71066,2.31599c-2.42999,0 -14.15755,0 -22.98558,0c-0.5479,0 -1.40393,-1.22779 -1.40393,-2.01369z" data-paper-data="{&quot;origPos&quot;:null}" fill-opacity="0.55053" fill="#ffffff" stroke="#001026" stroke-width="0"/><text transform="translate(227.51506,163.87485) scale(0.3591,0.44072)" font-size="40" xml:space="preserve" fill="#000000" fill-rule="nonzero" stroke="#000000" stroke-width="2" stroke-linecap="butt" stroke-linejoin="miter" stroke-miterlimit="10" stroke-dasharray="" stroke-dashoffset="0" font-family="Sans Serif" font-weight="normal" text-anchor="start" style="mix-blend-mode: normal"><tspan x="0" dy="0">Mi</tspan></text><text transform="translate(245.3316,163.58455) scale(0.39565,0.39565)" font-size="40" xml:space="preserve" fill="#000000" fill-rule="nonzero" stroke="#000000" stroke-width="3" stroke-linecap="butt" stroke-linejoin="miter" stroke-miterlimit="10" stroke-dasharray="" stroke-dashoffset="0" font-family="Handwriting" font-weight="normal" text-anchor="start" style="mix-blend-mode: normal"><tspan x="0" dy="0">b</tspan></text></g></g></svg>