<svg version="1.1" xmlns="http://www.w3.org/2000/svg" xmlns:xlink="http://www.w3.org/1999/xlink" width="87.57167" height="106.35332" viewBox="0,0,87.57167,106.35332"><g transform="translate(-196.04369,-108.80769)"><g data-paper-data="{&quot;isPaintingLayer&quot;:true}" fill="none" fill-rule="nonzero" stroke="none" stroke-width="1" stroke-linecap="butt" stroke-linejoin="miter" stroke-miterlimit="10" stroke-dasharray="" stroke-dashoffset="0" font-family="none" font-weight="none" font-size="none" text-anchor="none" style="mix-blend-mode: normal"><path d="M197.85965,177.89075c0,0 -3.88712,-3.5999 -0.28721,-7.48981c3.5999,-3.88433 7.48981,-0.28163 7.48981,-0.28163l18.04413,16.71404c-0.28442,-0.26769 1.25481,-2.45106 1.02615,-2.66298l-25.04596,-23.19721c0,0 -3.88712,-3.5999 -0.28721,-7.48423c3.60269,-3.8899 7.48981,-0.28721 7.48981,-0.28721l23.55692,21.81971c-0.05577,-0.05019 1.69817,-2.03837 1.66471,-2.06904l-27.31019,-25.29692c0,0 -3.88712,-3.5999 -0.28721,-7.48702c3.60269,-3.88433 7.48981,-0.28442 7.48981,-0.28442l27.3074,25.29692c0.03346,0.02788 1.90452,-1.85154 1.96029,-1.79856l-25.52558,-23.64337c0,0 -3.88712,-3.5999 -0.28721,-7.48702c3.60269,-3.88433 7.48981,-0.28442 7.48981,-0.28442c0,0 18.995,17.59519 26.98952,24.99856c7.99173,7.40337 9.79308,5.45981 9.79308,5.45981l-7.21654,-6.68394l-8.33471,-7.71567c0,0 -3.88712,-3.5999 -0.28442,-7.48981c3.60269,-3.88712 7.48702,-0.28721 7.48702,-0.28721l21.37913,19.80365c12.87712,11.92904 13.64952,32.04221 1.71769,44.92212c-11.92904,12.8799 -32.045,13.64673 -44.9249,1.72048c-0.68038,-0.63019 -1.90173,-1.84875 -1.84875,-1.90731l-0.09202,0.10596z" data-paper-data="{&quot;origPos&quot;:null}" id="path22" fill="#c1694f"/><path d="M198.68893,176.09532c0,0 -3.88712,-3.5999 -0.28721,-7.48702c3.5999,-3.8899 7.48702,-0.29 7.48702,-0.29l18.04692,16.71962c-0.28721,-0.26769 1.25481,-2.45106 1.02615,-2.66298l-25.04596,-23.19721c0,0 -3.88712,-3.5999 -0.28721,-7.48702c3.5999,-3.88712 7.48702,-0.28721 7.48702,-0.28721l23.55692,21.8225c-0.05298,-0.05298 1.70096,-2.03837 1.6675,-2.06904l-27.31019,-25.29971c0,0 -3.88712,-3.59712 -0.28721,-7.48423c3.5999,-3.88712 7.48702,-0.28721 7.48702,-0.28721l27.3074,25.29413c0.03625,0.03346 1.90452,-1.84596 1.96029,-1.79577l-25.52279,-23.64337c0,0 -3.88712,-3.5999 -0.28721,-7.48423c3.5999,-3.88712 7.48702,-0.28721 7.48702,-0.28721c0,0 18.99779,17.59798 26.99231,25.00135c7.98894,7.40058 9.79308,5.45702 9.79308,5.45702l-7.21933,-6.68394l-8.33192,-7.71567c0,0 -3.88433,-3.5999 -0.28721,-7.48702c3.60269,-3.88712 7.48981,-0.28721 7.48981,-0.28721l21.37635,19.80087c12.8799,11.92904 13.64952,32.045 1.72048,44.92212c-11.93183,12.8799 -32.045,13.64673 -44.9249,1.71769c-0.68317,-0.6274 -1.90173,-1.84596 -1.84875,-1.90173l-0.09481,0.10596z" data-paper-data="{&quot;origPos&quot;:null}" id="path26" fill="#e8a88b"/><path d="M257.23934,126.81697c-0.59394,0 -1.19625,-0.18962 -1.70096,-0.58c-1.22135,-0.9425 -1.44442,-2.69365 -0.50192,-3.91221l8.30404,-10.74952c0.93692,-1.21856 2.69087,-1.44721 3.91221,-0.50192c1.21856,0.93971 1.44163,2.69087 0.50192,3.90942l-8.30683,10.74952c-0.54654,0.71106 -1.37192,1.08471 -2.20846,1.08471" data-paper-data="{&quot;origPos&quot;:null}" id="path30" fill="#ffac33"/><path d="M241.78847,128.32692c-1.53923,0 -2.78846,-1.24923 -2.78846,-2.78846v-13.94231c0,-1.53923 1.24923,-2.78846 2.78846,-2.78846c1.54202,0 2.78846,1.24923 2.78846,2.78846v13.94231c0,1.53923 -1.24644,2.78846 -2.78846,2.78846" data-paper-data="{&quot;origPos&quot;:null}" id="path34" fill="#ffac33"/><path d="M268.04741,135.76375c-1.13769,0 -2.20846,-0.70269 -2.61837,-1.8376c-0.52981,-1.44721 0.22029,-3.045 1.66471,-3.57202l12.77952,-4.64837c1.45279,-0.52702 3.04779,0.22308 3.57202,1.6675c0.52981,1.44721 -0.22029,3.04779 -1.66471,3.57481l-12.77952,4.64558c-0.3151,0.11433 -0.63856,0.1701 -0.95365,0.1701" data-paper-data="{&quot;origPos&quot;:null}" id="path38" fill="#ffac33"/></g></g></svg>