<svg version="1.1" xmlns="http://www.w3.org/2000/svg" xmlns:xlink="http://www.w3.org/1999/xlink" width="131.18535" height="23.30016" viewBox="0,0,131.18535,23.30016"><defs><linearGradient x1="237.32594" y1="157.36241" x2="237.32594" y2="193.27043" gradientUnits="userSpaceOnUse" id="color-1"><stop offset="0" stop-color="#55c5f8"/><stop offset="1" stop-color="#285c7d"/></linearGradient><linearGradient x1="237.32591" y1="191.06852" x2="237.32591" y2="167.3557" gradientUnits="userSpaceOnUse" id="color-2"><stop offset="0" stop-color="#45a6d3"/><stop offset="1" stop-color="#1e475f"/></linearGradient><linearGradient x1="237.09806" y1="191.06846" x2="237.09806" y2="167.35564" gradientUnits="userSpaceOnUse" id="color-3"><stop offset="0" stop-color="#d2d446"/><stop offset="1" stop-color="#5d5e1e"/></linearGradient></defs><g transform="translate(-168.0782,-167.89677)"><g data-paper-data="{&quot;isPaintingLayer&quot;:true}" fill-rule="nonzero" stroke-miterlimit="10" stroke-dasharray="" stroke-dashoffset="0" style="mix-blend-mode: normal"><g stroke="none"><path d="M168.0782,191.19693v-23.30015h131.18535v23.30015z" fill="none" stroke-width="0" stroke-linecap="butt" stroke-linejoin="miter"/><path d="M287.73204,167.89679c6.0455,0 10.99234,4.94684 10.99234,10.99234v1.31547c0,6.04552 -4.94684,10.99234 -10.99234,10.99234c0,0 -8.04629,0 -18.83221,0c-21.36001,0 -88.79236,0 -88.79236,0c-6.04552,0 -10.99234,-4.94682 -10.99234,-10.99234v-1.31547c0,-6.0455 4.94682,-10.99234 10.99234,-10.99234z" fill="url(#color-1)" stroke-width="4.76499" stroke-linecap="round" stroke-linejoin="round"/><path d="M287.73177,169.81299c5.00738,0 9.07747,4.06814 9.07747,9.07552v1.31672c0,5.00738 -4.07009,9.07552 -9.07747,9.07552h-107.62404c-5.00738,0 -9.07747,-4.06814 -9.07747,-9.07552v-1.31672c0,-5.00738 4.07009,-9.07552 9.07747,-9.07552zM172.23001,178.88854v1.31672c0,4.36466 3.51306,7.87772 7.87772,7.87772h107.62404c4.36466,0 7.8777,-3.51306 7.8777,-7.87772v-1.31672c0,-4.36464 -3.51304,-7.8777 -7.8777,-7.8777h-107.62404c-4.36466,0 -7.87772,3.51306 -7.87772,7.8777z" fill="url(#color-2)" stroke-width="4.76499" stroke-linecap="round" stroke-linejoin="round"/></g><text transform="translate(207.78108,183.42787) scale(0.29537,0.28565)" font-size="40" xml:space="preserve" fill="#000000" fill-rule="nonzero" stroke="none" stroke-width="1" stroke-linecap="butt" stroke-linejoin="miter" stroke-miterlimit="10" stroke-dasharray="" stroke-dashoffset="0" font-family="Sans Serif" font-weight="normal" text-anchor="start" style="mix-blend-mode: normal"><tspan x="0" dy="0">Moon River</tspan></text><g><path d="M179.87988,171.01079v17.07214c-4.36466,0 -7.87772,-3.51306 -7.87772,-7.87772v-1.31672c0,-4.36464 3.51306,-7.8777 7.87772,-7.8777z" fill="url(#color-3)" stroke="none" stroke-width="4.76499" stroke-linecap="round" stroke-linejoin="round"/><path d="M174.36886,182.58055v-6.06738h1.26869l0.69672,2.06535h0.05578l0.69293,-2.06535h1.26869v6.06738h-1.08635v-3.30274l-0.73914,1.98862h-0.33086l-0.74008,-1.98862v3.30274z" fill="#ffffff" stroke="#000000" stroke-width="0" stroke-linecap="butt" stroke-linejoin="miter"/></g></g></g></svg>