<svg version="1.1" xmlns="http://www.w3.org/2000/svg" xmlns:xlink="http://www.w3.org/1999/xlink" width="42.94931" height="34.96456" viewBox="0,0,42.94931,34.96456"><g transform="translate(-218.52535,-162.69493)"><g data-paper-data="{&quot;isPaintingLayer&quot;:true}" fill-rule="nonzero" stroke-linejoin="miter" stroke-miterlimit="10" stroke-dasharray="" stroke-dashoffset="0" style="mix-blend-mode: normal"><path d="M239.27467,167.0437c0.27877,0.26082 0.62974,0.40336 0.99177,0.40336h17.09411c0.64436,0 1.16637,0.58972 1.16637,1.31692v27.22414c0,0.72721 -0.522,1.31692 -1.16637,1.31692h-35.30893c-0.64407,0 -1.16637,-0.58972 -1.16637,-1.31692v-28.54106v-3.43521c0,-0.72721 0.52231,-1.31692 1.16637,-1.31692h12.01169c0.36232,0 0.71302,0.14289 0.99208,0.40337l4.21928,3.94539" fill="#fdc23b" stroke="none" stroke-width="0.03528" stroke-linecap="butt"/><path d="M239.27467,167.0437c0.27877,0.26082 0.62974,0.40336 0.99177,0.40336h17.09411c0.64436,0 1.16637,0.58972 1.16637,1.31692v27.22414c0,0.72721 -0.522,1.31692 -1.16637,1.31692h-35.30893c-0.64407,0 -1.16637,-0.58972 -1.16637,-1.31692v-28.54106v-3.43521c0,-0.72721 0.52231,-1.31692 1.16637,-1.31692h12.01169c0.36232,0 0.71302,0.14289 0.99208,0.40337l4.21928,3.94539" fill="#fdc23b" stroke="none" stroke-width="0.03528" stroke-linecap="butt"/><path d="M256.26106,168.93424c0.21549,0 0.38979,0.19678 0.38979,0.43976v22.85852c0,0.24296 -0.17431,0.44011 -0.38979,0.44011h-32.46673c-0.21518,0 -0.38979,-0.19714 -0.38979,-0.44011v-22.85852c0,-0.24296 0.1746,-0.43976 0.38979,-0.43976h32.46673" fill="#ffffff" stroke="none" stroke-width="0.03528" stroke-linecap="butt"/><path d="M260.28096,172.63316c0.75151,0 1.28038,0.64195 1.1819,1.42781l-0.45247,3.61649l-2.38975,19.09476c-0.15579,0.50447 -0.68197,0.88728 -1.26008,0.88728h-35.30893c-0.64407,0 -1.22577,-0.47514 -1.29949,-1.0652l-2.22679,-17.79199c0.02478,-0.63622 0.50618,-1.12484 1.161,-1.12484h19.36657c0.41037,0 0.80792,-0.14726 1.12489,-0.4172l4.92125,-4.18701c0.33368,-0.28407 0.74793,-0.44011 1.17055,-0.44011h14.01135" fill="#bd5e1e" stroke="none" stroke-width="0.03528" stroke-linecap="butt"/><path d="M238.68097,187.94042l-0.84724,-4.7584l9.24229,0.86437l-1.06308,6.0437" data-paper-data="{&quot;origPos&quot;:null}" fill="none" stroke="#604848" stroke-width="1" stroke-linecap="round"/><path d="M238.18811,183.58173l-0.11812,-0.71095l8.29136,1.43831l0.11812,0.52051z" fill="none" stroke="#604848" stroke-width="1" stroke-linecap="butt"/><g stroke-width="0.5"><path d="M242.27682,190.41516c0,-0.93987 0.89499,-1.47217 2.06983,-1.47217c1.17485,0 2.12724,0.76192 2.12724,1.70179c0,0.93987 -1.0098,1.58698 -2.18465,1.58698c-1.17485,0 -2.01243,-0.87673 -2.01243,-1.8166z" fill="#604848" stroke="none" stroke-linecap="butt"/><path d="M243.36842,189.92081c0,0 0.75598,-0.64312 1.50217,-0.10656" fill="none" stroke="#ffffff" stroke-linecap="round"/></g><g stroke-width="0.5"><path d="M235.02485,187.97202c0.18165,-0.96645 1.25367,-1.50075 2.46174,-1.2737c1.20807,0.22706 1.83956,0.97109 1.65792,1.93754c-0.18165,0.96645 -1.19384,1.49547 -2.40192,1.26843c-1.20807,-0.22706 -1.89939,-0.96582 -1.71775,-1.93226z" data-paper-data="{&quot;origRot&quot;:0}" fill="#604848" stroke="none" stroke-linecap="butt"/><path d="M236.10338,187.67152c0,0 1.053,-0.67013 1.71659,0.02584" data-paper-data="{&quot;origRot&quot;:0}" fill="none" stroke="#ffffff" stroke-linecap="round"/></g><path d="M232.7703,168.5887c0,-0.56373 0.08816,-1.05145 0.26376,-1.46399c0.17565,-0.41209 0.38387,-0.61795 0.62444,-0.61795h12.43309c0.24068,0 0.44874,0.20587 0.62454,0.61795c0.1758,0.41255 0.26361,0.90027 0.26361,1.46411c0,0.56373 -0.08782,1.05145 -0.26361,1.46365l-6.21656,14.57241c-0.17598,0.41209 -0.38405,0.61841 -0.62454,0.61841c-0.24048,0 -0.44874,-0.20633 -0.62439,-0.61841l-6.21656,-14.57252c-0.1756,-0.41209 -0.26376,-0.89981 -0.26376,-1.46365z" data-paper-data="{&quot;index&quot;:null}" fill="#000000" stroke="none" stroke-width="1" stroke-linecap="butt"/></g></g></svg>