<svg version="1.1" xmlns="http://www.w3.org/2000/svg" xmlns:xlink="http://www.w3.org/1999/xlink" width="131.18535" height="23.30015" viewBox="0,0,131.18535,23.30015"><defs><linearGradient x1="237.32591" y1="157.36237" x2="237.32591" y2="193.27036" gradientUnits="userSpaceOnUse" id="color-1"><stop offset="0" stop-color="#55c5f8"/><stop offset="1" stop-color="#285c7d"/></linearGradient><linearGradient x1="237.32589" y1="191.06845" x2="237.32589" y2="167.35564" gradientUnits="userSpaceOnUse" id="color-2"><stop offset="0" stop-color="#45a6d3"/><stop offset="1" stop-color="#1e475f"/></linearGradient><linearGradient x1="237.09806" y1="191.06845" x2="237.09806" y2="167.35563" gradientUnits="userSpaceOnUse" id="color-3"><stop offset="0" stop-color="#4fd446"/><stop offset="1" stop-color="#225e1e"/></linearGradient></defs><g transform="translate(-168.07817,-167.89671)"><g data-paper-data="{&quot;isPaintingLayer&quot;:true}" fill-rule="nonzero" stroke-miterlimit="10" stroke-dasharray="" stroke-dashoffset="0" style="mix-blend-mode: normal"><path d="M168.07817,191.19687v-23.30015h131.18535v23.30015z" fill="none" stroke="none" stroke-width="0" stroke-linecap="butt" stroke-linejoin="miter"/><path d="M287.73202,167.89672c6.0455,0 10.99234,4.94684 10.99234,10.99234v1.31547c0,6.04552 -4.94684,10.99234 -10.99234,10.99234c0,0 -8.04629,0 -18.83221,0c-21.36001,0 -88.79236,0 -88.79236,0c-6.04552,0 -10.99234,-4.94682 -10.99234,-10.99234v-1.31547c0,-6.0455 4.94682,-10.99234 10.99234,-10.99234z" fill="url(#color-1)" stroke="none" stroke-width="4.76499" stroke-linecap="round" stroke-linejoin="round"/><path d="M287.73175,169.81293c5.00738,0 9.07747,4.06814 9.07747,9.07552v1.31672c0,5.00738 -4.07009,9.07552 -9.07747,9.07552h-107.62404c-5.00738,0 -9.07747,-4.06814 -9.07747,-9.07552v-1.31672c0,-5.00738 4.07009,-9.07552 9.07747,-9.07552zM172.22999,178.88847v1.31672c0,4.36466 3.51306,7.87772 7.87772,7.87772h107.62404c4.36466,0 7.8777,-3.51306 7.8777,-7.87772v-1.31672c0,-4.36464 -3.51304,-7.8777 -7.8777,-7.8777h-107.62404c-4.36466,0 -7.87772,3.51306 -7.87772,7.8777z" fill="url(#color-2)" stroke="none" stroke-width="4.76499" stroke-linecap="round" stroke-linejoin="round"/><text transform="translate(193.33158,183.42781) scale(0.30976,0.28565)" font-size="40" xml:space="preserve" fill="#000000" fill-rule="nonzero" stroke="none" stroke-width="1" stroke-linecap="butt" stroke-linejoin="miter" stroke-miterlimit="10" stroke-dasharray="" stroke-dashoffset="0" font-family="Sans Serif" font-weight="normal" text-anchor="start" style="mix-blend-mode: normal"><tspan x="0" dy="0">Mary little lamb</tspan></text><g><path d="M179.87988,171.01077v17.07214c-4.36466,0 -7.87772,-3.51306 -7.87772,-7.87772v-1.31672c0,-4.36464 3.51306,-7.8777 7.87772,-7.8777z" fill="url(#color-3)" stroke="none" stroke-width="4.76499" stroke-linecap="round" stroke-linejoin="round"/><path d="M174.44418,182.58053v-6.06738h3.98281v1.27574h-2.68939v1.12657h2.01776v1.35381h-2.01776v2.31125z" fill="#cccccc" stroke="#000000" stroke-width="0" stroke-linecap="butt" stroke-linejoin="miter"/><path d="" fill="#cccccc" stroke="#000000" stroke-width="0" stroke-linecap="butt" stroke-linejoin="miter"/></g></g></g></svg>