<svg version="1.1" xmlns="http://www.w3.org/2000/svg" xmlns:xlink="http://www.w3.org/1999/xlink" width="131.18535" height="23.30015" viewBox="0,0,131.18535,23.30015"><defs><linearGradient x1="237.32591" y1="157.36236" x2="237.32591" y2="193.27031" gradientUnits="userSpaceOnUse" id="color-1"><stop offset="0" stop-color="#55c5f8"/><stop offset="1" stop-color="#285c7d"/></linearGradient><linearGradient x1="237.32589" y1="191.0684" x2="237.32589" y2="167.35561" gradientUnits="userSpaceOnUse" id="color-2"><stop offset="0" stop-color="#45a6d3"/><stop offset="1" stop-color="#1e475f"/></linearGradient><linearGradient x1="237.09806" y1="191.06846" x2="237.09806" y2="167.35564" gradientUnits="userSpaceOnUse" id="color-3"><stop offset="0" stop-color="#d44646"/><stop offset="1" stop-color="#5e1e1e"/></linearGradient></defs><g transform="translate(-168.07817,-167.89666)"><g data-paper-data="{&quot;isPaintingLayer&quot;:true}" fill-rule="nonzero" stroke-miterlimit="10" stroke-dasharray="" stroke-dashoffset="0" style="mix-blend-mode: normal"><path d="M168.07817,191.19682v-23.30015h131.18535v23.30015z" fill="none" stroke="none" stroke-width="0" stroke-linecap="butt" stroke-linejoin="miter"/><path d="M287.73202,167.89667c6.0455,0 10.99234,4.94684 10.99234,10.99234v1.31547c0,6.04552 -4.94684,10.99234 -10.99234,10.99234c0,0 -8.04629,0 -18.83221,0c-21.36001,0 -88.79236,0 -88.79236,0c-6.04552,0 -10.99234,-4.94682 -10.99234,-10.99234v-1.31547c0,-6.0455 4.94682,-10.99234 10.99234,-10.99234z" fill="url(#color-1)" stroke="none" stroke-width="4.76499" stroke-linecap="round" stroke-linejoin="round"/><path d="M287.73175,169.8129c5.00738,0 9.07747,4.06814 9.07747,9.07552v1.31672c0,5.00738 -4.07009,9.07552 -9.07747,9.07552h-107.62404c-5.00738,0 -9.07747,-4.06814 -9.07747,-9.07552v-1.31672c0,-5.00738 4.07009,-9.07552 9.07747,-9.07552zM172.22999,178.88842v1.31672c0,4.36466 3.51306,7.87772 7.87772,7.87772h107.62404c4.36466,0 7.8777,-3.51306 7.8777,-7.87772v-1.31672c0,-4.36464 -3.51304,-7.8777 -7.8777,-7.8777h-107.62404c-4.36466,0 -7.87772,3.51306 -7.87772,7.8777z" fill="url(#color-2)" stroke="none" stroke-width="4.76499" stroke-linecap="round" stroke-linejoin="round"/><text transform="translate(203.18197,183.42782) scale(0.30976,0.28565)" font-size="40" xml:space="preserve" fill="#000000" fill-rule="nonzero" stroke="none" stroke-width="1" stroke-linecap="butt" stroke-linejoin="miter" stroke-miterlimit="10" stroke-dasharray="" stroke-dashoffset="0" font-family="Sans Serif" font-weight="normal" text-anchor="start" style="mix-blend-mode: normal"><tspan x="0" dy="0">Harry Potter</tspan></text><g><path d="M179.87988,171.01078v17.07214c-4.36466,0 -7.87772,-3.51306 -7.87772,-7.87772v-1.31672c0,-4.36464 3.51306,-7.8777 7.87772,-7.8777z" fill="url(#color-3)" stroke="none" stroke-width="4.76499" stroke-linecap="round" stroke-linejoin="round"/><path d="M174.44418,182.55356v-6.01712c0.08417,0 1.08641,-0.02328 1.16812,-0.02328c1.5543,0 2.84046,1.36166 2.8143,3.08797c-0.02615,1.7263 -0.98961,2.97941 -2.90623,2.97941c-0.18386,0 -0.87926,-0.02697 -1.07619,-0.02697zM175.63363,177.82358l0.00001,3.56028c0.04821,0.00573 0.39855,0.04485 0.64715,-0.01314c1.15863,-0.26443 1.36828,-2.92773 -0.01103,-3.51329c-0.24433,-0.07926 -0.59527,-0.03632 -0.63612,-0.03386z" fill="#cccccc" stroke="#000000" stroke-width="0" stroke-linecap="butt" stroke-linejoin="miter"/></g></g></g></svg>