<svg version="1.1" xmlns="http://www.w3.org/2000/svg" xmlns:xlink="http://www.w3.org/1999/xlink" width="18.36913" height="15.14315" viewBox="0,0,18.36913,15.14315"><defs><linearGradient x1="227.82748" y1="-665.78342" x2="227.82748" y2="187.57158" gradientUnits="userSpaceOnUse" id="color-1"><stop offset="0" stop-color="#000000" stop-opacity="0.00806"/><stop offset="1" stop-color="#000000" stop-opacity="0"/></linearGradient></defs><g transform="translate(-229.49948,-172.42843)"><g data-paper-data="{&quot;isPaintingLayer&quot;:true}" fill-rule="nonzero" stroke="#bc192d" stroke-linecap="butt" stroke-linejoin="miter" stroke-miterlimit="10" stroke-dasharray="" stroke-dashoffset="0" style="mix-blend-mode: normal"><path d="M229.49948,187.57158v-15.14315h18.36913v15.14315z" fill="url(#color-1)" stroke-width="0"/><path d="M237.68349,180.01684l-3.81977,-3.84021c-0.64435,-0.6481 -0.64176,-1.69577 0.00634,-2.34035c0.64786,-0.64434 1.69553,-0.64128 2.34011,0.00658l3.77279,3.793l3.71642,-3.84797c0.63494,-0.65726 1.68261,-0.67558 2.33964,-0.04087c0.65749,0.63518 0.67558,1.68262 0.04087,2.33988l-3.76293,3.89588l3.8193,3.84044c0.64458,0.64834 0.64152,1.69578 -0.00611,2.34012c-0.64833,0.64458 -1.69577,0.64175 -2.34011,-0.00611l-3.77256,-3.79323l-3.71665,3.8482c-0.63494,0.65726 -1.68262,0.67535 -2.33988,0.04087c-0.65726,-0.63542 -0.67534,-1.68262 -0.0404,-2.33988z" fill="#dd2726" stroke-width="1"/></g></g></svg>