<svg version="1.1" xmlns="http://www.w3.org/2000/svg" xmlns:xlink="http://www.w3.org/1999/xlink" width="494.08997" height="371.71383" viewBox="0,0,494.08997,371.71383"><defs><linearGradient x1="142.59984" y1="156.79566" x2="142.59984" y2="135.81217" gradientUnits="userSpaceOnUse" id="color-1"><stop offset="0" stop-color="#f7c551"/><stop offset="0.482" stop-color="#f7c551"/><stop offset="0.529" stop-color="#feeca9"/><stop offset="1" stop-color="#ffbf24"/></linearGradient><linearGradient x1="142.59984" y1="156.79566" x2="142.59984" y2="135.81217" gradientUnits="userSpaceOnUse" id="color-2"><stop offset="0" stop-color="#f7c551"/><stop offset="0.482" stop-color="#f7c551"/><stop offset="0.529" stop-color="#feeca9"/><stop offset="1" stop-color="#ffbf24"/></linearGradient><linearGradient x1="426.02655" y1="176.84909" x2="239.99997" y2="176.84909" gradientUnits="userSpaceOnUse" id="color-3"><stop offset="0" stop-color="#eeeeee"/><stop offset="0.58556" stop-color="#ffffff"/><stop offset="0.60305" stop-color="#ffffff"/><stop offset="0.90742" stop-color="#ffffff"/><stop offset="1" stop-color="#b1b1b1"/></linearGradient><linearGradient x1="53.97428" y1="177.08411" x2="239.99997" y2="177.08411" gradientUnits="userSpaceOnUse" id="color-4"><stop offset="0" stop-color="#eeeeee"/><stop offset="0.40172" stop-color="#ffffff"/><stop offset="0.42914" stop-color="#ffffff"/><stop offset="0.87884" stop-color="#ffffff"/><stop offset="1" stop-color="#b1b1b1"/></linearGradient><linearGradient x1="428.57488" y1="176.21462" x2="240.45906" y2="176.21462" gradientUnits="userSpaceOnUse" id="color-5"><stop offset="0" stop-color="#eeeeee"/><stop offset="0.58556" stop-color="#ffffff"/><stop offset="0.60305" stop-color="#ffffff"/><stop offset="0.90742" stop-color="#ffffff"/><stop offset="1" stop-color="#b1b1b1"/></linearGradient><linearGradient x1="52.34307" y1="176.21461" x2="240.4589" y2="176.21461" gradientUnits="userSpaceOnUse" id="color-6"><stop offset="0" stop-color="#eeeeee"/><stop offset="0.58556" stop-color="#ffffff"/><stop offset="0.60305" stop-color="#ffffff"/><stop offset="0.90742" stop-color="#ffffff"/><stop offset="1" stop-color="#b1b1b1"/></linearGradient><linearGradient x1="142.59984" y1="117.2734" x2="142.59984" y2="96.28991" gradientUnits="userSpaceOnUse" id="color-7"><stop offset="0" stop-color="#4c0602"/><stop offset="1" stop-color="#ab4200"/></linearGradient></defs><g transform="translate(7.04499,5.85692)"><g data-paper-data="{&quot;isPaintingLayer&quot;:true}" fill-rule="nonzero" stroke-linecap="butt" stroke-linejoin="miter" stroke-miterlimit="10" stroke-dasharray="" stroke-dashoffset="0" style="mix-blend-mode: normal"><path d="M-6.04498,364.85692v-369.71383h492.08997v369.71383z" fill="#2a1c46" stroke="#000000" stroke-width="2"/><path d="M118.86227,136.33676c0.26229,0 0.39344,0.17486 0.39344,0.39344v0.8306c0,0.26229 -0.13115,0.39344 -0.39344,0.39344c-1.31147,0 -1.9672,1.09289 -1.92349,2.53551v15.47532c0,0.26229 -0.13115,0.39344 -0.39344,0.39344h-1.83606c-0.21858,0 -0.34972,-0.08743 -0.48087,-0.21858l-12.63381,-14.51358v10.57918c0,1.48633 0.65573,2.53551 1.9672,2.53551c0.26229,0 0.39344,0.17486 0.39344,0.43716v0.78688c0,0.26229 -0.13115,0.39344 -0.39344,0.39344h-6.55734c-0.26229,0 -0.43716,-0.13115 -0.43716,-0.39344v-0.78688c0,-0.26229 0.17486,-0.43716 0.43716,-0.43716c1.26775,0 1.92349,-1.04917 1.92349,-2.53551v-13.59555c-0.52459,-0.43716 -1.00546,-0.65573 -1.66119,-0.65573c-0.26229,0 -0.43716,-0.13115 -0.43716,-0.39344v-0.78688c0,-0.26229 0.17486,-0.43716 0.43716,-0.39344h4.59014c0.21858,0 0.34972,0.04372 0.48087,0.21858l11.93436,13.59555v-9.70486c0,-1.44261 -0.65573,-2.53551 -1.9672,-2.53551c-0.26229,0 -0.39344,-0.13115 -0.39344,-0.39344v-0.8306c0,-0.21858 0.13115,-0.39344 0.39344,-0.39344zM127.12452,152.20552c0,1.44261 0.43716,2.49179 1.83606,2.53551h0.13115c0.26229,0 0.39344,0.17486 0.39344,0.39344v0.8306c0,0.26229 -0.13115,0.39344 -0.39344,0.39344h-8.17482c-0.26229,0 -0.43716,-0.13115 -0.43716,-0.39344v-0.8306c0,-0.21858 0.17486,-0.39344 0.43716,-0.39344h0.17486c1.35518,-0.04372 1.79234,-1.09289 1.79234,-2.53551v-11.71578c0,-1.3989 -0.43716,-2.44807 -1.79234,-2.53551h-0.17486c-0.26229,0 -0.43716,-0.13115 -0.43716,-0.39344v-0.78688c0,-0.26229 0.17486,-0.43716 0.43716,-0.43716h8.17482c0.26229,0 0.39344,0.17486 0.39344,0.43716v0.78688c0,0.26229 -0.13115,0.39344 -0.39344,0.39344h-0.13115c-1.3989,0.08743 -1.83606,1.13661 -1.83606,2.53551zM150.77466,136.29304c0.26229,0 0.43716,0.13115 0.43716,0.39344v0.8306c0,0.26229 -0.17486,0.39344 -0.43716,0.39344c-1.13661,0 -1.44261,1.13661 -1.9672,2.53551l-5.77046,15.60647c-0.04372,0.21858 -0.21858,0.30601 -0.43716,0.30601h-3.19124c-0.26229,0 -0.39344,-0.08743 -0.48087,-0.30601l-6.03275,-15.60647c-0.52459,-1.35518 -0.8306,-2.53551 -1.92349,-2.53551c-0.26229,0 -0.43716,-0.13115 -0.43716,-0.39344v-0.8306c0,-0.26229 0.17486,-0.39344 0.43716,-0.39344h8.17482c0.26229,0 0.39344,0.13115 0.39344,0.39344v0.8306c0,0.26229 -0.13115,0.39344 -0.39344,0.39344c-1.09289,0 -2.09835,0.74317 -2.09835,1.83606c0,0.21858 0.04372,0.43716 0.13115,0.69945l4.63385,12.15294l4.32784,-12.15294c0.04372,-0.21858 0.08743,-0.48087 0.08743,-0.65573c0,-1.09289 -0.96174,-1.87977 -2.05463,-1.87977c-0.26229,0 -0.39344,-0.13115 -0.39344,-0.39344v-0.8306c0,-0.26229 0.13115,-0.39344 0.39344,-0.39344zM170.70897,150.67548c0.17486,0.08743 0.21858,0.17486 0.21858,0.30601c0,0.08743 0,0.17486 -0.04372,0.26229l-2.49179,5.28959c-0.08743,0.13115 -0.21858,0.21858 -0.34972,0.21858c-0.08743,0 -0.13115,-0.04372 -0.21858,-0.08743l-0.17486,-0.13115c-0.13115,-0.17486 -0.30601,-0.17486 -0.48087,-0.17486h-14.60101c-0.26229,0 -0.39344,-0.13115 -0.39344,-0.39344v-0.78688c0,-0.26229 0.13115,-0.39344 0.39344,-0.39344c1.48633,0 1.9672,-1.09289 1.9672,-2.53551v-11.71578c0,-1.44261 -0.48087,-2.53551 -1.9672,-2.53551c-0.26229,0 -0.39344,-0.13115 -0.39344,-0.39344v-0.8306c0,-0.26229 0.13115,-0.39344 0.39344,-0.39344h13.33326c0.21858,0 0.34972,0 0.52459,-0.13115l0.13115,-0.13115c0.08743,-0.08743 0.17486,-0.08743 0.26229,-0.08743c0.13115,0 0.21858,0.08743 0.30601,0.21858l2.14206,3.6284c0.04372,0.08743 0.08743,0.17486 0.08743,0.21858c0,0.13115 -0.08743,0.26229 -0.26229,0.34972l-1.09289,0.5683c-0.08743,0.08743 -0.17486,0.08743 -0.26229,0.08743c-0.08743,0 -0.21858,-0.08743 -0.30601,-0.21858l-0.08743,-0.13115c-1.00546,-1.74862 -2.09835,-2.49179 -4.24041,-2.49179h-4.50271v6.25133h2.49179c1.44261,0 2.49179,-0.43716 2.53551,-1.79234v-0.17486c0,-0.26229 0.17486,-0.39344 0.43716,-0.39344h0.78688c0.26229,0 0.39344,0.13115 0.39344,0.39344v6.07647c0,0.26229 -0.13115,0.39344 -0.39344,0.39344h-0.78688c-0.26229,0 -0.43716,-0.13115 -0.43716,-0.39344v-0.17486c-0.04372,-1.35518 -1.09289,-1.79234 -2.53551,-1.79234h-2.31693v5.28959c0,1.44261 0.43716,2.49179 1.83606,2.53551h1.74862c2.40436,0 4.54642,-0.17486 6.86335,-4.02184l0.08743,-0.13115c0.08743,-0.13115 0.21858,-0.21858 0.34972,-0.21858c0.04372,0 0.13115,0 0.21858,0.04372zM188.7198,150.63176c0.13115,0.08743 0.21858,0.21858 0.21858,0.34972c0,0.08743 -0.04372,0.13115 -0.08743,0.21858l-2.49179,5.28959c-0.04372,0.13115 -0.17486,0.21858 -0.30601,0.21858c-0.08743,0 -0.17486,0 -0.26229,-0.08743l-0.13115,-0.13115c-0.17486,-0.13115 -0.30601,-0.13115 -0.52459,-0.13115h-13.37698c-0.26229,0 -0.39344,-0.13115 -0.39344,-0.39344v-0.78688c0,-0.26229 0.13115,-0.43716 0.39344,-0.43716h0.04372c1.44261,0 1.92349,-1.04917 1.92349,-2.53551v-11.71578c0,-1.44261 -0.48087,-2.53551 -1.92349,-2.53551h-0.04372c-0.26229,0 -0.39344,-0.13115 -0.39344,-0.39344v-0.78688c0,-0.26229 0.13115,-0.43716 0.39344,-0.43716h8.08739c0.26229,0 0.52459,0.17486 0.52459,0.43716v0.78688c0,0.26229 -0.52459,0.39344 -0.74317,0.39344h-1.61748v13.98899c0,1.3989 0.43716,2.49179 1.83606,2.53551h1.00546c1.92349,0 4.02184,-0.21858 6.38248,-4.02184l0.08743,-0.13115c0.08743,-0.17486 0.17486,-0.26229 0.30601,-0.26229c0.08743,0 0.17486,0.04372 0.21858,0.08743z" fill="url(#color-1)" stroke="none" stroke-width="1"/><path d="M118.86227,136.33676c0.26229,0 0.39344,0.17486 0.39344,0.39344v0.8306c0,0.26229 -0.13115,0.39344 -0.39344,0.39344c-1.31147,0 -1.9672,1.09289 -1.92349,2.53551v15.47532c0,0.26229 -0.13115,0.39344 -0.39344,0.39344h-1.83606c-0.21858,0 -0.34972,-0.08743 -0.48087,-0.21858l-12.63381,-14.51358v10.57918c0,1.48633 0.65573,2.53551 1.9672,2.53551c0.26229,0 0.39344,0.17486 0.39344,0.43716v0.78688c0,0.26229 -0.13115,0.39344 -0.39344,0.39344h-6.55734c-0.26229,0 -0.43716,-0.13115 -0.43716,-0.39344v-0.78688c0,-0.26229 0.17486,-0.43716 0.43716,-0.43716c1.26775,0 1.92349,-1.04917 1.92349,-2.53551v-13.59555c-0.52459,-0.43716 -1.00546,-0.65573 -1.66119,-0.65573c-0.26229,0 -0.43716,-0.13115 -0.43716,-0.39344v-0.78688c0,-0.26229 0.17486,-0.43716 0.43716,-0.39344h4.59014c0.21858,0 0.34972,0.04372 0.48087,0.21858l11.93436,13.59555v-9.70486c0,-1.44261 -0.65573,-2.53551 -1.9672,-2.53551c-0.26229,0 -0.39344,-0.13115 -0.39344,-0.39344v-0.8306c0,-0.21858 0.13115,-0.39344 0.39344,-0.39344zM127.12452,152.20552c0,1.44261 0.43716,2.49179 1.83606,2.53551h0.13115c0.26229,0 0.39344,0.17486 0.39344,0.39344v0.8306c0,0.26229 -0.13115,0.39344 -0.39344,0.39344h-8.17482c-0.26229,0 -0.43716,-0.13115 -0.43716,-0.39344v-0.8306c0,-0.21858 0.17486,-0.39344 0.43716,-0.39344h0.17486c1.35518,-0.04372 1.79234,-1.09289 1.79234,-2.53551v-11.71578c0,-1.3989 -0.43716,-2.44807 -1.79234,-2.53551h-0.17486c-0.26229,0 -0.43716,-0.13115 -0.43716,-0.39344v-0.78688c0,-0.26229 0.17486,-0.43716 0.43716,-0.43716h8.17482c0.26229,0 0.39344,0.17486 0.39344,0.43716v0.78688c0,0.26229 -0.13115,0.39344 -0.39344,0.39344h-0.13115c-1.3989,0.08743 -1.83606,1.13661 -1.83606,2.53551zM150.77466,136.29304c0.26229,0 0.43716,0.13115 0.43716,0.39344v0.8306c0,0.26229 -0.17486,0.39344 -0.43716,0.39344c-1.13661,0 -1.44261,1.13661 -1.9672,2.53551l-5.77046,15.60647c-0.04372,0.21858 -0.21858,0.30601 -0.43716,0.30601h-3.19124c-0.26229,0 -0.39344,-0.08743 -0.48087,-0.30601l-6.03275,-15.60647c-0.52459,-1.35518 -0.8306,-2.53551 -1.92349,-2.53551c-0.26229,0 -0.43716,-0.13115 -0.43716,-0.39344v-0.8306c0,-0.26229 0.17486,-0.39344 0.43716,-0.39344h8.17482c0.26229,0 0.39344,0.13115 0.39344,0.39344v0.8306c0,0.26229 -0.13115,0.39344 -0.39344,0.39344c-1.09289,0 -2.09835,0.74317 -2.09835,1.83606c0,0.21858 0.04372,0.43716 0.13115,0.69945l4.63385,12.15294l4.32784,-12.15294c0.04372,-0.21858 0.08743,-0.48087 0.08743,-0.65573c0,-1.09289 -0.96174,-1.87977 -2.05463,-1.87977c-0.26229,0 -0.39344,-0.13115 -0.39344,-0.39344v-0.8306c0,-0.26229 0.13115,-0.39344 0.39344,-0.39344zM170.70897,150.67548c0.17486,0.08743 0.21858,0.17486 0.21858,0.30601c0,0.08743 0,0.17486 -0.04372,0.26229l-2.49179,5.28959c-0.08743,0.13115 -0.21858,0.21858 -0.34972,0.21858c-0.08743,0 -0.13115,-0.04372 -0.21858,-0.08743l-0.17486,-0.13115c-0.13115,-0.17486 -0.30601,-0.17486 -0.48087,-0.17486h-14.60101c-0.26229,0 -0.39344,-0.13115 -0.39344,-0.39344v-0.78688c0,-0.26229 0.13115,-0.39344 0.39344,-0.39344c1.48633,0 1.9672,-1.09289 1.9672,-2.53551v-11.71578c0,-1.44261 -0.48087,-2.53551 -1.9672,-2.53551c-0.26229,0 -0.39344,-0.13115 -0.39344,-0.39344v-0.8306c0,-0.26229 0.13115,-0.39344 0.39344,-0.39344h13.33326c0.21858,0 0.34972,0 0.52459,-0.13115l0.13115,-0.13115c0.08743,-0.08743 0.17486,-0.08743 0.26229,-0.08743c0.13115,0 0.21858,0.08743 0.30601,0.21858l2.14206,3.6284c0.04372,0.08743 0.08743,0.17486 0.08743,0.21858c0,0.13115 -0.08743,0.26229 -0.26229,0.34972l-1.09289,0.5683c-0.08743,0.08743 -0.17486,0.08743 -0.26229,0.08743c-0.08743,0 -0.21858,-0.08743 -0.30601,-0.21858l-0.08743,-0.13115c-1.00546,-1.74862 -2.09835,-2.49179 -4.24041,-2.49179h-4.50271v6.25133h2.49179c1.44261,0 2.49179,-0.43716 2.53551,-1.79234v-0.17486c0,-0.26229 0.17486,-0.39344 0.43716,-0.39344h0.78688c0.26229,0 0.39344,0.13115 0.39344,0.39344v6.07647c0,0.26229 -0.13115,0.39344 -0.39344,0.39344h-0.78688c-0.26229,0 -0.43716,-0.13115 -0.43716,-0.39344v-0.17486c-0.04372,-1.35518 -1.09289,-1.79234 -2.53551,-1.79234h-2.31693v5.28959c0,1.44261 0.43716,2.49179 1.83606,2.53551h1.74862c2.40436,0 4.54642,-0.17486 6.86335,-4.02184l0.08743,-0.13115c0.08743,-0.13115 0.21858,-0.21858 0.34972,-0.21858c0.04372,0 0.13115,0 0.21858,0.04372zM188.7198,150.63176c0.13115,0.08743 0.21858,0.21858 0.21858,0.34972c0,0.08743 -0.04372,0.13115 -0.08743,0.21858l-2.49179,5.28959c-0.04372,0.13115 -0.17486,0.21858 -0.30601,0.21858c-0.08743,0 -0.17486,0 -0.26229,-0.08743l-0.13115,-0.13115c-0.17486,-0.13115 -0.30601,-0.13115 -0.52459,-0.13115h-13.37698c-0.26229,0 -0.39344,-0.13115 -0.39344,-0.39344v-0.78688c0,-0.26229 0.13115,-0.43716 0.39344,-0.43716h0.04372c1.44261,0 1.92349,-1.04917 1.92349,-2.53551v-11.71578c0,-1.44261 -0.48087,-2.53551 -1.92349,-2.53551h-0.04372c-0.26229,0 -0.39344,-0.13115 -0.39344,-0.39344v-0.78688c0,-0.26229 0.13115,-0.43716 0.39344,-0.43716h8.08739c0.26229,0 0.52459,0.17486 0.52459,0.43716v0.78688c0,0.26229 -0.52459,0.39344 -0.74317,0.39344h-1.61748v13.98899c0,1.3989 0.43716,2.49179 1.83606,2.53551h1.00546c1.92349,0 4.02184,-0.21858 6.38248,-4.02184l0.08743,-0.13115c0.08743,-0.17486 0.17486,-0.26229 0.30601,-0.26229c0.08743,0 0.17486,0.04372 0.21858,0.08743z" fill="url(#color-2)" stroke="none" stroke-width="1"/><path d="M239.99867,30.00708h194.60685c5.26464,0 9.53282,3.78357 9.53282,8.45012v283.08475c0,4.66653 -4.26818,8.45013 -9.53282,8.45013h-194.60685h-194.60416c-5.26466,0 -9.53283,-3.7836 -9.53283,-8.45013v-283.08475c0,-4.66654 4.26817,-8.45011 9.53283,-8.45011z" fill="#5a5550" stroke="none" stroke-width="0.35278"/><path d="M253.57991,329.99292h-27.62942v-8.63231h27.62943z" fill="#494441" stroke="none" stroke-width="0.35278"/><path d="M254.26857,38.63938h-27.62938v-8.6323h27.62938z" fill="#494441" stroke="none" stroke-width="0.35278"/><path d="M239.99993,321.36061h-193.41311v-282.49667h193.41311z" fill="#c2c2c2" stroke="none" stroke-width="0.35278"/><path d="M239.99993,38.86309h195.55951v282.49669h-195.5595z" fill="#c2c2c2" stroke="none" stroke-width="0.35278"/><path d="M239.9999,38.8631c0,0 17.7451,-3.94745 72.792,-3.94745c8.1372,0 17.13662,0.14236 27.07133,0.4703c9.93471,0.32794 93.06461,2.03847 93.06461,2.03847c0,0 0,2.14102 0,5.18017c0,22.29418 0,278.75519 0,278.75519c0,0 -72.65995,-3.84238 -95.37725,-4.36014c-74.35459,-1.69561 -97.55068,4.36014 -97.55068,4.36014v-282.49666" fill="url(#color-3)" stroke="none" stroke-width="1.72991"/><path d="M47.55657,321.31637v-282.42579c0,0 1.18411,-0.40989 2.38256,-1.40586c-0.01743,2.44259 0,283.83164 0,283.83164z" data-paper-data="{&quot;index&quot;:null}" fill="#cfcfcf" stroke="none" stroke-width="0"/><path d="M170.68327,35.3851c53.54441,0 69.31663,3.478 69.31663,3.478v282.49751c0,0 -23.19518,-6.05574 -97.54976,-4.36013c-22.71547,0.51776 -92.79748,3.54749 -92.79748,3.54749v-283.18033c0,0 79.46413,-1.04872 92.79749,-1.48851" fill="url(#color-4)" stroke="none" stroke-width="1.72991"/><path d="M432.83293,321.31637c0,0 0.01743,-281.38906 0,-283.83164c1.19846,0.99596 2.38256,1.40586 2.38256,1.40586v282.42579z" fill="#cfcfcf" stroke="none" stroke-width="0"/><path d="M239.99866,28.32253h196.79245c5.32376,0 9.63989,3.82607 9.63989,8.54501v286.26405c0,4.71893 -4.31612,8.54503 -9.63989,8.54503h-196.79245h-196.78974c-5.32379,0 -9.63989,-3.8261 -9.63989,-8.54503v-286.26404c0,-4.71895 4.31611,-8.54501 9.63989,-8.54501z" fill="#5a5550" stroke="none" stroke-width="0.35278"/><path d="M258.00038,331.67747h-36.69384v-8.72926h36.69384z" fill="#494441" stroke="none" stroke-width="0.35278"/><path d="M258.91497,37.05178h-36.69377v-8.72925h36.69377z" fill="#494441" stroke="none" stroke-width="0.35278"/><path d="M239.99993,322.94821h-195.5853v-285.66935h195.5853z" fill="#c2c2c2" stroke="none" stroke-width="0.35278"/><path d="M239.99993,37.278h197.75581v285.66937h-197.75581z" fill="#c2c2c2" stroke="none" stroke-width="0.35278"/><path d="M240.45898,36.67894c0,0 17.9444,-3.99178 73.60952,-3.99178c8.22859,0 17.32908,0.14396 27.37536,0.47558c10.04628,0.33162 94.1098,2.06136 94.1098,2.06136c0,0 0,2.16507 0,5.23835c0,22.54457 0,281.88585 0,281.88585c0,0 -73.47598,-3.88553 -96.44842,-4.4091c-75.18966,-1.71466 -98.64626,4.4091 -98.64626,4.4091v-285.66935" fill="url(#color-5)" stroke="none" stroke-width="1.72991"/><path d="M240.45898,36.67894v285.66935c0,0 -23.4566,-6.12376 -98.64626,-4.4091c-22.97244,0.52357 -96.44842,4.4091 -96.44842,4.4091c0,0 0,-259.34128 0,-281.88585c0,-3.07328 0,-5.23835 0,-5.23835c0,0 84.06352,-1.72974 94.1098,-2.06136c10.04628,-0.33162 19.14677,-0.47558 27.37536,-0.47558c55.66512,0 73.60952,3.99178 73.60952,3.99178" data-paper-data="{&quot;index&quot;:null}" fill="url(#color-6)" stroke="none" stroke-width="1.72991"/><path d="M225.79268,36.40616v285.66935c0,0 -21.69324,-6.12376 -91.2305,-4.4091c-21.24548,0.52357 -89.19789,4.4091 -89.19789,4.4091c0,0 0,-259.34128 0,-281.88585c0,-3.07328 0,-5.23835 0,-5.23835c0,0 77.74402,-1.72974 87.03507,-2.06136c9.29105,-0.33162 17.70741,-0.47558 25.31741,-0.47558c51.48048,0 68.07591,3.99178 68.07591,3.99178" data-paper-data="{&quot;index&quot;:null}" fill="#eeeeee" stroke="none" stroke-width="1.72991"/><path d="M42.95497,322.46491v-285.59767c0,0 1.19741,-0.41449 2.40932,-1.42164c-0.01762,2.47001 0,287.01932 0,287.01932z" data-paper-data="{&quot;index&quot;:null}" fill="#cfcfcf" stroke="none" stroke-width="0"/><path d="M435.55366,322.55627c0,0 0.01762,-284.5493 0,-287.01931c1.21191,1.00715 2.40932,1.42164 2.40932,1.42164v285.59767z" fill="#cfcfcf" stroke="none" stroke-width="0"/><path d="M273.67865,189.14948h0.85049v7.45036h3.81023v0.81648h-4.66073zM278.7136,194.89885c0,-1.46285 1.1907,-2.65355 2.65355,-2.65355c0.78246,0 1.46285,0.37422 1.90511,0.91854v-0.81648h0.78246v5.10299h-0.78246v-0.8505c-0.44226,0.57834 -1.12265,0.95256 -1.90511,0.95256c-1.46285,0 -2.65355,-1.22472 -2.65355,-2.65355zM283.23825,194.89885c0,-1.0206 -0.88452,-1.8711 -1.90512,-1.8711c-1.0206,0 -1.80305,0.8505 -1.80305,1.8711c0,0.98658 0.78246,1.90512 1.80305,1.90512c1.0206,0 1.90512,-0.91854 1.90512,-1.90512zM288.34123,193.57207c-0.06804,-0.3402 -0.44226,-0.57834 -1.05462,-0.57834c-0.61236,0 -1.05462,0.27216 -1.05462,0.64638c0,0.40824 0.3402,0.61236 1.1907,0.78246c1.29276,0.27216 1.80305,0.71442 1.80305,1.56492c0,0.88452 -0.6804,1.5309 -1.93914,1.5309c-1.15668,0 -1.90511,-0.64638 -1.93913,-1.5309h0.6804c0.06804,0.40824 0.61236,0.78246 1.25874,0.78246c0.74844,0 1.25874,-0.3402 1.25874,-0.78246c0,-0.5103 -0.3402,-0.64638 -1.25874,-0.8505c-1.22472,-0.23814 -1.76903,-0.6804 -1.76903,-1.49687c0,-0.74844 0.61236,-1.39482 1.76903,-1.39482c1.0206,0 1.66698,0.57834 1.76904,1.32678zM293.58029,194.89885c0,-1.46285 1.1907,-2.65355 2.65355,-2.65355c0.78246,0 1.46285,0.37422 1.90511,0.91854v-0.81648h0.78246v5.10299h-0.78246v-0.8505c-0.44226,0.57834 -1.12265,0.95256 -1.90511,0.95256c-1.46285,0 -2.65355,-1.22472 -2.65355,-2.65355zM298.10495,194.89885c0,-1.0206 -0.88452,-1.8711 -1.90512,-1.8711c-1.0206,0 -1.80305,0.8505 -1.80305,1.8711c0,0.98658 0.78246,1.90512 1.80305,1.90512c1.0206,0 1.90512,-0.91854 1.90512,-1.90512zM300.48634,189.14948h0.78246v8.26684h-0.78246zM308.03877,194.89885c0,1.42884 -1.1907,2.65355 -2.65355,2.65355c-0.74844,0 -1.42884,-0.37422 -1.90512,-0.91854v3.09581h-0.78246v-7.38232h0.78246v0.81648c0.47628,-0.54432 1.15668,-0.91854 1.90512,-0.91854c1.46285,0 2.65355,1.22472 2.65355,2.65355zM307.22229,194.89885c0,-1.0206 -0.78246,-1.8711 -1.80305,-1.8711c-1.0206,0 -1.90512,0.8505 -1.90512,1.8711c0,1.0206 0.88452,1.90512 1.90512,1.90512c1.0206,0 1.80305,-0.88452 1.80305,-1.90512zM308.88927,194.89885c0,-1.42884 1.1907,-2.65355 2.65355,-2.65355c0.78246,0 1.46286,0.37422 1.90512,0.91854v-0.81648h0.78246v5.10299h-0.78246v-0.81648c-0.44226,0.54432 -1.12266,0.91854 -1.90512,0.91854c-1.46285,0 -2.65355,-1.22472 -2.65355,-2.65355zM313.41391,194.89885c0,-1.0206 -0.88452,-1.8711 -1.90512,-1.8711c-1.0206,0 -1.80305,0.8505 -1.80305,1.8711c0,1.0206 0.78246,1.90512 1.80305,1.90512c1.0206,0 1.90512,-0.88452 1.90512,-1.90512zM316.64581,193.02775c0.40824,-0.47628 0.98658,-0.78246 1.70099,-0.78246v0.78246c-0.88452,0 -1.70099,0.54432 -1.70099,1.59894v2.78964h-0.78246v-5.06897h0.78246zM324.40236,192.34736v4.62671c0,2.00717 -1.1907,2.89169 -2.65355,2.89169c-1.15668,0 -2.10923,-0.71442 -2.48346,-1.73502h0.88452c0.30618,0.57834 0.88452,0.98658 1.59894,0.98658c1.0206,0 1.83708,-0.54431 1.83708,-2.14325v-0.3402c-0.47628,0.54432 -1.12266,0.88452 -1.90512,0.88452c-1.42884,0 -2.61953,-1.1907 -2.61953,-2.61953c0,-1.42884 1.1907,-2.65355 2.61953,-2.65355c0.78246,0 1.42884,0.3402 1.90512,0.88452v-0.78246zM323.55186,194.89885c0,-1.0206 -0.88452,-1.90512 -1.90512,-1.90512c-1.0206,0 -1.80305,0.88452 -1.80305,1.90512c0,1.0206 0.78246,1.8711 1.80305,1.8711c1.0206,0 1.90512,-0.8505 1.90512,-1.8711zM325.52501,194.89885c0,-1.42884 1.1907,-2.61953 2.65355,-2.61953c0.78246,0 1.46286,0.3402 1.90512,0.91854v-0.8505h0.78246v5.13701h-0.78246v-0.8505c-0.44226,0.57834 -1.12266,0.95256 -1.90512,0.95256c-1.46285,0 -2.65355,-1.25874 -2.65355,-2.68757zM330.04965,194.89885c0,-1.0206 -0.88452,-1.8711 -1.90511,-1.8711c-1.0206,0 -1.80306,0.8505 -1.80306,1.8711c0,1.0206 0.78246,1.90512 1.80306,1.90512c1.0206,0 1.90511,-0.88452 1.90511,-1.90512zM333.5537,193.06177v4.38857h-0.74844v-4.38857h-0.78246v-0.71442h0.78246v-2.00718h0.74844v2.00718h1.15668v0.71442zM335.35677,194.89885c0,-1.42884 1.1907,-2.61953 2.65355,-2.61953c0.74844,0 1.42884,0.3402 1.90512,0.91854v-0.8505h0.78246v5.13701h-0.78246v-0.8505c-0.47628,0.57834 -1.15668,0.95256 -1.90512,0.95256c-1.46285,0 -2.65355,-1.25874 -2.65355,-2.68757zM339.88142,194.89885c0,-1.0206 -0.88452,-1.8711 -1.90511,-1.8711c-1.0206,0 -1.80306,0.8505 -1.80306,1.8711c0,1.0206 0.78246,1.90512 1.80306,1.90512c1.0206,0 1.90511,-0.88452 1.90511,-1.90512zM344.98441,193.60609c-0.06804,-0.3402 -0.47628,-0.61236 -1.05462,-0.61236c-0.61236,0 -1.05462,0.30618 -1.05462,0.6804c0,0.37422 0.3402,0.61236 1.15668,0.74844c1.32678,0.27216 1.83708,0.74844 1.83708,1.56492c0,0.91854 -0.6804,1.5309 -1.93914,1.5309c-1.15668,0 -1.90511,-0.61236 -1.97315,-1.5309h0.71442c0.06804,0.44226 0.57834,0.81648 1.25874,0.81648c0.74844,0 1.22472,-0.3402 1.22472,-0.81648c0,-0.47628 -0.30618,-0.64638 -1.22472,-0.81648c-1.22472,-0.23814 -1.76903,-0.6804 -1.76903,-1.49687c0,-0.78246 0.61236,-1.39482 1.76903,-1.39482c0.98658,0 1.66698,0.54432 1.73502,1.32678zM354.81616,196.63387c-0.47628,0.57834 -1.15667,0.95256 -1.93913,0.95256c-1.42884,0 -2.61954,-1.25874 -2.61954,-2.68757c0,-1.42884 1.1907,-2.61953 2.61954,-2.61953c0.78246,0 1.46285,0.3402 1.93913,0.91854v-4.01435h0.74844v8.26684h-0.74844zM354.74813,194.93287c0,-1.05462 -0.88452,-1.8711 -1.90512,-1.8711c-1.0206,0 -1.80306,0.81648 -1.80306,1.8711c0,0.98658 0.78246,1.8711 1.80306,1.8711c1.0206,0 1.90512,-0.88452 1.90512,-1.8711zM361.99437,195.27307h-4.42259c0.1701,0.8505 0.88452,1.5309 1.80305,1.5309c0.57834,0 1.08864,-0.27216 1.39482,-0.6804h0.98658c-0.44226,0.8505 -1.3608,1.46285 -2.38139,1.46285c-1.46285,0 -2.65355,-1.25874 -2.65355,-2.65355c0,-1.46285 1.1907,-2.65355 2.65355,-2.65355c1.42884,0 2.61953,1.1907 2.61953,2.65355zM357.57178,194.55865h3.60611c-0.20412,-0.8505 -0.91854,-1.49688 -1.80305,-1.49688c-0.91854,0 -1.63296,0.64638 -1.80305,1.49688zM374.20752,195.51121c-0.74844,1.25874 -2.10923,2.07521 -3.67415,2.07521c-2.34737,0 -4.28651,-1.90512 -4.28651,-4.28651c0,-2.24532 1.93914,-4.18445 4.28651,-4.18445c1.56492,0 2.92571,0.85049 3.67415,2.04119h-1.05462c-0.64638,-0.71442 -1.56492,-1.1907 -2.61953,-1.1907c-1.90512,0 -3.43601,1.5309 -3.43601,3.33395c0,1.90512 1.5309,3.43601 3.43601,3.43601c1.08864,0 2.00717,-0.47628 2.65355,-1.22472zM379.92287,197.48437h-0.74844v-0.61236c-0.40824,0.44226 -0.98658,0.6804 -1.66698,0.6804c-1.46285,0 -2.10923,-0.64638 -2.10923,-2.27933v-2.89169h0.78246v2.89169c0,1.0206 0.47628,1.5309 1.32678,1.5309c1.0206,0 1.66698,-0.57834 1.66698,-1.70099v-2.72159h0.74844zM386.42067,195.27307h-4.42259c0.1701,0.8505 0.88452,1.56492 1.80305,1.56492c0.57834,0 1.08864,-0.30618 1.39482,-0.71442h0.95256c-0.40824,0.88452 -1.32678,1.46285 -2.34737,1.46285c-1.46285,0 -2.65355,-1.22472 -2.65355,-2.65355c0,-1.46285 1.1907,-2.65355 2.65355,-2.65355c1.42884,0 2.61953,1.1907 2.61953,2.65355zM381.99808,194.55865h3.57209c-0.1701,-0.8505 -0.88452,-1.49688 -1.76904,-1.49688c-0.91854,0 -1.63296,0.64638 -1.80305,1.49688zM387.64539,192.38138h0.78246v0.61236c0.37422,-0.44226 0.95256,-0.6804 1.66698,-0.6804c1.42884,0 2.07521,0.64638 2.07521,2.24532v2.92571h-0.78246v-2.92571c0,-0.98658 -0.47628,-1.49688 -1.29276,-1.49688c-1.05462,0 -1.66698,0.57834 -1.66698,1.701v2.72159h-0.78246zM397.51117,194.04835c-0.30618,-0.57834 -0.91854,-0.95256 -1.59894,-0.95256c-1.05462,0 -1.83708,0.81648 -1.83708,1.8711c0,0.98658 0.78246,1.8711 1.83708,1.8711c0.6804,0 1.29276,-0.40824 1.59894,-0.98658h0.88452c-0.37422,1.0206 -1.36079,1.76903 -2.48345,1.76903c-1.46285,0 -2.65355,-1.22472 -2.65355,-2.65355c0,-1.46285 1.1907,-2.65355 2.65355,-2.65355c1.12266,0 2.07521,0.74844 2.44943,1.73502zM399.17814,194.96689c0,-1.46285 1.1907,-2.65355 2.61953,-2.65355c0.78246,0 1.46286,0.37422 1.93914,0.91854v-0.81648h0.78246v5.10298h-0.78246v-0.85049c-0.47628,0.57834 -1.15668,0.95256 -1.93914,0.95256c-1.42884,0 -2.61953,-1.22472 -2.61953,-2.65355zM403.70279,194.96689c0,-1.05462 -0.91854,-1.8711 -1.90512,-1.8711c-1.0206,0 -1.80305,0.81648 -1.80305,1.8711c0,0.98658 0.78246,1.8711 1.80305,1.8711c0.98658,0 1.90512,-0.88452 1.90512,-1.8711zM266.36436,207.24808c-0.06804,-0.3402 -0.47628,-0.57834 -1.05462,-0.57834c-0.61236,0 -1.05462,0.27216 -1.05462,0.64638c0,0.40824 0.3402,0.61236 1.1907,0.78246c1.29276,0.27216 1.80306,0.71442 1.80306,1.56492c0,0.88452 -0.6804,1.5309 -1.93914,1.5309c-1.15668,0 -1.90512,-0.64638 -1.97316,-1.5309h0.71442c0.06804,0.40824 0.57834,0.78246 1.25874,0.78246c0.74844,0 1.22472,-0.3402 1.22472,-0.78246c0,-0.5103 -0.30618,-0.64638 -1.22472,-0.8505c-1.22472,-0.23814 -1.76903,-0.6804 -1.76903,-1.49687c0,-0.74844 0.61236,-1.39482 1.76903,-1.39482c0.98658,0 1.66697,0.54432 1.73501,1.32678zM268.09938,208.57486c0,-1.46285 1.1907,-2.65355 2.65355,-2.65355c1.42884,0 2.61953,1.1907 2.61953,2.65355c0,1.42884 -1.1907,2.65355 -2.61953,2.65355c-1.46285,0 -2.65355,-1.22472 -2.65355,-2.65355zM268.91586,208.57486c0,0.98658 0.78246,1.8711 1.83708,1.8711c1.0206,0 1.80305,-0.88452 1.80305,-1.8711c0,-1.05462 -0.78246,-1.8711 -1.80305,-1.8711c-1.05462,0 -1.83708,0.81648 -1.83708,1.8711zM274.59719,206.02336h0.78246v0.61236c0.37422,-0.44226 0.95256,-0.71442 1.63296,-0.71442c1.46285,0 2.10923,0.64638 2.10923,2.27933v2.89169h-0.78246v-2.89169c0,-1.0206 -0.47628,-1.49687 -1.32678,-1.49687c-1.0206,-0.03402 -1.63296,0.54432 -1.63296,1.701v2.68757h-0.78246zM288.47731,211.09233h-0.74844v-0.61236c-0.40824,0.40824 -0.98658,0.6804 -1.66698,0.6804c-1.46285,0 -2.10923,-0.64638 -2.10923,-2.27933v-2.89169h0.78246v2.89169c0,1.0206 0.47628,1.5309 1.32678,1.5309c1.0206,0 1.66698,-0.57834 1.66698,-1.701v-2.72159h0.74844zM290.11027,205.98935h0.78246v0.61236c0.40824,-0.44226 0.95256,-0.71442 1.66697,-0.71442c1.46285,0 2.07522,0.64638 2.07522,2.27933v2.8917h-0.78246v-2.8917c0,-1.0206 -0.44226,-1.49687 -1.29276,-1.49687c-1.05462,-0.03402 -1.66697,0.54432 -1.66697,1.701v2.68757h-0.78246zM295.72355,208.50682c0,-1.42884 1.1907,-2.61953 2.65355,-2.61953c0.78246,0 1.46285,0.3402 1.90511,0.88452v-0.81648h0.78246v5.10299h-0.78246v-0.81648c-0.44226,0.54432 -1.12265,0.91854 -1.90511,0.91854c-1.46285,0 -2.65355,-1.22472 -2.65355,-2.65355zM300.24821,208.50682c0,-1.0206 -0.88452,-1.8711 -1.90512,-1.8711c-1.0206,0 -1.80305,0.8505 -1.80305,1.8711c0,1.0206 0.78246,1.90512 1.80305,1.90512c1.0206,0 1.90512,-0.88452 1.90512,-1.90512zM305.3512,207.21406c-0.06804,-0.37422 -0.44226,-0.61236 -1.05462,-0.61236c-0.61236,0 -1.05462,0.30618 -1.05462,0.6804c0,0.37422 0.3402,0.57834 1.1907,0.74844c1.29276,0.27216 1.80305,0.71442 1.80305,1.56492c0,0.88452 -0.6804,1.5309 -1.93914,1.5309c-1.15668,0 -1.90511,-0.64638 -1.97315,-1.5309h0.71442c0.06804,0.44226 0.57834,0.81648 1.25874,0.81648c0.74844,0 1.25874,-0.3402 1.25874,-0.81648c0,-0.47628 -0.3402,-0.64638 -1.25874,-0.81648c-1.22472,-0.27216 -1.76903,-0.6804 -1.76903,-1.49687c0,-0.78246 0.61236,-1.39482 1.76903,-1.39482c0.98658,0 1.66698,0.54432 1.76904,1.32678zM310.9985,202.79147h0.78246v3.98033c0.44226,-0.54432 1.12266,-0.88452 1.90512,-0.88452c1.46285,0 2.65355,1.1907 2.65355,2.61953c0,1.42884 -1.1907,2.65355 -2.65355,2.65355c-0.78246,0 -1.46286,-0.37422 -1.90512,-0.91854v0.81648h-0.78246zM315.52315,208.50682c0,-1.0206 -0.78246,-1.8711 -1.80305,-1.8711c-1.0206,0 -1.90512,0.8505 -1.90512,1.8711c0,1.0206 0.88452,1.90512 1.90512,1.90512c1.0206,0 1.80305,-0.88452 1.80305,-1.90512zM321.95292,211.05831h-0.78246v-0.61236c-0.40824,0.44226 -0.95256,0.6804 -1.66698,0.6804c-1.46285,0 -2.07521,-0.64638 -2.07521,-2.24531v-2.92571h0.78246v2.92571c0,0.98658 0.44226,1.49687 1.29276,1.49687c1.0206,0 1.66698,-0.57834 1.66698,-1.701v-2.72159h0.78246zM328.45072,208.84702h-4.45661c0.1701,0.8505 0.91854,1.56492 1.80305,1.56492c0.61236,0 1.08864,-0.30618 1.42884,-0.71442h0.95256c-0.44226,0.88452 -1.3608,1.46285 -2.38139,1.46285c-1.42884,0 -2.61953,-1.22472 -2.61953,-2.65355c0,-1.46285 1.1907,-2.65355 2.61953,-2.65355c1.46285,0 2.65355,1.1907 2.65355,2.65355zM323.99411,208.1326h3.60611c-0.1701,-0.8505 -0.91854,-1.49688 -1.80306,-1.49688c-0.88452,0 -1.59894,0.64638 -1.80305,1.49688zM329.64142,205.95533h0.78246v0.61236c0.40824,-0.44226 0.98658,-0.6804 1.66698,-0.6804c1.46285,0 2.07521,0.64638 2.07521,2.27933v2.8917h-0.74844v-2.8917c0,-1.0206 -0.47628,-1.5309 -1.32678,-1.5309c-1.0206,0 -1.66698,0.57834 -1.66698,1.701v2.72159h-0.78246zM335.28873,208.54084c0,-1.46285 1.1907,-2.65355 2.61953,-2.65355c0.78246,0 1.46286,0.37422 1.93914,0.91854v-0.81648h0.74844v5.10298h-0.74844v-0.81648c-0.47628,0.54432 -1.15668,0.91854 -1.93914,0.91854c-1.42884,0 -2.61953,-1.22472 -2.61953,-2.65355zM339.77936,208.54084c0,-1.0206 -0.88452,-1.8711 -1.90512,-1.8711c-1.0206,0 -1.80305,0.8505 -1.80305,1.8711c0,0.98658 0.78246,1.90512 1.80305,1.90512c1.0206,0 1.90512,-0.91854 1.90512,-1.90512zM344.88235,207.21406c-0.06804,-0.3402 -0.44226,-0.57834 -1.05462,-0.57834c-0.61236,0 -1.0206,0.27216 -1.0206,0.6804c0,0.37422 0.30618,0.57834 1.15668,0.74844c1.29276,0.27216 1.83708,0.71442 1.83708,1.56492c0,0.88452 -0.6804,1.5309 -1.97315,1.5309c-1.12266,0 -1.90512,-0.64638 -1.93914,-1.5309h0.71442c0.06804,0.40824 0.57834,0.78246 1.22472,0.78246c0.74844,0 1.25874,-0.3402 1.25874,-0.78246c0,-0.47628 -0.3402,-0.64638 -1.25874,-0.8505c-1.1907,-0.23814 -1.73502,-0.6804 -1.73502,-1.46285c0,-0.78246 0.57834,-1.42884 1.73502,-1.42884c1.0206,0 1.70099,0.57834 1.76903,1.32678zM350.12142,208.54084c0,-1.46285 1.1907,-2.65355 2.65355,-2.65355c0.78246,0 1.46286,0.37422 1.90512,0.91854v-0.81648h0.78246v5.10298h-0.78246v-0.81648c-0.44226,0.54432 -1.12266,0.91854 -1.90512,0.91854c-1.46285,0 -2.65355,-1.22472 -2.65355,-2.65355zM354.64607,208.54084c0,-1.0206 -0.88452,-1.8711 -1.90512,-1.8711c-1.0206,0 -1.80305,0.8505 -1.80305,1.8711c0,0.98658 0.78246,1.90512 1.80305,1.90512c1.0206,0 1.90512,-0.91854 1.90512,-1.90512zM357.02746,202.82549h0.78246v8.23282h-0.78246zM364.57988,208.50682c0,1.42884 -1.1907,2.65355 -2.61954,2.65355c-0.78246,0 -1.46285,-0.37422 -1.93913,-0.91854v3.12983h-0.78246v-7.41634h0.78246v0.81648c0.47628,-0.54432 1.15667,-0.88452 1.93913,-0.88452c1.42884,0 2.61954,1.1907 2.61954,2.61953zM363.76341,208.50682c0,-1.0206 -0.74844,-1.8711 -1.80306,-1.8711c-0.98658,0 -1.8711,0.8505 -1.8711,1.8711c0,1.0206 0.88452,1.90512 1.8711,1.90512c1.05462,0 1.80306,-0.88452 1.80306,-1.90512zM365.4644,208.50682c0,-1.42884 1.1907,-2.61953 2.61953,-2.61953c0.78246,0 1.46286,0.3402 1.93914,0.88452v-0.81648h0.74844v5.10299h-0.74844v-0.81648c-0.47628,0.54432 -1.15668,0.91854 -1.93914,0.91854c-1.42884,0 -2.61953,-1.22472 -2.61953,-2.65355zM369.95503,208.50682c0,-1.0206 -0.88452,-1.8711 -1.90512,-1.8711c-1.0206,0 -1.80305,0.8505 -1.80305,1.8711c0,1.0206 0.78246,1.90512 1.80305,1.90512c1.0206,0 1.90512,-0.88452 1.90512,-1.90512zM373.18692,206.63572c0.40824,-0.47628 1.0206,-0.74844 1.701,-0.74844v0.74844c-0.88452,0 -1.701,0.54432 -1.701,1.59894v2.82366h-0.78246v-5.10299h0.78246zM380.94347,205.95533v4.62671c0,2.00717 -1.1907,2.89169 -2.65355,2.89169c-1.12266,0 -2.10923,-0.71442 -2.48346,-1.73501h0.88452c0.30618,0.57834 0.91854,0.98658 1.59894,0.98658c1.05462,0 1.83708,-0.54432 1.83708,-2.14326v-0.30618c-0.47628,0.5103 -1.12266,0.8505 -1.90512,0.8505c-1.42884,0 -2.61953,-1.1907 -2.61953,-2.61953c0,-1.42884 1.1907,-2.65355 2.61953,-2.65355c0.78246,0 1.42884,0.3402 1.90512,0.88452v-0.78246zM380.09297,208.50682c0,-1.0206 -0.88452,-1.90512 -1.90512,-1.90512c-1.0206,0 -1.80305,0.88452 -1.80305,1.90512c0,1.0206 0.78246,1.8711 1.80305,1.8711c1.0206,0 1.90512,-0.8505 1.90512,-1.8711zM382.10014,208.54084c0,-1.46285 1.1907,-2.65355 2.61953,-2.65355c0.78246,0 1.46285,0.37422 1.93913,0.91854v-0.8505h0.74844v5.13701h-0.74844v-0.85049c-0.47628,0.57834 -1.15667,0.95256 -1.93913,0.95256c-1.42884,0 -2.61953,-1.25874 -2.61953,-2.65355zM386.59077,208.54084c0,-1.05462 -0.88452,-1.90512 -1.8711,-1.90512c-1.05462,0 -1.83708,0.8505 -1.83708,1.90512c0,0.98658 0.78246,1.8711 1.83708,1.8711c0.98658,0 1.8711,-0.88452 1.8711,-1.8711zM390.12884,206.66974v4.38857h-0.78246v-4.38857h-0.78246v-0.71442h0.78246v-1.97316h0.78246v1.97316h1.12266v0.71442zM391.86386,208.54084c0,-1.46285 1.1907,-2.65355 2.65355,-2.65355c0.78246,0 1.46286,0.37422 1.90512,0.91854v-0.8505h0.78246v5.13701h-0.78246v-0.85049c-0.44226,0.57834 -1.12266,0.95256 -1.90512,0.95256c-1.46285,0 -2.65355,-1.25874 -2.65355,-2.65355zM396.38851,208.54084c0,-1.05462 -0.88452,-1.90512 -1.90512,-1.90512c-1.0206,0 -1.80305,0.8505 -1.80305,1.90512c0,0.98658 0.78246,1.8711 1.80305,1.8711c1.0206,0 1.90512,-0.88452 1.90512,-1.8711zM401.4915,207.21406c-0.06804,-0.3402 -0.44226,-0.61236 -1.05462,-0.61236c-0.61236,0 -1.05462,0.30618 -1.05462,0.6804c0,0.37422 0.3402,0.61236 1.1907,0.78246c1.29276,0.23814 1.80305,0.71442 1.80305,1.5309c0,0.91854 -0.6804,1.5309 -1.93913,1.5309c-1.15668,0 -1.90512,-0.61236 -1.97316,-1.5309h0.71442c0.06804,0.44226 0.61236,0.81648 1.25874,0.81648c0.74844,0 1.25874,-0.3402 1.25874,-0.81648c0,-0.47628 -0.3402,-0.64638 -1.25874,-0.81648c-1.22472,-0.23814 -1.76904,-0.6804 -1.76904,-1.49687c0,-0.78246 0.61236,-1.39482 1.76904,-1.39482c1.0206,0 1.66697,0.54432 1.76903,1.32678zM406.73057,208.54084c0,-1.46285 1.1907,-2.65355 2.65355,-2.65355c0.74844,0 1.46286,0.37422 1.90512,0.91854v-0.8505h0.78246v5.13701h-0.78246v-0.85049c-0.44226,0.57834 -1.15668,0.95256 -1.90512,0.95256c-1.46285,0 -2.65355,-1.25874 -2.65355,-2.65355zM411.25522,208.54084c0,-1.05462 -0.88452,-1.90512 -1.90512,-1.90512c-1.0206,0 -1.80305,0.8505 -1.80305,1.90512c0,0.98658 0.78246,1.8711 1.80305,1.8711c1.0206,0 1.90512,-0.88452 1.90512,-1.8711zM413.63661,202.79147h0.78246v8.26684h-0.78246zM271.84157,222.48901c0,1.42884 -1.1907,2.65355 -2.65355,2.65355c-0.78246,0 -1.46285,-0.37422 -1.90511,-0.95256v3.12983h-0.78246v-7.38232h0.78246v0.81648c0.44226,-0.54432 1.12265,-0.91854 1.90511,-0.91854c1.46285,0 2.65355,1.1907 2.65355,2.65355zM271.02509,222.48901c0,-1.0206 -0.78246,-1.8711 -1.80305,-1.8711c-1.0206,0 -1.90512,0.8505 -1.90512,1.8711c0,0.98658 0.88452,1.90511 1.90512,1.90511c1.0206,0 1.80305,-0.91854 1.80305,-1.90511zM272.59001,222.48901c0,-1.46285 1.1907,-2.65355 2.61953,-2.65355c1.46285,0 2.65355,1.1907 2.65355,2.65355c0,1.42884 -1.1907,2.65355 -2.65355,2.65355c-1.42884,0 -2.61953,-1.22472 -2.61953,-2.65355zM273.37246,222.48901c0,0.98658 0.81648,1.90511 1.83708,1.90511c1.0206,0 1.83708,-0.91854 1.83708,-1.90511c0,-1.0206 -0.81648,-1.8711 -1.83708,-1.8711c-1.0206,0 -1.83708,0.8505 -1.83708,1.8711zM279.83625,220.61791c0.40824,-0.47628 1.0206,-0.78246 1.73502,-0.78246v0.78246c-0.91854,0 -1.73502,0.54432 -1.73502,1.59894v2.78963h-0.78246v-5.06897h0.78246zM293.64833,222.11479v2.92571h-0.74844v-2.92571c0,-0.98658 -0.40824,-1.49687 -1.15667,-1.49687c-0.91854,0 -1.49688,0.5103 -1.49688,1.76903v2.65355h-0.78246v-2.92571c0,-0.98658 -0.37422,-1.49687 -1.15668,-1.49687c-0.91854,0 -1.49687,0.5103 -1.49687,1.76903v2.65355h-0.78246v-5.10299h0.78246v0.61236c0.3402,-0.44226 0.88452,-0.6804 1.49687,-0.6804c0.91854,0 1.46286,0.27216 1.73502,0.98658c0.3402,-0.64638 0.95256,-0.98658 1.701,-0.98658c1.32678,0 1.90511,0.64638 1.90511,2.24532zM300.11213,222.86323h-4.45661c0.1701,0.8505 0.88452,1.5309 1.80305,1.5309c0.57834,0 1.08864,-0.30618 1.39482,-0.71442h0.98658c-0.44226,0.88452 -1.3608,1.46286 -2.38139,1.46286c-1.42884,0 -2.65355,-1.22472 -2.65355,-2.65355c0,-1.42884 1.22472,-2.61954 2.65355,-2.61954c1.46285,0 2.65355,1.1907 2.65355,2.61954zM295.65551,222.08077h3.60611c-0.1701,-0.81648 -0.91854,-1.46285 -1.80305,-1.46285c-0.91854,0 -1.63296,0.64638 -1.80305,1.46285zM301.30283,219.93751h0.78246v0.61236c0.40824,-0.44226 0.98658,-0.71442 1.66697,-0.71442c1.46285,0 2.07522,0.64638 2.07522,2.27933v2.89169h-0.78246v-2.89169c0,-1.0206 -0.44226,-1.49687 -1.29276,-1.49687c-1.0206,-0.03402 -1.66697,0.54431 -1.66697,1.70099v2.68757h-0.78246zM306.91611,222.45499c0,-1.42884 1.1907,-2.61953 2.65355,-2.61953c1.42884,0 2.65355,1.1907 2.65355,2.61953c0,1.42884 -1.22472,2.65355 -2.65355,2.65355c-1.46285,0 -2.65355,-1.22472 -2.65355,-2.65355zM307.73258,222.45499c0,1.0206 0.81648,1.90511 1.83708,1.90511c1.0206,0 1.83708,-0.88452 1.83708,-1.90511c0,-1.0206 -0.81648,-1.8711 -1.83708,-1.8711c-1.0206,0 -1.83708,0.8505 -1.83708,1.8711zM314.19638,220.58389c0.40824,-0.47628 1.0206,-0.74844 1.73502,-0.74844v0.74844c-0.91854,0 -1.73502,0.54432 -1.73502,1.59894v2.82365h-0.78246v-5.10299h0.78246zM316.44169,224.42814c0,-0.37422 0.27216,-0.64638 0.64638,-0.64638c0.3402,0 0.64638,0.27216 0.64638,0.64638c0,0.3402 -0.30618,0.64638 -0.64638,0.64638c-0.37422,0 -0.64638,-0.30618 -0.64638,-0.64638zM330.25378,218.67878l-2.75562,6.3277h-1.0206l-2.75562,-6.3277v6.3277h-0.8505v-8.26684h0.95256l3.16385,7.34831l3.16385,-7.34831h0.95256v8.26684h-0.85049zM334.09803,218.7128l1.1907,-1.701h1.0206l-1.32678,1.701zM332.46507,222.48901c0,-1.46285 1.1907,-2.65355 2.61953,-2.65355c0.78246,0 1.46286,0.37422 1.93914,0.91854v-0.8505h0.74844v5.13701h-0.74844v-0.8505c-0.47628,0.57834 -1.15668,0.95256 -1.93914,0.95256c-1.42884,0 -2.61953,-1.25874 -2.61953,-2.65355zM336.9557,222.48901c0,-1.05462 -0.88452,-1.90512 -1.8711,-1.90512c-1.05462,0 -1.83708,0.8505 -1.83708,1.90512c0,0.98658 0.78246,1.87109 1.83708,1.87109c0.98658,0 1.8711,-0.88452 1.8711,-1.87109zM342.05869,221.16223c-0.06804,-0.3402 -0.44226,-0.61236 -1.05462,-0.61236c-0.61236,0 -1.0206,0.30618 -1.0206,0.6804c0,0.37422 0.3402,0.61236 1.15668,0.78246c1.29276,0.23814 1.83708,0.71442 1.83708,1.5309c0,0.91854 -0.6804,1.5309 -1.97316,1.5309c-1.12266,0 -1.90511,-0.61236 -1.93913,-1.5309h0.71442c0.06804,0.44226 0.57834,0.81647 1.22472,0.81647c0.74844,0 1.25874,-0.3402 1.25874,-0.81647c0,-0.47628 -0.3402,-0.64638 -1.25874,-0.81648c-1.1907,-0.23814 -1.73501,-0.6804 -1.73501,-1.49688c0,-0.78246 0.57834,-1.39481 1.73501,-1.39481c1.0206,0 1.701,0.54432 1.76904,1.32678zM346.99158,219.90349h0.81648l1.70099,4.08239l1.66698,-4.08239h0.8505l-2.10923,5.10299h-0.8505zM352.46879,222.48901c0,-1.46285 1.1907,-2.65355 2.61953,-2.65355c0.78246,0 1.46286,0.37422 1.93914,0.91854v-0.81648h0.78246v5.10299h-0.78246v-0.81648c-0.47628,0.54432 -1.15668,0.91854 -1.93914,0.91854c-1.42884,0 -2.61953,-1.22472 -2.61953,-2.65355zM356.99344,222.48901c0,-1.0206 -0.91854,-1.8711 -1.90512,-1.8711c-1.0206,0 -1.80305,0.8505 -1.80305,1.8711c0,0.98658 0.78246,1.90511 1.80305,1.90511c0.98658,0 1.90512,-0.91854 1.90512,-1.90511zM359.37483,216.77366h0.74844v8.23282h-0.74844zM366.55304,222.82921h-4.42259c0.1701,0.8505 0.88452,1.5309 1.80305,1.5309c0.57834,0 1.08864,-0.30618 1.39482,-0.71442h0.98658c-0.44226,0.88452 -1.3608,1.46286 -2.38139,1.46286c-1.46285,0 -2.65355,-1.22472 -2.65355,-2.65355c0,-1.42884 1.1907,-2.61953 2.65355,-2.61953c1.42884,0 2.61953,1.1907 2.61953,2.61953zM362.13045,222.04675h3.60611c-0.20412,-0.81648 -0.91854,-1.46285 -1.80305,-1.46285c-0.91854,0 -1.63296,0.64638 -1.80305,1.46285zM375.09204,221.53645c-0.30618,-0.57834 -0.91854,-0.95256 -1.59894,-0.95256c-1.05462,0 -1.83708,0.81648 -1.83708,1.8711c0,0.98658 0.78246,1.8711 1.83708,1.8711c0.6804,0 1.29276,-0.40824 1.59894,-0.98658h0.88452c-0.37422,1.0206 -1.3608,1.76904 -2.48346,1.76904c-1.46285,0 -2.65355,-1.22472 -2.65355,-2.65355c0,-1.46285 1.1907,-2.65355 2.65355,-2.65355c1.12266,0 2.10923,0.74844 2.44944,1.73501zM382.0321,222.79518h-4.42259c0.1701,0.8505 0.88452,1.5309 1.80306,1.5309c0.57834,0 1.08863,-0.27216 1.39481,-0.6804h0.95256c-0.40824,0.88452 -1.32678,1.46286 -2.34737,1.46286c-1.46285,0 -2.65355,-1.22472 -2.65355,-2.65355c0,-1.46285 1.1907,-2.65355 2.65355,-2.65355c1.42884,0 2.61953,1.1907 2.61953,2.65355zM377.60951,222.08077h3.57209c-0.1701,-0.8505 -0.88452,-1.49687 -1.76903,-1.49687c-0.91854,0 -1.63296,0.64638 -1.80306,1.49687zM385.91037,221.16223c-0.06804,-0.3402 -0.44226,-0.61236 -1.05462,-0.61236c-0.61236,0 -1.0206,0.30618 -1.0206,0.6804c0,0.37422 0.30618,0.61236 1.15668,0.74844c1.29276,0.27216 1.83708,0.71442 1.83708,1.56492c0,0.88452 -0.6804,1.5309 -1.97316,1.5309c-1.15668,0 -1.90511,-0.64638 -1.93913,-1.5309h0.6804c0.06804,0.44226 0.61236,0.81647 1.25874,0.81647c0.74844,0 1.25874,-0.3402 1.25874,-0.81647c0,-0.47628 -0.3402,-0.64638 -1.25874,-0.81648c-1.22472,-0.23814 -1.76903,-0.6804 -1.76903,-1.49688c0,-0.78246 0.61236,-1.39481 1.76903,-1.39481c1.0206,0 1.66698,0.54432 1.76904,1.32678zM389.17629,220.61791v4.38857h-0.78246v-4.38857h-0.74844v-0.71442h0.74844v-2.00717h0.78246v2.00717h1.15668v0.71442zM390.97934,222.45499c0,-1.42884 1.1907,-2.61953 2.61953,-2.61953c1.46285,0 2.65355,1.1907 2.65355,2.61953c0,1.42884 -1.1907,2.65355 -2.65355,2.65355c-1.42884,0 -2.61953,-1.22472 -2.61953,-2.65355zM391.7618,222.45499c0,1.0206 0.81648,1.90511 1.83708,1.90511c1.0206,0 1.83708,-0.88452 1.83708,-1.90511c0,-1.0206 -0.81648,-1.8711 -1.83708,-1.8711c-1.0206,0 -1.83708,0.8505 -1.83708,1.8711zM405.77801,222.82921h-4.42259c0.1701,0.8505 0.88452,1.5309 1.80305,1.5309c0.57834,0 1.08864,-0.30618 1.39482,-0.71442h0.98658c-0.44226,0.88452 -1.3608,1.46286 -2.38139,1.46286c-1.46285,0 -2.65355,-1.22472 -2.65355,-2.65355c0,-1.42884 1.1907,-2.61953 2.65355,-2.61953c1.42884,0 2.61954,1.1907 2.61954,2.61953zM401.35542,222.08077h3.60611c-0.20412,-0.8505 -0.91854,-1.49687 -1.80306,-1.49687c-0.91854,0 -1.63296,0.64638 -1.80305,1.49687zM407.00273,219.90349h0.78246v0.61236c0.40824,-0.44226 0.95256,-0.71442 1.66698,-0.71442c1.46285,0 2.07521,0.64638 2.07521,2.27933v2.89169h-0.78246v-2.89169c0,-1.0206 -0.44226,-1.49687 -1.29276,-1.49687c-1.0206,-0.03402 -1.66698,0.54431 -1.66698,1.70099v2.68757h-0.78246zM285.31345,235.99492v2.92571h-0.78246v-2.92571c0,-0.98658 -0.37422,-1.49688 -1.12266,-1.49688c-0.95256,0 -1.5309,0.5103 -1.5309,1.76904v2.65355h-0.78246v-2.92571c0,-0.98658 -0.37422,-1.49688 -1.12266,-1.49688c-0.95256,0 -1.5309,0.5103 -1.5309,1.76904v2.65355h-0.78246v-5.10299h0.78246v0.61236c0.37422,-0.44226 0.88452,-0.6804 1.5309,-0.6804c0.88452,0 1.42883,0.27216 1.70099,0.98658c0.37422,-0.64638 0.95256,-0.98658 1.73502,-0.98658c1.29276,0 1.90512,0.64638 1.90512,2.24532zM286.47014,236.36913c0,-1.42884 1.1907,-2.61953 2.61954,-2.61953c0.78246,0 1.46285,0.3402 1.93913,0.91854v-0.8505h0.78246v5.10299h-0.78246v-0.81648c-0.47628,0.57834 -1.15667,0.91854 -1.93913,0.91854c-1.42884,0 -2.61954,-1.22472 -2.61954,-2.65355zM290.96076,236.36913c0,-1.0206 -0.88452,-1.8711 -1.87109,-1.8711c-1.05462,0 -1.80306,0.8505 -1.80306,1.8711c0,1.0206 0.74844,1.90512 1.80306,1.90512c0.98658,0 1.87109,-0.88452 1.87109,-1.90512zM293.4102,233.81764h0.78246v0.61236c0.40824,-0.44226 0.95256,-0.6804 1.66698,-0.6804c1.46285,0 2.07521,0.64638 2.07521,2.24532v2.92571h-0.78246v-2.92571c0,-0.98658 -0.44226,-1.49688 -1.29276,-1.49688c-1.0206,-0.03402 -1.66698,0.54432 -1.66698,1.701v2.72159h-0.78246zM299.02349,236.40315c0,-1.46285 1.1907,-2.65355 2.65355,-2.65355c1.42884,0 2.61953,1.1907 2.61953,2.65355c0,1.39482 -1.1907,2.65355 -2.61953,2.65355c-1.46285,0 -2.65355,-1.25874 -2.65355,-2.65355zM299.83997,236.40315c0,0.98658 0.81648,1.8711 1.83708,1.8711c1.0206,0 1.83708,-0.88452 1.83708,-1.8711c0,-1.05462 -0.81648,-1.90512 -1.83708,-1.90512c-1.0206,0 -1.83708,0.8505 -1.83708,1.90512zM313.2098,238.10415c-0.47628,0.57834 -1.15668,0.95256 -1.93914,0.95256c-1.42884,0 -2.61953,-1.25874 -2.61953,-2.65355c0,-1.46285 1.1907,-2.65355 2.61953,-2.65355c0.78246,0 1.46286,0.37422 1.93914,0.91854v-0.8505h0.78246v7.41634h-0.78246zM313.17578,236.40315c0,-1.0206 -0.91854,-1.8711 -1.90512,-1.8711c-1.0206,0 -1.80305,0.8505 -1.80305,1.8711c0,0.98658 0.78246,1.90512 1.80305,1.90512c0.98658,0 1.90512,-0.91854 1.90512,-1.90512zM319.94574,238.92063h-0.78246v-0.61236c-0.40824,0.44226 -0.95256,0.71442 -1.66697,0.71442c-1.42884,0 -2.07522,-0.64638 -2.07522,-2.27933v-2.89169h0.78246v2.89169c0,1.0206 0.47628,1.49687 1.29276,1.49687c1.05462,0 1.66697,-0.57834 1.66697,-1.70099v-2.68757h0.78246zM326.44354,236.77738h-4.42259c0.13608,0.8505 0.88452,1.5309 1.76903,1.5309c0.61236,0 1.08864,-0.27216 1.42884,-0.71442h0.95256c-0.44226,0.88452 -1.32678,1.49687 -2.38139,1.49687c-1.42884,0 -2.61953,-1.25874 -2.61953,-2.68757c0,-1.42884 1.1907,-2.61953 2.61953,-2.61953c1.46285,0 2.65355,1.1907 2.65355,2.61953zM322.02096,236.02894h3.57209c-0.1701,-0.8505 -0.88452,-1.49688 -1.80305,-1.49688c-0.88452,0 -1.59894,0.64638 -1.76903,1.49688zM334.94853,235.48462c-0.30618,-0.57834 -0.88452,-0.95256 -1.59894,-0.95256c-1.0206,0 -1.83708,0.8505 -1.83708,1.8711c0,1.0206 0.81648,1.90512 1.83708,1.90512c0.71442,0 1.29276,-0.44226 1.59894,-1.0206h0.88452c-0.3402,1.05462 -1.32678,1.76903 -2.48346,1.76903c-1.42884,0 -2.61953,-1.22472 -2.61953,-2.65355c0,-1.46285 1.1907,-2.65355 2.61953,-2.65355c1.12266,0 2.10923,0.74844 2.48346,1.73502zM336.9557,232.25273c0,-0.27216 0.23814,-0.5103 0.54432,-0.5103c0.30618,0 0.54432,0.23814 0.54432,0.5103c0,0.30618 -0.23814,0.57834 -0.54432,0.57834c-0.30618,0 -0.54432,-0.27216 -0.54432,-0.57834zM337.12581,233.85166h0.81648v5.06897h-0.81648zM344.44009,236.74336h-4.45661c0.1701,0.8505 0.91854,1.5309 1.80305,1.5309c0.61236,0 1.08864,-0.27216 1.42884,-0.71442h0.95256c-0.44226,0.88452 -1.3608,1.49687 -2.38139,1.49687c-1.42884,0 -2.61953,-1.25874 -2.61953,-2.68757c0,-1.42884 1.1907,-2.61953 2.61953,-2.61953c1.46285,0 2.65355,1.1907 2.65355,2.61953zM339.98348,235.99492h3.60611c-0.1701,-0.8505 -0.91854,-1.49688 -1.80305,-1.49688c-0.88452,0 -1.59894,0.64638 -1.80305,1.49688zM346.41324,234.49804c0.40824,-0.47628 1.0206,-0.78246 1.73501,-0.78246v0.78246c-0.91854,0 -1.73501,0.54432 -1.73501,1.59894v2.78964h-0.78246v-5.06897h0.78246zM350.25749,234.53206v4.38857h-0.78246v-4.38857h-0.74844v-0.71442h0.74844v-2.00718h0.78246v2.00718h1.15668v0.71442zM352.06055,236.36913c0,-1.42884 1.1907,-2.61953 2.61953,-2.61953c1.46285,0 2.65355,1.1907 2.65355,2.61953c0,1.42884 -1.1907,2.65355 -2.65355,2.65355c-1.42884,0 -2.61953,-1.22472 -2.61953,-2.65355zM352.87703,236.36913c0,1.0206 0.78246,1.90512 1.80305,1.90512c1.05462,0 1.83708,-0.88452 1.83708,-1.90512c0,-1.0206 -0.78246,-1.8711 -1.83708,-1.8711c-1.0206,0 -1.80305,0.8505 -1.80305,1.8711zM362.02839,230.65379h0.74844v4.01435c0.47628,-0.57834 1.15668,-0.91854 1.93914,-0.91854c1.42884,0 2.61953,1.1907 2.61953,2.61953c0,1.42884 -1.1907,2.65355 -2.61953,2.65355c-0.78246,0 -1.46286,-0.3402 -1.93914,-0.91854v0.81648h-0.74844zM366.51902,236.40315c0,-1.05462 -0.74844,-1.90512 -1.80305,-1.90512c-0.98658,0 -1.8711,0.8505 -1.8711,1.90512c0,0.98658 0.88452,1.8711 1.8711,1.8711c1.05462,0 1.80305,-0.88452 1.80305,-1.8711zM368.15197,236.40315c0,-1.46285 1.1907,-2.65355 2.65355,-2.65355c1.42884,0 2.61953,1.1907 2.61953,2.65355c0,1.39482 -1.1907,2.65355 -2.61953,2.65355c-1.46285,0 -2.65355,-1.25874 -2.65355,-2.65355zM368.96845,236.40315c0,0.98658 0.78246,1.8711 1.83708,1.8711c1.0206,0 1.80305,-0.88452 1.80305,-1.8711c0,-1.05462 -0.78246,-1.90512 -1.80305,-1.90512c-1.05462,0 -1.83708,0.8505 -1.83708,1.90512zM374.58174,230.65379h0.78246v8.26684h-0.78246zM376.52088,236.40315c0,-1.46285 1.1907,-2.65355 2.61953,-2.65355c0.78246,0 1.46285,0.37422 1.93913,0.91854v-0.81648h0.78246v5.10299h-0.78246v-0.8505c-0.47628,0.57834 -1.15667,0.95256 -1.93913,0.95256c-1.42884,0 -2.61953,-1.22472 -2.61953,-2.65355zM381.01151,236.40315c0,-1.05462 -0.88452,-1.8711 -1.8711,-1.8711c-1.05462,0 -1.80305,0.81648 -1.80305,1.8711c0,0.98658 0.74844,1.90512 1.80305,1.90512c0.98658,0 1.8711,-0.91854 1.8711,-1.90512zM384.2434,234.53206c0.40824,-0.47628 1.0206,-0.78246 1.73501,-0.78246v0.78246c-0.91854,0 -1.73501,0.54432 -1.73501,1.59894v2.78964h-0.78246v-5.06897h0.78246zM391.21748,238.13817c-0.47628,0.54432 -1.15668,0.91854 -1.90512,0.91854c-1.46285,0 -2.65355,-1.22472 -2.65355,-2.65355c0,-1.42884 1.1907,-2.61953 2.65355,-2.61953c0.74844,0 1.42884,0.3402 1.90512,0.88452v-3.98033h0.78246v8.26684h-0.78246zM391.18346,236.40315c0,-1.0206 -0.91854,-1.8711 -1.90511,-1.8711c-1.0206,0 -1.80306,0.8505 -1.80306,1.8711c0,1.0206 0.78246,1.90512 1.80306,1.90512c0.98658,0 1.90511,-0.88452 1.90511,-1.90512zM393.15662,236.40315c0,-1.42884 1.1907,-2.61953 2.61953,-2.61953c1.46285,0 2.65355,1.1907 2.65355,2.61953c0,1.42884 -1.1907,2.68757 -2.65355,2.68757c-1.42884,0 -2.61953,-1.25874 -2.61953,-2.68757zM393.9731,236.40315c0,1.0206 0.78246,1.90512 1.80305,1.90512c1.05462,0 1.83708,-0.88452 1.83708,-1.90512c0,-1.0206 -0.78246,-1.8711 -1.83708,-1.8711c-1.0206,0 -1.80305,0.8505 -1.80305,1.8711zM399.11011,238.34229c0,-0.3402 0.30618,-0.61236 0.64638,-0.61236c0.3402,0 0.64638,0.27216 0.64638,0.61236c0,0.37422 -0.30618,0.6804 -0.64638,0.6804c-0.3402,0 -0.64638,-0.30618 -0.64638,-0.6804z" fill="#000000" stroke="none" stroke-width="1"/><path d="M103.30728,205.24492c0,4 0.2,6.7 0.4,7.6c0.4,0 1.1,0.2 1.5,0.4l-0.1,0.6c-1.4,-0.1 -2.5,-0.2 -3.9,-0.2c-1.2,0 -2.5,0.1 -3.6,0.2l-0.1,-0.6c0.3,-0.2 1,-0.4 1.4,-0.5c0,-0.6 0.2,-2.2 0.3,-4.8c-0.5,-0.1 -1.1,-0.1 -1.9,-0.1c-0.8,0 -1.5,0 -2,0.1c-0.3,1.8 -0.4,2.9 -0.4,3.4c0,0.9 0.1,1.7 1.1,2.1l-0.1,0.4c-0.6,-0.1 -1.8,-0.2 -2.8,-0.2c-1.2,0 -2.4,0 -3.6,0.2l-0.1,-0.6c0.3,-0.2 1,-0.4 1.4,-0.5l3.6,-13.6c-0.6,0 -2.3,0.1 -2.7,0.5c-0.2,0.4 -0.3,0.9 -0.3,1.2c0,0.5 0.2,0.8 0.4,1v0.2c-0.8,0.3 -1.4,0.7 -2,1.2c-0.5,0 -0.7,-0.3 -0.7,-0.7c0,-2.3 2.7,-4.8 4.8,-5.5c3,0.4 5.7,0.7 8.6,1c0.3,-0.4 0.6,-0.9 0.8,-1.5l0.6,0.2c-0.4,2.2 -0.6,5.4 -0.6,8.5zM99.20728,205.54492c0,-2.2 -0.1,-4.5 -0.2,-6.1h-0.1c-0.5,-0.1 -1.6,-0.2 -2.2,-0.2l-1.2,6.9c0.5,0 1.2,0.1 1.8,0.1c0.8,0 1.4,0 1.9,-0.1zM108.50728,206.94492c0,-2.4 -0.2,-4.8 -0.3,-5.8c-0.3,-0.1 -0.7,-0.3 -1,-0.3v-0.6c1.7,0 4.9,-0.2 6.6,-0.2c3,0 5.4,0.4 5.4,3.4c0,2.7 -2.9,4.4 -5.6,4.4c-0.1,0 -0.4,0 -0.6,0l0.2,-1h0.2c1.4,0 1.7,-1.7 1.7,-3.1c0,-1.5 -0.3,-2.7 -1.8,-2.7c-0.3,0 -0.6,0.1 -0.8,0.1c-0.1,0.9 -0.2,3.3 -0.2,5.6c0,3.2 0.1,5.4 0.2,6.2h0.1c0.3,0 0.8,0.2 1.2,0.3l-0.1,0.6c-1.1,-0.2 -2.2,-0.2 -3.3,-0.2c-1,0 -2,0 -3,0.2l-0.1,-0.6c0.3,-0.2 0.6,-0.3 0.9,-0.4c0.1,-0.6 0.3,-2.5 0.3,-5.9zM132.30728,203.44492c0,1.5 -1,2.8 -2.4,3.5l3.2,5.9c0.3,0.1 0.9,0.3 1.2,0.4l-0.1,0.6c-0.9,-0.2 -2.4,-0.2 -3.3,-0.2c-0.8,0 -1.9,0 -2.7,0.1l-0.1,-0.4c0.2,-0.2 0.4,-0.7 0.4,-1.3c0,-0.8 -0.3,-2.1 -1.3,-4.6c-0.3,0 -0.7,-0.1 -1,-0.1l0.1,-1h0.2c1.3,0 1.7,-1.3 1.7,-2.6c0,-1.5 -0.4,-2.7 -1.8,-2.7c-0.2,0 -0.5,0 -0.8,0.1c-0.1,0.9 -0.2,3.3 -0.2,5.6c0,3.2 0.2,5.4 0.3,6.2c0.4,0 0.8,0.2 1.2,0.3l-0.1,0.6c-1,-0.2 -2.2,-0.2 -3.3,-0.2c-1,0 -2,0 -3,0.2l-0.1,-0.6c0.3,-0.2 0.6,-0.3 0.9,-0.4c0.1,-0.7 0.3,-2.5 0.3,-5.9c0,-2.4 -0.2,-4.8 -0.3,-5.8c-0.2,-0.1 -0.6,-0.3 -0.9,-0.3v-0.6c1.7,0 4.8,-0.2 6.5,-0.2c3,0 5.4,0.4 5.4,3.4zM144.50728,210.44492l0.4,0.4c-1.1,1.4 -2.6,2.6 -4.2,3.1c-3.8,0.1 -6.2,-2 -6.2,-5.8c0,-4.1 2.8,-7.4 6.8,-8.4c1.3,0 3.1,0.2 4.4,0.4l-0.1,0.6c-0.3,0 -0.6,0 -0.9,0.2c-0.4,1 -0.6,2.1 -0.6,3.2h-0.7c-0.1,-0.6 -0.2,-1.2 -0.2,-1.8c-0.6,-0.5 -1.6,-0.9 -2.5,-0.9c-0.5,0 -1,0.1 -1.4,0.4c-0.4,1 -0.6,2.6 -0.7,3.6c0.5,0.2 1.3,0.3 1.9,0.3c1,0 1.6,-0.2 2.2,-0.8l0.6,0.2c-0.2,0.6 -0.3,1.2 -0.3,1.7c0,0.7 0.1,1.3 0.2,1.9l-0.6,0.1c-0.2,-0.4 -0.3,-1 -0.4,-1.5c-0.6,-0.1 -1.2,-0.1 -1.7,-0.1c-0.4,0 -1.3,0 -1.9,0.2c0,2.3 0.4,4.3 2.7,4.3c1.3,0 2.2,-0.5 3.2,-1.3zM147.60728,206.84492c0,-1.9 -0.1,-4.7 -0.3,-6c-0.3,-0.1 -0.7,-0.2 -1,-0.4l0.1,-0.6c1,0.2 2.3,0.3 3.3,0.3c1.2,0 2.6,-0.1 3.3,-0.2l0.1,0.4c-0.3,0.1 -0.5,0.3 -0.5,0.6c0,0.7 0.1,1.1 4.3,7.9v-0.1v-2c0,-4.4 -0.2,-5.9 -1.9,-6.3l0.1,-0.5c0.4,0.1 1,0.2 2.6,0.2c1,0 1.9,-0.1 2.7,-0.2l0.1,0.5c-0.4,0.2 -0.8,0.3 -1.2,0.4c-0.2,1.2 -0.3,3.5 -0.3,6c0,3.5 0.1,4.8 0.3,6c0.4,0.1 0.8,0.2 1.2,0.4l-0.1,0.5c-1,-0.1 -2.1,-0.1 -3.2,-0.1c-0.7,0 -1.8,0 -2.3,0.1c0,-1.1 -0.7,-2.1 -5.1,-9.6l-0.1,0.1v1.6c0,3.7 0.1,6.1 1.2,7c0.4,0.1 0.8,0.2 1.2,0.4l-0.1,0.5c-1,-0.1 -1.4,-0.1 -2.5,-0.1c-1,0 -2,0 -3,0.2l-0.1,-0.6c0.3,-0.2 0.6,-0.3 0.9,-0.4c0.2,-1.2 0.3,-3.1 0.3,-6zM164.20728,213.14492c-0.2,0.3 -0.4,0.7 -0.5,1l-0.5,-0.1c0.4,-2.1 0.6,-4.9 0.6,-7.1c0,-2.8 -0.2,-5.1 -0.3,-5.8c-0.3,-0.2 -0.7,-0.3 -1,-0.4v-0.6c2.1,0 4.7,-0.1 6.8,-0.1c4.1,0 6.4,1.5 6.4,5.6c0,4.1 -3.1,7.6 -7.1,8.3c-1.4,0 -3.1,-0.4 -4.4,-0.8zM167.70728,201.34492c-0.1,1.4 -0.1,2.6 -0.1,5.6c0,1.4 0,3.3 0.1,4.7c0.5,0.4 1.2,0.6 1.8,0.6c0.5,0 0.9,-0.1 1.3,-0.4c0.6,-1.4 0.8,-3.2 0.8,-4.8c0,-2.7 -0.4,-5.8 -3.1,-5.8c-0.3,0 -0.5,0 -0.8,0.1zM178.80728,206.84492c0,-2.6 -0.2,-5.2 -0.3,-6c-0.3,-0.1 -0.7,-0.2 -0.9,-0.4v-0.6c1,0.2 2.1,0.3 3.1,0.3c1.1,0 2.2,-0.1 3.3,-0.2l0.1,0.5c-0.4,0.2 -0.9,0.3 -1.2,0.4c-0.1,0.7 -0.3,3.2 -0.3,5.8c0,3.2 0.2,5.5 0.3,6.2c0.4,0.1 0.8,0.2 1.2,0.4l-0.1,0.5c-1,-0.1 -2.2,-0.1 -3.3,-0.1c-1,0 -2,0 -3,0.2l-0.1,-0.6c0.3,-0.2 0.6,-0.3 0.9,-0.4c0.1,-0.6 0.3,-2.5 0.3,-6zM196.20728,199.54492l0.4,0.3c-0.4,0.4 -0.9,1.3 -1.4,2.3l-4.7,9.6h0.1h1.2c0.9,0 1.9,-0.2 2.4,-0.9c0.1,-0.4 0.1,-1 0.1,-1.4l0.6,-0.1c0.2,1.6 0.5,3.3 1.6,4.4l-0.5,0.4c-0.2,-0.2 -0.3,-0.3 -0.5,-0.4c-2.1,-0.3 -5,-0.5 -7.3,-0.5c-1.4,0 -2.7,0.2 -3.2,0.8l-0.4,-0.4c0.4,-0.4 1,-1.5 1.6,-2.4l5.4,-9.4l-0.1,-0.1h-1.8c-0.9,0 -1.7,0.1 -2.3,0.8c-0.2,0.5 -0.4,1.1 -0.6,1.5l-0.6,-0.1c0.1,-0.4 0.1,-1.1 0.1,-1.5c0,-0.5 -0.1,-1.2 -0.2,-1.7c-0.3,-0.2 -0.6,-0.3 -1,-0.4l0.2,-0.6c1.7,0 5.1,0.5 8.4,0.5c1.3,0 1.8,-0.1 2.5,-0.7zM96.90728,221.34492c0.6,0 1.4,0 2.1,-0.2v0.5c-0.5,0.1 -0.8,0.3 -0.8,0.8c0,0.8 0.5,2.7 1.7,8.1l0.2,0.7l0.2,-0.1c0,-0.4 -0.1,-0.5 2.2,-8.7c0,-0.4 -0.3,-0.7 -0.7,-0.8l0.1,-0.4c0.8,0.1 2.1,0.1 3.2,0.1c1,0 2.7,0 3.7,-0.2l0.1,0.6c-0.3,0.2 -0.8,0.4 -1.1,0.5c-0.1,0.5 -0.2,1.4 -0.2,1.8c0,2.7 0.7,10.1 1.3,12.7c0.4,0.1 1.3,0.3 1.7,0.5l-0.1,0.6c-1.2,-0.2 -2.4,-0.2 -3.7,-0.2c-1.1,0 -2.4,0 -3.6,0.2l-0.1,-0.7c0.3,-0.1 0.9,-0.4 1.2,-0.4c-0.1,-3.6 -0.3,-7.5 -0.9,-11l-0.1,-0.1c-2.2,6.7 -2.3,7.9 -2.3,9.4c-1.3,0.4 -2.4,0.9 -3.7,1.8l-0.3,-0.1c0,-0.3 0,-0.6 0,-0.9c0,-2.7 -1.6,-7.6 -2.6,-10.2l-0.2,0.1l-0.3,3.2c-0.2,2 -0.3,4.9 -0.3,6c0,0.9 0.2,1.9 1.1,2.4l-0.1,0.4c-0.7,-0.1 -1.7,-0.1 -2.4,-0.1c-1,0 -1.7,0 -2.7,0.2l-0.1,-0.7c0.3,-0.2 1,-0.4 1.4,-0.4l2.2,-13.7c-0.7,0.1 -2.2,0.2 -2.6,0.6c-0.2,0.3 -0.3,0.8 -0.3,1.2c0,0.5 0.2,0.8 0.4,1v0.1c-0.8,0.3 -1.4,0.7 -2,1.3c-0.5,0 -0.7,-0.3 -0.7,-0.7c0,-2.3 2.7,-4.8 4.9,-5.5c1,0 2.5,0.3 4.2,0.3zM121.30728,234.44492l0.4,0.5c-1,1.3 -2.5,2.5 -4.2,3.1c-3.8,0 -6.2,-2.1 -6.2,-5.9c0,-4 2.8,-7.4 6.8,-8.4c1.3,0 3.1,0.2 4.4,0.4v0.6c-0.4,0 -0.6,0.1 -1,0.2c-0.3,1 -0.6,2.1 -0.6,3.2h-0.6c-0.2,-0.5 -0.3,-1.2 -0.3,-1.8c-0.6,-0.5 -1.6,-0.8 -2.4,-0.8c-0.5,0 -1.1,0.1 -1.4,0.3c-0.4,1 -0.7,2.6 -0.7,3.7c0.4,0.1 1.2,0.2 1.8,0.2c1.1,0 1.7,-0.1 2.3,-0.7l0.5,0.1c-0.2,0.6 -0.3,1.2 -0.3,1.8c0,0.6 0.1,1.3 0.3,1.8l-0.6,0.1c-0.2,-0.4 -0.4,-1 -0.5,-1.5c-0.5,-0.1 -1.1,-0.1 -1.7,-0.1c-0.4,0 -1.2,0 -1.9,0.2c0,2.3 0.4,4.3 2.8,4.3c1.3,0 2.1,-0.5 3.1,-1.3zM124.50728,230.84492c0,-2.5 -0.2,-5.2 -0.3,-5.9c-0.3,-0.1 -0.7,-0.3 -1,-0.4l0.1,-0.6c1,0.1 2.1,0.2 3.1,0.2c1,0 2.2,-0.1 3.3,-0.2v0.5c-0.3,0.2 -0.8,0.3 -1.2,0.4c-0.1,0.7 -0.2,3.3 -0.2,5.8c0,2.6 0,4.3 0.1,5.4c0.3,0 0.9,0.1 1.1,0.1c0.7,0 1.3,-0.1 1.8,-0.3c0.1,-0.6 0.2,-1 0.3,-1.7h0.6c0,1.4 0.1,2.5 0.8,3.3l-0.1,0.5c-1.2,-0.2 -3.4,-0.3 -4.6,-0.3c-1.8,0 -3.4,0 -4.9,0.2l-0.1,-0.6c0.2,-0.2 0.6,-0.3 0.9,-0.4c0.1,-0.6 0.3,-2.4 0.3,-6zM139.90728,223.74492c3.8,0 6.2,2 6.2,5.8c0,4.1 -2.5,7.5 -6.5,8.5c-3.9,0 -6.5,-2.4 -6.5,-5.9c0,-4.1 2.8,-7.4 6.8,-8.4zM138.00728,225.84492c-0.6,1.3 -0.8,3.3 -0.8,4.8c0,2.3 0.5,5.6 2.8,5.6c0.5,0 0.9,-0.1 1.2,-0.4c0.6,-1.3 0.8,-3.3 0.8,-4.7c0,-2.6 -0.2,-5.6 -2.8,-5.6c-0.4,0 -0.9,0.1 -1.2,0.3zM137.90728,223.44492l-0.3,-0.6c2.3,-1.2 3.9,-3 5,-4.8c0.1,-0.1 0.5,-0.1 0.8,-0.1c0.2,0 0.3,0 0.4,0c0.3,0.6 0.6,2.2 0.6,3.1zM149.60728,237.24492c-0.2,0.2 -0.4,0.6 -0.5,1l-0.5,-0.2c0.4,-2 0.5,-4.8 0.5,-7c0,-2.9 -0.1,-5.2 -0.2,-5.9c-0.3,-0.1 -0.7,-0.3 -1,-0.3v-0.6c2.1,0 4.7,-0.2 6.8,-0.2c4.1,0 6.4,1.5 6.4,5.6c0,4.1 -3.1,7.6 -7.1,8.4c-1.4,0 -3.2,-0.4 -4.4,-0.8zM153.10728,225.34492c-0.1,1.4 -0.2,2.6 -0.2,5.6c0,1.4 0.1,3.4 0.2,4.8c0.5,0.3 1.2,0.5 1.8,0.5c0.4,0 0.9,-0.1 1.3,-0.3c0.6,-1.4 0.8,-3.3 0.8,-4.9c0,-2.7 -0.4,-5.8 -3.1,-5.8c-0.3,0 -0.6,0 -0.8,0.1zM164.20728,230.84492c0,-2.6 -0.2,-5.2 -0.3,-5.9c-0.3,-0.1 -0.7,-0.3 -1,-0.4l0.1,-0.6c1,0.1 2.1,0.2 3.1,0.2c1,0 2.2,-0.1 3.3,-0.2v0.5c-0.3,0.2 -0.8,0.3 -1.2,0.4c-0.1,0.7 -0.2,3.2 -0.2,5.8c0,3.3 0.2,5.6 0.3,6.3c0.3,0 0.8,0.2 1.2,0.3l-0.1,0.6c-1.1,-0.2 -2.2,-0.2 -3.3,-0.2c-1,0 -2,0 -3,0.2l-0.1,-0.6c0.3,-0.2 0.6,-0.3 0.9,-0.4c0.1,-0.6 0.3,-2.5 0.3,-6zM181.10728,234.44492l0.4,0.5c-1.1,1.3 -2.5,2.5 -4.2,3.1c-3.8,0 -6.2,-2.1 -6.2,-5.9c0,-4 2.8,-7.4 6.8,-8.4c1.3,0 3.1,0.2 4.4,0.4l-0.1,0.6c-0.3,0 -0.6,0.1 -0.9,0.2c-0.4,1 -0.6,2.1 -0.6,3.2h-0.7c-0.1,-0.5 -0.2,-1.2 -0.2,-1.8c-0.6,-0.5 -1.6,-0.8 -2.4,-0.8c-0.5,0 -1.1,0 -1.5,0.3c-0.5,1.2 -0.7,3.4 -0.7,4.8c0,2.6 0.1,5.1 2.8,5.1c1.2,0 2.1,-0.5 3.1,-1.3zM189.20728,223.74492c3.9,0 6.2,2 6.2,5.9c0,4 -2.5,7.4 -6.5,8.4c-3.9,0 -6.5,-2.4 -6.5,-5.9c0,-4 2.9,-7.4 6.8,-8.4zM187.30728,225.84492c-0.5,1.3 -0.8,3.4 -0.8,4.8c0,2.3 0.5,5.6 2.9,5.6c0.4,0 0.8,-0.1 1.2,-0.4c0.5,-1.3 0.7,-3.3 0.7,-4.6c0,-2.7 -0.2,-5.7 -2.8,-5.7c-0.4,0 -0.8,0.1 -1.2,0.3z" fill="#290000" stroke="none" stroke-width="1"/><path d="M76.03096,69.77288c0.23868,0 0.65637,0.11934 0.89505,0.23868l-0.05967,0.35802c-0.83538,-0.05967 -1.49174,-0.11934 -2.32712,-0.11934c-0.71604,0 -1.43207,0.05967 -2.14811,0.11934l-0.05967,-0.35802c0.17901,-0.11934 0.65637,-0.23868 0.83538,-0.29835c0.05967,-0.47736 0.17901,-1.79009 0.17901,-4.29622c0,-1.73042 -0.11934,-3.52052 -0.17901,-4.17688c-0.29835,-0.17901 -0.53703,-0.23868 -0.83538,-0.23868v-0.41769c1.43207,0 3.10283,-0.11934 4.59457,-0.11934c2.02877,-0.05967 3.63985,0.35802 3.63985,2.44646c0,1.90943 -1.84976,3.1625 -3.75919,3.1625c-0.11934,0 -0.29835,0 -0.41769,0l0.05967,-0.71604h0.17901c1.07406,0 1.25306,-1.1934 1.25306,-2.26745c0,-1.07406 -0.29835,-1.90943 -1.3724,-1.90943c-0.11934,0 -0.35802,0 -0.53703,0.05967c-0.05967,0.65637 -0.11934,2.32712 -0.11934,3.99787c0,2.38679 0.11934,3.99787 0.17901,4.5349zM84.26539,68.7585c0.47736,0 1.07406,-0.77571 1.49174,-1.90943c0,-1.84976 -0.05967,-2.92382 -0.11934,-3.40118c-0.35802,-0.05967 -0.71604,-0.17901 -1.01439,-0.35802l0.05967,-0.29835c0.65637,0.11934 1.55141,0.17901 2.20778,0.17901c0.65637,0 1.55141,-0.05967 2.20778,-0.11934l0.05967,0.29835c-0.23868,0.11934 -0.5967,0.23868 -0.89505,0.35802c-0.11934,0.47736 -0.23868,2.14811 -0.23868,4.23655c0,0.65637 0.05967,1.31273 0.11934,1.90943c0.23868,0.11934 0.5967,0.17901 0.83538,0.17901v0.35802c-0.89505,0 -1.9691,0.05967 -3.28184,0.29835l-0.11934,-0.11934c0.17901,-0.83538 0.29835,-1.67075 0.29835,-2.50613h-0.17901c-0.35802,0.95472 -1.07406,2.08844 -1.90943,2.62547c-1.90943,0 -2.32712,-1.1934 -2.26745,-3.1625v-1.84976c0.05967,-0.65637 0,-1.31273 -0.05967,-1.90943c-0.23868,-0.11934 -0.5967,-0.17901 -0.83538,-0.23868v-0.29835c0.89505,0 2.08844,-0.05967 3.46085,-0.29835l0.05967,0.11934c-0.17901,0.83538 -0.29835,1.9691 -0.29835,3.9382c0,1.31273 0.05967,1.9691 0.41769,1.9691zM90.59038,63.56723c-0.23868,-0.11934 -0.5967,-0.17901 -0.83538,-0.23868v-0.29835c0.89505,0 1.9691,-0.05967 3.28184,-0.29835l0.11934,0.11934c-0.17901,0.83538 -0.29835,1.61108 -0.29835,2.44646l0.17901,0.05967c0.35802,-0.95472 1.07406,-2.08844 1.90943,-2.62547c1.90943,0 2.38679,1.25306 2.32712,3.10283l-0.11934,3.87853c0.23868,0.05967 0.65637,0.23868 0.89505,0.35802l-0.05967,0.29835c-0.47736,-0.05967 -1.13373,-0.11934 -2.02877,-0.11934c-0.53703,0 -1.01439,0 -1.3724,0.05967v-0.29835c0.17901,-0.83538 0.29835,-2.44646 0.29835,-3.63985c0,-1.25306 -0.05967,-1.90943 -0.41769,-1.90943c-0.47736,0 -1.07406,0.71604 -1.49174,1.84976c0,1.90943 0.05967,2.98349 0.11934,3.40118c0.35802,0.11934 0.71604,0.23868 1.01439,0.35802l-0.05967,0.29835c-0.65637,-0.05967 -1.55141,-0.11934 -2.20778,-0.11934c-0.65637,0 -1.55141,0 -2.20778,0.11934l-0.05967,-0.29835c0.23868,-0.17901 0.5967,-0.29835 0.89505,-0.35802c0.11934,-0.47736 0.23868,-2.20778 0.23868,-4.23655c0,-0.65637 -0.05967,-1.31273 -0.11934,-1.90943zM99.30216,67.32642l0.11934,-1.84976c0,-0.5967 0,-1.25306 0,-1.79009h-0.95472c0,-0.11934 0,-0.35802 0.05967,-0.41769c1.31273,-0.65637 2.02877,-1.1934 2.92382,-2.32712c0.17901,-0.11934 0.41769,-0.11934 0.65637,-0.11934l0.05967,0.05967c-0.17901,0.71604 -0.29835,1.1934 -0.29835,2.02877l1.84976,-0.05967l0.05967,0.05967c-0.05967,0.35802 -0.17901,0.65637 -0.17901,0.95472c-0.5967,-0.05967 -1.1934,-0.11934 -1.79009,-0.11934l-0.11934,3.10283c-0.05967,1.31273 0.05967,1.9691 0.41769,1.9691c0.53703,0 1.07406,-0.53703 1.3724,-1.01439l0.23868,0.11934c-0.53703,1.07406 -1.07406,2.02877 -2.08844,2.5658c-1.9691,0 -2.38679,-1.1934 -2.32712,-3.1625zM107.77527,62.73185c2.20778,0 3.34151,1.13373 3.34151,3.1625c0,2.02877 -1.61108,3.81886 -3.46085,4.59457c-2.14811,0 -3.46085,-1.25306 -3.46085,-3.1625c0,-2.02877 1.73042,-3.81886 3.58019,-4.59457zM106.88022,63.92525c-0.17901,0.77571 -0.23868,1.73042 -0.23868,2.50613c0,1.67075 0.11934,2.98349 1.13373,2.98349c0.23868,0 0.47736,-0.05967 0.5967,-0.11934c0.17901,-0.77571 0.29835,-1.79009 0.29835,-2.5658c0,-1.61108 -0.17901,-2.92382 -1.1934,-2.92382c-0.17901,0 -0.41769,0.05967 -0.5967,0.11934zM114.8163,69.23586c0.53703,0 0.77571,-0.41769 0.77571,-0.95472c0,-0.77571 -3.58019,-1.1934 -3.58019,-1.84976c0,-1.43207 1.79009,-3.1625 3.10283,-3.69952c0.83538,0 1.73042,0.05967 2.50613,0.29835v0.23868c-0.47736,0.53703 -0.71604,0.89505 -0.95472,1.55141l-0.11934,0.05967c-0.53703,-0.47736 -1.43207,-0.95472 -2.08844,-0.95472c-0.41769,0 -0.65637,0.23868 -0.65637,0.65637c0,0.77571 3.52052,1.1934 3.52052,1.84976c0,1.61108 -1.67075,3.34151 -3.10283,4.05754c-0.77571,0 -1.79009,-0.11934 -2.50613,-0.35802v-0.23868c0.47736,-0.5967 0.77571,-1.49174 0.83538,-2.32712h0.35802c0,0.35802 0.11934,1.01439 0.11934,0.95472c0.47736,0.41769 1.1934,0.77571 1.79009,0.71604zM121.43964,67.32642l0.11934,-1.90943c0,-0.5967 0,-1.1934 0,-1.73042h-0.95472c0,-0.11934 0,-0.35802 0.05967,-0.41769c1.31273,-0.65637 2.02877,-1.1934 2.92382,-2.38679c0.17901,-0.05967 0.41769,-0.05967 0.65637,-0.05967l0.05967,0.05967c-0.17901,0.71604 -0.29835,1.1934 -0.29835,2.02877l1.84976,-0.05967l0.05967,0.05967c-0.05967,0.29835 -0.17901,0.65637 -0.17901,0.95472c-0.5967,-0.05967 -1.1934,-0.11934 -1.79009,-0.11934l-0.11934,3.10283c-0.05967,1.31273 0.05967,1.90943 0.41769,1.90943c0.53703,0 1.07406,-0.47736 1.3724,-0.95472l0.23868,0.11934c-0.53703,1.01439 -1.07406,2.02877 -2.08844,2.5658c-1.9691,0 -2.38679,-1.25306 -2.32712,-3.1625zM129.91275,62.73185c2.20778,0 3.34151,1.13373 3.34151,3.1625c0,2.02877 -1.61108,3.81886 -3.46085,4.59457c-2.14811,0 -3.46085,-1.25306 -3.46085,-3.22217c0,-2.02877 1.73042,-3.75919 3.58019,-4.5349zM129.0177,63.92525c-0.17901,0.77571 -0.23868,1.73042 -0.23868,2.50613c0,1.67075 0.11934,2.92382 1.13373,2.92382c0.23868,0 0.47736,0 0.5967,-0.11934c0.17901,-0.71604 0.29835,-1.73042 0.29835,-2.50613c0,-1.67075 -0.17901,-2.92382 -1.1934,-2.92382c-0.17901,0 -0.41769,0 -0.5967,0.11934zM134.68633,67.32642l0.05967,-1.90943c0,-0.5967 0.05967,-1.1934 0.05967,-1.73042h-0.95472h-0.05967c0,-0.11934 0,-0.35802 0.05967,-0.41769c1.31273,-0.65637 2.02877,-1.1934 2.92382,-2.38679c0.17901,-0.05967 0.41769,-0.05967 0.65637,-0.05967l0.05967,0.05967c-0.11934,0.71604 -0.29835,1.1934 -0.29835,2.02877l1.84976,-0.05967l0.11934,0.05967c-0.11934,0.29835 -0.17901,0.65637 -0.23868,0.95472c-0.5967,-0.05967 -1.1934,-0.11934 -1.79009,-0.11934l-0.11934,3.10283c-0.05967,1.31273 0.05967,1.90943 0.41769,1.90943c0.53703,0 1.07406,-0.47736 1.3724,-0.95472l0.23868,0.11934c-0.47736,1.01439 -1.01439,2.02877 -2.08844,2.5658c-1.90943,0 -2.38679,-1.25306 -2.26745,-3.1625zM143.09976,62.73185c0.77571,0 1.84976,0.17901 2.5658,0.41769c0.23868,-0.23868 0.41769,-0.65637 0.53703,-0.95472l0.29835,0.11934c-0.17901,0.83538 -0.29835,2.38679 -0.29835,4.89292c0,0.77571 0,1.67075 0.11934,2.44646c0.17901,0.11934 0.53703,0.17901 0.83538,0.17901v0.35802c-0.95472,0 -1.9691,0.05967 -3.34151,0.29835l-0.05967,-0.11934c0.17901,-0.83538 0.23868,-1.67075 0.23868,-2.50613h-0.11934c-0.35802,0.95472 -1.07406,1.90943 -1.84976,2.62547c-1.55141,0 -2.50613,-1.55141 -2.50613,-3.10283c0,-2.08844 1.67075,-3.87853 3.58019,-4.65424zM142.50306,68.7585c0.29835,0 0.89505,-0.53703 1.3724,-1.90943c0,-1.84976 0,-2.02877 -0.05967,-2.50613c-0.23868,-0.29835 -0.65637,-0.47736 -1.01439,-0.47736c-0.23868,0 -0.41769,0 -0.5967,0.05967c-0.23868,0.83538 -0.29835,1.90943 -0.29835,2.74481c0,1.3724 0.17901,2.08844 0.5967,2.08844zM150.97617,69.71321c0.35802,0.11934 0.71604,0.23868 1.01439,0.35802l-0.05967,0.29835c-0.65637,-0.05967 -1.55141,-0.11934 -2.20778,-0.11934c-0.65637,0 -1.55141,0 -2.20778,0.11934l-0.05967,-0.29835c0.23868,-0.17901 0.5967,-0.29835 0.89505,-0.41769c0.11934,-0.41769 0.23868,-2.14811 0.23868,-4.23655c0,-2.26745 0,-3.81886 -0.17901,-4.71391c-0.23868,-0.17901 -0.5967,-0.23868 -0.83538,-0.23868v-0.35802c1.67075,0 3.04316,-0.05967 4.23655,-0.47736l0.05967,0.29835c-0.23868,0.17901 -0.41769,0.29835 -0.71604,0.47736c-0.17901,0.83538 -0.29835,2.44646 -0.29835,5.01226c0,2.44646 0.05967,3.81886 0.11934,4.29622zM158.6139,67.74411l0.17901,0.17901c-0.65637,1.13373 -1.61108,1.9691 -2.86415,2.5658c-2.08844,0 -3.40118,-1.1934 -3.40118,-3.28184c0,-1.90943 1.73042,-3.75919 3.52052,-4.47523c1.49174,0 2.68514,0.35802 2.68514,1.84976c0,0.35802 -0.05967,0.65637 -0.11934,1.01439c0.23868,0.11934 0.47736,0.17901 0.71604,0.23868v0.29835c-1.25306,0 -2.68514,0.11934 -4.41556,0.53703c0,1.31273 0.29835,2.20778 1.61108,2.20778c0.77571,0 1.55141,-0.47736 2.08844,-1.13373zM154.91437,66.25237c0.41769,-0.17901 1.01439,-0.35802 1.49174,-0.47736c0,-1.49174 -0.11934,-1.9691 -0.71604,-1.9691c-0.17901,0 -0.41769,0.05967 -0.53703,0.11934c-0.17901,0.71604 -0.23868,1.55141 -0.23868,2.32712zM162.61177,69.23586c0.53703,0 0.83538,-0.41769 0.83538,-0.95472c0,-0.77571 -3.58019,-1.1934 -3.58019,-1.84976c0,-1.43207 1.73042,-3.1625 3.04316,-3.69952c0.83538,0 1.79009,0.05967 2.5658,0.29835v0.23868c-0.47736,0.53703 -0.77571,0.89505 -0.95472,1.55141l-0.11934,0.05967c-0.5967,-0.47736 -1.43207,-0.95472 -2.14811,-0.95472c-0.35802,0 -0.5967,0.23868 -0.5967,0.65637c0,0.77571 3.52052,1.1934 3.52052,1.84976c0,1.61108 -1.67075,3.34151 -3.10283,4.05754c-0.77571,0 -1.79009,-0.11934 -2.50613,-0.35802v-0.23868c0.47736,-0.65637 0.77571,-1.55141 0.77571,-2.32712h0.35802c0,0.35802 0.17901,0.95472 0.17901,0.95472c0.47736,0.41769 1.1934,0.71604 1.73042,0.71604zM167.44502,70.48892c-0.41769,-0.29835 -1.13373,-1.07406 -1.3724,-1.49174c0.23868,-0.41769 0.83538,-1.01439 1.3724,-1.25306c0.47736,0.23868 1.13373,0.77571 1.43207,1.25306c-0.23868,0.41769 -0.95472,1.1934 -1.43207,1.49174zM167.44502,65.41699c-0.41769,-0.29835 -1.13373,-1.07406 -1.3724,-1.49174c0.23868,-0.41769 0.83538,-0.95472 1.3724,-1.1934c0.47736,0.23868 1.13373,0.77571 1.43207,1.1934c-0.23868,0.41769 -0.95472,1.1934 -1.43207,1.49174z" fill="#290000" stroke="none" stroke-width="1"/><path d="M90.58496,279.30425c0.15685,0 0.47056,0.07843 0.5882,0.15685v0.23528c-0.54898,-0.03921 -1.01953,-0.07843 -1.56851,-0.07843c-0.43134,0 -0.94111,0.03921 -1.41166,0.07843l-0.03921,-0.23528c0.15685,-0.07843 0.43134,-0.15685 0.54898,-0.19607c0.03921,-0.3137 0.15685,-1.17638 0.15685,-2.82332c0,-1.13717 -0.11764,-2.31356 -0.15685,-2.7449c-0.19607,-0.11764 -0.35292,-0.15685 -0.54898,-0.15685v-0.27449c0.98032,0 2.07828,-0.07843 3.01939,-0.07843c1.37245,-0.03921 2.39198,0.23528 2.39198,1.60773c0,1.25481 -1.2156,2.07828 -2.47041,2.07828c-0.07843,0 -0.19607,0 -0.27449,0l0.03921,-0.47056h0.11764c0.70583,0 0.82347,-0.78426 0.82347,-1.49009c0,-0.70583 -0.15685,-1.25481 -0.86268,-1.25481c-0.11764,0 -0.27449,0 -0.39213,0.03921c-0.03921,0.43134 -0.07843,1.5293 -0.07843,2.62726c0,1.56851 0.07843,2.62726 0.11764,2.98018zM96.03555,278.63763c0.27449,0 0.70583,-0.50977 0.94111,-1.25481c0,-1.2156 -0.03921,-1.92143 -0.07843,-2.23514c-0.19607,-0.03921 -0.47056,-0.11764 -0.66662,-0.23528l0.03921,-0.19607c0.43134,0.07843 1.01953,0.11764 1.49009,0.11764c0.43134,0 1.01953,-0.03921 1.45088,-0.07843v0.19607c-0.15685,0.07843 -0.39213,0.15685 -0.5882,0.23528c-0.07843,0.3137 -0.15685,1.41166 -0.15685,2.78411c0.03921,0.43134 0.03921,0.86268 0.07843,1.25481c0.15685,0.07843 0.39213,0.11764 0.54898,0.11764v0.23528c-0.5882,0 -1.25481,0.03921 -2.15671,0.19607l-0.07843,-0.07843c0.15685,-0.54898 0.19607,-1.09796 0.19607,-1.64694h-0.07843c-0.27449,0.62741 -0.74505,1.37245 -1.29402,1.72537c-1.25481,0 -1.5293,-0.78426 -1.49009,-2.07828l0.03921,-1.2156c0,-0.43134 -0.03921,-0.86268 -0.07843,-1.25481c-0.15685,-0.07843 -0.39213,-0.11764 -0.54898,-0.15685v-0.19607c0.5882,0 1.37245,-0.03921 2.27435,-0.19607l0.07843,0.07843c-0.15685,0.54898 -0.23528,1.29402 -0.23528,2.58805c0,0.86268 0.07843,1.29402 0.3137,1.29402zM100.1529,275.22611c-0.15685,-0.07843 -0.39213,-0.11764 -0.54898,-0.15685v-0.19607c0.5882,0 1.29402,-0.03921 2.15671,-0.19607l0.07843,0.07843c-0.11764,0.54898 -0.19607,1.05874 -0.19607,1.60773l0.11764,0.03921c0.23528,-0.62741 0.70583,-1.37245 1.25481,-1.72537c1.25481,0 1.56851,0.82347 1.5293,2.03907l-0.07843,2.54883c0.15685,0.03921 0.43134,0.15685 0.5882,0.23528l-0.03921,0.19607c-0.3137,-0.03921 -0.74505,-0.07843 -1.33324,-0.07843c-0.35292,0 -0.66662,0 -0.90189,0.03921v-0.19607c0.11764,-0.54898 0.19607,-1.60773 0.19607,-2.39198c0,-0.82347 -0.03921,-1.25481 -0.27449,-1.25481c-0.3137,0 -0.70583,0.47056 -0.98032,1.2156c0,1.25481 0.03921,1.96064 0.11764,2.23514c0.19607,0.07843 0.43134,0.15685 0.62741,0.23528l-0.03921,0.19607c-0.43134,-0.03921 -1.01953,-0.07843 -1.45088,-0.07843c-0.43134,0 -1.01953,0 -1.45088,0.07843l-0.03921,-0.19607c0.19607,-0.11764 0.43134,-0.19607 0.62741,-0.23528c0.03921,-0.3137 0.11764,-1.45088 0.11764,-2.78411c0,-0.43134 -0.03921,-0.86268 -0.07843,-1.25481zM105.91719,277.69652l0.03921,-1.2156c0,-0.39213 0.03921,-0.82347 0.03921,-1.17638h-0.62741h-0.03921c0,-0.07843 0,-0.23528 0.03921,-0.27449c0.86268,-0.43134 1.33324,-0.78426 1.92143,-1.56851c0.11764,-0.03921 0.27449,-0.03921 0.43134,-0.03921l0.03921,0.03921c-0.07843,0.47056 -0.19607,0.78426 -0.19607,1.33324l1.2156,-0.03921l0.07843,0.03921c-0.07843,0.23528 -0.11764,0.43134 -0.15685,0.62741c-0.39213,-0.03921 -0.78426,-0.07843 -1.17638,-0.07843l-0.07843,2.03907c-0.03921,0.86268 0.03921,1.29402 0.27449,1.29402c0.35292,0 0.70583,-0.35292 0.90189,-0.66662l0.15685,0.07843c-0.3137,0.66662 -0.66662,1.33324 -1.37245,1.68615c-1.25481,0 -1.56851,-0.78426 -1.49009,-2.07828zM111.48542,274.67713c1.45088,0 2.15671,0.74505 2.15671,2.07828c0,1.33324 -1.05874,2.50962 -2.27435,3.01939c-1.37245,0 -2.27435,-0.82347 -2.27435,-2.07828c0,-1.37245 1.13717,-2.50962 2.39198,-3.01939zM110.85801,275.46139c-0.11764,0.50977 -0.15685,1.13717 -0.15685,1.64694c0,1.09796 0.11764,1.96064 0.74505,1.96064c0.15685,0 0.3137,-0.03921 0.39213,-0.07843c0.11764,-0.50977 0.19607,-1.17638 0.19607,-1.68615c0,-1.09796 -0.11764,-1.92143 -0.78426,-1.92143c-0.11764,0 -0.23528,0 -0.39213,0.07843zM116.07332,278.95133c0.35292,0 0.50977,-0.27449 0.50977,-0.62741c0,-0.50977 -2.31356,-0.78426 -2.31356,-1.2156c0,-0.94111 1.13717,-2.07828 1.99986,-2.43119c0.54898,0 1.13717,0.03921 1.64694,0.19607v0.15685c-0.3137,0.35292 -0.47056,0.5882 -0.5882,1.01953l-0.11764,0.03921c-0.35292,-0.3137 -0.90189,-0.62741 -1.37245,-0.62741c-0.23528,0 -0.43134,0.15685 -0.43134,0.43134c0,0.50977 2.35277,0.78426 2.35277,1.2156c0,1.05874 -1.13717,2.19592 -2.07828,2.66647c-0.47056,0 -1.17638,-0.07843 -1.64694,-0.23528v-0.15685c0.35292,-0.43134 0.50977,-1.01953 0.54898,-1.5293h0.23528c0,0.23528 0.07843,0.62741 0.07843,0.62741c0.3137,0.27449 0.78426,0.47056 1.17638,0.47056zM121.91603,281.22568c0.27449,0.07843 0.5882,0.19607 0.78426,0.27449l-0.03921,0.19607c-0.43134,-0.07843 -0.94111,-0.11764 -1.41166,-0.11764c-0.3137,0 -0.86268,0 -1.37245,0.07843l-0.03921,-0.23528c0.15685,0 0.35292,-0.11764 0.47056,-0.15685c0.19607,-1.09796 0.19607,-2.23514 0.19607,-3.29388c0,-1.60773 0,-2.23514 -0.07843,-2.78411c-0.15685,-0.03921 -0.39213,-0.11764 -0.54898,-0.11764v-0.19607c0.5882,0 1.29402,-0.03921 2.15671,-0.19607l0.07843,0.03921c-0.11764,0.54898 -0.19607,1.09796 -0.19607,1.64694h0.11764c0.23528,-0.62741 0.66662,-1.25481 1.17638,-1.68615c1.01953,0 1.68615,0.98032 1.68615,1.99986c0,1.37245 -1.13717,2.54883 -2.39198,3.09782c-0.19607,0 -0.43134,-0.03921 -0.66662,-0.07843c0,0.50977 0.03921,1.01953 0.07843,1.5293zM122.89635,275.81431c-0.19607,0 -0.5882,0.35292 -0.90189,1.2156c0,1.2156 0,1.37245 0.03921,1.68615c0.15685,0.19607 0.43134,0.3137 0.66662,0.3137c0.15685,0 0.27449,-0.03921 0.43134,-0.07843c0.11764,-0.50977 0.19607,-1.25481 0.19607,-1.80379c0,-0.90189 -0.15685,-1.33324 -0.43134,-1.33324zM127.71953,274.67713c0.50977,0 1.2156,0.11764 1.68615,0.27449c0.11764,-0.15685 0.27449,-0.43134 0.35292,-0.62741l0.19607,0.07843c-0.11764,0.54898 -0.23528,1.56851 -0.23528,3.21545c0,0.50977 0.03921,1.09796 0.07843,1.60773c0.15685,0.07843 0.39213,0.11764 0.54898,0.11764v0.23528c-0.5882,0 -1.25481,0.03921 -2.15671,0.19607l-0.07843,-0.07843c0.15685,-0.54898 0.19607,-1.09796 0.19607,-1.64694h-0.07843c-0.23528,0.62741 -0.70583,1.25481 -1.2156,1.72537c-1.01953,0 -1.64694,-1.01953 -1.64694,-2.03907c0,-1.37245 1.09796,-2.54883 2.35277,-3.0586zM127.32741,278.63763c0.19607,0 0.5882,-0.35292 0.90189,-1.25481c0,-1.2156 0,-1.33324 -0.03921,-1.64694c-0.15685,-0.19607 -0.43134,-0.3137 -0.66662,-0.3137c-0.15685,0 -0.27449,0 -0.43134,0.03921c-0.11764,0.54898 -0.19607,1.25481 -0.19607,1.80379c0,0.90189 0.15685,1.37245 0.43134,1.37245zM131.24869,275.1869c-0.11764,-0.03921 -0.35292,-0.11764 -0.54898,-0.11764v-0.19607c0.62741,0 1.29402,-0.03921 2.19592,-0.19607l0.03921,0.03921c-0.11764,0.54898 -0.15685,1.09796 -0.15685,1.64694h0.07843c0.23528,-0.5882 0.5882,-1.33324 1.13717,-1.68615c0.27449,0 0.5882,0.03921 0.86268,0.15685v0.15685c-0.47056,0.62741 -0.62741,1.25481 -0.66662,1.99986h-0.23528c0,-0.23528 -0.03921,-0.43134 -0.07843,-0.62741c-0.11764,-0.07843 -0.27449,-0.11764 -0.39213,-0.11764c-0.11764,0 -0.47056,0 -0.62741,0.78426c0,1.25481 0,1.96064 0.07843,2.23514c0.27449,0.03921 0.5882,0.15685 0.82347,0.23528v0.19607c-0.43134,-0.03921 -0.86268,-0.07843 -1.68615,-0.07843c-0.43134,0 -1.01953,0 -1.45088,0.07843l-0.03921,-0.19607c0.19607,-0.11764 0.43134,-0.19607 0.62741,-0.27449c0.03921,-0.27449 0.11764,-1.41166 0.11764,-2.78411c0,-0.39213 0,-0.82347 -0.07843,-1.25481zM137.32668,274.67713c0.50977,0 1.2156,0.11764 1.68615,0.27449c0.11764,-0.15685 0.27449,-0.43134 0.35292,-0.62741l0.19607,0.07843c-0.11764,0.54898 -0.23528,1.56851 -0.23528,3.21545c0,0.50977 0.03921,1.09796 0.07843,1.60773c0.15685,0.07843 0.39213,0.11764 0.54898,0.11764v0.23528c-0.5882,0 -1.25481,0.03921 -2.15671,0.19607l-0.07843,-0.07843c0.15685,-0.54898 0.19607,-1.09796 0.19607,-1.64694h-0.07843c-0.23528,0.62741 -0.70583,1.25481 -1.2156,1.72537c-1.01953,0 -1.64694,-1.01953 -1.64694,-2.03907c0,-1.37245 1.09796,-2.54883 2.35277,-3.0586zM136.93456,278.63763c0.19607,0 0.5882,-0.35292 0.90189,-1.25481c0,-1.2156 0,-1.33324 -0.03921,-1.64694c-0.15685,-0.19607 -0.43134,-0.3137 -0.66662,-0.3137c-0.15685,0 -0.27449,0 -0.43134,0.03921c-0.11764,0.54898 -0.19607,1.25481 -0.19607,1.80379c0,0.90189 0.15685,1.37245 0.43134,1.37245zM146.11037,277.97101l0.11764,0.11764c-0.43134,0.74505 -1.09796,1.29402 -1.88222,1.68615c-1.37245,0 -2.27435,-0.78426 -2.27435,-2.15671c0,-1.25481 1.17638,-2.47041 2.31356,-2.94096c0.98032,0 1.80379,0.23528 1.80379,1.2156c0,0.23528 -0.03921,0.43134 -0.07843,0.66662c0.11764,0.07843 0.3137,0.11764 0.47056,0.15685v0.19607c-0.86268,0 -1.80379,0.07843 -2.94096,0.35292c0,0.86268 0.19607,1.45088 1.09796,1.45088c0.50977,0 1.01953,-0.3137 1.37245,-0.74505zM143.63995,276.99069c0.3137,-0.11764 0.70583,-0.23528 0.98032,-0.3137c0,-0.98032 -0.03921,-1.29402 -0.47056,-1.29402c-0.07843,0 -0.23528,0.03921 -0.3137,0.07843c-0.11764,0.47056 -0.15685,1.01953 -0.19607,1.5293zM148.9729,279.26504c0.19607,0.07843 0.43134,0.15685 0.62741,0.23528v0.19607c-0.47056,-0.03921 -1.05874,-0.07843 -1.49009,-0.07843c-0.43134,0 -1.01953,0 -1.45088,0.07843l-0.03921,-0.19607c0.19607,-0.11764 0.43134,-0.19607 0.62741,-0.27449c0.03921,-0.27449 0.15685,-1.41166 0.15685,-2.78411c0,-1.49009 -0.03921,-2.50962 -0.11764,-3.09782c-0.15685,-0.11764 -0.39213,-0.15685 -0.54898,-0.15685v-0.23528c1.05874,0 1.99986,-0.03921 2.7449,-0.3137l0.07843,0.19607c-0.15685,0.11764 -0.3137,0.19607 -0.50977,0.3137c-0.11764,0.54898 -0.15685,1.60773 -0.15685,3.29388c0,1.60773 0,2.50962 0.07843,2.82332zM89.84635,288.79376c0.35292,0 0.50977,-0.3137 0.50977,-0.66662c0,-0.50977 -2.31356,-0.78426 -2.31356,-1.2156c0,-0.94111 1.13717,-2.07828 1.99986,-2.43119c0.54898,0 1.13717,0.03921 1.64694,0.23528v0.15685c-0.3137,0.3137 -0.47056,0.54898 -0.5882,1.01953h-0.11764c-0.35292,-0.27449 -0.90189,-0.62741 -1.37245,-0.62741c-0.23528,0 -0.43134,0.19607 -0.43134,0.43134c0,0.50977 2.35277,0.82347 2.35277,1.25481c0,1.01953 -1.13717,2.15671 -2.07828,2.62726c-0.47056,0 -1.17638,-0.07843 -1.64694,-0.23528v-0.15685c0.35292,-0.39213 0.50977,-0.98032 0.54898,-1.5293h0.23528c0,0.23528 0.07843,0.66662 0.07843,0.62741c0.3137,0.27449 0.78426,0.50977 1.17638,0.50977zM93.41472,284.12743c-0.27449,-0.19607 -0.78426,-0.70583 -0.94111,-0.98032c0.19607,-0.27449 0.5882,-0.62741 0.94111,-0.78426c0.3137,0.15685 0.74505,0.50977 0.94111,0.78426c-0.15685,0.27449 -0.62741,0.78426 -0.94111,0.98032zM92.59125,285.02932c-0.15685,-0.07843 -0.39213,-0.11764 -0.54898,-0.15685v-0.19607c0.5882,0 1.37245,-0.03921 2.27435,-0.19607l0.03921,0.07843c-0.11764,0.54898 -0.19607,1.29402 -0.19607,2.43119c0,1.09796 0.03921,1.80379 0.07843,2.07828c0.23528,0.07843 0.47056,0.15685 0.66662,0.23528l-0.03921,0.19607c-0.43134,-0.03921 -1.01953,-0.07843 -1.45088,-0.07843c-0.43134,0 -1.01953,0 -1.45088,0.07843l-0.03921,-0.19607c0.15685,-0.11764 0.39213,-0.19607 0.5882,-0.23528c0.07843,-0.3137 0.15685,-1.45088 0.15685,-2.78411c0,-0.43134 -0.03921,-0.86268 -0.07843,-1.25481zM97.61049,284.48034c0.50977,0 1.2156,0.11764 1.68615,0.27449c0.3137,-0.03921 0.62741,-0.15685 0.90189,-0.27449l0.03921,0.19607c-0.11764,0.11764 -0.3137,0.23528 -0.47056,0.35292c-0.07843,0.54898 -0.15685,1.25481 -0.15685,2.23514c0,1.17638 0.07843,1.68615 0.15685,2.23514c-0.39213,0.74505 -1.49009,1.76458 -2.31356,2.03907c-0.70583,0 -1.56851,-0.19607 -2.23514,-0.43134v-0.19607c0.27449,-0.47056 1.05874,-1.17638 1.49009,-1.5293v-0.03921c-0.86268,-0.23528 -1.45088,-0.94111 -1.45088,-1.84301c0,-1.29402 1.13717,-2.54883 2.35277,-3.01939zM97.25758,288.28399c0.19607,0 0.62741,-0.43134 0.86268,-1.25481c0,-1.05874 0,-1.17638 -0.03921,-1.49009c-0.15685,-0.19607 -0.43134,-0.3137 -0.66662,-0.3137c-0.15685,0 -0.27449,0 -0.39213,0.03921c-0.11764,0.54898 -0.19607,1.17638 -0.19607,1.72537c0,0.90189 0.15685,1.29402 0.43134,1.29402zM98.12026,287.6958c-0.54898,1.29402 -1.25481,1.37245 -1.41166,2.78411c0.19607,0.19607 0.5882,0.35292 0.90189,0.35292c0.11764,0 0.23528,-0.03921 0.39213,-0.07843c0.19607,-0.90189 0.19607,-1.45088 0.19607,-3.0586zM102.86502,288.40163c0.3137,0 0.70583,-0.47056 0.98032,-1.2156c0,-1.25481 -0.03921,-1.96064 -0.07843,-2.23514c-0.23528,-0.07843 -0.47056,-0.15685 -0.66662,-0.23528l0.03921,-0.19607c0.43134,0.03921 1.01953,0.07843 1.45088,0.07843c0.43134,0 1.01953,0 1.45088,-0.07843l0.03921,0.19607c-0.15685,0.11764 -0.39213,0.19607 -0.5882,0.23528c-0.07843,0.3137 -0.15685,1.45088 -0.15685,2.78411c0,0.43134 0.03921,0.86268 0.07843,1.25481c0.15685,0.07843 0.39213,0.11764 0.54898,0.15685v0.19607c-0.5882,0 -1.29402,0.03921 -2.15671,0.19607l-0.07843,-0.07843c0.11764,-0.50977 0.19607,-1.05874 0.19607,-1.60773l-0.11764,-0.03921c-0.23528,0.62741 -0.70583,1.37245 -1.25481,1.72537c-1.25481,0 -1.5293,-0.78426 -1.49009,-2.03907v-1.25481c0.03921,-0.43134 0,-0.86268 -0.03921,-1.25481c-0.15685,-0.07843 -0.39213,-0.11764 -0.54898,-0.11764v-0.23528c0.5882,0 1.37245,-0.03921 2.27435,-0.19607l0.03921,0.07843c-0.11764,0.54898 -0.19607,1.29402 -0.19607,2.62726c0,0.82347 0.03921,1.25481 0.27449,1.25481zM107.88426,284.08822c-0.27449,-0.19607 -0.74505,-0.66662 -0.90189,-0.98032c0.15685,-0.27449 0.54898,-0.62741 0.90189,-0.78426c0.3137,0.15685 0.74505,0.50977 0.94111,0.78426c-0.15685,0.3137 -0.62741,0.78426 -0.94111,0.98032zM107.06079,284.99011c-0.15685,-0.07843 -0.39213,-0.11764 -0.54898,-0.11764v-0.23528c0.5882,0 1.37245,-0.03921 2.27435,-0.19607l0.07843,0.07843c-0.15685,0.54898 -0.23528,1.29402 -0.23528,2.43119c0,1.09796 0.03921,1.80379 0.11764,2.1175c0.19607,0.03921 0.43134,0.15685 0.62741,0.23528l-0.03921,0.19607c-0.43134,-0.07843 -1.01953,-0.11764 -1.45088,-0.11764c-0.43134,0 -1.01953,0.03921 -1.45088,0.07843l-0.03921,-0.19607c0.19607,-0.07843 0.43134,-0.15685 0.62741,-0.23528c0.03921,-0.3137 0.11764,-1.41166 0.11764,-2.78411c0,-0.43134 -0.03921,-0.86268 -0.07843,-1.25481zM113.68777,287.77422l0.11764,0.11764c-0.39213,0.74505 -1.05874,1.29402 -1.84301,1.64694c-1.37245,0 -2.27435,-0.78426 -2.27435,-2.15671c0,-1.25481 1.13717,-2.47041 2.31356,-2.94096c0.98032,0 1.76458,0.27449 1.76458,1.25481c0,0.23528 0,0.43134 -0.07843,0.66662c0.15685,0.03921 0.3137,0.11764 0.50977,0.11764l-0.03921,0.23528c-0.82347,-0.03921 -1.76458,0.07843 -2.90175,0.3137c0,0.90189 0.19607,1.45088 1.05874,1.45088c0.54898,0 1.05874,-0.3137 1.37245,-0.70583zM111.25657,286.75469c0.27449,-0.11764 0.66662,-0.23528 0.98032,-0.3137c0,-0.98032 -0.07843,-1.29402 -0.47056,-1.29402c-0.11764,0 -0.23528,0.03921 -0.35292,0.07843c-0.07843,0.50977 -0.15685,1.05874 -0.15685,1.5293zM114.94258,284.99011c-0.15685,-0.07843 -0.39213,-0.11764 -0.54898,-0.11764v-0.23528c0.5882,0 1.25481,-0.03921 2.15671,-0.19607l0.07843,0.07843c-0.15685,0.54898 -0.19607,1.09796 -0.19607,1.64694h0.07843c0.27449,-0.62741 0.74505,-1.37245 1.29402,-1.72537c1.2156,0 1.56851,0.82347 1.5293,2.07828l-0.07843,2.50962c0.15685,0.03921 0.39213,0.15685 0.54898,0.23528v0.19607c-0.3137,-0.03921 -0.74505,-0.07843 -1.37245,-0.07843c-0.3137,0 -0.62741,0.03921 -0.86268,0.03921v-0.19607c0.11764,-0.54898 0.19607,-1.60773 0.19607,-2.35277c0,-0.86268 -0.07843,-1.29402 -0.3137,-1.29402c-0.27449,0 -0.70583,0.50977 -0.94111,1.25481c0,1.2156 0.03921,1.92143 0.07843,2.23514c0.19607,0.03921 0.47056,0.11764 0.66662,0.23528l-0.03921,0.19607c-0.43134,-0.07843 -1.01953,-0.11764 -1.49009,-0.11764c-0.43134,0 -1.01953,0.03921 -1.45088,0.07843v-0.19607c0.15685,-0.07843 0.39213,-0.19607 0.5882,-0.23528c0.07843,-0.3137 0.15685,-1.41166 0.15685,-2.78411c0,-0.43134 -0.03921,-0.86268 -0.07843,-1.25481zM120.66765,287.49973l0.03921,-1.25481c0.03921,-0.39213 0.03921,-0.82347 0.03921,-1.13717h-0.62741v-0.03921c0,-0.03921 0,-0.23528 0,-0.27449c0.86268,-0.39213 1.37245,-0.78426 1.92143,-1.5293c0.15685,-0.03921 0.3137,-0.07843 0.47056,-0.07843l0.03921,0.03921c-0.11764,0.47056 -0.19607,0.78426 -0.23528,1.33324l1.25481,-0.03921l0.03921,0.03921c-0.07843,0.23528 -0.11764,0.43134 -0.11764,0.62741c-0.39213,-0.03921 -0.78426,-0.07843 -1.2156,-0.07843l-0.03921,2.03907c-0.03921,0.86268 0.03921,1.29402 0.27449,1.29402c0.35292,0 0.66662,-0.35292 0.90189,-0.66662l0.15685,0.07843c-0.35292,0.70583 -0.70583,1.37245 -1.41166,1.68615c-1.25481,0 -1.5293,-0.78426 -1.49009,-2.03907zM127.88282,287.77422l0.11764,0.11764c-0.43134,0.74505 -1.09796,1.29402 -1.88222,1.64694c-1.37245,0 -2.27435,-0.78426 -2.27435,-2.15671c0,-1.25481 1.17638,-2.47041 2.31356,-2.94096c0.98032,0 1.80379,0.27449 1.80379,1.25481c0,0.23528 -0.03921,0.43134 -0.07843,0.66662c0.11764,0.03921 0.3137,0.11764 0.47056,0.11764v0.23528c-0.86268,-0.03921 -1.80379,0.07843 -2.94096,0.3137c0,0.90189 0.19607,1.45088 1.09796,1.45088c0.50977,0 1.01953,-0.3137 1.37245,-0.70583zM125.41241,286.75469c0.3137,-0.11764 0.70583,-0.23528 0.98032,-0.3137c0,-0.98032 -0.03921,-1.29402 -0.47056,-1.29402c-0.07843,0 -0.23528,0.03921 -0.3137,0.07843c-0.11764,0.50977 -0.15685,1.05874 -0.19607,1.5293zM130.86299,284.99011c-0.15685,-0.07843 -0.39213,-0.11764 -0.54898,-0.11764v-0.23528c0.5882,0 1.29402,-0.03921 2.15671,-0.19607l0.07843,0.07843c-0.11764,0.54898 -0.19607,1.09796 -0.19607,1.64694h0.11764c0.23528,-0.62741 0.70583,-1.37245 1.25481,-1.72537c1.25481,0 1.56851,0.82347 1.5293,2.07828l-0.07843,2.50962c0.15685,0.03921 0.43134,0.15685 0.5882,0.23528l-0.03921,0.19607c-0.3137,-0.03921 -0.74505,-0.07843 -1.33324,-0.07843c-0.35292,0 -0.66662,0.03921 -0.90189,0.03921v-0.19607c0.11764,-0.54898 0.19607,-1.60773 0.19607,-2.35277c0,-0.86268 -0.03921,-1.29402 -0.27449,-1.29402c-0.3137,0 -0.70583,0.50977 -0.98032,1.25481c0,1.2156 0.03921,1.92143 0.11764,2.23514c0.19607,0.03921 0.43134,0.11764 0.62741,0.23528l-0.03921,0.19607c-0.43134,-0.07843 -1.01953,-0.11764 -1.45088,-0.11764c-0.43134,0 -1.01953,0.03921 -1.45088,0.07843l-0.03921,-0.19607c0.19607,-0.07843 0.43134,-0.19607 0.62741,-0.23528c0.03921,-0.3137 0.11764,-1.41166 0.11764,-2.78411c0,-0.43134 -0.03921,-0.86268 -0.07843,-1.25481zM137.56839,284.08822c-0.27449,-0.19607 -0.78426,-0.66662 -0.94111,-0.98032c0.19607,-0.27449 0.5882,-0.62741 0.94111,-0.78426c0.3137,0.15685 0.74505,0.50977 0.94111,0.78426c-0.15685,0.3137 -0.62741,0.78426 -0.94111,0.98032zM136.74492,284.99011c-0.15685,-0.07843 -0.39213,-0.11764 -0.54898,-0.11764v-0.23528c0.5882,0 1.37245,-0.03921 2.27435,-0.19607l0.03921,0.07843c-0.11764,0.54898 -0.19607,1.29402 -0.19607,2.43119c0,1.09796 0.03921,1.80379 0.07843,2.1175c0.23528,0.03921 0.47056,0.11764 0.66662,0.23528l-0.03921,0.19607c-0.43134,-0.07843 -1.01953,-0.11764 -1.45088,-0.11764c-0.43134,0 -1.01953,0.03921 -1.45088,0.07843l-0.03921,-0.19607c0.15685,-0.07843 0.39213,-0.15685 0.5882,-0.23528c0.07843,-0.3137 0.15685,-1.41166 0.15685,-2.78411c0,-0.43134 -0.03921,-0.86268 -0.07843,-1.25481zM144.07772,285.46067c0,1.2156 -0.98032,2.86254 -2.07828,3.80365c-0.35292,0.15685 -0.78426,0.23528 -1.17638,0.27449c-0.5882,-0.27449 -0.66662,-0.74505 -1.09796,-3.37231c-0.07843,-0.35292 -0.15685,-0.82347 -0.23528,-1.17638c-0.15685,-0.07843 -0.39213,-0.11764 -0.54898,-0.11764v-0.23528c0.5882,0 1.45088,-0.03921 2.35277,-0.19607l0.03921,0.07843c-0.11764,0.19607 -0.15685,0.39213 -0.15685,0.5882c0,0.27449 0,0.54898 0.03921,0.90189c0.27449,2.35277 0.47056,2.78411 0.70583,2.78411c0.39213,-0.74505 0.5882,-1.96064 0.5882,-2.82332c0,-0.27449 -0.03921,-0.74505 -0.19607,-0.98032c-0.11764,-0.03921 -0.39213,-0.07843 -0.62741,-0.07843v-0.23528c0.90189,0 1.80379,-0.07843 2.66647,-0.3137l0.03921,0.15685c-0.11764,0.11764 -0.3137,0.19607 -0.50977,0.27449c0.11764,0.15685 0.19607,0.43134 0.19607,0.66662zM148.50878,287.77422l0.11764,0.11764c-0.43134,0.74505 -1.09796,1.29402 -1.88222,1.64694c-1.37245,0 -2.27435,-0.78426 -2.27435,-2.15671c0,-1.25481 1.17638,-2.47041 2.31356,-2.94096c0.98032,0 1.80379,0.27449 1.80379,1.25481c0,0.23528 -0.03921,0.43134 -0.07843,0.66662c0.11764,0.03921 0.3137,0.11764 0.47056,0.11764v0.23528c-0.86268,-0.03921 -1.80379,0.07843 -2.94096,0.3137c0,0.90189 0.19607,1.45088 1.09796,1.45088c0.50977,0 1.01953,-0.3137 1.37245,-0.70583zM146.03837,286.75469c0.3137,-0.11764 0.70583,-0.23528 0.98032,-0.3137c0,-0.98032 -0.03921,-1.29402 -0.47056,-1.29402c-0.07843,0 -0.23528,0.03921 -0.3137,0.07843c-0.11764,0.50977 -0.15685,1.05874 -0.19607,1.5293zM151.37132,289.06825c0.19607,0.03921 0.43134,0.11764 0.62741,0.23528v0.19607c-0.47056,-0.07843 -1.05874,-0.11764 -1.49009,-0.11764c-0.43134,0 -1.01953,0.03921 -1.45088,0.07843l-0.03921,-0.19607c0.19607,-0.07843 0.43134,-0.15685 0.62741,-0.23528c0.03921,-0.3137 0.15685,-1.41166 0.15685,-2.78411c0,-1.49009 -0.03921,-2.54883 -0.11764,-3.13703c-0.15685,-0.07843 -0.39213,-0.15685 -0.54898,-0.15685v-0.19607c1.05874,0 1.99986,-0.07843 2.7449,-0.35292l0.07843,0.19607c-0.15685,0.15685 -0.3137,0.23528 -0.50977,0.35292c-0.11764,0.50977 -0.15685,1.56851 -0.15685,3.29388c0,1.60773 0,2.47041 0.07843,2.82332zM153.37117,289.5388c-0.27449,-0.19607 -0.74505,-0.66662 -0.90189,-0.98032c0.15685,-0.27449 0.54898,-0.62741 0.90189,-0.78426c0.3137,0.15685 0.74505,0.50977 0.94111,0.78426c-0.15685,0.3137 -0.62741,0.78426 -0.94111,0.98032zM153.37117,286.20571c-0.27449,-0.19607 -0.74505,-0.66662 -0.90189,-0.98032c0.15685,-0.27449 0.54898,-0.62741 0.90189,-0.78426c0.3137,0.15685 0.74505,0.50977 0.94111,0.78426c-0.15685,0.3137 -0.62741,0.78426 -0.94111,0.98032z" fill="#290000" stroke="none" stroke-width="1"/><path d="M117.77116,95.72339c0.26229,0 0.39344,0.17486 0.39344,0.39344v0.8306c0,0.26229 -0.13115,0.39344 -0.39344,0.39344c-1.31147,0 -1.9672,1.09289 -1.92349,2.53551v15.47532c0,0.26229 -0.13115,0.39344 -0.39344,0.39344h-1.83606c-0.21858,0 -0.34972,-0.08743 -0.48087,-0.21858l-12.63381,-14.51358v10.57918c0,1.48633 0.65573,2.53551 1.9672,2.53551c0.26229,0 0.39344,0.17486 0.39344,0.43716v0.78688c0,0.26229 -0.13115,0.39344 -0.39344,0.39344h-6.55734c-0.26229,0 -0.43716,-0.13115 -0.43716,-0.39344v-0.78688c0,-0.26229 0.17486,-0.43716 0.43716,-0.43716c1.26775,0 1.92349,-1.04917 1.92349,-2.53551v-13.59555c-0.52459,-0.43716 -1.00546,-0.65573 -1.66119,-0.65573c-0.26229,0 -0.43716,-0.13115 -0.43716,-0.39344v-0.78688c0,-0.26229 0.17486,-0.43716 0.43716,-0.39344h4.59014c0.21858,0 0.34972,0.04372 0.48087,0.21858l11.93436,13.59555v-9.70486c0,-1.44261 -0.65573,-2.53551 -1.9672,-2.53551c-0.26229,0 -0.39344,-0.13115 -0.39344,-0.39344v-0.8306c0,-0.21858 0.13115,-0.39344 0.39344,-0.39344zM126.03341,111.59215c0,1.44261 0.43716,2.49179 1.83606,2.53551h0.13115c0.26229,0 0.39344,0.17486 0.39344,0.39344v0.8306c0,0.26229 -0.13115,0.39344 -0.39344,0.39344h-8.17482c-0.26229,0 -0.43716,-0.13115 -0.43716,-0.39344v-0.8306c0,-0.21858 0.17486,-0.39344 0.43716,-0.39344h0.17486c1.35518,-0.04372 1.79234,-1.09289 1.79234,-2.53551v-11.71578c0,-1.3989 -0.43716,-2.44807 -1.79234,-2.53551h-0.17486c-0.26229,0 -0.43716,-0.13115 -0.43716,-0.39344v-0.78688c0,-0.26229 0.17486,-0.43716 0.43716,-0.43716h8.17482c0.26229,0 0.39344,0.17486 0.39344,0.43716v0.78688c0,0.26229 -0.13115,0.39344 -0.39344,0.39344h-0.13115c-1.3989,0.08743 -1.83606,1.13661 -1.83606,2.53551zM149.68355,95.67967c0.26229,0 0.43716,0.13115 0.43716,0.39344v0.8306c0,0.26229 -0.17486,0.39344 -0.43716,0.39344c-1.13661,0 -1.44261,1.13661 -1.9672,2.53551l-5.77046,15.60647c-0.04372,0.21858 -0.21858,0.30601 -0.43716,0.30601h-3.19124c-0.26229,0 -0.39344,-0.08743 -0.48087,-0.30601l-6.03275,-15.60647c-0.52459,-1.35518 -0.8306,-2.53551 -1.92349,-2.53551c-0.26229,0 -0.43716,-0.13115 -0.43716,-0.39344v-0.8306c0,-0.26229 0.17486,-0.39344 0.43716,-0.39344h8.17482c0.26229,0 0.39344,0.13115 0.39344,0.39344v0.8306c0,0.26229 -0.13115,0.39344 -0.39344,0.39344c-1.09289,0 -2.09835,0.74317 -2.09835,1.83606c0,0.21858 0.04372,0.43716 0.13115,0.69945l4.63385,12.15294l4.32784,-12.15294c0.04372,-0.21858 0.08743,-0.48087 0.08743,-0.65573c0,-1.09289 -0.96174,-1.87977 -2.05463,-1.87977c-0.26229,0 -0.39344,-0.13115 -0.39344,-0.39344v-0.8306c0,-0.26229 0.13115,-0.39344 0.39344,-0.39344zM169.61786,110.06211c0.17486,0.08743 0.21858,0.17486 0.21858,0.30601c0,0.08743 0,0.17486 -0.04372,0.26229l-2.49179,5.28959c-0.08743,0.13115 -0.21858,0.21858 -0.34972,0.21858c-0.08743,0 -0.13115,-0.04372 -0.21858,-0.08743l-0.17486,-0.13115c-0.13115,-0.17486 -0.30601,-0.17486 -0.48087,-0.17486h-14.60101c-0.26229,0 -0.39344,-0.13115 -0.39344,-0.39344v-0.78688c0,-0.26229 0.13115,-0.39344 0.39344,-0.39344c1.48633,0 1.9672,-1.09289 1.9672,-2.53551v-11.71578c0,-1.44261 -0.48087,-2.53551 -1.9672,-2.53551c-0.26229,0 -0.39344,-0.13115 -0.39344,-0.39344v-0.8306c0,-0.26229 0.13115,-0.39344 0.39344,-0.39344h13.33326c0.21858,0 0.34972,0 0.52459,-0.13115l0.13115,-0.13115c0.08743,-0.08743 0.17486,-0.08743 0.26229,-0.08743c0.13115,0 0.21858,0.08743 0.30601,0.21858l2.14206,3.6284c0.04372,0.08743 0.08743,0.17486 0.08743,0.21858c0,0.13115 -0.08743,0.26229 -0.26229,0.34972l-1.09289,0.5683c-0.08743,0.08743 -0.17486,0.08743 -0.26229,0.08743c-0.08743,0 -0.21858,-0.08743 -0.30601,-0.21858l-0.08743,-0.13115c-1.00546,-1.74862 -2.09835,-2.49179 -4.24041,-2.49179h-4.50271v6.25133h2.49179c1.44261,0 2.49179,-0.43716 2.53551,-1.79234v-0.17486c0,-0.26229 0.17486,-0.39344 0.43716,-0.39344h0.78688c0.26229,0 0.39344,0.13115 0.39344,0.39344v6.07647c0,0.26229 -0.13115,0.39344 -0.39344,0.39344h-0.78688c-0.26229,0 -0.43716,-0.13115 -0.43716,-0.39344v-0.17486c-0.04372,-1.35518 -1.09289,-1.79234 -2.53551,-1.79234h-2.31693v5.28959c0,1.44261 0.43716,2.49179 1.83606,2.53551h1.74862c2.40436,0 4.54642,-0.17486 6.86335,-4.02184l0.08743,-0.13115c0.08743,-0.13115 0.21858,-0.21858 0.34972,-0.21858c0.04372,0 0.13115,0 0.21858,0.04372zM187.62869,110.01839c0.13115,0.08743 0.21858,0.21858 0.21858,0.34972c0,0.08743 -0.04372,0.13115 -0.08743,0.21858l-2.49179,5.28959c-0.04372,0.13115 -0.17486,0.21858 -0.30601,0.21858c-0.08743,0 -0.17486,0 -0.26229,-0.08743l-0.13115,-0.13115c-0.17486,-0.13115 -0.30601,-0.13115 -0.52459,-0.13115h-13.37698c-0.26229,0 -0.39344,-0.13115 -0.39344,-0.39344v-0.78688c0,-0.26229 0.13115,-0.43716 0.39344,-0.43716h0.04372c1.44261,0 1.92349,-1.04917 1.92349,-2.53551v-11.71578c0,-1.44261 -0.48087,-2.53551 -1.92349,-2.53551h-0.04372c-0.26229,0 -0.39344,-0.13115 -0.39344,-0.39344v-0.78688c0,-0.26229 0.13115,-0.43716 0.39344,-0.43716h8.08739c0.26229,0 0.52459,0.17486 0.52459,0.43716v0.78688c0,0.26229 -0.52459,0.39344 -0.74317,0.39344h-1.61748v13.98899c0,1.3989 0.43716,2.49179 1.83606,2.53551h1.00546c1.92349,0 4.02184,-0.21858 6.38248,-4.02184l0.08743,-0.13115c0.08743,-0.17486 0.17486,-0.26229 0.30601,-0.26229c0.08743,0 0.17486,0.04372 0.21858,0.08743z" fill="#676767" stroke="none" stroke-width="1"/><path d="M118.86227,96.8145c0.26229,0 0.39344,0.17486 0.39344,0.39344v0.8306c0,0.26229 -0.13115,0.39344 -0.39344,0.39344c-1.31147,0 -1.9672,1.09289 -1.92349,2.53551v15.47532c0,0.26229 -0.13115,0.39344 -0.39344,0.39344h-1.83606c-0.21858,0 -0.34972,-0.08743 -0.48087,-0.21858l-12.63381,-14.51358v10.57918c0,1.48633 0.65573,2.53551 1.9672,2.53551c0.26229,0 0.39344,0.17486 0.39344,0.43716v0.78688c0,0.26229 -0.13115,0.39344 -0.39344,0.39344h-6.55734c-0.26229,0 -0.43716,-0.13115 -0.43716,-0.39344v-0.78688c0,-0.26229 0.17486,-0.43716 0.43716,-0.43716c1.26775,0 1.92349,-1.04917 1.92349,-2.53551v-13.59555c-0.52459,-0.43716 -1.00546,-0.65573 -1.66119,-0.65573c-0.26229,0 -0.43716,-0.13115 -0.43716,-0.39344v-0.78688c0,-0.26229 0.17486,-0.43716 0.43716,-0.39344h4.59014c0.21858,0 0.34972,0.04372 0.48087,0.21858l11.93436,13.59555v-9.70486c0,-1.44261 -0.65573,-2.53551 -1.9672,-2.53551c-0.26229,0 -0.39344,-0.13115 -0.39344,-0.39344v-0.8306c0,-0.21858 0.13115,-0.39344 0.39344,-0.39344zM127.12452,112.68326c0,1.44261 0.43716,2.49179 1.83606,2.53551h0.13115c0.26229,0 0.39344,0.17486 0.39344,0.39344v0.8306c0,0.26229 -0.13115,0.39344 -0.39344,0.39344h-8.17482c-0.26229,0 -0.43716,-0.13115 -0.43716,-0.39344v-0.8306c0,-0.21858 0.17486,-0.39344 0.43716,-0.39344h0.17486c1.35518,-0.04372 1.79234,-1.09289 1.79234,-2.53551v-11.71578c0,-1.3989 -0.43716,-2.44807 -1.79234,-2.53551h-0.17486c-0.26229,0 -0.43716,-0.13115 -0.43716,-0.39344v-0.78688c0,-0.26229 0.17486,-0.43716 0.43716,-0.43716h8.17482c0.26229,0 0.39344,0.17486 0.39344,0.43716v0.78688c0,0.26229 -0.13115,0.39344 -0.39344,0.39344h-0.13115c-1.3989,0.08743 -1.83606,1.13661 -1.83606,2.53551zM150.77466,96.77078c0.26229,0 0.43716,0.13115 0.43716,0.39344v0.8306c0,0.26229 -0.17486,0.39344 -0.43716,0.39344c-1.13661,0 -1.44261,1.13661 -1.9672,2.53551l-5.77046,15.60647c-0.04372,0.21858 -0.21858,0.30601 -0.43716,0.30601h-3.19124c-0.26229,0 -0.39344,-0.08743 -0.48087,-0.30601l-6.03275,-15.60647c-0.52459,-1.35518 -0.8306,-2.53551 -1.92349,-2.53551c-0.26229,0 -0.43716,-0.13115 -0.43716,-0.39344v-0.8306c0,-0.26229 0.17486,-0.39344 0.43716,-0.39344h8.17482c0.26229,0 0.39344,0.13115 0.39344,0.39344v0.8306c0,0.26229 -0.13115,0.39344 -0.39344,0.39344c-1.09289,0 -2.09835,0.74317 -2.09835,1.83606c0,0.21858 0.04372,0.43716 0.13115,0.69945l4.63385,12.15294l4.32784,-12.15294c0.04372,-0.21858 0.08743,-0.48087 0.08743,-0.65573c0,-1.09289 -0.96174,-1.87977 -2.05463,-1.87977c-0.26229,0 -0.39344,-0.13115 -0.39344,-0.39344v-0.8306c0,-0.26229 0.13115,-0.39344 0.39344,-0.39344zM170.70897,111.15322c0.17486,0.08743 0.21858,0.17486 0.21858,0.30601c0,0.08743 0,0.17486 -0.04372,0.26229l-2.49179,5.28959c-0.08743,0.13115 -0.21858,0.21858 -0.34972,0.21858c-0.08743,0 -0.13115,-0.04372 -0.21858,-0.08743l-0.17486,-0.13115c-0.13115,-0.17486 -0.30601,-0.17486 -0.48087,-0.17486h-14.60101c-0.26229,0 -0.39344,-0.13115 -0.39344,-0.39344v-0.78688c0,-0.26229 0.13115,-0.39344 0.39344,-0.39344c1.48633,0 1.9672,-1.09289 1.9672,-2.53551v-11.71578c0,-1.44261 -0.48087,-2.53551 -1.9672,-2.53551c-0.26229,0 -0.39344,-0.13115 -0.39344,-0.39344v-0.8306c0,-0.26229 0.13115,-0.39344 0.39344,-0.39344h13.33326c0.21858,0 0.34972,0 0.52459,-0.13115l0.13115,-0.13115c0.08743,-0.08743 0.17486,-0.08743 0.26229,-0.08743c0.13115,0 0.21858,0.08743 0.30601,0.21858l2.14206,3.6284c0.04372,0.08743 0.08743,0.17486 0.08743,0.21858c0,0.13115 -0.08743,0.26229 -0.26229,0.34972l-1.09289,0.5683c-0.08743,0.08743 -0.17486,0.08743 -0.26229,0.08743c-0.08743,0 -0.21858,-0.08743 -0.30601,-0.21858l-0.08743,-0.13115c-1.00546,-1.74862 -2.09835,-2.49179 -4.24041,-2.49179h-4.50271v6.25133h2.49179c1.44261,0 2.49179,-0.43716 2.53551,-1.79234v-0.17486c0,-0.26229 0.17486,-0.39344 0.43716,-0.39344h0.78688c0.26229,0 0.39344,0.13115 0.39344,0.39344v6.07647c0,0.26229 -0.13115,0.39344 -0.39344,0.39344h-0.78688c-0.26229,0 -0.43716,-0.13115 -0.43716,-0.39344v-0.17486c-0.04372,-1.35518 -1.09289,-1.79234 -2.53551,-1.79234h-2.31693v5.28959c0,1.44261 0.43716,2.49179 1.83606,2.53551h1.74862c2.40436,0 4.54642,-0.17486 6.86335,-4.02184l0.08743,-0.13115c0.08743,-0.13115 0.21858,-0.21858 0.34972,-0.21858c0.04372,0 0.13115,0 0.21858,0.04372zM188.7198,111.1095c0.13115,0.08743 0.21858,0.21858 0.21858,0.34972c0,0.08743 -0.04372,0.13115 -0.08743,0.21858l-2.49179,5.28959c-0.04372,0.13115 -0.17486,0.21858 -0.30601,0.21858c-0.08743,0 -0.17486,0 -0.26229,-0.08743l-0.13115,-0.13115c-0.17486,-0.13115 -0.30601,-0.13115 -0.52459,-0.13115h-13.37698c-0.26229,0 -0.39344,-0.13115 -0.39344,-0.39344v-0.78688c0,-0.26229 0.13115,-0.43716 0.39344,-0.43716h0.04372c1.44261,0 1.92349,-1.04917 1.92349,-2.53551v-11.71578c0,-1.44261 -0.48087,-2.53551 -1.92349,-2.53551h-0.04372c-0.26229,0 -0.39344,-0.13115 -0.39344,-0.39344v-0.78688c0,-0.26229 0.13115,-0.43716 0.39344,-0.43716h8.08739c0.26229,0 0.52459,0.17486 0.52459,0.43716v0.78688c0,0.26229 -0.52459,0.39344 -0.74317,0.39344h-1.61748v13.98899c0,1.3989 0.43716,2.49179 1.83606,2.53551h1.00546c1.92349,0 4.02184,-0.21858 6.38248,-4.02184l0.08743,-0.13115c0.08743,-0.17486 0.17486,-0.26229 0.30601,-0.26229c0.08743,0 0.17486,0.04372 0.21858,0.08743z" fill="url(#color-7)" stroke="none" stroke-width="1"/></g></g></svg>