<svg version="1.1" xmlns="http://www.w3.org/2000/svg" xmlns:xlink="http://www.w3.org/1999/xlink" width="32.5" height="32.5" viewBox="0,0,32.5,32.5"><defs><linearGradient x1="-111.70216" y1="168.19788" x2="-111.70216" y2="192.11129" gradientUnits="userSpaceOnUse" id="color-1"><stop offset="0" stop-color="#69db0e"/><stop offset="1" stop-color="#397607"/></linearGradient><linearGradient x1="-69.88665" y1="191.38787" x2="-69.88665" y2="167.69423" gradientUnits="userSpaceOnUse" id="color-2"><stop offset="0" stop-color="#c3ff87"/><stop offset="1" stop-color="#d1ffac"/></linearGradient><linearGradient x1="-69.88665" y1="169.60109" x2="-69.88665" y2="190.67132" gradientUnits="userSpaceOnUse" id="color-3"><stop offset="0" stop-color="#c3ff87"/><stop offset="1" stop-color="#d1ffab"/></linearGradient></defs><g transform="translate(-223.75,-163.75)"><g data-paper-data="{&quot;isPaintingLayer&quot;:true}" fill-rule="nonzero" stroke-miterlimit="10" stroke-dasharray="" stroke-dashoffset="0" style="mix-blend-mode: normal"><path d="M253.96864,180c0.03478,5.0136 -2.62001,9.66131 -6.9562,12.1782c-4.3362,2.51689 -9.68867,2.51689 -14.02488,0c-4.3362,-2.51689 -6.99098,-7.1646 -6.9562,-12.1782c-0.03478,-5.0136 2.62001,-9.66131 6.9562,-12.1782c4.3362,-2.51689 9.68867,-2.51689 14.02488,0c4.3362,2.51689 6.99098,7.1646 6.9562,12.1782z" fill="#383838" stroke="url(#color-1)" stroke-width="0" stroke-linecap="round" stroke-linejoin="round"/><path d="M223.75,196.25v-32.5h32.5v32.5z" fill="none" stroke="none" stroke-width="0" stroke-linecap="butt" stroke-linejoin="miter"/><path d="M252.30784,180c0.03064,4.41751 -2.3085,8.51263 -6.12914,10.73028c-3.82065,2.21765 -8.53675,2.21765 -12.3574,0c-3.82065,-2.21765 -6.15979,-6.31277 -6.12915,-10.73028c-0.03064,-4.41751 2.3085,-8.51263 6.12915,-10.73028c3.82065,-2.21765 8.53675,-2.21765 12.3574,0c3.82065,2.21765 6.15978,6.31277 6.12914,10.73028z" fill="url(#color-2)" stroke="url(#color-3)" stroke-width="1.5" stroke-linecap="round" stroke-linejoin="round"/><path d="M241.01868,179.63256l1.03903,1.03902l-0.92219,0.92212l-1.03895,-1.03901c-2.00392,1.55013 -4.89306,1.41026 -6.73174,-0.42843c-1.99521,-1.99522 -1.99519,-5.23015 0.00003,-7.22539c1.99522,-1.99525 5.23015,-1.99528 7.2254,-0.00003c1.83868,1.83868 1.97852,4.72785 0.42843,6.73174zM239.93488,173.5562c-1.63331,-1.63331 -4.28134,-1.63331 -5.91468,0c-1.63334,1.63331 -1.63334,4.28144 -0.00007,5.91475c1.63334,1.63331 4.28148,1.63331 5.91478,0c1.63331,-1.63331 1.63331,-4.28144 -0.00003,-5.91475z" fill="#8acafb" stroke="none" stroke-width="1" stroke-linecap="butt" stroke-linejoin="miter"/><path d="M232.69583,176.52829c0,-2.3635 1.916,-4.27949 4.27949,-4.27949c2.3635,0 4.27949,1.91599 4.27949,4.27949c0,2.3635 -1.91599,4.27949 -4.27949,4.27949c-2.3635,0 -4.27949,-1.91599 -4.27949,-4.27949z" fill="#e0e0e0" stroke="none" stroke-width="0" stroke-linecap="butt" stroke-linejoin="miter"/><path d="M242.51318,180.22439l5.61841,5.61841c0.39098,0.39102 -1.43382,2.21583 -1.8248,1.82481l-5.61845,-5.61842c-0.08602,-0.08602 -0.08602,-0.22544 0,-0.31148l1.51335,-1.51332c0.08605,-0.08602 0.22547,-0.08602 0.31148,0z" fill="#fcdfd6" stroke="none" stroke-width="1" stroke-linecap="butt" stroke-linejoin="miter"/></g></g></svg>