<svg version="1.1" xmlns="http://www.w3.org/2000/svg" xmlns:xlink="http://www.w3.org/1999/xlink" width="326.66667" height="105" viewBox="0,0,326.66667,105"><g transform="translate(-76.66667,-127.5)"><g data-paper-data="{&quot;isPaintingLayer&quot;:true}" fill-rule="nonzero" stroke-linejoin="miter" stroke-miterlimit="10" stroke-dasharray="" stroke-dashoffset="0" style="mix-blend-mode: normal"><path d="M76.66667,232.5v-105h326.66667v105z" fill="none" stroke="none" stroke-width="none" stroke-linecap="butt"/><path d="M176.10823,172.52007c-6.29245,-4.3563 -11.13279,-10.16474 -11.13279,-21.29753c4.84035,-6.77649 16.45718,-14.03703 25.16982,-15.48913c10.64875,0 18.39333,3.38825 18.39333,12.10088c0,5.32439 -5.32439,11.61684 -11.13283,15.48909c7.74455,4.3563 16.45722,9.19668 16.45722,22.74966c-4.84035,9.68069 -14.52104,18.87734 -25.65386,22.26558c-12.58493,0 -26.13791,-5.32439 -26.13791,-17.90928c0,-6.29248 5.80844,-12.58489 14.03703,-17.90928zM180.94858,175.4243c-1.93615,3.38825 -3.38825,8.22862 -3.38825,13.06897c0,6.77649 5.32439,12.10085 12.58493,12.10085c0.96806,0 3.38825,0 4.3563,-0.96806c0.48404,-2.42019 0.96806,-4.84038 0.96806,-8.71264c0,-8.22859 -6.77649,-11.13279 -14.52104,-15.48913zM191.59736,160.41921c1.93615,-2.9042 3.38825,-7.26054 3.38825,-10.64878c0,-4.3563 -3.38825,-6.77649 -7.74458,-6.77649c-1.4521,0 -3.38825,0.48404 -3.87226,0.96806c-0.48404,1.4521 -0.96806,2.90423 -0.96806,4.35633c0,6.29248 4.3563,9.19668 9.19668,12.10088z" fill="#ff3333" stroke="#000000" stroke-width="6.5" stroke-linecap="butt"/><path d="M277.20377,173.8699c-0.49583,4.8964 -2.23127,9.42092 -5.2063,13.57356c-4.09066,5.8261 -9.66884,9.173 -16.73453,10.04072c-2.47919,0.3099 -4.67947,0.12396 -6.60084,-0.55782c-0.37188,3.09898 -0.5888,6.10501 -0.65079,9.01805c-0.12396,3.28492 0.46485,5.76412 1.76642,7.43757c0.74376,0.9297 1.5185,1.39454 2.32424,1.39454c0.99168,0 2.01434,-0.24792 3.068,-0.74376c-2.60315,7.00371 -6.84876,10.4126 -12.73684,10.22666c-5.33025,-0.18594 -7.90242,-3.47086 -7.71648,-9.85478c0.12396,-3.59483 1.23959,-10.62952 3.34691,-21.1041c2.10731,-10.53655 3.19195,-17.23036 3.25394,-20.08143c0.18594,-1.30157 -0.27891,-1.95236 -1.39454,-1.95236c-0.43386,0 -1.5185,0.68177 -3.25394,2.04533l-2.32424,-2.69612c0.3099,-0.24792 2.35523,-2.1383 6.13599,-5.67115c2.72711,-2.54117 4.55551,-3.84274 5.48521,-3.90472c1.79741,-0.12396 3.22295,0.5888 4.2766,2.1383c1.05365,1.48751 1.58048,3.28492 1.58048,5.39224c0,0.6198 -0.06198,1.2086 -0.18594,1.76642c5.51619,-6.01204 11.0014,-8.98706 16.45562,-8.92508c6.13599,0.12396 9.20399,3.6568 9.20399,10.59854c0,0.68177 -0.03099,1.30157 -0.09297,1.85939zM264.37396,175.17148c0.06198,-2.47919 -0.96068,-3.71878 -3.068,-3.71878c-2.29325,0 -4.61749,1.70444 -6.97272,5.11333c-2.16929,3.03701 -3.34691,5.7951 -3.53285,8.27429c-0.06198,1.11564 0.12396,2.04533 0.55782,2.78909c0.49583,0.68177 1.33256,0.96068 2.51018,0.83673c2.60315,-0.12396 5.08234,-1.95236 7.43757,-5.48521c1.98335,-2.97503 3.00601,-5.57818 3.068,-7.80945zM308.5933,180.56373l1.85939,2.41721c-1.61147,3.09898 -4.5865,6.25995 -8.92508,9.4829c-5.08234,3.78077 -9.85478,5.67115 -14.31732,5.67115c-5.45422,0 -8.21231,-2.35523 -8.27429,-7.06569c-0.06198,-3.34691 0.96068,-11.0324 3.068,-23.05646h-3.99769c-0.74376,0 -1.05365,-0.34089 -0.9297,-1.02267l0.9297,-4.18363c0.06198,-0.43386 0.34089,-0.65079 0.83673,-0.65079h4.09066l1.48751,-9.4829c0.3099,-1.5495 1.92137,-3.12998 4.83442,-4.74145c2.78909,-1.42553 5.02036,-2.1383 6.69381,-2.1383c0.9297,0 1.33256,0.27891 1.2086,0.83673c-0.6198,2.85107 -1.70444,8.02637 -3.25394,15.52592h6.60084c0.68177,0 0.96068,0.3099 0.83673,0.9297l-0.83673,4.18363c0,0.49583 -0.27891,0.74376 -0.83673,0.74376h-6.97272c-1.30157,6.81777 -2.01434,12.30297 -2.1383,16.45562c-0.06198,2.41721 1.5185,3.62581 4.74145,3.62581c2.41721,0 5.08234,-0.96068 7.99539,-2.88206c2.16929,-1.48751 3.93571,-3.03701 5.29927,-4.64848zM345.8848,176.3801c-0.3099,6.01204 -2.54117,11.18734 -6.69381,15.52592c-4.21462,4.40056 -9.42092,6.60084 -15.61889,6.60084c-5.14432,0 -9.08003,-1.67345 -11.80714,-5.02036c-1.92137,-2.47919 -2.97503,-5.57818 -3.16097,-9.29696c-0.37188,-5.64016 1.64247,-10.81546 6.04302,-15.52592c4.71046,-5.2063 10.62952,-7.80945 17.75719,-7.80945c4.5865,0 8.05737,1.5185 10.4126,4.55551c2.23127,2.85107 3.25394,6.50787 3.068,10.97041zM334.72846,175.91525c0.06198,-1.73544 -0.18594,-3.31592 -0.74376,-4.74145c-0.49583,-1.5495 -1.27059,-2.32424 -2.32424,-2.32424c-3.34691,0 -6.10501,1.79741 -8.27429,5.39224c-1.85939,2.97503 -2.85107,6.13599 -2.97503,9.4829c-0.06198,1.61147 0.24792,3.03701 0.9297,4.2766c0.68177,1.42553 1.67345,2.1383 2.97503,2.1383c2.97503,0 5.51619,-1.73544 7.62351,-5.2063c1.73544,-2.85107 2.66513,-5.85709 2.78909,-9.01805zM376.16366,165.68858c0.24792,1.79741 -0.24792,3.37789 -1.48751,4.74145c-1.23959,1.36356 -2.78909,2.07632 -4.64848,2.1383c-2.54117,0.18594 -4.36957,-0.9297 -5.48521,-3.34691c0.06198,0 0.3099,0 0.74376,0c0.3099,0.06198 0.49583,0.09297 0.55782,0.09297c1.17762,0 1.76642,-0.5888 1.76642,-1.76642c0.06198,-0.43386 -0.15495,-0.77474 -0.65079,-1.02267c-0.49583,-0.24792 -0.99168,-0.37188 -1.48751,-0.37188c-1.79741,0.06198 -2.85107,1.17762 -3.16097,3.34691c-0.18594,1.48751 1.48751,3.99769 5.02036,7.53054c3.90472,3.90472 6.10501,6.69381 6.60084,8.36726c0.24792,0.99168 0.37188,1.89038 0.37188,2.69612c0,3.28492 -1.70444,5.91907 -5.11333,7.90242c-2.97503,1.67345 -6.50787,2.57216 -10.59854,2.69612c-4.21462,0.12396 -7.71648,-0.46485 -10.50557,-1.76642c-3.59483,-1.67345 -5.29927,-4.30759 -5.11333,-7.90242c0.12396,-2.23127 1.02267,-4.09066 2.69612,-5.57818c1.61147,-1.61147 3.74977,-2.35523 6.4149,-2.23127c3.09898,0.12396 4.64848,1.82841 4.64848,5.11333c0,0.49583 -0.03099,0.9297 -0.09297,1.30157c-0.6198,-0.80574 -1.70444,-1.14662 -3.25394,-1.02267c-1.48751,0.18594 -2.16929,0.99168 -2.04533,2.41721c0.06198,1.05365 0.99168,1.64247 2.78909,1.76642c1.98335,0.12396 3.50186,-0.27891 4.55551,-1.2086c1.11564,-0.9297 1.61147,-2.10731 1.48751,-3.53285c-0.06198,-1.05365 -1.11564,-2.54117 -3.16097,-4.46254c-2.66513,-2.60315 -4.43155,-4.49353 -5.29927,-5.67115c-1.73544,-2.47919 -2.4482,-5.08234 -2.1383,-7.80945c0.24792,-2.10731 1.45653,-3.99769 3.62581,-5.67115c2.72711,-2.16929 6.32193,-3.31592 10.78447,-3.43988c7.49955,-0.24792 11.55922,1.98335 12.17902,6.69381zM392.54181,192.46382c-0.37188,1.79741 -1.36356,3.47086 -2.97503,5.02036c-1.98335,1.73544 -4.36957,2.60315 -7.15866,2.60315c-4.02868,0 -5.76412,-1.73544 -5.2063,-5.2063c0.24792,-1.73544 1.48751,-3.43988 3.71878,-5.11333c2.23127,-1.67345 4.5865,-2.51018 7.06569,-2.51018c1.48751,0 2.66513,0.55782 3.53285,1.67345c0.86771,1.11564 1.2086,2.29325 1.02267,3.53285z" fill="#ff3333" stroke="#000000" stroke-width="6.5" stroke-linecap="butt"/><path d="M122.1126,144.16147l-0.84134,21.87887l22.22141,0.02435l-1.11399,11.26677l-21.54139,-0.0056l-0.8426,21.91165h-11.30292l0.84249,-21.90911l-22.1005,-0.23359l1.16531,-10.95459l21.36916,-0.09735l0.84143,-21.88141z" fill="#ff3333" stroke="#000000" stroke-width="6.5" stroke-linecap="round"/><path d="M176.10823,172.52007c-6.29245,-4.3563 -11.13279,-10.16474 -11.13279,-21.29753c4.84035,-6.77649 16.45718,-14.03703 25.16982,-15.48913c10.64875,0 18.39333,3.38825 18.39333,12.10088c0,5.32439 -5.32439,11.61684 -11.13283,15.48909c7.74455,4.3563 16.45722,9.19668 16.45722,22.74966c-4.84035,9.68069 -14.52104,18.87734 -25.65386,22.26558c-12.58493,0 -26.13791,-5.32439 -26.13791,-17.90928c0,-6.29248 5.80844,-12.58489 14.03703,-17.90928zM180.94858,175.4243c-1.93615,3.38825 -3.38825,8.22862 -3.38825,13.06897c0,6.77649 5.32439,12.10085 12.58493,12.10085c0.96806,0 3.38825,0 4.3563,-0.96806c0.48404,-2.42019 0.96806,-4.84038 0.96806,-8.71264c0,-8.22859 -6.77649,-11.13279 -14.52104,-15.48913zM191.59736,160.41921c1.93615,-2.9042 3.38825,-7.26054 3.38825,-10.64878c0,-4.3563 -3.38825,-6.77649 -7.74458,-6.77649c-1.4521,0 -3.38825,0.48404 -3.87226,0.96806c-0.48404,1.4521 -0.96806,2.90423 -0.96806,4.35633c0,6.29248 4.3563,9.19668 9.19668,12.10088z" fill="#ff3333" stroke="none" stroke-width="1" stroke-linecap="butt"/><path d="M277.20377,173.8699c-0.49583,4.8964 -2.23127,9.42092 -5.2063,13.57356c-4.09066,5.8261 -9.66884,9.173 -16.73453,10.04072c-2.47919,0.3099 -4.67947,0.12396 -6.60084,-0.55782c-0.37188,3.09898 -0.5888,6.10501 -0.65079,9.01805c-0.12396,3.28492 0.46485,5.76412 1.76642,7.43757c0.74376,0.9297 1.5185,1.39454 2.32424,1.39454c0.99168,0 2.01434,-0.24792 3.068,-0.74376c-2.60315,7.00371 -6.84876,10.4126 -12.73684,10.22666c-5.33025,-0.18594 -7.90242,-3.47086 -7.71648,-9.85478c0.12396,-3.59483 1.23959,-10.62952 3.34691,-21.1041c2.10731,-10.53655 3.19195,-17.23036 3.25394,-20.08143c0.18594,-1.30157 -0.27891,-1.95236 -1.39454,-1.95236c-0.43386,0 -1.5185,0.68177 -3.25394,2.04533l-2.32424,-2.69612c0.3099,-0.24792 2.35523,-2.1383 6.13599,-5.67115c2.72711,-2.54117 4.55551,-3.84274 5.48521,-3.90472c1.79741,-0.12396 3.22295,0.5888 4.2766,2.1383c1.05365,1.48751 1.58048,3.28492 1.58048,5.39224c0,0.6198 -0.06198,1.2086 -0.18594,1.76642c5.51619,-6.01204 11.0014,-8.98706 16.45562,-8.92508c6.13599,0.12396 9.20399,3.6568 9.20399,10.59854c0,0.68177 -0.03099,1.30157 -0.09297,1.85939zM264.37396,175.17148c0.06198,-2.47919 -0.96068,-3.71878 -3.068,-3.71878c-2.29325,0 -4.61749,1.70444 -6.97272,5.11333c-2.16929,3.03701 -3.34691,5.7951 -3.53285,8.27429c-0.06198,1.11564 0.12396,2.04533 0.55782,2.78909c0.49583,0.68177 1.33256,0.96068 2.51018,0.83673c2.60315,-0.12396 5.08234,-1.95236 7.43757,-5.48521c1.98335,-2.97503 3.00601,-5.57818 3.068,-7.80945zM308.5933,180.56373l1.85939,2.41721c-1.61147,3.09898 -4.5865,6.25995 -8.92508,9.4829c-5.08234,3.78077 -9.85478,5.67115 -14.31732,5.67115c-5.45422,0 -8.21231,-2.35523 -8.27429,-7.06569c-0.06198,-3.34691 0.96068,-11.0324 3.068,-23.05646h-3.99769c-0.74376,0 -1.05365,-0.34089 -0.9297,-1.02267l0.9297,-4.18363c0.06198,-0.43386 0.34089,-0.65079 0.83673,-0.65079h4.09066l1.48751,-9.4829c0.3099,-1.5495 1.92137,-3.12998 4.83442,-4.74145c2.78909,-1.42553 5.02036,-2.1383 6.69381,-2.1383c0.9297,0 1.33256,0.27891 1.2086,0.83673c-0.6198,2.85107 -1.70444,8.02637 -3.25394,15.52592h6.60084c0.68177,0 0.96068,0.3099 0.83673,0.9297l-0.83673,4.18363c0,0.49583 -0.27891,0.74376 -0.83673,0.74376h-6.97272c-1.30157,6.81777 -2.01434,12.30297 -2.1383,16.45562c-0.06198,2.41721 1.5185,3.62581 4.74145,3.62581c2.41721,0 5.08234,-0.96068 7.99539,-2.88206c2.16929,-1.48751 3.93571,-3.03701 5.29927,-4.64848zM345.8848,176.3801c-0.3099,6.01204 -2.54117,11.18734 -6.69381,15.52592c-4.21462,4.40056 -9.42092,6.60084 -15.61889,6.60084c-5.14432,0 -9.08003,-1.67345 -11.80714,-5.02036c-1.92137,-2.47919 -2.97503,-5.57818 -3.16097,-9.29696c-0.37188,-5.64016 1.64247,-10.81546 6.04302,-15.52592c4.71046,-5.2063 10.62952,-7.80945 17.75719,-7.80945c4.5865,0 8.05737,1.5185 10.4126,4.55551c2.23127,2.85107 3.25394,6.50787 3.068,10.97041zM334.72846,175.91525c0.06198,-1.73544 -0.18594,-3.31592 -0.74376,-4.74145c-0.49583,-1.5495 -1.27059,-2.32424 -2.32424,-2.32424c-3.34691,0 -6.10501,1.79741 -8.27429,5.39224c-1.85939,2.97503 -2.85107,6.13599 -2.97503,9.4829c-0.06198,1.61147 0.24792,3.03701 0.9297,4.2766c0.68177,1.42553 1.67345,2.1383 2.97503,2.1383c2.97503,0 5.51619,-1.73544 7.62351,-5.2063c1.73544,-2.85107 2.66513,-5.85709 2.78909,-9.01805zM376.16366,165.68858c0.24792,1.79741 -0.24792,3.37789 -1.48751,4.74145c-1.23959,1.36356 -2.78909,2.07632 -4.64848,2.1383c-2.54117,0.18594 -4.36957,-0.9297 -5.48521,-3.34691c0.06198,0 0.3099,0 0.74376,0c0.3099,0.06198 0.49583,0.09297 0.55782,0.09297c1.17762,0 1.76642,-0.5888 1.76642,-1.76642c0.06198,-0.43386 -0.15495,-0.77474 -0.65079,-1.02267c-0.49583,-0.24792 -0.99168,-0.37188 -1.48751,-0.37188c-1.79741,0.06198 -2.85107,1.17762 -3.16097,3.34691c-0.18594,1.48751 1.48751,3.99769 5.02036,7.53054c3.90472,3.90472 6.10501,6.69381 6.60084,8.36726c0.24792,0.99168 0.37188,1.89038 0.37188,2.69612c0,3.28492 -1.70444,5.91907 -5.11333,7.90242c-2.97503,1.67345 -6.50787,2.57216 -10.59854,2.69612c-4.21462,0.12396 -7.71648,-0.46485 -10.50557,-1.76642c-3.59483,-1.67345 -5.29927,-4.30759 -5.11333,-7.90242c0.12396,-2.23127 1.02267,-4.09066 2.69612,-5.57818c1.61147,-1.61147 3.74977,-2.35523 6.4149,-2.23127c3.09898,0.12396 4.64848,1.82841 4.64848,5.11333c0,0.49583 -0.03099,0.9297 -0.09297,1.30157c-0.6198,-0.80574 -1.70444,-1.14662 -3.25394,-1.02267c-1.48751,0.18594 -2.16929,0.99168 -2.04533,2.41721c0.06198,1.05365 0.99168,1.64247 2.78909,1.76642c1.98335,0.12396 3.50186,-0.27891 4.55551,-1.2086c1.11564,-0.9297 1.61147,-2.10731 1.48751,-3.53285c-0.06198,-1.05365 -1.11564,-2.54117 -3.16097,-4.46254c-2.66513,-2.60315 -4.43155,-4.49353 -5.29927,-5.67115c-1.73544,-2.47919 -2.4482,-5.08234 -2.1383,-7.80945c0.24792,-2.10731 1.45653,-3.99769 3.62581,-5.67115c2.72711,-2.16929 6.32193,-3.31592 10.78447,-3.43988c7.49955,-0.24792 11.55922,1.98335 12.17902,6.69381zM392.54181,192.46382c-0.37188,1.79741 -1.36356,3.47086 -2.97503,5.02036c-1.98335,1.73544 -4.36957,2.60315 -7.15866,2.60315c-4.02868,0 -5.76412,-1.73544 -5.2063,-5.2063c0.24792,-1.73544 1.48751,-3.43988 3.71878,-5.11333c2.23127,-1.67345 4.5865,-2.51018 7.06569,-2.51018c1.48751,0 2.66513,0.55782 3.53285,1.67345c0.86771,1.11564 1.2086,2.29325 1.02267,3.53285z" fill="#ff3333" stroke="none" stroke-width="1" stroke-linecap="butt"/><path d="M122.1126,144.16147l-0.84134,21.87887l22.22141,0.02435l-1.11399,11.26677l-21.54139,-0.0056l-0.8426,21.91165h-11.30292l0.84249,-21.90911l-22.1005,-0.23359l1.16531,-10.95459l21.36916,-0.09735l0.84143,-21.88141z" fill="#ff3333" stroke="#000000" stroke-width="0" stroke-linecap="round"/></g></g></svg>