<svg version="1.1" xmlns="http://www.w3.org/2000/svg" xmlns:xlink="http://www.w3.org/1999/xlink" width="6.35306" height="11.61702" viewBox="0,0,6.35306,11.61702"><g transform="translate(-236.82347,-134.19149)"><g data-paper-data="{&quot;isPaintingLayer&quot;:true}" fill-rule="nonzero" stroke-linecap="butt" stroke-linejoin="miter" stroke-dasharray="" stroke-dashoffset="0" style="mix-blend-mode: normal"><path d="M236.82347,145.80851v-11.61702h6.35306v11.61702z" fill="none" stroke="none" stroke-width="0" stroke-miterlimit="10"/><path d="M240,136.57665c0.57122,0.01173 1.10701,0.29231 1.46224,0.67142c0.31096,0.33187 0.50623,0.81581 0.49866,1.27054c-0.0158,0.95026 -0.44413,1.30999 -1.12911,2.61786c-0.24675,0.57551 -0.50427,1.18399 -0.7492,2.19257c-0.03404,0.14877 -0.06724,0.28746 -0.08259,0.27547c-0.01536,-0.01198 -0.04855,-0.15016 -0.08259,-0.29893c-0.24493,-1.00857 -0.50246,-1.61754 -0.7492,-2.19305c-0.68497,-1.30787 -1.11331,-1.66759 -1.1291,-2.61786c-0.00757,-0.45473 0.18721,-0.9382 0.49817,-1.27006c0.35522,-0.37911 0.89151,-0.6597 1.46272,-0.64796z" fill="#ff4646" stroke="#d73534" stroke-width="1" stroke-miterlimit="4"/><path d="M239.24976,138.53c0,-0.41435 0.3359,-0.75025 0.75026,-0.75025c0.41435,0 0.75025,0.33589 0.75025,0.75025c0,0.41435 -0.33589,0.75026 -0.75025,0.75026c-0.41435,0 -0.75026,-0.3359 -0.75026,-0.75026z" fill="#590000" stroke="none" stroke-width="0" stroke-miterlimit="10"/></g></g></svg>