<svg version="1.1" xmlns="http://www.w3.org/2000/svg" xmlns:xlink="http://www.w3.org/1999/xlink" width="33.88875" height="32.5" viewBox="0,0,33.88875,32.5"><defs><linearGradient x1="-111.70216" y1="168.19788" x2="-111.70216" y2="192.11129" gradientUnits="userSpaceOnUse" id="color-1"><stop offset="0" stop-color="#69db0e"/><stop offset="1" stop-color="#397607"/></linearGradient><linearGradient x1="-69.88666" y1="191.38787" x2="-69.88666" y2="167.69423" gradientUnits="userSpaceOnUse" id="color-2"><stop offset="0" stop-color="#dbad0d"/><stop offset="1" stop-color="#755c07"/></linearGradient><linearGradient x1="-69.88666" y1="169.60109" x2="-69.88666" y2="190.67132" gradientUnits="userSpaceOnUse" id="color-3"><stop offset="0" stop-color="#dbad0d"/><stop offset="1" stop-color="#756207"/></linearGradient><linearGradient x1="239.86556" y1="168.43065" x2="239.9419" y2="180.07805" gradientUnits="userSpaceOnUse" id="color-4"><stop offset="0" stop-color="#ffffff" stop-opacity="0.69072"/><stop offset="1" stop-color="#ffffff" stop-opacity="0"/></linearGradient></defs><g transform="translate(-222.36125,-163.75)"><g data-paper-data="{&quot;isPaintingLayer&quot;:true}" stroke-miterlimit="10" stroke-dasharray="" stroke-dashoffset="0" style="mix-blend-mode: normal"><path d="M253.96864,180c0.03478,5.0136 -2.62001,9.66131 -6.9562,12.1782c-4.3362,2.51689 -9.68867,2.51689 -14.02488,0c-4.3362,-2.51689 -6.99098,-7.1646 -6.9562,-12.1782c-0.03478,-5.0136 2.62001,-9.66131 6.9562,-12.1782c4.3362,-2.51689 9.68867,-2.51689 14.02488,0c4.3362,2.51689 6.99098,7.1646 6.9562,12.1782z" fill="#383838" fill-rule="nonzero" stroke="url(#color-1)" stroke-width="0" stroke-linecap="round" stroke-linejoin="round"/><path d="M252.30784,180c0.03064,4.41751 -2.3085,8.51263 -6.12914,10.73028c-3.82065,2.21765 -8.53675,2.21765 -12.3574,0c-3.82065,-2.21765 -6.15979,-6.31277 -6.12915,-10.73028c-0.03064,-4.41751 2.3085,-8.51263 6.12915,-10.73028c3.82065,-2.21765 8.53675,-2.21765 12.3574,0c3.82065,2.21765 6.15978,6.31277 6.12914,10.73028z" fill="url(#color-2)" fill-rule="nonzero" stroke="url(#color-3)" stroke-width="1.3644" stroke-linecap="round" stroke-linejoin="round"/><path d="M223.75,196.25v-32.5h32.5v32.5z" fill="none" fill-rule="nonzero" stroke="none" stroke-width="0" stroke-linecap="butt" stroke-linejoin="miter"/><path d="M222.36125,168.88622v0v0z" fill="#ff4646" fill-rule="nonzero" stroke="none" stroke-width="0" stroke-linecap="butt" stroke-linejoin="miter"/><g fill="#000000" fill-rule="nonzero" stroke="none" stroke-width="1" stroke-linecap="butt" stroke-linejoin="miter"><path d="M242.20581,185.05699c-0.52766,0.79718 -1.15826,1.48417 -1.87267,2.04493c-0.6125,0.47593 -1.2312,0.717 -1.84318,0.717c-0.47955,0 -0.90426,-0.15933 -1.22862,-0.46041c-0.33936,-0.31453 -0.51886,-0.73355 -0.51886,-1.20844c0,-0.34453 0.09363,-0.82667 0.29435,-1.5209l1.39157,-4.78462c0.14899,-0.52456 0.22451,-0.83857 0.26228,-1.02273c-0.13191,0.01449 -0.34246,0.0419 -0.67768,0.0957c-0.21779,0.03673 -0.44075,-0.02897 -0.60887,-0.17071c-0.16761,-0.14226 -0.26487,-0.35177 -0.26487,-0.5737v-0.41074c0,-0.36833 0.26693,-0.68337 0.63112,-0.74389l3.68378,-0.60939c0.25297,-0.04139 0.51266,0.04863 0.6844,0.24055c0.17175,0.19192 0.23331,0.45937 0.16347,0.70716l-1.94561,6.91284c0.07708,-0.09984 0.15416,-0.20382 0.23124,-0.31505c0.23641,-0.33625 0.69889,-0.42316 1.04083,-0.18986l0.37143,0.25142c0.34143,0.23175 0.43351,0.69527 0.20589,1.04083z"/><path d="M242.73813,172.70823c0.33936,0.34763 0.51938,0.7889 0.51938,1.27621c0,0.48731 -0.18261,0.93013 -0.52714,1.28241c-0.34867,0.35694 -0.79356,0.54524 -1.28656,0.54524c-0.49041,0 -0.93582,-0.18623 -1.28811,-0.53904c-0.35281,-0.35229 -0.53904,-0.79821 -0.53904,-1.28811c0,-0.49093 0.18416,-0.93375 0.53231,-1.2819c0.69889,-0.69785 1.90267,-0.69578 2.58915,0.00517z"/></g><path d="M248.93601,176.75765c-0.27918,0.13956 -1.3801,-1.15908 -3.34145,-0.8554c-1.75954,0.27247 -6.22477,2.14707 -9.87527,1.11726c-2.26737,-0.63306 -4.65031,-0.96031 -4.65031,-0.96031c-1.38204,-0.13187 0.39819,-7.3489 9.09634,-7.30448c7.969,0.04201 11.63849,7.94011 8.77055,8.00261z" fill="url(#color-4)" fill-rule="evenodd" stroke="none" stroke-width="1" stroke-linecap="butt" stroke-linejoin="miter" opacity="0.9"/></g></g></svg>