<svg version="1.1" xmlns="http://www.w3.org/2000/svg" xmlns:xlink="http://www.w3.org/1999/xlink" width="26.625" height="33.125" viewBox="0,0,26.625,33.125"><g transform="translate(-226.6875,-163.43753)"><g data-paper-data="{&quot;isPaintingLayer&quot;:true}" fill-rule="nonzero" stroke-linecap="butt" stroke-linejoin="miter" stroke-miterlimit="10" stroke-dasharray="" stroke-dashoffset="0" style="mix-blend-mode: normal"><path d="M226.6875,196.56253v-33.125h26.625v33.125z" fill="none" stroke="#000000" stroke-width="0"/><path d="M227.58929,193.31772c0,-2.25074 0,-16.31081 0,-26.75056c0,-0.70529 1.15456,-1.80723 1.89353,-1.80723c8.23134,0 18.94208,0 21.09178,0c0.71657,0 1.83611,0.9451 1.83611,1.55001c0,10.48994 0,24.47785 0,26.87916c0,0.80044 -1.27638,2.05102 -2.09333,2.05102c-2.45085,0 -12.86044,0 -21.09178,0c-0.63859,0 -1.63631,-1.17217 -1.63631,-1.92242z" data-paper-data="{&quot;origPos&quot;:null}" fill="#ffffff" stroke="#000000" stroke-width="1.5"/><path d="M236.95436,177.36131c0.71731,-0.35866 1.28092,-0.5636 2.15195,-1.63958h2.20318v6.96819h1.12721v1.63958h-4.91873v-1.63958h1.22968v-4.56007l-1.22968,0.61484zM243.15401,177.15637c0.87103,-0.9735 1.99823,-1.53711 3.22791,-1.53711c1.63958,0 2.92049,1.02473 2.92049,2.71555c0,1.38339 -0.66608,1.89576 -1.99823,2.76678c-0.56361,0.35866 -1.5371,1.12721 -1.84452,1.63958h2.20318v-1.02473h2.04947v2.66431h-6.66078v-1.79328c0.66608,-1.12721 1.02474,-1.48587 1.79329,-2.10071c0.87103,-0.76855 2.20318,-1.28092 2.20318,-2.04947c0,-0.61484 -0.46113,-0.81979 -1.02473,-0.81979c-0.66608,0 -1.17844,0.5636 -1.5371,0.92226z" fill="#000000" stroke="none" stroke-width="1"/><path d="M236.06098,180.82538h-6.33677v-1.65075h6.33677z" fill="#000000" stroke="none" stroke-width="1"/></g></g></svg>