<svg version="1.1" xmlns="http://www.w3.org/2000/svg" xmlns:xlink="http://www.w3.org/1999/xlink" width="26.625" height="33.125" viewBox="0,0,26.625,33.125"><g transform="translate(-226.6875,-163.43753)"><g data-paper-data="{&quot;isPaintingLayer&quot;:true}" fill-rule="nonzero" stroke-linecap="butt" stroke-linejoin="miter" stroke-miterlimit="10" stroke-dasharray="" stroke-dashoffset="0" style="mix-blend-mode: normal"><path d="M226.6875,196.56253v-33.125h26.625v33.125z" fill="none" stroke="#000000" stroke-width="0"/><path d="M227.5893,193.31772c0,-2.25074 0,-16.31081 0,-26.75056c0,-0.70529 1.15456,-1.80723 1.89353,-1.80723c8.23134,0 18.94208,0 21.09178,0c0.71657,0 1.83611,0.9451 1.83611,1.55001c0,10.48994 0,24.47785 0,26.87916c0,0.80044 -1.27638,2.05102 -2.09333,2.05102c-2.45085,0 -12.86044,0 -21.09178,0c-0.63859,0 -1.63631,-1.17217 -1.63631,-1.92242z" data-paper-data="{&quot;origPos&quot;:null}" fill="#ffffff" stroke="#000000" stroke-width="1.5"/><path d="M241.98776,177.18198c0.81979,-1.02473 1.947,-1.5371 3.17667,-1.5371c1.63958,0 2.9205,1.02473 2.9205,2.71555c0,1.38339 -0.66608,1.89576 -1.947,2.71555c-0.61484,0.40989 -1.58834,1.17844 -1.84452,1.63957h2.15194v-0.97349h2.04948v2.61307h-6.60953v-1.74204c0.66609,-1.12721 0.9735,-1.48587 1.79329,-2.10071c0.87102,-0.76855 2.15194,-1.28093 2.15194,-2.04947c0,-0.66609 -0.46113,-0.81979 -1.02474,-0.81979c-0.66608,0 -1.1272,0.51237 -1.48586,0.92226z" fill="#000000" stroke="none" stroke-width="1"/><path d="M238.26046,180.81347h-2.34301v2.34301h-1.65076v-2.34301h-2.34301v-1.65075h2.34301v-2.34301h1.65076v2.34301h2.34301z" fill="#000000" stroke="none" stroke-width="1"/></g></g></svg>