<svg version="1.1" xmlns="http://www.w3.org/2000/svg" xmlns:xlink="http://www.w3.org/1999/xlink" width="26.625" height="33.125" viewBox="0,0,26.625,33.125"><g transform="translate(-226.6875,-163.43753)"><g data-paper-data="{&quot;isPaintingLayer&quot;:true}" fill-rule="nonzero" stroke-linecap="butt" stroke-linejoin="miter" stroke-miterlimit="10" stroke-dasharray="" stroke-dashoffset="0" style="mix-blend-mode: normal"><path d="M226.6875,196.56253v-33.125h26.625v33.125z" fill="none" stroke="#000000" stroke-width="0"/><path d="M227.58929,193.31772c0,-2.25074 0,-16.31081 0,-26.75056c0,-0.70529 1.15456,-1.80723 1.89353,-1.80723c8.23134,0 18.94208,0 21.09178,0c0.71657,0 1.83611,0.9451 1.83611,1.55001c0,10.48994 0,24.47785 0,26.87916c0,0.80044 -1.27638,2.05102 -2.09333,2.05102c-2.45085,0 -12.86044,0 -21.09178,0c-0.63859,0 -1.63631,-1.17217 -1.63631,-1.92242z" data-paper-data="{&quot;origPos&quot;:null}" fill="#ffffff" stroke="#000000" stroke-width="1.5"/><path d="M236.06098,180.82538h-6.33677v-1.65075h6.33677z" fill="#000000" stroke="none" stroke-width="1"/><path d="M236.85188,177.36131c0.66608,-0.35866 1.22967,-0.5636 2.15194,-1.63958h2.15194v6.9682h1.17844v1.63957h-4.91872v-1.63957h1.22968v-4.56007l-1.22968,0.5636zM242.79534,179.97438c0,-2.61307 1.43463,-4.40636 3.4841,-4.40636c2.40813,0 3.53534,1.74205 3.53534,4.4576c0,2.76678 -1.28092,4.40636 -3.4841,4.40636c-2.04947,0 -3.53534,-1.43462 -3.53534,-4.4576zM247.30417,180.02562c0,-1.43463 -0.46112,-2.5106 -1.02473,-2.5106c-0.46113,0 -1.02473,0.97349 -1.02473,2.45936c0,1.58834 0.5636,2.56184 1.07597,2.56184c0.56361,0 0.97349,-0.9735 0.97349,-2.5106z" fill="#000000" stroke="none" stroke-width="1"/></g></g></svg>