<svg version="1.1" xmlns="http://www.w3.org/2000/svg" xmlns:xlink="http://www.w3.org/1999/xlink" width="80.82952" height="15.58696" viewBox="0,0,80.82952,15.58696"><g transform="translate(-199.58524,-172.20652)"><g data-paper-data="{&quot;isPaintingLayer&quot;:true}" fill-rule="nonzero" stroke="none" stroke-linecap="butt" stroke-linejoin="miter" stroke-miterlimit="10" stroke-dasharray="" stroke-dashoffset="0" style="mix-blend-mode: normal"><path d="M210.98651,175.27342h6.83719c-0.11891,0.59454 -0.27745,1.2089 -0.47563,1.84307c-0.15855,0.67381 -0.31709,1.26835 -0.47564,1.78361h-0.1189c0,-0.11891 0.01981,-0.35672 0.05945,-0.71345c0.07927,-0.31708 0.11891,-0.57472 0.11891,-0.7729c0,-0.23782 -0.03964,-0.45582 -0.11891,-0.654c-0.03964,-0.15855 -0.13872,-0.3369 -0.29727,-0.53508c-0.19818,-0.19818 -0.39636,-0.35672 -0.59454,-0.47563c-0.23782,-0.07927 -0.47563,-0.11891 -0.71345,-0.11891h-0.17836c-0.23782,0.75308 -0.53508,1.70435 -0.89181,2.85379c-0.35673,1.18908 -0.65399,2.21961 -0.89181,3.0916c-0.27746,0.83236 -0.47563,1.50616 -0.59454,2.02143c-0.03964,0.07927 -0.05945,0.13873 -0.05945,0.17837c0,0.27746 0.15855,0.43599 0.47563,0.47563c0.27746,0.07927 0.61436,0.1189 1.01072,0.1189h0.23781c0,0.07927 0,0.13873 0,0.17837h-4.69685c0,-0.11891 0.01982,-0.17837 0.05946,-0.17837c0.07927,0.03964 0.15854,0.05946 0.23781,0.05946c0.31708,0 0.63418,-0.05945 0.95126,-0.17836c0.31708,-0.11891 0.53508,-0.33691 0.65399,-0.654l2.19979,-7.90736c-0.11891,-0.03964 -0.25763,-0.05946 -0.41618,-0.05946c-0.27746,0 -0.5549,0.07927 -0.83235,0.23782c-0.27746,0.15855 -0.57473,0.37654 -0.89181,0.654c-0.31708,0.27746 -0.59453,0.654 -0.83235,1.12963c-0.23782,0.47563 -0.47563,0.93144 -0.71345,1.36744h-0.17836zM221.62875,179.13792c0.03964,0.11891 0.05945,0.25763 0.05945,0.41617c0,0.27746 -0.05945,0.47563 -0.17836,0.59454c-0.15855,0.15855 -0.27745,0.25763 -0.35672,0.29727c-0.11891,0.03964 -0.218,0.05946 -0.29727,0.05946c-0.07927,0 -0.17836,-0.03964 -0.29727,-0.11891c-0.07927,-0.03964 -0.11891,-0.13872 -0.11891,-0.29727c0,-0.07927 0.01982,-0.15855 0.05946,-0.23782c0,-0.07927 0.01981,-0.15854 0.05945,-0.23781c0.03964,-0.11891 0.13872,-0.25763 0.29727,-0.41618c0.15855,-0.11891 0.218,-0.218 0.17836,-0.29727c-0.03964,-0.07927 -0.1189,-0.11891 -0.23781,-0.11891c-0.07927,0 -0.23782,0.15855 -0.47564,0.47564c-0.23782,0.31708 -0.47563,0.75308 -0.71345,1.30798c-0.23782,0.59454 -0.47563,1.24853 -0.71344,1.96198c-0.23782,0.75308 -0.45582,1.44671 -0.654,2.08088l-1.12962,0.05945l1.5458,-4.87521c0,-0.07927 0,-0.15855 0,-0.23782c0.03964,-0.07927 0.05946,-0.13872 0.05946,-0.17836c0,-0.31708 -0.09909,-0.45582 -0.29727,-0.41618c-0.35673,0.03964 -0.71344,0.41618 -1.07017,1.12962c-0.39636,0.71345 -0.63418,1.12963 -0.71345,1.24854c0.15855,-0.5549 0.37654,-1.08999 0.654,-1.60525c0.27746,-0.47563 0.51526,-0.7729 0.71344,-0.89181c0.19818,-0.11891 0.35672,-0.17836 0.47563,-0.17836c0.19818,0 0.37654,0.05945 0.53509,0.17836c0.15855,0.07927 0.25763,0.23782 0.29727,0.47563c0.07927,0.23782 0.11891,0.47563 0.11891,0.71345l-0.05945,0.47563c0.19818,-0.39636 0.41618,-0.83236 0.65399,-1.30799c0.19818,-0.43599 0.47563,-0.654 0.83235,-0.654c0.19818,0 0.35672,0.05946 0.47563,0.17837c0.15855,0.07927 0.25763,0.218 0.29727,0.41618zM226.38506,179.25683c0.03964,-0.11891 0.07927,-0.218 0.11891,-0.29727c0.03964,-0.11891 0.09909,-0.23781 0.17836,-0.35672l0.95126,-0.05946c-0.11891,0.51527 -0.31708,1.2089 -0.59454,2.08089c-0.27746,0.87199 -0.47563,1.58544 -0.59454,2.14034c-0.15855,0.5549 -0.23782,1.03054 -0.23782,1.4269c0,0.11891 0.05946,0.17836 0.17837,0.17836c0.15855,0 0.33691,-0.1189 0.53509,-0.35672c0.23782,-0.19818 0.45581,-0.49545 0.65399,-0.89181c0.23782,-0.39636 0.45582,-0.7729 0.654,-1.12963c-0.15855,0.5549 -0.39637,1.07017 -0.71345,1.5458c-0.27746,0.43599 -0.53508,0.71345 -0.7729,0.83236c-0.19818,0.15855 -0.35672,0.23782 -0.47563,0.23782c-0.11891,0 -0.23782,-0.05945 -0.35673,-0.17836c-0.15855,-0.07927 -0.27745,-0.17836 -0.35672,-0.29727c-0.07927,-0.07927 -0.11891,-0.17836 -0.11891,-0.29727c-0.03964,-0.11891 -0.05945,-0.23781 -0.05945,-0.35672c0,-0.19818 0,-0.31708 0,-0.35672c0.03964,-0.03964 0.05945,-0.07927 0.05945,-0.11891c-0.35673,0.47563 -0.69363,0.87199 -1.01072,1.18908c-0.27746,0.35673 -0.63417,0.53509 -1.07017,0.53509c-0.11891,0 -0.27745,-0.03964 -0.47563,-0.11891c-0.15855,-0.07927 -0.31708,-0.218 -0.47563,-0.41618c-0.11891,-0.23782 -0.19818,-0.47563 -0.23782,-0.71345c-0.07927,-0.23782 -0.11891,-0.43599 -0.11891,-0.59454c0,-0.63417 0.17836,-1.24853 0.53509,-1.84307c0.31708,-0.63417 0.69363,-1.14944 1.12963,-1.5458c0.39636,-0.39636 0.67381,-0.65399 0.83235,-0.7729c0.19818,-0.07927 0.43599,-0.13873 0.71345,-0.17837c0.27746,0 0.49544,0.05946 0.65399,0.17837c0.19818,0.11891 0.35673,0.29727 0.47564,0.53509zM224.6609,179.01901c-0.51527,0.67381 -0.91162,1.42689 -1.18908,2.25924c-0.27746,0.83236 -0.41618,1.68453 -0.41618,2.55652c0,0.19818 0.03964,0.35672 0.11891,0.47563c0.07927,0.11891 0.19817,0.17836 0.35672,0.17836c0.03964,0 0.13872,-0.03964 0.29727,-0.11891c0.15855,-0.07927 0.37654,-0.23781 0.654,-0.47563c0.23782,-0.27746 0.49544,-0.63417 0.7729,-1.07017c0.27746,-0.47563 0.51526,-0.93145 0.71345,-1.36744c0.19818,-0.47563 0.29727,-0.93144 0.29727,-1.36744c0,-0.39636 -0.09909,-0.71344 -0.29727,-0.95126c-0.15855,-0.27746 -0.35672,-0.41618 -0.59454,-0.41618c-0.27746,0 -0.51526,0.09909 -0.71345,0.29727zM229.47666,184.36986c-0.31708,-0.15855 -0.5549,-0.39636 -0.71345,-0.71345c-0.11891,-0.27746 -0.17836,-0.59453 -0.17836,-0.95126c0,-0.27746 0.11891,-0.79272 0.35672,-1.54581c0.23782,-0.71345 0.5549,-1.28816 0.95126,-1.72416c0.43599,-0.43599 0.83235,-0.69363 1.18908,-0.7729c0.35673,-0.07927 0.5549,-0.11891 0.59454,-0.11891c0.19818,0 0.37654,0.05946 0.53509,0.17837c0.15855,0.07927 0.27745,0.19817 0.35672,0.35672c0.07927,0.11891 0.13873,0.218 0.17837,0.29727c0,0.11891 0.01981,0.218 0.05945,0.29727l0.83235,-3.26996c-0.11891,-0.07927 -0.23781,-0.11891 -0.35672,-0.11891c-0.11891,-0.03964 -0.218,-0.05945 -0.29727,-0.05945h-0.29727c-0.11891,0 -0.23782,-0.01982 -0.35673,-0.05946c0.27746,-0.07927 0.63418,-0.1189 1.07017,-0.1189c0.39636,-0.03964 0.79272,-0.07927 1.18908,-0.11891l0.11891,0.11891c-0.23782,0.9909 -0.51527,2.04124 -0.83236,3.15105c-0.31708,1.10981 -0.57472,2.04125 -0.7729,2.79433c-0.23782,0.79271 -0.41618,1.4269 -0.53509,1.90252c-0.03964,0.11891 -0.01981,0.218 0.05946,0.29727c0.07927,0.07927 0.15854,0.0991 0.23781,0.05946c0.43599,-0.23782 0.79271,-0.59454 1.07017,-1.07017c0.27746,-0.47563 0.49545,-0.85217 0.654,-1.12963c-0.19818,0.59454 -0.41618,1.07017 -0.654,1.4269c-0.19818,0.39636 -0.43599,0.65399 -0.71344,0.7729c-0.23782,0.15855 -0.39636,0.23781 -0.47563,0.23781c-0.11891,0 -0.23782,-0.03964 -0.35673,-0.11891c-0.11891,-0.11891 -0.218,-0.23781 -0.29727,-0.35672c-0.07927,-0.15855 -0.11891,-0.31709 -0.11891,-0.47564c-0.03964,-0.15855 -0.05945,-0.31708 -0.05945,-0.47563c-0.39636,0.5549 -0.71345,0.95127 -0.95127,1.18908c-0.19818,0.23782 -0.49545,0.35672 -0.89181,0.35672c-0.15855,-0.03964 -0.27745,-0.05945 -0.35672,-0.05945c-0.07927,-0.03964 -0.15855,-0.0991 -0.23782,-0.17837zM230.0712,184.31041c0.11891,0.03964 0.23781,0.03964 0.35672,0c0.11891,-0.03964 0.19818,-0.07927 0.23782,-0.11891c0.5549,-0.5549 1.01071,-1.16926 1.36744,-1.84307c0.31708,-0.71345 0.47564,-1.40708 0.47564,-2.08089c0,-0.31708 -0.03964,-0.65399 -0.11891,-1.01071c-0.03964,-0.15855 -0.07927,-0.27746 -0.11891,-0.35673c-0.07927,-0.03964 -0.15855,-0.05946 -0.23782,-0.05946c-0.07927,-0.03964 -0.15854,-0.05945 -0.23781,-0.05945c-0.19818,0 -0.39635,0.07927 -0.59454,0.23782c-0.15855,0.15855 -0.37654,0.45581 -0.654,0.89181c-0.23782,0.47563 -0.47563,1.07017 -0.71344,1.78361c-0.23782,0.75308 -0.35673,1.48635 -0.35673,2.19979c0,0.11891 0.07927,0.218 0.23782,0.29727c0.11891,0.07927 0.23781,0.11891 0.35672,0.11891zM237.80021,179.07846c0.11891,0.27746 0.17836,0.57473 0.17836,0.89181c0,0.35673 -0.19818,0.97108 -0.59454,1.84307c-0.35673,0.83236 -0.53509,1.44671 -0.53509,1.84307c0,0.15855 0,0.33691 0,0.53509c0.03964,0.11891 0.15855,0.17836 0.35673,0.17836c0.11891,0 0.27745,-0.07927 0.47563,-0.23781c0.19818,-0.15855 0.41618,-0.47563 0.654,-0.95126c0.23782,-0.47563 0.45581,-0.93144 0.65399,-1.36744c-0.07927,0.5549 -0.25763,1.07017 -0.53509,1.5458c-0.23782,0.47563 -0.49544,0.79272 -0.7729,0.95127c-0.23782,0.15855 -0.41618,0.23782 -0.53509,0.23782c-0.15855,0 -0.31708,-0.05946 -0.47563,-0.17837c-0.11891,-0.11891 -0.218,-0.25763 -0.29727,-0.41617c-0.07927,-0.15855 -0.13872,-0.31709 -0.17836,-0.47563c-0.03964,-0.11891 -0.05945,-0.27745 -0.05945,-0.47563c0,-0.43599 0.17836,-1.07017 0.53508,-1.90252c0.35673,-0.87199 0.53509,-1.50617 0.53509,-1.90252c0,-0.11891 0,-0.218 0,-0.29727c0,-0.11891 -0.07927,-0.17836 -0.23782,-0.17836c-0.15855,0 -0.3369,0.09909 -0.53508,0.29727c-0.19818,0.19818 -0.39636,0.45582 -0.59454,0.7729c-0.19818,0.31708 -0.35672,0.67381 -0.47563,1.07017h-0.17836c0.23782,-0.71345 0.47563,-1.22872 0.71345,-1.54581c0.27746,-0.35673 0.51526,-0.57472 0.71345,-0.65399c0.19818,-0.11891 0.33691,-0.17836 0.41618,-0.17836c0.15855,0 0.31708,0.05945 0.47563,0.17836c0.11891,0.11891 0.218,0.25763 0.29727,0.41618zM237.6813,175.92741c0.19818,0 0.37654,0.07927 0.53509,0.23781c0.11891,0.11891 0.17836,0.27745 0.17836,0.47563c0,0.19818 -0.05945,0.37654 -0.17836,0.53509c-0.11891,0.11891 -0.29727,0.17836 -0.53509,0.17836c-0.19818,0 -0.35672,-0.05945 -0.47563,-0.17836c-0.11891,-0.15855 -0.17836,-0.33691 -0.17836,-0.53509c0,-0.19818 0.05945,-0.35672 0.17836,-0.47563c0.11891,-0.15855 0.27745,-0.23781 0.47563,-0.23781zM243.38887,178.84065c0.23782,0.23782 0.35672,0.51527 0.35672,0.83236c0,0.11891 -0.03964,0.29727 -0.11891,0.53509c-0.11891,0.27746 -0.35672,0.41618 -0.71345,0.41618c-0.03964,0 -0.09909,-0.01981 -0.17836,-0.05945c-0.07927,-0.03964 -0.15855,-0.09909 -0.23782,-0.17836c-0.03964,-0.07927 -0.05945,-0.17836 -0.05945,-0.29727c0,-0.15855 0.01981,-0.27745 0.05945,-0.35672c0.07927,-0.03964 0.19818,-0.13872 0.35673,-0.29727c0.19818,-0.11891 0.29727,-0.218 0.29727,-0.29727c0,-0.03964 0,-0.09909 0,-0.17836c-0.15855,-0.15855 -0.35672,-0.23781 -0.59454,-0.23781c-0.19818,0 -0.47563,0.17836 -0.83236,0.53509c-0.35673,0.35673 -0.67381,0.99089 -0.95127,1.90252c-0.23782,0.87199 -0.35672,1.78362 -0.35672,2.73488c0,0.15855 0.07927,0.29727 0.23782,0.41618c0.15855,0.07927 0.3369,0.11891 0.53508,0.11891c0.11891,0 0.29727,-0.03964 0.53509,-0.11891c0.27746,-0.11891 0.57473,-0.37655 0.89181,-0.77291c0.35673,-0.43599 0.65399,-0.91162 0.89181,-1.42689h0.05946c-0.15855,0.5549 -0.436,1.07017 -0.83236,1.5458c-0.35673,0.47563 -0.71345,0.75308 -1.07017,0.83236c-0.31708,0.07927 -0.53508,0.11891 -0.65399,0.11891c-0.47563,0 -0.81254,-0.13872 -1.01072,-0.41618c-0.19818,-0.27746 -0.33691,-0.5549 -0.41618,-0.83236c-0.07927,-0.27746 -0.11891,-0.59453 -0.11891,-0.95126c0,-0.27746 0.01982,-0.5549 0.05946,-0.83236c0.03964,-0.23782 0.15854,-0.59454 0.35672,-1.07017c0.23782,-0.51527 0.5549,-0.95126 0.95126,-1.30799c0.43599,-0.39636 0.95126,-0.59454 1.5458,-0.59454c0.23782,0 0.43599,0.01981 0.59454,0.05945c0.15855,0 0.29727,0.05945 0.41618,0.17836zM246.71829,179.07846c0.11891,0.27746 0.17836,0.57473 0.17836,0.89181c0,0.35673 -0.19818,0.97108 -0.59454,1.84307c-0.35673,0.83236 -0.53508,1.44671 -0.53508,1.84307c0,0.15855 0.01981,0.33691 0.05945,0.53509c0.03964,0.11891 0.15854,0.17836 0.35672,0.17836c0.07927,0 0.218,-0.07927 0.41618,-0.23781c0.19818,-0.15855 0.41618,-0.47563 0.65399,-0.95126c0.23782,-0.47563 0.45581,-0.93144 0.65399,-1.36744c-0.07927,0.5549 -0.23782,1.07017 -0.47563,1.5458c-0.27746,0.47563 -0.53508,0.79272 -0.7729,0.95127c-0.27746,0.15855 -0.45582,0.23782 -0.53509,0.23782c-0.15855,0 -0.31708,-0.05946 -0.47563,-0.17837c-0.15855,-0.11891 -0.27746,-0.25763 -0.35673,-0.41617c-0.07927,-0.15855 -0.13872,-0.31709 -0.17836,-0.47563c0,-0.11891 0,-0.27745 0,-0.47563c0,-0.43599 0.15855,-1.07017 0.47563,-1.90252c0.39636,-0.87199 0.59454,-1.50617 0.59454,-1.90252c0,-0.11891 -0.01981,-0.218 -0.05945,-0.29727c0,-0.11891 -0.07927,-0.17836 -0.23782,-0.17836c-0.11891,0 -0.29727,0.09909 -0.53508,0.29727c-0.19818,0.19818 -0.39636,0.45582 -0.59454,0.7729c-0.19818,0.31708 -0.35672,0.67381 -0.47563,1.07017h-0.17836c0.27746,-0.71345 0.53508,-1.22872 0.7729,-1.54581c0.23782,-0.35673 0.45582,-0.57472 0.654,-0.65399c0.19818,-0.11891 0.33691,-0.17836 0.41618,-0.17836c0.15855,0 0.31708,0.05945 0.47563,0.17836c0.11891,0.11891 0.218,0.25763 0.29727,0.41618zM246.65883,175.92741c0.19818,0 0.35672,0.07927 0.47563,0.23781c0.15855,0.11891 0.23782,0.27745 0.23782,0.47563c0,0.19818 -0.07927,0.37654 -0.23782,0.53509c-0.11891,0.11891 -0.27745,0.17836 -0.47563,0.17836c-0.19818,0 -0.37654,-0.05945 -0.53509,-0.17836c-0.11891,-0.15855 -0.17836,-0.33691 -0.17836,-0.53509c0,-0.19818 0.05945,-0.35672 0.17836,-0.47563c0.15855,-0.15855 0.33691,-0.23781 0.53509,-0.23781zM253.07985,179.43519c0.23782,0.47563 0.35673,0.97108 0.35673,1.48635c0,0.35673 -0.05946,0.69364 -0.17837,1.01072c-0.11891,0.35673 -0.33691,0.75308 -0.65399,1.18908c-0.31708,0.43599 -0.67381,0.79271 -1.07017,1.07017c-0.39636,0.31708 -0.85217,0.47563 -1.36744,0.47563c-0.71345,-0.07927 -1.18908,-0.37653 -1.4269,-0.8918c-0.27746,-0.51527 -0.41617,-1.03054 -0.41617,-1.54581c0,-0.31708 0.03963,-0.59454 0.1189,-0.83235c0.03964,-0.27746 0.19818,-0.654 0.47564,-1.12963c0.27746,-0.43599 0.63417,-0.83235 1.07017,-1.18908c0.43599,-0.35673 0.93144,-0.53509 1.48635,-0.53509c0.19818,0 0.45582,0.03964 0.7729,0.11891c0.31708,0.03964 0.59454,0.29727 0.83236,0.7729zM251.53405,178.72174c-0.63417,0.19818 -1.12962,0.75308 -1.48634,1.6647c-0.23782,0.63417 -0.41618,1.10981 -0.53509,1.4269c-0.11891,0.27746 -0.19818,0.53508 -0.23782,0.7729c-0.07927,0.23782 -0.1189,0.45582 -0.1189,0.654c0,0.27746 0.03963,0.49544 0.1189,0.65399c0.07927,0.15855 0.19818,0.29727 0.35673,0.41618c0.15855,0.07927 0.33691,0.11891 0.53509,0.11891c0.15855,0 0.31708,-0.03964 0.47563,-0.11891c0.15855,-0.07927 0.39637,-0.33691 0.71345,-0.77291c0.27746,-0.47563 0.55489,-1.01071 0.83235,-1.60525c0.27746,-0.59454 0.41618,-1.16926 0.41618,-1.72416c0,-0.31708 -0.03964,-0.59454 -0.11891,-0.83236c-0.07927,-0.23782 -0.17836,-0.41618 -0.29727,-0.53509c-0.15855,-0.11891 -0.31708,-0.17836 -0.47563,-0.17836c-0.03964,0 -0.09909,0.01982 -0.17836,0.05946zM259.2036,179.25683c0.07927,0.23782 0.11891,0.49544 0.11891,0.7729c0,0.47563 -0.17836,1.18908 -0.53508,2.14034c-0.31709,0.95126 -0.47564,1.62507 -0.47564,2.02143c0,0.11891 0.09909,0.17836 0.29727,0.17836c0.07927,0 0.218,-0.03963 0.41618,-0.1189c0.19818,-0.11891 0.39636,-0.39636 0.59454,-0.83236c0.23781,-0.39636 0.45581,-0.79272 0.65399,-1.18908c-0.35672,0.91162 -0.61435,1.48635 -0.7729,1.72416c-0.15855,0.23782 -0.35672,0.39636 -0.59454,0.47563c-0.19818,0.11891 -0.35672,0.17836 -0.47563,0.17836c-0.39636,0 -0.63418,-0.1189 -0.71345,-0.35672c-0.07927,-0.23782 -0.11891,-0.436 -0.11891,-0.59454c-0.03964,-0.19818 -0.05946,-0.37654 -0.05946,-0.53508c0,-0.47563 0.17836,-1.12963 0.53508,-1.96198c0.35672,-0.87199 0.53509,-1.52598 0.53509,-1.96197c0,-0.11891 -0.01981,-0.218 -0.05945,-0.29727c0,-0.03964 -0.03964,-0.07927 -0.11891,-0.11891c-0.03964,-0.03964 -0.11891,-0.05945 -0.23782,-0.05945c-0.23781,0 -0.45582,0.15855 -0.654,0.47563c-0.23781,0.35673 -0.47563,0.81254 -0.71344,1.36744c-0.27745,0.59454 -0.51526,1.16926 -0.71344,1.72416c-0.19818,0.59454 -0.45582,1.34763 -0.7729,2.25925h-0.95127c0.07927,-0.43599 0.27746,-1.08999 0.59454,-1.96198c0.27746,-0.91162 0.47563,-1.60525 0.59454,-2.08088c0.15855,-0.51527 0.23781,-1.01072 0.23781,-1.48634c0,-0.03964 -0.03964,-0.07927 -0.11891,-0.11891c-0.03964,-0.03964 -0.09909,-0.05946 -0.17836,-0.05946c-0.11891,0 -0.29727,0.11891 -0.53508,0.35673c-0.23782,0.23782 -0.436,0.49544 -0.59454,0.7729c-0.15855,0.23782 -0.3369,0.71345 -0.53508,1.4269c0.11891,-0.71345 0.25763,-1.26835 0.41618,-1.66471c0.19818,-0.39636 0.43599,-0.67381 0.71345,-0.83236c0.27746,-0.15855 0.45581,-0.23782 0.53508,-0.23782c0.19818,0 0.37654,0.07927 0.53509,0.23782c0.15855,0.11891 0.23781,0.27745 0.23781,0.47563c0,0.31708 0.01981,0.5549 0.05945,0.71345c0,0.19818 0.03963,0.39636 0.11891,0.59454c0.23781,-0.59454 0.47564,-1.1098 0.71345,-1.5458c0.23782,-0.39636 0.57472,-0.59454 1.01072,-0.59454c0.23782,0 0.45581,0.05946 0.65399,0.17837c0.19818,0.11891 0.31709,0.29727 0.35672,0.53509zM265.08953,179.25683c0.03964,-0.11891 0.07926,-0.218 0.11891,-0.29727c0.03964,-0.11891 0.09909,-0.23781 0.17836,-0.35672l0.95126,-0.05946c-0.11891,0.51527 -0.31709,1.2089 -0.59454,2.08089c-0.27746,0.87199 -0.47563,1.58544 -0.59454,2.14034c-0.15855,0.5549 -0.23781,1.03054 -0.23781,1.4269c0,0.11891 0.05945,0.17836 0.17836,0.17836c0.15855,0 0.33691,-0.1189 0.53508,-0.35672c0.19818,-0.19818 0.41617,-0.49545 0.65399,-0.89181c0.23781,-0.39636 0.45582,-0.7729 0.654,-1.12963c-0.19818,0.5549 -0.436,1.07017 -0.71345,1.5458c-0.27745,0.43599 -0.53508,0.71345 -0.7729,0.83236c-0.19818,0.15855 -0.35672,0.23782 -0.47563,0.23782c-0.11891,0 -0.25763,-0.05945 -0.41617,-0.17836c-0.11891,-0.07927 -0.218,-0.17836 -0.29727,-0.29727c-0.07927,-0.07927 -0.11891,-0.17836 -0.11891,-0.29727c-0.03964,-0.11891 -0.05945,-0.23781 -0.05945,-0.35672c0,-0.19818 0,-0.31708 0,-0.35672c0,-0.03964 0.01981,-0.07927 0.05945,-0.11891c-0.35672,0.47563 -0.69363,0.87199 -1.01072,1.18908c-0.31709,0.35673 -0.69363,0.53509 -1.12962,0.53509c-0.07927,0 -0.218,-0.03964 -0.41618,-0.11891c-0.19818,-0.07927 -0.35672,-0.218 -0.47563,-0.41618c-0.11891,-0.23782 -0.19817,-0.47563 -0.23781,-0.71345c-0.07927,-0.23782 -0.11891,-0.43599 -0.11891,-0.59454c0,-0.63417 0.15855,-1.24853 0.47563,-1.84307c0.35672,-0.63417 0.73326,-1.14944 1.12963,-1.5458c0.43599,-0.39636 0.73326,-0.65399 0.89181,-0.7729c0.19818,-0.07927 0.43599,-0.13873 0.71344,-0.17837c0.27746,0 0.49545,0.05946 0.654,0.17837c0.19818,0.11891 0.35672,0.29727 0.47563,0.53509zM263.36537,179.01901c-0.51527,0.67381 -0.91162,1.42689 -1.18908,2.25924c-0.27746,0.83236 -0.41618,1.68453 -0.41618,2.55652c0,0.19818 0.03964,0.35672 0.11891,0.47563c0.07927,0.11891 0.19818,0.17836 0.35672,0.17836c0.03964,0 0.13873,-0.03964 0.29727,-0.11891c0.15855,-0.07927 0.35672,-0.23781 0.59453,-0.47563c0.27746,-0.27746 0.5549,-0.63417 0.83236,-1.07017c0.27746,-0.47563 0.51526,-0.93145 0.71344,-1.36744c0.19818,-0.47563 0.29727,-0.93144 0.29727,-1.36744c0,-0.39636 -0.09909,-0.71344 -0.29727,-0.95126c-0.15855,-0.27746 -0.35672,-0.41618 -0.59453,-0.41618c-0.27745,0 -0.51527,0.09909 -0.71345,0.29727zM270.20257,175.92741h0.17836l-2.02143,7.43173c0,0.03964 0,0.11891 0,0.23782c-0.03964,0.07927 -0.05945,0.15855 -0.05945,0.23782c0,0.35673 0.07927,0.53508 0.23781,0.53508c0.436,0 0.7729,-0.25763 1.01072,-0.7729c0.27746,-0.5549 0.53508,-1.07017 0.7729,-1.5458c-0.23782,0.79271 -0.436,1.36744 -0.59454,1.72417c-0.15855,0.31708 -0.37653,0.53508 -0.65399,0.65399c-0.27746,0.15855 -0.47563,0.23781 -0.59454,0.23781c-0.15855,0 -0.31709,-0.05945 -0.47563,-0.17836c-0.11891,-0.11891 -0.25763,-0.27745 -0.41617,-0.47563c-0.11891,-0.19818 -0.17836,-0.41618 -0.17836,-0.654c0,-0.11891 0.01981,-0.25763 0.05945,-0.41617c0.03964,-0.19818 0.07927,-0.35672 0.11891,-0.47563l1.60525,-6.24266c-0.07927,-0.03964 -0.15855,-0.05946 -0.23781,-0.05946c-0.11891,-0.03964 -0.23781,-0.05945 -0.35672,-0.05945c-0.15855,0 -0.27746,0 -0.35672,0h-0.17836c0.15855,-0.07927 0.43599,-0.13872 0.83236,-0.17836c0.39636,0 0.83235,0 1.30798,0z" fill="#ffffff" stroke-width="1"/><path d="M199.58524,187.79348v-15.58696h80.82952v15.58696z" fill="none" stroke-width="0"/></g></g></svg>