<svg version="1.1" xmlns="http://www.w3.org/2000/svg" xmlns:xlink="http://www.w3.org/1999/xlink" width="46.24159" height="83.42131"><defs><radialGradient cx="247.98737" cy="180.53104" r="15.92568" gradientUnits="userSpaceOnUse" id="color-1"><stop offset="0" stop-color="#ffff99"/><stop offset="1" stop-color="#ff9400"/></radialGradient><radialGradient cx="253.48507" cy="197.04912" r="17.98062" gradientUnits="userSpaceOnUse" id="color-2"><stop offset="0" stop-color="#ffff99"/><stop offset="1" stop-color="#ff9400"/></radialGradient></defs><g transform="translate(-234.5,-175.1)"><g data-paper-data="{&quot;isPaintingLayer&quot;:true}" fill="none" fill-rule="nonzero" stroke="none" stroke-width="none" stroke-linecap="butt" stroke-linejoin="miter" stroke-miterlimit="10" stroke-dasharray="" stroke-dashoffset="0" font-family="none" font-weight="none" font-size="none" text-anchor="none" style="mix-blend-mode: normal"><path d="M234.7,185.8c0,-5.02579 4.07421,-9.1 9.1,-9.1c5.02579,0 9.1,4.07421 9.1,9.1c0,5.02579 -4.07421,9.1 -9.1,9.1c-5.02579,0 -9.1,-4.07421 -9.1,-9.1z" data-paper-data="{&quot;origPos&quot;:null}" fill="#505050" stroke="none" stroke-width="1"/><path d="M246.35563,194.11531l3.89042,-2.0018l27.76083,62.27117l-3.69042,1.40181z" data-paper-data="{&quot;origPos&quot;:null,&quot;origRot&quot;:0}" fill="#505050" stroke="#d1bd60" stroke-width="0"/><path d="M234.5,184.4c0,-5.13625 4.16376,-9.3 9.3,-9.3c5.13625,0 9.3,4.16376 9.3,9.3c0,5.13625 -4.16375,9.3 -9.3,9.3c-5.13625,0 -9.3,-4.16375 -9.3,-9.3z" data-paper-data="{&quot;origPos&quot;:null}" fill="url(#color-1)" stroke="none" stroke-width="1"/><path d="M246.15563,192.91531l2.49042,-1.2018l31.76083,64.87117l-3.29042,1.60181c0,0 -24.08994,-50.20201 -27.79567,-58.32938c-1.23524,-2.70912 -3.16516,-6.9418 -3.16516,-6.9418z" data-paper-data="{&quot;origPos&quot;:null,&quot;origRot&quot;:0}" fill="url(#color-2)" stroke="#d1bd60" stroke-width="0.5"/></g></g></svg>