<svg version="1.1" xmlns="http://www.w3.org/2000/svg" xmlns:xlink="http://www.w3.org/1999/xlink" width="29.86792" height="18.32421" viewBox="0,0,29.86792,18.32421"><g transform="translate(-234.40561,-170.74722)"><g data-paper-data="{&quot;isPaintingLayer&quot;:true}" fill-rule="nonzero" stroke="none" stroke-width="1" stroke-linecap="butt" stroke-linejoin="miter" stroke-miterlimit="10" stroke-dasharray="" stroke-dashoffset="0" style="mix-blend-mode: normal"><path d="M245.3571,188.26284l-0.14286,0.71428c-1.28571,-0.14285 -3.28571,-0.28571 -4.85715,-0.28571c-2.14285,0 -4.14285,0.14285 -5.85714,0.28571v-0.71428c0.71428,-0.28572 1.85714,-0.57143 2.71428,-0.85714c0.14285,-1.14285 0.28572,-4 0.28572,-7.57143c0,-3.57143 -0.14286,-3.64151 -0.28572,-4.92722c-0.71428,-0.14285 -2.09434,1.97574 -2.80862,1.54717l0.23719,-3.73316c1.23799,0.19046 2.68764,-1.97384 2.68764,-1.97384c0,0 2.78836,0.51562 3.88379,0.51562c1.57143,0 1.86792,0.14016 3.15364,-0.0027v0.85715c-0.71428,0.14285 -0.2965,0.14555 -1.01078,0.43127c-0.14286,1.14285 -0.42857,3.71428 -0.42857,7.28571c0,3.57143 0.14285,6.42858 0.42857,7.57143c0.57143,0.14285 1.42857,0.57142 2,0.85714z" fill="#29200e"/><path d="M264.13068,188.35714l-0.14286,0.71428c-1.28571,-0.14285 -3.28571,-0.28571 -4.85715,-0.28571c-2.14285,0 -4.14285,0.14285 -5.85714,0.28571v-0.71428c0.71428,-0.28572 1.85714,-0.57143 2.71428,-0.85714c0.14285,-1.14285 0.28572,-4 0.28572,-7.57143c0,-3.57143 -0.14286,-6 -0.28572,-7.28571c-0.71428,-0.14285 -2,-0.57143 -2.71428,-1l0.14285,-0.71429c1.85715,0.28572 3.28571,0.42857 6.57143,0.42857c1.57143,0 3,-0.14286 4.28572,-0.28572v0.85715c-0.71428,0.14285 -1.42858,0.42857 -2.14286,0.71429c-0.14286,1.14285 -0.42857,3.71428 -0.42857,7.28571c0,3.57143 0.14285,6.42858 0.42857,7.57143c0.57143,0.14285 1.42857,0.57142 2,0.85714z" fill="#29200e"/></g></g></svg>