<svg version="1.1" xmlns="http://www.w3.org/2000/svg" xmlns:xlink="http://www.w3.org/1999/xlink" width="80.82952" height="15.58696" viewBox="0,0,80.82952,15.58696"><g transform="translate(-199.58524,-172.20652)"><g data-paper-data="{&quot;isPaintingLayer&quot;:true}" fill-rule="nonzero" stroke="none" stroke-linecap="butt" stroke-linejoin="miter" stroke-miterlimit="10" stroke-dasharray="" stroke-dashoffset="0" style="mix-blend-mode: normal"><path d="M232.83582,176.37332c0.39635,0.71344 0.59454,1.50617 0.59454,2.37816c0,1.22872 -0.31708,2.29888 -0.95126,3.21051c-0.67381,0.91163 -1.28817,1.58543 -1.84307,2.02143c-0.5549,0.39636 -1.18908,0.59454 -1.90252,0.59454c-0.436,0 -0.81254,-0.13873 -1.12962,-0.41618c-0.35673,-0.27745 -0.63417,-0.67381 -0.83236,-1.18908c-0.15854,-0.5549 -0.23782,-1.16926 -0.23782,-1.84307c0,-0.95126 0.19818,-1.86289 0.59454,-2.73488c0.436,-0.87198 0.95126,-1.5458 1.5458,-2.02143c0.5549,-0.47563 0.99089,-0.7729 1.30799,-0.89181c0.27746,-0.11891 0.59454,-0.17836 0.95127,-0.17836c0.15854,0 0.37654,0.01983 0.65399,0.05946c0.23782,0.07927 0.47563,0.19818 0.71345,0.35672c0.19818,0.15854 0.37654,0.37654 0.53508,0.65399zM230.75493,175.54099c-0.67381,0.39636 -1.14943,0.81253 -1.42689,1.24853c-0.27746,0.436 -0.67381,1.32781 -1.18908,2.67543c-0.47563,1.30798 -0.71345,2.23944 -0.71345,2.79433c0,0.35672 0.03964,0.67381 0.11891,0.95126c0.11891,0.31709 0.27746,0.59454 0.47564,0.83236c0.19818,0.23782 0.43599,0.35672 0.71344,0.35672c0.11891,0 0.218,-0.01981 0.29727,-0.05945c0.11891,-0.03964 0.31709,-0.1189 0.59454,-0.23782c0.27746,-0.15854 0.59453,-0.47563 0.95126,-0.95126c0.31708,-0.47563 0.55491,-0.93145 0.71345,-1.36744c0.19818,-0.47563 0.41618,-1.07017 0.65399,-1.78361c0.27746,-0.75308 0.43599,-1.28816 0.47563,-1.60525c0.07927,-0.31709 0.11891,-0.61436 0.11891,-0.8918c0,-0.27745 -0.03964,-0.55491 -0.11891,-0.83236c-0.07927,-0.23782 -0.21799,-0.51526 -0.41618,-0.83236c-0.19818,-0.27745 -0.47563,-0.41618 -0.83236,-0.41618c-0.15854,0 -0.29727,0.03964 -0.41618,0.11891zM236.64087,176.25442l-0.71344,2.37815h1.18908v0.23782h-1.18908l-1.5458,5.05358c-0.03964,0.15854 0,0.29727 0.11891,0.41618c0.07927,0.11891 0.19818,0.15853 0.35672,0.1189c0.436,-0.15854 0.75308,-0.39635 0.95126,-0.71344c0.19818,-0.31709 0.47563,-0.872 0.83235,-1.66471c-0.07927,0.51527 -0.25763,1.01072 -0.53508,1.48635c-0.27746,0.436 -0.5549,0.73326 -0.83236,0.8918c-0.27746,0.11891 -0.47563,0.17836 -0.59454,0.17836c-0.23782,0 -0.436,-0.07927 -0.59454,-0.23782c-0.11891,-0.15854 -0.218,-0.31709 -0.29727,-0.47563c-0.07927,-0.19818 -0.11891,-0.39636 -0.11891,-0.59454c0,-0.15854 0.01981,-0.29727 0.05945,-0.41618c0.03964,-0.11891 0.11891,-0.37654 0.23782,-0.7729c0.11891,-0.39636 0.25763,-0.89181 0.41618,-1.48635c0.19818,-0.5549 0.37655,-1.14944 0.53509,-1.78362h-1.07017v-0.23782h1.12962l0.71345,-2.25925c0.11891,0 0.27745,-0.01981 0.47563,-0.05945c0.23782,-0.03964 0.39636,-0.05946 0.47563,-0.05946zM242.5268,179.16765c0.03964,0.11891 0.05945,0.25764 0.05945,0.41618c0,0.27745 -0.07927,0.47562 -0.23781,0.59454c-0.15854,0.11891 -0.27746,0.218 -0.35673,0.29727c-0.07927,0.03964 -0.17836,0.05946 -0.29727,0.05946c-0.07927,0 -0.15855,-0.03964 -0.23782,-0.11891c-0.11891,-0.03964 -0.17836,-0.13873 -0.17836,-0.29727c0,-0.07927 0.01981,-0.15854 0.05945,-0.23782c0.03964,-0.07927 0.05946,-0.17836 0.05946,-0.29727c0.03964,-0.07927 0.13873,-0.19818 0.29727,-0.35672c0.19818,-0.11891 0.27745,-0.218 0.23782,-0.29727c-0.03964,-0.07927 -0.13873,-0.11891 -0.29727,-0.11891c-0.07927,0 -0.23782,0.15854 -0.47563,0.47563c-0.19818,0.31709 -0.436,0.75308 -0.71344,1.30798c-0.23782,0.59454 -0.47563,1.24853 -0.71345,1.96197c-0.23782,0.75308 -0.45581,1.44671 -0.654,2.08089l-1.07017,0.05945l1.48635,-4.87522c0.03964,-0.07927 0.05945,-0.15854 0.05945,-0.23782c0,-0.07927 0,-0.13873 0,-0.17836c0,-0.31709 -0.09909,-0.4558 -0.29727,-0.41618c-0.35673,0.03964 -0.71344,0.41618 -1.07017,1.12963c-0.35673,0.71344 -0.59454,1.12962 -0.71345,1.24853c0.15854,-0.5549 0.37655,-1.08999 0.654,-1.60525c0.27746,-0.51527 0.51526,-0.81254 0.71345,-0.89181c0.19818,-0.11891 0.35672,-0.17836 0.47563,-0.17836c0.19818,0 0.37654,0.05945 0.53508,0.17836c0.15854,0.07927 0.27746,0.23782 0.35673,0.47564c0.03964,0.23782 0.05945,0.45581 0.05945,0.65399l-0.05945,0.53509c0.23782,-0.39636 0.4558,-0.83236 0.65399,-1.30799c0.23782,-0.436 0.53509,-0.654 0.89181,-0.654c0.15854,0 0.31708,0.05946 0.47563,0.17837c0.11891,0.07927 0.218,0.21799 0.29727,0.41617zM247.58037,179.46493c0.23782,0.47563 0.35673,0.97108 0.35673,1.48635c0,0.31709 -0.05945,0.65399 -0.17836,1.01072c-0.11891,0.35672 -0.3369,0.75308 -0.65399,1.18908c-0.27745,0.436 -0.61436,0.79271 -1.01072,1.07017c-0.39635,0.27745 -0.87199,0.41618 -1.4269,0.41618c-0.67381,-0.03964 -1.14944,-0.31709 -1.42689,-0.83236c-0.27746,-0.51527 -0.41618,-1.03053 -0.41618,-1.5458c0,-0.31709 0.03963,-0.61437 0.1189,-0.89181c0.07927,-0.23782 0.23782,-0.59454 0.47564,-1.07017c0.27746,-0.436 0.63417,-0.83236 1.07017,-1.18908c0.47563,-0.39636 0.9909,-0.59454 1.5458,-0.59454c0.15854,0 0.39636,0.03963 0.71345,0.1189c0.35673,0.07927 0.63417,0.35672 0.83235,0.83236zM246.09404,178.7515c-0.63417,0.19818 -1.14945,0.73327 -1.54581,1.60525c-0.23782,0.67381 -0.41617,1.14944 -0.53508,1.42689c-0.07927,0.31709 -0.15854,0.59454 -0.23782,0.83236c-0.03964,0.23782 -0.05945,0.45582 -0.05945,0.654c0,0.23782 0.01982,0.4558 0.05945,0.65399c0.11891,0.15854 0.25763,0.29727 0.41618,0.41618c0.15854,0.07927 0.31709,0.1189 0.47563,0.1189c0.15854,0 0.3369,-0.03963 0.53509,-0.1189c0.15854,-0.07927 0.37654,-0.33691 0.65399,-0.7729c0.31708,-0.47563 0.59454,-1.01072 0.83236,-1.60525c0.27745,-0.59454 0.41618,-1.16927 0.41618,-1.72417c0,-0.31709 -0.03964,-0.59454 -0.11891,-0.83236c-0.03964,-0.23782 -0.13873,-0.41617 -0.29727,-0.53508c-0.15854,-0.11891 -0.29726,-0.17836 -0.41617,-0.17836c-0.03964,0 -0.09909,0.01981 -0.17836,0.05946zM253.3474,179.46493c0.07927,0.11891 0.11891,0.25764 0.11891,0.41618c0,0.35672 -0.09909,0.55489 -0.29727,0.59454c-0.19818,0.03964 -0.31709,0.05946 -0.35673,0.05946c-0.31708,0 -0.51527,-0.13873 -0.59454,-0.41618c-0.07927,-0.15854 0.03964,-0.31709 0.35673,-0.47564c0.27746,-0.15854 0.39635,-0.31709 0.35672,-0.47563c-0.23782,-0.27745 -0.59454,-0.41617 -1.07017,-0.41617c-0.03964,0 -0.09909,0 -0.17836,0c-0.07927,0 -0.19819,0.01982 -0.35673,0.05945c-0.19818,0 -0.39635,0.05945 -0.59454,0.17836c-0.23782,0.11891 -0.37654,0.27745 -0.41618,0.47563c-0.03964,0.15854 -0.05945,0.27745 -0.05945,0.35672c0,0.39636 0.37654,0.7729 1.12963,1.12963c0.75308,0.31709 1.18908,0.63417 1.30799,0.95126c0.11891,0.27745 0.17836,0.51526 0.17836,0.71344c0,0.23782 -0.05945,0.47564 -0.17836,0.71345c-0.11891,0.19818 -0.27746,0.41617 -0.47564,0.65399c-0.23782,0.19818 -0.51526,0.35672 -0.83235,0.47563c-0.31708,0.11891 -0.654,0.17836 -1.01072,0.17836c-0.27746,0 -0.61436,-0.03964 -1.01071,-0.11891c-0.39636,-0.11891 -0.65399,-0.3369 -0.7729,-0.65399c-0.07927,-0.27745 -0.1189,-0.47563 -0.1189,-0.59454c0,-0.23782 0.05945,-0.436 0.17836,-0.59454c0.11891,-0.15854 0.27745,-0.23782 0.47563,-0.23782c0.23782,0 0.39635,0 0.47563,0c0.11891,0.03964 0.19819,0.13873 0.23782,0.29727c0.03964,0.11891 0.05945,0.19818 0.05945,0.23781c0,0.15854 -0.05945,0.27745 -0.17836,0.35673c-0.07927,0.11891 -0.17836,0.17836 -0.29727,0.17836c-0.11891,-0.03964 -0.218,-0.03964 -0.29727,0c-0.03964,0.03964 -0.09909,0.07926 -0.17836,0.1189c0,0.19818 0.05945,0.35672 0.17836,0.47564c0.11891,0.11891 0.27745,0.218 0.47563,0.29727c0.23782,0.07927 0.49545,0.11891 0.7729,0.11891c0.35673,0 0.67381,-0.07927 0.95127,-0.23782c0.23782,-0.11891 0.41618,-0.25763 0.53509,-0.41618c0.11891,-0.15854 0.19817,-0.29727 0.23781,-0.41618c0.03963,-0.15854 0.05946,-0.25763 0.05946,-0.29727c0,-0.23782 -0.05946,-0.436 -0.17837,-0.59454c-0.15854,-0.15854 -0.39635,-0.31709 -0.71344,-0.47563c-0.27746,-0.15854 -0.61436,-0.33691 -1.01072,-0.53508c-0.47563,-0.31709 -0.71345,-0.67381 -0.71345,-1.07017c0,-0.436 0.15855,-0.83235 0.47563,-1.18908c0.27746,-0.31709 0.59454,-0.51527 0.95126,-0.59454c0.35673,-0.07927 0.63417,-0.11891 0.83235,-0.11891c0.35673,0 0.67381,0.07928 0.95126,0.23782c0.27745,0.11891 0.47563,0.3369 0.59454,0.65399z" fill="#ffffff" stroke-width="1"/><path d="M199.58524,187.79348v-15.58696h80.82952v15.58696z" fill="none" stroke-width="0"/></g></g></svg>