<svg version="1.1" xmlns="http://www.w3.org/2000/svg" xmlns:xlink="http://www.w3.org/1999/xlink" width="80.82952" height="15.58696" viewBox="0,0,80.82952,15.58696"><g transform="translate(-199.58524,-172.20652)"><g data-paper-data="{&quot;isPaintingLayer&quot;:true}" fill-rule="nonzero" stroke="none" stroke-linecap="butt" stroke-linejoin="miter" stroke-miterlimit="10" stroke-dasharray="" stroke-dashoffset="0" style="mix-blend-mode: normal"><path d="M222.22331,176.25442l2.3187,5.88593l1.48635,-5.17248c0.03964,-0.19818 0.05945,-0.37654 0.05945,-0.53509c0,-0.35673 -0.13872,-0.59454 -0.41618,-0.71345c-0.27746,-0.15854 -0.59453,-0.23781 -0.95126,-0.23781c-0.11891,0.03964 -0.19819,0.05945 -0.23782,0.05945c0,-0.07927 0.01981,-0.15854 0.05945,-0.23782h3.68614c0,0.07927 0,0.13873 0,0.17837c-0.15854,0 -0.27745,0 -0.35672,0c-0.31708,0 -0.57471,0.05945 -0.7729,0.17836c-0.23782,0.11891 -0.41618,0.35672 -0.53509,0.71345l-2.3187,8.20463h-0.11891l-2.85378,-7.55064l-1.66471,6.36157c-0.03964,0.11891 -0.05945,0.218 -0.05945,0.29727c0,0.31709 0.11891,0.51526 0.35673,0.59454c0.23782,0.07927 0.51526,0.11891 0.83235,0.11891h0.23782c0,0.07927 0,0.13873 0,0.17836h-3.7456v-0.17836h0.23782c0.31708,0 0.63417,-0.07927 0.95126,-0.23782c0.31708,-0.15854 0.5549,-0.49545 0.71345,-1.01072l1.78361,-6.42102c0.03964,-0.19818 0.05946,-0.33691 0.05946,-0.41618c0,-0.27745 -0.07928,-0.47563 -0.23782,-0.59454c-0.15854,-0.11891 -0.47563,-0.17836 -0.95126,-0.17836c-0.15854,0 -0.31709,0 -0.47563,0c0,-0.03964 0,-0.07927 0,-0.11891c0,-0.03964 0,-0.07927 0,-0.11891c0.19818,0 0.39636,0 0.59454,0c0.15854,0 0.3369,0 0.53508,0c0.51527,0 0.89181,0.05946 1.12962,0.17837c0.27746,0.11891 0.49545,0.37654 0.65399,0.7729zM230.90358,179.28657c0.07927,-0.11891 0.13873,-0.218 0.17836,-0.29727c0,-0.11891 0.03964,-0.25763 0.11891,-0.41618h0.95126c-0.11891,0.51527 -0.31708,1.2089 -0.59454,2.08088c-0.23782,0.87198 -0.436,1.58544 -0.59454,2.14034c-0.15854,0.5549 -0.23781,1.03054 -0.23781,1.4269c0,0.07927 0.05945,0.1189 0.17836,0.1189c0.15854,0 0.3369,-0.09909 0.53508,-0.29727c0.23782,-0.19818 0.47563,-0.49545 0.71345,-0.89181c0.23782,-0.39636 0.45581,-0.7729 0.65399,-1.12963c-0.19818,0.5549 -0.436,1.05034 -0.71345,1.48635c-0.27746,0.47563 -0.53508,0.7729 -0.7729,0.89181c-0.23782,0.11891 -0.41618,0.17836 -0.53509,0.17836c-0.11891,0 -0.23782,-0.03964 -0.35673,-0.11891c-0.15854,-0.07927 -0.27745,-0.17836 -0.35672,-0.29727c-0.03964,-0.11891 -0.07928,-0.218 -0.11891,-0.29727c0,-0.11891 0,-0.23782 0,-0.35673c0,-0.19818 0,-0.31708 0,-0.35672c0,-0.03964 0,-0.07927 0,-0.11891c-0.35673,0.47563 -0.69362,0.87199 -1.01072,1.18908c-0.27746,0.31709 -0.63417,0.47563 -1.07017,0.47563c-0.11891,0 -0.25763,-0.01982 -0.41618,-0.05946c-0.19818,-0.07927 -0.37655,-0.21799 -0.53509,-0.41617c-0.11891,-0.23782 -0.19818,-0.47564 -0.23781,-0.71345c-0.03964,-0.23782 -0.05946,-0.43599 -0.05946,-0.59453c0,-0.63417 0.15855,-1.24854 0.47564,-1.84307c0.31708,-0.63417 0.69362,-1.14944 1.12962,-1.5458c0.39635,-0.39636 0.69363,-0.65399 0.89181,-0.7729c0.15854,-0.07927 0.39635,-0.13872 0.71344,-0.17836c0.23782,0 0.45581,0.05945 0.654,0.17836c0.15854,0.11891 0.29727,0.29727 0.41618,0.53509zM229.23886,179.04875c-0.5549,0.63417 -0.97108,1.38727 -1.24854,2.25925c-0.27746,0.83236 -0.41618,1.68453 -0.41618,2.55651c0,0.19818 0.03964,0.35672 0.11891,0.47563c0.11891,0.11891 0.23781,0.17836 0.35672,0.17836c0.03964,0 0.13873,-0.03963 0.29727,-0.1189c0.15854,-0.07927 0.37653,-0.25763 0.65399,-0.53509c0.23782,-0.23782 0.49546,-0.59454 0.77291,-1.07017c0.27745,-0.436 0.51526,-0.89181 0.71345,-1.36744c0.19818,-0.47563 0.29727,-0.91163 0.29727,-1.30799c0,-0.39636 -0.07927,-0.71344 -0.23782,-0.95126c-0.15854,-0.27745 -0.37654,-0.41618 -0.65399,-0.41618c-0.27745,0 -0.49544,0.09909 -0.65399,0.29727zM238.69203,179.10821c0.03964,0.11891 0.05946,0.27745 0.05946,0.47563c0,0.15854 0,0.31709 0,0.47563c0,0.91163 -0.19819,1.74398 -0.59454,2.49706c-0.39635,0.75308 -0.85217,1.28816 -1.36744,1.60525c-0.47563,0.27745 -0.81253,0.41618 -1.01072,0.41618c-0.23782,0 -0.49545,-0.07927 -0.7729,-0.23782c-0.27745,-0.15854 -0.47563,-0.35672 -0.59454,-0.59454c-0.11891,-0.23782 -0.17836,-0.51526 -0.17836,-0.83235c0,-0.35673 0.15854,-0.97108 0.47563,-1.84307c0.35673,-0.91163 0.53508,-1.60525 0.53508,-2.08088c0,-0.03964 -0.07927,-0.05945 -0.23781,-0.05945c-0.07927,0 -0.13873,0 -0.17837,0c-0.07927,0.03964 -0.21799,0.09909 -0.41617,0.17836c-0.15854,0.07927 -0.57472,0.73326 -1.24853,1.96197h-0.11891c0.23782,-0.51527 0.49545,-1.01072 0.7729,-1.48634c0.31708,-0.59454 0.71345,-0.89181 1.18908,-0.89181c0.11891,0 0.25763,0.01982 0.41618,0.05946c0.19818,0.03964 0.33691,0.15855 0.41618,0.35673c0.11891,0.15854 0.17836,0.37654 0.17836,0.65399v0.17836c-0.31708,1.22871 -0.63417,2.45743 -0.95126,3.68614c0,0.15854 0,0.27745 0,0.35672c0,0.11891 0.07927,0.218 0.23782,0.29727c0.11891,0.07927 0.25763,0.11891 0.41618,0.11891c0.19818,0 0.53508,-0.11891 1.01071,-0.35673c0.436,-0.23782 0.85218,-0.73326 1.24854,-1.48634c0.39636,-0.75308 0.59454,-1.5458 0.59454,-2.37815c0,-0.31709 -0.03964,-0.61436 -0.11891,-0.89181c-0.15854,0.23782 -0.29727,0.41617 -0.41618,0.53508c-0.11891,0.11891 -0.21799,0.17836 -0.29726,0.17836c-0.03964,0 -0.0991,0 -0.17837,0c-0.15854,-0.11891 -0.23781,-0.31709 -0.23781,-0.59453c0,-0.15854 0.01981,-0.27746 0.05945,-0.35673c0.03964,-0.11891 0.09909,-0.218 0.17836,-0.29727c0.07927,-0.07927 0.17836,-0.13872 0.29727,-0.17836c0.07927,0 0.15854,0 0.23782,0c0.15854,0 0.29727,0.03963 0.41618,0.1189c0.07927,0.11891 0.13873,0.25764 0.17836,0.41618zM241.96199,179.10821c0.11891,0.27745 0.17836,0.57471 0.17836,0.8918c0,0.35673 -0.19818,0.95127 -0.59454,1.78362c-0.39635,0.87198 -0.59454,1.50617 -0.59454,1.90252c0,0.15854 0.01983,0.33691 0.05946,0.53509c0.03964,0.11891 0.15854,0.17836 0.35672,0.17836c0.11891,0 0.25764,-0.07927 0.41618,-0.23782c0.23782,-0.15854 0.45581,-0.47564 0.654,-0.95127c0.23782,-0.47563 0.47563,-0.93143 0.71345,-1.36744c-0.07927,0.5549 -0.25763,1.07017 -0.53509,1.5458c-0.23782,0.47563 -0.49545,0.79272 -0.7729,0.95126c-0.23782,0.15854 -0.41618,0.23782 -0.53509,0.23782c-0.15854,0 -0.31709,-0.05945 -0.47563,-0.17836c-0.11891,-0.11891 -0.218,-0.25763 -0.29727,-0.41618c-0.07927,-0.15854 -0.13873,-0.31709 -0.17836,-0.47563c-0.03964,-0.11891 -0.05946,-0.27745 -0.05946,-0.47563c0,-0.436 0.17836,-1.07017 0.53509,-1.90252c0.35673,-0.87198 0.53508,-1.50617 0.53508,-1.90252c0,-0.15854 0,-0.25763 0,-0.29727c0,-0.11891 -0.09909,-0.17836 -0.29727,-0.17836c-0.11891,0 -0.27745,0.09909 -0.47563,0.29727c-0.19818,0.15854 -0.39635,0.41617 -0.59454,0.7729c-0.23782,0.31709 -0.39635,0.67381 -0.47563,1.07017h-0.17837c0.23782,-0.71345 0.47564,-1.22872 0.71345,-1.5458c0.23782,-0.35673 0.4558,-0.59454 0.65399,-0.71345c0.23782,-0.07927 0.39636,-0.11891 0.47563,-0.11891c0.15855,0 0.29727,0.05945 0.41618,0.17836c0.15854,0.11891 0.27745,0.25764 0.35673,0.41618zM241.84308,175.95715c0.19818,0 0.37654,0.07928 0.53508,0.23782c0.11891,0.11891 0.17836,0.27745 0.17836,0.47563c0,0.19818 -0.05945,0.35672 -0.17836,0.47563c-0.15854,0.15854 -0.3369,0.23782 -0.53508,0.23782c-0.19818,0 -0.35672,-0.07928 -0.47563,-0.23782c-0.15854,-0.11891 -0.23781,-0.27745 -0.23781,-0.47563c0,-0.19818 0.07927,-0.35672 0.23781,-0.47563c0.11891,-0.15854 0.27745,-0.23782 0.47563,-0.23782zM244.28069,184.3996c-0.27746,-0.15854 -0.49545,-0.39635 -0.65399,-0.71345c-0.15854,-0.27745 -0.23782,-0.59454 -0.23782,-0.95127c0,-0.27745 0.11891,-0.79272 0.35673,-1.5458c0.23782,-0.71345 0.57471,-1.28816 1.01072,-1.72416c0.39636,-0.436 0.7729,-0.69364 1.12962,-0.77291c0.35673,-0.07927 0.5549,-0.1189 0.59454,-0.1189c0.19818,0 0.37654,0.05945 0.53508,0.17836c0.15854,0.07927 0.27745,0.19819 0.35672,0.35673c0.07927,0.11891 0.13874,0.218 0.17837,0.29727c0.03964,0.11891 0.07926,0.218 0.1189,0.29727l0.7729,-3.26997c-0.07927,-0.07927 -0.17836,-0.11891 -0.29727,-0.11891c-0.11891,-0.03964 -0.23781,-0.05945 -0.35672,-0.05945h-0.23781c-0.15854,0 -0.29727,-0.01981 -0.41618,-0.05945c0.31709,-0.07927 0.67381,-0.13874 1.07017,-0.17837c0.39635,0 0.79272,-0.01982 1.18908,-0.05945l0.17836,0.05945c-0.27745,1.03054 -0.57473,2.1007 -0.89181,3.21051c-0.27746,1.10981 -0.53508,2.04125 -0.7729,2.79433c-0.19818,0.79271 -0.37655,1.4269 -0.53509,1.90253c-0.03964,0.11891 -0.01982,0.218 0.05946,0.29727c0.07927,0.07927 0.15854,0.09908 0.23781,0.05945c0.47563,-0.23782 0.83236,-0.59454 1.07017,-1.07017c0.27746,-0.47563 0.49545,-0.85216 0.65399,-1.12962c-0.19818,0.5549 -0.39636,1.03053 -0.59454,1.42689c-0.23782,0.39636 -0.47563,0.65399 -0.71344,0.7729c-0.27745,0.15854 -0.45582,0.23781 -0.53509,0.23781c-0.11891,0 -0.23782,-0.03963 -0.35673,-0.1189c-0.07927,-0.11891 -0.15854,-0.23782 -0.23781,-0.35673c-0.11891,-0.15854 -0.17837,-0.31709 -0.17837,-0.47563c0,-0.15854 0,-0.31709 0,-0.47563c-0.436,0.5549 -0.75308,0.95126 -0.95126,1.18908c-0.23782,0.19818 -0.5549,0.29727 -0.95126,0.29727c-0.11891,0 -0.218,0 -0.29727,0c-0.07927,-0.03964 -0.17836,-0.09909 -0.29727,-0.17836zM244.87523,184.34015c0.11891,0.03964 0.23781,0.03964 0.35672,0c0.11891,-0.03964 0.19818,-0.07926 0.23781,-0.1189c0.59454,-0.5549 1.05035,-1.16926 1.36744,-1.84307c0.35673,-0.71345 0.53508,-1.40708 0.53508,-2.08089c0,-0.31709 -0.03963,-0.65399 -0.1189,-1.01071c-0.07927,-0.19818 -0.13874,-0.31709 -0.17837,-0.35672c-0.03964,-0.03964 -0.09909,-0.05945 -0.17836,-0.05945c-0.07927,-0.03964 -0.15854,-0.05946 -0.23781,-0.05946c-0.23782,0 -0.436,0.07927 -0.59454,0.23782c-0.19818,0.11891 -0.41617,0.41618 -0.65399,0.89181c-0.27746,0.47563 -0.53508,1.07017 -0.7729,1.78361c-0.19818,0.71345 -0.29727,1.44672 -0.29727,2.1998c0,0.11891 0.05945,0.218 0.17836,0.29727c0.15854,0.07927 0.27746,0.1189 0.35673,0.1189zM254.44731,179.28657c0.03963,-0.11891 0.07927,-0.218 0.11891,-0.29727c0.03964,-0.11891 0.09909,-0.25763 0.17836,-0.41618h0.95127c-0.11891,0.51527 -0.31709,1.2089 -0.59454,2.08088c-0.27745,0.87198 -0.47563,1.58544 -0.59454,2.14034c-0.15854,0.5549 -0.23781,1.03054 -0.23781,1.4269c0,0.07927 0.05945,0.1189 0.17836,0.1189c0.15854,0 0.3369,-0.09909 0.53509,-0.29727c0.23782,-0.19818 0.4558,-0.49545 0.65399,-0.89181c0.23782,-0.39636 0.45581,-0.7729 0.654,-1.12963c-0.15854,0.5549 -0.39636,1.05034 -0.71345,1.48635c-0.27746,0.47563 -0.53509,0.7729 -0.7729,0.89181c-0.19818,0.11891 -0.35672,0.17836 -0.47563,0.17836c-0.11891,0 -0.25764,-0.03964 -0.41618,-0.11891c-0.11891,-0.07927 -0.218,-0.17836 -0.29727,-0.29727c-0.07927,-0.11891 -0.11891,-0.218 -0.11891,-0.29727c-0.03964,-0.11891 -0.05945,-0.23782 -0.05945,-0.35673c0,-0.19818 0,-0.31708 0,-0.35672c0.03963,-0.03964 0.05945,-0.07927 0.05945,-0.11891c-0.35673,0.47563 -0.69363,0.87199 -1.01071,1.18908c-0.27746,0.31709 -0.63417,0.47563 -1.07017,0.47563c-0.11891,0 -0.27745,-0.01982 -0.47563,-0.05946c-0.15855,-0.07927 -0.31709,-0.21799 -0.47563,-0.41617c-0.11891,-0.23782 -0.19819,-0.47564 -0.23782,-0.71345c-0.07927,-0.23782 -0.11891,-0.43599 -0.11891,-0.59453c0,-0.63417 0.17836,-1.24854 0.53509,-1.84307c0.31709,-0.63417 0.69363,-1.14944 1.12963,-1.5458c0.39635,-0.39636 0.67381,-0.65399 0.83236,-0.7729c0.19818,-0.07927 0.436,-0.13872 0.71344,-0.17836c0.27746,0 0.49545,0.05945 0.65399,0.17836c0.19818,0.11891 0.35672,0.29727 0.47563,0.53509zM252.72315,179.04875c-0.51527,0.63417 -0.91162,1.38727 -1.18908,2.25925c-0.27745,0.83236 -0.41618,1.68453 -0.41618,2.55651c0,0.19818 0.03964,0.35672 0.11891,0.47563c0.07927,0.11891 0.19818,0.17836 0.35672,0.17836c0.03964,0 0.13873,-0.03963 0.29727,-0.1189c0.15854,-0.07927 0.35673,-0.25763 0.59454,-0.53509c0.27746,-0.23782 0.55491,-0.59454 0.83235,-1.07017c0.27746,-0.436 0.51526,-0.89181 0.71345,-1.36744c0.19818,-0.47563 0.29727,-0.91163 0.29727,-1.30799c0,-0.39636 -0.09909,-0.71344 -0.29727,-0.95126c-0.15854,-0.27745 -0.35672,-0.41618 -0.59454,-0.41618c-0.27746,0 -0.51526,0.09909 -0.71345,0.29727zM257.53891,184.3996c-0.31709,-0.15854 -0.5549,-0.39635 -0.71345,-0.71345c-0.11891,-0.27745 -0.17836,-0.59454 -0.17836,-0.95127c0,-0.27745 0.11891,-0.79272 0.35672,-1.5458c0.23782,-0.71345 0.5549,-1.28816 0.95126,-1.72416c0.436,-0.436 0.83236,-0.69364 1.18908,-0.77291c0.31709,-0.07927 0.51527,-0.1189 0.59454,-0.1189c0.19818,0 0.37654,0.05945 0.53508,0.17836c0.15854,0.07927 0.27745,0.19819 0.35672,0.35673c0.07927,0.11891 0.13872,0.218 0.17836,0.29727c0,0.11891 0.01981,0.218 0.05945,0.29727l0.83236,-3.26997c-0.11891,-0.07927 -0.23781,-0.11891 -0.35672,-0.11891c-0.11891,-0.03964 -0.218,-0.05945 -0.29727,-0.05945h-0.29727c-0.11891,0 -0.23782,-0.01981 -0.35673,-0.05945c0.27745,-0.07927 0.61436,-0.13874 1.01072,-0.17837c0.436,0 0.85217,-0.01982 1.24854,-0.05945l0.1189,0.05945c-0.23782,1.03054 -0.51527,2.1007 -0.83235,3.21051c-0.31709,1.10981 -0.57472,2.04125 -0.7729,2.79433c-0.23782,0.79271 -0.41617,1.4269 -0.53508,1.90253c-0.03964,0.11891 -0.01982,0.218 0.05946,0.29727c0.07927,0.07927 0.15855,0.09908 0.23782,0.05945c0.436,-0.23782 0.79271,-0.59454 1.07017,-1.07017c0.27745,-0.47563 0.49545,-0.85216 0.654,-1.12962c-0.19819,0.5549 -0.41618,1.03053 -0.654,1.42689c-0.19819,0.39636 -0.436,0.65399 -0.71344,0.7729c-0.23782,0.15854 -0.39636,0.23781 -0.47563,0.23781c-0.11891,0 -0.23781,-0.03963 -0.35672,-0.1189c-0.11891,-0.11891 -0.218,-0.23782 -0.29727,-0.35673c-0.07927,-0.15854 -0.13873,-0.31709 -0.17836,-0.47563c0,-0.15854 0,-0.31709 0,-0.47563c-0.39636,0.5549 -0.71345,0.95126 -0.95126,1.18908c-0.19819,0.19818 -0.49545,0.29727 -0.8918,0.29727c-0.15854,0 -0.27746,0 -0.35673,0c-0.07927,-0.03964 -0.15854,-0.09909 -0.23781,-0.17836zM258.13345,184.34015c0.11891,0.03964 0.23781,0.03964 0.35672,0c0.11891,-0.03964 0.19819,-0.07926 0.23782,-0.1189c0.55491,-0.5549 1.01072,-1.16926 1.36744,-1.84307c0.31709,-0.71345 0.47564,-1.40708 0.47564,-2.08089c0,-0.31709 -0.03964,-0.65399 -0.11891,-1.01071c-0.03963,-0.19818 -0.07927,-0.31709 -0.11891,-0.35672c-0.07927,-0.03964 -0.15855,-0.05945 -0.23782,-0.05945c-0.07927,-0.03964 -0.15854,-0.05946 -0.23782,-0.05946c-0.19819,0 -0.39635,0.07927 -0.59454,0.23782c-0.15854,0.11891 -0.37654,0.41618 -0.65399,0.89181c-0.27745,0.47563 -0.51526,1.07017 -0.71344,1.78361c-0.23782,0.71345 -0.35672,1.44672 -0.35672,2.1998c0,0.11891 0.07927,0.218 0.23781,0.29727c0.11891,0.07927 0.23782,0.1189 0.35673,0.1189z" fill="#ffffff" stroke-width="1"/><path d="M199.58524,187.79348v-15.58696h80.82952v15.58696z" fill="none" stroke-width="0"/></g></g></svg>