<svg version="1.1" xmlns="http://www.w3.org/2000/svg" xmlns:xlink="http://www.w3.org/1999/xlink" width="496.05513" height="361.86555"><defs><radialGradient cx="240" cy="180.00002" r="248.02757" gradientUnits="userSpaceOnUse" id="color-1"><stop offset="0" stop-color="#919191" stop-opacity="0"/><stop offset="1" stop-color="#919191"/></radialGradient></defs><g transform="translate(8.02757,0.93276)"><g data-paper-data="{&quot;isPaintingLayer&quot;:true}" fill="none" fill-rule="none" stroke="none" stroke-width="none" stroke-linecap="butt" stroke-linejoin="miter" stroke-miterlimit="10" stroke-dasharray="" stroke-dashoffset="0" font-family="none" font-weight="none" font-size="none" text-anchor="none" style="mix-blend-mode: normal"><path d="M-8.02757,360.93279v-361.86555h496.05513v361.86555z" data-paper-data="{&quot;origPos&quot;:null}" fill="url(#color-1)" fill-rule="nonzero" stroke="none" stroke-width="NaN"/><path d="M93.22005,150.41702c6.399,-2.99 12.835,1.212 9.71,6.337c-2.046,3.355 -12.571,4.576 -14.469,1.679c-1.336,-2.039 1.236,-6.37 4.759,-8.016M407.35406,151.96402c4.774,-2.079 8.922,-0.156 7.535,3.493c-0.309,0.811 -0.297,1.323 0.04,1.729c0.522,0.63 -0.115,1.738 -3.065,5.328c-2.942,3.58 -6.45,9.605 -11.242,19.305c-6.496,13.151 -7.973,14.604 -14.31,14.078c-5.802,-0.481 -5.083,-4.914 3.267,-20.144c7.982,-14.557 13.484,-21.921 17.775,-23.789M188.93206,153.85903c1.637,-0.996 4.806,-1.038 5.868,-0.077c1.602,1.451 1.048,3.007 -6.352,17.828c-7.372,14.765 -9.336,18.982 -12.254,26.312c-0.939,2.36 -2.127,4.751 -2.64,5.314c-3.107,3.41 -10.588,3.565 -10.588,0.219v-0.986l-1.103,1.022c-3.524,3.267 -12.431,3.241 -16.069,-0.046c-5.998,-5.418 -3.092,-17.615 9.02,-37.863c5.537,-9.255 7.479,-11.223 11.078,-11.223c5.321,0 5.45,3.917 0.413,12.477c-6.281,10.671 -10.053,20.141 -8.022,20.141c1.52,0 10.266,-11.06 18.605,-23.528c5.227,-7.816 6.729,-9.273 9.254,-8.98c0.961,0.111 1.967,-0.109 2.79,-0.61M221.48106,155.15502c1.84,-1.465 2.346,-1.654 4.428,-1.654c6.549,0 5.368,4.99 -3.637,15.362c-9.744,11.224 -22.83,30.34 -22.006,32.147c2.635,5.784 -11.403,10.515 -16.394,5.524c-1.879,-1.879 -0.327,-4.965 8.424,-16.744c3.888,-5.233 4.087,-5.601 3.423,-6.335c-1.176,-1.299 0.616,-18.122 2.312,-21.704c1.49,-3.146 6.327,-6.151 8.873,-5.512c1.339,0.336 1.815,1.878 2.238,7.252c0.374,4.752 0.387,4.756 3.421,1.043c3.576,-4.376 6.511,-7.463 8.918,-9.379M271.52706,154.31002c11.521,-3.687 21.804,4.688 17.393,14.165c-1.302,2.796 -6.51,8.116 -10.417,10.64l-2.705,1.747l1.946,1.14c4.567,2.676 3.336,8.847 -3.147,15.781c-5.481,5.864 -10.929,8.199 -18.712,8.022c-3.038,-0.069 -5.055,0.075 -5.659,0.404c-3.247,1.771 -8.384,-0.057 -8.972,-3.194c-0.541,-2.883 3.441,-13.864 9.084,-25.051c7.258,-14.39 13.294,-21.128 21.189,-23.654M141.53105,155.07202c4.458,-2.222 9.418,-1.366 9.418,1.625c0,3.608 -9.791,29.57 -15.219,40.355c-4.079,8.104 -4.648,8.595 -9.98,8.595c-5.336,0 -5.558,-1.449 -1.682,-10.99l1.903,-4.683l-2.259,2.064c-2.489,2.275 -4.574,3.094 -7.878,3.094c-2.246,0 -3.062,-1.023 -3.082,-3.863c-0.002,-0.354 -1.146,1.709 -2.541,4.584c-3.951,8.142 -6.508,10.438 -11.63,10.438c-6.337,0 -6.558,-1.687 -1.72,-13.09c9.136,-21.531 18.177,-35.502 24.028,-37.127c5.877,-1.633 10.003,0.63 7.546,4.138c-0.344,0.492 -0.827,2.151 -1.072,3.688c-0.246,1.536 -0.739,3.622 -1.096,4.633c-0.922,2.615 -0.698,2.498 2.134,-1.117c3.584,-4.576 10.4,-10.984 13.13,-12.344M308.25406,155.82903c3.104,-3.334 8.14,-2.374 7.251,1.382c-0.269,1.135 -5.002,10.385 -18.298,35.758c-6.391,12.197 -6.778,12.57 -13.293,12.828c-7.604,0.301 -7.757,-1.07 -1.428,-12.811c1.718,-3.187 5.205,-9.657 7.749,-14.378c8.606,-15.969 10.12,-18.128 13.912,-19.83c1.291,-0.58 3.13,-1.901 4.107,-2.949M335.49906,154.81602c3.217,-0.838 9.469,-1.1 12.216,-0.512c4.934,1.058 0.783,9.651 -5.508,11.4c-1.329,0.37 -3.527,0.979 -4.884,1.355c-2.879,0.796 -5.561,3.266 -7.537,6.942c-1.638,3.046 -1.45,3.194 3.603,2.846c5.014,-0.345 5.1,-0.238 2.643,3.279c-2.287,3.274 -4.357,4.583 -8.642,5.467l-3.588,0.741l-1.823,2.575c-4.577,6.464 -4.446,6.783 2.686,6.596c6.088,-0.16 6.714,0.012 6.333,1.745c-0.174,0.793 -0.042,1.359 0.404,1.729c2.52,2.091 -3.226,6.701 -9.956,7.989c-6.781,1.297 -14.853,0.689 -17.158,-1.294l-1.169,-1.005l0.537,-3.131c1.434,-8.365 6.034,-18.614 13.313,-29.663c3.362,-5.103 4.575,-7.341 5.201,-9.599c1.06,-3.823 2.528,-4.645 13.329,-7.46M381.57405,157.32403c5.226,-2.472 9.677,-1.583 8.305,1.659c-0.372,0.88 -0.758,2.615 -0.857,3.855c-0.147,1.86 -0.594,2.88 -2.542,5.807c-2.201,3.308 -3.913,6.328 -13.215,23.312c-6.023,10.998 -7.807,12.617 -13.906,12.617c-3.903,0 -3.863,0.091 -4.118,-9.399l-0.215,-7.983l-1.881,3.648c-5.494,10.655 -9.467,14.592 -14.725,14.592c-3.577,0 -3.752,-0.442 -2.081,-5.258c6.446,-18.582 16.853,-37.573 22.503,-41.065c1.666,-1.029 5.454,-1.227 6.204,-0.323c0.894,1.077 1.875,8.504 1.711,12.955l-0.158,4.292l2.825,-4.292c1.554,-2.36 3.545,-5.58 4.425,-7.155c1.934,-3.461 4.207,-5.597 7.725,-7.262M88.93206,164.82703c2.913,-1.274 8.405,-0.367 8.992,1.485c1.216,3.831 -12.812,29.896 -20.548,38.178c-5.246,5.618 -13.935,6.352 -12.345,1.043c0.266,-0.887 0.37,-2.048 0.231,-2.58c-0.196,-0.748 0.435,-1.87 2.77,-4.931c3.994,-5.237 7.218,-10.763 12.2,-20.916c4.214,-8.588 5.988,-11.092 8.7,-12.279M276.60506,166.61503c-0.525,-0.367 -1.056,-0.648 -1.18,-0.624c-3.481,0.676 -5.811,2.63 -7.803,6.545c-1.582,3.107 -1.58,3.109 2.038,1.756c6.905,-2.583 9.741,-5.718 6.945,-7.677M266.83006,190.62603c-0.6,-0.723 -2.658,-0.774 -5.513,-0.136c-1.799,0.402 -1.915,0.529 -3.371,3.709c-2.651,5.793 -2.638,5.387 -0.164,5.094c5.738,-0.679 11.275,-5.983 9.048,-8.667M380.83606,200.89103c2.564,-0.945 9.225,-0.652 10.452,0.459c3.299,2.988 -2.782,9.234 -8.985,9.231c-7.328,-0.004 -8.407,-7.133 -1.467,-9.69" data-paper-data="{&quot;origPos&quot;:null}" id="path0 1" fill="#003aff" fill-rule="evenodd" stroke="#ffffff" stroke-width="11"/><path d="M93.22005,150.41702c6.399,-2.99 12.835,1.212 9.71,6.337c-2.046,3.355 -12.571,4.576 -14.469,1.679c-1.336,-2.039 1.236,-6.37 4.759,-8.016M407.35406,151.96402c4.774,-2.079 8.922,-0.156 7.535,3.493c-0.309,0.811 -0.297,1.323 0.04,1.729c0.522,0.63 -0.115,1.738 -3.065,5.328c-2.942,3.58 -6.45,9.605 -11.242,19.305c-6.496,13.151 -7.973,14.604 -14.31,14.078c-5.802,-0.481 -5.083,-4.914 3.267,-20.144c7.982,-14.557 13.484,-21.921 17.775,-23.789M188.93206,153.85903c1.637,-0.996 4.806,-1.038 5.868,-0.077c1.602,1.451 1.048,3.007 -6.352,17.828c-7.372,14.765 -9.336,18.982 -12.254,26.312c-0.939,2.36 -2.127,4.751 -2.64,5.314c-3.107,3.41 -10.588,3.565 -10.588,0.219v-0.986l-1.103,1.022c-3.524,3.267 -12.431,3.241 -16.069,-0.046c-5.998,-5.418 -3.092,-17.615 9.02,-37.863c5.537,-9.255 7.479,-11.223 11.078,-11.223c5.321,0 5.45,3.917 0.413,12.477c-6.281,10.671 -10.053,20.141 -8.022,20.141c1.52,0 10.266,-11.06 18.605,-23.528c5.227,-7.816 6.729,-9.273 9.254,-8.98c0.961,0.111 1.967,-0.109 2.79,-0.61M221.48106,155.15502c1.84,-1.465 2.346,-1.654 4.428,-1.654c6.549,0 5.368,4.99 -3.637,15.362c-9.744,11.224 -22.83,30.34 -22.006,32.147c2.635,5.784 -11.403,10.515 -16.394,5.524c-1.879,-1.879 -0.327,-4.965 8.424,-16.744c3.888,-5.233 4.087,-5.601 3.423,-6.335c-1.176,-1.299 0.616,-18.122 2.312,-21.704c1.49,-3.146 6.327,-6.151 8.873,-5.512c1.339,0.336 1.815,1.878 2.238,7.252c0.374,4.752 0.387,4.756 3.421,1.043c3.576,-4.376 6.511,-7.463 8.918,-9.379M271.52706,154.31002c11.521,-3.687 21.804,4.688 17.393,14.165c-1.302,2.796 -6.51,8.116 -10.417,10.64l-2.705,1.747l1.946,1.14c4.567,2.676 3.336,8.847 -3.147,15.781c-5.481,5.864 -10.929,8.199 -18.712,8.022c-3.038,-0.069 -5.055,0.075 -5.659,0.404c-3.247,1.771 -8.384,-0.057 -8.972,-3.194c-0.541,-2.883 3.441,-13.864 9.084,-25.051c7.258,-14.39 13.294,-21.128 21.189,-23.654M141.53105,155.07202c4.458,-2.222 9.418,-1.366 9.418,1.625c0,3.608 -9.791,29.57 -15.219,40.355c-4.079,8.104 -4.648,8.595 -9.98,8.595c-5.336,0 -5.558,-1.449 -1.682,-10.99l1.903,-4.683l-2.259,2.064c-2.489,2.275 -4.574,3.094 -7.878,3.094c-2.246,0 -3.062,-1.023 -3.082,-3.863c-0.002,-0.354 -1.146,1.709 -2.541,4.584c-3.951,8.142 -6.508,10.438 -11.63,10.438c-6.337,0 -6.558,-1.687 -1.72,-13.09c9.136,-21.531 18.177,-35.502 24.028,-37.127c5.877,-1.633 10.003,0.63 7.546,4.138c-0.344,0.492 -0.827,2.151 -1.072,3.688c-0.246,1.536 -0.739,3.622 -1.096,4.633c-0.922,2.615 -0.698,2.498 2.134,-1.117c3.584,-4.576 10.4,-10.984 13.13,-12.344M308.25406,155.82903c3.104,-3.334 8.14,-2.374 7.251,1.382c-0.269,1.135 -5.002,10.385 -18.298,35.758c-6.391,12.197 -6.778,12.57 -13.293,12.828c-7.604,0.301 -7.757,-1.07 -1.428,-12.811c1.718,-3.187 5.205,-9.657 7.749,-14.378c8.606,-15.969 10.12,-18.128 13.912,-19.83c1.291,-0.58 3.13,-1.901 4.107,-2.949M335.49906,154.81602c3.217,-0.838 9.469,-1.1 12.216,-0.512c4.934,1.058 0.783,9.651 -5.508,11.4c-1.329,0.37 -3.527,0.979 -4.884,1.355c-2.879,0.796 -5.561,3.266 -7.537,6.942c-1.638,3.046 -1.45,3.194 3.603,2.846c5.014,-0.345 5.1,-0.238 2.643,3.279c-2.287,3.274 -4.357,4.583 -8.642,5.467l-3.588,0.741l-1.823,2.575c-4.577,6.464 -4.446,6.783 2.686,6.596c6.088,-0.16 6.714,0.012 6.333,1.745c-0.174,0.793 -0.042,1.359 0.404,1.729c2.52,2.091 -3.226,6.701 -9.956,7.989c-6.781,1.297 -14.853,0.689 -17.158,-1.294l-1.169,-1.005l0.537,-3.131c1.434,-8.365 6.034,-18.614 13.313,-29.663c3.362,-5.103 4.575,-7.341 5.201,-9.599c1.06,-3.823 2.528,-4.645 13.329,-7.46M381.57405,157.32403c5.226,-2.472 9.677,-1.583 8.305,1.659c-0.372,0.88 -0.758,2.615 -0.857,3.855c-0.147,1.86 -0.594,2.88 -2.542,5.807c-2.201,3.308 -3.913,6.328 -13.215,23.312c-6.023,10.998 -7.807,12.617 -13.906,12.617c-3.903,0 -3.863,0.091 -4.118,-9.399l-0.215,-7.983l-1.881,3.648c-5.494,10.655 -9.467,14.592 -14.725,14.592c-3.577,0 -3.752,-0.442 -2.081,-5.258c6.446,-18.582 16.853,-37.573 22.503,-41.065c1.666,-1.029 5.454,-1.227 6.204,-0.323c0.894,1.077 1.875,8.504 1.711,12.955l-0.158,4.292l2.825,-4.292c1.554,-2.36 3.545,-5.58 4.425,-7.155c1.934,-3.461 4.207,-5.597 7.725,-7.262M88.93206,164.82703c2.913,-1.274 8.405,-0.367 8.992,1.485c1.216,3.831 -12.812,29.896 -20.548,38.178c-5.246,5.618 -13.935,6.352 -12.345,1.043c0.266,-0.887 0.37,-2.048 0.231,-2.58c-0.196,-0.748 0.435,-1.87 2.77,-4.931c3.994,-5.237 7.218,-10.763 12.2,-20.916c4.214,-8.588 5.988,-11.092 8.7,-12.279M276.60506,166.61503c-0.525,-0.367 -1.056,-0.648 -1.18,-0.624c-3.481,0.676 -5.811,2.63 -7.803,6.545c-1.582,3.107 -1.58,3.109 2.038,1.756c6.905,-2.583 9.741,-5.718 6.945,-7.677M266.83006,190.62603c-0.6,-0.723 -2.658,-0.774 -5.513,-0.136c-1.799,0.402 -1.915,0.529 -3.371,3.709c-2.651,5.793 -2.638,5.387 -0.164,5.094c5.738,-0.679 11.275,-5.983 9.048,-8.667M380.83606,200.89103c2.564,-0.945 9.225,-0.652 10.452,0.459c3.299,2.988 -2.782,9.234 -8.985,9.231c-7.328,-0.004 -8.407,-7.133 -1.467,-9.69" data-paper-data="{&quot;origPos&quot;:null}" id="path0" fill="#ff7300" fill-rule="evenodd" stroke="none" stroke-width="1"/></g></g></svg>