<svg version="1.1" xmlns="http://www.w3.org/2000/svg" xmlns:xlink="http://www.w3.org/1999/xlink" width="57.26656" height="57.26656" viewBox="0,0,57.26656,57.26656"><defs><radialGradient cx="225.37913" cy="164.88944" r="24.62462" gradientUnits="userSpaceOnUse" id="color-1"><stop offset="0" stop-color="#e3e3e3"/><stop offset="1" stop-color="#9d9d9d"/></radialGradient><linearGradient x1="222.35989" y1="175.59877" x2="222.35989" y2="196.95412" gradientUnits="userSpaceOnUse" id="color-2"><stop offset="0" stop-color="#ababab"/><stop offset="1" stop-color="#0c0900"/></linearGradient><linearGradient x1="231.17995" y1="172.65875" x2="231.17995" y2="196.95411" gradientUnits="userSpaceOnUse" id="color-3"><stop offset="0" stop-color="#ababab"/><stop offset="1" stop-color="#0c0900"/></linearGradient></defs><g transform="translate(-211.36672,-151.36672)"><g data-paper-data="{&quot;isPaintingLayer&quot;:true}" fill-rule="nonzero" stroke-linecap="butt" stroke-linejoin="miter" stroke-miterlimit="10" stroke-dasharray="" stroke-dashoffset="0" style="mix-blend-mode: normal"><path d="M211.36672,208.63328v-57.26656h57.26656v57.26656z" fill-opacity="0.00806" fill="#ffffff" stroke="none" stroke-width="0"/><path d="M264.62462,167.84354v24.31292c0,6.88611 -5.58195,12.46816 -12.46816,12.46816h-24.31292c-6.88611,0 -12.46816,-5.58195 -12.46816,-12.46816v-24.31292c0,-6.88622 5.58205,-12.46816 12.46816,-12.46816h24.31292c6.88622,0 12.46816,5.58195 12.46816,12.46816z" fill="url(#color-1)" stroke="#696969" stroke-width="0.5"/><path d="M219.41987,196.95412v-21.35535h5.88003v21.35535z" fill="url(#color-2)" stroke="#000000" stroke-width="1.5"/><path d="M228.23993,196.95411v-24.29536h5.88004v24.29537z" fill="url(#color-3)" stroke="#000000" stroke-width="1.5"/><path d="M237.05999,196.95411v-27.23538h5.88004v27.23539z" fill="#bcbcbc" stroke="#000000" stroke-width="0"/><path d="M245.88005,196.95412v-30.57181h5.88004v30.57181z" fill="#bcbcbc" stroke="#000000" stroke-width="0"/><path d="M254.70011,196.95412v-33.90823h5.88004v33.90823z" fill="#bcbcbc" stroke="#000000" stroke-width="0"/></g></g></svg>