<svg version="1.1" xmlns="http://www.w3.org/2000/svg" xmlns:xlink="http://www.w3.org/1999/xlink" width="49.74924" height="49.74924" viewBox="0,0,49.74924,49.74924"><defs><radialGradient cx="225.37913" cy="164.88944" r="24.62462" gradientUnits="userSpaceOnUse" id="color-1"><stop offset="0" stop-color="#e3e3e3"/><stop offset="1" stop-color="#9d9d9d"/></radialGradient></defs><g transform="translate(-215.12538,-155.12538)"><g data-paper-data="{&quot;isPaintingLayer&quot;:true}" fill-rule="nonzero" stroke-linejoin="miter" stroke-miterlimit="10" stroke-dasharray="" stroke-dashoffset="0" style="mix-blend-mode: normal"><path d="M264.62462,167.84354v24.31292c0,6.88611 -5.58195,12.46816 -12.46816,12.46816h-24.31292c-6.88611,0 -12.46816,-5.58195 -12.46816,-12.46816v-24.31292c0,-6.88622 5.58205,-12.46816 12.46816,-12.46816h24.31292c6.88622,0 12.46816,5.58195 12.46816,12.46816z" fill="#494949" stroke="#696969" stroke-width="0.5" stroke-linecap="butt"/><path d="M235.09723,188.09031v-11.34565h17.00257v11.34565z" fill="#f6f6f6" stroke="none" stroke-width="0" stroke-linecap="butt"/><path d="M249.93906,182.00404h-12.68158" fill="none" stroke="#3c73ac" stroke-width="0.5" stroke-linecap="round"/><path d="M247.83092,179.97256h-8.4653" fill="none" stroke="#3c73ac" stroke-width="1" stroke-linecap="round"/><path d="M241.86823,183.91042h-4.61075" fill="none" stroke="#3c73ac" stroke-width="0.5" stroke-linecap="round"/><path d="M242.82842,186.11609c0,-1.67235 1.35573,-3.02808 3.02808,-3.02808c1.67235,0 3.02808,1.35573 3.02808,3.02808c0,1.36107 -0.66589,1.83558 -0.84263,2.16003c0.51804,1.38978 1.4019,2.74508 0.86822,3.11368c-0.5027,0.28457 -0.96269,-0.06419 -0.96269,-0.06419c0,0 0.1656,0.85329 -0.51718,0.96516c-1.13009,0.18514 -1.42884,-3.14814 -1.42884,-3.14814l-0.34298,0.00723c0,0 -0.89667,3.07938 -1.40694,3.17027c-0.51375,0.09152 -0.73304,-0.91657 -0.73304,-0.91657c0,0 -0.84328,0.49707 -1.07007,-0.07619c-0.28478,-0.71987 1.31179,-3.04279 1.31179,-3.04279c0,0 -0.93179,-0.73503 -0.93179,-2.16849z" fill="#3c73ac" stroke="none" stroke-width="0" stroke-linecap="butt"/><path d="M244.03445,186.13371c0,-1.01193 0.82034,-1.83227 1.83227,-1.83227c1.01193,0 1.83227,0.82034 1.83227,1.83227c0,1.01193 -0.82034,1.83227 -1.83227,1.83227c-1.01193,0 -1.83227,-0.82034 -1.83227,-1.83227z" fill="#8fadce" stroke="none" stroke-width="0" stroke-linecap="butt"/><path d="M215.37538,192.15646v-24.31292c0,-6.88622 5.58205,-12.46816 12.46816,-12.46816h24.31292c3.51185,0 6.68447,1.45176 8.95051,3.78791c-0.74882,0.76224 -41.91843,41.97115 -42.08523,41.80414c-2.25309,-2.25583 -3.64636,-5.37063 -3.64636,-8.81097z" fill="url(#color-1)" stroke="#696969" stroke-width="0.5" stroke-linecap="butt"/><path d="M220.07133,201.08019l40.86492,-40.86492" fill="none" stroke="#696969" stroke-width="1.5" stroke-linecap="round"/></g></g></svg>