<svg version="1.1" xmlns="http://www.w3.org/2000/svg" xmlns:xlink="http://www.w3.org/1999/xlink" width="27" height="32" viewBox="0,0,27,32"><g transform="translate(-226.5,-164)"><g data-paper-data="{&quot;isPaintingLayer&quot;:true}" fill-rule="nonzero" stroke="none" stroke-linecap="butt" stroke-linejoin="miter" stroke-miterlimit="10" stroke-dasharray="" stroke-dashoffset="0" style="mix-blend-mode: normal"><path d="M226.5,196v-32h27v32z" fill="none" stroke-width="0"/><path d="M240.28572,188.14286c0.42857,0 1.14286,0 1.42857,-0.42858c0.28571,-0.71428 0.42857,-1.99999 0.42857,-2.85714c0,-2.71429 -0.28571,-4.57143 -3,-4.57143v-0.28571c1,-1 1.71429,-2 2.14285,-3.14285c4,0 6.71429,2.42857 6.71429,7.71428c-2,2.71429 -5.14285,5.14285 -8.42857,6.14285c-5.28571,0 -7.57143,-2.71428 -7.57143,-7.14285c0,-6.71428 6.14285,-12.42857 12.71429,-14.28571l0.42857,0.57143c-5,3.14285 -7.14286,6.71428 -7.14286,12.57142c0,2.71429 0.14286,5.71429 2.28571,5.71429z" fill="#ff0000" stroke-width="1"/></g></g></svg>