<svg version="1.1" xmlns="http://www.w3.org/2000/svg" xmlns:xlink="http://www.w3.org/1999/xlink" width="27" height="32" viewBox="0,0,27,32"><g transform="translate(-226.5,-164)"><g data-paper-data="{&quot;isPaintingLayer&quot;:true}" fill-rule="nonzero" stroke="none" stroke-linecap="butt" stroke-linejoin="miter" stroke-miterlimit="10" stroke-dasharray="" stroke-dashoffset="0" style="mix-blend-mode: normal"><path d="M226.5,196v-32h27v32z" fill="none" stroke-width="0"/><path d="M236.5,180.14286c-1.85714,-1.28571 -3.28571,-3 -3.28571,-6.28571c1.42857,-2 4.85714,-4.14286 7.42857,-4.57143c3.14285,0 5.42857,1 5.42857,3.57143c0,1.57143 -1.57143,3.42857 -3.28572,4.57142c2.28571,1.28571 4.85715,2.71429 4.85715,6.71429c-1.42857,2.85714 -4.28571,5.57142 -7.57143,6.57142c-3.71429,0 -7.71429,-1.57143 -7.71429,-5.28571c0,-1.85715 1.71429,-3.71428 4.14286,-5.28571zM237.92857,181c-0.57143,1 -1,2.42858 -1,3.85715c0,2 1.57143,3.57142 3.71429,3.57142c0.28571,0 1,0 1.28571,-0.28571c0.14286,-0.71429 0.28571,-1.42858 0.28571,-2.57143c0,-2.42857 -2,-3.28571 -4.28571,-4.57143zM241.07143,176.57143c0.57143,-0.85714 1,-2.14286 1,-3.14286c0,-1.28571 -1,-2 -2.28572,-2c-0.42857,0 -1,0.14286 -1.14285,0.28571c-0.14286,0.42857 -0.28571,0.85715 -0.28571,1.28572c0,1.85715 1.28571,2.71429 2.71429,3.57143z" fill="#ff0000" stroke-width="1"/></g></g></svg>