<svg version="1.1" xmlns="http://www.w3.org/2000/svg" xmlns:xlink="http://www.w3.org/1999/xlink" width="193.73493" height="336.52109" viewBox="0,0,193.73493,336.52109"><defs><linearGradient x1="182.27868" y1="297.4943" x2="166.27868" y2="297.4943" gradientUnits="userSpaceOnUse" id="color-1"><stop offset="0" stop-color="#000000"/><stop offset="1" stop-color="#ffffff"/></linearGradient><linearGradient x1="28.18677" y1="91.34533" x2="8.21449" y2="71.91114" gradientUnits="userSpaceOnUse" id="color-2"><stop offset="0" stop-color="#017eff"/><stop offset="1" stop-color="#ecfaff"/></linearGradient><linearGradient x1="163.86138" y1="210.1832" x2="183.86138" y2="210.1832" gradientUnits="userSpaceOnUse" id="color-3"><stop offset="0" stop-color="#ffffff"/><stop offset="1" stop-color="#000000"/></linearGradient></defs><g transform="translate(1.4388,-17.63499)"><g data-paper-data="{&quot;isPaintingLayer&quot;:true}" fill-rule="nonzero" stroke-linecap="butt" stroke-linejoin="miter" stroke-miterlimit="10" stroke-dasharray="" style="mix-blend-mode: normal"><g data-paper-data="{&quot;index&quot;:null}" fill="url(#color-1)" stroke="#ffffff" stroke-dashoffset="0"><path d="M174.27868,305.4943l-8,-8l8,-8v5h8v6h-8z" stroke-width="2"/><path d="M174.27868,305.4943l-8,-8l8,-8v5h8v6h-8z" stroke-width="0"/></g><path d="M-1.03606,351.77321v-250.02935h189.07373v204.45947l-44.82888,45.56988z" fill-opacity="0.4191" fill="#bdbdbd" stroke="none" stroke-width="0" stroke-dashoffset="0"/><path d="M-1.03606,351.77321v-250.02935h189.07373v204.45947l-44.82888,45.56988z" fill="#bdbdbd" stroke="none" stroke-width="0" stroke-dashoffset="0"/><path d="M-0.40389,102.27211v-84.63712h191.84275l0.85727,84.63712z" fill="none" stroke="none" stroke-width="NaN" stroke-dashoffset="0"/><path d="M-0.24781,101.45501v-35.33333h186.76057l0.11965,35.33333z" fill="#e4d6ff" stroke="none" stroke-width="NaN" stroke-dashoffset="0"/><path d="M189.19945,101.45501h-189.44251l0.01691,-4.46091l189.34029,-0.26995z" fill="#a4a4a4" stroke="none" stroke-width="NaN" stroke-dashoffset="0"/><path d="M19.91368,71.10795c0.53283,-0.12705 1.88007,2.25724 1.88007,2.25724l14.49461,-2.15594c0.53283,-0.08585 1.06452,0.20031 1.191,0.73314l3.10312,15.09783c0.12648,0.53283 -0.20089,1.06452 -0.73372,1.191l-24.85019,5.90406c-0.53283,0.12648 -1.06223,-0.20089 -1.18929,-0.73372l-4.41157,-19.46007c-0.1266,-0.53283 0.20072,-1.06452 0.73383,-1.191z" fill="url(#color-2)" stroke="#446c98" stroke-width="0.5" stroke-dashoffset="1.25"/><path d="M43.14306,75.26701l-2.47529,11.93347c-0.10874,0.46873 -0.28216,0.92087 -0.81499,1.04792l-24.84905,5.9035c-0.53283,0.12705 -1.0525,-0.22549 -1.16524,-0.69938l2.67503,-13.6842c0.05724,-0.51452 0.51166,-0.95749 1.04506,-1.08397l24.41981,-4.04402c0.49163,-0.04407 1.19844,-0.24094 1.16467,0.62669z" fill="#0080ff" stroke="#446c98" stroke-width="0.5" stroke-dashoffset="1.25" opacity="0.8249"/><path d="M30.73377,72.14315c2.16837,0 3.92568,1.8911 3.92568,4.22466c0,0.57615 -0.10652,1.12504 -0.30054,1.62549l-0.00311,0.00502c-0.13754,0.35339 -0.32012,0.68176 -0.53722,0.97866c-0.2171,0.2969 -4.19188,4.74161 -6.27264,6.9831c0,0 -5.99128,-6.66579 -6.20836,-6.96272c-0.21709,-0.29692 -0.39966,-0.62527 -0.53722,-0.97866l-0.00311,-0.00503c-0.19401,-0.50043 -0.30053,-1.04929 -0.30053,-1.62549c0,-2.3335 1.75726,-4.22466 3.92568,-4.22466c1.29065,0 2.43312,0.67128 3.14868,1.70593c0.71462,-1.04607 1.86371,-1.7261 3.16269,-1.7261z" fill="#f20000" stroke="#ffffff" stroke-width="1" stroke-dashoffset="0"/><text transform="translate(48.82546,88.41372) scale(0.5,0.5)" font-size="40" xml:space="preserve" fill="#000000" fill-rule="nonzero" stroke="none" stroke-width="1" stroke-linecap="butt" stroke-linejoin="miter" stroke-miterlimit="10" stroke-dasharray="" stroke-dashoffset="0" font-family="Sans Serif" font-weight="normal" text-anchor="start" style="mix-blend-mode: normal"><tspan x="0" dy="0">Favoritos</tspan></text><path d="M185.35771,305.82217h3.0827l-0.09412,11.73524l-7.79216,-0.22478l-34.9793,36.82345h-147.01363l0.01691,-4.46091l144.55393,-0.26995z" fill="#a4a4a4" stroke="none" stroke-width="NaN" stroke-dashoffset="0"/><g data-paper-data="{&quot;index&quot;:null}" fill="url(#color-3)" stroke="#ffffff" stroke-dashoffset="0"><path d="M183.86138,305.4943l-20,-95.31111l20,-95.31111z" stroke-width="2"/><path d="M183.86138,305.4943l-20,-95.31111l20,-95.31111z" stroke-width="0"/></g><path d="M165.68407,210.18319c0,-4.5162 3.6611,-8.17731 8.17731,-8.17731c4.5162,0 8.17731,3.6611 8.17731,8.17731c0,4.5162 -3.6611,8.17731 -8.17731,8.17731c-4.5162,0 -8.17731,-3.6611 -8.17731,-8.17731z" fill="#ffffff" stroke="none" stroke-width="0" stroke-dashoffset="0"/><path d="M174.86138,209.18319h4v2h-4v4h-2v-4h-4v-2h4v-4h2zM163.86138,210.18319c0,-5.523 4.477,-10 10,-10c5.523,0 10,4.477 10,10c0,5.523 -4.477,10 -10,10c-5.523,0 -10,-4.477 -10,-10zM181.86138,210.18319c0,-4.418 -3.582,-8 -8,-8c-4.418,0 -8,3.582 -8,8c0,4.418 3.582,8 8,8c4.418,0 8,-3.582 8,-8z" fill="#000000" stroke="none" stroke-width="1" stroke-dashoffset="0"/></g></g></svg>