<svg version="1.1" xmlns="http://www.w3.org/2000/svg" xmlns:xlink="http://www.w3.org/1999/xlink" width="46.55168" height="58.58388" viewBox="0,0,46.55168,58.58388"><g transform="translate(-216.72416,-150.70806)"><g data-paper-data="{&quot;isPaintingLayer&quot;:true}" fill-rule="nonzero" stroke-linecap="butt" stroke-linejoin="miter" stroke-miterlimit="10" stroke-dasharray="" stroke-dashoffset="0" style="mix-blend-mode: normal"><path d="M261.65669,179.99999c0,16.17755 -10.05843,29.29195 -22.46626,29.29195c-12.40782,0 -22.46627,-13.1144 -22.46627,-29.29195c0,-16.17756 10.05844,-29.29193 22.46627,-29.29193c12.40782,0 22.46626,13.11438 22.46626,29.29193" data-paper-data="{&quot;index&quot;:null}" fill="#9c9055" stroke="none" stroke-width="0.03528"/><path d="M263.27584,179.99999c0,16.17755 -10.12434,29.29195 -22.61346,29.29195c-12.48912,0 -22.61347,-13.1144 -22.61347,-29.29195c0,-16.17756 10.12435,-29.29193 22.61347,-29.29193c12.48912,0 22.61346,13.11438 22.61346,29.29193" data-paper-data="{&quot;index&quot;:null}" fill="#f6d738" stroke="none" stroke-width="0.03528"/><path d="M259.85412,179.99999c0,13.72957 -8.59248,24.85968 -19.19175,24.85968c-10.59926,0 -19.19176,-11.13011 -19.19176,-24.85968c0,-13.72955 8.59249,-24.85968 19.19176,-24.85968c10.59927,0 19.19175,11.13014 19.19175,24.85968" data-paper-data="{&quot;index&quot;:null}" fill="#f3cc30" stroke="none" stroke-width="0.03528"/><path d="M250.46871,158.78219c5.48977,4.37441 9.15081,12.22716 9.15081,21.18848c0,13.72967 -8.5925,24.85968 -19.19176,24.85968c-6.79295,0 -12.76155,-4.57159 -16.17236,-11.46905c2.92115,2.32757 6.35977,3.67112 10.04089,3.67112c10.59927,0 19.19175,-11.13 19.19175,-24.85968c0,-4.93048 -1.1081,-9.52564 -3.0193,-13.39054" data-paper-data="{&quot;index&quot;:null}" fill="#edbd31" stroke="none" stroke-width="0.03528"/><path d="M256.49223,182.27462c0,-12.11967 -7.58488,-21.9446 -16.9413,-21.9446c-5.46903,0 -10.33182,3.35764 -13.42925,8.56745c2.92536,-6.57843 8.40843,-11.00721 14.69027,-11.00721c9.35642,0 16.9413,9.82493 16.9413,21.9446c0,5.03562 -1.31037,9.67398 -3.51217,13.37723c1.43195,-3.2199 2.25115,-6.95468 2.25115,-10.93747" data-paper-data="{&quot;index&quot;:null}" fill="#f7db5e" stroke="none" stroke-width="0.03528"/><path d="M238.82525,188.64464c0.24982,0.09369 0.50561,0.15825 0.76432,0.1929c2.3819,0.32043 4.51337,-1.92101 4.76073,-5.00639c0.15918,-1.98561 -0.62867,-3.65373 -1.62628,-4.98971c-0.80187,-1.07385 -1.39973,-1.90422 -1.84514,-2.54385l-0.49775,2.9926c1.58203,0.74472 2.81853,2.81974 2.59591,4.87921c-0.23683,2.19085 -2.27458,3.55907 -2.8926,3.32515c0.16269,-0.10343 0.31715,-0.22728 0.46118,-0.36976c1.10746,-1.09406 1.38223,-3.03909 0.61372,-4.34438c-0.30359,-0.51563 -0.72458,-0.85429 -1.1911,-1.00788zM238.61467,189.91062l-0.56497,3.39676c-0.12174,0.74536 -0.13909,0.96482 -0.13909,1.18958c0,1.82228 1.14044,3.29959 2.54725,3.29959c0.60461,0.00117 1.18967,-0.27739 1.64976,-0.7855c-0.03673,0.003 -0.07376,0.00462 -0.11109,0.00462c-0.73551,-0.001 -1.38763,-0.61277 -1.61775,-1.51766c-0.23013,-0.90489 0.01362,-1.89894 0.60466,-2.46598c0.59105,-0.56704 1.39618,-0.57927 1.99733,-0.03034c0.60116,0.54893 0.86283,1.5353 0.64915,2.44693c-0.33311,1.87055 -1.62686,3.26506 -3.17206,3.26506c-1.79786,0 -3.23847,-1.88794 -3.23847,-4.2167c0,-0.25631 -0.0338,-0.51696 0,-0.76062l0.70487,-4.23785c-1.46622,-0.92816 -2.6064,-3.10515 -2.6064,-5.3291c0,-2.93959 1.73228,-5.1673 3.83626,-5.1673c0.16996,0.00017 0.33967,0.01677 0.50773,0.04964l0.60742,-3.65197c-0.54553,-0.8295 -0.65915,-1.0957 -0.67689,-1.14215c-1.16001,-1.99424 -2.05799,-4.17988 -2.24313,-6.8811c-0.22008,-3.21122 0.65062,-5.93511 1.94476,-6.08386c1.29414,-0.14888 2.52167,2.33366 2.74175,5.54493c0.0905,1.32057 -0.01836,2.53482 -0.17973,3.585l-0.38135,2.29274c2.99519,3.58309 4.5322,5.77733 4.5322,9.89166c0,4.19192 -2.83828,7.85721 -6.88439,7.42969c-0.17243,-0.0168 -0.34282,-0.05909 -0.50783,-0.12606zM237.08608,186.9079c0.13609,0.44288 0.34583,0.78745 0.59122,1.0562c0.14395,0.12116 0.29336,0.23109 0.44742,0.32918l1.09942,-6.60995c-0.50347,0.03909 -1.01596,0.27444 -1.46154,0.71463c-1.10746,1.09406 -1.25689,2.62133 -0.67651,4.50994zM238.9475,164.09324c-0.10816,-0.03073 -0.21704,-0.04908 -0.32628,0.17214c-0.58972,1.35453 -0.20771,3.39357 0.73202,5.6281c0.36443,0.86654 0.9479,1.44786 1.46635,1.96848c0.02349,-0.11952 -0.031,0.11833 0,0c0.94441,-3.60583 -0.18925,-7.2901 -1.8721,-7.76872z" data-paper-data="{&quot;index&quot;:null}" fill="#b4832d" stroke="#b6842e" stroke-width="0"/></g></g></svg>