<svg version="1.1" xmlns="http://www.w3.org/2000/svg" xmlns:xlink="http://www.w3.org/1999/xlink" width="27.45218" height="33.25" viewBox="0,0,27.45218,33.25"><g transform="translate(-226.27391,-163.375)"><g data-paper-data="{&quot;isPaintingLayer&quot;:true}" fill-rule="nonzero" stroke-linejoin="miter" stroke-miterlimit="10" stroke-dasharray="" stroke-dashoffset="0" style="mix-blend-mode: normal"><path d="M226.27391,196.625v-33.25h27.45218v33.25z" fill="none" stroke="#000000" stroke-width="0" stroke-linecap="butt"/><path d="M227.58929,193.31771c0,-2.25074 0,-16.31081 0,-26.75056c0,-0.70529 1.15456,-1.80723 1.89353,-1.80723c8.23134,0 18.94208,0 21.09178,0c0.71657,0 1.83611,0.9451 1.83611,1.55001c0,10.48994 0,24.47785 0,26.87916c0,0.80044 -1.27638,2.05102 -2.09333,2.05102c-2.45085,0 -12.86044,0 -21.09178,0c-0.63859,0 -1.63631,-1.17217 -1.63631,-1.92242z" data-paper-data="{&quot;origPos&quot;:null}" fill="#edb47e" stroke="#000000" stroke-width="1.5" stroke-linecap="butt"/><path d="M242.92633,188.13537c-0.73205,0.27163 -1.41833,1.01285 -2.03371,1.49346c-1.09166,0.85259 -2.09944,2.18504 -2.17856,2.25589c-0.29861,0.26738 -3.57478,-2.84133 -3.57478,-2.84133c0,0 1.75583,-0.56794 2.3242,-1.58444c0.46221,-0.82667 -0.06102,-2.08225 0.34727,-3.51715c0.10087,-0.35504 0.42366,-1.28009 0.98079,-1.83685c0.488,-0.04965 1.45914,-1.40038 1.92028,-1.23316c0.37352,0.13544 0.64881,0.07648 0.57487,0.46685c-0.05246,0.27694 -0.90352,1.12373 -0.63609,1.21279c0,0 1.33357,-1.44914 1.70709,-2.01664c0.43279,-0.65756 -0.57852,-1.93491 -0.57852,-1.93491c0.65906,-0.59408 1.66146,0.02425 1.90364,0.19959c0.08073,0.05845 1.0231,0.87973 1.10949,0.92944c0.36654,0.21095 0.94421,0.86298 0.94421,0.86298c0,0 0.51283,0.76537 0.85157,1.56401c0,0 -0.77103,4.90673 -3.66175,5.97947z" data-paper-data="{&quot;origPos&quot;:null}" fill="#000000" stroke="none" stroke-width="1" stroke-linecap="butt"/><path d="M233.98558,170.86622c-0.61992,-1.06741 -0.00489,-1.88639 0.4792,-2.12337c0.48408,-0.23705 1.40115,-0.56106 2.12519,0.46838c0.59244,0.84233 0.09963,1.68461 -0.12348,1.95496c0.07042,0.11175 5.08205,8.38101 5.46176,8.93481c-0.24458,0.27354 -0.38752,0.44895 -0.67035,0.6716c-0.32581,-0.58015 -5.51366,-9.13358 -5.58274,-9.246c0,0 -1.03324,0.46972 -1.68957,-0.66038z" data-paper-data="{&quot;origPos&quot;:null}" fill="#000000" stroke="none" stroke-width="1" stroke-linecap="butt"/><path d="M241.31369,176.44789l-2.67857,-4.64286" data-paper-data="{&quot;origPos&quot;:null}" fill="none" stroke="#000000" stroke-width="0.5" stroke-linecap="round"/><path d="M240.60154,171.4082l1.50582,3.76984" data-paper-data="{&quot;origPos&quot;:null}" fill="none" stroke="#000000" stroke-width="0.5" stroke-linecap="round"/><path d="M243.98191,177.42513l1.5873,1.34921l0.54246,0.8291l0.80675,0.52011c0,0 0.36328,0.57934 0.41711,0.79467c0.01794,0.07177 0.19161,0.91207 0.19161,0.91207" data-paper-data="{&quot;origPos&quot;:null}" fill="none" stroke="#000000" stroke-width="0.5" stroke-linecap="round"/><path d="" fill="none" stroke="#000000" stroke-width="0.5" stroke-linecap="butt"/><path d="M236.13495,167.79602c1.13866,0.28132 2.05775,1.45628 1.5534,2.57282" data-paper-data="{&quot;origPos&quot;:null}" fill="none" stroke="#000000" stroke-width="0.5" stroke-linecap="round"/><path d="M237.44563,167.26204c1.08943,0.47532 1.61088,1.5735 1.31068,2.62136" data-paper-data="{&quot;origPos&quot;:null}" fill="none" stroke="#000000" stroke-width="0.5" stroke-linecap="round"/></g></g></svg>