<svg version="1.1" xmlns="http://www.w3.org/2000/svg" xmlns:xlink="http://www.w3.org/1999/xlink" width="26.625" height="33.125" viewBox="0,0,26.625,33.125"><g transform="translate(-226.6875,-163.43753)"><g data-paper-data="{&quot;isPaintingLayer&quot;:true}" fill-rule="nonzero" stroke-linecap="butt" stroke-linejoin="miter" stroke-miterlimit="10" stroke-dasharray="" stroke-dashoffset="0" style="mix-blend-mode: normal"><path d="M226.6875,196.56253v-33.125h26.625v33.125z" fill="none" stroke="#000000" stroke-width="0"/><path d="M227.58929,193.31772c0,-2.25074 0,-16.31081 0,-26.75056c0,-0.70529 1.15456,-1.80723 1.89353,-1.80723c8.23134,0 18.94208,0 21.09178,0c0.71657,0 1.83611,0.9451 1.83611,1.55001c0,10.48994 0,24.47785 0,26.87916c0,0.80044 -1.27638,2.05102 -2.09333,2.05102c-2.45085,0 -12.86044,0 -21.09178,0c-0.63859,0 -1.63631,-1.17217 -1.63631,-1.92242z" data-paper-data="{&quot;origPos&quot;:null}" fill="#ffffff" stroke="#000000" stroke-width="1.5"/><path d="M238.24442,180.82538h-6.33677v-1.65075h6.33677z" fill="#000000" stroke="none" stroke-width="1"/><path d="M242.35051,181.81956c0.40989,0.25618 1.02474,0.66608 1.79329,0.66608c0.92226,-0.05123 1.5371,-0.61485 1.48586,-1.69081c-0.30741,0.30741 -0.81979,0.61484 -1.48586,0.61484c-1.58834,0.05123 -2.86926,-1.07597 -2.86926,-2.71555c0,-1.63958 1.17844,-3.07421 3.17668,-3.12544c1.99824,-0.05123 3.58657,1.3834 3.63781,3.84276c0.05124,1.89576 -0.46114,4.91872 -3.68905,5.0212c-0.81979,0 -2.15195,-0.35866 -2.86926,-0.9735zM245.62966,179.00154c0,-0.61484 -0.25618,-1.48587 -1.02473,-1.48587c-0.61484,0 -1.12721,0.51236 -1.12721,1.07597c0,0.46113 0.25619,1.12721 1.02474,1.07597c0.5636,0 0.92225,-0.40989 1.12721,-0.66608z" fill="#000000" stroke="none" stroke-width="1"/></g></g></svg>