<svg version="1.1" xmlns="http://www.w3.org/2000/svg" xmlns:xlink="http://www.w3.org/1999/xlink" width="628.83906" height="532.39449" viewBox="0,0,628.83906,532.39449"><defs><radialGradient cx="235.59856" cy="110.42161" r="479.92855" gradientUnits="userSpaceOnUse" id="color-1"><stop offset="0" stop-color="#000000"/><stop offset="1" stop-color="#000000" stop-opacity="0"/></radialGradient></defs><g transform="translate(74.3087,129.6069)"><g data-paper-data="{&quot;isPaintingLayer&quot;:true}" fill-rule="nonzero" stroke-linecap="butt" stroke-linejoin="miter" stroke-miterlimit="10" stroke-dasharray="" stroke-dashoffset="0" style="mix-blend-mode: normal"><path d="M168.88602,75.16568c0,-5.98198 0,-18.62943 0,-21.8c0,-1.41247 1.51694,-2.83232 3.24399,-2.83232c5.72645,0 37.13938,0 47.4,0c2.00809,0 3.1907,1.0957 3.1907,2.83232c0,5.73801 0,18.47306 0,21.8c0,1.55382 -1.26135,3.16637 -3.39069,3.16637c-10.46749,0 -41.51027,0 -47.2,0c-1.72705,0 -3.24399,-1.23621 -3.24399,-3.16637z" fill="#f9f9f9" stroke="#000000" stroke-width="1"/><path d="M328.21549,384.29331v-142.64264h165.16517v142.64264z" fill="#ffffff" stroke="none" stroke-width="0"/><path d="M-13.35282,384.26531v-403.51652h506v326.93994c0,0 -50.12958,0 -57.31922,0c-1.6662,0 -3.07852,1.3009 -3.07852,2.92879c0,8.16324 0,73.64779 0,73.64779z" fill="#795c41" stroke="none" stroke-width="0"/><path d="M-13.35282,384.26531v-403.51652h506v403.18994z" fill="#795c41" stroke="none" stroke-width="0"/><path d="M553.89315,308.35782c0,80.2537 -628.19105,145.88045 -628.19105,37.52345c0,-103.19973 -2.37165,-438.91963 63.18161,-468.7164c46.85105,-21.29582 136.2368,14.44109 246.71485,14.44109c125.68232,0 227.76358,-5.60357 275.10243,23.15968c52.49622,31.89689 43.19215,102.60687 43.19215,195.65597z" fill="url(#color-1)" stroke="none" stroke-width="0"/><text transform="translate(179.08601,48.42722) scale(0.18534,0.16198)" font-size="40" xml:space="preserve" fill="#dedede" fill-rule="nonzero" stroke="none" stroke-width="1" stroke-linecap="butt" stroke-linejoin="miter" stroke-miterlimit="10" stroke-dasharray="" stroke-dashoffset="0" font-family="Sans Serif" font-weight="normal" text-anchor="start" style="mix-blend-mode: normal"><tspan x="0" dy="0">ERRORES</tspan></text><path d="M156.00376,32.14664v-21.33333h48.39918v21.33334z" fill="#572445" stroke="#000000" stroke-width="2"/></g></g></svg>