<svg version="1.1" xmlns="http://www.w3.org/2000/svg" xmlns:xlink="http://www.w3.org/1999/xlink" width="26.10018" height="102.86741" viewBox="0,0,26.10018,102.86741"><g transform="translate(-226.94991,-128.56633)"><g data-paper-data="{&quot;isPaintingLayer&quot;:true}" fill-rule="nonzero" stroke-linecap="butt" stroke-linejoin="miter" stroke-miterlimit="10" stroke-dasharray="" stroke-dashoffset="0" style="mix-blend-mode: normal"><path d="M226.94991,229.38339c0,-2.40049 0,-59.77371 0,-98.03191c0,-1.08693 1.2268,-2.78514 2.01202,-2.78514c8.63819,0 19.84667,0 22.13427,0c0.76253,0 1.95389,1.69071 1.95389,2.47736c0,38.1381 0,94.91071 0,98.03193c0,1.04041 -0.90067,2.35812 -1.71066,2.35812c-2.42999,0 -14.15755,0 -22.98558,0c-0.5479,0 -1.40393,-1.25013 -1.40393,-2.05033z" data-paper-data="{&quot;origPos&quot;:null}" fill-opacity="0.09892" fill="#ffffff" stroke="#001026" stroke-width="0"/><text transform="translate(229.92508,162.17792) scale(0.28977,0.33949)" font-size="40" xml:space="preserve" fill="#000000" fill-rule="nonzero" stroke="#000000" stroke-width="2" stroke-linecap="butt" stroke-linejoin="miter" stroke-miterlimit="10" stroke-dasharray="" stroke-dashoffset="0" font-family="Sans Serif" font-weight="normal" text-anchor="start" style="mix-blend-mode: normal"><tspan x="0" dy="0">Re</tspan></text><text transform="translate(244.5645,162.31059) scale(0.30478,0.30478)" font-size="40" xml:space="preserve" fill="#000000" fill-rule="nonzero" stroke="#000000" stroke-width="3" stroke-linecap="butt" stroke-linejoin="miter" stroke-miterlimit="10" stroke-dasharray="" stroke-dashoffset="0" font-family="Handwriting" font-weight="normal" text-anchor="start" style="mix-blend-mode: normal"><tspan x="0" dy="0">b</tspan></text></g></g></svg>