<svg version="1.1" xmlns="http://www.w3.org/2000/svg" xmlns:xlink="http://www.w3.org/1999/xlink" width="22.57001" height="46.1542" viewBox="0,0,22.57001,46.1542"><g transform="translate(-229.22161,-156.25195)"><g data-paper-data="{&quot;isPaintingLayer&quot;:true}" fill-rule="nonzero" stroke-linejoin="miter" stroke-miterlimit="10" stroke-dasharray="" stroke-dashoffset="0" style="mix-blend-mode: normal"><g fill="#d8d8d8" stroke="#b9b9b9" stroke-width="0" stroke-linecap="butt"><path d="M232.92677,189.04071h0.54023c0.09531,0 0.1726,0.07728 0.1726,0.1726c0,0.09533 -0.07729,0.1726 -0.1726,0.1726c-0.24221,0 -1.88403,0 -2.13359,0c-0.09533,0 -0.1726,-0.07727 -0.1726,-0.1726c0,-0.09533 0.07728,-0.1726 0.1726,-0.1726h0.66522c0.92313,-3.0019 0.94285,-3.0233 0.9213,-3.12114c-0.00225,-0.01012 -0.00865,-0.05747 -0.08012,-0.05725c-0.01442,0.00244 -0.13219,0.03238 -0.37716,0.36404c-0.15238,0.2063 -0.27018,0.41674 -0.27135,0.41884c-0.04642,0.08325 -0.15152,0.11314 -0.23478,0.06673c-0.08325,-0.0464 -0.11315,-0.15147 -0.06678,-0.23474c0.00571,-0.01026 0.14204,-0.25406 0.32035,-0.48947c0.16488,-0.21777 0.38619,-0.45356 0.66001,-0.46965c0.0951,-0.00124 1.11944,-0.00114 1.11944,-0.00114z" data-paper-data="{&quot;origPos&quot;:null}"/><path d="M235.41447,186.93692v0c-0.21823,0.67132 -0.84275,1.07247 -1.39227,0.89387c-0.54945,-0.17852 -0.78409,-0.8352 -0.5659,-1.50669c0.01596,-0.0491 0.02925,-0.19708 0.08046,-0.20359c0.15364,-0.01957 0.50049,0.11122 0.50049,0.11122c0,0 -0.40857,0.82235 0.16745,1.06656c0.36612,0.09602 0.55249,-0.14716 0.75767,-0.54929c0.12154,-0.29429 0.03716,-0.79193 -0.29523,-0.89994c-0.28069,-0.09121 -0.46554,0.15802 -0.61962,0.37901c-0.03123,0.0448 -0.17885,-0.09154 -0.54423,-0.09326c0.21821,-0.56864 0.80614,-0.90339 1.31039,-0.73949c0.53559,0.17403 0.82749,0.84377 0.60079,1.54158z" data-paper-data="{&quot;origPos&quot;:null}"/></g><g fill="#d8d8d8" stroke="#b9b9b9" stroke-width="0" stroke-linecap="butt"><path d="M231.04113,196.20417h0.54023c0.09531,0 0.1726,0.07728 0.1726,0.1726c0,0.09533 -0.0773,0.1726 -0.1726,0.1726c-0.24221,0 -1.88403,0 -2.13358,0c-0.09533,0 -0.1726,-0.07727 -0.1726,-0.1726c0,-0.09533 0.07728,-0.1726 0.1726,-0.1726h0.66522c0.92313,-3.0019 0.94286,-3.0233 0.9213,-3.12114c-0.00225,-0.01012 -0.00866,-0.05746 -0.08012,-0.05724c-0.01442,0.00244 -0.13219,0.03238 -0.37716,0.36404c-0.15238,0.2063 -0.27018,0.41674 -0.27134,0.41884c-0.04642,0.08325 -0.15153,0.11314 -0.23478,0.06673c-0.08325,-0.0464 -0.11315,-0.15147 -0.06678,-0.23474c0.00571,-0.01026 0.14204,-0.25406 0.32035,-0.48947c0.16488,-0.21777 0.38619,-0.45356 0.66001,-0.46965c0.0951,-0.00124 1.11945,-0.00114 1.11945,-0.00114z" data-paper-data="{&quot;origPos&quot;:null}"/><path d="M234.81242,196.20417h0.54023c0.09531,0 0.1726,0.07728 0.1726,0.1726c0,0.09533 -0.0773,0.1726 -0.1726,0.1726c-0.24221,0 -1.88403,0 -2.13358,0c-0.09533,0 -0.1726,-0.07727 -0.1726,-0.1726c0,-0.09533 0.07728,-0.1726 0.1726,-0.1726h0.66522c0.92313,-3.0019 0.94285,-3.0233 0.9213,-3.12114c-0.00225,-0.01012 -0.00865,-0.05746 -0.08012,-0.05724c-0.01442,0.00244 -0.13219,0.03238 -0.37716,0.36404c-0.15238,0.2063 -0.27018,0.41674 -0.27135,0.41884c-0.04642,0.08325 -0.15152,0.11314 -0.23478,0.06673c-0.08325,-0.0464 -0.11315,-0.15147 -0.06678,-0.23474c0.00571,-0.01026 0.14204,-0.25406 0.32035,-0.48947c0.16488,-0.21777 0.38619,-0.45356 0.66001,-0.46965c0.0951,-0.00124 1.11944,-0.00114 1.11944,-0.00114z" data-paper-data="{&quot;origPos&quot;:null}"/><path d="M233.52883,194.10037v0c-0.21823,0.67132 -0.84275,1.07247 -1.39227,0.89387c-0.54945,-0.17852 -0.78409,-0.8352 -0.5659,-1.50669c0.01596,-0.0491 0.02925,-0.19708 0.08046,-0.20359c0.15364,-0.01957 0.50049,0.11122 0.50049,0.11122c0,0 -0.40857,0.82235 0.16745,1.06656c0.36612,0.09602 0.5525,-0.14716 0.75768,-0.54929c0.12154,-0.29429 0.03716,-0.79193 -0.29524,-0.89994c-0.28069,-0.09121 -0.46554,0.15802 -0.61962,0.37901c-0.03123,0.0448 -0.17884,-0.09154 -0.54422,-0.09325c0.21821,-0.56864 0.80614,-0.90339 1.31039,-0.73949c0.53559,0.17403 0.82749,0.84377 0.60079,1.54158z" data-paper-data="{&quot;origPos&quot;:null}"/><path d="M237.30011,194.10037v0c-0.21823,0.67132 -0.84275,1.07247 -1.39227,0.89387c-0.54945,-0.17852 -0.78409,-0.8352 -0.5659,-1.50669c0.01596,-0.0491 0.02925,-0.19708 0.08046,-0.20359c0.15364,-0.01957 0.50049,0.11122 0.50049,0.11122c0,0 -0.40857,0.82235 0.16745,1.06656c0.36612,0.09602 0.5525,-0.14716 0.75768,-0.54929c0.12154,-0.29429 0.03716,-0.79193 -0.29524,-0.89994c-0.28069,-0.09121 -0.46554,0.15802 -0.61962,0.37901c-0.03123,0.0448 -0.17884,-0.09154 -0.54422,-0.09325c0.21821,-0.56864 0.80614,-0.90339 1.31039,-0.73949c0.53559,0.17403 0.82749,0.84377 0.60079,1.54158z" data-paper-data="{&quot;origPos&quot;:null}"/></g><g fill="#d8d8d8" stroke="#b9b9b9" stroke-width="0" stroke-linecap="butt"><path d="M232.92931,181.92481c-0.28319,0.14812 -0.59181,0.18465 -0.79884,-0.05936c-0.19641,-0.23152 -0.08628,-0.61245 -0.07306,-0.65512c0.71923,-2.31078 0.83542,-2.68568 0.83723,-2.71793c-0.30654,0.12765 -0.46763,0.25134 -0.61281,0.6526c-0.00027,0.00077 -0.71685,2.29411 -0.71685,2.29411c-0.02252,0.07207 -0.08925,0.12116 -0.16475,0.12116h-0.49495c-0.05483,0 -0.1064,-0.02603 -0.13892,-0.07016c-0.03253,-0.04413 -0.04216,-0.10107 -0.02596,-0.15346l0.83677,-2.70378c0.01129,-0.04526 0.01885,-0.0978 0.02128,-0.1405c-0.39085,0.20445 -0.54937,0.48152 -0.61264,0.65234c-0.03814,0.10299 -0.06768,0.21238 -0.7177,2.29441c-0.02252,0.07207 -0.08926,0.12116 -0.16477,0.12116h-0.49495c-0.05483,0 -0.10638,-0.02603 -0.13892,-0.07016c-0.03253,-0.04413 -0.04217,-0.10107 -0.02596,-0.15346c0.7514,-2.42598 0.8512,-2.72334 0.85807,-2.84427c-0.39085,0.20445 -0.61039,0.64771 -0.61265,0.65233c-0.04179,0.08569 -0.14512,0.12128 -0.23077,0.07953c-0.08568,-0.04177 -0.12129,-0.14508 -0.07953,-0.23078c0.01174,-0.02406 0.29265,-0.59075 0.82008,-0.83515c0.45004,-0.23476 0.69269,-0.06324 0.79741,0.06017c0.05411,0.06379 0.08486,0.13892 0.10089,0.21518c0.11146,-0.10491 0.2444,-0.20393 0.39855,-0.27534c0.4501,-0.23473 0.69271,-0.06324 0.79742,0.06017c0.054,0.06363 0.08473,0.13859 0.10078,0.21466c0.32899,-0.30935 0.88591,-0.57939 1.1954,-0.21466c0.19641,0.23152 0.08628,0.61245 0.07306,0.65512c-0.85655,2.74317 -0.80149,2.57937 -0.82346,2.61149c-0.0071,0.03618 -0.01193,0.07411 -0.01376,0.10644c0.3882,-0.20341 0.61051,-0.64797 0.61282,-0.65261c0.04206,-0.0854 0.14541,-0.12079 0.23084,-0.07891c0.08548,0.0419 0.12101,0.14492 0.07931,0.23047c-0.01174,0.02404 -0.29218,0.58955 -0.81863,0.8343z" data-paper-data="{&quot;origPos&quot;:null}"/><path d="M234.72645,182.51673h0.54023c0.09531,0 0.1726,0.07728 0.1726,0.1726c0,0.09533 -0.0773,0.1726 -0.1726,0.1726c-0.24221,0 -1.88403,0 -2.13359,0c-0.09533,0 -0.09533,-0.34519 0,-0.34519h0.66522c0.92313,-3.0019 0.94285,-3.0233 0.9213,-3.12114c-0.00225,-0.01012 -0.00865,-0.05746 -0.08012,-0.05724c-0.01442,0.00244 -0.13219,0.03238 -0.37716,0.36404c-0.15238,0.2063 -0.27018,0.41673 -0.27135,0.41883c-0.04642,0.08325 -0.15152,0.11314 -0.23478,0.06673c-0.08325,-0.0464 -0.11315,-0.15147 -0.06678,-0.23474c0.00571,-0.01026 0.14204,-0.25406 0.32035,-0.48947c0.16488,-0.21777 0.38619,-0.45355 0.66001,-0.46964c0.0951,-0.00124 1.11944,-0.00116 1.11944,-0.00116z" data-paper-data="{&quot;origPos&quot;:null}"/><path d="M237.21417,180.41294v0c-0.21823,0.67132 -0.84275,1.07247 -1.39227,0.89387c-0.54945,-0.17852 -0.78409,-0.8352 -0.5659,-1.50669c0.01596,-0.0491 0.02925,-0.19708 0.08046,-0.20359c0.15364,-0.01957 0.50049,0.11123 0.50049,0.11123c0,0 -0.40858,0.82235 0.16744,1.06655c0.36612,0.09602 0.5525,-0.14716 0.75768,-0.54929c0.12154,-0.29429 0.03716,-0.79193 -0.29524,-0.89994c-0.28069,-0.09121 -0.46554,0.15802 -0.61962,0.37901c-0.03123,0.0448 -0.17884,-0.09153 -0.54422,-0.09325c0.21821,-0.56864 0.80614,-0.90339 1.31038,-0.7395c0.53559,0.17403 0.82747,0.84377 0.60079,1.54158z" data-paper-data="{&quot;origPos&quot;:null}"/></g><path d="M233.87705,166.64113c-0.03663,1.3914 -0.38205,2.38041 -1.02664,2.93961c-0.45717,0.39659 -0.94569,0.48663 -1.57733,0.4709c-0.38898,-0.02506 -0.60264,-0.40551 -0.53665,-0.75084c0.06393,-0.33467 0.36119,-0.54838 0.66465,-0.47789c0.28596,0.06646 0.47509,0.36364 0.44139,0.67777c0.48156,-0.35741 1.01184,-1.17435 1.04819,-2.50835c0.02208,-0.80841 -0.00191,-1.917 0.40388,-2.77297c0.38285,-0.80753 0.94509,-1.18678 1.68138,-0.9903c0.27391,0.09299 0.44384,0.40359 0.38362,0.71878c-0.05559,0.291 -0.2893,0.49124 -0.54883,0.49124c-0.03822,0 -0.07695,-0.00433 -0.11581,-0.01335c-0.27819,-0.06465 -0.46469,-0.34763 -0.44363,-0.65218c-0.2993,0.42187 -0.32303,0.84818 -0.35818,2.2342c0.19254,-0.05385 0.49115,-0.07788 0.84893,0.09543c0.07788,0.03773 0.1133,0.13796 0.07908,0.22387c-0.03421,0.08588 -0.12507,0.12496 -0.20298,0.08723c-0.35055,-0.16979 -0.6173,-0.09843 -0.734,-0.04871c-0.00222,0.08867 -0.00456,0.1802 -0.00706,0.27555z" fill="#d8d8d8" stroke="none" stroke-width="0.5" stroke-linecap="butt"/><g fill="#d8d8d8" stroke="#b9b9b9" stroke-width="0" stroke-linecap="butt"><path d="M236.86246,157.02355c-0.05572,0.29169 -0.28997,0.49241 -0.5501,0.49241c-0.0383,0 -0.07714,-0.00434 -0.11608,-0.01339c-0.27881,-0.06481 -0.46576,-0.34846 -0.44464,-0.6537c-0.29999,0.42284 -0.32377,0.85016 -0.35901,2.23939c0.19299,-0.05397 0.49229,-0.07807 0.8509,0.09565c0.07808,0.03781 0.11357,0.13827 0.0793,0.22437c-0.03427,0.08609 -0.12535,0.12527 -0.20345,0.08745c-0.35138,-0.17019 -0.61871,-0.09868 -0.73571,-0.04883c-0.00225,0.08887 -0.00458,0.18062 -0.0071,0.27622c-0.03672,1.39464 -0.38291,2.38595 -1.02903,2.94643c-0.45823,0.39752 -0.94788,0.48777 -1.581,0.47201c-0.38989,-0.02511 -0.60403,-0.40645 -0.53789,-0.75258c0.06409,-0.33544 0.36202,-0.54966 0.6662,-0.47901c0.28662,0.06664 0.47619,0.36448 0.44241,0.67934c0.48268,-0.35823 1.01421,-1.17708 1.05063,-2.51419c0.02211,-0.81029 -0.00191,-1.92144 0.40481,-2.77941c0.38374,-0.80941 0.94727,-1.18953 1.68528,-0.99259c0.27453,0.09319 0.44485,0.40452 0.38451,0.72042z"/><path d="M232.38141,159.72313c-0.03672,1.39464 -0.38294,2.38595 -1.02903,2.94643c-0.45823,0.39752 -0.94788,0.48777 -1.581,0.47201c-0.38989,-0.02511 -0.60404,-0.40645 -0.53789,-0.75258c0.06409,-0.33544 0.36202,-0.54966 0.6662,-0.47901c0.28662,0.06664 0.47619,0.36448 0.44241,0.67934c0.48268,-0.35823 1.01421,-1.17708 1.05063,-2.51419c0.02211,-0.81029 -0.00191,-1.92145 0.40481,-2.77941c0.38374,-0.80941 0.94727,-1.18952 1.68528,-0.99259c0.27453,0.09317 0.44485,0.40452 0.38451,0.72044c-0.05572,0.29169 -0.28997,0.49241 -0.5501,0.49241c-0.0383,0 -0.07714,-0.00434 -0.11608,-0.0134c-0.27881,-0.06481 -0.46576,-0.34845 -0.44464,-0.65369c-0.29999,0.42284 -0.32377,0.85016 -0.35901,2.23939c0.19299,-0.05397 0.49229,-0.07807 0.8509,0.09565c0.07808,0.03781 0.11356,0.13827 0.07929,0.22437c-0.03427,0.08609 -0.12535,0.12527 -0.20345,0.08745c-0.35138,-0.17019 -0.61871,-0.09868 -0.73571,-0.04883c-0.00223,0.08886 -0.00458,0.1806 -0.0071,0.27621z" data-paper-data="{&quot;origPos&quot;:null}"/></g><g fill="#d8d8d8" stroke="#b9b9b9" stroke-width="0" stroke-linecap="butt"><path d="M232.40538,172.63548c-0.00027,0.00077 -0.70395,2.25281 -0.70395,2.25281c-0.02212,0.07078 -0.08765,0.11898 -0.1618,0.11898h-0.48604c-0.05385,0 -0.10447,-0.02555 -0.13642,-0.06889c-0.03195,-0.04334 -0.04141,-0.09926 -0.02549,-0.15069l0.8217,-2.65514c0.01109,-0.04444 0.0185,-0.09603 0.02089,-0.13796c-0.38382,0.20076 -0.53948,0.47286 -0.60163,0.6406c-0.03745,0.10113 -0.06646,0.20857 -0.70478,2.25312c-0.02212,0.07078 -0.08765,0.11898 -0.1618,0.11898h-0.48604c-0.05385,0 -0.10447,-0.02555 -0.13642,-0.06889c-0.03195,-0.04334 -0.04141,-0.09926 -0.02549,-0.15069c0.73787,-2.38233 0.83589,-2.67434 0.84262,-2.79309c-0.38382,0.20076 -0.59942,0.63605 -0.60163,0.6406c-0.04104,0.08416 -0.14251,0.1191 -0.22661,0.0781c-0.08414,-0.04101 -0.11911,-0.14248 -0.07811,-0.22663c0.01152,-0.02362 0.28739,-0.58012 0.80532,-0.8201c0.44195,-0.23055 0.68023,-0.06211 0.78306,0.05908c0.05314,0.06264 0.08333,0.13642 0.09906,0.21131c0.10946,-0.10302 0.24001,-0.20027 0.39138,-0.27039c0.442,-0.23051 0.68025,-0.06211 0.78307,0.05908c0.05304,0.0625 0.08322,0.1361 0.09897,0.2108c0.32306,-0.30378 0.86996,-0.56896 1.17388,-0.2108c0.19288,0.22737 0.08473,0.60144 0.07175,0.64333c-0.84113,2.6938 -0.78707,2.53295 -0.80865,2.5645c-0.00699,0.03553 -0.01171,0.07278 -0.01351,0.10452c0.38122,-0.19975 0.59954,-0.6363 0.60178,-0.64086c0.04132,-0.08386 0.1428,-0.11862 0.2267,-0.07749c0.08394,0.04113 0.11883,0.14228 0.07787,0.22632c-0.01151,0.02361 -0.28693,0.57895 -0.8039,0.8193c-0.2781,0.14548 -0.58115,0.18132 -0.78447,-0.05829c-0.19288,-0.22737 -0.08473,-0.60144 -0.07174,-0.64333c0.70629,-2.26917 0.82037,-2.63737 0.82216,-2.66902c-0.30102,0.12535 -0.45922,0.24683 -0.60176,0.64085z" data-paper-data="{&quot;origPos&quot;:null}"/><path d="M237.10348,170.87209c-0.05547,0.29032 -0.28863,0.4901 -0.54755,0.4901c-0.03814,0 -0.07679,-0.00433 -0.11555,-0.01334c-0.27753,-0.06451 -0.46359,-0.34681 -0.44258,-0.65064c-0.29859,0.42086 -0.32227,0.84618 -0.35734,2.22897c0.19208,-0.05371 0.49,-0.07771 0.84694,0.09521c0.07771,0.03765 0.11305,0.13763 0.07891,0.22334c-0.03414,0.08569 -0.12478,0.12468 -0.20251,0.08704c-0.34974,-0.16939 -0.61584,-0.09821 -0.7323,-0.0486c-0.00223,0.08845 -0.00455,0.17978 -0.00705,0.27493c-0.03654,1.38816 -0.38113,2.37485 -1.02423,2.93274c-0.4561,0.39569 -0.94348,0.48552 -1.57364,0.46982c-0.38808,-0.02499 -0.60122,-0.40458 -0.5354,-0.7491c0.06379,-0.33389 0.36035,-0.54708 0.6631,-0.47676c0.2853,0.06631 0.47399,0.36278 0.44036,0.67619c0.48042,-0.35656 1.00949,-1.17161 1.04573,-2.50248c0.02202,-0.80652 -0.00191,-1.91253 0.40293,-2.7665c0.38194,-0.80565 0.94286,-1.184 1.67744,-0.98799c0.27326,0.09275 0.44278,0.40263 0.38274,0.71707z" data-paper-data="{&quot;origPos&quot;:null}"/></g><path d="M234.41286,200.79807c0,0.75005 -0.48644,1.35808 -1.08647,1.35808c-0.60003,0 -1.08646,-0.60803 -1.08646,-1.35808c0,-0.75005 0.48643,-1.35809 1.08646,-1.35809c0.60003,0 1.08647,0.60803 1.08647,1.35809z" fill="none" stroke="#000000" stroke-width="0.5" stroke-linecap="butt"/><path d="M244.3328,200.72197v-41.43905z" data-paper-data="{&quot;index&quot;:null}" fill="#ffffff" stroke="#000000" stroke-width="1" stroke-linecap="butt"/><path d="M245.1401,159.27805h6.65151l-6.65151,38.43635z" fill="#9b9b9b" stroke="#9b9b9b" stroke-width="0" stroke-linecap="round"/><path d="M244.33281,159.357h-6.08603" fill="none" stroke="#000000" stroke-width="0.5" stroke-linecap="round"/><path d="M244.33281,166.23884h-6.08603" fill="none" stroke="#000000" stroke-width="0.5" stroke-linecap="round"/><path d="M244.33278,173.12064h-6.08603" fill="none" stroke="#000000" stroke-width="0.5" stroke-linecap="round"/><path d="M244.33278,180.00245h-6.08603" fill="none" stroke="#000000" stroke-width="0.5" stroke-linecap="round"/><path d="M244.33281,186.88426h-6.08603" fill="none" stroke="#000000" stroke-width="0.5" stroke-linecap="round"/><path d="M244.33278,193.76605h-6.08603" fill="none" stroke="#000000" stroke-width="0.5" stroke-linecap="round"/><path d="M238.24675,200.64787h6.08603" fill="none" stroke="#000000" stroke-width="0.5" stroke-linecap="round"/></g></g></svg>