<svg version="1.1" xmlns="http://www.w3.org/2000/svg" xmlns:xlink="http://www.w3.org/1999/xlink" width="28.58068" height="123.81784" viewBox="0,0,28.58068,123.81784"><g transform="translate(-225.95468,-118.09109)"><g data-paper-data="{&quot;isPaintingLayer&quot;:true}" fill-rule="nonzero" stroke-linecap="butt" stroke-linejoin="miter" stroke-miterlimit="10" stroke-dasharray="" stroke-dashoffset="0" style="mix-blend-mode: normal"><path d="M226.94991,239.44101c0,-2.88939 0,-71.94749 0,-117.99753c0,-1.30831 1.2268,-3.35239 2.01202,-3.35239c8.63819,0 19.84667,0 22.13427,0c0.76253,0 1.95389,2.03504 1.95389,2.98191c0,45.90548 0,114.24066 0,117.99755c0,1.25231 -0.90067,2.83838 -1.71066,2.83838c-2.42999,0 -14.15755,0 -22.98558,0c-0.5479,0 -1.40393,-1.50474 -1.40393,-2.46789z" data-paper-data="{&quot;origPos&quot;:null}" fill-opacity="0.88117" fill="#ffffff" stroke="#001026" stroke-width="0"/><g fill="#000000" stroke="#000000" stroke-width="2" font-weight="normal" font-size="40" text-anchor="start"><text transform="translate(226.37995,163.1905) scale(0.42527,0.5063)" font-size="40" xml:space="preserve" data-paper-data="{&quot;origPos&quot;:null}" fill="#000000" fill-rule="nonzero" stroke="#000000" stroke-width="2" stroke-linecap="butt" stroke-linejoin="miter" stroke-miterlimit="10" stroke-dasharray="" stroke-dashoffset="0" font-family="Sans Serif" font-weight="normal" text-anchor="start" style="mix-blend-mode: normal"><tspan x="0" dy="0">La</tspan></text><text transform="translate(245.40215,163.30355) scale(0.45453,0.45453)" font-size="40" xml:space="preserve" data-paper-data="{&quot;origPos&quot;:null}" fill="#000000" fill-rule="nonzero" stroke="#000000" stroke-width="2" stroke-linecap="butt" stroke-linejoin="miter" stroke-miterlimit="10" stroke-dasharray="" stroke-dashoffset="0" font-family="Handwriting" font-weight="normal" text-anchor="start" style="mix-blend-mode: normal"><tspan x="0" dy="0">b</tspan></text></g></g></g></svg>