<svg version="1.1" xmlns="http://www.w3.org/2000/svg" xmlns:xlink="http://www.w3.org/1999/xlink" width="26.375" height="32.375" viewBox="0,0,26.375,32.375"><defs><linearGradient x1="227.58929" y1="180.00002" x2="252.41071" y2="180.00002" gradientUnits="userSpaceOnUse" id="color-1"><stop offset="0" stop-color="#424e59"/><stop offset="1" stop-color="#064071"/></linearGradient></defs><g transform="translate(-226.8125,-163.8125)"><g data-paper-data="{&quot;isPaintingLayer&quot;:true}" stroke-linecap="butt" stroke-linejoin="miter" stroke-miterlimit="10" stroke-dasharray="" stroke-dashoffset="0" style="mix-blend-mode: normal"><path d="M226.8125,196.1875v-32.375h26.375v32.375z" fill="none" fill-rule="nonzero" stroke="#000000" stroke-width="0"/><path d="M227.58929,193.31772c0,-2.25074 0,-16.31081 0,-26.75056c0,-0.70529 1.15456,-1.80723 1.89353,-1.80723c8.23134,0 18.94208,0 21.09178,0c0.71657,0 1.83611,0.9451 1.83611,1.55001c0,10.48994 0,24.47785 0,26.87916c0,0.80044 -1.27638,2.05102 -2.09333,2.05102c-2.45085,0 -12.86044,0 -21.09178,0c-0.63859,0 -1.63631,-1.17217 -1.63631,-1.92242z" data-paper-data="{&quot;origPos&quot;:null}" fill="url(#color-1)" fill-rule="nonzero" stroke="#000000" stroke-width="1.5"/><g data-paper-data="{&quot;origPos&quot;:null}" stroke="none"><path d="M240.72503,179.80888c1.29516,0.22483 2.52255,1.05016 3.29971,2.17333l0.11582,0.16911l-0.11582,0.16911c-1.99903,2.88904 -6.05043,2.88904 -8.04946,0l-0.11582,-0.16911l0.11582,-0.16911c0.79161,-1.14404 2.11173,-2.01377 3.37534,-2.18178c0.11083,-0.01472 0.23547,-0.03307 0.27045,-0.03877c0.13123,-0.02147 0.89996,0.01178 1.10397,0.04722" data-paper-data="{&quot;origPos&quot;:null,&quot;noHover&quot;:false,&quot;origItem&quot;:[&quot;Path&quot;,{&quot;applyMatrix&quot;:false,&quot;data&quot;:{&quot;origPos&quot;:null},&quot;segments&quot;:[[[481.66076,355.42604],[0,0],[-0.47691,-0.07089]],[[479.13244,355.33591],[0.30677,-0.04293],[-0.0818,0.0114]],[[478.51275,355.41027],[0.25908,-0.02945],[-2.95388,0.33602]],[[470.6915,359.68215],[1.85053,-2.28808],[0,0]],[470.42082,360.01678],[[470.6915,360.35141],[0,0],[4.67304,5.77807]],[[489.3085,360.35141],[-4.67304,5.77807],[0,0]],[489.57918,360.01678],[[489.3085,359.68215],[0,0],[-1.81673,-2.24634]],[[481.66076,355.42604],[3.02764,0.44965],[0,0]]],&quot;fillColor&quot;:[0,0,0,1]}]}" fill="#8a8a8a" fill-rule="nonzero" stroke-width="0.5"/><path d="M239.39123,178.49603c2.13174,-0.3205 4.26841,1.03399 5.24466,3.32465l0.14089,0.33056l-0.14089,0.33057c-1.90618,4.4727 -7.36559,4.4727 -9.27177,0l-0.14089,-0.33057l0.14089,-0.33056c0.78564,-1.84345 2.25759,-3.05863 4.02711,-3.32465M240.71044,179.85587c-0.20401,-0.03545 -0.95034,-0.06653 -1.08156,-0.04506c-0.03499,0.0057 -0.15427,0.02246 -0.26509,0.03718c-1.26361,0.16801 -2.55415,0.9919 -3.34576,2.13594l-0.11579,0.16732l0.11579,0.16732c1.99903,2.88904 5.96493,2.88904 7.96396,0l0.11579,-0.16732l-0.11579,-0.16732c-0.77716,-1.12317 -1.97638,-1.90323 -3.27154,-2.12805M239.77732,180.21767c0.28693,-0.04749 0.7081,0.03391 0.96616,0.1868c0.12567,0.07441 0.1258,0.0751 0.02528,0.12418c-0.37464,0.18293 -0.37511,0.83118 -0.00068,1.01396c0.2359,0.11522 0.5234,-0.01923 0.62014,-0.28991c0.04199,-0.11749 0.04259,-0.11735 0.10625,0.02954c0.64495,1.4876 -0.5857,3.21752 -1.95042,2.74175c-1.72122,-0.60005 -1.54273,-3.51239 0.23328,-3.80632" data-paper-data="{&quot;origPos&quot;:null}" fill="#000000" fill-rule="evenodd" stroke-width="1"/></g><text transform="translate(233.24622,174.02641) scale(0.18674,0.18674)" font-size="40" xml:space="preserve" data-paper-data="{&quot;origPos&quot;:null}" fill="#686868" fill-rule="nonzero" stroke="#777777" stroke-width="1" stroke-linecap="butt" stroke-linejoin="miter" stroke-miterlimit="10" stroke-dasharray="" stroke-dashoffset="0" font-family="Sans Serif" font-weight="normal" text-anchor="start" style="mix-blend-mode: normal"><tspan x="0" dy="0">VER</tspan></text></g></g></svg>