<svg version="1.1" xmlns="http://www.w3.org/2000/svg" xmlns:xlink="http://www.w3.org/1999/xlink" width="49.74924" height="49.74924" viewBox="0,0,49.74924,49.74924"><defs><radialGradient cx="225.37913" cy="164.88944" r="24.62462" gradientUnits="userSpaceOnUse" id="color-1"><stop offset="0" stop-color="#e3e3e3"/><stop offset="1" stop-color="#9d9d9d"/></radialGradient><radialGradient cx="240.00001" cy="179.04234" r="17.20023" gradientUnits="userSpaceOnUse" id="color-2"><stop offset="0" stop-color="#ffea00"/><stop offset="1" stop-color="#faffb1"/></radialGradient></defs><g transform="translate(-215.12538,-155.12538)"><g data-paper-data="{&quot;isPaintingLayer&quot;:true}" fill-rule="nonzero" stroke-linejoin="miter" stroke-miterlimit="10" stroke-dasharray="" stroke-dashoffset="0" style="mix-blend-mode: normal"><path d="M264.62462,167.84354v24.31292c0,6.88611 -5.58195,12.46816 -12.46816,12.46816h-24.31292c-6.88611,0 -12.46816,-5.58195 -12.46816,-12.46816v-24.31292c0,-6.88622 5.58205,-12.46816 12.46816,-12.46816h24.31292c6.88622,0 12.46816,5.58195 12.46816,12.46816z" fill="url(#color-1)" stroke="#696969" stroke-width="0.5" stroke-linecap="butt"/><path d="M218.47639,180c0,-11.88716 9.63645,-21.52361 21.52361,-21.52361c11.88716,0 21.52361,9.63645 21.52361,21.52361c0,11.88716 -9.63645,21.52361 -21.52361,21.52361c-11.88716,0 -21.52361,-9.63645 -21.52361,-21.52361z" fill="#ffffff" stroke="#ffa600" stroke-width="2" stroke-linecap="butt"/><path d="M222.79978,175.50352l11.68628,-1.48134l5.43166,-10.20494l5.43166,10.04031l11.85086,1.81055l-8.88817,7.49983l1.97516,11.09944l-10.69872,-5.10247l-10.36951,5.10247l2.13975,-10.86329z" fill="url(#color-2)" stroke="#9e9900" stroke-width="0.5" stroke-linecap="round"/><path d="M230.07089,177.17974l6.7461,-0.85513l3.13552,-5.89097l3.13552,5.79593l6.84111,1.04517l-5.13084,4.3294l1.14019,6.40734l-6.17602,-2.94549l-5.98597,2.94549l1.23521,-6.27102z" fill="#dda900" stroke="#fcd938" stroke-width="1.5" stroke-linecap="round"/></g></g></svg>