<svg version="1.1" xmlns="http://www.w3.org/2000/svg" xmlns:xlink="http://www.w3.org/1999/xlink" width="30.00179" height="118.69317" viewBox="0,0,30.00179,118.69317"><g transform="translate(-225.36076,-120.65343)"><g data-paper-data="{&quot;isPaintingLayer&quot;:true}" fill-rule="nonzero" stroke-linecap="butt" stroke-linejoin="miter" stroke-miterlimit="10" stroke-dasharray="" stroke-dashoffset="0" style="mix-blend-mode: normal"><path d="M226.94991,236.98081c0,-2.76979 0,-68.96967 0,-113.11375c0,-1.25415 1.2268,-3.21363 2.01202,-3.21363c8.63819,0 19.84667,0 22.13427,0c0.76253,0 1.95389,1.95082 1.95389,2.8585c0,44.0055 0,109.51236 0,113.11376c0,1.20048 -0.90067,2.72091 -1.71066,2.72091c-2.42999,0 -14.15755,0 -22.98558,0c-0.5479,0 -1.40393,-1.44246 -1.40393,-2.36576z" data-paper-data="{&quot;origPos&quot;:null}" fill-opacity="0.87903" fill="#ffffff" stroke="#001026" stroke-width="0"/><text transform="translate(225.78003,163.57421) scale(0.41927,0.5063)" font-size="40" xml:space="preserve" fill="#000000" fill-rule="nonzero" stroke="#000000" stroke-width="2" stroke-linecap="butt" stroke-linejoin="miter" stroke-miterlimit="10" stroke-dasharray="" stroke-dashoffset="0" font-family="Sans Serif" font-weight="normal" text-anchor="start" style="mix-blend-mode: normal"><tspan x="0" dy="0">Re</tspan></text><text transform="translate(246.00207,163.17565) scale(0.45453,0.45453)" font-size="40" xml:space="preserve" fill="#000000" fill-rule="nonzero" stroke="#000000" stroke-width="3" stroke-linecap="butt" stroke-linejoin="miter" stroke-miterlimit="10" stroke-dasharray="" stroke-dashoffset="0" font-family="Handwriting" font-weight="normal" text-anchor="start" style="mix-blend-mode: normal"><tspan x="0" dy="0">b</tspan></text></g></g></svg>