<svg version="1.1" xmlns="http://www.w3.org/2000/svg" xmlns:xlink="http://www.w3.org/1999/xlink" width="26.625" height="33.125" viewBox="0,0,26.625,33.125"><g transform="translate(-226.6875,-163.43753)"><g data-paper-data="{&quot;isPaintingLayer&quot;:true}" fill-rule="nonzero" stroke-linecap="butt" stroke-linejoin="miter" stroke-miterlimit="10" stroke-dasharray="" stroke-dashoffset="0" style="mix-blend-mode: normal"><path d="M226.6875,196.56253v-33.125h26.625v33.125z" fill="none" stroke="#000000" stroke-width="0"/><path d="M227.58929,193.31772c0,-2.25074 0,-16.31081 0,-26.75056c0,-0.70529 1.15456,-1.80723 1.89353,-1.80723c8.23134,0 18.94208,0 21.09178,0c0.71657,0 1.83611,0.9451 1.83611,1.55001c0,10.48994 0,24.47785 0,26.87916c0,0.80044 -1.27638,2.05102 -2.09333,2.05102c-2.45085,0 -12.86044,0 -21.09178,0c-0.63859,0 -1.63631,-1.17217 -1.63631,-1.92242z" data-paper-data="{&quot;origPos&quot;:null}" fill="#edb47e" stroke="#000000" stroke-width="1.5"/><path d="M236.5159,179.94876c0,-2.61307 1.38341,-4.40636 3.43287,-4.40636c2.40812,0 3.53533,1.7933 3.53533,4.50884c0,2.71555 -1.22969,4.40636 -3.4841,4.40636c-2.04946,0 -3.4841,-1.48587 -3.4841,-4.50884zM241.02476,180.05123c0,-1.48586 -0.46113,-2.5106 -1.07597,-2.5106c-0.46114,0 -1.02475,0.92226 -1.02475,2.40812c0,1.58834 0.61484,2.61308 1.07597,2.61308c0.61484,0 1.02474,-1.02473 1.02474,-2.5106z" fill="#000000" stroke="none" stroke-width="1"/></g></g></svg>