<svg version="1.1" xmlns="http://www.w3.org/2000/svg" xmlns:xlink="http://www.w3.org/1999/xlink" width="32.5" height="32.5" viewBox="0,0,32.5,32.5"><defs><linearGradient x1="-111.70216" y1="168.19788" x2="-111.70216" y2="192.11129" gradientUnits="userSpaceOnUse" id="color-1"><stop offset="0" stop-color="#69db0e"/><stop offset="1" stop-color="#397607"/></linearGradient></defs><g transform="translate(-223.75,-163.75)"><g data-paper-data="{&quot;isPaintingLayer&quot;:true}" fill-rule="nonzero" stroke-miterlimit="10" stroke-dasharray="" stroke-dashoffset="0" style="mix-blend-mode: normal"><path d="M253.96864,180c0.03478,5.0136 -2.62001,9.66131 -6.9562,12.1782c-4.3362,2.51689 -9.68867,2.51689 -14.02488,0c-4.3362,-2.51689 -6.99098,-7.1646 -6.9562,-12.1782c-0.03478,-5.0136 2.62001,-9.66131 6.9562,-12.1782c4.3362,-2.51689 9.68867,-2.51689 14.02488,0c4.3362,2.51689 6.99098,7.1646 6.9562,12.1782z" fill="#000000" stroke="url(#color-1)" stroke-width="0" stroke-linecap="round" stroke-linejoin="round"/><path d="M241.01868,179.63257l1.03903,1.03902l-0.92219,0.92212l-1.03895,-1.03902c-2.00392,1.55013 -4.89306,1.41026 -6.73174,-0.42843c-1.99521,-1.99522 -1.99519,-5.23015 0.00003,-7.22539c1.99522,-1.99525 5.23015,-1.99528 7.2254,-0.00003c1.83868,1.83868 1.97852,4.72785 0.42843,6.73174z" fill="#18252e" stroke="none" stroke-width="1" stroke-linecap="butt" stroke-linejoin="miter"/><path d="M242.51318,180.22439l5.61841,5.61842c0.39098,0.39102 -1.43382,2.21582 -1.8248,1.8248l-5.61845,-5.61842c-0.08602,-0.08602 -0.08602,-0.22544 0,-0.31148l1.51335,-1.51332c0.08605,-0.08602 0.22547,-0.08602 0.31148,0z" fill="#18252e" stroke="none" stroke-width="1" stroke-linecap="butt" stroke-linejoin="miter"/><path d="M223.75,196.25v-32.5h32.5v32.5z" fill="none" stroke="none" stroke-width="0" stroke-linecap="butt" stroke-linejoin="miter"/></g></g></svg>