<svg version="1.1" xmlns="http://www.w3.org/2000/svg" xmlns:xlink="http://www.w3.org/1999/xlink" width="28.23032" height="92.56629" viewBox="0,0,28.23032,92.56629"><g transform="translate(-226.2435,-134.2285)"><g data-paper-data="{&quot;isPaintingLayer&quot;:true}" fill-rule="nonzero" stroke-linecap="butt" stroke-linejoin="miter" stroke-miterlimit="10" stroke-dasharray="" stroke-dashoffset="0" style="mix-blend-mode: normal"><path d="M226.94992,224.94975c0,-2.1601 0,-53.78798 0,-88.21501c0,-0.97808 1.2268,-2.50624 2.01202,-2.50624c8.63819,0 19.84667,0 22.13427,0c0.76253,0 1.95389,1.5214 1.95389,2.22929c0,34.31895 0,85.40636 0,88.21502c0,0.93623 -0.90067,2.12198 -1.71066,2.12198c-2.42999,0 -14.15755,0 -22.98558,0c-0.5479,0 -1.40393,-1.12494 -1.40393,-1.84501z" data-paper-data="{&quot;origPos&quot;:null}" fill-opacity="0.87903" fill="#ffffff" stroke="#001026" stroke-width="0"/><text transform="translate(226.66877,163.19052) scale(0.42527,0.5063)" font-size="40" xml:space="preserve" fill="#000000" fill-rule="nonzero" stroke="#000000" stroke-width="2" stroke-linecap="butt" stroke-linejoin="miter" stroke-miterlimit="10" stroke-dasharray="" stroke-dashoffset="0" font-family="Sans Serif" font-weight="normal" text-anchor="start" style="mix-blend-mode: normal"><tspan x="0" dy="0">La</tspan></text><text transform="translate(245.11334,163.30362) scale(0.45453,0.45453)" font-size="40" xml:space="preserve" fill="#000000" fill-rule="nonzero" stroke="#000000" stroke-width="3" stroke-linecap="butt" stroke-linejoin="miter" stroke-miterlimit="10" stroke-dasharray="" stroke-dashoffset="0" font-family="Handwriting" font-weight="normal" text-anchor="start" style="mix-blend-mode: normal"><tspan x="0" dy="0">b</tspan></text></g></g></svg>