<svg version="1.1" xmlns="http://www.w3.org/2000/svg" xmlns:xlink="http://www.w3.org/1999/xlink" width="496.05513" height="361.86555"><defs><radialGradient cx="240" cy="180.00003" r="248.02757" gradientUnits="userSpaceOnUse" id="color-1"><stop offset="0" stop-color="#919191" stop-opacity="0"/><stop offset="1" stop-color="#919191"/></radialGradient></defs><g transform="translate(8.02757,0.93275)"><g data-paper-data="{&quot;isPaintingLayer&quot;:true}" fill="none" fill-rule="none" stroke="none" stroke-width="none" stroke-linecap="butt" stroke-linejoin="miter" stroke-miterlimit="10" stroke-dasharray="" stroke-dashoffset="0" font-family="none" font-weight="none" font-size="none" text-anchor="none" style="mix-blend-mode: normal"><path d="M-8.02757,360.9328v-361.86555h496.05513v361.86555z" data-paper-data="{&quot;origPos&quot;:null}" fill="url(#color-1)" fill-rule="nonzero" stroke="none" stroke-width="NaN"/><path d="M71.81358,152.83436c6.323,-2.348 11.791,1.786 8.816,6.666c-2.111,3.462 -12.949,4.52 -14.604,1.426c-1.161,-2.168 2.096,-6.72 5.788,-8.092M94.98558,153.11037c6.399,-2.989 12.835,1.212 9.71,6.338c-2.046,3.355 -12.571,4.576 -14.469,1.679c-1.336,-2.039 1.236,-6.371 4.759,-8.017M410.83559,154.65837c4.774,-2.079 8.922,-0.156 7.535,3.492c-0.308,0.812 -0.296,1.324 0.04,1.73c0.523,0.63 -0.114,1.738 -3.064,5.328c-2.942,3.579 -6.451,9.605 -11.242,19.305c-6.496,13.15 -7.973,14.603 -14.311,14.078c-5.801,-0.481 -5.082,-4.915 3.268,-20.144c7.981,-14.557 13.484,-21.921 17.774,-23.789M434.46458,154.85236c5,-2.271 9.547,-0.403 7.887,3.241c-0.378,0.829 -0.369,1.23 0.038,1.72c0.441,0.531 0.021,1.317 -2.472,4.627c-4.334,5.753 -6.743,9.817 -11.809,19.918c-6.46,12.884 -7.751,14.295 -13.097,14.317c-5.243,0.021 -6.175,-1.424 -4.317,-6.69c4.775,-13.529 18.291,-34.644 23.77,-37.133M129.32458,157.46037c16.535,-8.39 22.227,8.508 9.373,27.827c-5.377,8.081 -15.891,12.447 -21.072,8.751l-1.399,-0.997l-1.242,2.768c-0.683,1.522 -1.695,4.176 -2.249,5.898c-2.328,7.232 -9.617,11.139 -15.375,8.242c-3.787,-1.905 -3.004,-4.881 5.389,-20.47c10.108,-18.773 17.119,-27.221 26.575,-32.019M202.16559,157.47537c10.007,-2.566 14.536,-1.337 15.739,4.269c1.85,8.629 -8.146,23.56 -18.291,27.32c-1.127,0.418 -2.118,0.81 -2.203,0.873c-0.084,0.062 0.818,1.814 2.006,3.894c4.26,7.456 4.92,10.675 2.656,12.94c-1.783,1.783 -3.619,2.127 -5.183,0.971c-0.82,-0.607 -1.862,-0.904 -3.17,-0.904c-3.044,0 -3.662,-0.841 -5.682,-7.725c-0.589,-2.006 -1.17,-3.809 -1.291,-4.005c-0.271,-0.44 -1.156,0.998 -4.51,7.328c-3.252,6.139 -3.924,6.646 -8.566,6.461c-7.145,-0.284 -7.222,-2.767 -0.502,-16.222c7.702,-15.421 17.675,-29.954 22.676,-33.045c0.814,-0.503 3.658,-1.473 6.321,-2.155M339.79959,157.03337c4.705,-0.993 9.934,-1.071 11.667,-0.174c2.431,1.257 2.617,3.882 0.369,5.21c-0.762,0.451 -1.773,1.783 -2.573,3.39c-1.884,3.79 -4.135,5.328 -7.797,5.328c-1.514,0 -1.764,0.376 -7.866,11.803c-10.202,19.104 -14.327,25.863 -16.649,27.278c-3.294,2.009 -8.442,0.609 -8.442,-2.295c0,-1.683 8.561,-21.839 12.274,-28.898l2.737,-5.203l-1.943,-0.219c-2.571,-0.289 -3.626,-1.282 -3.626,-3.412c0,-5.584 6.967,-9.668 21.849,-12.808M375.69058,156.91837c1.584,-0.857 5.437,-0.924 6.981,-0.12c9.455,4.919 2.323,29.682 -13.002,45.146c-15.171,15.308 -34.042,9.057 -29.226,-9.682c4.541,-17.675 19.112,-34.423 30.097,-34.595c2.646,-0.041 4.282,-0.279 5.15,-0.749M168.16559,157.51037c3.218,-0.839 9.47,-1.101 12.216,-0.512c4.935,1.058 0.783,9.651 -5.507,11.4c-1.33,0.37 -3.528,0.979 -4.885,1.354c-2.879,0.796 -5.561,3.267 -7.537,6.943c-1.637,3.046 -1.45,3.194 3.603,2.846c5.014,-0.345 5.101,-0.239 2.643,3.279c-2.287,3.274 -4.357,4.583 -8.642,5.467l-3.588,0.74l-1.823,2.575c-4.576,6.465 -4.446,6.784 2.686,6.597c6.089,-0.161 6.714,0.012 6.333,1.745c-0.174,0.792 -0.041,1.358 0.405,1.728c2.519,2.091 -3.227,6.702 -9.956,7.989c-6.782,1.298 -14.854,0.69 -17.159,-1.293l-1.169,-1.006l0.537,-3.13c1.434,-8.365 6.034,-18.614 13.314,-29.664c3.362,-5.103 4.574,-7.341 5.2,-9.598c1.06,-3.824 2.528,-4.645 13.329,-7.46M243.05859,156.85836c1.563,-0.607 6.706,-0.18 7.51,0.624c4.193,4.192 -5.905,15.476 -13.376,14.949l-2.003,-0.142l-1.383,2.361c-0.76,1.298 -2.14,3.277 -3.065,4.399l-1.683,2.038h3.873c4.276,0 4.762,0.3 4.762,2.934c0,1.001 -0.322,1.464 -1.506,2.162c-0.828,0.488 -1.722,1.364 -1.987,1.945c-0.679,1.489 -4.47,2.796 -8.186,2.82c-0.875,0.006 -1.802,0.252 -2.058,0.547c-0.747,0.861 -4.246,7.045 -6.612,11.686c-3.098,6.077 -8.393,8.432 -11.645,5.179c-1.753,-1.753 -1.895,-1.34 6.517,-19.021c3.625,-7.618 7.079,-15.013 7.677,-16.433c4.808,-11.423 7.859,-14.08 17.508,-15.248c2.875,-0.348 5.421,-0.708 5.657,-0.8M267.52158,157.29037c3.784,-0.95 11.455,-0.685 12.695,0.437c3.009,2.724 -2.487,10.167 -8.179,11.077c-5.166,0.826 -8.654,3.339 -11.158,8.037c-1.597,2.996 -1.448,3.098 3.915,2.693c4.212,-0.318 4.677,0.047 3.092,2.424c-2.577,3.863 -5.437,5.727 -9.92,6.468l-2.978,0.491l-2.171,3.274c-4.139,6.239 -4.202,6.117 3.116,6.033c2.833,-0.032 5.392,-0.038 5.687,-0.014c0.333,0.028 0.536,0.701 0.536,1.775c0,1.142 0.219,1.814 0.644,1.977c1.573,0.604 -1.391,4.356 -4.824,6.107c-6.529,3.331 -21.96,2.905 -23.309,-0.644c-1.658,-4.36 5.783,-21.775 15.161,-35.484c1.75,-2.559 2.84,-4.696 3.371,-6.608c1.17,-4.219 2.858,-5.167 14.322,-8.043M300.13959,158.49437c4.34,-1.406 10.895,-1.421 13.525,-0.029c8.354,4.417 2.815,19.86 -7.573,21.115c-3.965,0.479 -4.682,-0.593 -3.796,-5.681l0.318,-1.825h-1.401c-5.171,0 -15.589,12.223 -16.58,19.454c-0.693,5.06 2.9,7.061 7.567,4.213c3.69,-2.252 7.516,-1.031 7.104,2.267c-0.22,1.76 -0.136,2.372 0.385,2.804c4.474,3.712 -13.604,10.316 -22.268,8.134c-17.498,-4.405 -0.092,-43.058 22.719,-50.452M205.48459,166.88737c-1.218,-2.276 -4.465,0.901 -8.671,8.485c-1.121,2.022 -2.039,3.73 -2.039,3.796c0,0.437 5.24,-2.781 6.583,-4.043c2.211,-2.08 4.731,-7.109 4.127,-8.238M66.64258,167.52837c2.808,-1.223 8.437,-0.381 9.107,1.363c1.564,4.077 -15.285,34.214 -22.545,40.323c-2.636,2.218 -8.626,3.275 -9.894,1.747c-1.12,-1.349 -0.285,-6.477 1.42,-8.722c4.31,-5.675 8.065,-11.95 12.278,-20.514c4.801,-9.761 7.047,-13.07 9.634,-14.197M90.69758,167.52137c2.913,-1.274 8.405,-0.368 8.992,1.485c1.216,3.831 -12.812,29.895 -20.548,38.178c-5.246,5.618 -13.935,6.352 -12.345,1.043c0.266,-0.887 0.37,-2.049 0.231,-2.581c-0.196,-0.747 0.435,-1.869 2.77,-4.93c3.994,-5.237 7.218,-10.763 12.2,-20.916c4.214,-8.589 5.988,-11.092 8.7,-12.279M130.97559,170.68037c0.312,-2.226 0.31,-2.223 -3.363,3.433c-8.491,13.079 -8.373,12.824 -5.205,11.29c4.254,-2.059 7.598,-7.804 8.568,-14.723M370.65158,173.04037c0.502,-2.823 0.81,-2.986 -3.638,1.931c-11.135,12.312 -16.211,21.259 -14.542,25.63c0.901,2.359 1.281,2.395 3.672,0.348c5.67,-4.854 12.87,-18.703 14.508,-27.909M384.31859,203.58537c2.564,-0.945 9.225,-0.652 10.452,0.459c3.298,2.988 -2.782,9.234 -8.986,9.231c-7.327,-0.005 -8.406,-7.133 -1.466,-9.69M409.15258,203.26337c4.205,-1.109 10.515,0.314 10.515,2.372c0,5.132 -8.741,9.58 -13.742,6.993c-4.167,-2.154 -2.172,-7.941 3.227,-9.365" data-paper-data="{&quot;origPos&quot;:null}" id="path0 1" fill="#003aff" fill-rule="evenodd" stroke="#ffffff" stroke-width="11"/><path d="M71.81358,152.83436c6.323,-2.348 11.791,1.786 8.816,6.666c-2.111,3.462 -12.949,4.52 -14.604,1.426c-1.161,-2.168 2.096,-6.72 5.788,-8.092M94.98558,153.11037c6.399,-2.989 12.835,1.212 9.71,6.338c-2.046,3.355 -12.571,4.576 -14.469,1.679c-1.336,-2.039 1.236,-6.371 4.759,-8.017M410.83559,154.65837c4.774,-2.079 8.922,-0.156 7.535,3.492c-0.308,0.812 -0.296,1.324 0.04,1.73c0.523,0.63 -0.114,1.738 -3.064,5.328c-2.942,3.579 -6.451,9.605 -11.242,19.305c-6.496,13.15 -7.973,14.603 -14.311,14.078c-5.801,-0.481 -5.082,-4.915 3.268,-20.144c7.981,-14.557 13.484,-21.921 17.774,-23.789M434.46458,154.85236c5,-2.271 9.547,-0.403 7.887,3.241c-0.378,0.829 -0.369,1.23 0.038,1.72c0.441,0.531 0.021,1.317 -2.472,4.627c-4.334,5.753 -6.743,9.817 -11.809,19.918c-6.46,12.884 -7.751,14.295 -13.097,14.317c-5.243,0.021 -6.175,-1.424 -4.317,-6.69c4.775,-13.529 18.291,-34.644 23.77,-37.133M129.32458,157.46037c16.535,-8.39 22.227,8.508 9.373,27.827c-5.377,8.081 -15.891,12.447 -21.072,8.751l-1.399,-0.997l-1.242,2.768c-0.683,1.522 -1.695,4.176 -2.249,5.898c-2.328,7.232 -9.617,11.139 -15.375,8.242c-3.787,-1.905 -3.004,-4.881 5.389,-20.47c10.108,-18.773 17.119,-27.221 26.575,-32.019M202.16559,157.47537c10.007,-2.566 14.536,-1.337 15.739,4.269c1.85,8.629 -8.146,23.56 -18.291,27.32c-1.127,0.418 -2.118,0.81 -2.203,0.873c-0.084,0.062 0.818,1.814 2.006,3.894c4.26,7.456 4.92,10.675 2.656,12.94c-1.783,1.783 -3.619,2.127 -5.183,0.971c-0.82,-0.607 -1.862,-0.904 -3.17,-0.904c-3.044,0 -3.662,-0.841 -5.682,-7.725c-0.589,-2.006 -1.17,-3.809 -1.291,-4.005c-0.271,-0.44 -1.156,0.998 -4.51,7.328c-3.252,6.139 -3.924,6.646 -8.566,6.461c-7.145,-0.284 -7.222,-2.767 -0.502,-16.222c7.702,-15.421 17.675,-29.954 22.676,-33.045c0.814,-0.503 3.658,-1.473 6.321,-2.155M339.79959,157.03337c4.705,-0.993 9.934,-1.071 11.667,-0.174c2.431,1.257 2.617,3.882 0.369,5.21c-0.762,0.451 -1.773,1.783 -2.573,3.39c-1.884,3.79 -4.135,5.328 -7.797,5.328c-1.514,0 -1.764,0.376 -7.866,11.803c-10.202,19.104 -14.327,25.863 -16.649,27.278c-3.294,2.009 -8.442,0.609 -8.442,-2.295c0,-1.683 8.561,-21.839 12.274,-28.898l2.737,-5.203l-1.943,-0.219c-2.571,-0.289 -3.626,-1.282 -3.626,-3.412c0,-5.584 6.967,-9.668 21.849,-12.808M375.69058,156.91837c1.584,-0.857 5.437,-0.924 6.981,-0.12c9.455,4.919 2.323,29.682 -13.002,45.146c-15.171,15.308 -34.042,9.057 -29.226,-9.682c4.541,-17.675 19.112,-34.423 30.097,-34.595c2.646,-0.041 4.282,-0.279 5.15,-0.749M168.16559,157.51037c3.218,-0.839 9.47,-1.101 12.216,-0.512c4.935,1.058 0.783,9.651 -5.507,11.4c-1.33,0.37 -3.528,0.979 -4.885,1.354c-2.879,0.796 -5.561,3.267 -7.537,6.943c-1.637,3.046 -1.45,3.194 3.603,2.846c5.014,-0.345 5.101,-0.239 2.643,3.279c-2.287,3.274 -4.357,4.583 -8.642,5.467l-3.588,0.74l-1.823,2.575c-4.576,6.465 -4.446,6.784 2.686,6.597c6.089,-0.161 6.714,0.012 6.333,1.745c-0.174,0.792 -0.041,1.358 0.405,1.728c2.519,2.091 -3.227,6.702 -9.956,7.989c-6.782,1.298 -14.854,0.69 -17.159,-1.293l-1.169,-1.006l0.537,-3.13c1.434,-8.365 6.034,-18.614 13.314,-29.664c3.362,-5.103 4.574,-7.341 5.2,-9.598c1.06,-3.824 2.528,-4.645 13.329,-7.46M243.05859,156.85836c1.563,-0.607 6.706,-0.18 7.51,0.624c4.193,4.192 -5.905,15.476 -13.376,14.949l-2.003,-0.142l-1.383,2.361c-0.76,1.298 -2.14,3.277 -3.065,4.399l-1.683,2.038h3.873c4.276,0 4.762,0.3 4.762,2.934c0,1.001 -0.322,1.464 -1.506,2.162c-0.828,0.488 -1.722,1.364 -1.987,1.945c-0.679,1.489 -4.47,2.796 -8.186,2.82c-0.875,0.006 -1.802,0.252 -2.058,0.547c-0.747,0.861 -4.246,7.045 -6.612,11.686c-3.098,6.077 -8.393,8.432 -11.645,5.179c-1.753,-1.753 -1.895,-1.34 6.517,-19.021c3.625,-7.618 7.079,-15.013 7.677,-16.433c4.808,-11.423 7.859,-14.08 17.508,-15.248c2.875,-0.348 5.421,-0.708 5.657,-0.8M267.52158,157.29037c3.784,-0.95 11.455,-0.685 12.695,0.437c3.009,2.724 -2.487,10.167 -8.179,11.077c-5.166,0.826 -8.654,3.339 -11.158,8.037c-1.597,2.996 -1.448,3.098 3.915,2.693c4.212,-0.318 4.677,0.047 3.092,2.424c-2.577,3.863 -5.437,5.727 -9.92,6.468l-2.978,0.491l-2.171,3.274c-4.139,6.239 -4.202,6.117 3.116,6.033c2.833,-0.032 5.392,-0.038 5.687,-0.014c0.333,0.028 0.536,0.701 0.536,1.775c0,1.142 0.219,1.814 0.644,1.977c1.573,0.604 -1.391,4.356 -4.824,6.107c-6.529,3.331 -21.96,2.905 -23.309,-0.644c-1.658,-4.36 5.783,-21.775 15.161,-35.484c1.75,-2.559 2.84,-4.696 3.371,-6.608c1.17,-4.219 2.858,-5.167 14.322,-8.043M300.13959,158.49437c4.34,-1.406 10.895,-1.421 13.525,-0.029c8.354,4.417 2.815,19.86 -7.573,21.115c-3.965,0.479 -4.682,-0.593 -3.796,-5.681l0.318,-1.825h-1.401c-5.171,0 -15.589,12.223 -16.58,19.454c-0.693,5.06 2.9,7.061 7.567,4.213c3.69,-2.252 7.516,-1.031 7.104,2.267c-0.22,1.76 -0.136,2.372 0.385,2.804c4.474,3.712 -13.604,10.316 -22.268,8.134c-17.498,-4.405 -0.092,-43.058 22.719,-50.452M205.48459,166.88737c-1.218,-2.276 -4.465,0.901 -8.671,8.485c-1.121,2.022 -2.039,3.73 -2.039,3.796c0,0.437 5.24,-2.781 6.583,-4.043c2.211,-2.08 4.731,-7.109 4.127,-8.238M66.64258,167.52837c2.808,-1.223 8.437,-0.381 9.107,1.363c1.564,4.077 -15.285,34.214 -22.545,40.323c-2.636,2.218 -8.626,3.275 -9.894,1.747c-1.12,-1.349 -0.285,-6.477 1.42,-8.722c4.31,-5.675 8.065,-11.95 12.278,-20.514c4.801,-9.761 7.047,-13.07 9.634,-14.197M90.69758,167.52137c2.913,-1.274 8.405,-0.368 8.992,1.485c1.216,3.831 -12.812,29.895 -20.548,38.178c-5.246,5.618 -13.935,6.352 -12.345,1.043c0.266,-0.887 0.37,-2.049 0.231,-2.581c-0.196,-0.747 0.435,-1.869 2.77,-4.93c3.994,-5.237 7.218,-10.763 12.2,-20.916c4.214,-8.589 5.988,-11.092 8.7,-12.279M130.97559,170.68037c0.312,-2.226 0.31,-2.223 -3.363,3.433c-8.491,13.079 -8.373,12.824 -5.205,11.29c4.254,-2.059 7.598,-7.804 8.568,-14.723M370.65158,173.04037c0.502,-2.823 0.81,-2.986 -3.638,1.931c-11.135,12.312 -16.211,21.259 -14.542,25.63c0.901,2.359 1.281,2.395 3.672,0.348c5.67,-4.854 12.87,-18.703 14.508,-27.909M384.31859,203.58537c2.564,-0.945 9.225,-0.652 10.452,0.459c3.298,2.988 -2.782,9.234 -8.986,9.231c-7.327,-0.005 -8.406,-7.133 -1.466,-9.69M409.15258,203.26337c4.205,-1.109 10.515,0.314 10.515,2.372c0,5.132 -8.741,9.58 -13.742,6.993c-4.167,-2.154 -2.172,-7.941 3.227,-9.365" data-paper-data="{&quot;origPos&quot;:null}" id="path0" fill="#ffc500" fill-rule="evenodd" stroke="none" stroke-width="1"/></g></g></svg>