<svg viewBox="0,0,467.21955,276.45986" height="276.45986" width="467.21955" xmlns:xlink="http://www.w3.org/1999/xlink" xmlns="http://www.w3.org/2000/svg" version="1.1"><defs><radialGradient id="color-1" gradientUnits="userSpaceOnUse" r="233.04606" cy="209.01054" cx="237.60393"><stop stop-color="#eef099" offset="0"></stop><stop stop-color="#fdff5d" offset="1"></stop></radialGradient><linearGradient id="color-2" gradientUnits="userSpaceOnUse" y2="354.20356" x2="235.66633" y1="318.18262" x1="235.66633"><stop stop-color="#eff099" offset="0"></stop><stop stop-color="#fdff5d" offset="1"></stop></linearGradient></defs><g transform="translate(-4.55785,-77.99998)"><g style="mix-blend-mode: normal" stroke-dashoffset="0" stroke-dasharray="" stroke-miterlimit="10" stroke-linejoin="miter" fill-rule="nonzero" data-paper-data="{&quot;isPaintingLayer&quot;:true}"><path stroke-linecap="butt" stroke-width="0" stroke="#001026" fill="url(#color-1)" data-paper-data="{&quot;origPos&quot;:null}" d="M4.85619,283.17287c-0.10277,-57.18742 -0.68472,-89.35342 0.12534,-146.5352c0.38462,-27.14995 10.22613,-58.63769 40.87882,-58.63769c101.543,0 391.22515,10.06037 402.32478,13.16666c24.10979,6.74725 20.86492,62.29853 22.27587,99.78175c1.4504,38.53138 4.39311,106.11947 -9.09593,110.59451c-13.48904,4.47504 -138.23122,17.20083 -224.68449,24.20128c-79.56642,6.4428 -124.32767,13.57245 -204.14365,12.25581c-30.07935,-0.49619 -27.64087,-32.64958 -27.68072,-54.82712z"></path><path stroke-linecap="butt" stroke-width="0" stroke="#001026" fill="#032021" data-paper-data="{&quot;origRot&quot;:0,&quot;origPos&quot;:null}" d="M21.61056,104.50896c3.46692,0.22693 436.15742,17.88618 436.15742,17.88618l-0.32847,5.0498c0,0 -433.93382,-17.4644 -437.29326,-17.6827c0,0 0.30868,-5.32892 1.46431,-5.25328z"></path><path stroke-linecap="butt" stroke-width="0" stroke="#001026" fill="#032021" data-paper-data="{&quot;origRot&quot;:0,&quot;origPos&quot;:null,&quot;index&quot;:null}" d="M464.93315,274.40745l-0.16517,5.14766l-451.07882,32.88982l-0.33483,-5.14766z"></path><path stroke-linecap="butt" stroke-width="0" stroke="#001026" fill="#032021" data-paper-data="{&quot;origRot&quot;:0,&quot;origPos&quot;:null}" d="M19.02495,186.52164l0.08978,-4.9992l439.93427,-3.69169l-0.08978,4.9992z"></path><path stroke-linecap="butt" stroke-width="0" stroke="#001026" fill="#032021" data-paper-data="{&quot;origRot&quot;:0,&quot;origPos&quot;:null,&quot;index&quot;:null}" d="M463.70965,220.52244l0.08934,4.9992l-450.82755,6.30831l-0.08934,-4.9992z"></path><path stroke-linecap="butt" stroke-width="1.5" stroke="#001026" fill="none" d="M153.03697,115.1762z"></path><path stroke-linecap="round" stroke-width="0" stroke="#001026" fill="url(#color-2)" data-paper-data="{&quot;origPos&quot;:null,&quot;origRot&quot;:0}" d="M184.71605,327.74834c0,0 10.17632,16.1034 10.63361,16.41318c5.85293,3.96491 84.44727,-2.65298 87.82195,-6.28361c2.50344,-2.6933 4.55131,-18.01765 4.55131,-18.01765l24.00775,-1.17766c0,0 -16.46693,24.10194 -23.61039,27.11412c-22.757,9.59593 -79.01805,10.17578 -96.33358,6.76073c-8.73477,-1.30745 -30.68471,-23.45686 -30.68471,-23.45686z"></path></g></g></svg>