<svg version="1.1" xmlns="http://www.w3.org/2000/svg" xmlns:xlink="http://www.w3.org/1999/xlink" width="20.12002" height="27.57574" viewBox="0,0,20.12002,27.57574"><defs><linearGradient x1="240.0373" y1="178.10956" x2="240.388" y2="178.10956" gradientUnits="userSpaceOnUse" id="color-1"><stop offset="0" stop-color="#000000"/><stop offset="1" stop-color="#000000"/></linearGradient><linearGradient x1="240.00067" y1="175.5801" x2="240.00067" y2="184.26251" gradientUnits="userSpaceOnUse" id="color-2"><stop offset="0" stop-color="#ffffff"/><stop offset="1" stop-color="#ffffff" stop-opacity="0"/></linearGradient><linearGradient x1="213.65699" y1="176.14154" x2="333.66166" y2="191.25386" gradientUnits="userSpaceOnUse" id="color-3"><stop offset="0" stop-color="#000000"/><stop offset="1" stop-color="#000000"/></linearGradient></defs><g transform="translate(-229.94012,-167.32294)"><g data-paper-data="{&quot;isPaintingLayer&quot;:true}" stroke-linecap="butt" stroke-linejoin="miter" stroke-miterlimit="10" stroke-dasharray="" stroke-dashoffset="0" style="mix-blend-mode: normal"><path d="M229.94012,186.55563c0,-3.52213 0,-6.11861 0,-11.14145c0,-3.45285 3.01208,-4.99253 5.18816,-4.99253c0.70353,0 4.60897,0 4.60897,0l-0.0499,-3.09399l0.86314,-0.00472l0.02022,3.09871c0,0 3.64615,0 3.91162,0c3.05101,0 5.57781,1.76381 5.57781,5.40948c0,4.71499 0,6.56157 0,9.8906c0,4.44247 -6.50233,9.17695 -9.8136,9.17695c-3.39339,0 -10.30641,-4.11749 -10.30641,-8.34305z" fill-opacity="0.00806" fill="#efffff" fill-rule="nonzero" stroke="none" stroke-width="0"/><path d="M239.97889,174.65631v-4.18445h0.29679v4.18445z" fill="none" fill-rule="nonzero" stroke="#000000" stroke-width="0.5"/><path d="" fill="url(#color-1)" fill-rule="nonzero" stroke="#000000" stroke-width="0.5"/><path d="" fill-opacity="0.00806" fill="#efffff" fill-rule="nonzero" stroke="none" stroke-width="0"/><path d="M248.95463,183.69768c0.02427,3.21526 -1.67713,6.19673 -4.45766,7.81141c-2.78052,1.61468 -6.21329,1.61468 -8.99382,0c-2.78052,-1.61468 -4.48193,-4.59614 -4.45766,-7.81141c-0.02427,-3.21526 1.67713,-6.19673 4.45766,-7.81141c2.78052,-1.61468 6.21329,-1.61468 8.99382,0c2.78052,1.61468 4.48193,4.59614 4.45766,7.81141z" fill="#7200ff" fill-rule="evenodd" stroke="#000000" stroke-width="1"/><path d="M246.3882,180.44669c0,2.68787 -2.85979,4.86681 -6.38753,4.86681c-3.52774,0 -6.38753,-2.17895 -6.38753,-4.86681c0,-2.68787 2.85979,-4.86681 6.38753,-4.86681c3.52774,0 6.38753,2.17895 6.38753,4.86681z" fill="url(#color-2)" fill-rule="evenodd" stroke="none" stroke-width="1" opacity="0.75"/><path d="M238.94424,180.89717l-1.96786,0.61125c-0.19543,-0.13098 -0.3919,-0.31498 -0.58942,-0.552c-0.19543,-0.23494 -0.29315,-0.56239 -0.29315,-0.98237c0,-0.7859 0.47819,-1.33582 1.43458,-1.64976l2.20176,-0.74536h0.72664c0.56135,0 1.00628,0.16321 1.33478,0.48963c0.3285,0.3285 0.49274,0.77342 0.49274,1.33478v10.23849c-0.93079,0.16589 -2.04167,0.15593 -2.27037,0.1185c-0.2287,-0.0395 -0.42206,-0.11851 -0.58007,-0.23702c-0.15801,-0.11851 -0.27964,-0.2786 -0.36488,-0.48027c-0.08317,-0.20375 -0.12475,-0.46987 -0.12475,-0.79837z" fill="url(#color-3)" fill-rule="nonzero" stroke="none" stroke-width="1"/></g></g></svg>