<svg version="1.1" xmlns="http://www.w3.org/2000/svg" xmlns:xlink="http://www.w3.org/1999/xlink" width="27.45218" height="33.25" viewBox="0,0,27.45218,33.25"><g transform="translate(-226.27391,-163.375)"><g data-paper-data="{&quot;isPaintingLayer&quot;:true}" fill-rule="nonzero" stroke-linecap="butt" stroke-linejoin="miter" stroke-miterlimit="10" stroke-dasharray="" stroke-dashoffset="0" style="mix-blend-mode: normal"><path d="M226.27391,196.625v-33.25h27.45218v33.25z" fill="none" stroke="#000000" stroke-width="0"/><path d="M227.58929,193.31771c0,-2.25074 0,-16.31081 0,-26.75056c0,-0.70529 1.15456,-1.80723 1.89353,-1.80723c8.23134,0 18.94208,0 21.09178,0c0.71657,0 1.83611,0.9451 1.83611,1.55001c0,10.48994 0,24.47785 0,26.87916c0,0.80044 -1.27638,2.05102 -2.09333,2.05102c-2.45085,0 -12.86044,0 -21.09178,0c-0.63859,0 -1.63631,-1.17217 -1.63631,-1.92242z" data-paper-data="{&quot;origPos&quot;:null}" fill="#edb47e" stroke="#000000" stroke-width="1.5"/><g data-paper-data="{&quot;origPos&quot;:null}" fill="#000000"><path d="M239.67961,172.68083l0.89655,-0.03781l0.05145,18.9299l-0.89655,0.03781z" data-paper-data="{&quot;origPos&quot;:null,&quot;origRot&quot;:0}" stroke="#d1bd60" stroke-width="0.5"/><path d="M238.04528,169.63959c0.49912,-1.07956 1.7789,-1.5501 2.85846,-1.05098c1.07956,0.49912 1.5501,1.7789 1.05098,2.85846c-0.49912,1.07956 -1.7789,1.5501 -2.85846,1.05098c-1.07956,-0.49912 -1.5501,-1.7789 -1.05098,-2.85846z" data-paper-data="{&quot;origPos&quot;:null,&quot;origRot&quot;:0}" stroke="none" stroke-width="1"/></g></g></g></svg>