<svg version="1.1" xmlns="http://www.w3.org/2000/svg" xmlns:xlink="http://www.w3.org/1999/xlink" width="36.78065" height="31.75" viewBox="0,0,36.78065,31.75"><defs><linearGradient x1="-111.70214" y1="168.19789" x2="-111.70214" y2="192.1113" gradientUnits="userSpaceOnUse" id="color-1"><stop offset="0" stop-color="#69db0e"/><stop offset="1" stop-color="#397607"/></linearGradient><linearGradient x1="-69.88663" y1="191.38788" x2="-69.88663" y2="167.69424" gradientUnits="userSpaceOnUse" id="color-2"><stop offset="0" stop-color="#69db0e"/><stop offset="1" stop-color="#397607"/></linearGradient><linearGradient x1="-69.88663" y1="169.6011" x2="-69.88663" y2="190.67133" gradientUnits="userSpaceOnUse" id="color-3"><stop offset="0" stop-color="#69db0e"/><stop offset="1" stop-color="#397607"/></linearGradient><linearGradient x1="239.86558" y1="168.43066" x2="239.94192" y2="180.07806" gradientUnits="userSpaceOnUse" id="color-4"><stop offset="0" stop-color="#ffffff" stop-opacity="0.69072"/><stop offset="1" stop-color="#ffffff" stop-opacity="0"/></linearGradient><linearGradient x1="-119.20216" y1="168.19789" x2="-119.20216" y2="192.1113" gradientUnits="userSpaceOnUse" id="color-5"><stop offset="0" stop-color="#69db0e"/><stop offset="1" stop-color="#397607"/></linearGradient><linearGradient x1="-119.20216" y1="168.19789" x2="-119.20216" y2="192.1113" gradientUnits="userSpaceOnUse" id="color-6"><stop offset="0" stop-color="#69db0e"/><stop offset="1" stop-color="#397607"/></linearGradient><linearGradient x1="-77.38665" y1="191.38788" x2="-77.38665" y2="167.69424" gradientUnits="userSpaceOnUse" id="color-7"><stop offset="0" stop-color="#69db0e"/><stop offset="1" stop-color="#397607"/></linearGradient><linearGradient x1="-77.38665" y1="169.6011" x2="-77.38665" y2="190.67133" gradientUnits="userSpaceOnUse" id="color-8"><stop offset="0" stop-color="#69db0e"/><stop offset="1" stop-color="#397607"/></linearGradient><linearGradient x1="232.36556" y1="168.43066" x2="232.4419" y2="180.07806" gradientUnits="userSpaceOnUse" id="color-9"><stop offset="0" stop-color="#ffffff" stop-opacity="0.69072"/><stop offset="1" stop-color="#ffffff" stop-opacity="0"/></linearGradient><linearGradient x1="-77.38665" y1="191.38788" x2="-77.38665" y2="167.69424" gradientUnits="userSpaceOnUse" id="color-10"><stop offset="0" stop-color="#69db0e"/><stop offset="1" stop-color="#397607"/></linearGradient><linearGradient x1="-77.38665" y1="169.6011" x2="-77.38665" y2="190.67133" gradientUnits="userSpaceOnUse" id="color-11"><stop offset="0" stop-color="#69db0e"/><stop offset="1" stop-color="#397607"/></linearGradient><linearGradient x1="232.36556" y1="168.43066" x2="232.4419" y2="180.07806" gradientUnits="userSpaceOnUse" id="color-12"><stop offset="0" stop-color="#ffffff" stop-opacity="0.69072"/><stop offset="1" stop-color="#ffffff" stop-opacity="0"/></linearGradient></defs><g transform="translate(-217.90569,-164.62985)"><g data-paper-data="{&quot;isPaintingLayer&quot;:true}" stroke-miterlimit="10" stroke-dasharray="" stroke-dashoffset="0" style="mix-blend-mode: normal"><path d="M217.90569,196.37986v-31.75h36.78065v31.75z" fill="none" fill-rule="nonzero" stroke="none" stroke-width="0" stroke-linecap="butt" stroke-linejoin="miter"/><path d="M253.96866,180.00001c0.03478,5.0136 -2.62001,9.66131 -6.9562,12.1782c-4.3362,2.51689 -9.68867,2.51689 -14.02488,0c-4.3362,-2.51689 -6.99098,-7.1646 -6.9562,-12.1782c-0.03478,-5.0136 2.62001,-9.66131 6.9562,-12.1782c4.3362,-2.51689 9.68867,-2.51689 14.02488,0c4.3362,2.51689 6.99098,7.1646 6.9562,12.1782z" fill="#383838" fill-rule="nonzero" stroke="url(#color-1)" stroke-width="0" stroke-linecap="round" stroke-linejoin="round"/><g><path d="M252.30786,180.00001c0.03064,4.41751 -2.3085,8.51263 -6.12914,10.73028c-3.82065,2.21765 -8.53675,2.21765 -12.3574,0c-3.82065,-2.21765 -6.15979,-6.31277 -6.12915,-10.73028c-0.03064,-4.41751 2.3085,-8.51263 6.12915,-10.73028c3.82065,-2.21765 8.53675,-2.21765 12.3574,0c3.82065,2.21765 6.15978,6.31277 6.12914,10.73028z" fill="url(#color-2)" fill-rule="nonzero" stroke="url(#color-3)" stroke-width="1.3644" stroke-linecap="round" stroke-linejoin="round"/><path d="M248.93603,176.75766c-0.27918,0.13956 -1.3801,-1.15908 -3.34145,-0.8554c-1.75954,0.27247 -6.22477,2.14707 -9.87527,1.11726c-2.26737,-0.63306 -4.65031,-0.96031 -4.65031,-0.96031c-1.38204,-0.13187 0.39819,-7.3489 9.09634,-7.30448c7.969,0.04201 11.63849,7.94011 8.77055,8.00261z" fill="url(#color-4)" fill-rule="evenodd" stroke="none" stroke-width="1" stroke-linecap="butt" stroke-linejoin="miter" opacity="0.9"/></g><path d="M246.46864,180.00001c0.03478,5.0136 -2.62001,9.66131 -6.9562,12.1782c-4.3362,2.51689 -9.68867,2.51689 -14.02488,0c-4.3362,-2.51689 -6.99098,-7.1646 -6.9562,-12.1782c-0.03478,-5.0136 2.62001,-9.66131 6.9562,-12.1782c4.3362,-2.51689 9.68867,-2.51689 14.02488,0c4.3362,2.51689 6.99098,7.1646 6.9562,12.1782z" fill="#383838" fill-rule="nonzero" stroke="url(#color-5)" stroke-width="0" stroke-linecap="round" stroke-linejoin="round"/><path d="M246.46864,180.00001c0.03478,5.0136 -2.62001,9.66131 -6.9562,12.1782c-4.3362,2.51689 -9.68867,2.51689 -14.02488,0c-4.3362,-2.51689 -6.99098,-7.1646 -6.9562,-12.1782c-0.03478,-5.0136 2.62001,-9.66131 6.9562,-12.1782c4.3362,-2.51689 9.68867,-2.51689 14.02488,0c4.3362,2.51689 6.99098,7.1646 6.9562,12.1782z" fill="#383838" fill-rule="nonzero" stroke="url(#color-6)" stroke-width="0" stroke-linecap="round" stroke-linejoin="round"/><g><path d="M244.80784,180.00001c0.03064,4.41751 -2.3085,8.51263 -6.12914,10.73028c-3.82065,2.21765 -8.53675,2.21765 -12.3574,0c-3.82065,-2.21765 -6.15979,-6.31277 -6.12915,-10.73028c-0.03064,-4.41751 2.3085,-8.51263 6.12915,-10.73028c3.82065,-2.21765 8.53675,-2.21765 12.3574,0c3.82065,2.21765 6.15978,6.31277 6.12914,10.73028z" fill="url(#color-7)" fill-rule="nonzero" stroke="url(#color-8)" stroke-width="1.3644" stroke-linecap="round" stroke-linejoin="round"/><path d="M241.43601,176.75766c-0.27918,0.13956 -1.3801,-1.15908 -3.34145,-0.8554c-1.75954,0.27247 -6.22477,2.14707 -9.87527,1.11726c-2.26737,-0.63306 -4.65031,-0.96031 -4.65031,-0.96031c-1.38204,-0.13187 0.39819,-7.3489 9.09634,-7.30448c7.969,0.04201 11.63849,7.94011 8.77055,8.00261z" fill="url(#color-9)" fill-rule="evenodd" stroke="none" stroke-width="1" stroke-linecap="butt" stroke-linejoin="miter" opacity="0.9"/></g><g><path d="M244.80784,180.00001c0.03064,4.41751 -2.3085,8.51263 -6.12914,10.73028c-3.82065,2.21765 -8.53675,2.21765 -12.3574,0c-3.82065,-2.21765 -6.15979,-6.31277 -6.12915,-10.73028c-0.03064,-4.41751 2.3085,-8.51263 6.12915,-10.73028c3.82065,-2.21765 8.53675,-2.21765 12.3574,0c3.82065,2.21765 6.15978,6.31277 6.12914,10.73028z" fill="url(#color-10)" fill-rule="nonzero" stroke="url(#color-11)" stroke-width="1.3644" stroke-linecap="round" stroke-linejoin="round"/><path d="M241.43601,176.75766c-0.27918,0.13956 -1.3801,-1.15908 -3.34145,-0.8554c-1.75954,0.27247 -6.22477,2.14707 -9.87527,1.11726c-2.26737,-0.63306 -4.65031,-0.96031 -4.65031,-0.96031c-1.38204,-0.13187 0.39819,-7.3489 9.09634,-7.30448c7.969,0.04201 11.63849,7.94011 8.77055,8.00261z" fill="url(#color-12)" fill-rule="evenodd" stroke="none" stroke-width="1" stroke-linecap="butt" stroke-linejoin="miter" opacity="0.9"/></g><g fill="#383838" fill-rule="nonzero" stroke="none" stroke-width="1" stroke-linecap="butt" stroke-linejoin="miter"><path d="M233.52786,180.2083l1.07726,1.07725l-0.95612,0.95605l-1.07719,-1.07726c-2.07766,1.60717 -5.0731,1.46215 -6.97946,-0.4442c-2.06864,-2.06864 -2.0686,-5.4226 0.00003,-7.49128c2.06864,-2.06868 5.42261,-2.06871 7.49128,-0.00003c1.90635,1.90635 2.05133,4.90183 0.44419,6.97946zM232.40418,173.90834c-1.69341,-1.69341 -4.43888,-1.69341 -6.13233,0c-1.69344,1.69341 -1.69345,4.43899 -0.00007,6.13241c1.69344,1.69341 4.43903,1.69341 6.13244,0c1.69341,-1.69341 1.69341,-4.43899 -0.00003,-6.13241z"/><path d="M235.07736,180.8219l5.82517,5.82517c0.40536,0.40541 -1.48659,2.29735 -1.89195,1.89195l-5.8252,-5.82517c-0.08918,-0.08918 -0.08918,-0.23372 0,-0.32294l1.56904,-1.56901c0.08921,-0.08918 0.23376,-0.08918 0.32294,0z"/></g><path d="M233.51868,179.63257l1.03903,1.03902l-0.92219,0.92212l-1.03895,-1.03901c-2.00392,1.55013 -4.89306,1.41026 -6.73174,-0.42843c-1.99521,-1.99522 -1.99519,-5.23015 0.00003,-7.22539c1.99522,-1.99525 5.23015,-1.99528 7.2254,-0.00003c1.83868,1.83868 1.97852,4.72785 0.42843,6.73174zM232.43488,173.55621c-1.63331,-1.63331 -4.28134,-1.63331 -5.91468,0c-1.63334,1.63331 -1.63334,4.28144 -0.00007,5.91475c1.63334,1.63331 4.28148,1.63331 5.91478,0c1.63331,-1.63331 1.63331,-4.28144 -0.00003,-5.91475z" fill="#3a556a" fill-rule="nonzero" stroke="none" stroke-width="1" stroke-linecap="butt" stroke-linejoin="miter"/><path d="M225.19583,176.5283c0,-2.3635 1.916,-4.27949 4.27949,-4.27949c2.3635,0 4.27949,1.91599 4.27949,4.27949c0,2.3635 -1.91599,4.27949 -4.27949,4.27949c-2.3635,0 -4.27949,-1.91599 -4.27949,-4.27949z" fill="#29a7e1" fill-rule="nonzero" stroke="none" stroke-width="0" stroke-linecap="butt" stroke-linejoin="miter"/><path d="M226.0291,176.0369c0.06742,-0.76981 0.39452,-1.52116 0.98367,-2.11034c1.33066,-1.33062 3.48801,-1.3306 4.81864,0c0.41921,0.41921 0.70571,0.92064 0.86079,1.45229c-0.16807,-0.37419 -0.40121,-0.72549 -0.70772,-1.03195c-1.37339,-1.37346 -3.61846,-1.35521 -5.01438,0.04074c-0.47406,0.47403 -0.78524,1.04673 -0.94099,1.64925z" fill="#ffffff" fill-rule="nonzero" stroke="none" stroke-width="1" stroke-linecap="butt" stroke-linejoin="miter" opacity="0.5"/><path d="M235.01318,180.2244l5.61841,5.61841c0.39098,0.39102 -1.43382,2.21583 -1.8248,1.82481l-5.61845,-5.61842c-0.08602,-0.08602 -0.08602,-0.22544 0,-0.31148l1.51335,-1.51332c0.08605,-0.08602 0.22547,-0.08602 0.31148,0z" fill="#8f2f15" fill-rule="nonzero" stroke="none" stroke-width="1" stroke-linecap="butt" stroke-linejoin="miter"/><g fill="#ebf0f3" fill-rule="nonzero" stroke="none" stroke-width="1" stroke-linecap="butt" stroke-linejoin="miter"><path d="M240.08704,185.2983l0.30979,0.30978l-1.82479,1.82478l-0.30978,-0.30978z"/><path d="M235.29455,180.50486l0.30978,0.30979l-1.82478,1.82478l-0.30978,-0.30978z"/></g></g></g></svg>