<svg version="1.1" xmlns="http://www.w3.org/2000/svg" xmlns:xlink="http://www.w3.org/1999/xlink" width="97.41344" height="23.82409" viewBox="0,0,97.41344,23.82409"><defs><linearGradient x1="191.54328" y1="179.99999" x2="288.45672" y2="179.99999" gradientUnits="userSpaceOnUse" id="color-1"><stop offset="0" stop-color="#6b6b6b"/><stop offset="1" stop-color="#000000" stop-opacity="0.05119"/></linearGradient></defs><g transform="translate(-191.29328,-168.08794)"><g data-paper-data="{&quot;isPaintingLayer&quot;:true}" fill-rule="nonzero" stroke-linejoin="miter" stroke-miterlimit="10" stroke-dasharray="" stroke-dashoffset="0" style="mix-blend-mode: normal"><path d="M191.54328,188.67818c0,-4.97317 0,-14.68206 0,-17.42169c0,-1.41178 1.24313,-2.91855 2.87404,-2.91855c8.29249,0 76.14508,0 91.12144,0c1.8721,0 2.91796,1.44675 2.91796,2.81687c0,2.71704 0,12.51775 0,17.52191c0,1.80452 -1.06204,2.98532 -2.8937,2.98532c-14.83904,0 -82.78487,0 -91.1196,0c-1.64458,0 -2.90014,-1.18061 -2.90014,-2.98385z" fill="url(#color-1)" stroke="#000000" stroke-width="0.5" stroke-linecap="butt"/><path d="M226.24409,171.50131c0,0 25.77483,7.77824 27.1738,8.23168c0.46634,0.15113 0.42783,0.62349 0.02123,0.75572c-1.31955,0.42917 -27.16746,8.00997 -27.16746,8.00997z" fill="#bd1900" stroke="#a30000" stroke-width="1" stroke-linecap="round"/></g></g></svg>