<svg version="1.1" xmlns="http://www.w3.org/2000/svg" xmlns:xlink="http://www.w3.org/1999/xlink" width="57.17229" height="54.672" viewBox="0,0,57.17229,54.672"><defs><linearGradient x1="211.41442" y1="180.0002" x2="268.58608" y2="180.0002" gradientUnits="userSpaceOnUse" id="color-1"><stop offset="0.012" stop-color="#66b3e3"/><stop offset="1" stop-color="#1c75bc"/></linearGradient></defs><g transform="translate(-211.41385,-152.664)"><g data-paper-data="{&quot;isPaintingLayer&quot;:true}" fill-rule="nonzero" stroke="none" stroke-linecap="butt" stroke-linejoin="miter" stroke-miterlimit="10" stroke-dasharray="" stroke-dashoffset="0" style="mix-blend-mode: normal"><g stroke-width="1"><path d="M268.58614,198.731c0,4.752 -2.42131,8.605 -5.40618,8.605h-46.36056c-2.98549,0 -5.40555,-3.854 -5.40555,-8.605v-37.463c0,-4.752 2.42006,-8.604 5.40555,-8.604h46.35993c2.98675,0 5.40618,3.852 5.40618,8.604v37.463z" fill="url(#color-1)"/><path d="M266.44063,161.268v37.462c0,2.862 -1.46196,5.19 -3.2613,5.19h-46.35993c-1.79745,0 -3.26067,-2.328 -3.26067,-5.19v-37.463c0,-2.862 1.46322,-5.19 3.26067,-5.19h46.35993c1.79934,0 3.2613,2.329 3.2613,5.191z" fill="#27aae1"/></g><path d="M230.1033,189.8967v-19.7934h19.7934v19.7934z" fill="#ffffff" stroke-width="0"/></g></g></svg>