<svg version="1.1" xmlns="http://www.w3.org/2000/svg" xmlns:xlink="http://www.w3.org/1999/xlink" width="496.05513" height="361.86555"><defs><radialGradient cx="240.00001" cy="180.00001" r="248.02757" gradientUnits="userSpaceOnUse" id="color-1"><stop offset="0" stop-color="#919191" stop-opacity="0"/><stop offset="1" stop-color="#919191"/></radialGradient></defs><g transform="translate(8.02757,0.93277)"><g data-paper-data="{&quot;isPaintingLayer&quot;:true}" fill="none" fill-rule="none" stroke="none" stroke-width="none" stroke-linecap="butt" stroke-linejoin="miter" stroke-miterlimit="10" stroke-dasharray="" stroke-dashoffset="0" font-family="none" font-weight="none" font-size="none" text-anchor="none" style="mix-blend-mode: normal"><path d="M-8.02757,360.93278v-361.86555h496.05513v361.86555z" data-paper-data="{&quot;origPos&quot;:null}" fill="url(#color-1)" fill-rule="nonzero" stroke="none" stroke-width="NaN"/><path d="M292.81492,118.70354c0.21242,-0.34401 1.63358,-0.54515 3.15813,-0.44646c4.52477,0.29232 4.28133,1.40706 -4.01064,18.33407c-3.92322,8.01 -8.31077,17.50788 -9.74885,21.10778c-3.15343,7.88969 -4.73438,9.38416 -9.6229,9.09842c-2.58102,-0.15133 -3.02184,-0.35905 -3.18445,-1.50199l-0.18798,-1.32717l-1.79149,1.32435c-4.27099,3.15813 -13.04702,1.8601 -15.79441,-2.33476c-4.91954,-7.51278 11.54785,-43.62919 19.89152,-43.62919c4.6808,0 5.45341,3.11301 2.22949,8.98563c-8.74125,15.9213 -11.55349,23.69255 -7.06538,19.52119c2.16557,-2.01237 10.61075,-13.34498 15.36675,-20.61996c4.40258,-6.73546 5.63764,-7.88687 8.45834,-7.88687c1.05365,0 2.08944,-0.28198 2.30186,-0.62505M183.13569,119.91885c4.51913,-1.62606 12.56391,-1.62324 15.23422,0.00564c3.84897,2.34604 3.87529,6.33976 0.05076,7.67256c-0.93428,0.32615 -1.69937,1.00101 -1.69937,1.50105c0,1.32153 -3.11677,2.72201 -6.06718,2.72577c-8.09177,0.01128 -10.83069,4.33491 -5.83502,9.21309c5.86698,5.72881 5.18366,12.45582 -1.99357,19.6274c-10.7978,10.79028 -32.68007,8.59838 -26.84223,-2.68911c1.10347,-2.1355 2.92033,-2.64963 7.32855,-2.07628c4.92048,0.63915 6.3125,0.5038 9.02135,-0.87788c3.53974,-1.80559 3.5435,-2.55282 0.03478,-6.26268c-9.52797,-10.07406 -4.58305,-23.31659 10.76772,-28.83955M214.85422,121.10221c3.44857,-3.44951 8.3634,-1.87984 6.82006,2.17779c-0.34495,0.90796 -4.55203,9.1567 -9.34938,18.33219c-4.79735,9.17456 -9.40014,18.01074 -10.22915,19.63586c-2.16557,4.24562 -4.56707,5.67148 -9.55334,5.67148c-7.2449,0 -7.2026,-0.29325 2.70697,-18.85667c10.74422,-20.12744 12.08455,-22.22722 15.21072,-23.8373c1.4409,-0.74254 3.41849,-2.14772 4.39412,-3.12335M313.14914,120.84937c6.29276,-1.72663 15.61489,-2.0885 16.8067,-0.65324c2.6158,3.15249 -2.48139,8.80047 -9.4133,10.43029c-3.65347,0.85909 -6.73734,3.2634 -8.42262,6.56722c-1.44466,2.83198 -1.1608,3.04816 3.38653,2.58196c4.07643,-0.41732 4.17136,-0.35153 2.92221,2.03963c-1.54711,2.96169 -4.28791,4.98439 -8.19234,6.04556c-3.43729,0.93334 -3.9486,1.29239 -5.98917,4.19204c-3.45326,4.91108 -3.53974,4.82273 4.90826,4.97969c3.43259,0.06297 3.87059,0.2049 3.90349,1.26137c0.01974,0.65418 0.24908,1.65802 0.50944,2.23043c2.28118,5.01823 -15.68256,10.10038 -23.76587,6.72231c-4.72592,-1.97383 -0.20208,-16.17226 10.22257,-32.08228c2.15336,-3.28784 4.29449,-7.25336 4.75787,-8.81457c0.98222,-3.30382 1.42398,-3.59519 8.36622,-5.50041M238.95846,121.043c13.53954,-4.36875 22.01856,3.43071 15.45792,14.2191c-2.90999,4.78513 -10.075,5.85664 -10.8025,1.61572c-1.09971,-6.41589 -18.9328,8.29949 -18.9328,15.62334c0,2.91563 4.11215,4.61031 8.22242,3.38841c3.24742,-0.9653 8.04571,-4.52195 5.45999,-4.04823c-2.30938,0.4239 -6.64147,-2.98706 -6.00891,-4.73156c1.28017,-3.5341 12.74155,-6.15365 16.40818,-3.75028c3.43353,2.24923 0.88634,10.67091 -4.7278,15.63086c-10.7273,9.47627 -28.43445,11.79505 -32.03998,4.19674c-5.62636,-11.85709 10.3128,-36.7706 26.96347,-42.14412M82.56711,193.08032c12.58552,-6.68001 19.47044,0.50944 14.53586,15.17782c-4.87536,14.4898 -15.12895,21.89919 -24.76594,17.89419c-0.751,-0.31299 -1.39954,0.7557 -3.16377,5.21279c-3.05944,7.73178 -5.52297,9.91521 -11.18598,9.91521c-7.22328,0 -7.47894,-2.47481 -1.48037,-14.32532c10.03082,-19.81727 17.24659,-29.19672 26.06021,-33.8747M118.79161,192.42989c6.33506,-1.71817 11.01774,-1.49729 13.1335,0.61847c5.6508,5.6508 -2.36766,21.95088 -13.59688,27.6421c-1.70877,0.86473 -3.10549,1.64768 -3.10549,1.73885c0,0.09117 1.20404,2.50677 2.67689,5.36882c3.00116,5.8322 3.22016,7.27686 1.44372,9.53454c-1.27547,1.6223 -4.82649,2.23795 -5.6085,0.97282c-0.20208,-0.32709 -1.24727,-0.59497 -2.32254,-0.59497c-2.59136,0 -3.5482,-1.20122 -5.13102,-6.44127c-1.50575,-4.98721 -1.42398,-5.01353 -4.75881,1.54899c-3.38935,6.66873 -8.00436,8.79013 -12.40976,5.70343c-2.8442,-1.99169 2.36954,-14.5086 12.48777,-29.97968c7.49868,-11.46608 10.52898,-14.30652 17.19113,-16.1121M221.40922,192.26165c9.94905,-2.378 17.28606,-0.03948 13.07804,4.1676c-0.81679,0.81679 -2.02177,2.53872 -2.67877,3.82547c-1.4268,2.7972 -3.03782,3.95142 -6.23449,4.46462l-2.37988,0.38161l-6.09632,11.39747c-13.24535,24.7603 -15.59139,27.38456 -21.60499,24.16533c-2.18907,-1.17114 2.22009,-13.84972 9.8654,-28.36583l2.57538,-4.88946l-2.05278,-0.38537c-1.18148,-0.22182 -2.33006,-0.9042 -2.70697,-1.60726c-0.61565,-1.14952 -0.72186,-1.08467 -1.77269,1.07621c-2.26145,4.6479 -5.43931,6.53432 -10.33066,6.13204l-2.37988,-0.19644l0.12971,-3.12241c0.20208,-4.86126 -3.15625,-3.67415 -9.46687,3.34517c-7.68102,8.54293 -8.45834,19.04089 -1.16268,15.70606c1.19464,-0.54609 3.50966,-1.00759 5.14606,-1.02451l2.97485,-0.03196v2.18061c0,1.19934 0.2002,2.38176 0.44552,2.62708c4.30483,4.31329 -15.2408,10.44721 -22.11725,6.94037c-11.74994,-5.99105 0.43518,-35.5769 18.10943,-43.97038c10.58819,-5.02857 20.51563,-2.90999 20.51563,4.37721c0,1.50575 0.0329,1.49447 2.5735,-0.84781c2.62238,-2.41747 7.56353,-4.43078 15.57071,-6.3454M417.42476,191.90448c0.49064,-0.31675 2.02553,-0.58087 3.41097,-0.58557c12.39472,-0.04512 7.18945,25.68894 -8.49029,41.97493c-14.0659,14.60823 -31.93471,8.75911 -27.32346,-8.94428c4.2334,-16.25309 17.88197,-31.83414 27.90903,-31.85952c1.98041,-0.0047 4.00218,-0.26882 4.49376,-0.58557M155.37705,193.01452c5.22407,-2.37988 11.15027,-0.75288 9.8372,2.70039c-0.40605,1.06869 -0.32521,1.64016 0.30829,2.16557c1.29427,1.07433 1.15046,1.74355 -2.73893,12.71993c-10.90401,30.76639 -10.34664,29.76538 -16.33016,29.37719c-4.00688,-0.25942 -4.4524,-1.20968 -2.863,-6.09726l1.26137,-3.88187l-3.36303,1.77269c-1.84976,0.9747 -3.78694,1.77363 -4.30483,1.77363c-0.5179,0.00094 -1.82062,1.09501 -2.89401,2.43157c-4.74377,5.9027 -11.92852,6.60482 -11.92852,1.16644c0,-7.76468 24.20387,-40.11483 33.01562,-44.12829M246.60753,193.67717c2.11764,-2.86488 7.22328,-2.3263 7.22328,0.76227c0,1.2219 -20.38498,40.52934 -21.93208,42.29074c-1.64486,1.87232 -4.04541,2.76524 -7.43664,2.76524c-7.08887,0 -6.99676,-0.89668 1.80747,-17.5248c11.49992,-21.71966 13.46341,-24.68511 17.14601,-25.90043c1.03485,-0.34119 2.47105,-1.41834 3.19197,-2.39304M306.95131,192.69307c5.02857,-1.8413 9.57778,-0.51038 9.26385,2.71073c-0.08365,0.85627 0.18704,2.17873 0.60155,2.93819c0.53857,0.98598 0.58557,1.83566 0.16637,2.97391c-0.32239,0.87695 -2.72201,7.61711 -5.33216,14.97856c-8.63316,24.34862 -8.31923,23.79595 -13.5245,23.79595c-4.95432,0 -5.50793,-0.81397 -3.84145,-5.65644c1.47097,-4.27475 1.31307,-4.443 -2.31032,-2.47105c-1.59974,0.87131 -3.3292,1.58376 -3.84145,1.58376c-0.5132,0 -1.80277,1.08185 -2.86581,2.40525c-4.79641,5.96849 -11.80539,6.66685 -11.80539,1.17678c0,-8.31547 24.83268,-41.26529 33.48934,-44.43564M364.98195,193.1057c8.72057,-4.60655 21.66045,3.70892 21.73564,13.96815c0.09493,12.96713 -15.16184,30.63668 -26.45122,30.63668c-2.23043,0 -3.21922,0.32897 -4.46932,1.48695c-2.26709,2.10166 -6.80502,2.11576 -8.89352,0.02726c-3.57545,-3.57545 -1.46721,-10.52428 9.85694,-32.48174c2.11858,-4.10933 4.34619,-8.59932 4.94962,-9.97913c0.74348,-1.70219 1.79619,-2.87803 3.27186,-3.65817M271.38005,193.33504c6.5033,-2.06594 14.41179,-0.52729 15.77937,3.06978c2.80378,7.37555 -3.64877,16.69203 -11.22264,16.20233l-2.77182,-0.17952l0.12877,-3.12241c0.20208,-4.86126 -3.15531,-3.67415 -9.46687,3.34517c-7.68102,8.54293 -8.45834,19.04089 -1.16268,15.70606c1.19464,-0.54609 3.5106,-1.00759 5.14606,-1.02451l2.97485,-0.03196v2.18061c0,1.19934 0.20114,2.38176 0.44646,2.62708c4.30389,4.31329 -15.2408,10.44721 -22.11725,6.94037c-13.20211,-6.7317 2.769,-39.5208 22.26576,-45.71299M347.97222,195.49121c3.43071,-1.96819 9.36912,-2.61392 9.36912,-1.01887c0,3.46548 -1.56967,8.25061 -3.84051,11.70952c-1.39578,2.12704 -5.09436,8.58523 -8.21866,14.35257c-9.00537,16.62342 -10.01766,17.725 -16.3264,17.7579c-3.37995,0.01786 -3.73618,-0.83935 -3.75028,-9.01947l-0.01034,-6.7317l-2.5171,4.64038c-2.92597,5.39326 -6.02207,9.43021 -8.26095,10.77242c-1.98417,1.18994 -6.95823,1.27359 -7.39905,0.12501c-1.16832,-3.04346 13.55082,-33.78917 18.72132,-39.10536c6.73076,-6.92251 10.02048,-4.58493 10.14173,7.20824l0.05264,5.05677l3.06978,-4.75975c1.6881,-2.61674 3.69388,-5.75701 4.45804,-6.97796c0.79517,-1.27077 2.72295,-2.98424 4.51067,-4.0097M122.04938,201.40049c-1.11662,-1.80747 -3.91477,0.83183 -7.13399,6.73264l-2.20129,4.0332l2.29528,-1.30931c4.00406,-2.28588 8.08519,-7.76656 7.04,-9.45653M84.30502,207.89721c1.26231,-5.26167 0.88728,-4.89886 -5.46187,5.27483c-3.64783,5.8463 -3.6967,6.17527 -0.64009,4.31141c2.47575,-1.50951 5.18554,-5.76641 6.10196,-9.58624M373.9563,208.50346c-2.81318,-3.95048 -3.17975,-3.71362 -7.16689,4.64508c-1.99639,4.18452 -4.40728,9.70185 -5.35848,12.26031l-1.72851,4.6526l3.09328,-1.67776c9.3616,-5.07933 14.80091,-14.76802 11.16061,-19.88024M412.10294,208.9847c1.01605,-4.04729 0.61847,-3.94766 -3.60177,0.9089c-9.67459,11.12865 -13.69087,18.64801 -12.13154,22.71222c1.79807,4.68456 12.76129,-11.77531 15.73331,-23.62112M148.66038,217.6329c2.8536,-8.60308 2.76712,-8.60872 -2.34792,-0.14851c-4.14881,6.86329 -4.06233,6.54372 -1.76987,6.54372h1.99639l2.1214,-6.39521M299.68385,217.47405c1.17208,-3.59331 2.08286,-6.53338 2.02647,-6.53338c-0.55079,0 -8.02221,11.96518 -8.02221,12.84588c0,0.13347 0.87037,0.23686 1.93341,0.23122c1.93247,-0.01128 1.93435,-0.01316 4.06233,-6.54372" data-paper-data="{&quot;origPos&quot;:null}" id="path0" fill="#003aff" fill-rule="evenodd" stroke="#ffffff" stroke-width="11"/><path d="M292.81492,118.70354c0.21242,-0.34401 1.63358,-0.54515 3.15813,-0.44646c4.52477,0.29232 4.28133,1.40706 -4.01064,18.33407c-3.92322,8.01 -8.31077,17.50788 -9.74885,21.10778c-3.15343,7.88969 -4.73438,9.38416 -9.6229,9.09842c-2.58102,-0.15133 -3.02184,-0.35905 -3.18445,-1.50199l-0.18798,-1.32717l-1.79149,1.32435c-4.27099,3.15813 -13.04702,1.8601 -15.79441,-2.33476c-4.91954,-7.51278 11.54785,-43.62919 19.89152,-43.62919c4.6808,0 5.45341,3.11301 2.22949,8.98563c-8.74125,15.9213 -11.55349,23.69255 -7.06538,19.52119c2.16557,-2.01237 10.61075,-13.34498 15.36675,-20.61996c4.40258,-6.73546 5.63764,-7.88687 8.45834,-7.88687c1.05365,0 2.08944,-0.28198 2.30186,-0.62505M183.13569,119.91885c4.51913,-1.62606 12.56391,-1.62324 15.23422,0.00564c3.84897,2.34604 3.87529,6.33976 0.05076,7.67256c-0.93428,0.32615 -1.69937,1.00101 -1.69937,1.50105c0,1.32153 -3.11677,2.72201 -6.06718,2.72577c-8.09177,0.01128 -10.83069,4.33491 -5.83502,9.21309c5.86698,5.72881 5.18366,12.45582 -1.99357,19.6274c-10.7978,10.79028 -32.68007,8.59838 -26.84223,-2.68911c1.10347,-2.1355 2.92033,-2.64963 7.32855,-2.07628c4.92048,0.63915 6.3125,0.5038 9.02135,-0.87788c3.53974,-1.80559 3.5435,-2.55282 0.03478,-6.26268c-9.52797,-10.07406 -4.58305,-23.31659 10.76772,-28.83955M214.85422,121.10221c3.44857,-3.44951 8.3634,-1.87984 6.82006,2.17779c-0.34495,0.90796 -4.55203,9.1567 -9.34938,18.33219c-4.79735,9.17456 -9.40014,18.01074 -10.22915,19.63586c-2.16557,4.24562 -4.56707,5.67148 -9.55334,5.67148c-7.2449,0 -7.2026,-0.29325 2.70697,-18.85667c10.74422,-20.12744 12.08455,-22.22722 15.21072,-23.8373c1.4409,-0.74254 3.41849,-2.14772 4.39412,-3.12335M313.14914,120.84937c6.29276,-1.72663 15.61489,-2.0885 16.8067,-0.65324c2.6158,3.15249 -2.48139,8.80047 -9.4133,10.43029c-3.65347,0.85909 -6.73734,3.2634 -8.42262,6.56722c-1.44466,2.83198 -1.1608,3.04816 3.38653,2.58196c4.07643,-0.41732 4.17136,-0.35153 2.92221,2.03963c-1.54711,2.96169 -4.28791,4.98439 -8.19234,6.04556c-3.43729,0.93334 -3.9486,1.29239 -5.98917,4.19204c-3.45326,4.91108 -3.53974,4.82273 4.90826,4.97969c3.43259,0.06297 3.87059,0.2049 3.90349,1.26137c0.01974,0.65418 0.24908,1.65802 0.50944,2.23043c2.28118,5.01823 -15.68256,10.10038 -23.76587,6.72231c-4.72592,-1.97383 -0.20208,-16.17226 10.22257,-32.08228c2.15336,-3.28784 4.29449,-7.25336 4.75787,-8.81457c0.98222,-3.30382 1.42398,-3.59519 8.36622,-5.50041M238.95846,121.043c13.53954,-4.36875 22.01856,3.43071 15.45792,14.2191c-2.90999,4.78513 -10.075,5.85664 -10.8025,1.61572c-1.09971,-6.41589 -18.9328,8.29949 -18.9328,15.62334c0,2.91563 4.11215,4.61031 8.22242,3.38841c3.24742,-0.9653 8.04571,-4.52195 5.45999,-4.04823c-2.30938,0.4239 -6.64147,-2.98706 -6.00891,-4.73156c1.28017,-3.5341 12.74155,-6.15365 16.40818,-3.75028c3.43353,2.24923 0.88634,10.67091 -4.7278,15.63086c-10.7273,9.47627 -28.43445,11.79505 -32.03998,4.19674c-5.62636,-11.85709 10.3128,-36.7706 26.96347,-42.14412M82.56711,193.08032c12.58552,-6.68001 19.47044,0.50944 14.53586,15.17782c-4.87536,14.4898 -15.12895,21.89919 -24.76594,17.89419c-0.751,-0.31299 -1.39954,0.7557 -3.16377,5.21279c-3.05944,7.73178 -5.52297,9.91521 -11.18598,9.91521c-7.22328,0 -7.47894,-2.47481 -1.48037,-14.32532c10.03082,-19.81727 17.24659,-29.19672 26.06021,-33.8747M118.79161,192.42989c6.33506,-1.71817 11.01774,-1.49729 13.1335,0.61847c5.6508,5.6508 -2.36766,21.95088 -13.59688,27.6421c-1.70877,0.86473 -3.10549,1.64768 -3.10549,1.73885c0,0.09117 1.20404,2.50677 2.67689,5.36882c3.00116,5.8322 3.22016,7.27686 1.44372,9.53454c-1.27547,1.6223 -4.82649,2.23795 -5.6085,0.97282c-0.20208,-0.32709 -1.24727,-0.59497 -2.32254,-0.59497c-2.59136,0 -3.5482,-1.20122 -5.13102,-6.44127c-1.50575,-4.98721 -1.42398,-5.01353 -4.75881,1.54899c-3.38935,6.66873 -8.00436,8.79013 -12.40976,5.70343c-2.8442,-1.99169 2.36954,-14.5086 12.48777,-29.97968c7.49868,-11.46608 10.52898,-14.30652 17.19113,-16.1121M221.40922,192.26165c9.94905,-2.378 17.28606,-0.03948 13.07804,4.1676c-0.81679,0.81679 -2.02177,2.53872 -2.67877,3.82547c-1.4268,2.7972 -3.03782,3.95142 -6.23449,4.46462l-2.37988,0.38161l-6.09632,11.39747c-13.24535,24.7603 -15.59139,27.38456 -21.60499,24.16533c-2.18907,-1.17114 2.22009,-13.84972 9.8654,-28.36583l2.57538,-4.88946l-2.05278,-0.38537c-1.18148,-0.22182 -2.33006,-0.9042 -2.70697,-1.60726c-0.61565,-1.14952 -0.72186,-1.08467 -1.77269,1.07621c-2.26145,4.6479 -5.43931,6.53432 -10.33066,6.13204l-2.37988,-0.19644l0.12971,-3.12241c0.20208,-4.86126 -3.15625,-3.67415 -9.46687,3.34517c-7.68102,8.54293 -8.45834,19.04089 -1.16268,15.70606c1.19464,-0.54609 3.50966,-1.00759 5.14606,-1.02451l2.97485,-0.03196v2.18061c0,1.19934 0.2002,2.38176 0.44552,2.62708c4.30483,4.31329 -15.2408,10.44721 -22.11725,6.94037c-11.74994,-5.99105 0.43518,-35.5769 18.10943,-43.97038c10.58819,-5.02857 20.51563,-2.90999 20.51563,4.37721c0,1.50575 0.0329,1.49447 2.5735,-0.84781c2.62238,-2.41747 7.56353,-4.43078 15.57071,-6.3454M417.42476,191.90448c0.49064,-0.31675 2.02553,-0.58087 3.41097,-0.58557c12.39472,-0.04512 7.18945,25.68894 -8.49029,41.97493c-14.0659,14.60823 -31.93471,8.75911 -27.32346,-8.94428c4.2334,-16.25309 17.88197,-31.83414 27.90903,-31.85952c1.98041,-0.0047 4.00218,-0.26882 4.49376,-0.58557M155.37705,193.01452c5.22407,-2.37988 11.15027,-0.75288 9.8372,2.70039c-0.40605,1.06869 -0.32521,1.64016 0.30829,2.16557c1.29427,1.07433 1.15046,1.74355 -2.73893,12.71993c-10.90401,30.76639 -10.34664,29.76538 -16.33016,29.37719c-4.00688,-0.25942 -4.4524,-1.20968 -2.863,-6.09726l1.26137,-3.88187l-3.36303,1.77269c-1.84976,0.9747 -3.78694,1.77363 -4.30483,1.77363c-0.5179,0.00094 -1.82062,1.09501 -2.89401,2.43157c-4.74377,5.9027 -11.92852,6.60482 -11.92852,1.16644c0,-7.76468 24.20387,-40.11483 33.01562,-44.12829M246.60753,193.67717c2.11764,-2.86488 7.22328,-2.3263 7.22328,0.76227c0,1.2219 -20.38498,40.52934 -21.93208,42.29074c-1.64486,1.87232 -4.04541,2.76524 -7.43664,2.76524c-7.08887,0 -6.99676,-0.89668 1.80747,-17.5248c11.49992,-21.71966 13.46341,-24.68511 17.14601,-25.90043c1.03485,-0.34119 2.47105,-1.41834 3.19197,-2.39304M306.95131,192.69307c5.02857,-1.8413 9.57778,-0.51038 9.26385,2.71073c-0.08365,0.85627 0.18704,2.17873 0.60155,2.93819c0.53857,0.98598 0.58557,1.83566 0.16637,2.97391c-0.32239,0.87695 -2.72201,7.61711 -5.33216,14.97856c-8.63316,24.34862 -8.31923,23.79595 -13.5245,23.79595c-4.95432,0 -5.50793,-0.81397 -3.84145,-5.65644c1.47097,-4.27475 1.31307,-4.443 -2.31032,-2.47105c-1.59974,0.87131 -3.3292,1.58376 -3.84145,1.58376c-0.5132,0 -1.80277,1.08185 -2.86581,2.40525c-4.79641,5.96849 -11.80539,6.66685 -11.80539,1.17678c0,-8.31547 24.83268,-41.26529 33.48934,-44.43564M364.98195,193.1057c8.72057,-4.60655 21.66045,3.70892 21.73564,13.96815c0.09493,12.96713 -15.16184,30.63668 -26.45122,30.63668c-2.23043,0 -3.21922,0.32897 -4.46932,1.48695c-2.26709,2.10166 -6.80502,2.11576 -8.89352,0.02726c-3.57545,-3.57545 -1.46721,-10.52428 9.85694,-32.48174c2.11858,-4.10933 4.34619,-8.59932 4.94962,-9.97913c0.74348,-1.70219 1.79619,-2.87803 3.27186,-3.65817M271.38005,193.33504c6.5033,-2.06594 14.41179,-0.52729 15.77937,3.06978c2.80378,7.37555 -3.64877,16.69203 -11.22264,16.20233l-2.77182,-0.17952l0.12877,-3.12241c0.20208,-4.86126 -3.15531,-3.67415 -9.46687,3.34517c-7.68102,8.54293 -8.45834,19.04089 -1.16268,15.70606c1.19464,-0.54609 3.5106,-1.00759 5.14606,-1.02451l2.97485,-0.03196v2.18061c0,1.19934 0.20114,2.38176 0.44646,2.62708c4.30389,4.31329 -15.2408,10.44721 -22.11725,6.94037c-13.20211,-6.7317 2.769,-39.5208 22.26576,-45.71299M347.97222,195.49121c3.43071,-1.96819 9.36912,-2.61392 9.36912,-1.01887c0,3.46548 -1.56967,8.25061 -3.84051,11.70952c-1.39578,2.12704 -5.09436,8.58523 -8.21866,14.35257c-9.00537,16.62342 -10.01766,17.725 -16.3264,17.7579c-3.37995,0.01786 -3.73618,-0.83935 -3.75028,-9.01947l-0.01034,-6.7317l-2.5171,4.64038c-2.92597,5.39326 -6.02207,9.43021 -8.26095,10.77242c-1.98417,1.18994 -6.95823,1.27359 -7.39905,0.12501c-1.16832,-3.04346 13.55082,-33.78917 18.72132,-39.10536c6.73076,-6.92251 10.02048,-4.58493 10.14173,7.20824l0.05264,5.05677l3.06978,-4.75975c1.6881,-2.61674 3.69388,-5.75701 4.45804,-6.97796c0.79517,-1.27077 2.72295,-2.98424 4.51067,-4.0097M122.04938,201.40049c-1.11662,-1.80747 -3.91477,0.83183 -7.13399,6.73264l-2.20129,4.0332l2.29528,-1.30931c4.00406,-2.28588 8.08519,-7.76656 7.04,-9.45653M84.30502,207.89721c1.26231,-5.26167 0.88728,-4.89886 -5.46187,5.27483c-3.64783,5.8463 -3.6967,6.17527 -0.64009,4.31141c2.47575,-1.50951 5.18554,-5.76641 6.10196,-9.58624M373.9563,208.50346c-2.81318,-3.95048 -3.17975,-3.71362 -7.16689,4.64508c-1.99639,4.18452 -4.40728,9.70185 -5.35848,12.26031l-1.72851,4.6526l3.09328,-1.67776c9.3616,-5.07933 14.80091,-14.76802 11.16061,-19.88024M412.10294,208.9847c1.01605,-4.04729 0.61847,-3.94766 -3.60177,0.9089c-9.67459,11.12865 -13.69087,18.64801 -12.13154,22.71222c1.79807,4.68456 12.76129,-11.77531 15.73331,-23.62112M148.66038,217.6329c2.8536,-8.60308 2.76712,-8.60872 -2.34792,-0.14851c-4.14881,6.86329 -4.06233,6.54372 -1.76987,6.54372h1.99639l2.1214,-6.39521M299.68385,217.47405c1.17208,-3.59331 2.08286,-6.53338 2.02647,-6.53338c-0.55079,0 -8.02221,11.96518 -8.02221,12.84588c0,0.13347 0.87037,0.23686 1.93341,0.23122c1.93247,-0.01128 1.93435,-0.01316 4.06233,-6.54372" data-paper-data="{&quot;origPos&quot;:null}" id="path0 1" fill="#ff0000" fill-rule="evenodd" stroke="none" stroke-width="1"/></g></g></svg>