<svg version="1.1" xmlns="http://www.w3.org/2000/svg" xmlns:xlink="http://www.w3.org/1999/xlink" width="46.55168" height="58.58388" viewBox="0,0,46.55168,58.58388"><g transform="translate(-216.72416,-150.70806)"><g data-paper-data="{&quot;isPaintingLayer&quot;:true}" fill-rule="nonzero" stroke-linecap="butt" stroke-linejoin="miter" stroke-miterlimit="10" stroke-dasharray="" stroke-dashoffset="0" style="mix-blend-mode: normal"><path d="M261.65669,179.99999c0,16.17755 -10.05843,29.29195 -22.46626,29.29195c-12.40782,0 -22.46627,-13.1144 -22.46627,-29.29195c0,-16.17756 10.05844,-29.29193 22.46627,-29.29193c12.40782,0 22.46626,13.11438 22.46626,29.29193" data-paper-data="{&quot;index&quot;:null}" fill="#9c9055" stroke="none" stroke-width="0.03528"/><path d="M263.27584,179.99999c0,16.17755 -10.12434,29.29195 -22.61346,29.29195c-12.48912,0 -22.61347,-13.1144 -22.61347,-29.29195c0,-16.17756 10.12435,-29.29193 22.61347,-29.29193c12.48912,0 22.61346,13.11438 22.61346,29.29193" data-paper-data="{&quot;index&quot;:null}" fill="#f6d738" stroke="none" stroke-width="0.03528"/><path d="M259.85412,179.99999c0,13.72957 -8.59248,24.85968 -19.19175,24.85968c-10.59926,0 -19.19176,-11.13011 -19.19176,-24.85968c0,-13.72955 8.59249,-24.85968 19.19176,-24.85968c10.59927,0 19.19175,11.13014 19.19175,24.85968" data-paper-data="{&quot;index&quot;:null}" fill="#f3cc30" stroke="none" stroke-width="0.03528"/><path d="M250.46871,158.98219c5.48977,4.37441 9.15081,12.22716 9.15081,21.18848c0,13.72967 -8.5925,24.85968 -19.19176,24.85968c-6.79295,0 -12.76155,-4.57159 -16.17236,-11.46905c2.92115,2.32757 6.35977,3.67112 10.04089,3.67112c10.59927,0 19.19175,-11.13 19.19175,-24.85968c0,-4.93048 -1.1081,-9.52564 -3.0193,-13.39054" data-paper-data="{&quot;index&quot;:null}" fill="#edbd31" stroke="none" stroke-width="0.03528"/><path d="M256.49223,182.27462c0,-12.11967 -7.58488,-21.9446 -16.9413,-21.9446c-5.46903,0 -10.33182,3.35764 -13.42925,8.56745c2.92536,-6.57843 8.40843,-11.00721 14.69027,-11.00721c9.35642,0 16.9413,9.82493 16.9413,21.9446c0,5.03562 -1.31037,9.67398 -3.51217,13.37723c1.43195,-3.2199 2.25115,-6.95468 2.25115,-10.93747" data-paper-data="{&quot;index&quot;:null}" fill="#f7db5e" stroke="none" stroke-width="0.03528"/><path d="M240.69413,181.77254c-0.46652,0.15359 -0.88751,0.49225 -1.1911,1.00788c-0.76851,1.30529 -0.49374,3.25032 0.61372,4.34438c0.14403,0.14248 0.29849,0.26633 0.46118,0.36976c-0.61802,0.23392 -2.65577,-1.1343 -2.8926,-3.32515c-0.22262,-2.05947 1.01388,-4.13449 2.59591,-4.87921l-0.49775,-2.9926c-0.44541,0.63963 -1.04327,1.47 -1.84514,2.54385c-0.99761,1.33598 -1.78546,3.0041 -1.62628,4.98971c0.24736,3.08538 2.37883,5.32682 4.76073,5.00639c0.25871,-0.03465 0.5145,-0.09921 0.76432,-0.1929zM242.04771,189.91064c-0.16501,0.06697 -0.3354,0.10926 -0.50783,0.12606c-4.04611,0.42752 -6.88439,-3.23777 -6.88439,-7.42969c0,-4.11433 1.53701,-6.30857 4.5322,-9.89166l-0.38135,-2.29274c-0.16137,-1.05018 -0.27023,-2.26443 -0.17973,-3.585c0.22008,-3.21127 1.44761,-5.69381 2.74175,-5.54493c1.29414,0.14875 2.16484,2.87264 1.94476,6.08386c-0.18514,2.70122 -1.08312,4.88686 -2.24313,6.8811c-0.01774,0.04645 -0.13136,0.31265 -0.67689,1.14215l0.60742,3.65197c0.16806,-0.03287 0.33777,-0.04947 0.50773,-0.04964c2.10398,0 3.83626,2.22771 3.83626,5.1673c0,2.22395 -1.14018,4.40094 -2.6064,5.3291l0.70487,4.23785c0.0338,0.24366 0,0.50431 0,0.76062c0,2.32876 -1.44061,4.2167 -3.23847,4.2167c-1.5452,0 -2.83895,-1.39451 -3.17206,-3.26506c-0.21368,-0.91163 0.04799,-1.898 0.64915,-2.44693c0.60115,-0.54893 1.40628,-0.5367 1.99733,0.03034c0.59104,0.56704 0.83479,1.56109 0.60466,2.46598c-0.23012,0.90489 -0.88224,1.51666 -1.61775,1.51766c-0.03733,0 -0.07436,-0.00162 -0.11109,-0.00462c0.46009,0.50811 1.04515,0.78667 1.64976,0.7855c1.40681,0 2.54725,-1.47731 2.54725,-3.29959c0,-0.22476 -0.01735,-0.44422 -0.13909,-1.18958l-0.56497,-3.39676zM243.57628,186.90791c0.58038,-1.88861 0.43095,-3.41588 -0.67651,-4.50994c-0.44558,-0.44019 -0.95807,-0.67554 -1.46154,-0.71463l1.09942,6.60995c0.15406,-0.09809 0.30347,-0.20802 0.44742,-0.32918c0.24539,-0.26875 0.45513,-0.61332 0.59122,-1.0562zM241.71488,164.09325c-1.68285,0.47862 -2.81651,4.16289 -1.8721,7.76872c0.031,0.11833 -0.02349,-0.11952 0,0c0.51845,-0.52062 1.10192,-1.10194 1.46635,-1.96848c0.93973,-2.23453 1.32174,-4.27357 0.73202,-5.6281c-0.10924,-0.22122 -0.21812,-0.20287 -0.32628,-0.17214z" data-paper-data="{&quot;index&quot;:null}" fill="#b4832d" stroke="#b6842e" stroke-width="0"/></g></g></svg>