<svg version="1.1" xmlns="http://www.w3.org/2000/svg" xmlns:xlink="http://www.w3.org/1999/xlink" width="27" height="32" viewBox="0,0,27,32"><g transform="translate(-226.5,-164)"><g data-paper-data="{&quot;isPaintingLayer&quot;:true}" fill-rule="nonzero" stroke="none" stroke-linecap="butt" stroke-linejoin="miter" stroke-miterlimit="10" stroke-dasharray="" stroke-dashoffset="0" style="mix-blend-mode: normal"><path d="M226.5,196v-32h27v32z" fill="none" stroke-width="0"/><path d="M245.50001,170.14287c1,-0.42857 1.57143,-1.00001 2,-1.42857l0.71429,0.57143l-7.57143,7.57143c4.57143,0.71429 7.14286,3.14285 7.14286,7.71428c-2,2.71429 -5.85715,5.71429 -8.85715,6.71429c-2,0 -5.28571,-1.14286 -7.14285,-2.00001v-0.42857c1,-1.14285 1.57143,-4.42858 1.57143,-5.85715h1c0,0.71429 0,1.42857 0,2.14286c1.57143,2.28571 3.71428,3.28571 5.28571,3.28571c0.57143,0 1,0 1.57143,-0.42857c0.28572,-0.85715 0.42857,-1.71429 0.42857,-2.71429c0,-3.42857 -1.57142,-4.85715 -4.85714,-4.85715l-0.57143,-0.28571l4.28571,-6v-0.14286c0,0 -0.57143,0.28571 -1,0.42857c-1.42857,0 -3,-0.14285 -4.28571,-0.28571c-0.42857,0.71429 -0.71429,1.42856 -0.85714,2.28571l-0.85715,-0.28571c0.14285,-0.85715 0.28572,-2 0.28572,-3.57143c0,-1.42857 0,-2.28571 -0.28572,-3.14286l0.42857,-0.28571c4,0.71429 7.42857,1 11.57143,1z" fill="#ff0000" stroke-width="1"/></g></g></svg>