<svg version="1.1" xmlns="http://www.w3.org/2000/svg" xmlns:xlink="http://www.w3.org/1999/xlink" width="26.56299" height="117.70406" viewBox="0,0,26.56299,117.70406"><g transform="translate(-226.94991,-121.65963)"><g data-paper-data="{&quot;isPaintingLayer&quot;:true}" fill-rule="nonzero" stroke-linecap="butt" stroke-linejoin="miter" stroke-miterlimit="10" stroke-dasharray="" stroke-dashoffset="0" style="mix-blend-mode: normal"><path d="M226.94991,237.01761c0,-2.74671 0,-68.39492 0,-112.17113c0,-1.2437 1.2268,-3.18685 2.01202,-3.18685c8.63819,0 19.84667,0 22.13427,0c0.76253,0 1.95389,1.93457 1.95389,2.83468c0,43.63879 0,108.59976 0,112.17115c0,1.19047 -0.90067,2.69823 -1.71066,2.69823c-2.42999,0 -14.15755,0 -22.98558,0c-0.5479,0 -1.40393,-1.43044 -1.40393,-2.34605z" data-paper-data="{&quot;origPos&quot;:null}" fill-opacity="0.55053" fill="#ffffff" stroke="#001026" stroke-width="0"/><text transform="translate(227.36407,162.40354) scale(0.3591,0.44072)" font-size="40" xml:space="preserve" fill="#000000" fill-rule="nonzero" stroke="#000000" stroke-width="2" stroke-linecap="butt" stroke-linejoin="miter" stroke-miterlimit="10" stroke-dasharray="" stroke-dashoffset="0" font-family="Sans Serif" font-weight="normal" text-anchor="start" style="mix-blend-mode: normal"><tspan x="0" dy="0">Mi</tspan></text><text transform="translate(245.36498,162.64799) scale(0.39565,0.39565)" font-size="40" xml:space="preserve" fill="#000000" fill-rule="nonzero" stroke="#000000" stroke-width="3" stroke-linecap="butt" stroke-linejoin="miter" stroke-miterlimit="10" stroke-dasharray="" stroke-dashoffset="0" font-family="Handwriting" font-weight="normal" text-anchor="start" style="mix-blend-mode: normal"><tspan x="0" dy="0">b</tspan></text></g></g></svg>