<svg version="1.1" xmlns="http://www.w3.org/2000/svg" xmlns:xlink="http://www.w3.org/1999/xlink" width="58.58388" height="58.58388" viewBox="0,0,58.58388,58.58388"><g transform="translate(-210.70806,-150.70806)"><g data-paper-data="{&quot;isPaintingLayer&quot;:true}" fill-rule="nonzero" stroke-linecap="butt" stroke-linejoin="miter" stroke-miterlimit="10" stroke-dasharray="" stroke-dashoffset="0" style="mix-blend-mode: normal"><path d="M210.70806,179.99999c0,-16.17755 13.11437,-29.29193 29.29193,-29.29193c16.17755,0 29.29195,13.11437 29.29195,29.29193c0,16.17755 -13.1144,29.29195 -29.29195,29.29195c-16.17755,0 -29.29193,-13.1144 -29.29193,-29.29195" fill="#f6d738" stroke="none" stroke-width="0.03528"/><path d="M215.14032,179.99999c0,-13.72954 11.13011,-24.85968 24.85968,-24.85968c13.72957,0 24.8597,11.13013 24.8597,24.85968c0,13.72957 -11.13013,24.85968 -24.8597,24.85968c-13.72957,0 -24.85968,-11.13011 -24.85968,-24.85968" fill="#f3cc30" stroke="none" stroke-width="0.03528"/><path d="M253.00635,158.78219c7.11107,4.37441 11.85334,12.22716 11.85334,21.18848c0,13.72967 -11.13013,24.85968 -24.8597,24.85968c-8.79912,0 -16.53044,-4.57159 -20.94857,-11.46905c3.78385,2.32757 8.23801,3.67112 13.00628,3.67112c13.72957,0 24.85968,-11.13 24.85968,-24.85968c0,-4.93048 -1.43535,-9.52564 -3.911,-13.39054" fill="#edbd31" stroke="none" stroke-width="0.03528"/><path d="M219.49509,182.27462c0,3.98279 1.06114,7.71757 2.91598,10.93747c-2.85206,-3.70325 -4.54943,-8.34161 -4.54943,-13.37723c0,-12.11967 9.82493,-21.9446 21.9446,-21.9446c8.13707,0 15.23947,4.42878 19.02878,11.00721c-4.0122,-5.20981 -10.31113,-8.56745 -17.39533,-8.56745c-12.11967,0 -21.9446,9.82493 -21.9446,21.9446" fill="#f7db5e" stroke="none" stroke-width="0.03528"/><path d="M240.89913,181.77253c-0.6043,0.15359 -1.14962,0.49225 -1.54287,1.00788c-0.99547,1.30529 -0.63956,3.25032 0.79497,4.34438c0.18656,0.14248 0.38665,0.26633 0.59739,0.36976c-0.80054,0.23392 -3.44011,-1.1343 -3.74687,-3.32515c-0.28836,-2.05947 1.31331,-4.13449 3.36257,-4.87921l-0.64475,-2.9926c-0.57696,0.63963 -1.35138,1.47 -2.39007,2.54385c-1.29223,1.33598 -2.31277,3.0041 -2.10657,4.98971c0.32041,3.08538 3.08137,5.32682 6.16673,5.00639c0.33511,-0.03465 0.66645,-0.09921 0.99005,-0.1929zM242.65247,189.91063c-0.21375,0.06697 -0.43445,0.10926 -0.65781,0.12606c-5.24105,0.42752 -8.91757,-3.23777 -8.91757,-7.42969c0,-4.11433 1.99093,-6.30857 5.8707,-9.89166l-0.49397,-2.29274c-0.20903,-1.05018 -0.35004,-2.26443 -0.23281,-3.585c0.28507,-3.21127 1.87513,-5.69381 3.55148,-5.54493c1.67634,0.14875 2.80418,2.87264 2.51911,6.08386c-0.23981,2.70122 -1.40301,4.88686 -2.9056,6.8811c-0.02299,0.04645 -0.17016,0.31265 -0.87679,1.14215l0.78681,3.65197c0.21769,-0.03287 0.43753,-0.04947 0.65768,-0.04964c2.72536,0 4.96922,2.22771 4.96922,5.1673c0,2.22395 -1.47691,4.40094 -3.37616,5.3291l0.91304,4.23785c0.04378,0.24366 0,0.50431 0,0.76062c0,2.32876 -1.86607,4.2167 -4.19489,4.2167c-2.00155,0 -3.67738,-1.39451 -4.10887,-3.26506c-0.27678,-0.91163 0.06217,-1.898 0.84086,-2.44693c0.77869,-0.54893 1.8216,-0.5367 2.5872,0.03034c0.7656,0.56704 1.08133,1.56109 0.78324,2.46598c-0.29809,0.90489 -1.1428,1.51666 -2.09552,1.51766c-0.04835,0 -0.09633,-0.00162 -0.1439,-0.00462c0.59597,0.50811 1.35382,0.78667 2.13699,0.7855c1.82228,0 3.29954,-1.47731 3.29954,-3.29959c0,-0.22476 -0.02247,-0.44422 -0.18016,-1.18958l-0.73182,-3.39676zM244.63248,186.9079c0.75179,-1.88861 0.55823,-3.41588 -0.8763,-4.50994c-0.57718,-0.44019 -1.24101,-0.67554 -1.89319,-0.71463l1.42411,6.60995c0.19956,-0.09809 0.39309,-0.20802 0.57955,-0.32918c0.31786,-0.26875 0.58954,-0.61332 0.76583,-1.0562zM242.22135,164.09324c-2.17984,0.47862 -3.64832,4.16289 -2.42499,7.76872c0.04015,0.11833 -0.03042,-0.11952 0,0c0.67157,-0.52062 1.42736,-1.10194 1.89941,-1.96848c1.21727,-2.23453 1.71209,-4.27357 0.94821,-5.6281c-0.1415,-0.22122 -0.28254,-0.20287 -0.42264,-0.17214z" fill="#b4832d" stroke="#b6842e" stroke-width="0"/></g></g></svg>