<svg version="1.1" xmlns="http://www.w3.org/2000/svg" xmlns:xlink="http://www.w3.org/1999/xlink" width="49.74924" height="49.74924" viewBox="0,0,49.74924,49.74924"><defs><radialGradient cx="225.37913" cy="164.88944" r="24.62462" gradientUnits="userSpaceOnUse" id="color-1"><stop offset="0" stop-color="#e3e3e3"/><stop offset="1" stop-color="#9d9d9d"/></radialGradient></defs><g transform="translate(-215.12538,-155.12538)"><g data-paper-data="{&quot;isPaintingLayer&quot;:true}" fill-rule="nonzero" stroke-linejoin="miter" stroke-miterlimit="10" stroke-dasharray="" stroke-dashoffset="0" style="mix-blend-mode: normal"><path d="M264.62462,167.84354v24.31292c0,6.88611 -5.58195,12.46816 -12.46816,12.46816h-24.31292c-6.88611,0 -12.46816,-5.58195 -12.46816,-12.46816v-24.31292c0,-6.88622 5.58205,-12.46816 12.46816,-12.46816h24.31292c6.88622,0 12.46816,5.58195 12.46816,12.46816z" fill="#494949" stroke="#696969" stroke-width="0.5" stroke-linecap="butt"/><path d="M234.01119,181.33761l7.00286,-0.84679l3.25486,-5.83353l3.25486,5.73942l7.10149,1.03498l-5.32613,4.28718l1.18359,6.34486l-6.41108,-2.91676l-6.2138,2.91676l1.28222,-6.20986z" fill-opacity="0.20161" fill="#000000" stroke="#ffc600" stroke-width="1.5" stroke-linecap="round"/><path d="M215.37538,192.15646v-24.31292c0,-6.88622 5.58205,-12.46816 12.46816,-12.46816h24.31292c3.51185,0 6.68447,1.45176 8.95051,3.78791c-0.74882,0.76224 -41.91843,41.97115 -42.08523,41.80414c-2.25309,-2.25583 -3.64636,-5.37063 -3.64636,-8.81097z" fill="url(#color-1)" stroke="#696969" stroke-width="0.5" stroke-linecap="butt"/><path d="M220.07133,201.0802l40.86492,-40.86492" fill="none" stroke="#696969" stroke-width="1.5" stroke-linecap="round"/></g></g></svg>