<svg version="1.1" xmlns="http://www.w3.org/2000/svg" xmlns:xlink="http://www.w3.org/1999/xlink" width="27.45218" height="33.25" viewBox="0,0,27.45218,33.25"><g transform="translate(-226.27391,-163.375)"><g data-paper-data="{&quot;isPaintingLayer&quot;:true}" fill-rule="nonzero" stroke-linecap="butt" stroke-linejoin="miter" stroke-miterlimit="10" stroke-dasharray="" stroke-dashoffset="0" style="mix-blend-mode: normal"><path d="M226.27391,196.625v-33.25h27.45218v33.25z" fill="none" stroke="#000000" stroke-width="0"/><path d="M227.58929,193.31772c0,-2.25074 0,-16.31081 0,-26.75056c0,-0.70529 1.15456,-1.80723 1.89353,-1.80723c8.23134,0 18.94208,0 21.09178,0c0.71657,0 1.83611,0.9451 1.83611,1.55001c0,10.48994 0,24.47785 0,26.87916c0,0.80044 -1.27638,2.05102 -2.09333,2.05102c-2.45085,0 -12.86044,0 -21.09178,0c-0.63859,0 -1.63631,-1.17217 -1.63631,-1.92242z" data-paper-data="{&quot;origPos&quot;:null}" fill="#edb47e" stroke="#000000" stroke-width="1.5"/><path d="M241.21151,182.91478v-6.10387l-2.18066,0.56132v6.13517zM244.6497,184.59114l-2.12203,0.50214v6.26008l-1.25893,-0.04334v-5.85978l-2.2665,0.58731v6.42311h-1.24954v-6.20139l-2.12203,0.50083v-2.53024l2.12203,-0.49953v-6.09213l-2.12203,0.50083v-2.54067l2.12203,-0.50214v-6.29529h1.24954v6.06444l2.2665,-0.61992v-6.42572l1.25893,0.00635v6.10024l2.12203,-0.50083v2.53545l-2.12203,0.50083v6.10387l2.12203,-0.51387z" data-paper-data="{&quot;origPos&quot;:null}" fill="#7d7d7d" stroke="none" stroke-width="1"/><path d="M240.93114,182.6344v-6.10387l-2.18066,0.56132v6.13517zM244.36932,184.31077l-2.12203,0.50214v6.26008l-1.25893,-0.04334v-5.85978l-2.2665,0.58731v6.42311h-1.24954v-6.20139l-2.12203,0.50083v-2.53024l2.12203,-0.49953v-6.09213l-2.12203,0.50083v-2.54067l2.12203,-0.50214v-6.29529h1.24954v6.06444l2.2665,-0.61992v-6.42572l1.25893,0.00635v6.10024l2.12203,-0.50083v2.53545l-2.12203,0.50083v6.10387l2.12203,-0.51387z" data-paper-data="{&quot;origPos&quot;:null}" fill="#000000" stroke="none" stroke-width="1"/></g></g></svg>