<svg version="1.1" xmlns="http://www.w3.org/2000/svg" xmlns:xlink="http://www.w3.org/1999/xlink" width="863.98491" height="465" viewBox="0,0,863.98491,465"><g transform="translate(191.99243,52.5)"><g data-paper-data="{&quot;isPaintingLayer&quot;:true}" fill-rule="nonzero" stroke-linecap="butt" stroke-linejoin="miter" stroke-miterlimit="10" stroke-dasharray="" stroke-dashoffset="0" style="mix-blend-mode: normal"><path d="M-191.99243,412.5v-465h863.98491v465z" fill="none" stroke="#000000" stroke-width="0"/><path d="M-155.99999,0h792v344.98498h-792z" fill="#ffffff" stroke="#000000" stroke-width="0"/><path d="M-56.40099,223.152c-2.296,0.41 -4.756,0.656 -7.38,0.738c-2.542,0.082 -5.043,0 -7.503,-0.246c-2.46,-0.164 -4.756,-0.451 -6.888,-0.861c-2.05,-0.328 -3.731,-0.82 -5.043,-1.476c-6.314,-3.034 -11.439,-6.273 -15.375,-9.717c-3.854,-3.362 -6.847,-6.888 -8.979,-10.578c-2.132,-3.69 -3.649,-7.462 -4.551,-11.316c-0.82,-3.936 -1.353,-7.872 -1.599,-11.808c-0.328,-4.264 0.041,-8.528 1.107,-12.792c1.148,-4.264 2.665,-8.323 4.551,-12.177c1.968,-3.936 4.182,-7.544 6.642,-10.824c2.542,-3.28 5.084,-6.15 7.626,-8.61c2.952,-2.788 6.027,-5.535 9.225,-8.241c3.28,-2.788 6.847,-5.617 10.701,-8.487c-0.082,-1.066 -0.205,-2.009 -0.369,-2.829c-0.082,-0.82 -0.205,-1.64 -0.369,-2.46c-0.164,-0.902 -0.369,-1.886 -0.615,-2.952c-0.164,-1.066 -0.287,-2.378 -0.369,-3.936c0,-0.656 -0.082,-1.845 -0.246,-3.567c-0.164,-1.804 -0.287,-3.936 -0.369,-6.396c0,-2.542 0.082,-5.412 0.246,-8.61c0.164,-3.198 0.574,-6.519 1.23,-9.963c0.41,-2.05 1.271,-4.633 2.583,-7.749c1.394,-3.198 2.993,-6.273 4.797,-9.225c1.886,-2.952 3.854,-5.494 5.904,-7.626c2.05,-2.132 3.977,-3.198 5.781,-3.198c0.902,0 1.886,0.574 2.952,1.722c1.066,1.066 2.091,2.542 3.075,4.428c1.066,1.804 2.091,3.895 3.075,6.273c0.984,2.296 1.845,4.674 2.583,7.134c0.738,2.46 1.312,4.879 1.722,7.257c0.492,2.378 0.779,4.469 0.861,6.273c0.082,4.264 -0.082,8.036 -0.492,11.316c-0.41,3.198 -1.025,6.109 -1.845,8.733c-0.82,2.542 -1.804,4.92 -2.952,7.134c-1.066,2.132 -2.214,4.305 -3.444,6.519c-1.312,2.214 -2.665,4.182 -4.059,5.904c-1.312,1.64 -2.665,3.321 -4.059,5.043c-1.476,1.804 -3.034,3.321 -4.674,4.551c-1.558,1.148 -3.116,2.419 -4.674,3.813c0.738,4.182 1.394,7.954 1.968,11.316c0.246,1.476 0.492,2.911 0.738,4.305c0.246,1.394 0.451,2.706 0.615,3.936c0.164,1.148 0.328,2.132 0.492,2.952c0.164,0.738 0.246,1.189 0.246,1.353c1.968,-0.246 3.977,-0.246 6.027,0c2.132,0.164 4.141,0.451 6.027,0.861c1.968,0.41 3.69,0.943 5.166,1.599c1.558,0.656 2.788,1.271 3.69,1.845c4.428,3.28 7.544,7.052 9.348,11.316c1.886,4.182 2.993,8.487 3.321,12.915c0.246,3.444 -0.041,6.888 -0.861,10.332c-0.82,3.526 -2.214,6.847 -4.182,9.963c-1.886,3.198 -4.387,6.109 -7.503,8.733c-3.034,2.624 -6.642,4.797 -10.824,6.519c0.492,3.362 0.943,6.478 1.353,9.348c0.41,2.46 0.779,4.838 1.107,7.134c0.328,2.378 0.574,4.018 0.738,4.92c0.738,4.92 1.025,8.938 0.861,12.054c-0.164,3.198 -0.779,5.781 -1.845,7.749c-0.902,1.64 -1.968,3.239 -3.198,4.797c-1.148,1.558 -2.542,2.952 -4.182,4.182c-1.64,1.23 -3.567,2.255 -5.781,3.075c-2.132,0.82 -4.592,1.312 -7.38,1.476c-2.132,0.164 -4.674,-0.041 -7.626,-0.615c-2.952,-0.492 -5.781,-1.435 -8.487,-2.829c-2.706,-1.312 -5.043,-3.116 -7.011,-5.412c-1.968,-2.296 -3.075,-5.125 -3.321,-8.487c-0.164,-1.968 -0.041,-3.977 0.369,-6.027c0.41,-1.968 1.107,-3.772 2.091,-5.412c1.066,-1.558 2.419,-2.87 4.059,-3.936c1.722,-1.066 3.813,-1.681 6.273,-1.845c1.476,-0.082 2.952,0.123 4.428,0.615c1.558,0.574 2.993,1.353 4.305,2.337c1.312,0.984 2.378,2.214 3.198,3.69c0.82,1.476 1.312,3.075 1.476,4.797c0.246,3.034 -0.697,5.945 -2.829,8.733c-2.132,2.87 -5.74,5.002 -10.824,6.396c0.82,1.148 2.378,2.214 4.674,3.198c2.296,1.066 5.166,1.599 8.61,1.599c3.608,0 7.052,-1.066 10.332,-3.198c3.362,-2.132 5.945,-4.797 7.749,-7.995c1.148,-2.132 1.722,-4.92 1.722,-8.364c0,-3.362 -0.205,-6.765 -0.615,-10.209c-0.164,-0.574 -0.41,-2.009 -0.738,-4.305c-0.328,-2.214 -0.697,-4.551 -1.107,-7.011c-0.41,-2.87 -0.902,-6.068 -1.476,-9.594zM-53.81798,67.311c-3.198,0 -6.027,1.517 -8.487,4.551c-2.378,2.952 -4.346,6.724 -5.904,11.316c-1.476,4.592 -2.46,9.635 -2.952,15.129c-0.492,5.494 -0.369,10.783 0.369,15.867c2.706,-2.05 5.535,-4.51 8.487,-7.38c2.952,-2.952 5.617,-6.068 7.995,-9.348c2.46,-3.28 4.428,-6.601 5.904,-9.963c1.558,-3.362 2.214,-6.56 1.968,-9.594c-0.082,-0.984 -0.246,-2.091 -0.492,-3.321c-0.246,-1.23 -0.656,-2.378 -1.23,-3.444c-0.574,-1.066 -1.312,-1.968 -2.214,-2.706c-0.902,-0.738 -2.05,-1.107 -3.444,-1.107zM-54.06399,218.109c3.526,-1.23 6.273,-2.829 8.241,-4.797c1.968,-1.968 3.403,-4.1 4.305,-6.396c0.984,-2.296 1.517,-4.592 1.599,-6.888c0.164,-2.296 0.205,-4.346 0.123,-6.15c-0.164,-1.476 -0.533,-3.321 -1.107,-5.535c-0.492,-2.214 -1.476,-4.346 -2.952,-6.396c-1.476,-2.05 -3.567,-3.731 -6.273,-5.043c-2.706,-1.394 -6.314,-1.968 -10.824,-1.722zM-64.14999,175.428c-3.362,0.164 -6.15,0.861 -8.364,2.091c-2.132,1.148 -3.854,2.583 -5.166,4.305c-1.23,1.64 -2.091,3.403 -2.583,5.289c-0.41,1.886 -0.574,3.567 -0.492,5.043c0.082,1.476 0.41,2.993 0.984,4.551c0.574,1.558 1.312,2.993 2.214,4.305c0.984,1.394 2.009,2.624 3.075,3.69c1.148,1.148 2.296,2.009 3.444,2.583c-0.164,0.164 -0.328,0.287 -0.492,0.369c-0.082,0.164 -0.205,0.328 -0.369,0.492c-0.164,0.164 -0.287,0.328 -0.369,0.492c-2.542,-1.23 -4.797,-2.706 -6.765,-4.428c-1.886,-1.64 -3.116,-2.829 -3.69,-3.567c-0.902,-1.23 -1.681,-2.337 -2.337,-3.321c-0.656,-0.984 -1.189,-2.05 -1.599,-3.198c-0.41,-1.066 -0.779,-2.255 -1.107,-3.567c-0.246,-1.312 -0.41,-2.87 -0.492,-4.674c-0.164,-1.722 -0.041,-3.526 0.369,-5.412c0.41,-1.968 1.066,-3.936 1.968,-5.904c0.984,-1.968 2.214,-3.854 3.69,-5.658c1.558,-1.886 3.362,-3.649 5.412,-5.289c1.066,-0.82 2.009,-1.476 2.829,-1.968c0.902,-0.492 1.722,-0.902 2.46,-1.23c0.738,-0.41 1.476,-0.697 2.214,-0.861c0.82,-0.246 1.681,-0.492 2.583,-0.738l-3.69,-22.263c-0.984,0.574 -2.583,1.722 -4.797,3.444c-2.214,1.722 -4.633,3.772 -7.257,6.15c-2.624,2.378 -5.248,4.961 -7.872,7.749c-2.542,2.706 -4.633,5.33 -6.273,7.872c-2.952,4.674 -5.248,8.979 -6.888,12.915c-1.64,3.936 -2.255,8.2 -1.845,12.792c0.328,5.166 1.886,9.963 4.674,14.391c2.87,4.51 6.519,8.282 10.947,11.316c4.428,3.034 9.471,5.125 15.129,6.273c5.658,1.23 11.521,1.107 17.589,-0.369c-1.312,-8.118 -2.501,-15.375 -3.567,-21.771c-0.492,-2.706 -0.943,-5.371 -1.353,-7.995c-0.41,-2.624 -0.82,-4.961 -1.23,-7.011c-0.328,-2.05 -0.574,-3.69 -0.738,-4.92c-0.164,-1.312 -0.246,-1.968 -0.246,-1.968z" fill="#000000" stroke="none" stroke-width="1"/><path d="M170.29201,99.906h-293.83399" fill="none" stroke="#000000" stroke-width="2.302"/><path d="M-123.54199,130.65601h293.83399" fill="none" stroke="#000000" stroke-width="2.302"/><path d="M170.29201,161.40601h-293.83399" fill="none" stroke="#000000" stroke-width="2.302"/><path d="M170.29201,192.15601h-293.83399" fill="none" stroke="#000000" stroke-width="2.302"/><path d="M-123.54199,222.90601h293.83399" fill="none" stroke="#000000" stroke-width="2.302"/><path d="M27.21901,130.287c-0.164,-2.132 0.328,-4.141 1.476,-6.027c1.23,-1.968 2.952,-3.69 5.166,-5.166c2.214,-1.476 4.797,-2.665 7.749,-3.567c3.034,-0.902 6.273,-1.353 9.717,-1.353c3.444,0 6.765,0.328 9.963,0.984c3.198,0.656 6.027,1.681 8.487,3.075c2.542,1.394 4.633,3.157 6.273,5.289c1.64,2.05 2.583,4.51 2.829,7.38c0.164,2.132 -0.369,4.141 -1.599,6.027c-1.148,1.968 -2.829,3.69 -5.043,5.166c-2.132,1.476 -4.715,2.624 -7.749,3.444c-2.952,0.902 -6.15,1.353 -9.594,1.353c-3.444,0 -6.765,-0.328 -9.963,-0.984c-3.198,-0.656 -6.068,-1.681 -8.61,-3.075c-2.542,-1.312 -4.633,-3.034 -6.273,-5.166c-1.64,-2.05 -2.583,-4.51 -2.829,-7.38zM42.59401,127.95c0.328,2.214 0.738,4.305 1.23,6.273c0.574,1.968 1.312,3.69 2.214,5.166c0.984,1.476 2.132,2.624 3.444,3.444c1.394,0.82 3.116,1.23 5.166,1.23c1.476,0 2.788,-0.328 3.936,-0.984c1.23,-0.656 2.255,-1.476 3.075,-2.46c0.82,-0.984 1.394,-2.091 1.722,-3.321c0.41,-1.148 0.533,-2.296 0.369,-3.444c-0.328,-2.214 -0.779,-4.305 -1.353,-6.273c-0.574,-1.968 -1.353,-3.69 -2.337,-5.166c-0.984,-1.476 -2.214,-2.624 -3.69,-3.444c-1.394,-0.902 -3.116,-1.353 -5.166,-1.353c-1.476,0 -2.788,0.328 -3.936,0.984c-1.148,0.656 -2.091,1.476 -2.829,2.46c-0.738,0.984 -1.271,2.091 -1.599,3.321c-0.328,1.23 -0.41,2.419 -0.246,3.567z" fill="#000000" stroke="none" stroke-width="1"/><path d="M-3.64399,123.03v18.327l12.054,-3.936v-18.327zM-7.21099,111.468v-20.049h3.567v18.819l12.054,-3.936v-17.958h3.567v16.851l4.797,-1.599v12.792l-4.797,1.599v18.204l4.797,-1.476v12.669l-4.797,1.599v20.049h-3.567v-18.942l-12.054,3.936v18.204h-3.567v-16.974l-5.289,1.722v-12.792l5.289,-1.722v-18.327l-5.289,1.722v-12.669z" fill="#000000" stroke="none" stroke-width="1"/><g fill="#000000" stroke="none" stroke-width="1"><path d="M341.80593,233.156h-38.04712l-48.24206,-66.63501c-3.57349,0.14014 -6.48132,0.21021 -8.72351,0.21021c-0.91089,0 -1.89185,0 -2.94287,0c-1.05103,-0.07007 -2.13709,-0.14014 -3.25818,-0.21021v41.4104c0,8.96875 0.98096,14.53918 2.94287,16.7113c2.6626,3.08301 6.65649,4.62451 11.98169,4.62451h5.57044v3.88879h-61.06458v-3.88879h5.36023c6.02588,0 10.33508,-1.96191 12.92761,-5.88574c1.47144,-2.17212 2.20715,-7.32214 2.20715,-15.45007v-92.06982c0,-8.96875 -0.98096,-14.53919 -2.94287,-16.71131c-2.73267,-3.08301 -6.79663,-4.62451 -12.19189,-4.62451h-5.36023v-3.88879h51.92065c15.13477,0 26.27564,1.12109 33.42261,3.36328c7.21704,2.17212 13.31299,6.23608 18.28784,12.19189c5.04493,5.88575 7.56739,12.92762 7.56739,21.12561c0,8.75855 -2.8728,16.36097 -8.61841,22.80725c-5.67554,6.44629 -14.50415,11.00073 -26.48584,13.66333l29.42871,40.88489c6.72656,9.38916 12.5072,15.62524 17.34192,18.70825c4.83471,3.08301 11.14086,5.04492 18.91845,5.88574zM240.59219,159.89953c1.3313,0 2.48743,0.03503 3.46838,0.1051c0.98096,0 1.78674,0 2.41736,0c13.59326,0 23.82324,-2.94287 30.68994,-8.82861c6.93677,-5.88574 10.40515,-13.38306 10.40515,-22.49194c0,-8.89869 -2.80273,-16.11573 -8.4082,-21.65113c-5.5354,-5.60547 -12.89258,-8.4082 -22.07153,-8.4082c-4.06397,0 -9.56433,0.66565 -16.5011,1.99695z"/><path d="M363.03665,173.14245c-0.07007,14.29395 3.39831,25.50488 10.40515,33.63281c7.00683,8.12793 15.23986,12.19189 24.69909,12.19189c6.30615,0 11.77149,-1.71667 16.396,-5.15002c4.69458,-3.50342 8.61841,-9.45923 11.77149,-17.86743l3.25817,2.10205c-1.47143,9.59937 -5.7456,18.35791 -12.82251,26.27563c-7.0769,7.84766 -15.94055,11.77148 -26.59094,11.77148c-11.56128,0 -21.47595,-4.48438 -29.74402,-13.45313c-8.19799,-9.03882 -12.29699,-21.16064 -12.29699,-36.36548c0,-16.46606 4.2041,-29.28857 12.6123,-38.46753c8.47827,-9.24902 19.09363,-13.87354 31.84607,-13.87354c10.79053,0 19.65417,3.57349 26.59094,10.72046c6.93677,7.0769 10.40515,16.57117 10.40515,28.48279zM363.03665,167.0465h44.56347c-0.35034,-6.16602 -1.08606,-10.51025 -2.20715,-13.03271c-1.75171,-3.92383 -4.37927,-7.00684 -7.88269,-9.24902c-3.43335,-2.24219 -7.04187,-3.36328 -10.82556,-3.36328c-5.81567,0 -11.03577,2.27722 -15.66028,6.83167c-4.55445,4.48438 -7.21704,10.75549 -7.98779,18.81335z"/></g><path d="M458.48202,146.6195v32.07225l21.0945,-6.888v-32.07225zM452.23977,126.386v-35.08575h6.24225v32.93325l21.0945,-6.888v-31.4265h6.24225v29.48925l8.39475,-2.79825v22.386l-8.39475,2.79825v31.857l8.39475,-2.583v22.17075l-8.39475,2.79825v35.08575h-6.24225v-33.1485l-21.0945,6.888v31.857h-6.24225v-29.7045l-9.25575,3.0135v-22.386l9.25575,-3.0135v-32.07225l-9.25575,3.0135v-22.17075z" fill="#000000" stroke="none" stroke-width="1"/><path d="M510.42993,137.062l21.3208,-42.61157l21.3208,42.61157z" fill="#000000" stroke="none" stroke-width="1"/></g></g></svg>