<svg version="1.1" xmlns="http://www.w3.org/2000/svg" xmlns:xlink="http://www.w3.org/1999/xlink" width="82.59195" height="79.38632" viewBox="0,0,82.59195,79.38632"><defs><radialGradient cx="254.6669" cy="194.87583" r="24.62462" gradientUnits="userSpaceOnUse" id="color-1"><stop offset="0" stop-color="#adadad"/><stop offset="1" stop-color="#676767"/></radialGradient></defs><g transform="translate(-198.70403,-140.30684)"><g data-paper-data="{&quot;isPaintingLayer&quot;:true}" fill-rule="nonzero" stroke-linecap="butt" stroke-linejoin="miter" stroke-miterlimit="10" stroke-dasharray="" stroke-dashoffset="0" style="mix-blend-mode: normal"><path d="M274.20553,182.85532c-0.1387,3.97839 -15.81461,20.02294 -22.70072,20.02294l-24.31292,0.11628c-3.51185,0 -8.07982,-1.45176 -7.78772,-3.43907c0.37164,-0.3783 21.0299,-16.7179 21.0299,-16.7179c0,0 29.60783,-0.00715 33.77146,0.01775z" data-paper-data="{&quot;index&quot;:null}" fill="#696969" stroke="#272727" stroke-width="1.5"/><path d="M198.70404,219.69316v-79.38632h82.59195v79.38632z" fill="none" stroke="none" stroke-width="0"/><path d="M264.67064,183.66927l10.81395,-0.00336c0,6.88622 -16.396,20.72397 -23.28211,20.72397h-24.31292c-3.51185,0 -6.68447,-1.45176 -8.95051,-3.78791c0.37164,-0.3783 21.0299,-16.95046 21.0299,-16.95046z" data-paper-data="{&quot;index&quot;:null}" fill="url(#color-1)" stroke="#696969" stroke-width="0.5"/></g></g></svg>