<svg version="1.1" xmlns="http://www.w3.org/2000/svg" xmlns:xlink="http://www.w3.org/1999/xlink" width="49.74924" height="49.74924" viewBox="0,0,49.74924,49.74924"><defs><radialGradient cx="225.37913" cy="164.88944" r="24.62462" gradientUnits="userSpaceOnUse" id="color-1"><stop offset="0" stop-color="#e3e3e3"/><stop offset="1" stop-color="#9d9d9d"/></radialGradient></defs><g transform="translate(-215.12538,-155.12538)"><g data-paper-data="{&quot;isPaintingLayer&quot;:true}" fill-rule="nonzero" stroke-linejoin="miter" stroke-miterlimit="10" stroke-dasharray="" stroke-dashoffset="0" style="mix-blend-mode: normal"><path d="M264.62462,167.84354v24.31292c0,6.88611 -5.58195,12.46816 -12.46816,12.46816h-24.31292c-6.88611,0 -12.46816,-5.58195 -12.46816,-12.46816v-24.31292c0,-6.88622 5.58205,-12.46816 12.46816,-12.46816h24.31292c6.88622,0 12.46816,5.58195 12.46816,12.46816z" fill="#494949" stroke="#696969" stroke-width="0.5" stroke-linecap="butt"/><path d="M243.33386,186.58288c0.03348,-0.02031 0.43895,0.04291 0.50899,0.05153c0.38029,0.04684 1.07608,0.06958 1.44956,-0.07088l0.08795,0.75892c0.11298,0.74718 0.78463,1.95895 1.50692,2.26637c-0.03136,0.01024 -0.05329,0.01503 -0.08641,0.01687l-4.49331,0.01908c-0.16677,0.00009 -0.35957,0.01674 -0.52324,-0.00722l0.0278,-0.0356c0.76699,-0.52644 1.28378,-1.34957 1.44631,-2.26393z" fill="#d8d8d8" stroke="#626262" stroke-width="0.5" stroke-linecap="butt"/><path d="M247.37054,189.62107c0.94019,0.00063 1.2037,0.96814 1.16854,1.59048c1.68592,0.05356 1.46212,0.86874 1.52821,1.78027c0.8524,-0.05047 1.09946,1.13059 -0.00132,1.13068l-11.65792,0.00049c-0.68676,-0.0236 -0.79655,-1.12386 0.15576,-1.13692c0.04449,-0.5407 0.15217,-1.69333 1.4723,-1.77075c0.11486,-0.55658 0.30449,-1.62762 1.51113,-1.60686c0.07775,0.00194 5.68309,0.01251 5.8233,0.01261z" fill="#ffffff" stroke="none" stroke-width="1" stroke-linecap="butt"/><path d="M243.48227,186.70578c0.59053,0.02692 0.90201,0.17548 1.66175,0.02833l0.06322,0.72925c-0.58096,0.25362 -1.49626,0.10709 -1.8004,-0.00307z" fill="#424242" stroke="none" stroke-width="1" stroke-linecap="butt"/><path d="M251.37118,174.61881c2.31516,0.19376 3.38347,0.59651 3.40825,2.43085c-0.11434,1.82557 -2.10613,5.0278 -5.30193,5.64341c-0.6804,1.45538 -2.03423,3.0264 -3.52328,3.65388c-0.84211,0.30402 -1.57461,0.62202 -3.09686,0.07012c-1.52226,-0.55189 -2.9121,-2.26708 -3.73948,-3.79166c-3.80353,-0.65217 -5.04176,-4.08143 -5.24154,-5.45745c-0.19029,-1.05325 0.64844,-2.59646 3.58143,-2.53782c0.76909,0.3926 10.99594,0.81465 13.91338,-0.01133zM251.01216,176.20372c-0.18858,0.95042 -0.90443,4.73547 -0.90443,4.73547c1.91041,-1.22818 3.2064,-2.35634 2.94434,-4.18983c-0.04475,-0.69988 -1.07403,-0.52974 -2.03991,-0.54564zM235.6363,176.5964c-0.67133,2.36953 2.78709,4.24465 2.87986,4.30502l-0.92921,-4.6929c0,0 -1.76373,-0.27192 -1.95066,0.38788z" fill="#d8d8d8" stroke="#616161" stroke-width="0.5" stroke-linecap="butt"/><path d="M215.37538,192.15646v-24.31292c0,-6.88622 5.58205,-12.46816 12.46816,-12.46816h24.31292c3.51185,0 6.68447,1.45176 8.95051,3.78791c-0.74882,0.76224 -41.91843,41.97115 -42.08523,41.80414c-2.25309,-2.25583 -3.64636,-5.37063 -3.64636,-8.81097z" fill="url(#color-1)" stroke="#696969" stroke-width="0.5" stroke-linecap="butt"/><path d="M220.07133,201.0802l40.86492,-40.86492" fill="none" stroke="#696969" stroke-width="1.5" stroke-linecap="round"/></g></g></svg>