<svg version="1.1" xmlns="http://www.w3.org/2000/svg" xmlns:xlink="http://www.w3.org/1999/xlink" width="863.98491" height="465" viewBox="0,0,863.98491,465"><g transform="translate(191.99243,52.5)"><g data-paper-data="{&quot;isPaintingLayer&quot;:true}" fill-rule="nonzero" stroke-linecap="butt" stroke-linejoin="miter" stroke-miterlimit="10" stroke-dasharray="" stroke-dashoffset="0" style="mix-blend-mode: normal"><path d="M-191.99243,412.5v-465h863.98491v465z" fill="none" stroke="#000000" stroke-width="0"/><path d="M-155.99999,0h792v344.98498h-792z" fill="#ffffff" stroke="#000000" stroke-width="0"/><path d="M-56.40099,223.152c-2.296,0.41 -4.756,0.656 -7.38,0.738c-2.542,0.082 -5.043,0 -7.503,-0.246c-2.46,-0.164 -4.756,-0.451 -6.888,-0.861c-2.05,-0.328 -3.731,-0.82 -5.043,-1.476c-6.314,-3.034 -11.439,-6.273 -15.375,-9.717c-3.854,-3.362 -6.847,-6.888 -8.979,-10.578c-2.132,-3.69 -3.649,-7.462 -4.551,-11.316c-0.82,-3.936 -1.353,-7.872 -1.599,-11.808c-0.328,-4.264 0.041,-8.528 1.107,-12.792c1.148,-4.264 2.665,-8.323 4.551,-12.177c1.968,-3.936 4.182,-7.544 6.642,-10.824c2.542,-3.28 5.084,-6.15 7.626,-8.61c2.952,-2.788 6.027,-5.535 9.225,-8.241c3.28,-2.788 6.847,-5.617 10.701,-8.487c-0.082,-1.066 -0.205,-2.009 -0.369,-2.829c-0.082,-0.82 -0.205,-1.64 -0.369,-2.46c-0.164,-0.902 -0.369,-1.886 -0.615,-2.952c-0.164,-1.066 -0.287,-2.378 -0.369,-3.936c0,-0.656 -0.082,-1.845 -0.246,-3.567c-0.164,-1.804 -0.287,-3.936 -0.369,-6.396c0,-2.542 0.082,-5.412 0.246,-8.61c0.164,-3.198 0.574,-6.519 1.23,-9.963c0.41,-2.05 1.271,-4.633 2.583,-7.749c1.394,-3.198 2.993,-6.273 4.797,-9.225c1.886,-2.952 3.854,-5.494 5.904,-7.626c2.05,-2.132 3.977,-3.198 5.781,-3.198c0.902,0 1.886,0.574 2.952,1.722c1.066,1.066 2.091,2.542 3.075,4.428c1.066,1.804 2.091,3.895 3.075,6.273c0.984,2.296 1.845,4.674 2.583,7.134c0.738,2.46 1.312,4.879 1.722,7.257c0.492,2.378 0.779,4.469 0.861,6.273c0.082,4.264 -0.082,8.036 -0.492,11.316c-0.41,3.198 -1.025,6.109 -1.845,8.733c-0.82,2.542 -1.804,4.92 -2.952,7.134c-1.066,2.132 -2.214,4.305 -3.444,6.519c-1.312,2.214 -2.665,4.182 -4.059,5.904c-1.312,1.64 -2.665,3.321 -4.059,5.043c-1.476,1.804 -3.034,3.321 -4.674,4.551c-1.558,1.148 -3.116,2.419 -4.674,3.813c0.738,4.182 1.394,7.954 1.968,11.316c0.246,1.476 0.492,2.911 0.738,4.305c0.246,1.394 0.451,2.706 0.615,3.936c0.164,1.148 0.328,2.132 0.492,2.952c0.164,0.738 0.246,1.189 0.246,1.353c1.968,-0.246 3.977,-0.246 6.027,0c2.132,0.164 4.141,0.451 6.027,0.861c1.968,0.41 3.69,0.943 5.166,1.599c1.558,0.656 2.788,1.271 3.69,1.845c4.428,3.28 7.544,7.052 9.348,11.316c1.886,4.182 2.993,8.487 3.321,12.915c0.246,3.444 -0.041,6.888 -0.861,10.332c-0.82,3.526 -2.214,6.847 -4.182,9.963c-1.886,3.198 -4.387,6.109 -7.503,8.733c-3.034,2.624 -6.642,4.797 -10.824,6.519c0.492,3.362 0.943,6.478 1.353,9.348c0.41,2.46 0.779,4.838 1.107,7.134c0.328,2.378 0.574,4.018 0.738,4.92c0.738,4.92 1.025,8.938 0.861,12.054c-0.164,3.198 -0.779,5.781 -1.845,7.749c-0.902,1.64 -1.968,3.239 -3.198,4.797c-1.148,1.558 -2.542,2.952 -4.182,4.182c-1.64,1.23 -3.567,2.255 -5.781,3.075c-2.132,0.82 -4.592,1.312 -7.38,1.476c-2.132,0.164 -4.674,-0.041 -7.626,-0.615c-2.952,-0.492 -5.781,-1.435 -8.487,-2.829c-2.706,-1.312 -5.043,-3.116 -7.011,-5.412c-1.968,-2.296 -3.075,-5.125 -3.321,-8.487c-0.164,-1.968 -0.041,-3.977 0.369,-6.027c0.41,-1.968 1.107,-3.772 2.091,-5.412c1.066,-1.558 2.419,-2.87 4.059,-3.936c1.722,-1.066 3.813,-1.681 6.273,-1.845c1.476,-0.082 2.952,0.123 4.428,0.615c1.558,0.574 2.993,1.353 4.305,2.337c1.312,0.984 2.378,2.214 3.198,3.69c0.82,1.476 1.312,3.075 1.476,4.797c0.246,3.034 -0.697,5.945 -2.829,8.733c-2.132,2.87 -5.74,5.002 -10.824,6.396c0.82,1.148 2.378,2.214 4.674,3.198c2.296,1.066 5.166,1.599 8.61,1.599c3.608,0 7.052,-1.066 10.332,-3.198c3.362,-2.132 5.945,-4.797 7.749,-7.995c1.148,-2.132 1.722,-4.92 1.722,-8.364c0,-3.362 -0.205,-6.765 -0.615,-10.209c-0.164,-0.574 -0.41,-2.009 -0.738,-4.305c-0.328,-2.214 -0.697,-4.551 -1.107,-7.011c-0.41,-2.87 -0.902,-6.068 -1.476,-9.594zM-53.81798,67.311c-3.198,0 -6.027,1.517 -8.487,4.551c-2.378,2.952 -4.346,6.724 -5.904,11.316c-1.476,4.592 -2.46,9.635 -2.952,15.129c-0.492,5.494 -0.369,10.783 0.369,15.867c2.706,-2.05 5.535,-4.51 8.487,-7.38c2.952,-2.952 5.617,-6.068 7.995,-9.348c2.46,-3.28 4.428,-6.601 5.904,-9.963c1.558,-3.362 2.214,-6.56 1.968,-9.594c-0.082,-0.984 -0.246,-2.091 -0.492,-3.321c-0.246,-1.23 -0.656,-2.378 -1.23,-3.444c-0.574,-1.066 -1.312,-1.968 -2.214,-2.706c-0.902,-0.738 -2.05,-1.107 -3.444,-1.107zM-54.06399,218.109c3.526,-1.23 6.273,-2.829 8.241,-4.797c1.968,-1.968 3.403,-4.1 4.305,-6.396c0.984,-2.296 1.517,-4.592 1.599,-6.888c0.164,-2.296 0.205,-4.346 0.123,-6.15c-0.164,-1.476 -0.533,-3.321 -1.107,-5.535c-0.492,-2.214 -1.476,-4.346 -2.952,-6.396c-1.476,-2.05 -3.567,-3.731 -6.273,-5.043c-2.706,-1.394 -6.314,-1.968 -10.824,-1.722zM-64.14999,175.428c-3.362,0.164 -6.15,0.861 -8.364,2.091c-2.132,1.148 -3.854,2.583 -5.166,4.305c-1.23,1.64 -2.091,3.403 -2.583,5.289c-0.41,1.886 -0.574,3.567 -0.492,5.043c0.082,1.476 0.41,2.993 0.984,4.551c0.574,1.558 1.312,2.993 2.214,4.305c0.984,1.394 2.009,2.624 3.075,3.69c1.148,1.148 2.296,2.009 3.444,2.583c-0.164,0.164 -0.328,0.287 -0.492,0.369c-0.082,0.164 -0.205,0.328 -0.369,0.492c-0.164,0.164 -0.287,0.328 -0.369,0.492c-2.542,-1.23 -4.797,-2.706 -6.765,-4.428c-1.886,-1.64 -3.116,-2.829 -3.69,-3.567c-0.902,-1.23 -1.681,-2.337 -2.337,-3.321c-0.656,-0.984 -1.189,-2.05 -1.599,-3.198c-0.41,-1.066 -0.779,-2.255 -1.107,-3.567c-0.246,-1.312 -0.41,-2.87 -0.492,-4.674c-0.164,-1.722 -0.041,-3.526 0.369,-5.412c0.41,-1.968 1.066,-3.936 1.968,-5.904c0.984,-1.968 2.214,-3.854 3.69,-5.658c1.558,-1.886 3.362,-3.649 5.412,-5.289c1.066,-0.82 2.009,-1.476 2.829,-1.968c0.902,-0.492 1.722,-0.902 2.46,-1.23c0.738,-0.41 1.476,-0.697 2.214,-0.861c0.82,-0.246 1.681,-0.492 2.583,-0.738l-3.69,-22.263c-0.984,0.574 -2.583,1.722 -4.797,3.444c-2.214,1.722 -4.633,3.772 -7.257,6.15c-2.624,2.378 -5.248,4.961 -7.872,7.749c-2.542,2.706 -4.633,5.33 -6.273,7.872c-2.952,4.674 -5.248,8.979 -6.888,12.915c-1.64,3.936 -2.255,8.2 -1.845,12.792c0.328,5.166 1.886,9.963 4.674,14.391c2.87,4.51 6.519,8.282 10.947,11.316c4.428,3.034 9.471,5.125 15.129,6.273c5.658,1.23 11.521,1.107 17.589,-0.369c-1.312,-8.118 -2.501,-15.375 -3.567,-21.771c-0.492,-2.706 -0.943,-5.371 -1.353,-7.995c-0.41,-2.624 -0.82,-4.961 -1.23,-7.011c-0.328,-2.05 -0.574,-3.69 -0.738,-4.92c-0.164,-1.312 -0.246,-1.968 -0.246,-1.968z" fill="#000000" stroke="none" stroke-width="1"/><path d="M170.29201,99.906h-293.83399" fill="none" stroke="#000000" stroke-width="2.302"/><path d="M-123.54199,130.65601h293.83399" fill="none" stroke="#000000" stroke-width="2.302"/><path d="M170.29201,161.40601h-293.83399" fill="none" stroke="#000000" stroke-width="2.302"/><path d="M170.29201,192.15601h-293.83399" fill="none" stroke="#000000" stroke-width="2.302"/><path d="M-123.54199,222.90601h293.83399" fill="none" stroke="#000000" stroke-width="2.302"/><path d="M27.21901,84.162c-0.164,-2.132 0.328,-4.141 1.476,-6.027c1.23,-1.968 2.952,-3.69 5.166,-5.166c2.214,-1.476 4.797,-2.665 7.749,-3.567c3.034,-0.902 6.273,-1.353 9.717,-1.353c3.444,0 6.765,0.328 9.963,0.984c3.198,0.656 6.027,1.681 8.487,3.075c2.542,1.394 4.633,3.157 6.273,5.289c1.64,2.05 2.583,4.51 2.829,7.38c0.164,2.132 -0.369,4.141 -1.599,6.027c-1.148,1.968 -2.829,3.69 -5.043,5.166c-2.132,1.476 -4.715,2.624 -7.749,3.444c-2.952,0.902 -6.15,1.353 -9.594,1.353c-3.444,0 -6.765,-0.328 -9.963,-0.984c-3.198,-0.656 -6.068,-1.681 -8.61,-3.075c-2.542,-1.312 -4.633,-3.034 -6.273,-5.166c-1.64,-2.05 -2.583,-4.51 -2.829,-7.38zM42.59401,81.825c0.328,2.214 0.738,4.305 1.23,6.273c0.574,1.968 1.312,3.69 2.214,5.166c0.984,1.476 2.132,2.624 3.444,3.444c1.394,0.82 3.116,1.23 5.166,1.23c1.476,0 2.788,-0.328 3.936,-0.984c1.23,-0.656 2.255,-1.476 3.075,-2.46c0.82,-0.984 1.394,-2.091 1.722,-3.321c0.41,-1.148 0.533,-2.296 0.369,-3.444c-0.328,-2.214 -0.779,-4.305 -1.353,-6.273c-0.574,-1.968 -1.353,-3.69 -2.337,-5.166c-0.984,-1.476 -2.214,-2.624 -3.69,-3.444c-1.394,-0.902 -3.116,-1.353 -5.166,-1.353c-1.476,0 -2.788,0.328 -3.936,0.984c-1.148,0.656 -2.091,1.476 -2.829,2.46c-0.738,0.984 -1.271,2.091 -1.599,3.321c-0.328,1.23 -0.41,2.419 -0.246,3.567z" fill="#000000" stroke="none" stroke-width="1"/><path d="M-3.64399,76.905v18.327l12.054,-3.936v-18.327zM-7.21099,65.343v-20.049h3.567v18.819l12.054,-3.936v-17.958h3.567v16.851l4.797,-1.599v12.792l-4.797,1.599v18.204l4.797,-1.476v12.669l-4.797,1.599v20.049h-3.567v-18.942l-12.054,3.936v18.204h-3.567v-16.974l-5.289,1.722v-12.792l5.289,-1.722v-18.327l-5.289,1.722v-12.669z" fill="#000000" stroke="none" stroke-width="1"/><g fill="#000000" stroke="none" stroke-width="1"><path d="M295.0353,87.37878v49.29309h-3.88879c-1.26123,-9.45923 -3.53845,-16.99158 -6.83166,-22.59705c-3.22314,-5.60547 -7.84766,-10.05481 -13.87354,-13.34802c-6.02588,-3.29321 -12.26196,-4.93982 -18.70825,-4.93982c-7.28711,0 -13.31299,2.24219 -18.07764,6.72656c-4.76465,4.41431 -7.14697,9.45923 -7.14697,15.13477c0,4.34424 1.50647,8.3031 4.51941,11.87659c4.34424,5.25512 14.67932,12.26196 31.00525,21.0205c13.31299,7.14697 22.38684,12.64734 27.22156,16.5011c4.90478,3.78369 8.65344,8.26807 11.24598,13.45313c2.66259,5.18506 3.99389,10.61536 3.99389,16.29089c0,10.79053 -4.2041,20.10962 -12.6123,27.95728c-8.33813,7.77759 -19.09363,11.66638 -32.26648,11.66638c-4.13403,0 -8.02283,-0.31531 -11.66638,-0.94592c-2.17212,-0.35034 -6.69153,-1.61157 -13.55823,-3.78369c-6.79663,-2.24219 -11.10583,-3.36328 -12.92761,-3.36328c-1.75171,0 -3.15308,0.52551 -4.2041,1.57654c-0.98096,1.05103 -1.71667,3.22314 -2.20715,6.51636h-3.88879v-48.87268h3.88879c1.82178,10.22998 4.27417,17.90247 7.35718,23.01746c3.08301,5.04492 7.77759,9.24902 14.08374,12.6123c6.37622,3.36328 13.34802,5.04492 20.91541,5.04492c8.75855,0 15.66028,-2.31226 20.7052,-6.93677c5.11499,-4.62451 7.67249,-10.08984 7.67249,-16.396c0,-3.50342 -0.98096,-7.04187 -2.94287,-10.61536c-1.89185,-3.57349 -4.86975,-6.90173 -8.93372,-9.98474c-2.73267,-2.10205 -10.19495,-6.55139 -22.38684,-13.34802c-12.19189,-6.8667 -20.88037,-12.33203 -26.06543,-16.396c-5.11499,-4.06396 -9.00378,-8.54834 -11.66638,-13.45312c-2.6626,-4.90479 -3.9939,-10.30005 -3.9939,-16.1858c0,-10.22998 3.92383,-19.02356 11.77148,-26.38073c7.84766,-7.42725 17.8324,-11.14087 29.95422,-11.14087c7.56738,0 15.59021,1.85681 24.06848,5.57043c3.92383,1.75171 6.69153,2.62757 8.3031,2.62757c1.82178,0 3.29321,-0.52551 4.41431,-1.57654c1.19116,-1.12109 2.13708,-3.32825 2.83777,-6.62146z"/><path d="M369.97341,134.04431c14.57422,0 26.27564,5.5354 35.10425,16.6062c7.49731,9.45923 11.24597,20.31982 11.24597,32.58179c0,8.61841 -2.06702,17.34192 -6.20105,26.17053c-4.13403,8.82861 -9.8446,15.48511 -17.13171,19.96948c-7.21704,4.48438 -15.2749,6.72656 -24.17358,6.72656c-14.50415,0 -26.0304,-5.78064 -34.57874,-17.34192c-7.21704,-9.7395 -10.82556,-20.67017 -10.82556,-32.79199c0,-8.82861 2.17212,-17.58716 6.51636,-26.27564c4.41431,-8.75854 10.19495,-15.20483 17.34192,-19.33887c7.14697,-4.2041 14.71435,-6.30615 22.70214,-6.30615zM366.71524,140.87597c-3.71363,0 -7.46229,1.12109 -11.24598,3.36328c-3.71362,2.17212 -6.72656,6.02588 -9.03881,11.56128c-2.31226,5.5354 -3.46839,12.64734 -3.46839,21.33582c0,14.01367 2.7677,26.10046 8.3031,36.26038c5.60547,10.15991 12.96265,15.23987 22.07154,15.23987c6.79663,0 12.40209,-2.80273 16.8164,-8.4082c4.41431,-5.60547 6.62146,-15.23987 6.62146,-28.9032c0,-17.09668 -3.67859,-30.5498 -11.03576,-40.35937c-4.97485,-6.72656 -11.31604,-10.08984 -19.02356,-10.08984z"/><path d="M463.61978,83.70019v127.69958c0,6.02588 0.42041,10.01978 1.26123,11.98169c0.91089,1.96191 2.27722,3.46838 4.099,4.51941c1.82177,0.98096 5.22009,1.47144 10.19494,1.47144v3.78369h-47.19104v-3.78369c4.41431,0 7.42725,-0.45544 9.03882,-1.36633c1.61157,-0.91089 2.8728,-2.41736 3.78369,-4.51941c0.91089,-2.10205 1.36634,-6.13098 1.36634,-12.08679v-87.44531c0,-10.86059 -0.24524,-17.51709 -0.73572,-19.96948c-0.49048,-2.52246 -1.29627,-4.23913 -2.41736,-5.15002c-1.05103,-0.91089 -2.41736,-1.36634 -4.099,-1.36634c-1.82178,0 -4.13404,0.56055 -6.93677,1.68164l-1.78674,-3.67859l28.69299,-11.77148z"/></g><path d="M506.50901,146.6195v32.07225l21.0945,-6.888v-32.07225zM500.26676,126.386v-35.08575h6.24225v32.93325l21.0945,-6.888v-31.4265h6.24225v29.48925l8.39475,-2.79825v22.386l-8.39475,2.79825v31.857l8.39475,-2.583v22.17075l-8.39475,2.79825v35.08575h-6.24225v-33.1485l-21.0945,6.888v31.857h-6.24225v-29.7045l-9.25575,3.0135v-22.386l9.25575,-3.0135v-32.07225l-9.25575,3.0135v-22.17075z" fill="#000000" stroke="none" stroke-width="1"/><path d="M558.45692,137.062l21.3208,-42.61157l21.3208,42.61157z" fill="#000000" stroke="none" stroke-width="1"/></g></g></svg>