<svg version="1.1" xmlns="http://www.w3.org/2000/svg" xmlns:xlink="http://www.w3.org/1999/xlink" width="539.21384" height="643.48245" viewBox="0,0,539.21384,643.48245"><defs><radialGradient cx="95.55309" cy="74.83173" r="459.03355" gradientUnits="userSpaceOnUse" id="color-1"><stop offset="0" stop-color="#2e3436"/><stop offset="1" stop-color="#555753"/></radialGradient><linearGradient x1="-26.38807" y1="-1.71396" x2="-26.38807" y2="441.92201" gradientUnits="userSpaceOnUse" id="color-2"><stop offset="0" stop-color="#ffffff" stop-opacity="0.4"/><stop offset="1" stop-color="#ffffff" stop-opacity="0"/></linearGradient><linearGradient x1="-26.38807" y1="-1.71396" x2="-26.38807" y2="441.92201" gradientUnits="userSpaceOnUse" id="color-3"><stop offset="0" stop-color="#ffffff" stop-opacity="0.4"/><stop offset="1" stop-color="#ffffff" stop-opacity="0"/></linearGradient><linearGradient x1="-21.38805" y1="275.34853" x2="-21.38805" y2="637.53635" gradientUnits="userSpaceOnUse" id="color-4"><stop offset="0" stop-color="#ffab9a"/><stop offset="1" stop-color="#f57900"/></linearGradient><linearGradient x1="-21.38805" y1="275.34853" x2="-21.38805" y2="637.53635" gradientUnits="userSpaceOnUse" id="color-5"><stop offset="0" stop-color="#ce5c00"/><stop offset="1" stop-color="#a64a00"/></linearGradient><linearGradient x1="-21.38805" y1="286.93638" x2="-21.38805" y2="626.15937" gradientUnits="userSpaceOnUse" id="color-6"><stop offset="0" stop-color="#ffffff" stop-opacity="0.8"/><stop offset="1" stop-color="#ffffff" stop-opacity="0"/></linearGradient><linearGradient x1="66.6865" y1="-150.8057" x2="201.15696" y2="563.44719" gradientUnits="userSpaceOnUse" id="color-7"><stop offset="0" stop-color="#ffffff"/><stop offset="1" stop-color="#ffffff" stop-opacity="0"/></linearGradient></defs><g transform="translate(38.42536,11)"><g data-paper-data="{&quot;isPaintingLayer&quot;:true}" fill-rule="nonzero" stroke-miterlimit="10" stroke-dasharray="" stroke-dashoffset="0" style="mix-blend-mode: normal"><path d="M-11.44344,105v-116h445c0,0 1.79247,28.43468 2.19119,41.43279c0.14968,4.87962 4.24662,10.10402 7.80816,10.1373c8.82079,0.08244 46.00066,0.42991 46.00066,0.42991v64z" fill="#000000" stroke="none" stroke-width="0" stroke-linecap="butt" stroke-linejoin="miter"/><path d="M219.65928,23.87069l61.02214,40.791h209.05735v317.58608h-499.47754v-358.37708z" fill="url(#color-1)" stroke="#2e3436" stroke-width="1" stroke-linecap="square" stroke-linejoin="round"/><path d="M214.33238,35.37008l57.57866,36.4529c0.86246,1.05011 6.66717,4.13859 8.67148,4.16232h197.70986v295.57808l-476.58482,-0.68853v-335.50478z" fill="none" stroke="url(#color-2)" stroke-width="1" stroke-linecap="square" stroke-linejoin="round" opacity="0.8"/><path d="M214.33238,35.37008l57.57866,36.4529c3.19772,1.41791 6.6077,4.24062 8.67148,4.16232h197.70986v294.88956h-476.58482v-335.50478z" fill="none" stroke="url(#color-3)" stroke-width="1" stroke-linecap="square" stroke-linejoin="round" opacity="0.8"/><path d="M494.3919,305.58511l-5.54975,301.70505h-487.68432l-5.54975,-265.34744h152.61813c2.37249,0.04094 4.54692,-1.31807 5.54975,-3.4686l31.91107,-32.88901z" fill="#000000" stroke="none" stroke-width="1" stroke-linecap="butt" stroke-linejoin="miter"/><path d="M500.28848,318.41733l-5.54971,313.56512h-499.47753l-5.54972,-277.23152h158.41801l33.71734,-36.3336z" fill="url(#color-4)" stroke="url(#color-5)" stroke-width="1" stroke-linecap="square" stroke-linejoin="round"/><path d="M488.49528,330.00406l-4.85603,290.60555h-477.27853l-4.85603,-254.24794h146.72153c4.45929,0.02842 8.5254,-2.54679 10.40578,-6.59033l30.52362,-29.76727z" fill="none" stroke="url(#color-6)" stroke-width="1" stroke-linecap="square" stroke-linejoin="round" opacity="0.8"/><path d="M494.73875,324.10745l-1.7343,65.14693c-156.66129,27.03889 -358.97309,83.97157 -494.27465,141.51863l-3.4686,-170.30797h152.965c2.19021,0.04613 4.21293,-1.16749 5.2029,-3.12173l32.25792,-33.23587z" fill="url(#color-7)" stroke="none" stroke-width="1" stroke-linecap="butt" stroke-linejoin="miter" opacity="0.8"/><text transform="translate(16.32701,60.23898) scale(0.5,0.5)" font-size="40" xml:space="preserve" fill="#ffdb66" fill-rule="nonzero" stroke="none" stroke-width="1" stroke-linecap="butt" stroke-linejoin="miter" stroke-miterlimit="10" stroke-dasharray="" stroke-dashoffset="0" font-family="Marker" font-weight="normal" text-anchor="start" style="mix-blend-mode: normal"><tspan x="0" dy="0">Elige una pieza</tspan></text><text transform="translate(-38.17536,98.15366) scale(0.5,0.5)" font-size="40" xml:space="preserve" fill="#ffdb66" fill-rule="nonzero" stroke="none" stroke-width="1" stroke-linecap="butt" stroke-linejoin="miter" stroke-miterlimit="10" stroke-dasharray="" stroke-dashoffset="0" font-family="Marker" font-weight="normal" text-anchor="start" style="mix-blend-mode: normal"><tspan x="0" dy="0"> </tspan></text></g></g></svg>